<?xml version="1.0" standalone="no"?>
<!DOCTYPE svg PUBLIC "-//W3C//DTD SVG 1.1//EN" "http://www.w3.org/Graphics/SVG/1.1/DTD/svg11.dtd" >
<svg xmlns="http://www.w3.org/2000/svg" xmlns:xlink="http://www.w3.org/1999/xlink" version="1.1">
<metadata>
Created by FontForge 20170910 at Sat Oct 17 00:06:36 2015
 By Jimmy Wärting
Copyright \(c\) 2015 by . All rights reserved.
</metadata>
<defs>
<font id="ChristmasBeautyRegular" horiz-adv-x="453" >
  <font-face 
    font-family="Christmas Beauty Regular"
    font-weight="400"
    font-stretch="normal"
    units-per-em="1000"
    panose-1="0 0 0 0 0 0 0 0 0 0"
    ascent="750"
    descent="-250"
    x-height="779"
    cap-height="826"
    bbox="-0.887135 -226.375 824 1054"
    underline-thickness="50"
    underline-position="-100"
    unicode-range="U+0020-20AC"
  />
<missing-glyph horiz-adv-x="469" 
 />
    <glyph glyph-name=".notdef" horiz-adv-x="469" 
 />
    <glyph glyph-name="H" unicode="H" horiz-adv-x="516" 
d="M484 672c0 -13 -1 -23 11 -34c6 -5 8 -22 5 -31c-8 -19 -20 -36 -31 -54c7 -6 21 -12 21 -19c1 -28 -3 -57 -5 -86c-1 -4 -6 -8 -6 -11c11 -42 -7 -81 -9 -122c-3 -60 19 -115 27 -173c2 -20 4 -38 -4 -58c-6 -14 -6 -31 -9 -47c-3 -17 -6 -35 -10 -52
c-28 -4 -53 -6 -84 -10c-1 -1 -7 -9 -13 -18c-9 8 -17 15 -20 18c0 22 1 40 -1 58c-1 24 -5 48 -8 72c-2 21 12 30 40 35c-16 7 -23 10 -31 14v30c6 18 38 -1 29 29c-9 -1 -18 -2 -30 -3v150c-62 15 -113 -13 -168 -23c-5 -13 -10 -26 -17 -46c-5 12 -7 18 -11 31
c-2 -20 -3 -33 -4 -46h-8c-1 13 -3 27 -4 42c-21 -44 -18 -91 -19 -139c30 10 5 43 32 54c-2 -24 -1 -46 8 -68c7 -20 -2 -47 -7 -70c-2 -12 -11 -22 -19 -38c-6 15 -10 27 -13 36c-8 -22 2 -23 -1 -55c-3 -29 23 -49 13 -76c-22 22 -49 40 -63 65c-12 21 -15 50 -12 75
c3 22 -2 51 29 64c7 3 10 23 11 35c1 43 0 86 0 132c-48 11 -103 15 -103 85c11 22 36 18 55 19c35 3 42 9 39 42c-7 90 -14 180 -21 272c-4 0 -11 1 -21 2c5 13 10 23 14 33h76c2 -2 3 -11 8 -13c37 -15 42 -56 67 -81c12 -11 14 -31 10 -52c-9 -47 -14 -96 -21 -144
c-1 -10 1 -20 3 -34c42 0 84 -2 125 0c30 2 41 21 35 49c-4 20 -3 40 -5 59c-2 12 -7 24 -9 33c6 25 19 50 16 73c-6 41 20 80 2 123c16 5 33 16 46 13c16 -4 29 -20 46 -33c-3 -4 -7 -11 -13 -20c11 -3 21 -6 33 -10c-6 -11 -10 -21 -11 -23c5 -23 10 -38 10 -54zM385 458
c26 25 24 64 0 87v-87zM503 465v75h5v-75h-5zM513 346c1 0 2 1 3 1v-23h-3v22z" />
    <glyph glyph-name="E" unicode="E" horiz-adv-x="444" 
d="M328 171c33 20 69 23 108 21v-29c-47 -23 -94 -47 -145 -72c7 -7 11 -11 19 -18c-53 -15 -90 -60 -146 -66c-12 -1 -16 -8 -16 -24c-1 -29 -26 -43 -55 -37c-36 8 -66 27 -87 47c2 25 3 45 7 64c7 39 0 77 12 117c13 38 11 84 3 123c-5 24 -1 47 -6 70c-8 43 0 90 -1 135
c0 19 2 37 -11 57c-13 18 -10 51 -5 76c6 31 -17 64 7 93c-18 34 22 62 5 97c40 0 73 -10 89 -35c17 -26 35 -27 58 -26c56 3 113 9 170 12c39 3 80 5 109 -28c1 -31 -27 -25 -44 -37c5 -5 9 -10 15 -16c-24 -20 -55 -21 -83 -30c-20 -6 -40 -16 -61 -17
c-36 -3 -73 -1 -112 -1c-16 -56 1 -115 -5 -172c21 -16 42 -11 63 -5c14 3 27 9 40 14c37 12 59 4 85 -31c-7 -43 -60 -21 -76 -55c13 -3 27 -6 41 -10c-19 -36 -50 -50 -89 -48c-34 1 -62 -16 -87 -34c2 -19 3 -37 6 -60c-10 5 -15 8 -20 11c-4 19 -8 39 -12 58
c-2 0 -4 0 -6 -1c-3 -30 -7 -59 -10 -89c-4 -1 -8 -1 -12 -1c-23 57 -1 122 -29 178c-16 -102 5 -205 -6 -310c46 10 12 56 44 70v-53c8 7 13 11 20 18c31 -25 -12 -45 -2 -70c25 0 44 19 60 32c40 34 86 53 133 71c11 4 23 5 32 11zM116 254c0 1 0 2 -1 3h1v0l1 -1
c-1 0 -1 -1 -1 -2zM110 132c-6 16 -1 89 6 122c9 -40 13 -80 -6 -122z" />
    <glyph glyph-name="Q" unicode="Q" horiz-adv-x="564" 
d="M557 385c7 -12 8 -20 4 -32c-9 -28 -15 -59 -28 -85c-19 -40 -42 -77 -65 -115c-18 -30 -39 -59 -57 -90c-4 -7 -1 -20 2 -30c9 -34 20 -67 30 -101c8 -27 8 -27 -10 -60c-12 28 -19 56 -55 64c-10 2 -16 32 -19 49c-4 20 -13 31 -32 27c-11 -2 -22 -8 -33 -10
c-84 -22 -160 -9 -221 56c-17 17 -31 40 -37 63c-13 45 -16 92 -28 136c-24 88 13 168 21 251c8 87 53 155 90 228c12 23 28 43 43 64c14 20 62 19 86 -3c5 -4 8 -12 12 -17c18 -21 34 -42 65 -44c16 -1 32 -12 47 -21c27 -17 53 -36 79 -53c15 -9 25 -18 27 -39
c3 -20 18 -39 31 -56c15 -21 29 -39 26 -67c-1 -10 7 -22 10 -33c2 -8 6 -18 4 -24c-10 -22 -2 -41 8 -58zM38 225c3 -37 12 -75 38 -113c-11 86 -21 165 -33 253c-2 -53 -8 -97 -5 -140zM432 175c27 29 50 60 42 104c-9 51 -20 102 -27 154c-12 81 -57 146 -97 213
c-11 18 -30 30 -48 47c-11 -11 -19 -17 -22 -24c-26 -62 -53 -123 -77 -185c-15 -42 -43 -80 -38 -129c2 -16 2 -34 0 -50c-7 -52 -7 -104 7 -154c3 -12 9 -25 18 -33c15 -14 33 -24 50 -34c22 -12 45 -17 75 -8c-7 17 -13 31 -20 44c-13 29 -28 58 -39 87c-8 18 9 43 27 40
c36 -6 72 -15 107 -25c16 -5 23 -17 12 -34c-8 -13 -8 -25 5 -34c9 7 18 13 25 21z" />
    <glyph glyph-name="U" unicode="U" horiz-adv-x="474" 
d="M469 455c3 -39 8 -79 2 -116c-7 -50 -24 -97 -38 -146c-3 -13 -6 -26 -11 -38c-7 -20 -18 -31 -36 -11c-11 -26 -17 -52 -30 -70c-15 -23 -35 -45 -57 -58c-43 -27 -88 -53 -139 -40c-37 10 -68 35 -91 72c-38 62 -48 135 -54 208c-11 142 -17 283 -8 426
c1 21 -11 41 -4 66c11 46 32 60 69 40c47 -26 72 -70 78 -131c6 -69 14 -139 19 -209c2 -28 -1 -58 -4 -86c-7 -59 -5 -115 9 -173c8 -32 7 -67 28 -94c8 -10 15 -20 29 -38c19 24 37 42 49 64c28 54 47 112 52 177c4 45 17 89 22 134c4 41 8 83 3 122c-3 25 -14 50 -16 75
c-4 32 -6 65 -9 97c-1 6 -2 17 -5 18c-19 8 -17 28 -9 36c8 9 24 10 36 9c30 -1 41 -31 50 -57c7 -21 17 -24 33 -24c2 -25 6 -50 5 -76c-1 -25 6 -45 13 -68c9 -34 11 -72 14 -109z" />
    <glyph glyph-name="I" unicode="I" horiz-adv-x="210" 
d="M147 81c25 32 25 32 56 14c3 -16 4 -29 7 -45c-32 -23 -67 -51 -103 -76c-10 -8 -23 -13 -35 -13c-20 -1 -40 3 -60 4c2 40 6 73 47 78c8 1 19 33 19 50c0 90 -4 180 -3 271c0 34 7 69 11 104c7 57 11 113 -2 169c-3 13 -3 27 -4 40c-3 43 -11 55 -46 65
c-11 3 -22 6 -33 8c-1 47 9 68 41 71c41 5 83 5 124 5c34 -1 40 -49 25 -68c-21 -27 -14 -50 -7 -78c15 -61 11 -123 5 -185c-4 -42 -17 -84 -26 -125c-2 -12 -10 -25 10 -26c0 0 2 -16 1 -24c-7 -28 -15 -57 -21 -86c-3 -16 -3 -33 -4 -49c-1 -14 4 -31 -2 -39
c-14 -23 -6 -43 0 -65zM107 181h7v67h-7v-67z" />
    <glyph glyph-name="C" unicode="C" horiz-adv-x="452" 
d="M444 302c12 -26 7 -45 -2 -63c-17 -34 -36 -65 -36 -109c0 -17 -16 -38 -29 -51c-52 -54 -113 -88 -180 -100c-20 -3 -47 10 -61 27c-41 49 -82 98 -100 169c-17 66 -31 132 -31 201c1 37 -7 74 -3 110c3 35 14 70 26 103c20 57 53 100 98 129c16 11 33 22 44 39
c13 23 25 35 49 25c10 -5 21 -1 34 -1c-1 9 -3 16 -5 26c40 3 77 0 108 -36v0c16 -10 32 -19 48 -29c4 -3 9 -6 10 -10c15 -44 31 -88 23 -137c-5 -26 -25 -45 -48 -45c-20 1 -44 -4 -48 36c-1 12 -17 25 -28 30c-57 29 -101 11 -142 -38c-33 -40 -54 -92 -63 -152
c-9 -55 -5 -108 -2 -162c1 -17 15 -37 -9 -47c5 -11 7 -27 15 -34c11 -10 21 -19 28 -36c8 -21 15 -48 39 -51c31 -3 61 -5 88 18c56 48 97 113 138 179c9 16 19 31 35 42l-27 -81c2 -1 5 -3 7 -5c8 17 15 33 24 53zM376 742c-8 11 -14 20 -20 28c1 -19 2 -21 20 -28z
M55 269c-11 -36 -13 -67 14 -105c-6 41 -10 71 -14 105z" />
    <glyph glyph-name="K" unicode="K" horiz-adv-x="438" 
d="M186 409c-44 -36 -45 -85 -46 -131c-3 -66 7 -132 -15 -196c-2 10 -5 22 -7 33h-4v-138c0 -24 -11 -44 -26 -47c-14 -3 -38 18 -41 37c-8 42 -18 85 -22 128c-5 53 -5 106 -7 159c-1 53 0 106 -1 160c-1 18 3 37 -12 53c-5 5 -4 16 -4 24c2 22 7 43 8 64
c6 71 12 142 17 213c1 16 1 32 -1 48c-3 33 19 50 51 37c9 -4 17 -11 26 -16c7 -4 15 -7 23 -11c16 -121 7 -241 0 -361c25 16 25 16 20 37c14 9 28 15 38 26c49 52 96 106 144 160c12 12 24 24 38 34c16 11 32 13 48 -7c-4 -3 -8 -7 -16 -14h41
c-73 -66 -141 -124 -197 -199c24 -10 36 -24 37 -51c2 -19 22 -35 30 -54c15 -32 28 -65 42 -98c3 -9 9 -20 8 -29c-7 -43 18 -76 35 -112c10 -21 18 -44 28 -66c18 -39 3 -79 8 -120c-33 8 -45 29 -57 57c-22 49 -53 95 -76 144c-33 68 -63 138 -94 207
c-4 10 -10 18 -16 29zM343 150c-4 -15 -3 -27 16 -31c-6 11 -11 21 -16 31z" />
    <glyph glyph-name="B" unicode="B" horiz-adv-x="444" 
d="M48 787c25 10 41 -8 58 -26c10 5 19 9 28 14c45 25 93 27 140 15c30 -8 66 -68 68 -108c1 -28 3 -56 2 -84c-1 -12 -8 -23 -13 -33c-9 -16 -18 -31 -26 -45c24 -19 43 -38 64 -52c37 -24 52 -62 59 -104c7 -47 12 -95 15 -143c3 -60 -44 -140 -98 -147
c-37 -6 -64 -30 -97 -39c-24 -6 -47 -13 -70 -17c-29 -5 -43 -15 -46 -46c-2 -25 -20 -36 -33 -52c-11 -13 -29 -8 -38 5c-14 21 -27 44 -35 68c-30 97 -27 198 -22 298c3 54 5 108 7 162c5 112 8 225 37 334zM133 51c67 4 152 80 182 136c3 5 7 14 5 17c-13 21 0 37 6 56
c5 15 4 34 2 50c-3 15 -11 28 -16 42c-17 45 -62 62 -100 37c-13 -9 -26 -19 -39 -29c-9 39 -16 43 -51 29c3 -111 7 -224 11 -338zM130 486c66 9 86 27 100 89c3 12 1 26 6 36c16 30 9 55 -8 82c-16 24 -22 28 -43 13c-9 -6 -16 -14 -22 -23c-16 -25 -26 -52 -25 -85
c2 -37 -5 -74 -8 -112zM38 21c3 1 6 1 8 2c-3 20 -6 40 -10 60c-2 0 -5 -1 -7 -1c3 -20 6 -41 9 -61zM27 213c3 -1 6 -2 8 -3v43h-4c-1 -13 -3 -27 -4 -40z" />
    <glyph glyph-name="R" unicode="R" horiz-adv-x="441" 
d="M409 -134c-3 16 -6 31 -9 47c-4 28 -3 57 -34 72c-6 2 -9 15 -11 23c-7 24 -13 48 -20 74c-19 -22 -3 -44 0 -63c7 -37 18 -73 30 -108c6 -16 20 -29 29 -44c17 -28 12 -41 -24 -56c-32 89 -82 169 -118 257c-37 88 -78 176 -131 261c-17 -66 -16 -141 -1 -190
c6 1 12 3 25 6c-16 -32 1 -72 -40 -89c-5 -2 -7 -16 -8 -24c-2 -15 -3 -29 -5 -53c-12 15 -20 24 -29 35c-7 -3 -15 -8 -23 -12c-16 27 -21 53 -17 83c2 17 -3 35 -5 53c-5 43 -12 85 -15 128c-2 32 2 65 2 98c1 28 1 56 3 85c0 13 2 26 5 39c5 24 5 24 -11 67
c-2 5 -1 12 -1 18v196c10 4 23 14 34 13c57 -11 109 10 163 22c38 9 74 1 109 -14c71 -32 100 -116 92 -182c-3 -25 -11 -44 -29 -65c-37 -44 -81 -76 -125 -114c6 -21 13 -42 19 -64c6 -23 8 -47 17 -69c16 -38 36 -75 54 -113c13 -27 26 -53 36 -81c15 -40 43 -74 48 -119
c3 -20 17 -38 7 -60c-2 -4 4 -13 7 -20c12 -26 12 -26 -24 -37zM153 429c18 20 34 37 49 54c16 20 29 42 47 59c28 27 34 64 38 99c6 55 -33 99 -86 97c-24 -1 -47 -9 -72 -15c0 -54 -10 -104 3 -148c14 -48 -8 -98 21 -146zM375 55c3 -14 5 -24 7 -33c9 12 17 24 -7 33z
M406 -45c2 1 5 1 8 2c-2 6 -2 12 -4 18c-2 4 -5 7 -7 11l-6 -3c3 -10 6 -19 9 -28z" />
    <glyph glyph-name="O" unicode="O" horiz-adv-x="429" 
d="M429 506c-3 -24 -8 -48 -10 -73c-2 -21 -4 -43 0 -63c19 -119 -9 -215 -68 -299c-24 -34 -50 -67 -75 -99c-5 -7 -14 -15 -20 -14c-55 6 -110 -2 -162 38c-35 27 -61 60 -74 112c-12 49 -28 98 -15 152c-19 204 49 372 113 543c10 28 17 29 38 11c25 -22 52 -35 82 -40
c48 -8 93 -36 130 -81c41 -48 61 -111 61 -187zM244 664c-7 -25 -12 -47 -18 -68c-15 -44 -31 -87 -45 -132c-6 -19 -7 -43 -16 -60c-39 -84 -30 -177 -23 -267c4 -58 54 -87 93 -64c22 13 40 32 53 61c15 33 30 67 43 102c5 11 6 28 3 40c-9 36 -13 73 -13 112
c-1 104 -30 194 -77 276z" />
    <glyph glyph-name="W" unicode="W" horiz-adv-x="824" 
d="M741 755c20 29 47 46 83 37c-2 -40 -13 -79 -25 -117c-17 -54 -29 -111 -53 -160c-21 -44 -38 -86 -43 -135l1 1v0v0c-21 -71 -42 -142 -64 -213c-2 -8 -3 -19 -8 -23c-26 -23 -18 -63 -35 -90c-4 -6 2 -19 3 -27c-18 -6 -36 -13 -54 -18c-25 -9 -34 14 -47 32
c-17 24 -11 50 3 62c18 13 12 24 7 36c-11 25 -24 49 -43 70c7 -22 14 -44 21 -70c-7 -6 -15 -12 -27 -22c-19 48 -36 93 -57 148c-33 -90 -78 -165 -71 -254c-30 -25 -57 -47 -88 -72c-35 2 -47 44 -64 77c-9 15 -14 34 -18 52c-30 132 -59 265 -90 397
c-13 57 -29 113 -46 169c-16 49 -24 100 -26 157c10 -4 21 -4 25 -10c24 -33 50 -65 67 -102c27 -58 45 -122 71 -180c14 -32 21 -64 30 -98c6 -24 17 -46 23 -70c12 -47 22 -94 34 -142c1 -6 4 -12 8 -21c8 8 17 14 22 22c32 57 57 116 71 182c3 9 -1 22 -6 32
c-17 42 -35 83 -52 122c10 14 18 24 23 32c24 -7 47 -13 69 -21c6 -1 10 -7 14 -12c17 -19 34 -39 56 -65c2 -11 7 -33 9 -56c3 -28 17 -46 31 -65c8 -12 17 -25 19 -39c3 -28 19 -41 35 -60c5 8 9 12 11 18c6 31 4 72 21 90c21 23 22 50 30 76c19 64 37 128 72 183
c3 5 6 14 5 18c-10 27 5 43 16 62c13 22 22 47 37 67zM176 143c5 -19 -8 -48 17 -58c-6 20 -12 39 -17 58zM193 85c-7 -17 -10 -33 9 -52c-4 22 -6 37 -9 52zM225 69c5 11 12 19 11 25c-12 54 -20 110 -52 155v24c0 1 -7 2 -7 1c-3 -7 -5 -14 -6 -22c0 -3 5 -7 8 -11
c11 -57 8 -120 46 -172zM364 209c5 15 10 30 14 45c-2 2 -4 3 -7 4c-5 -15 -10 -30 -16 -45c3 -1 6 -3 9 -4zM723 402c-5 -20 -9 -32 -14 -52c-2 15 -4 23 -5 31c5 5 10 11 19 21z" />
    <glyph glyph-name="N" unicode="N" horiz-adv-x="494" 
d="M488 423c7 -24 12 -58 -14 -80c-11 -67 -22 -135 -33 -203c-1 -7 -2 -16 1 -22c27 -51 11 -103 3 -154c-49 -24 -53 -23 -86 30c-3 4 -7 9 -11 10c-50 14 -62 69 -72 111c-8 35 -17 72 -24 108c-14 73 -47 133 -80 199c-74 -139 -58 -290 -62 -443c-37 20 -41 60 -65 86
c6 -22 13 -44 20 -68c-32 29 -73 115 -63 151c6 19 16 36 13 58c6 -11 12 -22 18 -34v89c-8 -27 -12 -42 -16 -56c-3 51 -7 103 -8 154c0 45 4 89 3 133c0 20 -12 39 -12 58c0 76 4 153 6 234c39 -7 74 -15 109 -19c22 -2 30 -16 35 -38c3 -12 3 -28 10 -35
c57 -54 67 -140 107 -206c8 -14 15 -29 22 -44c3 -7 9 -18 7 -24c-15 -48 10 -81 27 -119c16 -34 24 -72 35 -109c1 -3 6 -4 10 -6c5 42 12 84 16 126c3 39 5 77 -12 114c-7 18 -5 44 -2 65c5 41 -3 78 -9 116c-6 40 -3 82 -4 127c-13 -3 -21 -4 -32 -6c3 36 -13 73 15 105
c10 -2 19 -4 28 -7c24 -8 49 -13 54 -49c2 -12 11 -22 19 -32c19 -25 23 -56 24 -88c0 -17 -6 -36 0 -50c23 -58 7 -122 23 -182zM370 140c1 1 2 1 3 1c-1 12 -3 24 -4 35c0 -12 1 -24 1 -36zM411 231v54c-1 -1 -2 -1 -3 -2v-52h3z" />
    <glyph glyph-name="F" unicode="F" horiz-adv-x="442" 
d="M378 500c10 0 19 16 33 29c10 -15 20 -28 30 -43c-30 -34 -69 -17 -101 -32c-31 -15 -64 -22 -99 -34c-14 -22 2 -60 -26 -80c-2 -1 0 -12 1 -18c1 -12 7 -23 6 -34c-7 -52 9 -100 18 -149c4 -26 -5 -48 -22 -62c-16 -14 -22 -29 -28 -50c-6 -23 -23 -42 -33 -64
c-7 -15 -11 -32 -16 -50c-29 1 -43 8 -49 47c-7 45 -11 92 -9 137c2 42 14 83 22 124v0c5 15 -12 43 19 45c-3 10 15 27 -9 32c-4 0 -7 17 -8 27c-2 17 -2 34 -3 49c-25 10 -47 19 -69 28c-17 67 -17 67 64 81c-3 70 -6 141 -10 213c-36 17 -82 22 -89 78c20 42 50 10 73 14
c6 17 7 40 17 46c18 10 40 18 61 -5c46 -51 103 -61 166 -56c45 3 90 -2 125 -49c-2 -9 -1 -27 -8 -33c-15 -11 -36 -25 -50 -21c-45 13 -85 -4 -128 -10c-3 -49 -7 -98 -10 -147c41 -29 87 -15 132 -13zM106 222c7 -8 14 -16 25 -29c-2 16 -2 26 -3 41
c-10 -6 -16 -9 -22 -12z" />
    <glyph glyph-name="X" unicode="X" horiz-adv-x="584" 
d="M575 31c21 -31 -4 -59 -9 -88c-2 -8 -4 -17 -5 -28c-37 -7 -70 4 -90 19c-7 36 -7 63 -17 83c-23 45 -52 86 -79 129c-16 27 -32 54 -49 82c-35 -49 -51 -102 -66 -156c-5 -17 -12 -37 -24 -49c-30 -31 -41 -34 -71 -36c-24 -2 -49 -3 -80 -5c45 96 72 194 130 276
c14 22 23 48 32 72c3 10 4 25 -1 32c-33 46 -66 91 -100 137v-1c-1 0 -1 1 -1 1c-24 -7 -35 13 -44 29c-20 35 -38 70 -55 105c-16 32 -31 64 -46 96c15 16 30 32 48 50c43 6 68 -33 98 -56c74 -56 112 -142 163 -219c25 1 36 19 43 38c8 26 17 54 17 81c-1 42 22 72 43 101
c20 29 55 33 92 28c1 -13 7 -28 2 -38c-15 -36 -36 -71 -52 -108c-17 -40 -36 -81 -44 -124c-10 -52 -9 -105 -13 -157c76 -44 68 -128 82 -204c18 18 30 36 42 10c8 -17 7 -39 15 -56c10 -17 28 -28 39 -44zM149 451c-8 15 -23 31 -3 47c12 -27 25 -54 37 -81
c-3 -2 -5 -4 -8 -6c-9 13 -19 26 -26 40z" />
    <glyph glyph-name="J" unicode="J" horiz-adv-x="400" 
d="M225 718c-40 21 -100 -7 -113 63c100 31 196 51 288 -20c-2 -6 -5 -14 -8 -21l-9 -24c-13 1 -24 2 -36 3c0 -53 -2 -103 0 -152c4 -76 12 -152 17 -227c5 -78 -10 -153 -41 -223c-16 -38 -39 -73 -65 -105c-37 -44 -91 -52 -143 -26c-10 5 -29 7 -23 28c1 4 -6 12 -11 15
c-91 46 -81 131 -79 211c1 24 7 48 10 74c46 35 67 30 115 -29c-23 -69 -20 -134 21 -203c32 68 65 130 69 199c7 107 6 215 8 322c1 39 0 79 0 115z" />
    <glyph glyph-name="M" unicode="M" horiz-adv-x="548" 
d="M411 616c-32 -13 -44 -46 -57 -76c-10 -23 -15 -50 -23 -75c-3 -11 -8 -21 -11 -33c-5 -18 0 -43 -24 -48c-20 -5 -39 -3 -56 13c-6 5 -11 12 -15 17c11 63 8 75 -40 133c-9 11 -17 23 -28 31c-7 5 -19 6 -27 3c-5 -2 -11 -15 -10 -24c0 -30 5 -61 5 -91
c-1 -135 -2 -270 -4 -406c0 -32 -11 -58 -37 -74c-7 -4 -12 -16 -16 -26c-5 -12 -8 -25 -16 -38c-6 49 -51 85 -24 144c9 19 4 47 4 59c-11 20 -23 31 -23 42c-5 127 -8 255 -9 383c0 75 5 150 8 225c0 21 2 41 22 50c19 9 31 1 46 -14c20 -21 44 -36 67 -54
c12 -10 26 -19 37 -31c38 -42 66 -92 89 -147c3 -7 9 -12 17 -24c41 77 109 124 131 212h39c42 1 55 -19 59 -67c3 -36 7 -71 8 -108c1 -21 16 -41 17 -63c2 -22 -6 -46 -9 -70c-2 -25 -8 -52 -3 -75c4 -18 17 -33 18 -54c1 -25 5 -45 -15 -68c-15 -16 -14 -54 -16 -82
c-2 -31 0 -62 1 -92c1 -60 -46 -99 -92 -77c-8 4 -16 7 -26 12c-4 22 -11 44 8 64c3 4 -1 16 -1 25c1 75 -7 152 4 225c7 46 -3 90 1 134c4 46 1 92 1 145z" />
    <glyph glyph-name="P" unicode="P" horiz-adv-x="409" 
d="M350 702c40 -20 41 -69 59 -100c-7 -28 -10 -53 -19 -75c-16 -45 -34 -89 -52 -133c-4 -8 -15 -11 -23 -16c-5 -4 -14 -8 -15 -13c-1 -28 -21 -36 -37 -43c-43 -19 -84 -53 -134 -45c-6 1 -13 -5 -25 -10c4 -91 8 -183 11 -280c-9 8 -14 12 -27 23c3 -28 5 -48 7 -69
c-26 -10 -40 -3 -49 29c-10 37 -19 75 -23 113c-17 134 -26 270 -21 406c2 56 6 111 10 167c1 15 3 32 11 43c16 23 30 44 26 77c-1 7 7 20 13 22c5 2 15 -5 20 -11c26 -34 25 -32 63 -18c32 11 67 23 100 21c38 -2 75 -21 93 -67c3 -8 7 -18 12 -21zM297 550
c18 65 -26 135 -84 129c-29 -2 -58 -15 -95 -26c25 -36 21 -65 17 -96c-6 -48 6 -98 -11 -146c-2 -5 5 -19 11 -23c33 -23 64 -20 91 12c16 20 35 37 44 65c8 29 19 56 27 85z" />
    <glyph glyph-name="S" unicode="S" horiz-adv-x="380" 
d="M375 609c5 -18 8 -33 -7 -49c-8 -9 -10 -31 -8 -45c8 -50 -9 -92 -22 -137c-9 -30 -36 -23 -49 -46c-19 29 -34 54 -52 81c25 1 28 21 26 41c-7 57 -14 113 -22 171c-39 2 -71 -13 -96 -47c-32 -46 -33 -92 4 -133c43 -47 75 -106 127 -146c42 -33 70 -84 66 -150
c-2 -36 1 -72 -2 -108c-2 -38 -20 -61 -55 -61c-36 0 -66 -22 -95 -39c-50 -28 -135 7 -163 37c-5 5 -11 11 -11 18c-6 45 -12 89 -15 134c-2 27 1 55 1 82c-2 38 7 70 30 96c31 -18 61 -38 61 -86c0 -11 2 -26 -3 -31c-36 -43 -4 -80 6 -118c2 -9 8 -16 12 -23
c50 23 88 90 81 146c-7 46 -41 72 -65 105c-21 27 -46 51 -65 80c-48 70 -53 150 -31 233c16 60 61 88 103 117c36 25 75 43 108 62c42 -46 84 -89 122 -136c9 -11 9 -32 14 -48z" />
    <glyph glyph-name="V" unicode="V" horiz-adv-x="413" 
d="M348 552c4 -1 8 -1 11 -1c-6 -73 -10 -145 -20 -217c-7 -55 -22 -108 -35 -162c-2 -8 -8 -16 -13 -24c-52 -79 -52 -79 -69 -161c-41 11 -46 77 -96 75c17 66 -5 123 -17 182c-37 173 -73 346 -108 519c-2 9 0 19 0 25c29 7 56 13 83 20c37 11 63 -4 76 -45
c35 -114 55 -233 77 -351c3 -11 4 -22 8 -44c5 14 8 19 8 23c0 30 13 56 20 83c6 24 5 50 11 74c4 22 10 44 21 63c19 34 41 66 64 96c9 13 24 19 44 34c-24 -71 -44 -131 -64 -190c-16 -1 -21 -14 -23 -29c-2 -23 -4 -45 -6 -67c-2 -11 -3 -22 -5 -33c3 -1 6 -1 10 -2
c9 44 24 86 23 132z" />
    <glyph glyph-name="L" unicode="L" horiz-adv-x="455" 
d="M455 114c-53 -19 -106 -35 -156 -58c-35 -17 -68 -41 -100 -65c-29 -22 -58 -37 -96 -36c-35 1 -68 5 -98 36c10 14 23 29 34 46c3 5 3 15 3 23c-5 65 -10 130 -15 196c-1 16 -5 31 -5 47c-2 113 -3 225 -6 337c-1 38 -4 77 -13 114c-5 21 -2 35 10 52
c26 -14 56 -12 80 -39c36 -39 58 -83 61 -138c3 -71 9 -143 -5 -215c-2 -10 2 -22 2 -33c0 -21 4 -42 -13 -58c-3 -3 -3 -17 0 -20c9 -9 2 -15 -1 -24s-5 -26 0 -32c30 -37 14 -77 7 -117c-1 -6 0 -12 0 -24c33 10 64 21 94 30c37 13 75 25 112 36c6 2 11 5 17 4
c19 -3 42 -2 57 -13c14 -9 21 -32 31 -49z" />
    <glyph glyph-name="A" unicode="A" 
d="M375 303c9 -2 16 -4 23 -6c1 -4 3 -8 4 -13c1 -18 -3 -38 4 -52c5 -11 13 -20 13 -35c-1 -20 0 -40 2 -61c1 -19 4 -38 8 -56c7 -29 15 -58 24 -90c-7 -4 -15 -9 -25 -15c2 -15 4 -31 6 -46c-34 1 -49 13 -58 47c-22 85 -43 171 -65 258c-56 -11 -110 -22 -164 -33
c-15 -35 -8 -76 -40 -109c3 27 6 45 9 73c-30 -58 -26 -128 -88 -151c-31 23 -32 23 -20 80c26 130 54 261 81 392c7 36 28 70 17 110c30 45 27 103 42 154c7 24 27 25 42 26c40 2 73 -22 107 -40c7 -4 11 -22 12 -33c1 -13 -6 -26 -4 -38c11 -58 4 -120 28 -177
c9 -20 7 -45 11 -68c1 -6 2 -13 5 -17c22 -29 32 -62 26 -100zM176 315c41 -2 78 -4 117 -6c-13 77 -27 150 -59 227c-8 -22 -14 -34 -17 -48c-14 -57 -28 -115 -41 -173zM416 45c-2 0 -4 -1 -6 -1c3 -8 5 -17 8 -25c2 0 3 1 5 2c-2 8 -4 16 -7 24z" />
    <glyph glyph-name="Y" unicode="Y" horiz-adv-x="366" 
d="M4 852c16 -8 36 -12 44 -24c31 -45 60 -91 85 -139c19 -37 31 -77 48 -122c26 38 50 74 74 111c22 35 43 71 70 115c15 -19 32 -30 34 -43c4 -21 14 -44 -5 -65c-13 -16 -26 -33 -36 -52c-7 -13 -22 -27 -2 -47c6 -6 -2 -32 -9 -46c-14 -27 -31 -52 -48 -80
c-6 8 -10 12 -19 22c-11 -30 -21 -57 -30 -84c2 -1 4 -1 6 -2c7 13 15 26 22 39c-28 -150 -19 -301 -20 -449c-24 -30 -54 21 -77 -11c-38 18 -29 57 -30 86c-3 96 1 192 1 289c0 18 -11 35 -14 54c-8 44 -20 88 -32 132c-20 69 -43 137 -63 206c-5 21 -2 44 -2 66
c0 13 2 26 3 44z" />
    <glyph glyph-name="D" unicode="D" horiz-adv-x="402" 
d="M29 833c28 -50 59 -56 99 -55c32 1 66 0 100 -13c60 -23 100 -75 143 -123c29 -31 27 -83 30 -127c2 -30 -4 -59 -6 -89c0 -10 -4 -21 -2 -31c15 -71 -17 -126 -43 -184c-17 -38 -31 -78 -47 -117c-9 -23 -20 -45 -32 -67c-7 -12 -16 -24 -32 -17c-6 2 -16 -10 -24 -15
c-11 -6 -23 -12 -38 -10c-7 -16 -17 -31 -22 -48c-6 -19 -9 -31 -30 -35c-11 -2 -19 -8 -33 -6c-25 4 -51 -2 -75 -4c-14 31 -17 58 -12 90c7 41 6 84 7 126c1 38 0 77 -1 115c-3 96 -8 192 -9 288c-2 70 -1 141 2 211c2 33 15 66 25 111zM154 42c5 1 8 0 10 2
c16 14 34 21 46 45c8 18 35 21 46 38c21 34 38 75 41 119c5 84 20 169 -2 253c-1 3 0 7 -1 10c-6 76 -29 140 -82 182c-31 24 -66 37 -107 34c0 -34 -2 -64 1 -93c5 -49 11 -99 21 -148c9 -49 -11 -101 11 -149c3 -6 -2 -16 -4 -24c-3 -11 -7 -21 -10 -32
c-5 -19 12 -7 14 -14c1 -7 -1 -14 0 -21c6 -37 -6 -75 4 -113c7 -27 8 -57 12 -89zM356 395c-1 4 -2 7 -4 11c-7 -5 -15 -9 -23 -14c1 -3 3 -7 4 -10c8 4 16 9 23 13zM26 31h-4c0 -9 0 -19 -1 -28c2 0 3 -1 5 -1v29z" />
    <glyph glyph-name="G" unicode="G" horiz-adv-x="509" 
d="M430 702c-1 -25 -13 -25 -26 -17c-37 20 -75 14 -110 1c-31 -12 -60 -32 -89 -51c-7 -5 -13 -17 -17 -28c-14 -38 -29 -76 -41 -115c-7 -24 -14 -50 -16 -75c-5 -89 1 -179 34 -259c18 -44 48 -83 87 -107c39 -25 71 -8 97 32c47 72 66 151 40 244c-57 4 -115 7 -163 73
c15 8 24 16 33 17c55 0 110 1 164 -2c41 -2 61 -31 66 -79c2 -28 -9 -60 17 -81c3 -2 3 -10 3 -15c-9 -55 -20 -109 -58 -147c-14 -15 -29 -29 -42 -44c-22 -24 -40 -56 -75 -51c-4 1 -9 -3 -12 -6c-71 -57 -133 -23 -190 33c-34 34 -63 76 -92 117c-18 24 -23 56 -31 88
c-14 55 -7 105 0 158c3 23 -1 48 -1 72c1 56 31 100 48 149c9 25 33 42 51 62c36 39 68 87 117 104c35 13 68 38 107 23c52 -19 99 -49 143 -109c-21 5 -33 9 -45 12c-8 11 -11 31 -30 21c10 -7 20 -14 31 -20z" />
    <glyph glyph-name="Z" unicode="Z" horiz-adv-x="454" 
d="M266 661c-23 0 -43 -1 -63 0c-37 3 -74 5 -111 10c-40 6 -73 29 -92 77c7 16 18 25 36 26c57 4 115 9 172 12c11 1 23 1 34 -2c38 -11 71 5 98 21c17 -12 31 -21 44 -31c17 -12 36 -21 50 -37c26 -28 22 -68 -8 -89c-29 -22 -23 -53 -22 -85c-10 -16 -35 -21 -26 -51
c-21 -39 -32 -84 -65 -118c-27 -29 -43 -76 -59 -117c-14 -33 -18 -72 -30 -106c-12 -32 -28 -62 -42 -94c-6 -14 -13 -28 -24 -52c103 29 198 50 296 19v-31c-48 -7 -98 -11 -146 -23c-36 -8 -71 -23 -105 -41c-33 -18 -68 -17 -102 -22h-8c-7 37 -30 8 -47 18
c-13 19 -16 42 -7 68c32 91 61 184 96 274c31 78 66 154 100 231c4 9 7 19 9 29c7 35 14 71 22 114zM86 56c4 -2 7 -4 11 -6c5 12 10 23 15 35c-3 2 -5 3 -8 5c-6 -11 -12 -22 -18 -34zM140 158c-3 1 -6 2 -9 4c-4 -11 -8 -21 -11 -32c3 -1 6 -3 9 -4c4 11 7 21 11 32z" />
    <glyph glyph-name="space" unicode=" " horiz-adv-x="469" 
 />
    <glyph glyph-name="a" unicode="a" 
d="M375 303c9 -2 16 -4 23 -6c1 -4 3 -8 4 -13c1 -18 -3 -38 4 -52c5 -11 13 -20 13 -35c-1 -20 0 -40 2 -61c1 -19 4 -38 8 -56c7 -29 15 -58 24 -90c-7 -4 -15 -9 -25 -15c2 -15 4 -31 6 -46c-34 1 -49 13 -58 47c-22 85 -43 171 -65 258c-56 -11 -110 -22 -164 -33
c-15 -35 -8 -76 -40 -109c3 27 6 45 9 73c-30 -58 -26 -128 -88 -151c-31 23 -32 23 -20 80c26 130 54 261 81 392c7 36 28 70 17 110c30 45 27 103 42 154c7 24 27 25 42 26c40 2 73 -22 107 -40c7 -4 11 -22 12 -33c1 -13 -6 -26 -4 -38c11 -58 4 -120 28 -177
c9 -20 7 -45 11 -68c1 -6 2 -13 5 -17c22 -29 32 -62 26 -100zM176 315c41 -2 78 -4 117 -6c-13 77 -27 150 -59 227c-8 -22 -14 -34 -17 -48c-14 -57 -28 -115 -41 -173zM416 45c-2 0 -4 -1 -6 -1c3 -8 5 -17 8 -25c2 0 3 1 5 2c-2 8 -4 16 -7 24z" />
    <glyph glyph-name="b" unicode="b" horiz-adv-x="444" 
d="M48 787c25 10 41 -8 58 -26c10 5 19 9 28 14c45 25 93 27 140 15c30 -8 66 -68 68 -108c1 -28 3 -56 2 -84c-1 -12 -8 -23 -13 -33c-9 -16 -18 -31 -26 -45c24 -19 43 -38 64 -52c37 -24 52 -62 59 -104c7 -47 12 -95 15 -143c3 -60 -44 -140 -98 -147
c-37 -6 -64 -30 -97 -39c-24 -6 -47 -13 -70 -17c-29 -5 -43 -15 -46 -46c-2 -25 -20 -36 -33 -52c-11 -13 -29 -8 -38 5c-14 21 -27 44 -35 68c-30 97 -27 198 -22 298c3 54 5 108 7 162c5 112 8 225 37 334zM133 51c67 4 152 80 182 136c3 5 7 14 5 17c-13 21 0 37 6 56
c5 15 4 34 2 50c-3 15 -11 28 -16 42c-17 45 -62 62 -100 37c-13 -9 -26 -19 -39 -29c-9 39 -16 43 -51 29c3 -111 7 -224 11 -338zM130 486c66 9 86 27 100 89c3 12 1 26 6 36c16 30 9 55 -8 82c-16 24 -22 28 -43 13c-9 -6 -16 -14 -22 -23c-16 -25 -26 -52 -25 -85
c2 -37 -5 -74 -8 -112zM38 21c3 1 6 1 8 2c-3 20 -6 40 -10 60c-2 0 -5 -1 -7 -1c3 -20 6 -41 9 -61zM27 213c3 -1 6 -2 8 -3v43h-4c-1 -13 -3 -27 -4 -40z" />
    <glyph glyph-name="c" unicode="c" horiz-adv-x="452" 
d="M444 302c12 -26 7 -45 -2 -63c-17 -34 -36 -65 -36 -109c0 -17 -16 -38 -29 -51c-52 -54 -113 -88 -180 -100c-20 -3 -47 10 -61 27c-41 49 -82 98 -100 169c-17 66 -31 132 -31 201c1 37 -7 74 -3 110c3 35 14 70 26 103c20 57 53 100 98 129c16 11 33 22 44 39
c13 23 25 35 49 25c10 -5 21 -1 34 -1c-1 9 -3 16 -5 26c40 3 77 0 108 -36v0c16 -10 32 -19 48 -29c4 -3 9 -6 10 -10c15 -44 31 -88 23 -137c-5 -26 -25 -45 -48 -45c-20 1 -44 -4 -48 36c-1 12 -17 25 -28 30c-57 29 -101 11 -142 -38c-33 -40 -54 -92 -63 -152
c-9 -55 -5 -108 -2 -162c1 -17 15 -37 -9 -47c5 -11 7 -27 15 -34c11 -10 21 -19 28 -36c8 -21 15 -48 39 -51c31 -3 61 -5 88 18c56 48 97 113 138 179c9 16 19 31 35 42l-27 -81c2 -1 5 -3 7 -5c8 17 15 33 24 53zM376 742c-8 11 -14 20 -20 28c1 -19 2 -21 20 -28z
M55 269c-11 -36 -13 -67 14 -105c-6 41 -10 71 -14 105z" />
    <glyph glyph-name="d" unicode="d" horiz-adv-x="402" 
d="M29 833c28 -50 59 -56 99 -55c32 1 66 0 100 -13c60 -23 100 -75 143 -123c29 -31 27 -83 30 -127c2 -30 -4 -59 -6 -89c0 -10 -4 -21 -2 -31c15 -71 -17 -126 -43 -184c-17 -38 -31 -78 -47 -117c-9 -23 -20 -45 -32 -67c-7 -12 -16 -24 -32 -17c-6 2 -16 -10 -24 -15
c-11 -6 -23 -12 -38 -10c-7 -16 -17 -31 -22 -48c-6 -19 -9 -31 -30 -35c-11 -2 -19 -8 -33 -6c-25 4 -51 -2 -75 -4c-14 31 -17 58 -12 90c7 41 6 84 7 126c1 38 0 77 -1 115c-3 96 -8 192 -9 288c-2 70 -1 141 2 211c2 33 15 66 25 111zM154 42c5 1 8 0 10 2
c16 14 34 21 46 45c8 18 35 21 46 38c21 34 38 75 41 119c5 84 20 169 -2 253c-1 3 0 7 -1 10c-6 76 -29 140 -82 182c-31 24 -66 37 -107 34c0 -34 -2 -64 1 -93c5 -49 11 -99 21 -148c9 -49 -11 -101 11 -149c3 -6 -2 -16 -4 -24c-3 -11 -7 -21 -10 -32
c-5 -19 12 -7 14 -14c1 -7 -1 -14 0 -21c6 -37 -6 -75 4 -113c7 -27 8 -57 12 -89zM356 395c-1 4 -2 7 -4 11c-7 -5 -15 -9 -23 -14c1 -3 3 -7 4 -10c8 4 16 9 23 13zM26 31h-4c0 -9 0 -19 -1 -28c2 0 3 -1 5 -1v29z" />
    <glyph glyph-name="e" unicode="e" horiz-adv-x="444" 
d="M328 171c33 20 69 23 108 21v-29c-47 -23 -94 -47 -145 -72c7 -7 11 -11 19 -18c-53 -15 -90 -60 -146 -66c-12 -1 -16 -8 -16 -24c-1 -29 -26 -43 -55 -37c-36 8 -66 27 -87 47c2 25 3 45 7 64c7 39 0 77 12 117c13 38 11 84 3 123c-5 24 -1 47 -6 70c-8 43 0 90 -1 135
c0 19 2 37 -11 57c-13 18 -10 51 -5 76c6 31 -17 64 7 93c-18 34 22 62 5 97c40 0 73 -10 89 -35c17 -26 35 -27 58 -26c56 3 113 9 170 12c39 3 80 5 109 -28c1 -31 -27 -25 -44 -37c5 -5 9 -10 15 -16c-24 -20 -55 -21 -83 -30c-20 -6 -40 -16 -61 -17
c-36 -3 -73 -1 -112 -1c-16 -56 1 -115 -5 -172c21 -16 42 -11 63 -5c14 3 27 9 40 14c37 12 59 4 85 -31c-7 -43 -60 -21 -76 -55c13 -3 27 -6 41 -10c-19 -36 -50 -50 -89 -48c-34 1 -62 -16 -87 -34c2 -19 3 -37 6 -60c-10 5 -15 8 -20 11c-4 19 -8 39 -12 58
c-2 0 -4 0 -6 -1c-3 -30 -7 -59 -10 -89c-4 -1 -8 -1 -12 -1c-23 57 -1 122 -29 178c-16 -102 5 -205 -6 -310c46 10 12 56 44 70v-53c8 7 13 11 20 18c31 -25 -12 -45 -2 -70c25 0 44 19 60 32c40 34 86 53 133 71c11 4 23 5 32 11zM116 254c0 1 0 2 -1 3h1v0l1 -1
c-1 0 -1 -1 -1 -2zM110 132c-6 16 -1 89 6 122c9 -40 13 -80 -6 -122z" />
    <glyph glyph-name="f" unicode="f" horiz-adv-x="442" 
d="M378 500c10 0 19 16 33 29c10 -15 20 -28 30 -43c-30 -34 -69 -17 -101 -32c-31 -15 -64 -22 -99 -34c-14 -22 2 -60 -26 -80c-2 -1 0 -12 1 -18c1 -12 7 -23 6 -34c-7 -52 9 -100 18 -149c4 -26 -5 -48 -22 -62c-16 -14 -22 -29 -28 -50c-6 -23 -23 -42 -33 -64
c-7 -15 -11 -32 -16 -50c-29 1 -43 8 -49 47c-7 45 -11 92 -9 137c2 42 14 83 22 124v0c5 15 -12 43 19 45c-3 10 15 27 -9 32c-4 0 -7 17 -8 27c-2 17 -2 34 -3 49c-25 10 -47 19 -69 28c-17 67 -17 67 64 81c-3 70 -6 141 -10 213c-36 17 -82 22 -89 78c20 42 50 10 73 14
c6 17 7 40 17 46c18 10 40 18 61 -5c46 -51 103 -61 166 -56c45 3 90 -2 125 -49c-2 -9 -1 -27 -8 -33c-15 -11 -36 -25 -50 -21c-45 13 -85 -4 -128 -10c-3 -49 -7 -98 -10 -147c41 -29 87 -15 132 -13zM106 222c7 -8 14 -16 25 -29c-2 16 -2 26 -3 41
c-10 -6 -16 -9 -22 -12z" />
    <glyph glyph-name="g" unicode="g" horiz-adv-x="509" 
d="M430 702c-1 -25 -13 -25 -26 -17c-37 20 -75 14 -110 1c-31 -12 -60 -32 -89 -51c-7 -5 -13 -17 -17 -28c-14 -38 -29 -76 -41 -115c-7 -24 -14 -50 -16 -75c-5 -89 1 -179 34 -259c18 -44 48 -83 87 -107c39 -25 71 -8 97 32c47 72 66 151 40 244c-57 4 -115 7 -163 73
c15 8 24 16 33 17c55 0 110 1 164 -2c41 -2 61 -31 66 -79c2 -28 -9 -60 17 -81c3 -2 3 -10 3 -15c-9 -55 -20 -109 -58 -147c-14 -15 -29 -29 -42 -44c-22 -24 -40 -56 -75 -51c-4 1 -9 -3 -12 -6c-71 -57 -133 -23 -190 33c-34 34 -63 76 -92 117c-18 24 -23 56 -31 88
c-14 55 -7 105 0 158c3 23 -1 48 -1 72c1 56 31 100 48 149c9 25 33 42 51 62c36 39 68 87 117 104c35 13 68 38 107 23c52 -19 99 -49 143 -109c-21 5 -33 9 -45 12c-8 11 -11 31 -30 21c10 -7 20 -14 31 -20z" />
    <glyph glyph-name="h" unicode="h" horiz-adv-x="516" 
d="M484 672c0 -13 -1 -23 11 -34c6 -5 8 -22 5 -31c-8 -19 -20 -36 -31 -54c7 -6 21 -12 21 -19c1 -28 -3 -57 -5 -86c-1 -4 -6 -8 -6 -11c11 -42 -7 -81 -9 -122c-3 -60 19 -115 27 -173c2 -20 4 -38 -4 -58c-6 -14 -6 -31 -9 -47c-3 -17 -6 -35 -10 -52
c-28 -4 -53 -6 -84 -10c-1 -1 -7 -9 -13 -18c-9 8 -17 15 -20 18c0 22 1 40 -1 58c-1 24 -5 48 -8 72c-2 21 12 30 40 35c-16 7 -23 10 -31 14v30c6 18 38 -1 29 29c-9 -1 -18 -2 -30 -3v150c-62 15 -113 -13 -168 -23c-5 -13 -10 -26 -17 -46c-5 12 -7 18 -11 31
c-2 -20 -3 -33 -4 -46h-8c-1 13 -3 27 -4 42c-21 -44 -18 -91 -19 -139c30 10 5 43 32 54c-2 -24 -1 -46 8 -68c7 -20 -2 -47 -7 -70c-2 -12 -11 -22 -19 -38c-6 15 -10 27 -13 36c-8 -22 2 -23 -1 -55c-3 -29 23 -49 13 -76c-22 22 -49 40 -63 65c-12 21 -15 50 -12 75
c3 22 -2 51 29 64c7 3 10 23 11 35c1 43 0 86 0 132c-48 11 -103 15 -103 85c11 22 36 18 55 19c35 3 42 9 39 42c-7 90 -14 180 -21 272c-4 0 -11 1 -21 2c5 13 10 23 14 33h76c2 -2 3 -11 8 -13c37 -15 42 -56 67 -81c12 -11 14 -31 10 -52c-9 -47 -14 -96 -21 -144
c-1 -10 1 -20 3 -34c42 0 84 -2 125 0c30 2 41 21 35 49c-4 20 -3 40 -5 59c-2 12 -7 24 -9 33c6 25 19 50 16 73c-6 41 20 80 2 123c16 5 33 16 46 13c16 -4 29 -20 46 -33c-3 -4 -7 -11 -13 -20c11 -3 21 -6 33 -10c-6 -11 -10 -21 -11 -23c5 -23 10 -38 10 -54zM385 458
c26 25 24 64 0 87v-87zM503 465v75h5v-75h-5zM513 346c1 0 2 1 3 1v-23h-3v22z" />
    <glyph glyph-name="i" unicode="i" horiz-adv-x="210" 
d="M147 81c25 32 25 32 56 14c3 -16 4 -29 7 -45c-32 -23 -67 -51 -103 -76c-10 -8 -23 -13 -35 -13c-20 -1 -40 3 -60 4c2 40 6 73 47 78c8 1 19 33 19 50c0 90 -4 180 -3 271c0 34 7 69 11 104c7 57 11 113 -2 169c-3 13 -3 27 -4 40c-3 43 -11 55 -46 65
c-11 3 -22 6 -33 8c-1 47 9 68 41 71c41 5 83 5 124 5c34 -1 40 -49 25 -68c-21 -27 -14 -50 -7 -78c15 -61 11 -123 5 -185c-4 -42 -17 -84 -26 -125c-2 -12 -10 -25 10 -26c0 0 2 -16 1 -24c-7 -28 -15 -57 -21 -86c-3 -16 -3 -33 -4 -49c-1 -14 4 -31 -2 -39
c-14 -23 -6 -43 0 -65zM107 181h7v67h-7v-67z" />
    <glyph glyph-name="j" unicode="j" horiz-adv-x="400" 
d="M225 718c-40 21 -100 -7 -113 63c100 31 196 51 288 -20c-2 -6 -5 -14 -8 -21l-9 -24c-13 1 -24 2 -36 3c0 -53 -2 -103 0 -152c4 -76 12 -152 17 -227c5 -78 -10 -153 -41 -223c-16 -38 -39 -73 -65 -105c-37 -44 -91 -52 -143 -26c-10 5 -29 7 -23 28c1 4 -6 12 -11 15
c-91 46 -81 131 -79 211c1 24 7 48 10 74c46 35 67 30 115 -29c-23 -69 -20 -134 21 -203c32 68 65 130 69 199c7 107 6 215 8 322c1 39 0 79 0 115z" />
    <glyph glyph-name="k" unicode="k" horiz-adv-x="438" 
d="M186 409c-44 -36 -45 -85 -46 -131c-3 -66 7 -132 -15 -196c-2 10 -5 22 -7 33h-4v-138c0 -24 -11 -44 -26 -47c-14 -3 -38 18 -41 37c-8 42 -18 85 -22 128c-5 53 -5 106 -7 159c-1 53 0 106 -1 160c-1 18 3 37 -12 53c-5 5 -4 16 -4 24c2 22 7 43 8 64
c6 71 12 142 17 213c1 16 1 32 -1 48c-3 33 19 50 51 37c9 -4 17 -11 26 -16c7 -4 15 -7 23 -11c16 -121 7 -241 0 -361c25 16 25 16 20 37c14 9 28 15 38 26c49 52 96 106 144 160c12 12 24 24 38 34c16 11 32 13 48 -7c-4 -3 -8 -7 -16 -14h41
c-73 -66 -141 -124 -197 -199c24 -10 36 -24 37 -51c2 -19 22 -35 30 -54c15 -32 28 -65 42 -98c3 -9 9 -20 8 -29c-7 -43 18 -76 35 -112c10 -21 18 -44 28 -66c18 -39 3 -79 8 -120c-33 8 -45 29 -57 57c-22 49 -53 95 -76 144c-33 68 -63 138 -94 207
c-4 10 -10 18 -16 29zM343 150c-4 -15 -3 -27 16 -31c-6 11 -11 21 -16 31z" />
    <glyph glyph-name="l" unicode="l" horiz-adv-x="455" 
d="M455 114c-53 -19 -106 -35 -156 -58c-35 -17 -68 -41 -100 -65c-29 -22 -58 -37 -96 -36c-35 1 -68 5 -98 36c10 14 23 29 34 46c3 5 3 15 3 23c-5 65 -10 130 -15 196c-1 16 -5 31 -5 47c-2 113 -3 225 -6 337c-1 38 -4 77 -13 114c-5 21 -2 35 10 52
c26 -14 56 -12 80 -39c36 -39 58 -83 61 -138c3 -71 9 -143 -5 -215c-2 -10 2 -22 2 -33c0 -21 4 -42 -13 -58c-3 -3 -3 -17 0 -20c9 -9 2 -15 -1 -24s-5 -26 0 -32c30 -37 14 -77 7 -117c-1 -6 0 -12 0 -24c33 10 64 21 94 30c37 13 75 25 112 36c6 2 11 5 17 4
c19 -3 42 -2 57 -13c14 -9 21 -32 31 -49z" />
    <glyph glyph-name="m" unicode="m" horiz-adv-x="548" 
d="M411 616c-32 -13 -44 -46 -57 -76c-10 -23 -15 -50 -23 -75c-3 -11 -8 -21 -11 -33c-5 -18 0 -43 -24 -48c-20 -5 -39 -3 -56 13c-6 5 -11 12 -15 17c11 63 8 75 -40 133c-9 11 -17 23 -28 31c-7 5 -19 6 -27 3c-5 -2 -11 -15 -10 -24c0 -30 5 -61 5 -91
c-1 -135 -2 -270 -4 -406c0 -32 -11 -58 -37 -74c-7 -4 -12 -16 -16 -26c-5 -12 -8 -25 -16 -38c-6 49 -51 85 -24 144c9 19 4 47 4 59c-11 20 -23 31 -23 42c-5 127 -8 255 -9 383c0 75 5 150 8 225c0 21 2 41 22 50c19 9 31 1 46 -14c20 -21 44 -36 67 -54
c12 -10 26 -19 37 -31c38 -42 66 -92 89 -147c3 -7 9 -12 17 -24c41 77 109 124 131 212h39c42 1 55 -19 59 -67c3 -36 7 -71 8 -108c1 -21 16 -41 17 -63c2 -22 -6 -46 -9 -70c-2 -25 -8 -52 -3 -75c4 -18 17 -33 18 -54c1 -25 5 -45 -15 -68c-15 -16 -14 -54 -16 -82
c-2 -31 0 -62 1 -92c1 -60 -46 -99 -92 -77c-8 4 -16 7 -26 12c-4 22 -11 44 8 64c3 4 -1 16 -1 25c1 75 -7 152 4 225c7 46 -3 90 1 134c4 46 1 92 1 145z" />
    <glyph glyph-name="n" unicode="n" horiz-adv-x="494" 
d="M488 423c7 -24 12 -58 -14 -80c-11 -67 -22 -135 -33 -203c-1 -7 -2 -16 1 -22c27 -51 11 -103 3 -154c-49 -24 -53 -23 -86 30c-3 4 -7 9 -11 10c-50 14 -62 69 -72 111c-8 35 -17 72 -24 108c-14 73 -47 133 -80 199c-74 -139 -58 -290 -62 -443c-37 20 -41 60 -65 86
c6 -22 13 -44 20 -68c-32 29 -73 115 -63 151c6 19 16 36 13 58c6 -11 12 -22 18 -34v89c-8 -27 -12 -42 -16 -56c-3 51 -7 103 -8 154c0 45 4 89 3 133c0 20 -12 39 -12 58c0 76 4 153 6 234c39 -7 74 -15 109 -19c22 -2 30 -16 35 -38c3 -12 3 -28 10 -35
c57 -54 67 -140 107 -206c8 -14 15 -29 22 -44c3 -7 9 -18 7 -24c-15 -48 10 -81 27 -119c16 -34 24 -72 35 -109c1 -3 6 -4 10 -6c5 42 12 84 16 126c3 39 5 77 -12 114c-7 18 -5 44 -2 65c5 41 -3 78 -9 116c-6 40 -3 82 -4 127c-13 -3 -21 -4 -32 -6c3 36 -13 73 15 105
c10 -2 19 -4 28 -7c24 -8 49 -13 54 -49c2 -12 11 -22 19 -32c19 -25 23 -56 24 -88c0 -17 -6 -36 0 -50c23 -58 7 -122 23 -182zM370 140c1 1 2 1 3 1c-1 12 -3 24 -4 35c0 -12 1 -24 1 -36zM411 231v54c-1 -1 -2 -1 -3 -2v-52h3z" />
    <glyph glyph-name="o" unicode="o" horiz-adv-x="429" 
d="M429 506c-3 -24 -8 -48 -10 -73c-2 -21 -4 -43 0 -63c19 -119 -9 -215 -68 -299c-24 -34 -50 -67 -75 -99c-5 -7 -14 -15 -20 -14c-55 6 -110 -2 -162 38c-35 27 -61 60 -74 112c-12 49 -28 98 -15 152c-19 204 49 372 113 543c10 28 17 29 38 11c25 -22 52 -35 82 -40
c48 -8 93 -36 130 -81c41 -48 61 -111 61 -187zM244 664c-7 -25 -12 -47 -18 -68c-15 -44 -31 -87 -45 -132c-6 -19 -7 -43 -16 -60c-39 -84 -30 -177 -23 -267c4 -58 54 -87 93 -64c22 13 40 32 53 61c15 33 30 67 43 102c5 11 6 28 3 40c-9 36 -13 73 -13 112
c-1 104 -30 194 -77 276z" />
    <glyph glyph-name="p" unicode="p" horiz-adv-x="409" 
d="M350 702c40 -20 41 -69 59 -100c-7 -28 -10 -53 -19 -75c-16 -45 -34 -89 -52 -133c-4 -8 -15 -11 -23 -16c-5 -4 -14 -8 -15 -13c-1 -28 -21 -36 -37 -43c-43 -19 -84 -53 -134 -45c-6 1 -13 -5 -25 -10c4 -91 8 -183 11 -280c-9 8 -14 12 -27 23c3 -28 5 -48 7 -69
c-26 -10 -40 -3 -49 29c-10 37 -19 75 -23 113c-17 134 -26 270 -21 406c2 56 6 111 10 167c1 15 3 32 11 43c16 23 30 44 26 77c-1 7 7 20 13 22c5 2 15 -5 20 -11c26 -34 25 -32 63 -18c32 11 67 23 100 21c38 -2 75 -21 93 -67c3 -8 7 -18 12 -21zM297 550
c18 65 -26 135 -84 129c-29 -2 -58 -15 -95 -26c25 -36 21 -65 17 -96c-6 -48 6 -98 -11 -146c-2 -5 5 -19 11 -23c33 -23 64 -20 91 12c16 20 35 37 44 65c8 29 19 56 27 85z" />
    <glyph glyph-name="q" unicode="q" horiz-adv-x="564" 
d="M557 385c7 -12 8 -20 4 -32c-9 -28 -15 -59 -28 -85c-19 -40 -42 -77 -65 -115c-18 -30 -39 -59 -57 -90c-4 -7 -1 -20 2 -30c9 -34 20 -67 30 -101c8 -27 8 -27 -10 -60c-12 28 -19 56 -55 64c-10 2 -16 32 -19 49c-4 20 -13 31 -32 27c-11 -2 -22 -8 -33 -10
c-84 -22 -160 -9 -221 56c-17 17 -31 40 -37 63c-13 45 -16 92 -28 136c-24 88 13 168 21 251c8 87 53 155 90 228c12 23 28 43 43 64c14 20 62 19 86 -3c5 -4 8 -12 12 -17c18 -21 34 -42 65 -44c16 -1 32 -12 47 -21c27 -17 53 -36 79 -53c15 -9 25 -18 27 -39
c3 -20 18 -39 31 -56c15 -21 29 -39 26 -67c-1 -10 7 -22 10 -33c2 -8 6 -18 4 -24c-10 -22 -2 -41 8 -58zM38 225c3 -37 12 -75 38 -113c-11 86 -21 165 -33 253c-2 -53 -8 -97 -5 -140zM432 175c27 29 50 60 42 104c-9 51 -20 102 -27 154c-12 81 -57 146 -97 213
c-11 18 -30 30 -48 47c-11 -11 -19 -17 -22 -24c-26 -62 -53 -123 -77 -185c-15 -42 -43 -80 -38 -129c2 -16 2 -34 0 -50c-7 -52 -7 -104 7 -154c3 -12 9 -25 18 -33c15 -14 33 -24 50 -34c22 -12 45 -17 75 -8c-7 17 -13 31 -20 44c-13 29 -28 58 -39 87c-8 18 9 43 27 40
c36 -6 72 -15 107 -25c16 -5 23 -17 12 -34c-8 -13 -8 -25 5 -34c9 7 18 13 25 21z" />
    <glyph glyph-name="r" unicode="r" horiz-adv-x="441" 
d="M409 -134c-3 16 -6 31 -9 47c-4 28 -3 57 -34 72c-6 2 -9 15 -11 23c-7 24 -13 48 -20 74c-19 -22 -3 -44 0 -63c7 -37 18 -73 30 -108c6 -16 20 -29 29 -44c17 -28 12 -41 -24 -56c-32 89 -82 169 -118 257c-37 88 -78 176 -131 261c-17 -66 -16 -141 -1 -190
c6 1 12 3 25 6c-16 -32 1 -72 -40 -89c-5 -2 -7 -16 -8 -24c-2 -15 -3 -29 -5 -53c-12 15 -20 24 -29 35c-7 -3 -15 -8 -23 -12c-16 27 -21 53 -17 83c2 17 -3 35 -5 53c-5 43 -12 85 -15 128c-2 32 2 65 2 98c1 28 1 56 3 85c0 13 2 26 5 39c5 24 5 24 -11 67
c-2 5 -1 12 -1 18v196c10 4 23 14 34 13c57 -11 109 10 163 22c38 9 74 1 109 -14c71 -32 100 -116 92 -182c-3 -25 -11 -44 -29 -65c-37 -44 -81 -76 -125 -114c6 -21 13 -42 19 -64c6 -23 8 -47 17 -69c16 -38 36 -75 54 -113c13 -27 26 -53 36 -81c15 -40 43 -74 48 -119
c3 -20 17 -38 7 -60c-2 -4 4 -13 7 -20c12 -26 12 -26 -24 -37zM153 429c18 20 34 37 49 54c16 20 29 42 47 59c28 27 34 64 38 99c6 55 -33 99 -86 97c-24 -1 -47 -9 -72 -15c0 -54 -10 -104 3 -148c14 -48 -8 -98 21 -146zM375 55c3 -14 5 -24 7 -33c9 12 17 24 -7 33z
M406 -45c2 1 5 1 8 2c-2 6 -2 12 -4 18c-2 4 -5 7 -7 11l-6 -3c3 -10 6 -19 9 -28z" />
    <glyph glyph-name="s" unicode="s" horiz-adv-x="380" 
d="M375 609c5 -18 8 -33 -7 -49c-8 -9 -10 -31 -8 -45c8 -50 -9 -92 -22 -137c-9 -30 -36 -23 -49 -46c-19 29 -34 54 -52 81c25 1 28 21 26 41c-7 57 -14 113 -22 171c-39 2 -71 -13 -96 -47c-32 -46 -33 -92 4 -133c43 -47 75 -106 127 -146c42 -33 70 -84 66 -150
c-2 -36 1 -72 -2 -108c-2 -38 -20 -61 -55 -61c-36 0 -66 -22 -95 -39c-50 -28 -135 7 -163 37c-5 5 -11 11 -11 18c-6 45 -12 89 -15 134c-2 27 1 55 1 82c-2 38 7 70 30 96c31 -18 61 -38 61 -86c0 -11 2 -26 -3 -31c-36 -43 -4 -80 6 -118c2 -9 8 -16 12 -23
c50 23 88 90 81 146c-7 46 -41 72 -65 105c-21 27 -46 51 -65 80c-48 70 -53 150 -31 233c16 60 61 88 103 117c36 25 75 43 108 62c42 -46 84 -89 122 -136c9 -11 9 -32 14 -48z" />
    <glyph glyph-name="t" unicode="t" horiz-adv-x="626" 
d="M617 777c18 -18 1 -36 2 -52c-42 -13 -81 9 -121 -4c-9 -3 -19 -5 -28 -9c-44 -20 -88 -42 -133 -63c2 -27 8 -57 5 -86c-7 -60 -18 -119 -26 -179c-7 -50 -13 -101 -19 -152c-4 -37 -7 -74 1 -110c2 -8 -1 -17 -2 -26c-6 -39 -13 -78 -20 -116c-3 3 -9 8 -16 12
c-2 -5 -4 -10 -6 -16c-3 1 -5 1 -7 2c-23 15 -30 39 -33 63c-6 37 -8 74 -12 111c12 3 20 5 29 8c1 4 2 7 2 9c-2 30 -7 60 -6 90c2 34 11 68 -4 101c-3 7 2 17 3 25c-6 -8 -12 -17 -19 -28c-3 20 1 34 21 40c-2 67 -5 134 -7 201c-1 40 -14 51 -52 42
c-45 -10 -126 10 -158 39c-14 13 -12 27 -4 43c47 19 96 23 147 26c35 1 69 11 104 14c100 11 199 20 299 31c22 2 43 1 60 -16zM256 254c-2 26 15 51 -5 77v-152h5c0 25 1 50 0 75z" />
    <glyph glyph-name="u" unicode="u" horiz-adv-x="474" 
d="M469 455c3 -39 8 -79 2 -116c-7 -50 -24 -97 -38 -146c-3 -13 -6 -26 -11 -38c-7 -20 -18 -31 -36 -11c-11 -26 -17 -52 -30 -70c-15 -23 -35 -45 -57 -58c-43 -27 -88 -53 -139 -40c-37 10 -68 35 -91 72c-38 62 -48 135 -54 208c-11 142 -17 283 -8 426
c1 21 -11 41 -4 66c11 46 32 60 69 40c47 -26 72 -70 78 -131c6 -69 14 -139 19 -209c2 -28 -1 -58 -4 -86c-7 -59 -5 -115 9 -173c8 -32 7 -67 28 -94c8 -10 15 -20 29 -38c19 24 37 42 49 64c28 54 47 112 52 177c4 45 17 89 22 134c4 41 8 83 3 122c-3 25 -14 50 -16 75
c-4 32 -6 65 -9 97c-1 6 -2 17 -5 18c-19 8 -17 28 -9 36c8 9 24 10 36 9c30 -1 41 -31 50 -57c7 -21 17 -24 33 -24c2 -25 6 -50 5 -76c-1 -25 6 -45 13 -68c9 -34 11 -72 14 -109z" />
    <glyph glyph-name="v" unicode="v" horiz-adv-x="413" 
d="M348 552c4 -1 8 -1 11 -1c-6 -73 -10 -145 -20 -217c-7 -55 -22 -108 -35 -162c-2 -8 -8 -16 -13 -24c-52 -79 -52 -79 -69 -161c-41 11 -46 77 -96 75c17 66 -5 123 -17 182c-37 173 -73 346 -108 519c-2 9 0 19 0 25c29 7 56 13 83 20c37 11 63 -4 76 -45
c35 -114 55 -233 77 -351c3 -11 4 -22 8 -44c5 14 8 19 8 23c0 30 13 56 20 83c6 24 5 50 11 74c4 22 10 44 21 63c19 34 41 66 64 96c9 13 24 19 44 34c-24 -71 -44 -131 -64 -190c-16 -1 -21 -14 -23 -29c-2 -23 -4 -45 -6 -67c-2 -11 -3 -22 -5 -33c3 -1 6 -1 10 -2
c9 44 24 86 23 132z" />
    <glyph glyph-name="w" unicode="w" horiz-adv-x="824" 
d="M741 755c20 29 47 46 83 37c-2 -40 -13 -79 -25 -117c-17 -54 -29 -111 -53 -160c-21 -44 -38 -86 -43 -135l1 1v0v0c-21 -71 -42 -142 -64 -213c-2 -8 -3 -19 -8 -23c-26 -23 -18 -63 -35 -90c-4 -6 2 -19 3 -27c-18 -6 -36 -13 -54 -18c-25 -9 -34 14 -47 32
c-17 24 -11 50 3 62c18 13 12 24 7 36c-11 25 -24 49 -43 70c7 -22 14 -44 21 -70c-7 -6 -15 -12 -27 -22c-19 48 -36 93 -57 148c-33 -90 -78 -165 -71 -254c-30 -25 -57 -47 -88 -72c-35 2 -47 44 -64 77c-9 15 -14 34 -18 52c-30 132 -59 265 -90 397
c-13 57 -29 113 -46 169c-16 49 -24 100 -26 157c10 -4 21 -4 25 -10c24 -33 50 -65 67 -102c27 -58 45 -122 71 -180c14 -32 21 -64 30 -98c6 -24 17 -46 23 -70c12 -47 22 -94 34 -142c1 -6 4 -12 8 -21c8 8 17 14 22 22c32 57 57 116 71 182c3 9 -1 22 -6 32
c-17 42 -35 83 -52 122c10 14 18 24 23 32c24 -7 47 -13 69 -21c6 -1 10 -7 14 -12c17 -19 34 -39 56 -65c2 -11 7 -33 9 -56c3 -28 17 -46 31 -65c8 -12 17 -25 19 -39c3 -28 19 -41 35 -60c5 8 9 12 11 18c6 31 4 72 21 90c21 23 22 50 30 76c19 64 37 128 72 183
c3 5 6 14 5 18c-10 27 5 43 16 62c13 22 22 47 37 67zM176 143c5 -19 -8 -48 17 -58c-6 20 -12 39 -17 58zM193 85c-7 -17 -10 -33 9 -52c-4 22 -6 37 -9 52zM225 69c5 11 12 19 11 25c-12 54 -20 110 -52 155v24c0 1 -7 2 -7 1c-3 -7 -5 -14 -6 -22c0 -3 5 -7 8 -11
c11 -57 8 -120 46 -172zM364 209c5 15 10 30 14 45c-2 2 -4 3 -7 4c-5 -15 -10 -30 -16 -45c3 -1 6 -3 9 -4zM723 402c-5 -20 -9 -32 -14 -52c-2 15 -4 23 -5 31c5 5 10 11 19 21z" />
    <glyph glyph-name="x" unicode="x" horiz-adv-x="584" 
d="M575 31c21 -31 -4 -59 -9 -88c-2 -8 -4 -17 -5 -28c-37 -7 -70 4 -90 19c-7 36 -7 63 -17 83c-23 45 -52 86 -79 129c-16 27 -32 54 -49 82c-35 -49 -51 -102 -66 -156c-5 -17 -12 -37 -24 -49c-30 -31 -41 -34 -71 -36c-24 -2 -49 -3 -80 -5c45 96 72 194 130 276
c14 22 23 48 32 72c3 10 4 25 -1 32c-33 46 -66 91 -100 137v-1c-1 0 -1 1 -1 1c-24 -7 -35 13 -44 29c-20 35 -38 70 -55 105c-16 32 -31 64 -46 96c15 16 30 32 48 50c43 6 68 -33 98 -56c74 -56 112 -142 163 -219c25 1 36 19 43 38c8 26 17 54 17 81c-1 42 22 72 43 101
c20 29 55 33 92 28c1 -13 7 -28 2 -38c-15 -36 -36 -71 -52 -108c-17 -40 -36 -81 -44 -124c-10 -52 -9 -105 -13 -157c76 -44 68 -128 82 -204c18 18 30 36 42 10c8 -17 7 -39 15 -56c10 -17 28 -28 39 -44zM149 451c-8 15 -23 31 -3 47c12 -27 25 -54 37 -81
c-3 -2 -5 -4 -8 -6c-9 13 -19 26 -26 40z" />
    <glyph glyph-name="y" unicode="y" horiz-adv-x="366" 
d="M4 852c16 -8 36 -12 44 -24c31 -45 60 -91 85 -139c19 -37 31 -77 48 -122c26 38 50 74 74 111c22 35 43 71 70 115c15 -19 32 -30 34 -43c4 -21 14 -44 -5 -65c-13 -16 -26 -33 -36 -52c-7 -13 -22 -27 -2 -47c6 -6 -2 -32 -9 -46c-14 -27 -31 -52 -48 -80
c-6 8 -10 12 -19 22c-11 -30 -21 -57 -30 -84c2 -1 4 -1 6 -2c7 13 15 26 22 39c-28 -150 -19 -301 -20 -449c-24 -30 -54 21 -77 -11c-38 18 -29 57 -30 86c-3 96 1 192 1 289c0 18 -11 35 -14 54c-8 44 -20 88 -32 132c-20 69 -43 137 -63 206c-5 21 -2 44 -2 66
c0 13 2 26 3 44z" />
    <glyph glyph-name="z" unicode="z" horiz-adv-x="454" 
d="M266 661c-23 0 -43 -1 -63 0c-37 3 -74 5 -111 10c-40 6 -73 29 -92 77c7 16 18 25 36 26c57 4 115 9 172 12c11 1 23 1 34 -2c38 -11 71 5 98 21c17 -12 31 -21 44 -31c17 -12 36 -21 50 -37c26 -28 22 -68 -8 -89c-29 -22 -23 -53 -22 -85c-10 -16 -35 -21 -26 -51
c-21 -39 -32 -84 -65 -118c-27 -29 -43 -76 -59 -117c-14 -33 -18 -72 -30 -106c-12 -32 -28 -62 -42 -94c-6 -14 -13 -28 -24 -52c103 29 198 50 296 19v-31c-48 -7 -98 -11 -146 -23c-36 -8 -71 -23 -105 -41c-33 -18 -68 -17 -102 -22h-8c-7 37 -30 8 -47 18
c-13 19 -16 42 -7 68c32 91 61 184 96 274c31 78 66 154 100 231c4 9 7 19 9 29c7 35 14 71 22 114zM86 56c4 -2 7 -4 11 -6c5 12 10 23 15 35c-3 2 -5 3 -8 5c-6 -11 -12 -22 -18 -34zM140 158c-3 1 -6 2 -9 4c-4 -11 -8 -21 -11 -32c3 -1 6 -3 9 -4c4 11 7 21 11 32z" />
    <glyph glyph-name="six" unicode="6" horiz-adv-x="484" 
d="M325 785c18 -14 34 -26 50 -38c30 -23 28 -57 -7 -71c-60 -24 -106 -67 -157 -103c-27 -18 -43 -45 -54 -75c-16 -49 -33 -97 -53 -153c27 18 45 35 67 44c37 15 75 26 114 37c10 2 23 0 33 -4c48 -23 87 -57 121 -99c30 -37 36 -75 35 -118c0 -7 -1 -15 1 -22
c17 -59 -19 -105 -40 -154l-56 -43c-27 -12 -54 -25 -83 -33c-18 -6 -39 -8 -56 -3c-19 4 -35 18 -51 29c-24 16 -49 30 -70 49c-23 21 -44 45 -59 72c-36 61 -59 128 -60 199c-1 62 3 125 31 181c23 46 35 98 70 138s74 72 117 100c34 23 69 43 107 67zM165 258
c-21 1 -35 1 -55 2c1 -20 -1 -40 4 -58c6 -22 18 -42 27 -63c16 -36 43 -61 80 -75c48 -17 85 -10 114 30c7 9 13 19 20 27c41 47 39 129 -8 169c-35 30 -78 38 -124 40c-33 2 -47 -22 -67 -40c2 -8 4 -16 9 -32z" />
    <glyph glyph-name="one" unicode="1" horiz-adv-x="270" 
d="M129 -96c-21 88 -22 173 -16 260c6 78 -2 157 -1 236c0 45 5 89 8 133c1 7 0 14 0 29c-21 -14 -38 -24 -52 -37c-18 -16 -29 -9 -39 8c-8 -4 -16 -9 -25 -14c-9 36 -2 65 20 91c26 30 52 61 76 93c16 21 29 46 42 69c9 15 30 24 43 13c22 -19 51 -28 67 -58
c12 -24 17 -47 10 -68c-5 -16 -1 -27 0 -40c2 -17 5 -36 -1 -50c-23 -55 -23 -112 -28 -169c-5 -53 -4 -106 -5 -159c-2 -80 -14 -157 -46 -231c-4 -10 -3 -22 -5 -33c-7 -29 -10 -60 -48 -73z" />
    <glyph glyph-name="two" unicode="2" horiz-adv-x="484" 
d="M1 -55c5 17 13 31 13 46c1 13 -7 26 -14 49c13 -14 19 -22 26 -30c1 3 3 5 3 6c1 24 -2 48 5 70c4 16 2 28 -8 41c31 68 62 136 106 197c39 54 79 108 111 167c16 27 32 55 45 85c19 43 13 72 -20 111c-44 -4 -71 -32 -93 -68c-20 -33 -45 -63 -42 -109
c-31 -11 -63 -21 -98 -33c-2 9 -4 17 -4 26c0 48 13 94 32 137c21 48 54 87 104 109c12 5 26 9 35 17c51 41 103 23 151 0c46 -22 78 -58 95 -107c3 -9 6 -21 4 -31c-11 -52 -25 -103 -57 -149c-59 -86 -127 -164 -194 -243c-8 -8 -11 -19 -17 -29c-5 -9 -9 -21 -16 -26
c-38 -28 -56 -68 -71 -110c-5 -17 -14 -32 -24 -53c13 2 20 0 25 3c34 17 72 20 107 36c49 23 103 41 158 45c40 3 80 0 114 -16c5 -13 10 -24 15 -37h-32c5 -12 8 -20 12 -29c-52 0 -100 0 -148 -1c-32 -1 -62 -10 -90 -27c-5 -3 -13 -6 -18 -5c-20 4 -31 -10 -44 -20
c-14 -9 -28 -21 -44 -24c-40 -8 -81 -21 -127 2z" />
    <glyph glyph-name="three" unicode="3" horiz-adv-x="435" 
d="M25 209c18 -41 33 -79 51 -116c9 -17 23 -32 44 -11c5 5 16 3 25 4c24 1 48 1 71 5c74 12 98 80 96 132c-2 40 -8 79 -28 114c-9 17 -14 44 -42 24c-26 18 -44 -2 -66 -9c-26 -8 -57 -4 -85 -1c-19 2 -38 12 -55 18c-3 5 -5 7 -5 10c0 15 -6 35 1 45c9 12 28 20 44 26
c23 10 48 18 73 25c76 23 109 78 115 154c2 24 -4 35 -30 63c-11 -1 -24 -2 -36 -5c-36 -7 -65 -25 -77 -63c-11 -31 -34 -49 -66 -60c-12 37 -12 69 10 101c39 57 78 111 151 123c15 3 26 4 40 -5c21 -14 46 -23 67 -38c43 -30 65 -74 64 -128c-1 -57 -5 -113 -44 -160
c40 -29 62 -72 75 -117c12 -44 10 -93 13 -140c1 -9 -3 -18 -1 -27c12 -61 -9 -115 -33 -168c-8 -18 -18 -29 -35 -36c-47 -21 -95 -24 -143 -14c-41 9 -81 19 -121 28c-5 2 -12 3 -15 7c-25 32 -55 61 -73 97c-17 33 -10 72 4 108c2 5 7 8 11 14z" />
    <glyph glyph-name="four" unicode="4" horiz-adv-x="455" 
d="M317 293c18 25 -2 45 -6 67c-40 7 -79 17 -119 20c-28 2 -57 -7 -85 -8c-21 -1 -43 -2 -63 3c-33 10 -47 31 -43 67c4 40 11 79 19 119c10 54 21 108 33 162c3 11 9 22 13 33s7 22 12 37c4 2 13 5 24 9c16 -23 32 -45 51 -72c-16 -84 -32 -173 -50 -269
c36 -3 65 -5 94 -9c24 -3 48 -8 71 -14c18 -5 29 -3 39 15c14 27 26 53 20 85c-1 9 3 20 3 30c2 36 4 72 5 108c1 11 -1 24 0 35c8 49 42 65 83 40c7 -5 15 -9 23 -13c-1 -23 1 -46 -3 -68c-11 -68 -6 -136 0 -205c3 -39 -1 -78 4 -117c9 -79 0 -156 -14 -234
c-7 -42 -8 -86 -12 -129c-2 -14 -5 -28 -10 -53c-23 40 -48 28 -70 21c-7 8 -12 18 -20 22c-28 15 -35 44 -29 69c14 63 2 126 12 189c3 21 13 41 20 61l6 -51c5 18 13 37 -8 50zM354 473c2 0 3 1 5 2c1 10 1 21 1 32h-4c0 -11 -1 -23 -2 -34z" />
    <glyph glyph-name="five" unicode="5" horiz-adv-x="448" 
d="M53 330c-32 125 -34 246 -13 370c-6 4 -12 7 -18 11c-22 15 -22 26 2 41c5 3 10 5 15 8c4 3 7 5 12 9c4 16 7 33 12 54c14 -5 28 -6 37 -14c25 -24 53 -25 84 -24c33 2 66 2 99 0c38 -2 74 -9 105 -36c19 -17 33 -34 18 -62c-2 -4 0 -12 0 -17h-243v-170
c32 18 63 37 95 55c9 5 20 7 29 6c76 -11 138 -70 149 -150c11 -74 8 -146 -19 -219c-32 -83 -79 -151 -140 -210c-12 -12 -79 -33 -102 -33c-91 1 -165 71 -175 166c-1 15 7 31 12 53c24 -23 48 -33 53 -70c3 -21 26 -43 44 -59c16 -14 38 -13 57 0c81 57 136 131 153 237
c10 65 -4 120 -29 182c-15 -5 -32 -7 -43 -16c-30 -26 -63 -50 -86 -82c-31 -45 -67 -43 -108 -30z" />
    <glyph glyph-name="seven" unicode="7" horiz-adv-x="428" 
d="M397 739c10 -20 18 -38 26 -55c-42 -38 -59 -90 -77 -139c-27 -75 -44 -153 -70 -229c-21 -64 -43 -127 -56 -194c-3 -17 -14 -32 -22 -48c-1 9 -2 18 -4 27h-7c-3 -20 -5 -39 -7 -59c5 9 11 17 16 26c-2 -27 -4 -55 -5 -82h-10v58v0c-10 -29 -19 -58 -29 -87
c-44 16 -65 45 -55 88c18 86 40 171 61 256c7 31 14 61 23 91c5 18 14 34 20 52c24 72 47 144 73 221c-40 0 -76 -2 -111 1c-50 3 -99 9 -150 14c-4 28 -8 54 -13 87c140 8 278 15 420 23c-9 -20 -16 -36 -23 -51zM196 68c0 2 1 3 1 4s0 2 1 2v-3s-1 -2 -2 -3z" />
    <glyph glyph-name="eight" unicode="8" horiz-adv-x="474" 
d="M298 -48c-5 10 -7 17 -11 24c-7 -2 -13 -1 -18 -4c-34 -24 -70 -17 -106 -4c-31 11 -60 24 -83 53c-12 15 -33 23 -50 36c-5 4 -10 11 -12 17c-20 70 -30 140 7 207c21 38 44 75 66 114c-22 39 -44 77 -51 125c-12 70 9 131 42 189c10 18 21 35 34 52c16 22 34 40 65 24
c12 -5 28 -5 42 -3c97 13 197 -73 211 -172c11 -83 -14 -154 -53 -224c13 -12 26 -24 39 -35c29 -22 39 -53 43 -88c8 -64 -10 -124 -32 -182c-10 -29 -17 -59 -45 -82c-35 -29 -30 -34 -70 -40c-5 0 -11 -4 -18 -7zM382 205c-2 16 -4 30 -6 45c-11 58 -26 96 -108 91
c-5 -1 -13 0 -14 3c-8 20 -21 12 -32 6c-45 -22 -78 -58 -100 -104c-18 -39 -16 -81 -12 -121c5 -61 34 -84 94 -84c13 0 26 -2 38 -3c54 -5 114 35 128 89c6 25 8 52 12 78zM247 729c-27 -36 -55 -72 -80 -109c-20 -31 -24 -66 -21 -103c5 -80 39 -97 115 -89
c10 1 20 5 29 9c26 9 41 27 44 55c2 26 7 53 8 79c3 67 -30 145 -95 158z" />
    <glyph glyph-name="nine" unicode="9" horiz-adv-x="415" 
d="M41 144c21 -5 44 -9 57 -12c22 -29 38 -52 57 -72c16 -18 36 -15 55 -1c10 8 22 15 30 26c42 64 64 136 77 224c-26 -23 -48 -36 -63 -56c-23 -31 -59 -37 -85 -30c-59 14 -118 39 -146 104c-27 63 -31 131 -10 200c15 47 37 90 65 130c27 38 58 68 96 91
c18 12 36 25 61 43c15 -3 43 -1 61 -14c38 -29 69 -68 79 -121c17 -86 36 -173 38 -261c1 -49 -5 -100 -14 -148c-9 -43 -26 -85 -39 -127c-15 -44 -47 -73 -81 -98c-7 -6 -14 -10 -21 -15c-27 -20 -52 -48 -88 -18c-54 -3 -84 39 -118 74c-22 23 -23 38 -11 81zM272 668
c-59 -25 -99 -65 -136 -108c-56 -66 -63 -173 -17 -246c21 -32 60 -48 94 -36c45 15 75 52 105 87c5 6 5 18 6 27c6 96 -23 183 -52 276z" />
    <glyph glyph-name="zero" unicode="0" horiz-adv-x="435" 
d="M430 271c1 -9 -4 -19 -6 -28c1 15 2 31 3 46c-3 0 -7 0 -10 1c-3 -27 -6 -53 -9 -79c-5 -16 -10 -32 -16 -49c6 7 11 13 16 20c-3 -17 -7 -34 -11 -51h-4c-1 9 -2 17 -3 26c-5 -14 -10 -28 -16 -42c-15 -39 -27 -80 -47 -116c-9 -17 -29 -36 -56 -33c-17 2 -34 0 -51 0
c-30 1 -30 1 -30 36c-12 2 -23 4 -35 5c-4 1 -12 0 -12 1c-13 41 -68 30 -82 70c-12 35 -28 68 -42 103c-3 6 -3 14 -5 20c-9 17 -11 35 -8 53c2 10 2 21 0 30c-16 71 4 139 15 208c10 54 31 107 45 161c12 43 38 83 33 131c-2 13 21 23 33 13c28 -24 63 -17 94 -25
c52 -13 102 -29 137 -74c26 -34 36 -73 39 -114c5 -64 9 -128 15 -192c3 -40 10 -80 13 -121zM341 237c11 64 14 128 10 193c-4 70 -12 139 -37 206c-18 48 -53 70 -105 68c-15 -52 -23 -103 -43 -148c-26 -58 -34 -120 -52 -180c-19 -65 -10 -131 -9 -197
c0 -43 23 -72 47 -103c7 -9 21 -15 33 -17c23 -3 46 -3 69 -3c17 0 28 8 37 23c30 49 41 104 50 158z" />
    <glyph glyph-name="exclam" unicode="!" horiz-adv-x="171" 
d="M155 804c21 -46 14 -92 6 -139c-11 -65 -18 -130 -27 -196c-8 -61 -17 -121 -25 -183c-6 -46 -1 -94 -20 -139c-4 -11 -10 -21 -17 -36c-31 47 -35 94 -41 141c-17 129 -15 258 -8 387c3 62 14 123 23 184c4 26 29 40 54 31c18 -6 35 -13 54 -20c0 -11 -3 -22 1 -30z
M0 31c49 34 88 0 132 -19c-15 -42 2 -90 -36 -126c-35 -1 -57 15 -68 48c-9 31 -18 62 -28 97z" />
    <glyph glyph-name="percent" unicode="%" horiz-adv-x="408" 
d="M393 743c22 -43 17 -55 -11 -94c-32 -43 -61 -89 -88 -136c-40 -69 -74 -142 -117 -209c-36 -57 -54 -120 -75 -183c-11 -34 -19 -70 -31 -104c-6 -19 -17 -36 -28 -52c-4 -7 -16 -13 -22 -11c-7 2 -13 12 -17 20c-3 5 -2 13 -3 20c-5 72 7 142 31 211
c64 187 159 358 277 516c17 21 32 47 65 54c8 -13 14 -22 19 -32zM199 192c99 -12 123 -61 123 -132c-11 -17 -19 -28 -26 -40c-25 -41 -54 -56 -94 -47c-31 7 -71 59 -65 90c7 31 20 61 33 90c7 14 19 26 29 39zM239 49c18 22 17 44 1 71c-33 -18 -44 -45 -45 -77
c19 -14 32 -8 44 6zM145 650c-62 26 -70 74 -56 129c4 14 11 28 19 39c12 17 25 16 45 5c44 -22 56 -64 72 -103c9 -25 -1 -40 -27 -51c-10 -5 -20 -7 -31 -11c-8 -3 -17 -6 -22 -8zM131 749c-2 -8 -4 -16 -7 -24c4 -1 7 -2 11 -2c2 8 3 16 5 24c-3 1 -6 1 -9 2z" />
    <glyph glyph-name="question" unicode="?" horiz-adv-x="410" 
d="M388 746c10 -17 14 -41 14 -61c-1 -63 -21 -122 -55 -175c-25 -40 -50 -80 -77 -119c-23 -36 -35 -74 -43 -116c-10 -50 -27 -99 -41 -149c-4 -15 -6 -31 -11 -45c-2 -7 -8 -13 -12 -20c-4 0 -9 1 -13 1c-7 24 -19 48 -19 73c-2 77 -9 156 20 230c29 73 61 145 96 216
c17 33 32 66 34 104c3 45 -12 79 -50 101c-59 -17 -91 -59 -114 -111c-11 -22 -19 -45 -31 -66c-17 -28 -13 -54 1 -81c6 -13 10 -25 16 -39c-16 -9 -28 -17 -45 -27c-9 19 -18 36 -25 54c-10 26 -19 51 -26 78c-12 47 -10 93 20 136c16 23 28 50 47 72c48 57 118 81 200 45
c51 -22 87 -56 114 -101zM98 0c46 38 87 8 133 -8c-12 -43 9 -90 -26 -128c-34 -4 -58 10 -71 42c-12 30 -23 61 -36 94z" />
    <glyph glyph-name="hyphen" unicode="-" horiz-adv-x="466" 
d="M464 379c-9 -4 -12 -11 -10 -20c-17 -3 -33 -6 -50 -9c-35 -6 -71 -8 -105 -19c-79 -25 -161 -28 -242 -37c-6 -1 -17 1 -19 5c-13 23 -41 40 -38 76c23 2 45 4 67 6c63 7 126 13 189 21c71 9 139 -5 208 -23z" />
    <glyph glyph-name="underscore" unicode="_" horiz-adv-x="465" 
d="M462 1c-9 -4 -13 -10 -12 -19c-16 -2 -33 -3 -50 -4c-36 -3 -72 -2 -107 -10c-80 -17 -162 -13 -244 -15c-6 0 -17 3 -18 7c-11 25 -37 44 -31 79h67c63 1 126 2 190 4c71 2 138 -18 205 -42z" />
    <glyph glyph-name="less" unicode="&#x3c;" horiz-adv-x="331" 
d="M293 572c8 -1 17 -3 27 -4c4 -23 -17 -46 9 -70c-36 -34 -72 -66 -105 -100c-28 -30 -61 -48 -100 -57c-3 -1 -6 -5 -12 -11c21 -20 40 -41 62 -60c39 -35 84 -65 105 -116c-26 -18 -44 -2 -62 13c-28 24 -55 49 -83 73c-10 9 -22 17 -34 22c-24 10 -47 20 -66 39
c-7 8 -21 11 -34 18c10 17 20 34 30 52c2 1 4 3 6 2c30 -9 55 -6 71 26c10 18 34 22 46 42c11 18 33 30 49 45c30 27 59 55 91 86z" />
    <glyph glyph-name="greater" unicode="&#x3e;" horiz-adv-x="331" 
d="M36 572c32 -31 61 -59 91 -86c16 -15 38 -27 49 -45c12 -20 37 -24 46 -42c17 -32 41 -35 71 -26c2 1 4 -1 6 -2c10 -18 20 -35 30 -52c-13 -7 -26 -10 -34 -18c-19 -19 -42 -29 -66 -39c-12 -5 -24 -13 -34 -22c-28 -24 -55 -49 -83 -73c-18 -15 -36 -31 -62 -13
c21 51 66 81 106 116c21 19 40 40 62 60c-7 6 -9 10 -13 11c-39 9 -72 27 -100 57c-33 34 -69 66 -105 100c26 24 5 47 9 70c10 1 19 3 27 4z" />
    <glyph glyph-name="ampersand" unicode="&#x26;" horiz-adv-x="540" 
d="M239 336c36 -69 73 -115 108 -136c38 35 55 81 65 129c7 34 16 65 35 93c7 10 9 23 13 34c28 7 27 -16 26 -28c-8 -89 -21 -176 -87 -246c-25 -26 -24 -34 2 -62c43 -47 88 -92 131 -138c3 -2 4 -5 5 -8c-2 -1 -4 -3 -7 -5c-10 -6 -21 -19 -31 -17c-14 2 -29 12 -40 22
c-34 28 -67 58 -98 88c-30 29 -35 28 -65 -1c-43 -42 -89 -78 -147 -96c-50 -15 -122 12 -139 58c-11 29 -10 63 -10 94c1 53 18 104 37 153c5 13 14 24 23 36c23 30 46 61 70 92c-38 87 -23 176 -12 264c10 84 66 116 123 129c48 12 119 -22 144 -66
c36 -62 38 -123 -7 -182c-23 -30 -45 -59 -65 -89c-26 -39 -49 -79 -74 -118zM194 274c-67 -46 -100 -107 -113 -182c-7 -37 18 -63 56 -54c53 14 98 42 139 80c-9 12 -23 21 -23 31c-2 50 -45 79 -59 125zM191 499c5 -1 9 -2 14 -2c35 50 75 97 98 156c6 13 15 30 0 38
c-13 6 -36 8 -49 2c-30 -16 -55 -40 -58 -77c-2 -39 -3 -78 -5 -117z" />
    <glyph glyph-name="numbersign" unicode="#" horiz-adv-x="529" 
d="M473 288c-1 -6 11 -15 17 -24c-31 -18 -65 -24 -100 -23c-34 1 -53 -21 -70 -43c-21 -26 -38 -55 -57 -82c-3 -3 -7 -6 -16 -16c6 18 10 29 17 48c-30 -23 -32 -53 -47 -75c-13 22 -13 22 -6 41c10 26 22 53 33 79c4 11 8 23 12 35c-34 7 -56 -1 -74 -30
c-14 -24 -35 -44 -54 -65c-34 -36 -57 -77 -77 -121l-6 -9c-21 22 -28 58 -16 92c11 31 24 60 37 90c5 13 11 24 19 42c-20 0 -36 -3 -50 2c-13 5 -23 18 -35 28c-1 16 8 24 23 28c35 9 69 19 108 23c6 11 11 22 20 39c-42 2 -83 -16 -107 28c15 12 30 25 46 35
c7 4 17 2 25 1c21 -2 42 -5 66 -8c29 61 58 120 88 182c64 -47 44 -109 35 -168c25 -14 34 -14 44 8c15 34 26 70 40 104c5 13 12 24 20 39c43 -44 59 -91 38 -147c21 -5 41 -6 55 -16c12 -8 17 -27 26 -42c-23 -10 -48 -19 -76 -16c-13 1 -30 3 -40 -17c14 -4 27 -5 37 -11
c11 -7 30 -8 25 -31zM262 321c32 -9 32 -9 41 21c-20 4 -36 3 -41 -21z" />
    <glyph glyph-name="dollar" unicode="$" horiz-adv-x="398" 
d="M159 743c-11 71 24 131 24 199c45 -17 63 -45 66 -84c1 -32 0 -64 0 -90c18 -16 32 -27 44 -40c19 -19 38 -39 53 -61c16 -22 29 -46 39 -71c5 -13 4 -30 2 -44c-1 -8 -9 -18 -17 -21c-10 -5 -21 -1 -28 11c-13 22 -30 43 -42 65c-9 17 -20 28 -40 30c-21 2 -41 13 -65 7
c-33 -8 -59 -23 -79 -50c-27 -36 -23 -63 13 -89c35 -24 71 -45 104 -71c48 -36 89 -79 124 -127c54 -76 48 -156 17 -238c-25 -21 -48 -46 -76 -62c-25 -15 -55 -19 -87 -29c8 -41 -17 -72 -38 -107c-23 -1 -36 11 -39 34c-4 33 -7 65 -12 105c-14 8 -34 19 -55 30
c-22 10 -40 25 -49 48c-19 43 -25 87 -8 134c8 24 26 38 46 50c7 5 20 1 36 1c-9 -27 -16 -47 -22 -68c-7 -22 -15 -45 -17 -68c-2 -28 18 -50 46 -53c45 -3 91 -9 137 -6c26 2 54 18 76 34c11 8 16 31 17 47c3 27 2 54 -1 81c-2 20 -15 35 -28 51c-47 56 -106 92 -171 122
c-90 41 -132 171 -57 266c23 29 53 47 87 64z" />
    <glyph glyph-name="quotedbl" unicode="&#x22;" horiz-adv-x="293" 
d="M8 915c47 -25 93 -44 118 -94c12 -23 25 -44 22 -71c-1 -8 -3 -17 -7 -24c-10 -16 -22 -32 -35 -50c-27 -8 -56 -4 -82 14c0 34 2 69 -1 103c-1 20 -5 41 -15 58c-11 20 -11 39 0 64zM148 915c47 -25 94 -44 119 -94c12 -23 25 -44 21 -71c-1 -8 -2 -17 -6 -24
c-11 -16 -23 -32 -36 -50c-26 -8 -55 -4 -82 14c1 34 2 69 0 103c-1 20 -6 41 -15 58c-11 20 -11 39 -1 64z" />
    <glyph glyph-name="quotesingle" unicode="'" horiz-adv-x="155" 
d="M8 915c47 -25 93 -44 118 -94c12 -23 25 -44 22 -71c-1 -8 -3 -17 -7 -24c-10 -16 -22 -32 -35 -50c-27 -8 -56 -4 -82 14c0 34 2 69 -1 103c-1 20 -5 41 -15 58c-11 20 -11 39 0 64z" />
    <glyph glyph-name="asterisk" unicode="*" horiz-adv-x="389" 
d="M253 659c13 1 24 12 31 -5c1 -2 9 -1 14 -1c22 2 45 3 67 2c-3 -1 -7 -2 -13 -4c11 -5 20 -8 30 -12c-9 -10 -17 -12 -28 -9c-3 0 -6 2 -7 1c-29 -15 -59 -6 -89 -5c4 -16 62 -89 91 -116c-2 -9 -5 -19 -9 -29c-18 4 -30 16 -41 28c-19 20 -37 41 -56 62
c-5 5 -12 10 -21 19c-2 -18 -3 -32 -4 -46s-1 -28 -2 -41c0 -10 0 -19 -12 -21c-9 -2 -20 7 -22 18c-2 16 -3 33 -4 49c-2 11 0 23 -12 31c-27 -22 -44 -51 -63 -78c-12 -18 -25 -31 -49 -33c-4 7 -8 14 -12 22c23 48 59 87 93 129c-9 8 -17 11 -29 11c-28 0 -56 4 -84 8
c-13 2 -24 9 -22 25c41 19 82 1 127 5c-26 33 -51 64 -76 95c27 23 35 23 59 0c14 -13 27 -26 45 -42c1 27 1 49 2 71c0 23 -4 46 12 67c22 -12 31 -33 37 -55c6 -27 5 -53 4 -80c-1 -10 0 -19 0 -34c19 16 34 29 48 41c18 16 36 32 54 47c3 4 7 7 10 11c9 16 9 16 31 13
c3 -12 7 -24 11 -38c-8 -3 -11 -14 -24 -12c-6 1 -17 -8 -20 -15c-5 -9 -12 -12 -20 -17c-13 -8 -29 -15 -31 -34c-1 -5 -9 -8 -12 -12c-2 -4 -2 -10 -4 -16z" />
    <glyph glyph-name="period" unicode="." horiz-adv-x="132" 
d="M16 57c58 21 102 -29 113 -77c5 -25 -5 -36 -29 -49c-23 -12 -46 -8 -67 -3c-25 5 -38 38 -31 72c4 18 9 36 14 57z" />
    <glyph glyph-name="comma" unicode="," horiz-adv-x="143" 
d="M33 -197c4 29 6 49 9 69c4 31 -1 58 -24 85c-29 34 -20 75 6 112c19 -3 37 -5 55 -8c44 -10 67 -55 65 -104c-2 -34 -20 -62 -39 -89c-12 -18 -27 -34 -42 -50c-6 -6 -16 -8 -30 -15z" />
    <glyph glyph-name="plus" unicode="+" horiz-adv-x="457" 
d="M464 379c-9 -4 -12 -11 -10 -20c-17 -3 -33 -6 -50 -9c-35 -6 -71 -8 -105 -19c-8 -2 -17 -5 -25 -7c0 -5 -1 -11 -1 -16c-1 -17 -10 -34 -15 -50c-6 -20 -12 -39 -16 -58c-5 -27 -9 -55 -13 -82c-12 -1 -14 7 -17 14c-14 34 -21 70 -22 106c-1 23 -1 47 -2 70
c-43 -6 -87 -9 -131 -14c-6 -1 -17 1 -19 5c-13 23 -41 40 -38 76c23 2 45 4 67 6c40 4 81 9 121 13v77c0 19 -2 37 -3 55c0 6 0 11 1 18c28 -6 51 -16 69 -38c7 -8 16 -14 24 -20c0 -18 -1 -35 -2 -52c0 -10 0 -20 -1 -30c64 4 126 -9 188 -25z" />
    <glyph glyph-name="equal" unicode="=" horiz-adv-x="410" 
d="M49 333c-5 -1 -15 1 -17 4c-10 21 -34 34 -32 66c20 1 39 3 57 5c54 5 108 11 161 17c61 8 119 -4 178 -19c-7 -4 -10 -10 -8 -18c-15 -2 -29 -4 -43 -7c-30 -5 -61 -7 -90 -16c-67 -21 -137 -24 -206 -32zM218 331c61 7 119 -5 178 -20c-7 -4 -10 -9 -8 -17
c-15 -3 -29 -5 -43 -8c-30 -5 -61 -7 -90 -16c-67 -21 -137 -24 -206 -32c-5 0 -15 1 -17 4c-10 21 -34 35 -32 66c20 1 39 3 57 5c54 5 108 11 161 18z" />
    <glyph glyph-name="at" unicode="@" horiz-adv-x="808" 
d="M577 75c1 -21 2 -33 3 -46c3 -20 -7 -35 -22 -48c-32 -29 -72 -36 -112 -39c-66 -4 -127 15 -187 41c-20 8 -39 19 -59 28c-61 27 -109 70 -143 126c-64 103 -74 212 -30 326c24 62 48 125 75 186c16 35 47 58 80 76c65 35 133 60 205 76c20 5 42 1 63 -2
c69 -12 133 -36 186 -83c19 -17 42 -31 61 -48c43 -38 70 -87 92 -139c3 -6 5 -13 7 -20c9 -63 17 -125 -9 -186c-14 -32 -22 -67 -38 -99c-12 -25 -31 -48 -49 -70c-20 -25 -48 -42 -80 -48c-80 -12 -181 4 -219 109c-3 11 -12 20 -19 33c-25 -23 -46 -43 -67 -61
c-12 -10 -26 -19 -40 -24c-31 -12 -64 -19 -89 8c-25 26 -39 60 -26 99c22 63 58 117 102 167c15 18 39 30 61 37c15 6 35 2 50 -4c19 -9 36 -23 54 -35c6 -5 11 -13 18 -18c41 -25 42 -25 33 -72c-8 -42 -9 -82 11 -122c16 -32 36 -43 68 -29c13 5 26 14 36 23
c50 45 82 100 101 163c4 15 3 32 0 47c-8 37 -18 73 -28 109c-5 17 -13 32 -33 36c-6 1 -12 4 -14 9c-5 8 -8 17 -7 26c0 3 12 5 19 8c-6 20 -10 42 -18 62c-3 9 -12 19 -22 23c-17 8 -37 17 -56 18c-67 6 -134 2 -199 -21c-35 -12 -64 -30 -86 -61c-13 -20 -30 -38 -45 -58
c-22 -29 -41 -61 -50 -98c-7 -31 -16 -62 -30 -90c-11 -26 -24 -49 -16 -78c2 -5 0 -12 -3 -16c-22 -33 -10 -59 14 -85c12 -13 15 -35 27 -48c25 -27 52 -54 82 -76c47 -33 100 -57 158 -66c41 -6 80 3 117 19c21 9 41 20 73 35zM239 221c56 41 99 91 121 157
c-64 -34 -98 -91 -121 -157z" />
    <glyph glyph-name="sterling" unicode="&#xa3;" horiz-adv-x="631" 
d="M296 327c7 -32 12 -65 19 -98c16 -70 -8 -126 -62 -170c0 -22 -31 -22 -31 -45c11 -4 22 -9 33 -13c31 -11 62 -21 93 -32c25 -10 48 -20 74 -4c7 4 17 7 23 5c38 -18 65 7 94 24c19 11 39 23 65 16c4 -10 6 -23 13 -31c14 -16 9 -32 0 -43c-35 -42 -80 -65 -135 -62
c-7 1 -14 4 -20 2c-43 -13 -81 4 -118 22c-67 33 -137 54 -210 66c-7 1 -13 1 -20 0c-43 -6 -74 11 -99 45c-3 6 -7 11 -15 21c39 5 75 9 111 15c9 2 22 7 25 14c13 25 22 50 32 76c5 15 6 32 14 45c21 38 20 76 9 116c-2 5 -2 10 -4 17c-32 16 -71 26 -83 75
c22 2 42 5 66 8l-3 66s-6 43 4 66c5 13 -4 32 -6 49c-2 19 -3 38 -5 62c6 -7 8 -10 10 -12c13 30 26 59 39 89c7 19 17 34 37 42c30 13 58 29 93 27c13 0 26 3 39 6c35 9 33 8 52 -22c15 -23 23 -44 20 -72c-1 -22 -9 -28 -27 -36c-8 8 -18 16 -27 26c-18 21 -36 41 -67 22
c-3 -1 -8 2 -11 2c-25 -1 -41 -13 -48 -37c-15 -53 -22 -106 -11 -160c6 -31 7 -62 9 -94c1 -19 11 -24 28 -23c22 2 45 2 67 4c32 3 56 -13 78 -32c15 -14 11 -35 -9 -40c-12 -3 -26 -4 -38 -1c-31 8 -62 9 -98 -1z" />
    <glyph glyph-name="Euro" unicode="&#x20ac;" horiz-adv-x="444" 
d="M420 651c-54 -9 -106 -12 -153 -28c-55 -19 -103 -53 -135 -105c-5 -8 -5 -19 -9 -31c49 4 95 9 136 -17c-2 -42 -7 -48 -46 -55c-41 -7 -83 -15 -128 -23c-4 -11 -10 -26 -14 -42c-4 -12 -4 -25 -6 -39c44 -12 93 9 135 -24c-2 -17 -4 -34 -6 -52
c-4 -23 -14 -35 -38 -36c-26 -2 -53 -1 -82 -1c8 -47 39 -83 79 -110c74 -50 156 -68 243 -45c18 5 33 5 50 -5c-2 -9 -2 -20 -6 -28c-4 -9 -12 -18 -20 -21c-72 -21 -142 -18 -213 8c-44 16 -86 34 -118 69c-35 39 -65 81 -69 135c-1 3 -1 5 -2 8c-28 58 -17 118 -9 178
c11 82 39 160 82 232c28 47 70 78 114 110c35 26 71 30 109 39c17 5 30 1 44 -6c41 -19 68 -69 62 -111z" />
    <glyph glyph-name="parenleft" unicode="(" horiz-adv-x="348" 
d="M325 -28v-1v-12c0 -3 0 -5 -1 -8v0l-3 -18v0c-71 -67 -133 -28 -190 37c-34 40 -63 89 -92 136c-18 28 -23 66 -31 102c-14 64 -7 122 0 183c3 27 -1 56 -1 84c1 66 31 117 48 173c9 29 33 49 51 72c36 46 68 101 117 121c8 3 15 7 23 11h1c17 0 35 3 52 2h13
c1 0 2 -1 2 -1c2 0 4 0 6 -1s4 -1 6 -2c1 0 2 -1 3 -1c1 -1 2 -1 3 -2s2 -1 3 -2l3 -3v0v-1c1 -1 2 -3 3 -5v-2v-2v-4c0 -1 0 -4 -1 -6c0 -3 -1 -7 -2 -10l-3 -9c0 -1 0 -1 -1 -2v-1c-3 -7 -6 -13 -9 -20c-2 -5 -5 -11 -8 -16c-2 -2 -3 -5 -4 -7c-1 -1 -1 -2 -2 -2
c0 -1 -1 -2 -2 -3c-2 -3 -4 -7 -5 -11c-4 -1 -8 -2 -11 -4c-31 -13 -60 -37 -89 -59c-7 -5 -13 -20 -17 -32c-14 -44 -29 -88 -41 -134c-7 -28 -14 -57 -16 -87c-5 -104 1 -207 34 -300c18 -52 48 -96 87 -124c21 -17 41 -18 59 -7c2 -3 5 -6 8 -8c1 0 1 -1 2 -2v0
c1 0 1 -1 1 -1c1 -1 1 -2 2 -2v-1c0 -1 1 -3 1 -4s0 -3 1 -4z" />
    <glyph glyph-name="parenright" unicode=")" horiz-adv-x="348" 
d="M17 -28v4c1 1 1 3 1 4l1 1c0 0 0 1 1 2c0 0 0 1 1 1v0c1 1 2 2 3 2c3 2 5 5 7 8c18 -11 38 -10 60 7c38 28 68 72 86 124c33 93 39 196 34 300c-2 30 -9 59 -16 87c-12 46 -26 90 -41 134c-4 12 -9 27 -17 32c-29 22 -58 46 -89 59c-3 2 -7 3 -11 4c-1 4 -3 8 -5 11
c-1 1 -1 2 -2 3c0 0 -1 1 -1 2c-2 2 -3 5 -5 7c-3 5 -6 11 -8 16c-3 7 -6 13 -9 20v1c0 1 -1 1 -1 2l-3 9c0 3 -1 7 -2 10c0 2 -1 5 -1 6v4v2c0 0 0 1 1 2c0 2 1 4 2 5v1v0c1 1 2 2 4 3c0 1 1 1 2 2s2 1 3 2c1 0 2 1 3 1c2 1 4 1 6 2s4 1 6 1c1 0 1 1 2 1h13
c18 1 35 -2 52 -2h1c8 -4 15 -8 23 -11c49 -20 81 -75 117 -121c18 -23 43 -43 51 -72c18 -56 47 -107 48 -173c0 -28 -4 -57 -1 -84c7 -61 14 -119 0 -183c-8 -36 -13 -74 -31 -102c-29 -47 -58 -96 -92 -136c-56 -65 -118 -104 -189 -37h-1l-3 18v0c0 3 -1 5 -1 8v12z" />
    <glyph glyph-name="slash" unicode="/" horiz-adv-x="380" 
d="M425 798c10 -20 15 -34 15 -46c0 -17 -9 -32 -27 -56c-89 -120 -143 -253 -221 -373c-40 -62 -58 -131 -81 -198c-21 -62 -39 -182 -87 -182c-23 0 -24 41 -24 78c0 66 12 131 34 194c70 202 173 387 301 558c18 24 34 51 70 59c8 -14 15 -24 20 -34z" />
    <glyph glyph-name="semicolon" unicode=";" horiz-adv-x="147" 
d="M79 282c44 -9 67 -54 65 -103c-2 -34 -20 -63 -39 -90c-12 -17 -27 -33 -42 -49c-6 -6 -16 -8 -30 -15c4 29 6 49 9 69c4 31 -1 58 -24 85c-29 34 -20 75 6 112c19 -3 37 -5 55 -9zM36 349c-26 5 -39 39 -31 72c4 18 9 36 14 57c58 21 102 -29 113 -76
c5 -26 -5 -37 -29 -50c-23 -12 -46 -7 -67 -3z" />
    <glyph glyph-name="colon" unicode=":" horiz-adv-x="131" 
d="M33 349c-25 5 -38 39 -31 72c4 18 9 36 14 57c58 21 102 -29 113 -76c5 -26 -5 -37 -29 -50c-23 -12 -46 -7 -67 -3zM16 286c58 21 102 -29 113 -76c5 -26 -5 -37 -29 -50c-23 -12 -46 -7 -67 -3c-25 5 -38 39 -31 72c4 18 9 36 14 57z" />
    <glyph glyph-name="Agrave" unicode="&#xc0;" 
d="M374 303c6 38 -4 71 -26 100c-3 4 -4 11 -5 17c-4 23 -2 48 -11 68c-24 57 -17 119 -28 177c-2 12 5 25 4 38c-1 11 -5 29 -12 33c-34 18 -67 43 -107 40c-15 -1 -35 -2 -42 -26c-15 -51 -12 -109 -42 -154c11 -40 -10 -74 -17 -110c-27 -131 -55 -262 -81 -392
c-12 -57 -11 -57 20 -80c62 23 58 93 88 151c-3 -28 -6 -46 -9 -73c32 33 25 74 40 109c54 11 108 22 164 33c22 -87 43 -173 65 -258c9 -34 24 -46 58 -47c-2 15 -4 31 -6 46c10 6 18 11 25 15c-9 32 -17 61 -24 90c-4 18 -7 37 -8 56c-2 21 -3 41 -2 61c0 15 -8 24 -13 35
c-7 14 -3 35 -4 52c-1 5 -3 9 -4 13c-7 2 -14 4 -23 6zM175 315c13 58 27 116 41 173c3 14 9 26 17 48c32 -77 46 -150 59 -227c-39 2 -76 4 -117 6zM415 45c3 -8 5 -16 7 -24c-2 -1 -3 -2 -5 -2c-3 8 -5 17 -8 25c2 1 4 1 6 1zM116 988c18 -8 37 -12 51 -23
c40 -32 75 -69 100 -114c9 -17 19 -36 13 -57c-16 -7 -30 -7 -43 7c-5 5 -13 10 -20 11c-34 3 -57 24 -80 45c-38 36 -61 69 -21 131z" />
    <glyph glyph-name="Aacute" unicode="&#xc1;" 
d="M374 303c9 -2 16 -4 23 -6c1 -4 3 -8 4 -13c1 -17 -3 -38 4 -52c5 -11 13 -20 13 -35c-1 -20 0 -40 2 -61c1 -19 4 -38 8 -56c7 -29 15 -58 24 -90c-7 -4 -15 -9 -25 -15c2 -15 4 -31 6 -46c-34 1 -49 13 -58 47c-22 85 -43 171 -65 258c-56 -11 -110 -22 -164 -33
c-15 -35 -8 -76 -40 -109c3 27 6 45 9 73c-30 -58 -26 -128 -88 -151c-31 23 -32 23 -20 80c26 130 54 261 81 392c7 36 28 70 17 110c30 45 27 103 42 154c7 24 27 25 42 26c40 3 73 -22 107 -40c7 -4 11 -22 12 -33c1 -13 -6 -26 -4 -38c11 -58 4 -120 28 -177
c9 -20 7 -45 11 -68c1 -6 2 -13 5 -17c22 -29 32 -62 26 -100zM175 315c41 -2 78 -4 117 -6c-13 77 -27 150 -59 227c-8 -22 -14 -34 -17 -48c-14 -57 -28 -115 -41 -173zM415 45c-2 0 -4 0 -6 -1c3 -8 5 -17 8 -25c2 0 3 1 5 2c-2 8 -4 16 -7 24zM325 988
c40 -62 17 -95 -21 -131c-23 -21 -47 -42 -80 -45c-7 -1 -15 -6 -20 -11c-13 -14 -27 -14 -44 -7c-5 21 5 40 14 57c25 45 59 82 100 114c14 11 33 15 51 23z" />
    <glyph glyph-name="Acircumflex" unicode="&#xc2;" 
d="M375 303c9 -2 16 -4 23 -6c1 -4 3 -8 4 -13c1 -17 -3 -38 4 -52c5 -11 13 -20 13 -35c-1 -20 0 -40 2 -61c1 -19 4 -38 8 -56c7 -29 15 -58 24 -90c-7 -4 -15 -9 -25 -15c2 -15 4 -31 6 -46c-34 1 -49 13 -58 47c-22 85 -43 171 -65 258c-56 -11 -110 -22 -164 -33
c-15 -35 -8 -76 -40 -109c3 27 6 45 9 73c-30 -58 -26 -128 -88 -151c-31 23 -32 23 -20 80c26 130 54 261 81 392c7 36 28 70 17 110c30 45 27 103 42 154c7 24 27 25 42 26c40 3 73 -22 107 -40c7 -4 11 -22 12 -33c1 -13 -6 -26 -4 -38c11 -58 4 -120 28 -177
c9 -20 7 -45 11 -68c1 -6 2 -13 5 -17c22 -29 32 -62 26 -100zM176 315c41 -2 78 -4 117 -6c-13 77 -27 150 -59 227c-8 -22 -14 -34 -17 -48c-14 -57 -28 -115 -41 -173zM416 45c-2 0 -4 0 -6 -1c3 -8 5 -17 8 -25c2 0 3 1 5 2c-2 8 -4 16 -7 24zM297 841
c-19 -15 -28 1 -39 11c-11 9 -22 18 -33 28c-9 -15 -16 -31 -27 -44c-18 -21 -34 -21 -55 -1c-3 3 -9 2 -14 3c-13 3 -20 14 -14 26c5 10 11 21 18 30c19 25 41 49 60 75c4 5 7 8 11 6c12 -5 26 -9 32 -18c21 -35 40 -71 59 -106c2 -3 1 -7 2 -10z" />
    <glyph glyph-name="Atilde" unicode="&#xc3;" 
d="M375 303c9 -2 16 -4 23 -6c1 -4 3 -8 4 -13c1 -17 -3 -38 4 -52c5 -11 13 -20 13 -35c-1 -20 0 -40 2 -61c1 -19 4 -38 8 -56c7 -29 15 -58 24 -90c-7 -4 -15 -9 -25 -15c2 -15 4 -31 6 -46c-34 1 -49 13 -58 47c-22 85 -43 171 -65 258c-56 -11 -110 -22 -164 -33
c-15 -35 -8 -76 -40 -109c3 27 6 45 9 73c-30 -58 -26 -128 -88 -151c-31 23 -32 23 -20 80c26 130 54 261 81 392c7 36 28 70 17 110c30 45 27 103 42 154c7 24 27 25 42 26c40 3 73 -22 107 -40c7 -4 11 -22 12 -33c1 -13 -6 -26 -4 -38c11 -58 4 -120 28 -177
c9 -20 7 -45 11 -68c1 -6 2 -13 5 -17c22 -29 32 -62 26 -100zM176 315c41 -2 78 -4 117 -6c-13 77 -27 150 -59 227c-8 -22 -14 -34 -17 -48c-14 -57 -28 -115 -41 -173zM416 45c-2 0 -4 0 -6 -1c3 -8 5 -17 8 -25c2 0 3 1 5 2c-2 8 -4 16 -7 24zM300 896c1 5 -3 10 -8 17
c-1 2 -22 37 -9 35c25 -5 54 -29 55 -56c1 -30 -34 -53 -61 -60c-23 -6 -50 -4 -72 7c-20 10 -40 22 -62 35c-31 20 -53 -35 -52 -38c-7 17 -8 43 3 61c17 31 64 20 89 6c14 -7 29 -14 44 -19c20 -7 43 -9 62 1c7 3 10 7 11 11z" />
    <glyph glyph-name="Adieresis" unicode="&#xc4;" 
d="M375 303c6 38 -4 71 -26 100c-3 4 -4 11 -5 17c-4 23 -2 48 -11 68c-24 57 -17 119 -28 177c-2 12 5 25 4 38c-1 11 -5 29 -12 33c-34 18 -67 43 -107 40c-15 -1 -35 -2 -42 -26c-15 -51 -12 -109 -42 -154c11 -40 -10 -74 -17 -110c-27 -131 -55 -262 -81 -392
c-12 -57 -11 -57 20 -80c62 23 58 93 88 151c-3 -28 -6 -46 -9 -73c32 33 25 74 40 109c54 11 108 22 164 33c22 -87 43 -173 65 -258c9 -34 24 -46 58 -47c-2 15 -4 31 -6 46c10 6 18 11 25 15c-9 32 -17 61 -24 90c-4 18 -7 37 -8 56c-2 21 -3 41 -2 61c0 15 -8 24 -13 35
c-7 14 -3 35 -4 52c-1 5 -3 9 -4 13c-7 2 -14 4 -23 6zM176 315c13 58 27 116 41 173c3 14 9 26 17 48c32 -77 46 -150 59 -227c-39 2 -76 4 -117 6zM416 45c3 -8 5 -16 7 -24c-2 -1 -3 -2 -5 -2c-3 8 -5 17 -8 25c2 1 4 1 6 1zM275 942c7 -12 13 -25 20 -37
c-3 -9 -6 -18 -9 -26c-9 -27 -32 -31 -51 -12c-20 20 -21 42 -13 66c3 8 9 14 14 23c14 -5 27 -10 39 -14zM144 956c14 -5 27 -10 40 -14c6 -12 12 -25 19 -37c-3 -9 -6 -18 -9 -26c-9 -27 -32 -31 -51 -12c-20 20 -21 42 -12 66c2 8 8 14 13 23z" />
    <glyph glyph-name="Aring" unicode="&#xc5;" 
d="M375 304c6 38 -4 71 -26 100c-3 4 -4 11 -5 17c-4 23 -2 48 -11 68c-24 57 -17 119 -28 177c-2 12 5 25 4 38c-1 11 -5 29 -12 33c-34 18 -67 43 -107 40c-15 -1 -35 -2 -42 -26c-15 -51 -12 -109 -42 -154c11 -40 -10 -74 -17 -110c-27 -131 -55 -262 -81 -392
c-12 -57 -11 -57 20 -80c62 23 58 93 88 151c-3 -28 -6 -46 -9 -73c32 33 25 74 40 109c54 11 108 22 164 33c22 -87 43 -173 65 -258c9 -34 24 -46 58 -47c-2 15 -4 31 -6 46c10 6 18 11 25 15c-9 32 -17 61 -24 90c-4 18 -7 37 -8 56c-2 21 -3 41 -2 61c0 15 -8 24 -13 35
c-7 14 -3 35 -4 52c-1 5 -3 9 -4 13c-7 2 -14 4 -23 6zM176 316c13 58 27 116 41 173c3 14 9 26 17 48c32 -77 46 -150 59 -227c-39 2 -76 4 -117 6zM416 46c3 -8 5 -16 7 -24c-2 -1 -3 -2 -5 -2c-3 8 -5 17 -8 25c2 1 4 1 6 1zM208 1019c99 -12 122 -61 123 -132
c-11 -16 -19 -27 -27 -39c-25 -42 -53 -56 -93 -47c-31 7 -72 58 -65 89c6 31 20 61 33 90c6 15 19 26 29 39zM248 877c18 21 16 43 1 70c-34 -18 -44 -45 -45 -77c18 -13 32 -7 44 7z" />
    <glyph glyph-name="Ccedilla" unicode="&#xc7;" horiz-adv-x="452" 
d="M444 302c12 -26 7 -45 -2 -63c-17 -34 -36 -65 -36 -109c0 -17 -16 -38 -29 -51c-40 -42 -87 -72 -137 -88c3 -14 3 -27 6 -39c16 -16 32 -29 46 -44c21 -25 13 -55 11 -83c0 -4 -3 -8 -6 -10c-21 -15 -39 -37 -68 -40c-34 -3 -70 -4 -89 29c-12 20 -35 42 -16 76
c11 -9 20 -16 28 -24c17 -18 36 -28 61 -26c15 1 26 9 33 22c9 18 -2 34 -22 33c-10 0 -20 -2 -33 -3c-20 31 -14 65 -9 98c-17 3 -35 14 -46 27c-41 48 -82 98 -100 168c-17 66 -31 132 -31 202c1 36 -7 73 -3 109c3 35 14 71 26 104c20 56 53 99 98 128c16 11 33 23 44 40
c13 22 25 34 49 24c10 -4 21 -1 34 -1c-1 9 -3 16 -5 26c40 3 77 0 108 -36v0c16 -9 32 -19 48 -29c4 -2 9 -6 10 -10c15 -43 31 -88 23 -137c-5 -25 -25 -45 -48 -44c-20 0 -44 -5 -48 36c-1 11 -17 24 -28 29c-57 29 -101 11 -142 -37c-33 -40 -54 -93 -63 -153
c-9 -55 -5 -108 -2 -162c1 -16 15 -37 -9 -46c5 -12 7 -28 15 -35c11 -10 21 -18 28 -36c8 -21 15 -48 39 -51c31 -3 61 -5 88 18c56 48 97 114 138 180c9 15 19 30 35 42c-9 -27 -18 -54 -27 -82c2 -1 5 -3 7 -4c8 16 15 32 24 52zM376 742c-8 12 -14 20 -20 29
c1 -20 2 -22 20 -29zM55 270c-11 -37 -13 -68 14 -106c-6 42 -10 72 -14 106z" />
    <glyph glyph-name="Egrave" unicode="&#xc8;" horiz-adv-x="444" 
d="M115 992c18 -8 37 -12 51 -23c41 -31 75 -69 100 -114c9 -17 19 -35 13 -57c-16 -7 -30 -7 -43 7c-5 5 -13 10 -20 11c-34 3 -57 24 -80 45c-38 36 -61 69 -21 131zM328 171c33 19 69 22 108 20v-29c-47 -23 -94 -46 -145 -72c7 -7 11 -10 19 -17
c-53 -15 -90 -60 -146 -66c-12 -2 -16 -9 -16 -24c-1 -30 -26 -44 -55 -38c-36 8 -66 27 -87 48c2 24 3 44 7 64c7 38 0 77 12 116c13 38 11 84 3 124c-5 23 -1 46 -6 69c-8 44 0 91 -1 136c0 19 2 37 -11 57c-13 18 -10 51 -5 75c6 31 -17 64 7 93c-18 35 22 62 5 98
c40 0 73 -10 89 -36c17 -26 35 -27 58 -25c56 3 113 8 170 12c39 2 80 5 109 -28c1 -32 -27 -26 -44 -37c5 -5 9 -10 15 -17c-24 -19 -55 -21 -83 -29c-20 -6 -40 -16 -61 -18c-36 -2 -73 0 -112 0c-16 -57 1 -115 -5 -173c21 -16 42 -10 63 -5c14 4 27 10 40 15
c37 12 59 4 85 -31c-7 -43 -60 -21 -76 -56c13 -3 27 -6 41 -9c-19 -37 -50 -50 -89 -49c-34 2 -62 -15 -87 -33c2 -20 3 -37 6 -61c-10 6 -15 9 -20 11c-4 20 -8 39 -12 59c-2 -1 -4 -1 -6 -1c-3 -30 -7 -60 -10 -90h-12c-23 56 -1 121 -29 177c-16 -102 5 -204 -6 -310
c46 10 12 57 44 71v-54c8 7 13 12 20 19c31 -25 -12 -46 -2 -70c25 0 44 18 60 32c40 33 86 52 133 70c11 4 23 6 32 12zM116 254c0 1 0 2 -1 3c1 0 1 0 1 -1v0h1c-1 -1 -1 -1 -1 -2zM110 131c-6 17 -1 90 6 123c9 -40 13 -80 -6 -123z" />
    <glyph glyph-name="Eacute" unicode="&#xc9;" horiz-adv-x="444" 
d="M321 992c40 -62 17 -95 -22 -131c-22 -21 -46 -42 -79 -45c-7 -1 -15 -6 -21 -11c-13 -14 -26 -14 -43 -7c-6 22 5 40 14 57c24 45 59 83 100 114c14 11 33 15 51 23zM328 171c33 19 69 22 108 20v-29c-47 -23 -94 -46 -145 -72c7 -7 11 -10 19 -17
c-53 -15 -90 -60 -146 -66c-12 -2 -16 -9 -16 -24c-1 -30 -26 -44 -55 -38c-36 8 -66 27 -87 48c2 24 3 44 7 64c7 38 0 77 12 116c13 38 11 84 3 124c-5 23 -1 46 -6 69c-8 44 0 91 -1 136c0 19 2 37 -11 57c-13 18 -10 51 -5 75c6 31 -17 64 7 93c-18 35 22 62 5 98
c40 0 73 -10 89 -36c17 -26 35 -27 58 -25c56 3 113 8 170 12c39 2 80 5 109 -28c1 -32 -27 -26 -44 -37c5 -5 9 -10 15 -17c-24 -19 -55 -21 -83 -29c-20 -6 -40 -16 -61 -18c-36 -2 -73 0 -112 0c-16 -57 1 -115 -5 -173c21 -16 42 -10 63 -5c14 4 27 10 40 15
c37 12 59 4 85 -31c-7 -43 -60 -21 -76 -56c13 -3 27 -6 41 -9c-19 -37 -50 -50 -89 -49c-34 2 -62 -15 -87 -33c2 -20 3 -37 6 -61c-10 6 -15 9 -20 11c-4 20 -8 39 -12 59c-2 -1 -4 -1 -6 -1c-3 -30 -7 -60 -10 -90h-12c-23 56 -1 121 -29 177c-16 -102 5 -204 -6 -310
c46 10 12 57 44 71v-54c8 7 13 12 20 19c31 -25 -12 -46 -2 -70c25 0 44 18 60 32c40 33 86 52 133 70c11 4 23 6 32 12zM116 254c0 1 0 2 -1 3c1 0 1 0 1 -1v0h1c-1 -1 -1 -1 -1 -2zM110 131c-6 17 -1 90 6 123c9 -40 13 -80 -6 -123z" />
    <glyph glyph-name="Ecircumflex" unicode="&#xca;" horiz-adv-x="444" 
d="M320 852c-19 -15 -28 1 -39 11c-11 9 -22 18 -33 28c-9 -15 -16 -31 -27 -44c-18 -21 -34 -21 -55 -1c-3 3 -9 2 -14 3c-13 3 -20 14 -14 26c5 10 11 21 18 30c19 25 41 49 60 75c4 5 7 8 11 6c12 -5 26 -9 32 -18c21 -35 40 -71 59 -106c2 -3 1 -7 2 -10zM328 171
c33 19 69 22 108 20v-29c-47 -23 -94 -46 -145 -72c7 -7 11 -10 19 -17c-53 -15 -90 -60 -146 -66c-12 -2 -16 -9 -16 -24c-1 -30 -26 -44 -55 -38c-36 8 -66 27 -87 48c2 24 3 44 7 64c7 38 0 77 12 116c13 38 11 84 3 124c-5 23 -1 46 -6 69c-8 44 0 91 -1 136
c0 19 2 37 -11 57c-13 18 -10 51 -5 75c6 31 -17 64 7 93c-18 35 22 62 5 98c40 0 73 -10 89 -36c17 -26 35 -27 58 -25c56 3 113 8 170 12c39 2 80 5 109 -28c1 -32 -27 -26 -44 -37c5 -5 9 -10 15 -17c-24 -19 -55 -21 -83 -29c-20 -6 -40 -16 -61 -18
c-36 -2 -73 0 -112 0c-16 -57 1 -115 -5 -173c21 -16 42 -10 63 -5c14 4 27 10 40 15c37 12 59 4 85 -31c-7 -43 -60 -21 -76 -56c13 -3 27 -6 41 -9c-19 -37 -50 -50 -89 -49c-34 2 -62 -15 -87 -33c2 -20 3 -37 6 -61c-10 6 -15 9 -20 11c-4 20 -8 39 -12 59
c-2 -1 -4 -1 -6 -1c-3 -30 -7 -60 -10 -90h-12c-23 56 -1 121 -29 177c-16 -102 5 -204 -6 -310c46 10 12 57 44 71v-54c8 7 13 12 20 19c31 -25 -12 -46 -2 -70c25 0 44 18 60 32c40 33 86 52 133 70c11 4 23 6 32 12zM116 254c0 1 0 2 -1 3c1 0 1 0 1 -1v0h1
c-1 -1 -1 -1 -1 -2zM110 131c-6 17 -1 90 6 123c9 -40 13 -80 -6 -123z" />
    <glyph glyph-name="Edieresis" unicode="&#xcb;" horiz-adv-x="444" 
d="M280 920c6 -12 13 -25 19 -37c-3 -9 -6 -18 -9 -26c-8 -27 -31 -31 -51 -12c-20 20 -20 42 -12 66c2 8 8 14 13 23c15 -5 27 -10 40 -14zM148 934c15 -5 27 -10 40 -14c6 -12 13 -25 19 -37c-3 -9 -6 -18 -9 -26c-8 -27 -31 -31 -51 -12c-20 20 -20 42 -12 66
c2 8 8 14 13 23zM328 172c33 19 69 22 108 20v-29c-47 -23 -94 -46 -145 -72c7 -7 11 -10 19 -17c-53 -15 -90 -60 -146 -66c-12 -2 -16 -9 -16 -24c-1 -30 -26 -44 -55 -38c-36 8 -66 27 -87 48c2 24 3 44 7 64c7 38 0 77 12 116c13 38 11 84 3 124c-5 23 -1 46 -6 69
c-8 44 0 91 -1 136c0 19 2 37 -11 57c-13 18 -10 51 -5 75c6 31 -17 64 7 93c-18 35 22 62 5 98c40 0 73 -10 89 -36c17 -26 35 -27 58 -25c56 3 113 8 170 12c39 2 80 5 109 -28c1 -32 -27 -26 -44 -37c5 -5 9 -10 15 -17c-24 -19 -55 -21 -83 -29c-20 -6 -40 -16 -61 -18
c-36 -2 -73 0 -112 0c-16 -57 1 -115 -5 -173c21 -16 42 -10 63 -5c14 4 27 10 40 15c37 12 59 4 85 -31c-7 -43 -60 -21 -76 -56c13 -3 27 -6 41 -9c-19 -37 -50 -50 -89 -49c-34 2 -62 -15 -87 -33c2 -20 3 -37 6 -61c-10 6 -15 9 -20 11c-4 20 -8 39 -12 59
c-2 -1 -4 -1 -6 -1c-3 -30 -7 -60 -10 -90h-12c-23 56 -1 121 -29 177c-16 -102 5 -204 -6 -310c46 10 12 57 44 71v-54c8 7 13 12 20 19c31 -25 -12 -46 -2 -70c25 0 44 18 60 32c40 33 86 52 133 70c11 4 23 6 32 12zM116 255c0 1 0 2 -1 3c1 0 1 0 1 -1v0h1
c-1 -1 -1 -1 -1 -2zM110 132c-6 17 -1 90 6 123c9 -40 13 -80 -6 -123z" />
    <glyph glyph-name="Igrave" unicode="&#xcc;" horiz-adv-x="210" 
d="M148 81c-6 22 -14 41 0 64c5 9 1 26 1 39c1 17 1 34 5 50c5 29 14 57 20 86c2 8 0 24 -1 24c-20 0 -12 14 -9 25c9 42 22 83 25 126c6 61 10 124 -5 185c-7 28 -14 51 7 78c15 19 9 67 -24 68c-42 0 -83 0 -124 -5c-33 -4 -43 -24 -42 -71c11 -3 22 -5 33 -8
c35 -10 43 -22 46 -65c1 -13 1 -27 4 -40c13 -56 9 -113 3 -169c-5 -35 -12 -70 -12 -105c0 -90 4 -180 3 -270c0 -17 -11 -49 -19 -50c-41 -6 -45 -38 -47 -78c20 -2 40 -5 60 -4c12 0 25 5 35 12c36 26 72 54 103 77c-2 16 -4 29 -6 44c-32 19 -32 19 -56 -13zM108 181v67
h6v-67h-6zM21 1054c18 -8 37 -12 51 -23c40 -32 75 -69 99 -114c10 -17 20 -36 14 -57c-16 -7 -30 -7 -43 7c-5 5 -13 10 -20 11c-34 3 -58 24 -80 45c-38 36 -61 69 -21 131z" />
    <glyph glyph-name="Iacute" unicode="&#xcd;" horiz-adv-x="210" 
d="M147 81c25 32 25 32 56 13c3 -15 4 -28 7 -44c-32 -23 -67 -51 -103 -77c-10 -7 -23 -12 -35 -12c-20 -1 -40 2 -60 4c2 40 6 72 47 78c8 1 19 33 19 50c0 90 -4 180 -3 270c0 35 7 70 11 105c7 56 11 113 -2 169c-3 13 -3 27 -4 40c-3 43 -11 55 -46 65
c-11 3 -22 5 -33 8c-1 47 9 67 41 71c41 5 83 5 124 5c34 -1 40 -49 25 -68c-21 -27 -14 -50 -7 -78c15 -61 11 -124 5 -185c-4 -43 -17 -84 -26 -126c-2 -11 -10 -25 10 -25c0 0 2 -16 1 -24c-7 -29 -15 -57 -21 -86c-3 -16 -3 -33 -4 -50c-1 -13 4 -30 -2 -39
c-14 -23 -6 -42 0 -64zM107 181h7v67h-7v-67zM206 1054c40 -62 17 -95 -22 -131c-22 -21 -46 -42 -79 -45c-7 -1 -15 -6 -20 -11c-13 -14 -27 -14 -44 -7c-6 21 5 40 14 57c25 45 59 82 100 114c14 11 33 15 51 23z" />
    <glyph glyph-name="Icircumflex" unicode="&#xce;" horiz-adv-x="210" 
d="M147 82c25 32 25 32 56 13c3 -15 4 -28 7 -44c-32 -23 -67 -51 -103 -77c-10 -7 -23 -12 -35 -12c-20 -1 -40 2 -60 4c2 40 6 72 47 78c8 1 19 33 19 50c0 90 -4 180 -3 270c0 35 7 70 11 105c7 56 11 113 -2 169c-3 13 -3 27 -4 40c-3 43 -11 55 -46 65
c-11 3 -22 5 -33 8c-1 47 9 67 41 71c41 5 83 5 124 5c34 -1 40 -49 25 -68c-21 -27 -14 -50 -7 -78c15 -61 11 -124 5 -185c-4 -43 -17 -84 -26 -126c-2 -11 -10 -25 10 -25c0 0 2 -16 1 -24c-7 -29 -15 -57 -21 -86c-3 -16 -3 -33 -4 -50c-1 -13 4 -30 -2 -39
c-14 -23 -6 -42 0 -64zM107 182h7v67h-7v-67zM193 878c-20 -15 -28 1 -39 11c-11 9 -22 18 -33 28c-10 -15 -17 -31 -27 -44c-18 -21 -35 -21 -56 -1c-3 3 -9 2 -13 3c-14 3 -20 14 -15 26c5 10 11 21 18 30c20 25 41 49 60 75c4 5 8 8 12 6c11 -5 25 -9 31 -18
c22 -35 40 -71 60 -106c1 -3 1 -7 2 -10z" />
    <glyph glyph-name="Idieresis" unicode="&#xcf;" horiz-adv-x="210" 
d="M147 82c-6 22 -14 41 0 64c6 9 1 26 2 39c1 17 1 34 4 50c6 29 14 57 21 86c1 8 -1 24 -1 24c-20 0 -12 14 -10 25c9 42 22 83 26 126c6 61 10 124 -5 185c-7 28 -14 51 7 78c15 19 9 67 -25 68c-41 0 -83 0 -124 -5c-32 -4 -42 -24 -41 -71c11 -3 22 -5 33 -8
c35 -10 43 -22 46 -65c1 -13 1 -27 4 -40c13 -56 9 -113 2 -169c-4 -35 -11 -70 -11 -105c-1 -90 3 -180 3 -270c0 -17 -11 -49 -19 -50c-41 -6 -45 -38 -47 -78c20 -2 40 -5 60 -4c12 0 25 5 35 12c36 26 71 54 103 77c-3 16 -4 29 -7 44c-31 19 -31 19 -56 -13zM107 182
v67h7v-67h-7zM175 971c6 -13 13 -25 20 -38c-3 -8 -6 -17 -9 -26c-9 -26 -32 -31 -52 -11c-19 19 -20 42 -12 66c3 7 8 14 14 23c14 -5 26 -10 39 -14zM44 985c14 -5 26 -10 39 -14c6 -13 13 -25 20 -38c-3 -8 -6 -17 -9 -26c-9 -26 -32 -31 -52 -11c-19 19 -20 42 -12 66
c3 7 8 14 14 23z" />
    <glyph glyph-name="Ntilde" unicode="&#xd1;" horiz-adv-x="494" 
d="M488 423c7 -24 12 -58 -14 -80c-11 -67 -22 -135 -33 -203c-1 -7 -2 -16 1 -22c27 -51 11 -103 3 -154c-49 -24 -53 -23 -86 30c-3 4 -7 9 -11 10c-50 14 -62 69 -72 111c-8 35 -17 72 -24 108c-14 73 -47 133 -80 199c-74 -139 -58 -290 -62 -443c-37 20 -41 60 -65 86
c6 -22 13 -44 20 -68c-32 29 -73 115 -63 151c6 19 16 36 13 58c6 -11 12 -22 18 -34v89c-8 -27 -12 -42 -16 -56c-3 51 -7 103 -8 154c0 45 4 89 3 133c0 20 -12 39 -12 58c0 76 4 153 6 234c39 -7 74 -15 109 -19c22 -2 30 -16 35 -38c3 -12 3 -28 10 -35
c57 -54 67 -140 107 -206c8 -14 15 -29 22 -44c3 -7 9 -18 7 -24c-15 -48 10 -81 27 -119c16 -34 24 -72 35 -109c1 -3 6 -4 10 -6c5 42 12 84 16 126c3 39 5 77 -12 114c-7 18 -5 44 -2 65c5 41 -3 78 -9 116c-6 40 -3 82 -4 127c-13 -3 -21 -4 -32 -6c3 36 -13 73 15 105
c10 -2 19 -4 28 -7c24 -8 49 -13 54 -49c2 -12 11 -22 19 -32c19 -25 23 -56 24 -88c0 -17 -6 -36 0 -50c23 -58 7 -122 23 -182zM370 140c1 1 2 1 3 1c-1 12 -3 24 -4 35c0 -12 1 -24 1 -36zM411 231v54c-1 -1 -2 -1 -3 -2v-52h3zM294 896c1 5 -2 10 -7 17
c-1 2 -22 37 -10 35c26 -5 54 -29 56 -56c1 -30 -34 -53 -61 -60c-24 -6 -50 -4 -72 7c-21 10 -41 22 -62 35c-31 20 -54 -35 -52 -38c-7 17 -9 43 2 61c18 31 64 20 89 6c14 -7 29 -14 45 -19c20 -7 43 -9 62 1c7 3 10 7 10 11z" />
    <glyph glyph-name="Ograve" unicode="&#xd2;" horiz-adv-x="429" 
d="M429 506c0 77 -20 139 -61 188c-37 44 -82 72 -130 80c-30 5 -57 18 -82 40c-21 18 -28 17 -38 -11c-64 -170 -132 -339 -113 -543c-13 -54 3 -102 15 -152c13 -52 39 -85 74 -112c52 -40 107 -32 162 -38c6 -1 15 7 20 14c25 32 51 65 75 99c59 84 87 181 68 299
c-4 20 -2 42 0 63c2 25 7 49 10 73zM244 664c47 -81 76 -172 77 -276c0 -39 4 -76 13 -112c3 -12 2 -29 -3 -40c-13 -35 -28 -68 -43 -102c-13 -29 -31 -48 -53 -61c-39 -23 -89 6 -93 64c-7 90 -16 183 23 267c9 17 10 41 16 61c14 44 30 87 45 131c6 21 11 43 18 68z
M102 1005c18 -8 37 -12 52 -23c40 -32 75 -69 99 -114c9 -17 20 -36 14 -57c-16 -7 -30 -7 -43 7c-6 5 -14 10 -21 11c-33 3 -57 24 -79 45c-39 36 -62 69 -22 131z" />
    <glyph glyph-name="Oacute" unicode="&#xd3;" horiz-adv-x="429" 
d="M429 506c-3 -24 -8 -48 -10 -73c-2 -21 -4 -43 0 -63c19 -118 -9 -215 -68 -299c-24 -34 -50 -67 -75 -99c-5 -7 -14 -15 -20 -14c-55 6 -110 -2 -162 38c-35 27 -61 60 -74 112c-12 50 -28 98 -15 152c-19 204 49 373 113 543c10 28 17 29 38 11c25 -22 52 -35 82 -40
c48 -8 93 -36 130 -80c41 -49 61 -111 61 -188zM244 664c-7 -25 -12 -47 -18 -68c-15 -44 -31 -87 -45 -131c-6 -20 -7 -44 -16 -61c-39 -84 -30 -177 -23 -267c4 -58 54 -87 93 -64c22 13 40 32 53 61c15 34 30 67 43 102c5 11 6 28 3 40c-9 36 -13 73 -13 112
c-1 104 -30 195 -77 276zM339 1005c40 -62 17 -95 -21 -131c-23 -21 -47 -42 -80 -45c-7 -1 -15 -6 -20 -11c-13 -14 -27 -14 -44 -7c-5 21 5 40 14 57c25 45 59 82 100 114c14 11 33 15 51 23z" />
    <glyph glyph-name="Ocircumflex" unicode="&#xd4;" horiz-adv-x="429" 
d="M429 506c-3 -24 -8 -48 -10 -73c-2 -21 -4 -43 0 -63c19 -118 -9 -215 -68 -299c-24 -34 -50 -67 -75 -99c-5 -7 -14 -15 -20 -14c-55 6 -110 -2 -162 38c-35 27 -61 60 -74 112c-12 50 -28 98 -15 152c-19 204 49 373 113 543c10 28 17 29 38 11c25 -22 52 -35 82 -40
c48 -8 93 -36 130 -80c41 -49 61 -111 61 -188zM244 664c-7 -25 -12 -47 -18 -68c-15 -44 -31 -87 -45 -131c-6 -20 -7 -44 -16 -61c-39 -84 -30 -177 -23 -267c4 -58 54 -87 93 -64c22 13 40 32 53 61c15 34 30 67 43 102c5 11 6 28 3 40c-9 36 -13 73 -13 112
c-1 104 -30 195 -77 276zM305 862c-19 -15 -28 1 -39 11c-11 9 -22 18 -33 28c-9 -15 -17 -31 -27 -44c-18 -21 -34 -21 -56 -1c-3 3 -8 2 -13 3c-13 3 -20 14 -14 26c5 10 10 21 17 30c20 25 41 49 60 75c4 5 8 8 12 6c11 -5 26 -9 32 -18c21 -35 40 -71 59 -106
c1 -3 1 -7 2 -10z" />
    <glyph glyph-name="Otilde" unicode="&#xd5;" horiz-adv-x="429" 
d="M429 506c-3 -24 -8 -48 -10 -73c-2 -21 -4 -43 0 -63c19 -118 -9 -215 -68 -299c-24 -34 -50 -67 -75 -99c-5 -7 -14 -15 -20 -14c-55 6 -110 -2 -162 38c-35 27 -61 60 -74 112c-12 50 -28 98 -15 152c-19 204 49 373 113 543c10 28 17 29 38 11c25 -22 52 -35 82 -40
c48 -8 93 -36 130 -80c41 -49 61 -111 61 -188zM244 664c-7 -25 -12 -47 -18 -68c-15 -44 -31 -87 -45 -131c-6 -20 -7 -44 -16 -61c-39 -84 -30 -177 -23 -267c4 -58 54 -87 93 -64c22 13 40 32 53 61c15 34 30 67 43 102c5 11 6 28 3 40c-9 36 -13 73 -13 112
c-1 104 -30 195 -77 276zM309 903c1 5 -3 10 -8 17c-1 2 -22 37 -9 35c25 -5 54 -29 55 -56c1 -30 -34 -53 -61 -60c-23 -6 -50 -4 -72 7c-20 10 -40 22 -62 35c-31 20 -53 -35 -52 -38c-7 17 -8 43 2 61c18 31 65 20 90 6c14 -7 29 -14 44 -19c20 -7 43 -9 62 1
c7 3 10 7 11 11z" />
    <glyph glyph-name="Odieresis" unicode="&#xd6;" horiz-adv-x="429" 
d="M429 506c0 77 -20 139 -61 188c-37 44 -82 72 -130 80c-30 5 -57 18 -82 40c-21 18 -28 17 -38 -11c-64 -170 -132 -339 -113 -543c-13 -54 3 -102 15 -152c13 -52 39 -85 74 -112c52 -40 107 -32 162 -38c6 -1 15 7 20 14c25 32 51 65 75 99c59 84 87 181 68 299
c-4 20 -2 42 0 63c2 25 7 49 10 73zM244 664c47 -81 76 -172 77 -276c0 -39 4 -76 13 -112c3 -12 2 -29 -3 -40c-13 -35 -28 -68 -43 -102c-13 -29 -31 -48 -53 -61c-39 -23 -89 6 -93 64c-7 90 -16 183 23 267c9 17 10 41 16 61c14 44 30 87 45 131c6 21 11 43 18 68z
M254 967c7 -13 13 -25 20 -38c-3 -8 -6 -17 -9 -26c-9 -26 -32 -31 -51 -11c-20 19 -21 42 -13 66c3 7 9 14 14 23c14 -5 27 -10 39 -14zM123 981c14 -5 27 -10 39 -14c7 -13 13 -25 20 -38c-3 -8 -6 -17 -9 -26c-9 -26 -32 -31 -51 -11c-20 19 -21 42 -13 66
c3 7 9 14 14 23z" />
    <glyph glyph-name="Ugrave" unicode="&#xd9;" horiz-adv-x="474" 
d="M469 455c3 -39 8 -79 2 -116c-7 -50 -24 -97 -38 -146c-3 -13 -6 -26 -11 -38c-7 -20 -18 -31 -36 -11c-11 -26 -17 -52 -30 -71c-15 -22 -35 -44 -57 -57c-43 -27 -88 -53 -139 -40c-37 10 -68 35 -91 72c-38 62 -48 135 -54 208c-11 142 -17 283 -8 425
c1 22 -11 42 -4 67c11 46 32 60 69 40c47 -26 72 -70 78 -131c6 -70 14 -139 19 -209c2 -28 -1 -58 -4 -86c-7 -59 -5 -116 9 -173c8 -32 7 -67 28 -94c8 -10 15 -20 29 -39c19 25 37 43 49 65c28 54 47 112 52 177c4 45 17 89 22 134c4 40 8 83 3 122c-3 25 -14 50 -16 75
c-4 32 -6 65 -9 97c-1 6 -2 17 -5 18c-19 7 -17 28 -9 36c8 9 24 10 36 9c30 -1 41 -31 50 -57c7 -21 17 -24 33 -24c2 -25 6 -51 5 -76s6 -45 13 -68c9 -34 11 -72 14 -109zM92 1007c18 -8 37 -12 52 -23c40 -32 75 -69 99 -114c9 -17 20 -36 14 -57c-16 -7 -30 -7 -43 7
c-6 5 -14 10 -21 11c-33 3 -57 24 -79 45c-39 36 -62 69 -22 131z" />
    <glyph glyph-name="Uacute" unicode="&#xda;" horiz-adv-x="474" 
d="M469 455c3 -39 8 -79 2 -116c-7 -50 -24 -97 -38 -146c-3 -13 -6 -26 -11 -38c-7 -20 -18 -31 -36 -11c-11 -26 -17 -52 -30 -71c-15 -22 -35 -44 -57 -57c-43 -27 -88 -53 -139 -40c-37 10 -68 35 -91 72c-38 62 -48 135 -54 208c-11 142 -17 283 -8 425
c1 22 -11 42 -4 67c11 46 32 60 69 40c47 -26 72 -70 78 -131c6 -70 14 -139 19 -209c2 -28 -1 -58 -4 -86c-7 -59 -5 -116 9 -173c8 -32 7 -67 28 -94c8 -10 15 -20 29 -39c19 25 37 43 49 65c28 54 47 112 52 177c4 45 17 89 22 134c4 40 8 83 3 122c-3 25 -14 50 -16 75
c-4 32 -6 65 -9 97c-1 6 -2 17 -5 18c-19 7 -17 28 -9 36c8 9 24 10 36 9c30 -1 41 -31 50 -57c7 -21 17 -24 33 -24c2 -25 6 -51 5 -76s6 -45 13 -68c9 -34 11 -72 14 -109zM310 1007c40 -62 17 -95 -21 -131c-23 -21 -47 -42 -80 -45c-7 -1 -15 -6 -20 -11
c-13 -14 -27 -14 -44 -7c-6 21 5 40 14 57c25 45 59 82 100 114c14 11 33 15 51 23z" />
    <glyph glyph-name="Ucircumflex" unicode="&#xdb;" horiz-adv-x="474" 
d="M469 455c3 -39 8 -79 2 -116c-7 -50 -24 -97 -38 -146c-3 -13 -6 -26 -11 -38c-7 -20 -18 -31 -36 -11c-11 -26 -17 -52 -30 -71c-15 -22 -35 -44 -57 -57c-43 -27 -88 -53 -139 -40c-37 10 -68 35 -91 72c-38 62 -48 135 -54 208c-11 142 -17 283 -8 425
c1 22 -11 42 -4 67c11 46 32 60 69 40c47 -26 72 -70 78 -131c6 -70 14 -139 19 -209c2 -28 -1 -58 -4 -86c-7 -59 -5 -116 9 -173c8 -32 7 -67 28 -94c8 -10 15 -20 29 -39c19 25 37 43 49 65c28 54 47 112 52 177c4 45 17 89 22 134c4 40 8 83 3 122c-3 25 -14 50 -16 75
c-4 32 -6 65 -9 97c-1 6 -2 17 -5 18c-19 7 -17 28 -9 36c8 9 24 10 36 9c30 -1 41 -31 50 -57c7 -21 17 -24 33 -24c2 -25 6 -51 5 -76s6 -45 13 -68c9 -34 11 -72 14 -109zM299 845c-19 -15 -28 1 -39 11c-11 9 -22 18 -33 28c-9 -15 -17 -31 -27 -44
c-18 -21 -34 -21 -56 -1c-3 3 -8 2 -13 3c-13 3 -20 14 -14 26c5 10 10 21 18 30c19 25 40 49 59 75c4 5 8 8 12 6c11 -5 26 -9 32 -18c21 -35 40 -71 59 -106c1 -3 1 -7 2 -10z" />
    <glyph glyph-name="Udieresis" unicode="&#xdc;" horiz-adv-x="474" 
d="M469 455c3 -39 8 -79 2 -116c-7 -50 -24 -97 -38 -146c-3 -13 -6 -26 -11 -38c-7 -20 -18 -31 -36 -11c-11 -26 -17 -52 -30 -71c-15 -22 -35 -44 -57 -57c-43 -27 -88 -53 -139 -40c-37 10 -68 35 -91 72c-38 62 -48 135 -54 208c-11 142 -17 283 -8 425
c1 22 -11 42 -4 67c11 46 32 60 69 40c47 -26 72 -70 78 -131c6 -70 14 -139 19 -209c2 -28 -1 -58 -4 -86c-7 -59 -5 -116 9 -173c8 -32 7 -67 28 -94c8 -10 15 -20 29 -39c19 25 37 43 49 65c28 54 47 112 52 177c4 45 17 89 22 134c4 40 8 83 3 122c-3 25 -14 50 -16 75
c-4 32 -6 65 -9 97c-1 6 -2 17 -5 18c-19 7 -17 28 -9 36c8 9 24 10 36 9c30 -1 41 -31 50 -57c7 -21 17 -24 33 -24c2 -25 6 -51 5 -76s6 -45 13 -68c9 -34 11 -72 14 -109zM265 918c6 -12 13 -25 19 -37c-3 -9 -6 -18 -9 -26c-8 -27 -31 -31 -51 -12c-20 20 -20 42 -12 66
c2 8 8 14 13 23c15 -5 27 -10 40 -14zM133 932c15 -5 27 -10 40 -14c6 -12 13 -25 19 -37c-3 -9 -6 -18 -9 -26c-8 -27 -31 -31 -51 -12c-20 20 -20 42 -12 66c2 8 8 14 13 23z" />
    <glyph glyph-name="Yacute" unicode="&#xdd;" horiz-adv-x="366" 
d="M4 852c16 -8 36 -11 44 -23c31 -45 60 -91 85 -140c19 -36 31 -77 48 -121c26 38 50 73 74 110c22 35 43 71 70 115c15 -18 32 -29 34 -43c4 -20 14 -44 -5 -65c-13 -16 -26 -33 -36 -52c-7 -13 -22 -27 -2 -46c6 -7 -2 -33 -9 -47c-14 -27 -31 -51 -48 -79
c-6 7 -10 12 -19 22c-11 -31 -21 -57 -30 -84l6 -3c7 13 15 26 22 40c-28 -151 -19 -302 -20 -449c-24 -31 -54 20 -77 -11c-38 17 -29 56 -30 85c-3 96 1 193 1 289c0 18 -11 35 -14 54c-8 44 -20 89 -32 132c-20 69 -43 137 -63 206c-5 21 -2 44 -2 66c0 13 2 26 3 44z
M294 1014c40 -62 17 -95 -21 -131c-23 -21 -46 -42 -80 -45c-7 -1 -15 -6 -20 -11c-13 -14 -27 -14 -43 -7c-6 21 4 40 13 57c25 45 60 82 100 114c14 11 33 15 51 23z" />
    <glyph glyph-name="Ydieresis" unicode="&#x178;" horiz-adv-x="366" 
d="M4 852c-1 -18 -3 -31 -3 -44c0 -22 -3 -45 2 -66c20 -69 43 -137 63 -206c12 -43 24 -88 32 -132c3 -19 14 -36 14 -54c0 -96 -4 -193 -1 -289c1 -29 -8 -68 30 -85c23 31 53 -20 77 11c1 147 -8 298 20 449c-7 -14 -15 -27 -22 -40l-6 3c9 27 19 53 30 84
c9 -10 13 -15 19 -22c17 28 34 52 48 79c7 14 15 40 9 47c-20 19 -5 33 2 46c10 19 23 36 36 52c19 21 9 45 5 65c-2 14 -19 25 -34 43c-27 -44 -48 -80 -70 -115c-24 -37 -48 -72 -74 -110c-17 44 -29 85 -48 121c-25 49 -54 95 -85 140c-8 12 -28 15 -44 23zM253 929
c7 -12 13 -24 20 -37c-3 -9 -6 -17 -9 -26c-9 -26 -32 -31 -52 -11c-19 19 -20 41 -12 65c3 8 9 14 14 23c14 -5 27 -9 39 -14zM122 943c14 -5 27 -9 39 -14c7 -12 13 -24 20 -37c-3 -9 -6 -17 -9 -26c-9 -26 -32 -31 -51 -11c-20 19 -21 41 -13 65c3 8 9 14 14 23z" />
    <glyph glyph-name="agrave" unicode="&#xe0;" 
d="M374 303c6 38 -4 71 -26 100c-3 4 -4 11 -5 17c-4 23 -2 48 -11 68c-24 57 -17 119 -28 177c-2 12 5 25 4 38c-1 11 -5 29 -12 33c-34 18 -67 43 -107 40c-15 -1 -35 -2 -42 -26c-15 -51 -12 -109 -42 -154c11 -40 -10 -74 -17 -110c-27 -131 -55 -262 -81 -392
c-12 -57 -11 -57 20 -80c62 23 58 93 88 151c-3 -28 -6 -46 -9 -73c32 33 25 74 40 109c54 11 108 22 164 33c22 -87 43 -173 65 -258c9 -34 24 -46 58 -47c-2 15 -4 31 -6 46c10 6 18 11 25 15c-9 32 -17 61 -24 90c-4 18 -7 37 -8 56c-2 21 -3 41 -2 61c0 15 -8 24 -13 35
c-7 14 -3 35 -4 52c-1 5 -3 9 -4 13c-7 2 -14 4 -23 6zM175 315c13 58 27 116 41 173c3 14 9 26 17 48c32 -77 46 -150 59 -227c-39 2 -76 4 -117 6zM415 45c3 -8 5 -16 7 -24c-2 -1 -3 -2 -5 -2c-3 8 -5 17 -8 25c2 1 4 1 6 1zM116 988c18 -8 37 -12 51 -23
c40 -32 75 -69 100 -114c9 -17 19 -36 13 -57c-16 -7 -30 -7 -43 7c-5 5 -13 10 -20 11c-34 3 -57 24 -80 45c-38 36 -61 69 -21 131z" />
    <glyph glyph-name="aacute" unicode="&#xe1;" 
d="M374 303c9 -2 16 -4 23 -6c1 -4 3 -8 4 -13c1 -17 -3 -38 4 -52c5 -11 13 -20 13 -35c-1 -20 0 -40 2 -61c1 -19 4 -38 8 -56c7 -29 15 -58 24 -90c-7 -4 -15 -9 -25 -15c2 -15 4 -31 6 -46c-34 1 -49 13 -58 47c-22 85 -43 171 -65 258c-56 -11 -110 -22 -164 -33
c-15 -35 -8 -76 -40 -109c3 27 6 45 9 73c-30 -58 -26 -128 -88 -151c-31 23 -32 23 -20 80c26 130 54 261 81 392c7 36 28 70 17 110c30 45 27 103 42 154c7 24 27 25 42 26c40 3 73 -22 107 -40c7 -4 11 -22 12 -33c1 -13 -6 -26 -4 -38c11 -58 4 -120 28 -177
c9 -20 7 -45 11 -68c1 -6 2 -13 5 -17c22 -29 32 -62 26 -100zM175 315c41 -2 78 -4 117 -6c-13 77 -27 150 -59 227c-8 -22 -14 -34 -17 -48c-14 -57 -28 -115 -41 -173zM415 45c-2 0 -4 0 -6 -1c3 -8 5 -17 8 -25c2 0 3 1 5 2c-2 8 -4 16 -7 24zM325 988
c40 -62 17 -95 -21 -131c-23 -21 -47 -42 -80 -45c-7 -1 -15 -6 -20 -11c-13 -14 -27 -14 -44 -7c-5 21 5 40 14 57c25 45 59 82 100 114c14 11 33 15 51 23z" />
    <glyph glyph-name="acircumflex" unicode="&#xe2;" 
d="M375 303c9 -2 16 -4 23 -6c1 -4 3 -8 4 -13c1 -17 -3 -38 4 -52c5 -11 13 -20 13 -35c-1 -20 0 -40 2 -61c1 -19 4 -38 8 -56c7 -29 15 -58 24 -90c-7 -4 -15 -9 -25 -15c2 -15 4 -31 6 -46c-34 1 -49 13 -58 47c-22 85 -43 171 -65 258c-56 -11 -110 -22 -164 -33
c-15 -35 -8 -76 -40 -109c3 27 6 45 9 73c-30 -58 -26 -128 -88 -151c-31 23 -32 23 -20 80c26 130 54 261 81 392c7 36 28 70 17 110c30 45 27 103 42 154c7 24 27 25 42 26c40 3 73 -22 107 -40c7 -4 11 -22 12 -33c1 -13 -6 -26 -4 -38c11 -58 4 -120 28 -177
c9 -20 7 -45 11 -68c1 -6 2 -13 5 -17c22 -29 32 -62 26 -100zM176 315c41 -2 78 -4 117 -6c-13 77 -27 150 -59 227c-8 -22 -14 -34 -17 -48c-14 -57 -28 -115 -41 -173zM416 45c-2 0 -4 0 -6 -1c3 -8 5 -17 8 -25c2 0 3 1 5 2c-2 8 -4 16 -7 24zM297 841
c-19 -15 -28 1 -39 11c-11 9 -22 18 -33 28c-9 -15 -16 -31 -27 -44c-18 -21 -34 -21 -55 -1c-3 3 -9 2 -14 3c-13 3 -20 14 -14 26c5 10 11 21 18 30c19 25 41 49 60 75c4 5 7 8 11 6c12 -5 26 -9 32 -18c21 -35 40 -71 59 -106c2 -3 1 -7 2 -10z" />
    <glyph glyph-name="atilde" unicode="&#xe3;" 
d="M375 303c9 -2 16 -4 23 -6c1 -4 3 -8 4 -13c1 -17 -3 -38 4 -52c5 -11 13 -20 13 -35c-1 -20 0 -40 2 -61c1 -19 4 -38 8 -56c7 -29 15 -58 24 -90c-7 -4 -15 -9 -25 -15c2 -15 4 -31 6 -46c-34 1 -49 13 -58 47c-22 85 -43 171 -65 258c-56 -11 -110 -22 -164 -33
c-15 -35 -8 -76 -40 -109c3 27 6 45 9 73c-30 -58 -26 -128 -88 -151c-31 23 -32 23 -20 80c26 130 54 261 81 392c7 36 28 70 17 110c30 45 27 103 42 154c7 24 27 25 42 26c40 3 73 -22 107 -40c7 -4 11 -22 12 -33c1 -13 -6 -26 -4 -38c11 -58 4 -120 28 -177
c9 -20 7 -45 11 -68c1 -6 2 -13 5 -17c22 -29 32 -62 26 -100zM176 315c41 -2 78 -4 117 -6c-13 77 -27 150 -59 227c-8 -22 -14 -34 -17 -48c-14 -57 -28 -115 -41 -173zM416 45c-2 0 -4 0 -6 -1c3 -8 5 -17 8 -25c2 0 3 1 5 2c-2 8 -4 16 -7 24zM300 896c1 5 -3 10 -8 17
c-1 2 -22 37 -9 35c25 -5 54 -29 55 -56c1 -30 -34 -53 -61 -60c-23 -6 -50 -4 -72 7c-20 10 -40 22 -62 35c-31 20 -53 -35 -52 -38c-7 17 -8 43 3 61c17 31 64 20 89 6c14 -7 29 -14 44 -19c20 -7 43 -9 62 1c7 3 10 7 11 11z" />
    <glyph glyph-name="adieresis" unicode="&#xe4;" 
d="M375 303c6 38 -4 71 -26 100c-3 4 -4 11 -5 17c-4 23 -2 48 -11 68c-24 57 -17 119 -28 177c-2 12 5 25 4 38c-1 11 -5 29 -12 33c-34 18 -67 43 -107 40c-15 -1 -35 -2 -42 -26c-15 -51 -12 -109 -42 -154c11 -40 -10 -74 -17 -110c-27 -131 -55 -262 -81 -392
c-12 -57 -11 -57 20 -80c62 23 58 93 88 151c-3 -28 -6 -46 -9 -73c32 33 25 74 40 109c54 11 108 22 164 33c22 -87 43 -173 65 -258c9 -34 24 -46 58 -47c-2 15 -4 31 -6 46c10 6 18 11 25 15c-9 32 -17 61 -24 90c-4 18 -7 37 -8 56c-2 21 -3 41 -2 61c0 15 -8 24 -13 35
c-7 14 -3 35 -4 52c-1 5 -3 9 -4 13c-7 2 -14 4 -23 6zM176 315c13 58 27 116 41 173c3 14 9 26 17 48c32 -77 46 -150 59 -227c-39 2 -76 4 -117 6zM416 45c3 -8 5 -16 7 -24c-2 -1 -3 -2 -5 -2c-3 8 -5 17 -8 25c2 1 4 1 6 1zM275 942c7 -12 13 -25 20 -37
c-3 -9 -6 -18 -9 -26c-9 -27 -32 -31 -51 -12c-20 20 -21 42 -13 66c3 8 9 14 14 23c14 -5 27 -10 39 -14zM144 956c14 -5 27 -10 40 -14c6 -12 12 -25 19 -37c-3 -9 -6 -18 -9 -26c-9 -27 -32 -31 -51 -12c-20 20 -21 42 -12 66c2 8 8 14 13 23z" />
    <glyph glyph-name="aring" unicode="&#xe5;" 
d="M375 304c6 38 -4 71 -26 100c-3 4 -4 11 -5 17c-4 23 -2 48 -11 68c-24 57 -17 119 -28 177c-2 12 5 25 4 38c-1 11 -5 29 -12 33c-34 18 -67 43 -107 40c-15 -1 -35 -2 -42 -26c-15 -51 -12 -109 -42 -154c11 -40 -10 -74 -17 -110c-27 -131 -55 -262 -81 -392
c-12 -57 -11 -57 20 -80c62 23 58 93 88 151c-3 -28 -6 -46 -9 -73c32 33 25 74 40 109c54 11 108 22 164 33c22 -87 43 -173 65 -258c9 -34 24 -46 58 -47c-2 15 -4 31 -6 46c10 6 18 11 25 15c-9 32 -17 61 -24 90c-4 18 -7 37 -8 56c-2 21 -3 41 -2 61c0 15 -8 24 -13 35
c-7 14 -3 35 -4 52c-1 5 -3 9 -4 13c-7 2 -14 4 -23 6zM176 316c13 58 27 116 41 173c3 14 9 26 17 48c32 -77 46 -150 59 -227c-39 2 -76 4 -117 6zM416 46c3 -8 5 -16 7 -24c-2 -1 -3 -2 -5 -2c-3 8 -5 17 -8 25c2 1 4 1 6 1zM208 1019c99 -12 122 -61 123 -132
c-11 -16 -19 -27 -27 -39c-25 -42 -53 -56 -93 -47c-31 7 -72 58 -65 89c6 31 20 61 33 90c6 15 19 26 29 39zM248 877c18 21 16 43 1 70c-34 -18 -44 -45 -45 -77c18 -13 32 -7 44 7z" />
    <glyph glyph-name="ccedilla" unicode="&#xe7;" horiz-adv-x="452" 
d="M444 302c12 -26 7 -45 -2 -63c-17 -34 -36 -65 -36 -109c0 -17 -16 -38 -29 -51c-40 -42 -87 -72 -137 -88c3 -14 3 -27 6 -39c16 -16 32 -29 46 -44c21 -25 13 -55 11 -83c0 -4 -3 -8 -6 -10c-21 -15 -39 -37 -68 -40c-34 -3 -70 -4 -89 29c-12 20 -35 42 -16 76
c11 -9 20 -16 28 -24c17 -18 36 -28 61 -26c15 1 26 9 33 22c9 18 -2 34 -22 33c-10 0 -20 -2 -33 -3c-20 31 -14 65 -9 98c-17 3 -35 14 -46 27c-41 48 -82 98 -100 168c-17 66 -31 132 -31 202c1 36 -7 73 -3 109c3 35 14 71 26 104c20 56 53 99 98 128c16 11 33 23 44 40
c13 22 25 34 49 24c10 -4 21 -1 34 -1c-1 9 -3 16 -5 26c40 3 77 0 108 -36v0c16 -9 32 -19 48 -29c4 -2 9 -6 10 -10c15 -43 31 -88 23 -137c-5 -25 -25 -45 -48 -44c-20 0 -44 -5 -48 36c-1 11 -17 24 -28 29c-57 29 -101 11 -142 -37c-33 -40 -54 -93 -63 -153
c-9 -55 -5 -108 -2 -162c1 -16 15 -37 -9 -46c5 -12 7 -28 15 -35c11 -10 21 -18 28 -36c8 -21 15 -48 39 -51c31 -3 61 -5 88 18c56 48 97 114 138 180c9 15 19 30 35 42c-9 -27 -18 -54 -27 -82c2 -1 5 -3 7 -4c8 16 15 32 24 52zM376 742c-8 12 -14 20 -20 29
c1 -20 2 -22 20 -29zM55 270c-11 -37 -13 -68 14 -106c-6 42 -10 72 -14 106z" />
    <glyph glyph-name="egrave" unicode="&#xe8;" horiz-adv-x="444" 
d="M115 992c18 -8 37 -12 51 -23c41 -31 75 -69 100 -114c9 -17 19 -35 13 -57c-16 -7 -30 -7 -43 7c-5 5 -13 10 -20 11c-34 3 -57 24 -80 45c-38 36 -61 69 -21 131zM328 171c33 19 69 22 108 20v-29c-47 -23 -94 -46 -145 -72c7 -7 11 -10 19 -17
c-53 -15 -90 -60 -146 -66c-12 -2 -16 -9 -16 -24c-1 -30 -26 -44 -55 -38c-36 8 -66 27 -87 48c2 24 3 44 7 64c7 38 0 77 12 116c13 38 11 84 3 124c-5 23 -1 46 -6 69c-8 44 0 91 -1 136c0 19 2 37 -11 57c-13 18 -10 51 -5 75c6 31 -17 64 7 93c-18 35 22 62 5 98
c40 0 73 -10 89 -36c17 -26 35 -27 58 -25c56 3 113 8 170 12c39 2 80 5 109 -28c1 -32 -27 -26 -44 -37c5 -5 9 -10 15 -17c-24 -19 -55 -21 -83 -29c-20 -6 -40 -16 -61 -18c-36 -2 -73 0 -112 0c-16 -57 1 -115 -5 -173c21 -16 42 -10 63 -5c14 4 27 10 40 15
c37 12 59 4 85 -31c-7 -43 -60 -21 -76 -56c13 -3 27 -6 41 -9c-19 -37 -50 -50 -89 -49c-34 2 -62 -15 -87 -33c2 -20 3 -37 6 -61c-10 6 -15 9 -20 11c-4 20 -8 39 -12 59c-2 -1 -4 -1 -6 -1c-3 -30 -7 -60 -10 -90h-12c-23 56 -1 121 -29 177c-16 -102 5 -204 -6 -310
c46 10 12 57 44 71v-54c8 7 13 12 20 19c31 -25 -12 -46 -2 -70c25 0 44 18 60 32c40 33 86 52 133 70c11 4 23 6 32 12zM116 254c0 1 0 2 -1 3c1 0 1 0 1 -1v0h1c-1 -1 -1 -1 -1 -2zM110 131c-6 17 -1 90 6 123c9 -40 13 -80 -6 -123z" />
    <glyph glyph-name="eacute" unicode="&#xe9;" horiz-adv-x="444" 
d="M321 992c40 -62 17 -95 -22 -131c-22 -21 -46 -42 -79 -45c-7 -1 -15 -6 -21 -11c-13 -14 -26 -14 -43 -7c-6 22 5 40 14 57c24 45 59 83 100 114c14 11 33 15 51 23zM328 171c33 19 69 22 108 20v-29c-47 -23 -94 -46 -145 -72c7 -7 11 -10 19 -17
c-53 -15 -90 -60 -146 -66c-12 -2 -16 -9 -16 -24c-1 -30 -26 -44 -55 -38c-36 8 -66 27 -87 48c2 24 3 44 7 64c7 38 0 77 12 116c13 38 11 84 3 124c-5 23 -1 46 -6 69c-8 44 0 91 -1 136c0 19 2 37 -11 57c-13 18 -10 51 -5 75c6 31 -17 64 7 93c-18 35 22 62 5 98
c40 0 73 -10 89 -36c17 -26 35 -27 58 -25c56 3 113 8 170 12c39 2 80 5 109 -28c1 -32 -27 -26 -44 -37c5 -5 9 -10 15 -17c-24 -19 -55 -21 -83 -29c-20 -6 -40 -16 -61 -18c-36 -2 -73 0 -112 0c-16 -57 1 -115 -5 -173c21 -16 42 -10 63 -5c14 4 27 10 40 15
c37 12 59 4 85 -31c-7 -43 -60 -21 -76 -56c13 -3 27 -6 41 -9c-19 -37 -50 -50 -89 -49c-34 2 -62 -15 -87 -33c2 -20 3 -37 6 -61c-10 6 -15 9 -20 11c-4 20 -8 39 -12 59c-2 -1 -4 -1 -6 -1c-3 -30 -7 -60 -10 -90h-12c-23 56 -1 121 -29 177c-16 -102 5 -204 -6 -310
c46 10 12 57 44 71v-54c8 7 13 12 20 19c31 -25 -12 -46 -2 -70c25 0 44 18 60 32c40 33 86 52 133 70c11 4 23 6 32 12zM116 254c0 1 0 2 -1 3c1 0 1 0 1 -1v0h1c-1 -1 -1 -1 -1 -2zM110 131c-6 17 -1 90 6 123c9 -40 13 -80 -6 -123z" />
    <glyph glyph-name="ecircumflex" unicode="&#xea;" horiz-adv-x="444" 
d="M320 852c-19 -15 -28 1 -39 11c-11 9 -22 18 -33 28c-9 -15 -16 -31 -27 -44c-18 -21 -34 -21 -55 -1c-3 3 -9 2 -14 3c-13 3 -20 14 -14 26c5 10 11 21 18 30c19 25 41 49 60 75c4 5 7 8 11 6c12 -5 26 -9 32 -18c21 -35 40 -71 59 -106c2 -3 1 -7 2 -10zM328 171
c33 19 69 22 108 20v-29c-47 -23 -94 -46 -145 -72c7 -7 11 -10 19 -17c-53 -15 -90 -60 -146 -66c-12 -2 -16 -9 -16 -24c-1 -30 -26 -44 -55 -38c-36 8 -66 27 -87 48c2 24 3 44 7 64c7 38 0 77 12 116c13 38 11 84 3 124c-5 23 -1 46 -6 69c-8 44 0 91 -1 136
c0 19 2 37 -11 57c-13 18 -10 51 -5 75c6 31 -17 64 7 93c-18 35 22 62 5 98c40 0 73 -10 89 -36c17 -26 35 -27 58 -25c56 3 113 8 170 12c39 2 80 5 109 -28c1 -32 -27 -26 -44 -37c5 -5 9 -10 15 -17c-24 -19 -55 -21 -83 -29c-20 -6 -40 -16 -61 -18
c-36 -2 -73 0 -112 0c-16 -57 1 -115 -5 -173c21 -16 42 -10 63 -5c14 4 27 10 40 15c37 12 59 4 85 -31c-7 -43 -60 -21 -76 -56c13 -3 27 -6 41 -9c-19 -37 -50 -50 -89 -49c-34 2 -62 -15 -87 -33c2 -20 3 -37 6 -61c-10 6 -15 9 -20 11c-4 20 -8 39 -12 59
c-2 -1 -4 -1 -6 -1c-3 -30 -7 -60 -10 -90h-12c-23 56 -1 121 -29 177c-16 -102 5 -204 -6 -310c46 10 12 57 44 71v-54c8 7 13 12 20 19c31 -25 -12 -46 -2 -70c25 0 44 18 60 32c40 33 86 52 133 70c11 4 23 6 32 12zM116 254c0 1 0 2 -1 3c1 0 1 0 1 -1v0h1
c-1 -1 -1 -1 -1 -2zM110 131c-6 17 -1 90 6 123c9 -40 13 -80 -6 -123z" />
    <glyph glyph-name="edieresis" unicode="&#xeb;" horiz-adv-x="444" 
d="M280 920c6 -12 13 -25 19 -37c-3 -9 -6 -18 -9 -26c-8 -27 -31 -31 -51 -12c-20 20 -20 42 -12 66c2 8 8 14 13 23c15 -5 27 -10 40 -14zM148 934c15 -5 27 -10 40 -14c6 -12 13 -25 19 -37c-3 -9 -6 -18 -9 -26c-8 -27 -31 -31 -51 -12c-20 20 -20 42 -12 66
c2 8 8 14 13 23zM328 172c33 19 69 22 108 20v-29c-47 -23 -94 -46 -145 -72c7 -7 11 -10 19 -17c-53 -15 -90 -60 -146 -66c-12 -2 -16 -9 -16 -24c-1 -30 -26 -44 -55 -38c-36 8 -66 27 -87 48c2 24 3 44 7 64c7 38 0 77 12 116c13 38 11 84 3 124c-5 23 -1 46 -6 69
c-8 44 0 91 -1 136c0 19 2 37 -11 57c-13 18 -10 51 -5 75c6 31 -17 64 7 93c-18 35 22 62 5 98c40 0 73 -10 89 -36c17 -26 35 -27 58 -25c56 3 113 8 170 12c39 2 80 5 109 -28c1 -32 -27 -26 -44 -37c5 -5 9 -10 15 -17c-24 -19 -55 -21 -83 -29c-20 -6 -40 -16 -61 -18
c-36 -2 -73 0 -112 0c-16 -57 1 -115 -5 -173c21 -16 42 -10 63 -5c14 4 27 10 40 15c37 12 59 4 85 -31c-7 -43 -60 -21 -76 -56c13 -3 27 -6 41 -9c-19 -37 -50 -50 -89 -49c-34 2 -62 -15 -87 -33c2 -20 3 -37 6 -61c-10 6 -15 9 -20 11c-4 20 -8 39 -12 59
c-2 -1 -4 -1 -6 -1c-3 -30 -7 -60 -10 -90h-12c-23 56 -1 121 -29 177c-16 -102 5 -204 -6 -310c46 10 12 57 44 71v-54c8 7 13 12 20 19c31 -25 -12 -46 -2 -70c25 0 44 18 60 32c40 33 86 52 133 70c11 4 23 6 32 12zM116 255c0 1 0 2 -1 3c1 0 1 0 1 -1v0h1
c-1 -1 -1 -1 -1 -2zM110 132c-6 17 -1 90 6 123c9 -40 13 -80 -6 -123z" />
    <glyph glyph-name="igrave" unicode="&#xec;" horiz-adv-x="210" 
d="M148 81c-6 22 -14 41 0 64c5 9 1 26 1 39c1 17 1 34 5 50c5 29 14 57 20 86c2 8 0 24 -1 24c-20 0 -12 14 -9 25c9 42 22 83 25 126c6 61 10 124 -5 185c-7 28 -14 51 7 78c15 19 9 67 -24 68c-42 0 -83 0 -124 -5c-33 -4 -43 -24 -42 -71c11 -3 22 -5 33 -8
c35 -10 43 -22 46 -65c1 -13 1 -27 4 -40c13 -56 9 -113 3 -169c-5 -35 -12 -70 -12 -105c0 -90 4 -180 3 -270c0 -17 -11 -49 -19 -50c-41 -6 -45 -38 -47 -78c20 -2 40 -5 60 -4c12 0 25 5 35 12c36 26 72 54 103 77c-2 16 -4 29 -6 44c-32 19 -32 19 -56 -13zM108 181v67
h6v-67h-6zM21 1054c18 -8 37 -12 51 -23c40 -32 75 -69 99 -114c10 -17 20 -36 14 -57c-16 -7 -30 -7 -43 7c-5 5 -13 10 -20 11c-34 3 -58 24 -80 45c-38 36 -61 69 -21 131z" />
    <glyph glyph-name="iacute" unicode="&#xed;" horiz-adv-x="210" 
d="M147 81c25 32 25 32 56 13c3 -15 4 -28 7 -44c-32 -23 -67 -51 -103 -77c-10 -7 -23 -12 -35 -12c-20 -1 -40 2 -60 4c2 40 6 72 47 78c8 1 19 33 19 50c0 90 -4 180 -3 270c0 35 7 70 11 105c7 56 11 113 -2 169c-3 13 -3 27 -4 40c-3 43 -11 55 -46 65
c-11 3 -22 5 -33 8c-1 47 9 67 41 71c41 5 83 5 124 5c34 -1 40 -49 25 -68c-21 -27 -14 -50 -7 -78c15 -61 11 -124 5 -185c-4 -43 -17 -84 -26 -126c-2 -11 -10 -25 10 -25c0 0 2 -16 1 -24c-7 -29 -15 -57 -21 -86c-3 -16 -3 -33 -4 -50c-1 -13 4 -30 -2 -39
c-14 -23 -6 -42 0 -64zM107 181h7v67h-7v-67zM206 1054c40 -62 17 -95 -22 -131c-22 -21 -46 -42 -79 -45c-7 -1 -15 -6 -20 -11c-13 -14 -27 -14 -44 -7c-6 21 5 40 14 57c25 45 59 82 100 114c14 11 33 15 51 23z" />
    <glyph glyph-name="icircumflex" unicode="&#xee;" horiz-adv-x="210" 
d="M147 82c25 32 25 32 56 13c3 -15 4 -28 7 -44c-32 -23 -67 -51 -103 -77c-10 -7 -23 -12 -35 -12c-20 -1 -40 2 -60 4c2 40 6 72 47 78c8 1 19 33 19 50c0 90 -4 180 -3 270c0 35 7 70 11 105c7 56 11 113 -2 169c-3 13 -3 27 -4 40c-3 43 -11 55 -46 65
c-11 3 -22 5 -33 8c-1 47 9 67 41 71c41 5 83 5 124 5c34 -1 40 -49 25 -68c-21 -27 -14 -50 -7 -78c15 -61 11 -124 5 -185c-4 -43 -17 -84 -26 -126c-2 -11 -10 -25 10 -25c0 0 2 -16 1 -24c-7 -29 -15 -57 -21 -86c-3 -16 -3 -33 -4 -50c-1 -13 4 -30 -2 -39
c-14 -23 -6 -42 0 -64zM107 182h7v67h-7v-67zM193 878c-20 -15 -28 1 -39 11c-11 9 -22 18 -33 28c-10 -15 -17 -31 -27 -44c-18 -21 -35 -21 -56 -1c-3 3 -9 2 -13 3c-14 3 -20 14 -15 26c5 10 11 21 18 30c20 25 41 49 60 75c4 5 8 8 12 6c11 -5 25 -9 31 -18
c22 -35 40 -71 60 -106c1 -3 1 -7 2 -10z" />
    <glyph glyph-name="idieresis" unicode="&#xef;" horiz-adv-x="210" 
d="M147 82c-6 22 -14 41 0 64c6 9 1 26 2 39c1 17 1 34 4 50c6 29 14 57 21 86c1 8 -1 24 -1 24c-20 0 -12 14 -10 25c9 42 22 83 26 126c6 61 10 124 -5 185c-7 28 -14 51 7 78c15 19 9 67 -25 68c-41 0 -83 0 -124 -5c-32 -4 -42 -24 -41 -71c11 -3 22 -5 33 -8
c35 -10 43 -22 46 -65c1 -13 1 -27 4 -40c13 -56 9 -113 2 -169c-4 -35 -11 -70 -11 -105c-1 -90 3 -180 3 -270c0 -17 -11 -49 -19 -50c-41 -6 -45 -38 -47 -78c20 -2 40 -5 60 -4c12 0 25 5 35 12c36 26 71 54 103 77c-3 16 -4 29 -7 44c-31 19 -31 19 -56 -13zM107 182
v67h7v-67h-7zM175 971c6 -13 13 -25 20 -38c-3 -8 -6 -17 -9 -26c-9 -26 -32 -31 -52 -11c-19 19 -20 42 -12 66c3 7 8 14 14 23c14 -5 26 -10 39 -14zM44 985c14 -5 26 -10 39 -14c6 -13 13 -25 20 -38c-3 -8 -6 -17 -9 -26c-9 -26 -32 -31 -52 -11c-19 19 -20 42 -12 66
c3 7 8 14 14 23z" />
    <glyph glyph-name="ntilde" unicode="&#xf1;" horiz-adv-x="494" 
d="M488 423c7 -24 12 -58 -14 -80c-11 -67 -22 -135 -33 -203c-1 -7 -2 -16 1 -22c27 -51 11 -103 3 -154c-49 -24 -53 -23 -86 30c-3 4 -7 9 -11 10c-50 14 -62 69 -72 111c-8 35 -17 72 -24 108c-14 73 -47 133 -80 199c-74 -139 -58 -290 -62 -443c-37 20 -41 60 -65 86
c6 -22 13 -44 20 -68c-32 29 -73 115 -63 151c6 19 16 36 13 58c6 -11 12 -22 18 -34v89c-8 -27 -12 -42 -16 -56c-3 51 -7 103 -8 154c0 45 4 89 3 133c0 20 -12 39 -12 58c0 76 4 153 6 234c39 -7 74 -15 109 -19c22 -2 30 -16 35 -38c3 -12 3 -28 10 -35
c57 -54 67 -140 107 -206c8 -14 15 -29 22 -44c3 -7 9 -18 7 -24c-15 -48 10 -81 27 -119c16 -34 24 -72 35 -109c1 -3 6 -4 10 -6c5 42 12 84 16 126c3 39 5 77 -12 114c-7 18 -5 44 -2 65c5 41 -3 78 -9 116c-6 40 -3 82 -4 127c-13 -3 -21 -4 -32 -6c3 36 -13 73 15 105
c10 -2 19 -4 28 -7c24 -8 49 -13 54 -49c2 -12 11 -22 19 -32c19 -25 23 -56 24 -88c0 -17 -6 -36 0 -50c23 -58 7 -122 23 -182zM370 140c1 1 2 1 3 1c-1 12 -3 24 -4 35c0 -12 1 -24 1 -36zM411 231v54c-1 -1 -2 -1 -3 -2v-52h3zM294 896c1 5 -2 10 -7 17
c-1 2 -22 37 -10 35c26 -5 54 -29 56 -56c1 -30 -34 -53 -61 -60c-24 -6 -50 -4 -72 7c-21 10 -41 22 -62 35c-31 20 -54 -35 -52 -38c-7 17 -9 43 2 61c18 31 64 20 89 6c14 -7 29 -14 45 -19c20 -7 43 -9 62 1c7 3 10 7 10 11z" />
    <glyph glyph-name="ograve" unicode="&#xf2;" horiz-adv-x="429" 
d="M429 506c0 77 -20 139 -61 188c-37 44 -82 72 -130 80c-30 5 -57 18 -82 40c-21 18 -28 17 -38 -11c-64 -170 -132 -339 -113 -543c-13 -54 3 -102 15 -152c13 -52 39 -85 74 -112c52 -40 107 -32 162 -38c6 -1 15 7 20 14c25 32 51 65 75 99c59 84 87 181 68 299
c-4 20 -2 42 0 63c2 25 7 49 10 73zM244 664c47 -81 76 -172 77 -276c0 -39 4 -76 13 -112c3 -12 2 -29 -3 -40c-13 -35 -28 -68 -43 -102c-13 -29 -31 -48 -53 -61c-39 -23 -89 6 -93 64c-7 90 -16 183 23 267c9 17 10 41 16 61c14 44 30 87 45 131c6 21 11 43 18 68z
M102 1005c18 -8 37 -12 52 -23c40 -32 75 -69 99 -114c9 -17 20 -36 14 -57c-16 -7 -30 -7 -43 7c-6 5 -14 10 -21 11c-33 3 -57 24 -79 45c-39 36 -62 69 -22 131z" />
    <glyph glyph-name="oacute" unicode="&#xf3;" horiz-adv-x="429" 
d="M429 506c-3 -24 -8 -48 -10 -73c-2 -21 -4 -43 0 -63c19 -118 -9 -215 -68 -299c-24 -34 -50 -67 -75 -99c-5 -7 -14 -15 -20 -14c-55 6 -110 -2 -162 38c-35 27 -61 60 -74 112c-12 50 -28 98 -15 152c-19 204 49 373 113 543c10 28 17 29 38 11c25 -22 52 -35 82 -40
c48 -8 93 -36 130 -80c41 -49 61 -111 61 -188zM244 664c-7 -25 -12 -47 -18 -68c-15 -44 -31 -87 -45 -131c-6 -20 -7 -44 -16 -61c-39 -84 -30 -177 -23 -267c4 -58 54 -87 93 -64c22 13 40 32 53 61c15 34 30 67 43 102c5 11 6 28 3 40c-9 36 -13 73 -13 112
c-1 104 -30 195 -77 276zM339 1005c40 -62 17 -95 -21 -131c-23 -21 -47 -42 -80 -45c-7 -1 -15 -6 -20 -11c-13 -14 -27 -14 -44 -7c-5 21 5 40 14 57c25 45 59 82 100 114c14 11 33 15 51 23z" />
    <glyph glyph-name="ocircumflex" unicode="&#xf4;" horiz-adv-x="429" 
d="M429 506c-3 -24 -8 -48 -10 -73c-2 -21 -4 -43 0 -63c19 -118 -9 -215 -68 -299c-24 -34 -50 -67 -75 -99c-5 -7 -14 -15 -20 -14c-55 6 -110 -2 -162 38c-35 27 -61 60 -74 112c-12 50 -28 98 -15 152c-19 204 49 373 113 543c10 28 17 29 38 11c25 -22 52 -35 82 -40
c48 -8 93 -36 130 -80c41 -49 61 -111 61 -188zM244 664c-7 -25 -12 -47 -18 -68c-15 -44 -31 -87 -45 -131c-6 -20 -7 -44 -16 -61c-39 -84 -30 -177 -23 -267c4 -58 54 -87 93 -64c22 13 40 32 53 61c15 34 30 67 43 102c5 11 6 28 3 40c-9 36 -13 73 -13 112
c-1 104 -30 195 -77 276zM305 862c-19 -15 -28 1 -39 11c-11 9 -22 18 -33 28c-9 -15 -17 -31 -27 -44c-18 -21 -34 -21 -56 -1c-3 3 -8 2 -13 3c-13 3 -20 14 -14 26c5 10 10 21 17 30c20 25 41 49 60 75c4 5 8 8 12 6c11 -5 26 -9 32 -18c21 -35 40 -71 59 -106
c1 -3 1 -7 2 -10z" />
    <glyph glyph-name="otilde" unicode="&#xf5;" horiz-adv-x="429" 
d="M429 506c-3 -24 -8 -48 -10 -73c-2 -21 -4 -43 0 -63c19 -118 -9 -215 -68 -299c-24 -34 -50 -67 -75 -99c-5 -7 -14 -15 -20 -14c-55 6 -110 -2 -162 38c-35 27 -61 60 -74 112c-12 50 -28 98 -15 152c-19 204 49 373 113 543c10 28 17 29 38 11c25 -22 52 -35 82 -40
c48 -8 93 -36 130 -80c41 -49 61 -111 61 -188zM244 664c-7 -25 -12 -47 -18 -68c-15 -44 -31 -87 -45 -131c-6 -20 -7 -44 -16 -61c-39 -84 -30 -177 -23 -267c4 -58 54 -87 93 -64c22 13 40 32 53 61c15 34 30 67 43 102c5 11 6 28 3 40c-9 36 -13 73 -13 112
c-1 104 -30 195 -77 276zM309 903c1 5 -3 10 -8 17c-1 2 -22 37 -9 35c25 -5 54 -29 55 -56c1 -30 -34 -53 -61 -60c-23 -6 -50 -4 -72 7c-20 10 -40 22 -62 35c-31 20 -53 -35 -52 -38c-7 17 -8 43 2 61c18 31 65 20 90 6c14 -7 29 -14 44 -19c20 -7 43 -9 62 1
c7 3 10 7 11 11z" />
    <glyph glyph-name="odieresis" unicode="&#xf6;" horiz-adv-x="429" 
d="M429 506c0 77 -20 139 -61 188c-37 44 -82 72 -130 80c-30 5 -57 18 -82 40c-21 18 -28 17 -38 -11c-64 -170 -132 -339 -113 -543c-13 -54 3 -102 15 -152c13 -52 39 -85 74 -112c52 -40 107 -32 162 -38c6 -1 15 7 20 14c25 32 51 65 75 99c59 84 87 181 68 299
c-4 20 -2 42 0 63c2 25 7 49 10 73zM244 664c47 -81 76 -172 77 -276c0 -39 4 -76 13 -112c3 -12 2 -29 -3 -40c-13 -35 -28 -68 -43 -102c-13 -29 -31 -48 -53 -61c-39 -23 -89 6 -93 64c-7 90 -16 183 23 267c9 17 10 41 16 61c14 44 30 87 45 131c6 21 11 43 18 68z
M254 967c7 -13 13 -25 20 -38c-3 -8 -6 -17 -9 -26c-9 -26 -32 -31 -51 -11c-20 19 -21 42 -13 66c3 7 9 14 14 23c14 -5 27 -10 39 -14zM123 981c14 -5 27 -10 39 -14c7 -13 13 -25 20 -38c-3 -8 -6 -17 -9 -26c-9 -26 -32 -31 -51 -11c-20 19 -21 42 -13 66
c3 7 9 14 14 23z" />
    <glyph glyph-name="ugrave" unicode="&#xf9;" horiz-adv-x="474" 
d="M469 455c3 -39 8 -79 2 -116c-7 -50 -24 -97 -38 -146c-3 -13 -6 -26 -11 -38c-7 -20 -18 -31 -36 -11c-11 -26 -17 -52 -30 -71c-15 -22 -35 -44 -57 -57c-43 -27 -88 -53 -139 -40c-37 10 -68 35 -91 72c-38 62 -48 135 -54 208c-11 142 -17 283 -8 425
c1 22 -11 42 -4 67c11 46 32 60 69 40c47 -26 72 -70 78 -131c6 -70 14 -139 19 -209c2 -28 -1 -58 -4 -86c-7 -59 -5 -116 9 -173c8 -32 7 -67 28 -94c8 -10 15 -20 29 -39c19 25 37 43 49 65c28 54 47 112 52 177c4 45 17 89 22 134c4 40 8 83 3 122c-3 25 -14 50 -16 75
c-4 32 -6 65 -9 97c-1 6 -2 17 -5 18c-19 7 -17 28 -9 36c8 9 24 10 36 9c30 -1 41 -31 50 -57c7 -21 17 -24 33 -24c2 -25 6 -51 5 -76s6 -45 13 -68c9 -34 11 -72 14 -109zM92 1007c18 -8 37 -12 52 -23c40 -32 75 -69 99 -114c9 -17 20 -36 14 -57c-16 -7 -30 -7 -43 7
c-6 5 -14 10 -21 11c-33 3 -57 24 -79 45c-39 36 -62 69 -22 131z" />
    <glyph glyph-name="uacute" unicode="&#xfa;" horiz-adv-x="474" 
d="M469 455c3 -39 8 -79 2 -116c-7 -50 -24 -97 -38 -146c-3 -13 -6 -26 -11 -38c-7 -20 -18 -31 -36 -11c-11 -26 -17 -52 -30 -71c-15 -22 -35 -44 -57 -57c-43 -27 -88 -53 -139 -40c-37 10 -68 35 -91 72c-38 62 -48 135 -54 208c-11 142 -17 283 -8 425
c1 22 -11 42 -4 67c11 46 32 60 69 40c47 -26 72 -70 78 -131c6 -70 14 -139 19 -209c2 -28 -1 -58 -4 -86c-7 -59 -5 -116 9 -173c8 -32 7 -67 28 -94c8 -10 15 -20 29 -39c19 25 37 43 49 65c28 54 47 112 52 177c4 45 17 89 22 134c4 40 8 83 3 122c-3 25 -14 50 -16 75
c-4 32 -6 65 -9 97c-1 6 -2 17 -5 18c-19 7 -17 28 -9 36c8 9 24 10 36 9c30 -1 41 -31 50 -57c7 -21 17 -24 33 -24c2 -25 6 -51 5 -76s6 -45 13 -68c9 -34 11 -72 14 -109zM310 1007c40 -62 17 -95 -21 -131c-23 -21 -47 -42 -80 -45c-7 -1 -15 -6 -20 -11
c-13 -14 -27 -14 -44 -7c-6 21 5 40 14 57c25 45 59 82 100 114c14 11 33 15 51 23z" />
    <glyph glyph-name="ucircumflex" unicode="&#xfb;" horiz-adv-x="474" 
d="M469 455c3 -39 8 -79 2 -116c-7 -50 -24 -97 -38 -146c-3 -13 -6 -26 -11 -38c-7 -20 -18 -31 -36 -11c-11 -26 -17 -52 -30 -71c-15 -22 -35 -44 -57 -57c-43 -27 -88 -53 -139 -40c-37 10 -68 35 -91 72c-38 62 -48 135 -54 208c-11 142 -17 283 -8 425
c1 22 -11 42 -4 67c11 46 32 60 69 40c47 -26 72 -70 78 -131c6 -70 14 -139 19 -209c2 -28 -1 -58 -4 -86c-7 -59 -5 -116 9 -173c8 -32 7 -67 28 -94c8 -10 15 -20 29 -39c19 25 37 43 49 65c28 54 47 112 52 177c4 45 17 89 22 134c4 40 8 83 3 122c-3 25 -14 50 -16 75
c-4 32 -6 65 -9 97c-1 6 -2 17 -5 18c-19 7 -17 28 -9 36c8 9 24 10 36 9c30 -1 41 -31 50 -57c7 -21 17 -24 33 -24c2 -25 6 -51 5 -76s6 -45 13 -68c9 -34 11 -72 14 -109zM299 845c-19 -15 -28 1 -39 11c-11 9 -22 18 -33 28c-9 -15 -17 -31 -27 -44
c-18 -21 -34 -21 -56 -1c-3 3 -8 2 -13 3c-13 3 -20 14 -14 26c5 10 10 21 18 30c19 25 40 49 59 75c4 5 8 8 12 6c11 -5 26 -9 32 -18c21 -35 40 -71 59 -106c1 -3 1 -7 2 -10z" />
    <glyph glyph-name="udieresis" unicode="&#xfc;" horiz-adv-x="474" 
d="M469 455c3 -39 8 -79 2 -116c-7 -50 -24 -97 -38 -146c-3 -13 -6 -26 -11 -38c-7 -20 -18 -31 -36 -11c-11 -26 -17 -52 -30 -71c-15 -22 -35 -44 -57 -57c-43 -27 -88 -53 -139 -40c-37 10 -68 35 -91 72c-38 62 -48 135 -54 208c-11 142 -17 283 -8 425
c1 22 -11 42 -4 67c11 46 32 60 69 40c47 -26 72 -70 78 -131c6 -70 14 -139 19 -209c2 -28 -1 -58 -4 -86c-7 -59 -5 -116 9 -173c8 -32 7 -67 28 -94c8 -10 15 -20 29 -39c19 25 37 43 49 65c28 54 47 112 52 177c4 45 17 89 22 134c4 40 8 83 3 122c-3 25 -14 50 -16 75
c-4 32 -6 65 -9 97c-1 6 -2 17 -5 18c-19 7 -17 28 -9 36c8 9 24 10 36 9c30 -1 41 -31 50 -57c7 -21 17 -24 33 -24c2 -25 6 -51 5 -76s6 -45 13 -68c9 -34 11 -72 14 -109zM265 918c6 -12 13 -25 19 -37c-3 -9 -6 -18 -9 -26c-8 -27 -31 -31 -51 -12c-20 20 -20 42 -12 66
c2 8 8 14 13 23c15 -5 27 -10 40 -14zM133 932c15 -5 27 -10 40 -14c6 -12 13 -25 19 -37c-3 -9 -6 -18 -9 -26c-8 -27 -31 -31 -51 -12c-20 20 -20 42 -12 66c2 8 8 14 13 23z" />
    <glyph glyph-name="yacute" unicode="&#xfd;" horiz-adv-x="366" 
d="M4 852c16 -8 36 -11 44 -23c31 -45 60 -91 85 -140c19 -36 31 -77 48 -121c26 38 50 73 74 110c22 35 43 71 70 115c15 -18 32 -29 34 -43c4 -20 14 -44 -5 -65c-13 -16 -26 -33 -36 -52c-7 -13 -22 -27 -2 -46c6 -7 -2 -33 -9 -47c-14 -27 -31 -51 -48 -79
c-6 7 -10 12 -19 22c-11 -31 -21 -57 -30 -84l6 -3c7 13 15 26 22 40c-28 -151 -19 -302 -20 -449c-24 -31 -54 20 -77 -11c-38 17 -29 56 -30 85c-3 96 1 193 1 289c0 18 -11 35 -14 54c-8 44 -20 89 -32 132c-20 69 -43 137 -63 206c-5 21 -2 44 -2 66c0 13 2 26 3 44z
M294 1014c40 -62 17 -95 -21 -131c-23 -21 -46 -42 -80 -45c-7 -1 -15 -6 -20 -11c-13 -14 -27 -14 -43 -7c-6 21 4 40 13 57c25 45 60 82 100 114c14 11 33 15 51 23z" />
    <glyph glyph-name="ydieresis" unicode="&#xff;" horiz-adv-x="366" 
d="M4 852c-1 -18 -3 -31 -3 -44c0 -22 -3 -45 2 -66c20 -69 43 -137 63 -206c12 -43 24 -88 32 -132c3 -19 14 -36 14 -54c0 -96 -4 -193 -1 -289c1 -29 -8 -68 30 -85c23 31 53 -20 77 11c1 147 -8 298 20 449c-7 -14 -15 -27 -22 -40l-6 3c9 27 19 53 30 84
c9 -10 13 -15 19 -22c17 28 34 52 48 79c7 14 15 40 9 47c-20 19 -5 33 2 46c10 19 23 36 36 52c19 21 9 45 5 65c-2 14 -19 25 -34 43c-27 -44 -48 -80 -70 -115c-24 -37 -48 -72 -74 -110c-17 44 -29 85 -48 121c-25 49 -54 95 -85 140c-8 12 -28 15 -44 23zM253 929
c7 -12 13 -24 20 -37c-3 -9 -6 -17 -9 -26c-9 -26 -32 -31 -52 -11c-19 19 -20 41 -12 65c3 8 9 14 14 23c14 -5 27 -9 39 -14zM122 943c14 -5 27 -9 39 -14c7 -12 13 -24 20 -37c-3 -9 -6 -17 -9 -26c-9 -26 -32 -31 -51 -11c-20 19 -21 41 -13 65c3 8 9 14 14 23z" />
    <glyph glyph-name="T" unicode="T" horiz-adv-x="626" 
d="M617 777c18 -18 1 -36 2 -52c-42 -13 -81 9 -121 -4c-9 -3 -19 -5 -28 -9c-44 -20 -88 -42 -133 -63c2 -27 8 -57 5 -86c-7 -60 -18 -119 -26 -179c-7 -50 -13 -101 -19 -152c-4 -37 -7 -74 1 -110c2 -8 -1 -17 -2 -26c-6 -39 -13 -78 -20 -116c-3 3 -9 8 -16 12
c-2 -5 -4 -10 -6 -16c-3 1 -5 1 -7 2c-23 15 -30 39 -33 63c-6 37 -8 74 -12 111c12 3 20 5 29 8c1 4 2 7 2 9c-2 30 -7 60 -6 90c2 34 11 68 -4 101c-3 7 2 17 3 25c-6 -8 -12 -17 -19 -28c-3 20 1 34 21 40c-2 67 -5 134 -7 201c-1 40 -14 51 -52 42
c-45 -10 -126 10 -158 39c-14 13 -12 27 -4 43c47 19 96 23 147 26c35 1 69 11 104 14c100 11 199 20 299 31c22 2 43 1 60 -16zM256 254c-2 26 15 51 -5 77v-152h5c0 25 1 50 0 75z" />
    </font>
</defs>
</svg>
