<?xml version="1.0" standalone="no"?>
<!DOCTYPE svg PUBLIC "-//W3C//DTD SVG 1.1//EN" "http://www.w3.org/Graphics/SVG/1.1/DTD/svg11.dtd" >
<svg>
<metadata>
Created by FontForge 20120731 at Thu Jul  4 14:42:13 2019
 By www
Copyright (c) 2013 by atipo. All rights reserved.
</metadata>
<defs>
<font id="Salome-Stencil" horiz-adv-x="424" >
  <font-face 
    font-family="Salome Stencil"
    font-weight="400"
    font-stretch="normal"
    units-per-em="1000"
    panose-1="2 0 5 3 4 0 0 2 0 3"
    ascent="750"
    descent="-250"
    x-height="480"
    cap-height="700"
    bbox="-166 -296 1468 1011"
    underline-thickness="50"
    underline-position="-100"
    unicode-range="U+000D-FB06"
  />
<missing-glyph horiz-adv-x="230" 
 />
    <glyph glyph-name="ellipsis" unicode="&#x2e;&#x2e;&#x2e;" horiz-adv-x="907" 
d="M144 -19q-52 0 -79.5 29t-27.5 76q0 46 28 76t79 30t79.5 -30t28.5 -76q0 -47 -28 -76t-80 -29zM453 -19q-52 0 -79.5 29t-27.5 76q0 46 28 76t79 30t79.5 -30t28.5 -76q0 -47 -28 -76t-80 -29zM762 -19q-52 0 -79.5 29t-27.5 76q0 46 28 76t79 30t79.5 -30t28.5 -76
q0 -47 -28 -76t-80 -29z" />
    <glyph glyph-name="f_f" unicode="ff" horiz-adv-x="747" 
d="M738 480v-6h-95v-425q0 -22 12 -32t38 -10v-7q-67 3 -161 3l-161 -3v7q50 0 50 70v396h-124v-422q0 -23 8.5 -32.5t33.5 -9.5v-9q-59 3 -153 3l-169 -3v9q58 0 58 70v394h-42v7h42q0 109 73.5 171t188.5 68v-8q-40 -22 -40 -155v-76h124v10q0 10 2 28q-39 13 -64 41
q32 45 32 99q0 42 -19 54v8q88 0 144 -30q72 60 178 72v-7q-22 -10 -36.5 -46.5t-14.5 -91.5v-137h95zM718 764q44 0 83.5 -9t70.5 -34.5t31 -63.5q0 -42 -27 -68t-75 -26q-29 0 -56.5 11.5t-42.5 28.5q13 19 23.5 49t10.5 53q0 42 -18 51v8z" />
    <glyph glyph-name="fi" unicode="fi" horiz-adv-x="729" 
d="M381 757v7q52 0 98.5 -10.5t84 -41.5t37.5 -79q0 -45 -33 -72.5t-90 -27.5q-34 0 -68 15.5t-50 36.5q16 17 29 49t13 59q0 50 -21 64zM348 762v-7q-22 -10 -36.5 -46.5t-14.5 -91.5v-137h83q68 0 137.5 5t105.5 10l36 5v-455q0 -38 39 -38v-7q-48 3 -149 3l-169 -3v7
q57 0 57 70v342q0 55 -53 55h-87v-425q0 -22 12 -32t38 -10v-7q-67 3 -161 3l-169 -3v7q58 0 58 70v396h-42v7h42q0 117 76 192.5t197 89.5z" />
    <glyph glyph-name="fl" unicode="fl" horiz-adv-x="729" 
d="M381 757v7q103 0 158 -48q32 6 62 14.5t44 13.5l14 6v-705q0 -38 39 -38v-7q-48 3 -149 3l-169 -3v7q57 0 57 70v482q-53 10 -78 44q34 37 34 90q0 48 -12 64zM393 480v-6h-96v-425q0 -22 12 -32t38 -10v-7q-67 3 -161 3l-169 -3v7q58 0 58 70v396h-42v7h42
q0 117 76 192.5t197 89.5v-7q-22 -10 -36.5 -46.5t-14.5 -91.5v-137h96z" />
    <glyph glyph-name="f_f_i" unicode="ffi" horiz-adv-x="1075" 
d="M727 757v7q52 0 98.5 -10.5t84 -41.5t37.5 -79q0 -45 -33 -72.5t-90 -27.5q-34 0 -68 15.5t-50 36.5q16 17 29 49t13 59q0 50 -21 64zM643 474v-425q0 -22 12 -32t38 -10v-7q-67 3 -161 3l-161 -3v7q50 0 50 70v396h-124v-422q0 -23 8.5 -32.5t33.5 -9.5v-9q-59 3 -153 3
l-169 -3v9q58 0 58 70v394h-42v7h42q0 109 73.5 171t188.5 68v-8q-40 -22 -40 -155v-76h124v10q0 10 2 28q-39 13 -64 41q32 45 32 99q0 42 -19 54v8q88 0 144 -30q72 60 178 72v-7q-22 -10 -36.5 -46.5t-14.5 -91.5v-137h83q68 0 137.5 5t105.5 10l36 5v-455q0 -38 39 -38
v-7q-48 3 -149 3l-169 -3v7q57 0 57 70v342q0 55 -53 55h-87z" />
    <glyph glyph-name="f_f_l" unicode="ffl" horiz-adv-x="1075" 
d="M739 474h-96v-425q0 -22 12 -32t38 -10v-7q-67 3 -161 3l-161 -3v7q50 0 50 70v396h-124v-422q0 -23 8.5 -32.5t33.5 -9.5v-9q-59 3 -153 3l-169 -3v9q58 0 58 70v394h-42v7h42q0 109 73.5 171t188.5 68v-8q-40 -22 -40 -155v-76h124v10q0 10 2 28q-39 13 -64 41
q32 45 32 99q0 42 -19 54v8q88 0 144 -30q72 60 178 72v-7q-22 -10 -36.5 -46.5t-14.5 -91.5v-137h96v-6zM1044 7v-7q-52 3 -150 3l-168 -3v7q57 0 57 70v487q-54 7 -81 39q13 19 23.5 49t10.5 53q0 42 -18 51v8q112 0 161 -50q32 7 63.5 16t47.5 14l15 6v-705q0 -38 39 -38
z" />
    <glyph glyph-name="T_h" unicode="Th" horiz-adv-x="1305" 
d="M553 692v6q245 0 360 52v-703q0 -38 39 -38v-9q-52 3 -150 3l-168 -3v9q57 0 57 70v483q0 71 -29.5 98.5t-108.5 31.5zM496 96q0 -51 17.5 -70t57.5 -19v-7q-88 3 -192 3l-192 -3v7q75 0 75 125v565h104q85 0 130 1v-602zM204 698v-6q-65 -10 -112 -70t-62 -143l-7 3
l18 218q64 -1 163 -2zM950 424v7q17 7 47 26.5t57 31t55 11.5q60 0 93 -36t33 -105v-299q0 -32 12 -42.5t43 -10.5v-7q-66 3 -165 3l-149 -3v7q20 0 28.5 10.5t8.5 36.5v331q0 21 -10 33t-26 12q-11 0 -27 -6z" />
    <glyph glyph-name="f_j" unicode="fj" horiz-adv-x="729" 
d="M381 757v7q52 0 98.5 -10.5t84 -41.5t37.5 -79q0 -45 -33 -72.5t-90 -27.5q-34 0 -68 15.5t-50 36.5q16 17 29 49t13 59q0 50 -21 64zM384 474h-87v-425q0 -22 12 -32t38 -10v-7q-67 3 -161 3l-169 -3v7q58 0 58 70v396h-42v7h42q0 117 76 192.5t197 89.5v-7
q-22 -10 -36.5 -46.5t-14.5 -91.5v-137h83q68 0 137.5 5t105.5 10l36 5v-441q0 -151 -100 -214q-37 -23 -127.5 -44.5t-121.5 -45.5l-5 5q5 5 46.5 38t57.5 60q18 32 23 68.5t5 102.5v392q0 29 -12.5 41t-40.5 12z" />
    <glyph glyph-name="f_f_j" unicode="ffj" horiz-adv-x="1075" 
d="M730 474h-87v-425q0 -22 12 -32t38 -10v-7q-67 3 -161 3l-161 -3v7q50 0 50 70v396h-124v-422q0 -23 8.5 -32.5t33.5 -9.5v-9q-59 3 -153 3l-169 -3v9q58 0 58 70v394h-42v7h42q0 109 73.5 171t188.5 68v-8q-40 -22 -40 -155v-76h124v10q0 10 2 28q-39 13 -64 41
q32 45 32 99q0 42 -19 54v8q88 0 144 -30q72 60 178 72v-7q-22 -10 -36.5 -46.5t-14.5 -91.5v-137h83q68 0 137.5 5t105.5 10l36 5v-441q0 -151 -100 -214q-37 -23 -127.5 -44.5t-121.5 -45.5l-5 5q5 5 46.5 38t57.5 60q18 32 23 68.5t5 102.5v392q0 29 -12.5 41t-40.5 12z
M727 757v7q52 0 98.5 -10.5t84 -41.5t37.5 -79q0 -45 -33 -72.5t-90 -27.5q-34 0 -68 15.5t-50 36.5q16 17 29 49t13 59q0 50 -21 64z" />
    <glyph glyph-name="f_b" unicode="fb" horiz-adv-x="1026" 
d="M693 -11v-9q-95 0 -172 48l-109 -36l-4 6q29 28 29 113v453q-54 7 -81 39q13 19 23.5 49t10.5 53q0 42 -18 51v8q112 0 161 -50q32 7 63.5 16t47.5 14l15 6v-670q0 -81 34 -91zM297 583v-103h96v-6h-96v-425q0 -42 55 -42v-7q-72 3 -166 3l-169 -3v7q58 0 58 70v396h-42
v7h42q0 118 73 193.5t192 88.5v-7q-43 -17 -43 -172zM823 500q82 0 133.5 -65t51.5 -161q0 -121 -76.5 -202t-206.5 -91v8q47 29 47 243q0 207 -61 207q-10 0 -20 -5v8q8 5 26.5 17.5t30.5 20t32.5 14t42.5 6.5z" />
    <glyph glyph-name="f_f_b" unicode="ffb" horiz-adv-x="1372" 
d="M739 474h-96v-425q0 -22 12 -32t38 -10v-7q-67 3 -161 3l-161 -3v7q50 0 50 70v396h-124v-422q0 -23 8.5 -32.5t33.5 -9.5v-9q-59 3 -153 3l-169 -3v9q58 0 58 70v394h-42v7h42q0 109 73.5 171t188.5 68v-8q-40 -22 -40 -155v-76h124v10q0 10 2 28q-39 13 -64 41
q32 45 32 99q0 42 -19 54v8q88 0 144 -30q72 60 178 72v-7q-22 -10 -36.5 -46.5t-14.5 -91.5v-137h96v-6zM1039 -11v-9q-95 0 -172 48l-109 -36l-4 6q29 28 29 113v453q-54 7 -81 39q13 19 23.5 49t10.5 53q0 42 -18 51v8q112 0 161 -50q32 7 63.5 16t47.5 14l15 6v-670
q0 -81 34 -91zM1169 500q82 0 133.5 -65t51.5 -161q0 -121 -76.5 -202t-206.5 -91v8q47 29 47 243q0 207 -61 207q-10 0 -20 -5v8q8 5 26.5 17.5t30.5 20t32.5 14t42.5 6.5z" />
    <glyph glyph-name="f_h" unicode="fh" horiz-adv-x="1056" 
d="M698 7v-7q-52 3 -150 3l-168 -3v7q57 0 57 70v487q-54 7 -81 39q13 19 23.5 49t10.5 53q0 42 -18 51v8q112 0 161 -50q32 7 63.5 16t47.5 14l15 6v-705q0 -38 39 -38zM297 583v-103h96v-6h-96v-425q0 -42 55 -42v-7q-72 3 -166 3l-169 -3v7q58 0 58 70v396h-42v7h42
q0 118 73 193.5t192 88.5v-7q-43 -17 -43 -172zM701 424v7q17 7 47 26.5t57 31t55 11.5q60 0 93 -36t33 -105v-299q0 -32 12 -42.5t43 -10.5v-7q-66 3 -165 3l-149 -3v7q20 0 28.5 10.5t8.5 36.5v331q0 21 -10 33t-26 12q-11 0 -27 -6z" />
    <glyph glyph-name="f_f_h" unicode="ffh" horiz-adv-x="1402" 
d="M739 474h-96v-425q0 -22 12 -32t38 -10v-7q-67 3 -161 3l-161 -3v7q50 0 50 70v396h-124v-422q0 -23 8.5 -32.5t33.5 -9.5v-9q-59 3 -153 3l-169 -3v9q58 0 58 70v394h-42v7h42q0 109 73.5 171t188.5 68v-8q-40 -22 -40 -155v-76h124v10q0 10 2 28q-39 13 -64 41
q32 45 32 99q0 42 -19 54v8q88 0 144 -30q72 60 178 72v-7q-22 -10 -36.5 -46.5t-14.5 -91.5v-137h96v-6zM1044 7v-7q-52 3 -150 3l-168 -3v7q57 0 57 70v487q-54 7 -81 39q13 19 23.5 49t10.5 53q0 42 -18 51v8q112 0 161 -50q32 7 63.5 16t47.5 14l15 6v-705q0 -38 39 -38
zM1047 424v7q17 7 47 26.5t57 31t55 11.5q60 0 93 -36t33 -105v-299q0 -32 12 -42.5t43 -10.5v-7q-66 3 -165 3l-149 -3v7q20 0 28.5 10.5t8.5 36.5v331q0 21 -10 33t-26 12q-11 0 -27 -6z" />
    <glyph glyph-name="f_k" unicode="fk" horiz-adv-x="1072" 
d="M698 7v-7q-52 3 -150 3l-168 -3v7q57 0 57 70v487q-54 7 -81 39q13 19 23.5 49t10.5 53q0 42 -18 51v8q112 0 161 -50q32 7 63.5 16t47.5 14l15 6v-705q0 -38 39 -38zM297 583v-103h96v-6h-96v-425q0 -42 55 -42v-7q-72 3 -166 3l-169 -3v7q58 0 58 70v396h-42v7h42
q0 118 73 193.5t192 88.5v-7q-43 -17 -43 -172zM839 386l-4 5q15 19 15 39q0 43 -84 43v7h264v-7q-67 0 -106.5 -19.5t-84.5 -67.5zM815 366l190 -289q20 -31 35.5 -44t36.5 -13v-5q-55 -35 -140 -35q-68 0 -110.5 27t-76.5 87l-66 117z" />
    <glyph glyph-name="f_f_k" unicode="ffk" horiz-adv-x="1418" 
d="M739 474h-96v-425q0 -22 12 -32t38 -10v-7q-67 3 -161 3l-161 -3v7q50 0 50 70v396h-124v-422q0 -23 8.5 -32.5t33.5 -9.5v-9q-59 3 -153 3l-169 -3v9q58 0 58 70v394h-42v7h42q0 109 73.5 171t188.5 68v-8q-40 -22 -40 -155v-76h124v10q0 10 2 28q-39 13 -64 41
q32 45 32 99q0 42 -19 54v8q88 0 144 -30q72 60 178 72v-7q-22 -10 -36.5 -46.5t-14.5 -91.5v-137h96v-6zM1044 7v-7q-52 3 -150 3l-168 -3v7q57 0 57 70v487q-54 7 -81 39q13 19 23.5 49t10.5 53q0 42 -18 51v8q112 0 161 -50q32 7 63.5 16t47.5 14l15 6v-705q0 -38 39 -38
zM1185 386l-4 5q15 19 15 39q0 43 -84 43v7h264v-7q-67 0 -106.5 -19.5t-84.5 -67.5zM1161 366l190 -289q20 -31 35.5 -44t36.5 -13v-5q-55 -35 -140 -35q-68 0 -110.5 27t-76.5 87l-66 117z" />
    <glyph glyph-name="f_r" unicode="fr" horiz-adv-x="925" 
d="M659 500v-448q0 -45 53 -45v-7q-62 3 -163 3l-169 -3v7q57 0 57 70v345q0 28 -13.5 40t-41.5 12h-85v-425q0 -42 55 -42v-7q-72 3 -166 3l-169 -3v7q58 0 58 70v396h-42v7h42q0 118 73 193.5t192 88.5v-7q-43 -17 -43 -172v-103h96q65 0 131.5 5t100.5 10zM372 764
q44 0 83.5 -9t70.5 -34.5t31 -63.5q0 -42 -27 -68t-75 -26q-29 0 -56.5 11.5t-42.5 28.5q13 19 23.5 49t10.5 53q0 42 -18 51v8zM699 410l-1 8q11 7 30.5 29t41.5 37.5t48 15.5q42 0 69.5 -28t27.5 -68q0 -43 -28 -74.5t-76 -31.5q-41 0 -65 20q12 24 12 46q0 21 -10.5 35
t-31.5 14q-10 0 -17 -3z" />
    <glyph glyph-name="f_f_r" unicode="ffr" horiz-adv-x="1271" 
d="M1005 500v-448q0 -45 53 -45v-7q-62 3 -163 3l-169 -3v7q57 0 57 70v345q0 28 -13.5 40t-41.5 12h-85v-425q0 -42 55 -42v-7q-72 3 -166 3l-161 -3v7q50 0 50 70v396h-124v-422q0 -23 8.5 -32.5t33.5 -9.5v-9q-59 3 -153 3l-169 -3v9q58 0 58 70v394h-42v7h42
q0 109 73.5 171t188.5 68v-8q-40 -22 -40 -155v-76h124v10q0 10 2 28q-41 14 -64 41q32 45 32 99q0 42 -19 54v8q86 0 141 -29q68 59 173 71v-7q-43 -17 -43 -172v-103h96q65 0 131.5 5t100.5 10zM718 764q44 0 83.5 -9t70.5 -34.5t31 -63.5q0 -42 -27 -68t-75 -26
q-29 0 -56.5 11.5t-42.5 28.5q13 19 23.5 49t10.5 53q0 42 -18 51v8zM1045 410l-1 8q11 7 30.5 29t41.5 37.5t48 15.5q42 0 69.5 -28t27.5 -68q0 -43 -28 -74.5t-76 -31.5q-41 0 -65 20q12 24 12 46q0 21 -10.5 35t-31.5 14q-10 0 -17 -3z" />
    <glyph glyph-name="f_t" unicode="ft" horiz-adv-x="764" 
d="M749 60l4 -4q-25 -36 -71 -56t-100 -20q-69 0 -107 32t-38 108v354h-140v-425q0 -42 55 -42v-7q-72 3 -166 3l-169 -3v7q58 0 58 70v396h-42v7h42q0 118 73 193.5t192 88.5v-7q-43 -17 -43 -172v-103h113q70 0 135 40t107 100l6 -2v-138h61v-7h-61v-385q0 -23 11.5 -34.5
t28.5 -11.5q28 0 51 18zM372 764q44 0 83.5 -9t70.5 -34.5t31 -63.5q0 -42 -27 -68t-75 -26q-29 0 -56.5 11.5t-42.5 28.5q13 19 23.5 49t10.5 53q0 42 -18 51v8z" />
    <glyph glyph-name="f_f_t" unicode="fft" horiz-adv-x="1109" 
d="M1095 60l4 -4q-25 -36 -71 -56t-100 -20q-69 0 -107 32t-38 108v354h-140v-420q0 -47 55 -47v-7q-72 3 -166 3l-161 -3v7q50 0 50 70v396h-124v-422q0 -23 8.5 -32.5t33.5 -9.5v-9q-59 3 -153 3l-169 -3v9q58 0 58 70v394h-42v7h42q0 109 73.5 171t188.5 68v-8
q-40 -22 -40 -155v-76h124v10q0 17 2 28q-41 14 -64 41q32 45 32 99q0 42 -19 54v8q86 0 141 -29q70 59 173 71v-7q-43 -17 -43 -172v-103h116q70 0 133.5 40t105.5 100l6 -2v-138h61v-7h-61v-385q0 -23 11.5 -34.5t28.5 -11.5q28 0 51 18zM718 764q44 0 83.5 -9t70.5 -34.5
t31 -63.5q0 -42 -27 -68t-75 -26q-29 0 -56.5 11.5t-42.5 28.5q13 19 23.5 49t10.5 53q0 42 -18 51v8z" />
    <glyph glyph-name="f_u" unicode="fu" horiz-adv-x="1066" 
d="M674 481v-386q0 -21 10 -33t26 -12q11 0 27 6v-7q-8 -3 -63.5 -36t-95.5 -33q-60 0 -93 36t-33 105v299q0 33 -11.5 43.5t-42.5 10.5h-101v-425q0 -42 55 -42v-7q-72 3 -166 3l-169 -3v7q58 0 58 70v396h-42v7h42q0 118 73 193.5t192 88.5v-7q-43 -17 -43 -172v-103h101
l268 9zM774 58v378q0 38 -38 38v6l252 9l8 -8v-394q0 -28 13.5 -39.5t41.5 -11.5l2 -7q-68 0 -135.5 -12t-101.5 -25l-33 -12zM372 764q44 0 83.5 -9t70.5 -34.5t31 -63.5q0 -42 -27 -68t-75 -26q-29 0 -56.5 11.5t-42.5 28.5q13 19 23.5 49t10.5 53q0 42 -18 51v8z" />
    <glyph glyph-name="f_f_u" unicode="ffu" horiz-adv-x="1411" 
d="M745 474h-102v-425q0 -22 12 -32t38 -10v-7q-67 3 -161 3l-161 -3v7q50 0 50 70v396h-124v-422q0 -23 8.5 -32.5t33.5 -9.5v-9q-59 3 -153 3l-169 -3v9q58 0 58 70v394h-42v7h42q0 109 73.5 171t188.5 68v-8q-40 -22 -40 -155v-76h124v10q0 10 2 28q-39 13 -64 41
q32 45 32 99q0 42 -19 54v8q88 0 144 -30q72 60 178 72v-7q-22 -10 -36.5 -46.5t-14.5 -91.5v-137h102l266 9l8 -8v-386q0 -21 10 -33t26 -12q11 0 27 6v-7q-8 -3 -63.5 -36t-95.5 -33q-60 0 -93 36t-33 105v299q0 32 -11.5 42.5t-40.5 11.5zM1119 58v378q0 38 -38 38v6
l252 9l8 -8v-394q0 -28 13.5 -39.5t41.5 -11.5l2 -7q-68 0 -135.5 -12t-100.5 -25l-34 -12zM718 764q44 0 83.5 -9t70.5 -34.5t31 -63.5q0 -42 -27 -68t-75 -26q-29 0 -56.5 11.5t-42.5 28.5q13 19 23.5 49t10.5 53q0 42 -18 51v8z" />
    <glyph glyph-name="f_y" unicode="fy" horiz-adv-x="997" 
d="M784 95l-33 -95h-156l-169 422q-10 27 -25 39.5t-45 12.5h-59v-425q0 -42 55 -42v-7q-72 3 -166 3l-169 -3v7q58 0 58 70v396h-42v7h42q0 118 73 193.5t192 88.5v-7q-43 -17 -43 -172v-103h410v-9q-39 0 -39 -37q0 -17 12 -50zM702 -106l7 -4q-57 -126 -152 -126
q-63 0 -98.5 31.5t-35.5 79.5q0 43 30 72t80 29q47 0 73.5 -28t26.5 -60q-30 -7 -47.5 -25t-17.5 -40q0 -15 8.5 -25t23.5 -10q54 0 102 106zM372 764q44 0 83.5 -9t70.5 -34.5t31 -63.5q0 -42 -27 -68t-75 -26q-29 0 -56.5 11.5t-42.5 28.5q13 19 23.5 49t10.5 53
q0 42 -18 51v8zM855 298l-7 2q20 67 20 97q0 33 -19 54.5t-61 21.5v7q44 -4 107 -4l91 4v-7q-73 0 -114 -123z" />
    <glyph glyph-name="f_f_y" unicode="ffy" horiz-adv-x="1339" 
d="M718 764q44 0 83.5 -9t70.5 -34.5t31 -63.5q0 -42 -27 -68t-75 -26q-29 0 -56.5 11.5t-42.5 28.5q13 19 23.5 49t10.5 53q0 42 -18 51v8zM643 474v-425q0 -42 55 -42v-7q-72 3 -166 3l-161 -3v7q50 0 50 70v396h-124v-422q0 -23 8.5 -32.5t33.5 -9.5v-9q-59 3 -153 3
l-169 -3v9q58 0 58 70v394h-42v7h42q0 109 73.5 171t188.5 68v-8q-40 -22 -40 -155v-76h124v10q0 10 2 28q-41 14 -64 41q32 45 32 99q0 42 -19 54v8q86 0 141 -29q68 59 173 71v-7q-43 -17 -43 -172v-103h410v-9q-39 0 -39 -37q0 -17 12 -50l104 -289l-33 -95h-156
l-169 422q-10 27 -25 39.5t-45 12.5h-59zM1045 -106l7 -4q-57 -126 -152 -126q-63 0 -98.5 31.5t-35.5 79.5q0 43 30 72t80 29q47 0 73.5 -28t26.5 -60q-30 -7 -47.5 -25t-17.5 -40q0 -15 8.5 -25t23.5 -10q54 0 102 106zM1198 298l-7 2q20 67 20 97q0 33 -19 54.5t-61 21.5
v7q44 -4 107 -4l91 4v-7q-73 0 -114 -123z" />
    <glyph glyph-name="f_adieresis" unicode="f&#xe4;" horiz-adv-x="994" 
d="M380 760v-8q-83 -30 -83 -209v-63h106v-7h-106v-424q0 -42 55 -42v-7q-72 3 -166 3l-169 -3v7q58 0 58 70v396h-42v7h42q0 115 82.5 190.5t222.5 89.5zM444 756v7q105 0 163.5 -40.5t58.5 -94.5q0 -38 -22.5 -61.5t-65.5 -23.5q-41 0 -63 24t-22 61q0 118 -49 128z
M807 543q-41 0 -63 24t-22 61t22.5 61.5t62.5 24.5q43 0 65.5 -24.5t22.5 -61.5q0 -38 -22.5 -61.5t-65.5 -23.5zM697 32l3 -6q-7 -3 -38 -17t-58.5 -21.5t-58.5 -7.5q-58 0 -96.5 27t-38.5 81q0 72 70 114.5t199 47.5l-1 -9q-48 -28 -48 -133q0 -35 12.5 -57t35.5 -22
q1 0 19 3zM532 293q-40 0 -64.5 21t-24.5 55q0 50 60 84t145 44v-7q-18 -5 -28.5 -25.5t-10.5 -46.5q0 -54 29 -90q-20 -15 -50.5 -25t-55.5 -10zM986 39l4 -3q-31 -53 -129 -53q-82 0 -117 42.5t-35 135.5q0 31 4 106t4 128q0 49 -7.5 71.5t-29.5 25.5v7q9 1 21 1
q126 0 177 -47.5t51 -153.5q0 -51 -5 -115t-5 -96q0 -65 38 -65q17 0 29 16z" />
    <glyph glyph-name="f_f_adieresis" unicode="ff&#xe4;" horiz-adv-x="1339" 
d="M1331 39l4 -3q-31 -53 -129 -53q-82 0 -117 42.5t-35 135.5q0 31 4 106t4 128q0 49 -7.5 71.5t-29.5 25.5v7q9 1 21 1q126 0 177 -47.5t51 -153.5q0 -51 -5 -115t-5 -96q0 -65 38 -65q17 0 29 16zM1042 32l3 -6q-7 -3 -38 -17t-58.5 -21.5t-58.5 -7.5q-58 0 -96.5 27
t-38.5 81q0 72 70 114.5t199 47.5l-1 -9q-48 -28 -48 -133q0 -35 12.5 -57t35.5 -22q1 0 19 3zM789 756v7q105 0 163.5 -40.5t58.5 -94.5q0 -38 -22.5 -61.5t-65.5 -23.5q-41 0 -63 24t-22 61q0 118 -49 128zM877 293q-40 0 -64.5 21t-24.5 55q0 50 60 84t145 44v-7
q-18 -5 -28.5 -25.5t-10.5 -46.5q0 -54 29 -90q-20 -15 -50.5 -25t-55.5 -10zM1152 543q-41 0 -63 24t-22 61t22.5 61.5t62.5 24.5q43 0 65.5 -24.5t22.5 -61.5q0 -38 -22.5 -61.5t-65.5 -23.5zM374 714v6q93 0 149 -32q78 58 202 72v-8q-83 -30 -83 -209v-63h106v-7h-106
v-424q0 -42 55 -42v-7q-72 3 -166 3l-169 -3v7q58 0 58 70v396h-123v-424q0 -23 8.5 -32.5t33.5 -9.5v-7q-59 3 -153 3l-169 -3v7q58 0 58 70v396h-42v7h42q0 113 70.5 171t192.5 67v-7q-41 -21 -41 -172v-59h123v5q0 21 2 32q-41 14 -63 42q32 45 32 99q0 46 -17 56z" />
    <glyph glyph-name="f_edieresis" unicode="f&#xeb;" horiz-adv-x="986" 
d="M803 543q-41 0 -63 24t-22 61t22.5 61.5t62.5 24.5q43 0 65.5 -24.5t22.5 -61.5q0 -38 -22.5 -61.5t-65.5 -23.5zM380 760v-8q-83 -30 -83 -209v-63h106v-7h-106v-424q0 -42 55 -42v-7q-72 3 -166 3l-169 -3v7q58 0 58 70v396h-42v7h42q0 115 82.5 190.5t222.5 89.5z
M444 756v7q105 0 163.5 -40.5t58.5 -94.5q0 -38 -22.5 -61.5t-65.5 -23.5q-41 0 -63 24t-22 61q0 118 -49 128zM734 500q103 -2 166 -52t68 -143l-10 -12h-270v7l78 8q4 27 4 62q0 48 -10 82.5t-26 38.5v9zM795 36q75 0 137 43l4 -4q-80 -95 -232 -95q-138 0 -212 67
t-74 181q0 106 81.5 184.5t203.5 86.5v-9q-51 -23 -51 -228q0 -226 143 -226z" />
    <glyph glyph-name="f_f_edieresis" unicode="ff&#xeb;" horiz-adv-x="1330" 
d="M1147 543q-41 0 -63 24t-22 61t22.5 61.5t62.5 24.5q43 0 65.5 -24.5t22.5 -61.5q0 -38 -22.5 -61.5t-65.5 -23.5zM789 756v7q105 0 163.5 -40.5t58.5 -94.5q0 -38 -22.5 -61.5t-65.5 -23.5q-41 0 -63 24t-22 61q0 118 -49 128zM374 714v6q93 0 149 -32q78 58 202 72v-8
q-83 -30 -83 -209v-63h106v-7h-106v-424q0 -42 55 -42v-7q-72 3 -166 3l-169 -3v7q58 0 58 70v396h-123v-424q0 -23 8.5 -32.5t33.5 -9.5v-7q-59 3 -153 3l-169 -3v7q58 0 58 70v396h-42v7h42q0 113 70.5 171t192.5 67v-7q-41 -21 -41 -172v-59h123v5q0 21 2 32
q-41 14 -63 42q32 45 32 99q0 46 -17 56zM1078 500q103 -2 166 -52t68 -143l-10 -12h-270v7l78 8q4 27 4 62q0 48 -10 82.5t-26 38.5v9zM1139 36q75 0 137 43l4 -4q-80 -95 -232 -95q-138 0 -212 67t-74 181q0 106 81.5 184.5t203.5 86.5v-9q-51 -23 -51 -228
q0 -226 143 -226z" />
    <glyph glyph-name="f_idieresis" unicode="f&#xef;" horiz-adv-x="769" 
d="M354 763v-8q-57 -21 -57 -172v-103h127q67 0 135.5 5t104.5 10l35 5v-455q0 -38 39 -38v-7q-48 3 -149 3l-169 -3v7q57 0 57 70v343q0 29 -12.5 41t-40.5 12h-127v-424q0 -42 55 -42v-7q-72 3 -166 3l-169 -3v7q58 0 58 70v395h-42v8h42q0 125 73.5 199t205.5 84z
M393 757v7q81 -4 123.5 -43t42.5 -93q0 -38 -22.5 -61.5t-65.5 -23.5q-41 0 -63 24t-22 61q0 23 10 55t10 44q0 23 -13 30zM696 543q-41 0 -63 24t-22 61t22.5 61.5t62.5 24.5q43 0 65.5 -24.5t22.5 -61.5q0 -38 -22.5 -61.5t-65.5 -23.5z" />
    <glyph glyph-name="f_f_idieresis" unicode="ff&#xef;" horiz-adv-x="1114" 
d="M699 763v-8q-57 -21 -57 -172v-103h127q67 0 135.5 5t103.5 10l36 5v-455q0 -38 39 -38v-7q-48 3 -149 3l-169 -3v7q57 0 57 70v343q0 29 -12.5 41t-40.5 12h-127v-426q0 -22 13 -31t42 -9v-7q-72 3 -166 3l-169 -3v7q58 0 58 68v398h-123v-424q0 -23 8.5 -32.5
t33.5 -9.5v-7q-59 3 -153 3l-169 -3v7q58 0 58 70v396h-42v7h42q0 113 70.5 171t192.5 67v-7q-41 -21 -41 -172v-59h123v5q0 21 2 32q-41 14 -63 42q32 45 32 99q0 46 -17 56v6q83 0 136 -26q72 60 189 69zM738 757v7q81 -4 123.5 -43t42.5 -93q0 -38 -22.5 -61.5
t-65.5 -23.5q-41 0 -63 24t-22 61q0 23 10 55t10 44q0 23 -13 30zM1041 543q-41 0 -63 24t-22 61t22.5 61.5t62.5 24.5q43 0 65.5 -24.5t22.5 -61.5q0 -38 -22.5 -61.5t-65.5 -23.5z" />
    <glyph glyph-name="f_odieresis" unicode="f&#xf6;" horiz-adv-x="1007" 
d="M802 543q-41 0 -63 24t-22 61t22.5 61.5t62.5 24.5q43 0 65.5 -24.5t22.5 -61.5q0 -38 -22.5 -61.5t-65.5 -23.5zM380 760v-8q-83 -30 -83 -209v-63h106v-7h-106v-424q0 -42 55 -42v-7q-72 1 -166 1l-169 -1v7q58 0 58 70v396h-42v7h42q0 115 82.5 190.5t222.5 89.5z
M444 756v7q105 0 163.5 -40.5t58.5 -94.5q0 -38 -22.5 -61.5t-65.5 -23.5q-41 0 -63 24t-22 61q0 118 -49 128zM683 -10v-10q-120 0 -204 67t-84 181q0 102 74 180t199 90v-8q-39 -29 -39 -242q0 -105 14 -174.5t40 -83.5zM700 500q120 0 204.5 -66t84.5 -182
q0 -102 -73.5 -180t-200.5 -90v7q40 27 40 243q0 232 -55 259v9z" />
    <glyph glyph-name="f_f_odieresis" unicode="ff&#xf6;" horiz-adv-x="1352" 
d="M1147 543q-41 0 -63 24t-22 61t22.5 61.5t62.5 24.5q43 0 65.5 -24.5t22.5 -61.5q0 -38 -22.5 -61.5t-65.5 -23.5zM789 756v7q105 0 163.5 -40.5t58.5 -94.5q0 -38 -22.5 -61.5t-65.5 -23.5q-41 0 -63 24t-22 61q0 118 -49 128zM374 714v6q93 0 149 -32q78 58 202 72v-8
q-83 -30 -83 -209v-63h106v-7h-106v-424q0 -42 55 -42v-7q-72 3 -166 3l-169 -3v7q58 0 58 70v396h-123v-424q0 -23 8.5 -32.5t33.5 -9.5v-7q-59 3 -153 3l-169 -3v7q58 0 58 70v396h-42v7h42q0 113 70.5 171t192.5 67v-7q-41 -21 -41 -172v-59h123v5q0 21 2 32
q-41 14 -63 42q32 45 32 99q0 46 -17 56zM1028 -10v-10q-120 0 -204 67t-84 181q0 102 74 180t199 90v-8q-39 -29 -39 -242q0 -105 14 -174.5t40 -83.5zM1045 500q120 0 204.5 -66t84.5 -182q0 -102 -73.5 -180t-200.5 -90v7q40 27 40 243q0 232 -55 259v9z" />
    <glyph glyph-name="f_udieresis" unicode="f&#xfc;" horiz-adv-x="1065" 
d="M673 481v-386q0 -21 10 -33t26 -12q11 0 27 6v-7q-8 -3 -63.5 -36t-95.5 -33q-60 0 -93 36t-33 105v299q0 33 -11.5 43.5t-42.5 10.5h-100v-425q0 -42 55 -42v-7q-72 3 -166 3l-169 -3v7q58 0 58 70v396h-42v7h42q0 114 86 190t227 90v-8q-91 -23 -91 -194v-78h100l268 9
zM773 58v378q0 38 -38 38v6l252 9l8 -8v-394q0 -28 13.5 -39.5t41.5 -11.5l2 -7q-68 0 -135.5 -12t-100.5 -25l-34 -12zM458 756v7q110 0 173 -37t63 -98q0 -38 -22.5 -61.5t-65.5 -23.5q-41 0 -63 24t-22 61q0 50 -16.5 86t-46.5 42zM830 543q-41 0 -63 24t-22 61
t22.5 61.5t62.5 24.5q43 0 65.5 -24.5t22.5 -61.5q0 -38 -22.5 -61.5t-65.5 -23.5z" />
    <glyph glyph-name="f_f_udieresis" unicode="ff&#xfc;" horiz-adv-x="1410" 
d="M1018 481v-386q0 -21 10 -33t26 -12q11 0 27 6v-7q-8 -3 -63.5 -36t-95.5 -33q-60 0 -93 36t-33 105v299q0 33 -11.5 43.5t-42.5 10.5h-100v-425q0 -42 55 -42v-7q-72 3 -166 3l-169 -3v7q58 0 58 70v396h-123v-424q0 -23 8.5 -32.5t33.5 -9.5v-7q-59 3 -153 3l-169 -3v7
q58 0 58 70v396h-42v7h42q0 113 70.5 171t192.5 67v-7q-41 -21 -41 -172v-59h123v5q0 21 2 32q-41 14 -63 42q32 45 32 99q0 46 -17 56v6q103 0 153 -34q80 60 206 74v-8q-91 -23 -91 -194v-78h100l268 9zM1118 58v378q0 38 -38 38v6l252 9l8 -8v-394q0 -28 13.5 -39.5
t41.5 -11.5l2 -7q-68 0 -135.5 -12t-101.5 -25l-33 -12zM803 756v7q110 0 173 -37t63 -98q0 -38 -22.5 -61.5t-65.5 -23.5q-41 0 -63 24t-22 61q0 50 -16.5 86t-46.5 42zM1175 543q-41 0 -63 24t-22 61t22.5 61.5t62.5 24.5q43 0 65.5 -24.5t22.5 -61.5q0 -38 -22.5 -61.5
t-65.5 -23.5z" />
    <glyph glyph-name="f_atilde" unicode="f&#xe3;" horiz-adv-x="1009" 
d="M835 657q51 0 60 54l6 -4q0 -148 -114 -148q-40 0 -95.5 26t-87.5 26q-51 0 -60 -54l-6 4q0 74 30 111t84 37q40 0 95.5 -26t87.5 -26zM297 583v-103h104v-6h-104v-425q0 -42 55 -42v-7q-72 3 -166 3l-169 -3v7q58 0 58 70v396h-42v7h42q0 120 67 194.5t184 87.5v-7
q-18 -7 -23.5 -46.5t-5.5 -125.5zM350 764q67 0 120 -27.5t53 -80.5q0 -43 -26.5 -66t-69.5 -23q-57 0 -90 36q13 18 22 48t9 54q0 43 -18 52v7zM712 32l3 -6q-7 -3 -38 -17t-58.5 -21.5t-58.5 -7.5q-58 0 -96.5 27t-38.5 81q0 72 70 114.5t199 47.5l-1 -9q-48 -28 -48 -133
q0 -35 12.5 -57t35.5 -22q1 0 19 3zM547 293q-40 0 -64.5 21t-24.5 55q0 50 60 84t145 44v-7q-18 -5 -28.5 -25.5t-10.5 -46.5q0 -54 29 -90q-20 -15 -50.5 -25t-55.5 -10zM1001 39l4 -3q-31 -53 -129 -53q-82 0 -117 42.5t-35 135.5q0 31 4 106t4 128q0 49 -7.5 71.5
t-29.5 25.5v7q9 1 21 1q126 0 177 -47.5t51 -153.5q0 -51 -5 -115t-5 -96q0 -65 38 -65q17 0 29 16z" />
    <glyph glyph-name="f_otilde" unicode="f&#xf5;" horiz-adv-x="1032" 
d="M297 583v-103h104v-6h-104v-425q0 -42 55 -42v-7q-72 3 -166 3l-169 -3v7q58 0 58 70v396h-42v7h42q0 120 67 194.5t184 87.5v-7q-18 -7 -23.5 -46.5t-5.5 -125.5zM350 764q67 0 120 -27.5t53 -80.5q0 -43 -26.5 -66t-69.5 -23q-57 0 -90 36q13 18 22 48t9 54
q0 43 -18 52v7zM835 657q51 0 60 54l6 -4q0 -148 -114 -148q-40 0 -95.5 26t-87.5 26q-51 0 -60 -54l-6 4q0 74 30 111t84 37q40 0 95.5 -26t87.5 -26zM708 -10v-10q-120 0 -204 67t-84 181q0 102 74 180t199 90v-8q-39 -29 -39 -242q0 -105 14 -174.5t40 -83.5zM725 500
q120 0 204.5 -66t84.5 -182q0 -102 -73.5 -180t-200.5 -90v7q40 27 40 243q0 232 -55 259v9z" />
    <glyph glyph-name="T_h.caron" unicode="&#x164;h" horiz-adv-x="1305" 
d="M205 897l3 5l173 -52l173 52l3 -5l-145 -147h-62zM553 692v6q245 0 360 52v-703q0 -38 39 -38v-9q-52 3 -150 3l-168 -3v9q57 0 57 70v483q0 71 -29.5 98.5t-108.5 31.5zM496 96q0 -51 17.5 -70t57.5 -19v-7q-88 3 -192 3l-192 -3v7q75 0 75 125v565h104q85 0 130 1v-602
zM204 698v-6q-65 -10 -112 -70t-62 -143l-7 3l18 218q64 -1 163 -2zM950 424v7q17 7 47 26.5t57 31t55 11.5q60 0 93 -36t33 -105v-299q0 -32 12 -42.5t43 -10.5v-7q-66 3 -165 3l-149 -3v7q20 0 28.5 10.5t8.5 36.5v331q0 21 -10 33t-26 12q-11 0 -27 -6z" />
    <glyph glyph-name="T_h.commaaccent" unicode="&#x162;h" horiz-adv-x="1305" 
d="M334 -296l-5 5q31 26 31 64q0 54 -61 73q-4 16 -4 25q0 37 24.5 60t61.5 23q42 0 65 -25t23 -65q0 -57 -35 -94.5t-100 -65.5zM553 692v6q245 0 360 52v-703q0 -38 39 -38v-9q-52 3 -150 3l-168 -3v9q57 0 57 70v483q0 71 -29.5 98.5t-108.5 31.5zM496 96q0 -51 17.5 -70
t57.5 -19v-7q-88 3 -192 3l-192 -3v7q75 0 75 125v565h104q85 0 130 1v-602zM204 698v-6q-65 -10 -112 -70t-62 -143l-7 3l18 218q64 -1 163 -2zM950 424v7q17 7 47 26.5t57 31t55 11.5q60 0 93 -36t33 -105v-299q0 -32 12 -42.5t43 -10.5v-7q-66 3 -165 3l-149 -3v7
q20 0 28.5 10.5t8.5 36.5v331q0 21 -10 33t-26 12q-11 0 -27 -6z" />
    <glyph glyph-name=".notdef" horiz-adv-x="230" 
 />
    <glyph glyph-name=".null" horiz-adv-x="0" 
 />
    <glyph glyph-name=".null" horiz-adv-x="0" 
 />
    <glyph glyph-name="nonmarkingreturn" horiz-adv-x="333" 
 />
    <glyph glyph-name="CR" unicode="&#xd;" horiz-adv-x="263" 
 />
    <glyph glyph-name="space" unicode=" " horiz-adv-x="263" 
 />
    <glyph glyph-name="exclam" unicode="!" horiz-adv-x="300" 
d="M148 -19q-52 0 -79.5 29t-27.5 76q0 46 28 76t79 30t79.5 -30t28.5 -76q0 -47 -28 -76t-80 -29zM159 239h-16q3 18 3 52q0 33 -13 63.5t-31.5 55.5t-37 50.5t-31.5 58.5t-13 69q0 55 37 93t94 38t94 -38t37 -93q0 -36 -13 -69t-31.5 -58.5t-37 -50.5t-31.5 -55.5
t-13 -63.5z" />
    <glyph glyph-name="quotedbl" unicode="&#x22;" horiz-adv-x="444" 
d="M123 370h-15q2 13 2 38q0 36 -22.5 70.5t-45 70t-22.5 75.5t27 67.5t68 27.5t68 -27.5t27 -67.5t-22.5 -75.5t-45 -70t-22.5 -70.5zM339 370h-15q2 13 2 38q0 36 -22.5 70.5t-45 70t-22.5 75.5t27 67.5t68 27.5t68 -27.5t27 -67.5t-22.5 -75.5t-45 -70t-22.5 -70.5z" />
    <glyph glyph-name="numbersign" unicode="#" horiz-adv-x="589" 
d="M195 460l-3 -9h-112l3 9h112zM221 280h97l-3 -9h-97zM146 280l-3 -9h-112l3 9h112zM270 460h97l-3 -9h-97zM287 645l-151 -560h-10l151 560h10zM443 460h114l-3 -9h-114zM391 271l3 9h114l-3 -9h-114zM460 645l-151 -560h-10l151 560h10z" />
    <glyph glyph-name="dollar" unicode="$" horiz-adv-x="610" 
d="M407 91q0 63 -96 124l-37 -225q8 -1 13 -1q59 0 89.5 29t30.5 73zM215 623q0 -64 87 -120l35 206q-15 3 -30 3q-40 0 -66 -24t-26 -65zM363 814l-155 -930h-9l17 105q-9 2 -33 7t-38 7.5t-41.5 5t-59.5 2.5l-10 251h7q45 -213 177 -265l41 249q-33 19 -46 26t-43.5 26.5
t-44 31.5t-35.5 33.5t-31.5 40.5t-17.5 45t-8 54q0 100 72.5 158t204.5 58l28 -1l16 96h9zM247 -116l155 930h9l-17 -103q62 -13 139 -13l-9 -207l-7 -1q-21 148 -127 206l-36 -222q45 -23 65.5 -34t58.5 -37.5t56 -49t33.5 -58.5t15.5 -77q0 -108 -84 -172.5t-201 -64.5
q-18 0 -26 1l-16 -98h-9z" />
    <glyph glyph-name="percent" unicode="%" horiz-adv-x="690" 
d="M566 725h12l-456 -750h-12zM369 559q0 -66 -40.5 -116t-112.5 -59v8q25 20 25 154q0 151 -32 164v9q75 0 117.5 -45.5t42.5 -114.5zM31 543q0 66 40.5 116t112.5 59v-8q-25 -20 -25 -154q0 -151 32 -164v-9q-75 0 -117.5 45.5t-42.5 114.5zM659 157q0 -66 -40.5 -116
t-112.5 -59v8q25 20 25 154q0 151 -32 164v9q75 0 117.5 -45.5t42.5 -114.5zM321 141q0 66 40.5 116t112.5 59v-8q-25 -20 -25 -154q0 -151 32 -164v-9q-75 0 -117.5 45.5t-42.5 114.5z" />
    <glyph glyph-name="ampersand" unicode="&#x26;" horiz-adv-x="785" 
d="M367 717v-6q-22 -7 -34.5 -31.5t-12.5 -57.5q0 -37 15.5 -69.5t50.5 -77.5l268 -342q21 -27 32.5 -40t30 -23.5t39.5 -10.5q19 0 35 8l3 -4q-3 -3 -8 -8.5t-23.5 -20t-38 -25t-50.5 -19.5t-63 -9q-67 0 -108 20t-82 73l-179 235q-19 -29 -19 -78q0 -68 35.5 -125
t93.5 -57q13 0 26 5l3 -6q-80 -67 -182 -67q-81 0 -125.5 41.5t-44.5 104.5q0 79 60 128t147 61q-51 61 -76 107.5t-25 96.5q0 83 69 135t163 62zM423 714v5q80 -4 125.5 -36t45.5 -77q0 -41 -28.5 -63.5t-68.5 -22.5q-45 0 -75 24q32 46 32 90q0 66 -31 80zM598 286l-5 5
q33 56 14.5 93t-91.5 37v7q89 -4 139 -4l123 4v-7q-61 0 -101.5 -34.5t-78.5 -100.5z" />
    <glyph glyph-name="quotesingle" unicode="'" horiz-adv-x="230" 
d="M123 370h-15q2 13 2 38q0 36 -22.5 70.5t-45 70t-22.5 75.5t27 67.5t68 27.5t68 -27.5t27 -67.5t-22.5 -75.5t-45 -70t-22.5 -70.5z" />
    <glyph glyph-name="parenleft" unicode="(" horiz-adv-x="386" 
d="M20 300q0 83 28 158.5t76.5 133.5t104 101.5t118.5 74.5l3 -4q-120 -171 -120 -464t120 -464l-3 -4q-63 31 -118.5 74.5t-104 101.5t-76.5 133.5t-28 158.5z" />
    <glyph glyph-name="parenright" unicode=")" horiz-adv-x="386" 
d="M366 300q0 -83 -28 -158.5t-76.5 -133.5t-104 -101.5t-118.5 -74.5l-3 4q120 171 120 464t-120 464l3 4q63 -31 118.5 -74.5t104 -101.5t76.5 -133.5t28 -158.5z" />
    <glyph glyph-name="asterisk" unicode="*" horiz-adv-x="295" 
d="M141 610q-1 2 -15 26.5t-14 42.5q0 15 9.5 25t25.5 10t25.5 -10t9.5 -25q0 -14 -5 -25.5t-13 -24t-11 -19.5h-12zM93 595q-23 0 -41.5 10t-18.5 30q0 15 10 25t24 10q9 0 19 -5q16 -9 30 -33.5t16 -26.5l-7 -11q-6 1 -32 1zM169 594l-7 12q2 2 16 26t30 33q10 5 19 5
q14 0 24 -10t10 -25q0 -20 -18.5 -30t-41.5 -10q-27 0 -32 -1zM153 570q3 -7 11 -19.5t13 -24t5 -25.5q0 -15 -9.5 -25t-25.5 -10t-25.5 10t-9.5 25q0 18 14 43t15 27zM203 585q25 0 41.5 -10.5t16.5 -29.5q0 -15 -10 -25t-24 -10q-16 0 -27 9.5t-22 29.5t-16 26l7 10h34z
M126 585l6 -10q-5 -6 -16 -26t-22 -29.5t-27 -9.5q-14 0 -24 10t-10 25q0 19 16.5 29.5t41.5 10.5h35z" />
    <glyph glyph-name="plus" unicode="+" horiz-adv-x="441" 
d="M215 487h11v-211h215v-10h-215v-212h-11v212h-215v10h215v211z" />
    <glyph glyph-name="comma" unicode="," horiz-adv-x="303" 
d="M85 -170l-6 6q50 50 50 106q0 37 -22.5 67.5t-65.5 47.5q-4 20 -4 32q0 46 30.5 74.5t76.5 28.5q49 0 78.5 -31.5t29.5 -80.5q0 -133 -167 -250z" />
    <glyph glyph-name="hyphen" unicode="-" horiz-adv-x="359" 
d="M24 293h311v-8h-311v8z" />
    <glyph glyph-name="period" unicode="." horiz-adv-x="289" 
d="M144 -19q-52 0 -79.5 29t-27.5 76q0 46 28 76t79 30t79.5 -30t28.5 -76q0 -47 -28 -76t-80 -29z" />
    <glyph glyph-name="slash" unicode="/" horiz-adv-x="416" 
d="M55 -192l291 942h14l-291 -942h-14z" />
    <glyph glyph-name="zero" unicode="0" horiz-adv-x="743" 
d="M359 -10v-9q-147 2 -239 100t-92 253q0 147 86.5 257t219.5 126v-10q-27 -20 -36 -100.5t-9 -245.5q0 -150 18 -254.5t52 -116.5zM384 719q146 -4 238.5 -101t92.5 -251q0 -147 -87 -256.5t-220 -126.5v8q27 20 36 99t9 248q0 153 -17 256t-52 116v8z" />
    <glyph glyph-name="one" unicode="1" horiz-adv-x="422" 
d="M20 0v7q75 0 75 125v422q0 69 -16 92t-59 23v8q195 0 307 42v-623q0 -51 17.5 -70t57.5 -19v-7q-87 3 -191 3z" />
    <glyph glyph-name="two" unicode="2" horiz-adv-x="657" 
d="M145 428q-57 0 -83.5 35.5t-26.5 81.5q0 56 44 101t130 63v-8q-21 -10 -33.5 -30.5t-12.5 -43.5q0 -38 22 -58t56 -22q4 -12 4 -27q0 -36 -27.5 -64t-72.5 -28zM258 708v8q27 3 56 3q130 0 214.5 -53t84.5 -140q0 -69 -36.5 -114t-96.5 -67.5t-123.5 -37.5t-133 -38.5
t-109.5 -57.5l-6 5q22 23 62 56t67.5 58.5t56 60.5t43.5 80.5t15 101.5q0 62 -26.5 98t-67.5 37zM625 257h8q0 -143 -52.5 -209.5t-171.5 -66.5q-72 0 -168 33t-130 33q-39 0 -57.5 -19t-18.5 -46l-6 -1q-6 20 -6 45q0 99 76 152t178 53q52 0 142.5 -14t139.5 -14
q59 0 66 54z" />
    <glyph glyph-name="three" unicode="3" horiz-adv-x="643" 
d="M444 395q83 0 131.5 -47t48.5 -113q0 -101 -89 -177.5t-246 -76.5q-31 0 -57 3l1 7q62 0 110 65.5t48 164.5q0 64 -34 105t-92 41q-24 0 -50 -7l-4 7q64 25 106.5 85t42.5 136q0 52 -26.5 85t-68.5 35v9q32 2 50 2q131 0 202.5 -46t71.5 -113q0 -127 -205 -166l2 -7
q32 8 58 8zM154 428q-57 0 -83.5 35.5t-26.5 81.5q0 57 42.5 102.5t129.5 62.5v-8q-44 -20 -44 -75q0 -38 22 -58t56 -22q4 -12 4 -27q0 -36 -27.5 -64t-72.5 -28zM184 -2v-7q-84 18 -125 63t-41 101q0 44 29 79.5t82 35.5q44 0 69.5 -29t25.5 -66q0 -11 -3 -22
q-32 -2 -55 -24.5t-23 -57.5q0 -26 12 -45.5t29 -27.5z" />
    <glyph glyph-name="four" unicode="4" horiz-adv-x="649" 
d="M31 165l-5 5l152 202q71 96 71 183q0 70 -38 115q49 49 117 49q58 0 93.5 -37.5t35.5 -85.5q0 -92 -123 -190zM304 132v205l232 121v-283h87v-9h-87v-70q0 -51 17.5 -70t57.5 -19v-7q-87 3 -191 3l-191 -3v7q75 0 75 125z" />
    <glyph glyph-name="five" unicode="5" horiz-adv-x="645" 
d="M113 549l17 151q256 -16 321 -16q67 0 91 13t24 41h6q13 -35 13 -82q0 -82 -49 -126.5t-133 -44.5q-57 0 -151.5 30.5t-138.5 33.5zM198 -3v-7q-87 18 -130 63t-43 102q0 44 27 77t80 33q45 0 72 -27t27 -63q0 -11 -3 -22q-33 -2 -55.5 -22t-22.5 -55q0 -58 48 -79z
M336 460q137 0 211 -68t74 -162q0 -48 -16 -90t-51.5 -79t-100.5 -58.5t-154 -21.5q-18 0 -52 2v6q45 0 79.5 36t34.5 104q0 88 -79 143t-195 55q37 68 104 100.5t145 32.5z" />
    <glyph glyph-name="six" unicode="6" horiz-adv-x="672" 
d="M332 -8v-10q-140 5 -222 90t-82 227q0 72 33 143t96 133t166 104.5t231 52.5l2 -5q-71 -18 -125 -66t-84.5 -114.5t-45 -140.5t-14.5 -154q0 -238 45 -260zM461 425q78 0 130.5 -54t52.5 -133q0 -121 -78.5 -187t-203.5 -69v9q32 8 32 207q0 64 -10 104t-20.5 51
t-22.5 11q-2 0 -11 -3l1 9q5 3 29.5 19.5t48.5 26t52 9.5z" />
    <glyph glyph-name="seven" unicode="7" horiz-adv-x="640" 
d="M625 674q0 -47 -15 -83.5t-42 -57.5t-55 -35t-63.5 -20t-56.5 -7.5t-45 -1.5q-43 0 -131.5 14t-126.5 14q-60 0 -68 -54h-7q0 142 45.5 209t163.5 67q71 0 171 -33t137 -33q39 0 60 19.5t21 45.5l6 1q6 -20 6 -45zM497 461l5 -6q-57 -53 -91.5 -107.5t-34.5 -126.5
q0 -83 40 -167q-17 -31 -50.5 -52t-79.5 -21q-65 0 -104 37.5t-39 98.5q0 36 17.5 71.5t43.5 63t66 58t74.5 52t80 50.5t72.5 49z" />
    <glyph glyph-name="eight" unicode="8" horiz-adv-x="667" 
d="M445 437q36 -20 51 -29t45 -29t44 -35.5t31.5 -39t24.5 -50.5t7 -58q0 -206 -338 -215v6q30 2 51.5 33.5t21.5 72.5q0 52 -42 95t-150 114q-2 -10 -16.5 -60.5t-14.5 -88.5q0 -73 25 -115t66 -49v-8q-121 4 -177 51t-56 106q0 47 27 76t75 53.5t64 38.5q-66 45 -106 94
t-40 114q0 85 77.5 141.5t212.5 62.5v-6q-55 -16 -55 -83q0 -93 165 -188q0 4 10 49t10 87q0 57 -20 92.5t-53 42.5v6q78 -2 145 -42.5t67 -99.5q0 -45 -27.5 -71t-71 -42.5t-53.5 -25.5z" />
    <glyph glyph-name="nine" unicode="9" horiz-adv-x="672" 
d="M340 708v10q140 -5 222 -90t82 -227q0 -72 -33 -143t-96 -133t-166 -104.5t-231 -52.5l-2 5q71 18 125 66t84.5 114.5t45 140.5t14.5 154q0 238 -45 260zM211 275q-78 0 -130.5 54t-52.5 133q0 121 78.5 187t203.5 69v-9q-32 -8 -32 -207q0 -64 10 -104t20.5 -51
t22.5 -11q2 0 11 3l-1 -9q-5 -3 -29.5 -19.5t-48.5 -26t-52 -9.5z" />
    <glyph glyph-name="colon" unicode=":" horiz-adv-x="289" 
d="M144 -19q-52 0 -79.5 29t-27.5 76q0 46 28 76t79 30t79.5 -30t28.5 -76q0 -47 -28 -76t-80 -29zM144 289q-52 0 -79.5 29t-27.5 76q0 46 28 76t79 30t79.5 -30t28.5 -76q0 -47 -28 -76t-80 -29z" />
    <glyph glyph-name="semicolon" unicode=";" horiz-adv-x="289" 
d="M144 289q-52 0 -79.5 29t-27.5 76q0 46 28 76t79 30t79.5 -30t28.5 -76q0 -47 -28 -76t-80 -29zM85 -170l-6 6q50 50 50 106q0 37 -22.5 67.5t-65.5 47.5q-4 20 -4 32q0 46 30.5 74.5t76.5 28.5q51 0 79.5 -30t28.5 -76q0 -71 -47.5 -138.5t-119.5 -117.5z" />
    <glyph glyph-name="less" unicode="&#x3c;" horiz-adv-x="441" 
d="M441 65l-441 202v8l441 202v-11l-427 -195l427 -195v-11z" />
    <glyph glyph-name="equal" unicode="=" horiz-adv-x="441" 
d="M0 366h441v-10h-441v10zM0 186h441v-10h-441v10z" />
    <glyph glyph-name="greater" unicode="&#x3e;" horiz-adv-x="441" 
d="M441 267l-441 -202v11l427 195l-427 195v11l441 -202v-8z" />
    <glyph glyph-name="question" unicode="?" horiz-adv-x="509" 
d="M193 593q0 -27 -20 -47t-53 -20q-42 0 -66.5 24.5t-24.5 55.5q0 50 42 81.5t122 31.5v-5q-19 -3 -29 -18t-10 -32q0 -37 37 -56q2 -10 2 -15zM242 716q104 -12 170.5 -68t66.5 -124q0 -56 -27 -95.5t-65.5 -59.5t-77.5 -34t-66 -30t-27 -37q0 -16 11 -34l-3 -3
q-27 17 -49 50.5t-22 70.5q0 36 16.5 65t39.5 48.5t46.5 39t40 48t16.5 64.5q0 38 -20.5 63t-50.5 31zM229 192q51 0 79.5 -30t28.5 -76q0 -47 -28 -76t-80 -29t-79.5 29t-27.5 76q0 46 28 76t79 30z" />
    <glyph glyph-name="at" unicode="@" horiz-adv-x="833" 
d="M518 575l1 5q123 -6 199.5 -78.5t76.5 -168.5q0 -102 -76.5 -184t-176.5 -82q-28 0 -50 14.5t-22 48.5q0 39 13.5 113t13.5 106q0 38 -15 43l1 4q14 -2 46.5 -9t54.5 -7q19 0 33.5 4t20.5 8l5 5l-40 -275q-1 -8 -1 -19q0 -15 12 -15q35 0 77 75t42 166q0 93 -56 165.5
t-159 80.5zM470 579l-1 -6q-55 -5 -101.5 -32.5t-78 -67.5t-54 -89.5t-32.5 -98.5t-10 -95q0 -60 14.5 -112t44 -94.5t80.5 -67t118 -24.5t132 29.5t92 58.5l4 -4q-40 -45 -114 -77t-157 -32q-173 0 -271 86.5t-98 235.5q0 50 14 100.5t47 101.5t81.5 91t123.5 66.5
t166 30.5zM442 130l3 -4q-16 -27 -41.5 -43t-51.5 -16q-47 0 -73 33.5t-26 86.5q0 87 57.5 148t145.5 62l-1 -6q-26 -7 -42 -77.5t-16 -131.5q0 -60 27 -60q8 0 18 8z" />
    <glyph glyph-name="A" unicode="A" horiz-adv-x="789" 
d="M192 286l3 10h196l-96 324l17 49l172 52l217 -645q23 -69 79 -69v-7q-55 3 -193 3l-187 -3v7q55 0 55 49q0 22 -16 78l-45 152h-202zM146 181l8 -1l-10 -33q-9 -28 -12.5 -46.5t-2.5 -38t10.5 -30.5t30 -18t52.5 -7v-7q-54 3 -121 3l-92 -3v7q78 0 126 142z" />
    <glyph glyph-name="B" unicode="B" horiz-adv-x="750" 
d="M387 693v6q9 1 37 1q51 0 96.5 -8.5t85 -26t63 -50.5t23.5 -77q0 -73 -63 -115.5t-164 -45.5v-4q117 -4 189 -56t72 -126q0 -100 -76 -145.5t-203 -45.5h-27v7q32 10 42.5 55t10.5 125q0 181 -86 186v6q65 13 65 159q0 139 -65 155zM358 8v-7q-15 0 -70.5 1t-75.5 1
l-192 -3v7q75 0 75 125v472q0 51 -17.5 70t-57.5 19v7q88 -3 192 -3q29 0 117 2v-603q0 -82 29 -88z" />
    <glyph glyph-name="C" unicode="C" horiz-adv-x="742" 
d="M409 -10v-9q-187 0 -286 96.5t-99 256.5q0 165 106.5 275t278.5 110v-9q-26 -3 -46 -20t-37 -55t-26 -107t-9 -167q0 -344 118 -371zM690 486q-20 95 -81 151.5t-136 69.5v8q16 -2 89.5 -15t134.5 -13v-201h-7zM705 265h7l-31 -243q-55 0 -124.5 -17t-83.5 -19v7
q71 16 137.5 89.5t94.5 182.5z" />
    <glyph glyph-name="D" unicode="D" horiz-adv-x="818" 
d="M420 0v7q54 4 88 83.5t34 248.5q0 161 -39.5 255t-115.5 99v7q187 0 297 -89t110 -244q0 -171 -101.5 -268t-272.5 -99zM358 7v-7q-15 0 -70.5 1t-75.5 1l-192 -3v7q75 0 75 125v472q0 51 -17.5 70t-57.5 19v7q88 -3 192 -3q29 0 117 2v-603q0 -82 29 -88z" />
    <glyph glyph-name="E" unicode="E" horiz-adv-x="678" 
d="M387 692v6q44 0 232 2v-214h-7q-11 97 -72 151.5t-153 54.5zM420 1v8q84 0 147 71t85 194h8l-46 -274q-133 0 -194 1zM387 367v7q58 0 91 36.5t33 106.5h7v-320h-7q0 170 -124 170zM358 8v-7q-15 0 -70.5 1t-75.5 1l-192 -3v7q75 0 75 125v472q0 51 -17.5 70t-57.5 19v7
q88 -3 192 -3q29 0 117 2v-603q0 -82 29 -88z" />
    <glyph glyph-name="F" unicode="F" horiz-adv-x="648" 
d="M387 692v6q44 0 232 2v-214h-7q-11 97 -72 151.5t-153 54.5zM387 353v7q58 0 91 36.5t33 106.5h7v-320h-7q0 170 -124 170zM329 699v-603q0 -50 21.5 -69.5t63.5 -19.5v-7q-98 3 -202 3l-192 -3v7q75 0 75 125v472q0 51 -17.5 70t-57.5 19v7q88 -3 192 -3z" />
    <glyph glyph-name="G" unicode="G" horiz-adv-x="837" 
d="M473 -15v7q39 9 39 79v170q0 51 -17.5 70t-57.5 19v7h380v-7q-75 0 -75 -125v-183q-80 0 -164 -17t-105 -20zM409 -10v-9q-187 0 -286 96.5t-99 256.5q0 165 106.5 275t278.5 110v-9q-26 -3 -46 -20t-37 -55t-26 -107t-9 -167q0 -344 118 -371zM690 486q-20 95 -81 151.5
t-136 69.5v8q16 -2 89.5 -15t134.5 -13v-201h-7z" />
    <glyph glyph-name="H" unicode="H" horiz-adv-x="853" 
d="M393 360v10h131v234q0 51 -17.5 70t-57.5 19v7q88 -3 192 -3l192 3v-7q-75 0 -75 -125v-472q0 -51 17.5 -70t57.5 -19v-7q-88 3 -192 3l-192 -3v7q75 0 75 125v228h-131zM329 568v-472q0 -51 17.5 -70t57.5 -19v-7q-88 3 -192 3l-192 -3v7q75 0 75 125v472q0 51 -17.5 70
t-57.5 19v7q88 -3 192 -3l192 3v-7q-75 0 -75 -125z" />
    <glyph glyph-name="I" unicode="I" 
d="M404 700v-7q-75 0 -75 -125v-472q0 -51 17.5 -70t57.5 -19v-7q-88 3 -192 3l-192 -3v7q75 0 75 125v472q0 51 -17.5 70t-57.5 19v7q88 -3 192 -3z" />
    <glyph glyph-name="J" unicode="J" 
d="M0 -219q9 15 31 39t34 42q30 44 30 147v595q0 51 -17.5 70t-57.5 19v7q88 -3 192 -3l192 3v-7q-75 0 -75 -125v-491q0 -122 -71 -182q-36 -31 -127.5 -57t-126.5 -62z" />
    <glyph glyph-name="K" unicode="K" horiz-adv-x="846" 
d="M581 584l-5 5q20 26 20 47q0 57 -86 57v7q50 -3 156 -3l142 3v-7q-71 0 -126 -24t-101 -85zM329 568v-472q0 -51 17.5 -70t57.5 -19v-7q-88 3 -192 3l-192 -3v7q75 0 75 125v472q0 51 -17.5 70t-57.5 19v7q88 -3 192 -3l192 3v-7q-75 0 -75 -125zM376 327l150 190
l252 -435q36 -60 80 -60v-8q-48 -33 -142 -33q-83 0 -139 30.5t-91 99.5z" />
    <glyph glyph-name="L" unicode="L" horiz-adv-x="674" 
d="M420 1v8q82 0 146.5 83.5t89.5 203.5h8l-42 -296q-141 0 -202 1zM95 132v472q0 51 -17.5 70t-57.5 19v7q88 -3 192 -3l192 3v-7q-75 0 -75 -125v-472q0 -82 29 -88v-7q-15 0 -70.5 1t-75.5 1l-192 -3v7q75 0 75 125z" />
    <glyph glyph-name="M" unicode="M" horiz-adv-x="991" 
d="M662 136l-34 451q-3 35 -7.5 62.5t-7.5 37.5l-3 10l324 3v-7q-41 0 -58.5 -19t-16.5 -70l45 -508q4 -52 20 -70.5t55 -18.5v-7q-78 3 -187 3l-201 -3v7q82 0 71 129zM523 186l-47 -186l-120 -18l-208 625q-17 50 -33.5 68t-53.5 18v7q140 -3 326 -3q0 -56 18 -116z
M104 184l9 -1q-6 -91 25.5 -133.5t86.5 -42.5v-7q-77 3 -126 3l-89 -3v7q38 0 61 29.5t30 107.5z" />
    <glyph glyph-name="N" unicode="N" horiz-adv-x="759" 
d="M90 184h9v-32q0 -145 144 -145v-7q-108 3 -143 3l-85 -3v7q75 0 75 145v32zM664 205v-205l-154 -18l-418 649q-24 36 -38.5 49t-38.5 13v7q153 -3 339 -3q4 -34 46 -97zM664 514h-9v34q0 75 -36.5 110t-96.5 35v7q104 -3 139 -3l90 3v-7q-37 0 -62 -35.5t-25 -109.5v-34z
" />
    <glyph glyph-name="O" unicode="O" horiz-adv-x="795" 
d="M416 719q168 -4 261.5 -99t93.5 -253q0 -152 -88 -259t-239 -124v6q35 17 48.5 100t13.5 249q0 164 -24 266t-66 108v6zM380 -12v-7q-168 4 -262 99.5t-94 253.5q0 152 88.5 258.5t239.5 124.5v-7q-35 -17 -48.5 -101.5t-13.5 -247.5q0 -166 23 -263.5t67 -109.5z" />
    <glyph glyph-name="P" unicode="P" horiz-adv-x="707" 
d="M387 693v6q9 1 28 1q129 0 201.5 -51.5t72.5 -147.5t-76.5 -152t-225.5 -56v6q72 11 72 199q0 193 -72 195zM329 699v-602q0 -50 21.5 -70t61.5 -20v-7q-96 3 -200 3l-192 -3v7q75 0 75 125v472q0 51 -17.5 70t-57.5 19v7q88 -3 192 -3z" />
    <glyph glyph-name="Q" unicode="Q" horiz-adv-x="795" 
d="M436 -42l2 7q66 -6 181.5 -33.5t245 -50t258.5 -22.5q88 0 183.5 17.5t157.5 50.5l4 -3q-36 -49 -70 -83t-80 -66.5t-105 -49t-130 -16.5q-80 0 -153.5 22t-132.5 55t-114 67t-119.5 64t-127.5 41zM416 719q168 -4 261.5 -99t93.5 -253q0 -152 -88 -259t-239 -124v6
q35 17 48.5 100t13.5 249q0 341 -90 372v8zM380 -11v-8q-168 4 -262 99.5t-94 253.5q0 152 88.5 258.5t239.5 124.5v-7q-35 -17 -48.5 -101.5t-13.5 -247.5q0 -161 23 -259t67 -113z" />
    <glyph glyph-name="R" unicode="R" horiz-adv-x="787" 
d="M329 698v-602q0 -51 17.5 -70t57.5 -19v-7q-88 3 -192 3l-192 -3v7q75 0 75 125v472q0 51 -17.5 70t-57.5 19v7q88 -3 192 -3q79 0 117 1zM387 331v7q37 3 56 41.5t19 133.5q0 79 -19 127t-56 52v7q1 0 12 0.5t16 0.5q79 0 140.5 -16t104 -57t42.5 -104q0 -76 -60.5 -123
t-208.5 -62v-4q117 0 177.5 -35t82.5 -116l31 -111q17 -59 53 -59q9 0 19 3l1 -5q-20 -12 -63.5 -21t-88.5 -9q-189 0 -206 162l-13 123q-4 35 -12 49t-27 16z" />
    <glyph glyph-name="S" unicode="S" horiz-adv-x="610" 
d="M517 491q-12 83 -59 146.5t-117 73.5v7q15 -1 83 -10.5t109 -9.5l-9 -207h-7zM247 -9v-7q-13 1 -76 14t-127 13l-10 251h7q24 -111 76 -183t130 -88zM215 623q0 -33 20.5 -61.5t53 -49t71.5 -41t78 -44t71.5 -51t53 -68t20.5 -90.5q0 -105 -79.5 -169t-192.5 -68v7
q47 6 71.5 35t24.5 68q0 43 -38.5 80t-93.5 67t-110 63.5t-93.5 85t-38.5 116.5q0 93 63.5 150.5t180.5 64.5v-7q-27 -7 -44.5 -31t-17.5 -57z" />
    <glyph glyph-name="T" unicode="T" horiz-adv-x="759" 
d="M496 96q0 -51 17.5 -70t57.5 -19v-7q-88 3 -192 3l-192 -3v7q75 0 75 125v565h104q85 0 130 1v-602zM204 698v-6q-65 -10 -112 -70t-62 -143l-7 3l18 218q64 -1 163 -2zM553 698l182 2l-18 -221l-7 3q0 91 -40 145.5t-117 64.5v6z" />
    <glyph glyph-name="U" unicode="U" horiz-adv-x="755" 
d="M637 105l9 -2q-27 -71 -90 -94.5t-168 -23.5q-293 0 -293 244v375q0 51 -17.5 70t-57.5 19v7q88 -3 192 -3l192 3v-7q-75 0 -75 -125v-341q0 -114 39.5 -166t122.5 -52q51 0 89.5 24.5t56.5 71.5zM664 514h-9v34q0 75 -36.5 110t-96.5 35v7q104 -3 139 -3l90 3v-7
q-37 0 -62 -35.5t-25 -109.5v-34z" />
    <glyph glyph-name="V" unicode="V" horiz-adv-x="780" 
d="M498 106l-33 -106l-168 -18l-199 633q-15 48 -31.5 63t-50.5 15v7q74 -3 187 -3l202 3v-7q-60 0 -60 -46q0 -15 13 -59zM628 514l-7 2l10 32q13 42 13 74q0 71 -93 71v7q43 -3 118 -3l95 3v-7q-37 0 -66.5 -33t-57.5 -112z" />
    <glyph glyph-name="W" unicode="W" horiz-adv-x="1083" 
d="M464 192l-54 -192l-117 -18l-204 651q-18 60 -78 60v7q109 -3 194 -3l178 3v-7q-41 0 -41 -42q0 -18 8 -46zM834 187l-56 -186l-130 -19l-177 650q-9 33 -22.5 47t-42.5 14v7q105 -3 174 -3l132 3q0 -34 15 -95zM932 525l-7 3q17 57 17 94q0 71 -92 71v7q73 -3 123 -3
l94 3v-7q-42 0 -74.5 -35.5t-60.5 -132.5z" />
    <glyph glyph-name="X" unicode="X" horiz-adv-x="809" 
d="M259 224l9 -5q-43 -72 -43 -117q0 -43 30.5 -69t88.5 -26v-7q-137 3 -183 3l-138 -3v7q59 0 109.5 48t103.5 131zM416 586l316 -505q23 -37 47.5 -55.5t65.5 -18.5v-7q-157 3 -210 3l-221 -3v7q63 0 63 43q0 25 -22 61l-325 517q-24 38 -40.5 51.5t-47.5 13.5v7
q72 -3 194 -3l208 3v-7q-41 0 -46.5 -35.5t18.5 -71.5zM574 525l-5 7q34 55 34 90q0 33 -28.5 52t-78.5 19v7q118 -3 157 -3l133 3v-7q-102 0 -181 -121z" />
    <glyph glyph-name="Y" unicode="Y" horiz-adv-x="752" 
d="M497 379v-283q0 -51 17.5 -70t57.5 -19v-7q-88 3 -192 3l-192 -3v7q75 0 75 125v235l-169 273q-33 53 -78 53v7q82 -3 200 -3l197 3v-7q-24 0 -38.5 -12.5t-14.5 -31.5q0 -25 24 -67zM566 513l-7 3q41 77 41 117q0 60 -88 60v7q46 -3 127 -3l97 3v-7q-31 0 -70 -33.5
t-73 -96.5z" />
    <glyph glyph-name="Z" unicode="Z" horiz-adv-x="718" 
d="M356 692q-128 -4 -199.5 -55t-100.5 -179h-7l31 242h276v-8zM684 282h7l-39 -282h-293v9q262 15 325 273zM681 690l-391 -690h-259l-4 10l396 690h254z" />
    <glyph glyph-name="bracketleft" unicode="[" horiz-adv-x="360" 
d="M300 -159v-9h-260v936h260v-10h-60v-917h60z" />
    <glyph glyph-name="backslash" unicode="\" horiz-adv-x="416" 
d="M70 750l291 -942h-14l-291 942h14z" />
    <glyph glyph-name="bracketright" unicode="]" horiz-adv-x="360" 
d="M60 -168v9h60v917h-60v10h260v-936h-260z" />
    <glyph glyph-name="asciicircum" unicode="^" horiz-adv-x="364" 
d="M186 750l178 -336h-11l-171 324l-171 -324h-11l178 336h8z" />
    <glyph glyph-name="underscore" unicode="_" horiz-adv-x="564" 
d="M564 -76h-564v10h564v-10z" />
    <glyph glyph-name="grave" unicode="`" horiz-adv-x="271" 
d="M34 688q0 26 19 44t52 18l132 -206l-2 -3q-82 18 -141.5 58t-59.5 89z" />
    <glyph glyph-name="a" unicode="a" horiz-adv-x="607" 
d="M310 32l3 -6q-7 -3 -38 -17t-58.5 -21.5t-58.5 -7.5q-58 0 -96.5 27t-38.5 81q0 72 70 114.5t199 47.5l-1 -9q-48 -28 -48 -133q0 -35 12.5 -57t35.5 -22q1 0 19 3zM145 293q-40 0 -64.5 21t-24.5 55q0 50 60 84t145 44v-7q-18 -5 -28.5 -25.5t-10.5 -46.5q0 -54 29 -90
q-20 -15 -50.5 -25t-55.5 -10zM599 39l4 -3q-31 -53 -129 -53q-82 0 -117 42.5t-35 135.5q0 31 4 106t4 128q0 49 -7.5 71.5t-29.5 25.5v7q9 1 21 1q126 0 177 -47.5t51 -153.5q0 -51 -5 -115t-5 -96q0 -65 38 -65q17 0 29 16z" />
    <glyph glyph-name="b" unicode="b" horiz-adv-x="664" 
d="M461 500q82 0 133.5 -65t51.5 -161q0 -121 -76.5 -202t-206.5 -91v8q47 29 47 243q0 207 -61 207q-10 0 -20 -5v8q8 5 26.5 17.5t30.5 20t32.5 14t42.5 6.5zM331 -11v-9q-95 0 -172 48l-109 -36l-4 6q29 28 29 113v531q0 28 -13.5 39.5t-41.5 11.5l-2 7q68 0 137.5 12.5
t105.5 25.5l36 12v-670q0 -81 34 -91z" />
    <glyph glyph-name="c" unicode="c" horiz-adv-x="571" 
d="M399 35q75 0 139 43l3 -3q-80 -95 -231 -95q-138 0 -215 67t-77 181q0 111 88 190.5t220 81.5v-8q-32 -13 -53 -77t-21 -165q0 -95 38 -155t109 -60zM358 491v8q90 -4 142.5 -37t52.5 -86q0 -35 -28 -59t-76 -24q-55 0 -88 30q27 41 27 95q0 60 -30 73z" />
    <glyph glyph-name="d" unicode="d" horiz-adv-x="658" 
d="M333 491v9q11 0 33 -2v144q0 28 -13.5 39.5t-41.5 11.5l-2 7q68 0 137.5 12.5t105.5 25.5l36 12v-661q0 -29 12.5 -40.5t40.5 -11.5l5 -8q-68 0 -135.5 -12t-101.5 -25l-34 -12l-8 78v354q0 68 -34 79zM203 -20q-82 0 -133.5 65t-51.5 161q0 121 76.5 202t206.5 91v-8
q-47 -29 -47 -243q0 -207 61 -207q10 0 20 5v-8q-8 -5 -26.5 -17.5t-30.5 -20t-32.5 -14t-42.5 -6.5z" />
    <glyph glyph-name="e" unicode="e" horiz-adv-x="586" 
d="M334 500q103 -2 166 -52t68 -143l-10 -12h-270v7l78 8q4 27 4 62q0 48 -10 82.5t-26 38.5v9zM395 36q75 0 137 43l4 -4q-80 -95 -232 -95q-138 0 -212 67t-74 181q0 106 81.5 184.5t203.5 86.5v-9q-51 -23 -51 -228q0 -226 143 -226z" />
    <glyph glyph-name="f" unicode="f" horiz-adv-x="402" 
d="M297 583v-103h96v-7h-96v-424q0 -42 55 -42v-7q-72 3 -166 3l-169 -3v7q58 0 58 70v396h-42v7h42q0 118 73 193.5t192 88.5v-7q-43 -17 -43 -172zM372 764q44 0 83.5 -9t70.5 -34.5t31 -63.5q0 -42 -27 -68t-75 -26q-29 0 -56.5 11.5t-42.5 28.5q13 19 23.5 49t10.5 53
q0 42 -18 51v8z" />
    <glyph glyph-name="g" unicode="g" horiz-adv-x="641" 
d="M278 492v8q39 0 80 -10t78.5 -29.5t61.5 -54t24 -78.5q0 -70 -65 -123.5t-172 -61.5v7q20 5 27 43t7 123q0 64 -12 118t-29 58zM254 142q-39 0 -77.5 9.5t-74.5 28.5t-58.5 53.5t-22.5 78.5q0 71 60 124.5t165 62.5v-8q-14 -8 -18 -46t-4 -119q0 -165 30 -175v-9z
M589 515q27 -4 42 -21.5t15 -39.5q0 -25 -15.5 -41.5t-42.5 -16.5q-29 0 -71.5 35.5t-56.5 42.5q88 1 129 41zM203 -262v-7q-98 5 -151 34t-53 80q0 37 25 57.5t55 20.5q40 0 63 -21q-28 -28 -28 -64q0 -81 89 -100zM387 -252l-3 8q48 24 48 81q0 38 -34.5 61.5t-91.5 23.5
h-59q-88 0 -151 27t-63 82q0 47 40 72t88 31l5 -4q-10 -6 -10 -16q0 -21 91 -21h76q126 0 194.5 -40.5t68.5 -114.5q0 -73 -55.5 -120.5t-143.5 -69.5z" />
    <glyph glyph-name="h" unicode="h" horiz-adv-x="694" 
d="M336 7v-7q-52 3 -150 3l-168 -3v7q57 0 57 70v565q0 28 -13.5 39.5t-41.5 11.5l-2 7q68 0 137.5 12.5t105.5 25.5l36 12v-705q0 -38 39 -38zM339 424v7q17 7 47 26.5t57 31t55 11.5q60 0 93 -36t33 -105v-299q0 -32 12 -42.5t43 -10.5v-7q-66 3 -165 3l-149 -3v7
q20 0 28.5 10.5t8.5 36.5v331q0 21 -10 33t-26 12q-11 0 -27 -6z" />
    <glyph glyph-name="i" unicode="i" horiz-adv-x="367" 
d="M336 7v-7q-48 3 -149 3l-169 -3v7q57 0 57 70v316q0 28 -13.5 39.5t-41.5 11.5l-2 7q68 0 137.5 12.5t105.5 24.5l36 12v-455q0 -38 39 -38zM184 533q-56 0 -85 26.5t-29 69.5q0 44 29 71.5t85 27.5t85.5 -27.5t29.5 -71.5q0 -43 -29.5 -69.5t-85.5 -26.5z" />
    <glyph glyph-name="j" unicode="j" horiz-adv-x="372" 
d="M302 500v-441q0 -151 -100 -214q-37 -23 -127.5 -44.5t-121.5 -45.5l-5 5q7 7 47.5 38t56.5 58q18 32 23 68.5t5 102.5v366q0 28 -13.5 39.5t-41.5 11.5l-2 7q68 0 137.5 12.5t105.5 24.5zM189 533q-56 0 -85 26.5t-29 69.5q0 44 29 71.5t85 27.5t85.5 -27.5t29.5 -71.5
q0 -43 -29.5 -69.5t-85.5 -26.5z" />
    <glyph glyph-name="k" unicode="k" horiz-adv-x="710" 
d="M477 386l-4 5q15 19 15 39q0 43 -84 43v7h264v-7q-67 0 -106.5 -19.5t-84.5 -67.5zM453 366l190 -289q20 -31 35.5 -44t36.5 -13v-5q-55 -35 -140 -35q-68 0 -110.5 27t-76.5 87l-66 117zM336 7v-7q-48 3 -149 3l-169 -3v7q57 0 57 70v565q0 28 -13.5 39.5t-41.5 11.5
l-2 7q68 0 137.5 12.5t105.5 25.5l36 12v-705q0 -38 39 -38z" />
    <glyph glyph-name="l" unicode="l" horiz-adv-x="367" 
d="M336 7v-7q-48 3 -149 3l-169 -3v7q57 0 57 70v565q0 28 -13.5 39.5t-41.5 11.5l-2 7q68 0 137.5 12.5t105.5 25.5l36 12v-705q0 -38 39 -38z" />
    <glyph glyph-name="m" unicode="m" horiz-adv-x="1009" 
d="M297 45q0 -38 39 -38v-7q-48 3 -149 3l-169 -3v7q57 0 57 70v315q0 29 -12.5 41t-40.5 12l-4 6q68 0 137.5 12.5t105.5 24.5l36 12v-455zM649 424v7q16 7 48 26.5t60 31t56 11.5q60 0 93 -36t33 -105v-299q0 -32 12 -42.5t43 -10.5v-7q-66 3 -165 3l-149 -3v7
q20 0 28.5 10.5t8.5 36.5v331q0 21 -10 33t-26 12t-32 -6zM330 424v7q17 7 47.5 26.5t58 31t55.5 11.5q60 0 93 -36t33 -105v-299q0 -33 8 -43t31 -10v-7q-50 3 -149 3l-149 -3v7q20 0 28.5 10.5t8.5 36.5v331q0 21 -10 33t-26 12q-13 0 -29 -6z" />
    <glyph glyph-name="n" unicode="n" horiz-adv-x="687" 
d="M297 500v-455q0 -38 39 -38v-7q-48 3 -149 3l-169 -3v7q57 0 57 70v316q0 28 -13.5 39.5t-41.5 11.5l-2 7q68 0 137.5 12.5t105.5 24.5zM333 424v7q17 7 47 26.5t57 31t55 11.5q60 0 93 -36t33 -105v-299q0 -32 12 -42.5t43 -10.5v-7q-66 3 -165 3l-149 -3v7
q20 0 28.5 10.5t8.5 36.5v331q0 21 -10 33t-26 12q-11 0 -27 -6z" />
    <glyph glyph-name="o" unicode="o" horiz-adv-x="630" 
d="M306 -10v-10q-120 0 -204 67t-84 181q0 102 74 180t199 90v-8q-39 -29 -39 -242q0 -105 14 -174.5t40 -83.5zM323 500q120 0 204.5 -66t84.5 -182q0 -102 -73.5 -180t-200.5 -90v7q40 27 40 243q0 232 -55 259v9z" />
    <glyph glyph-name="p" unicode="p" horiz-adv-x="662" 
d="M297 -18v-155q0 -71 57 -71v-6h-337v6q58 0 58 71v564q0 29 -12.5 40.5t-40.5 11.5l-5 8q68 0 135.5 12.5t101.5 24.5l34 12l8 -78v-354q0 -73 34 -79v-9q-11 0 -33 2zM460 500q82 0 133.5 -65t51.5 -161q0 -129 -77 -211t-206 -82v8q47 25 47 243q0 207 -61 207
q-10 0 -20 -5v8q8 5 26.5 17.5t30.5 20t32.5 14t42.5 6.5z" />
    <glyph glyph-name="q" unicode="q" horiz-adv-x="658" 
d="M367 -173v586q0 73 -34 80v7q104 0 170 -48l111 36l4 -5q-30 -32 -30 -113v-576q0 -38 39 -38v-6h-318v6q58 0 58 71zM203 -20q-82 0 -133.5 65t-51.5 161q0 121 76.5 202t206.5 91v-8q-47 -23 -47 -243q0 -207 61 -207q10 0 20 5v-8q-8 -5 -26.5 -17.5t-30.5 -20
t-32.5 -14t-42.5 -6.5z" />
    <glyph glyph-name="r" unicode="r" horiz-adv-x="563" 
d="M337 410l-1 8q11 7 30.5 29t41.5 37.5t48 15.5q42 0 69.5 -28t27.5 -68q0 -43 -28 -74.5t-76 -31.5q-41 0 -65 20q12 24 12 46q0 21 -10.5 35t-31.5 14q-10 0 -17 -3zM297 500v-448q0 -45 53 -45v-7q-62 3 -163 3l-169 -3v7q57 0 57 70v316q0 28 -13.5 39.5t-41.5 11.5
l-2 7q68 0 137.5 12.5t105.5 24.5z" />
    <glyph glyph-name="s" unicode="s" horiz-adv-x="518" 
d="M440 325q-9 62 -49 110.5t-98 56.5v7q19 -2 70 -12t90 -10l-6 -152h-7zM224 447q0 -30 27.5 -56t67 -47.5t79 -45t67 -61.5t27.5 -85q0 -79 -62.5 -125t-179.5 -47v9q46 1 46 51q0 31 -27 58.5t-65.5 49.5t-77 46.5t-65.5 61.5t-27 83q0 75 60.5 117t164.5 44v-7
q-35 -7 -35 -46zM216 -10v-9q-1 0 -55 10.5t-116 10.5l-9 179h6q13 -72 63 -127.5t111 -63.5z" />
    <glyph glyph-name="t" unicode="t" horiz-adv-x="386" 
d="M372 60l4 -4q-25 -36 -71 -56t-100 -20q-69 0 -107 32t-38 108v353h-38v7q71 0 141.5 40.5t111.5 99.5l6 -2v-138h61v-7h-61v-385q0 -23 11.5 -34.5t28.5 -11.5q29 0 51 18z" />
    <glyph glyph-name="u" unicode="u" horiz-adv-x="684" 
d="M392 58v378q0 38 -38 38v6l252 9l8 -8v-394q0 -28 13.5 -39.5t41.5 -11.5l2 -7q-68 0 -135.5 -12t-101.5 -25l-33 -12zM292 481v-386q0 -21 10 -33t26 -12q11 0 27 6v-7q-8 -3 -63.5 -36t-95.5 -33q-60 0 -93 36t-33 105v299q0 33 -11.5 43.5t-42.5 10.5v6l268 9z" />
    <glyph glyph-name="v" unicode="v" horiz-adv-x="645" 
d="M356 480v-7q-39 0 -39 -37q0 -17 12 -50l104 -292l-33 -94h-156l-169 424q-10 26 -23 37.5t-41 11.5v7q91 -4 193 -4zM504 298l-7 2q20 67 20 97q0 76 -80 76v7q44 -4 107 -4l91 4v-7q-73 0 -114 -123z" />
    <glyph glyph-name="w" unicode="w" horiz-adv-x="986" 
d="M405 90l-32 -90h-150l-148 424q-10 27 -22.5 38t-41.5 11v7q86 -2 188 -2l152 2v-7q-37 0 -37 -35q0 -21 8 -52zM786 91l-27 -91h-163l-128 397q-24 76 -77 76v7q59 -4 138 -4l169 4q-1 -34 12 -87zM845 298l-7 2q18 65 18 97q0 72 -80 76v7q44 -4 107 -4l91 4v-7
q-38 0 -68 -33.5t-46 -89.5z" />
    <glyph glyph-name="x" unicode="x" horiz-adv-x="628" 
d="M194 157l4 -4q-91 -147 45 -147v-6q-77 4 -144 4l-107 -4v6q98 0 202 151zM359 403l200 -342q33 -55 80 -55v-6q-92 4 -185 4l-169 -4v6q39 0 39 26q0 14 -16 42l-207 349q-18 30 -32.5 40.5t-44.5 10.5v6q95 -4 192 -4l164 4v-6q-33 0 -33 -31q0 -18 12 -40zM444 356
l-4 5q12 18 20 36t10.5 36.5t-10 29.5t-40.5 11v6q40 -4 87 -4l85 4v-6q-68 0 -137 -102z" />
    <glyph glyph-name="y" unicode="y" horiz-adv-x="646" 
d="M433 95l-33 -95h-156l-169 422q-10 26 -23 37.5t-41 11.5v9q91 -4 193 -4l152 4v-9q-39 0 -39 -37q0 -17 12 -50zM351 -106l7 -4q-57 -126 -152 -126q-63 0 -98.5 31.5t-35.5 79.5q0 43 30 72t80 29q47 0 73.5 -28t26.5 -60q-30 -7 -47.5 -25t-17.5 -40q0 -15 8.5 -25
t23.5 -10q54 0 102 106zM504 298l-7 2q20 67 20 97q0 33 -19 54.5t-61 21.5v7q44 -4 107 -4l91 4v-7q-73 0 -114 -123z" />
    <glyph glyph-name="z" unicode="z" horiz-adv-x="552" 
d="M259 0h-232l-6 9l262 471h236l4 -9zM318 0v6q70 4 124.5 65t81.5 163h6l-36 -234h-176zM232 480v-6q-65 -7 -112 -56t-72 -134h-6l31 196h159z" />
    <glyph glyph-name="braceleft" unicode="{" horiz-adv-x="427" 
d="M72 302v-4q114 -2 170.5 -41.5t56.5 -134.5q0 -33 -7.5 -98.5t-7.5 -100.5q0 -46 17 -65t55 -19v-7q-52 0 -87.5 3t-75.5 13.5t-63.5 29.5t-39.5 53.5t-16 83.5q0 38 12 105.5t12 92.5q0 83 -78 83v8q78 0 78 83q0 25 -12 92.5t-12 105.5q0 49 16 83.5t39.5 53.5
t63.5 29.5t75.5 13.5t87.5 3v-7q-38 0 -55 -19t-17 -65q0 -35 7.5 -100.5t7.5 -98.5q0 -95 -56.5 -134.5t-170.5 -41.5z" />
    <glyph glyph-name="bar" unicode="|" horiz-adv-x="160" 
d="M75 -268v1102h10v-1102h-10z" />
    <glyph glyph-name="braceright" unicode="}" horiz-adv-x="427" 
d="M355 298v4q-114 2 -170.5 41.5t-56.5 134.5q0 33 7.5 98.5t7.5 100.5q0 46 -17 65t-55 19v7q52 0 87.5 -3t75.5 -13.5t63.5 -29.5t39.5 -53.5t16 -83.5q0 -38 -12 -105.5t-12 -92.5q0 -83 78 -83v-8q-78 0 -78 -83q0 -25 12 -92.5t12 -105.5q0 -49 -16 -83.5t-39.5 -53.5
t-63.5 -29.5t-75.5 -13.5t-87.5 -3v7q38 0 55 19t17 65q0 35 -7.5 100.5t-7.5 98.5q0 95 56.5 134.5t170.5 41.5z" />
    <glyph glyph-name="asciitilde" unicode="~" horiz-adv-x="455" 
d="M336 276q63 0 85 75l9 -3q-22 -82 -94 -82q-42 0 -109.5 43.5t-105.5 43.5q-63 0 -85 -75l-9 3q22 82 94 82q42 0 109.5 -43.5t105.5 -43.5z" />
    <glyph glyph-name="exclamdown" unicode="&#xa1;" horiz-adv-x="300" 
d="M148 511q52 0 80 -29t28 -76q0 -46 -28.5 -76t-79.5 -30t-79 30t-28 76q0 47 27.5 76t79.5 29zM143 253h16q-3 -18 -3 -52q0 -33 13 -63.5t31.5 -55.5t37 -50.5t31.5 -58.5t13 -69q0 -55 -37 -93t-94 -38t-94 38t-37 93q0 36 13 69t31.5 58.5t37 50.5t31.5 55.5t13 63.5z
" />
    <glyph glyph-name="cent" unicode="&#xa2;" horiz-adv-x="571" 
d="M316 499l-2 -9q-27 -10 -44.5 -76.5t-17.5 -163.5q0 -49 12.5 -95t47.5 -82.5t87 -36.5q74 0 138 43l4 -4q-80 -95 -231 -95l-33 1l-16 -97h-10l16 98q-119 11 -184 76.5t-65 169.5q0 116 85 190.5t213 80.5zM352 491l18 105h9l-16 -97q29 -2 58.5 -8.5t61 -19.5
t51 -37.5t19.5 -57.5q0 -35 -28 -59t-76 -24q-53 0 -86 30q27 41 27 95q0 63 -38 73z" />
    <glyph glyph-name="sterling" unicode="&#xa3;" horiz-adv-x="643" 
d="M151 54l-3 5q48 66 92 91.5t95 25.5q39 0 102 -16t84 -16q43 0 64.5 19t27.5 66h8q0 -121 -57.5 -184.5t-158.5 -63.5q-59 0 -135 37.5t-102 37.5q-7 0 -17 -2zM337 710q-38 -11 -58.5 -67.5t-24.5 -117t-4 -160.5h167v-8h-167q-1 -57 -15.5 -112.5t-62.5 -126.5
t-125 -127l-6 9q44 38 65 74t21 89q0 80 -49 194h-55v8h51q-24 54 -24 110q0 101 83.5 169.5t203.5 73.5v-8zM386 717q101 -6 154 -44t53 -91q0 -41 -28 -67.5t-74 -26.5q-64 0 -105 43q39 49 39 109q0 26 -10 46.5t-29 24.5v6z" />
    <glyph glyph-name="currency" unicode="&#xa4;" horiz-adv-x="567" 
d="M51 299q0 90 64 161l-67 68l7 7l67 -68q51 49 121 62l3 -10q-78 -14 -131.5 -76t-53.5 -144t53.5 -144t131.5 -76l-3 -10q-70 13 -121 62l-67 -68l-7 7l67 68q-64 71 -64 161zM516 299q0 -90 -64 -161l67 -68l-7 -7l-67 68q-51 -49 -121 -62l-3 10q78 14 131.5 76
t53.5 144t-53.5 144t-131.5 76l3 10q70 -13 121 -62l67 68l7 -7l-67 -68q64 -71 64 -161z" />
    <glyph glyph-name="yen" unicode="&#xa5;" horiz-adv-x="752" 
d="M150 234h460v-10h-113v-128q0 -51 17.5 -70t57.5 -19v-7q-88 3 -192 3l-192 -3v7q75 0 75 125v92h-113v10zM610 325h-460v10h113v32l-169 273q-33 53 -78 53v7q82 -3 200 -3l197 3v-7q-24 0 -38.5 -12.5t-14.5 -31.5q0 -25 24 -67l113 -203v-44h113v-10zM566 513l-7 3
q41 77 41 117q0 60 -88 60v7q46 -3 127 -3l97 3v-7q-31 0 -70 -33.5t-73 -96.5z" />
    <glyph glyph-name="section" unicode="&#xa7;" horiz-adv-x="565" 
d="M410 -2q0 -25 -8 -52t-27 -57t-59.5 -49t-97.5 -19q-68 0 -105.5 25.5t-37.5 59.5q0 28 19.5 47t57.5 19q45 0 72 -19q-18 -33 -18 -71q0 -51 46 -51q36 0 65.5 29.5t29.5 86.5q0 45 -33.5 92t-81 90t-95 89.5t-81 109t-33.5 130.5q0 75 47 134t128 97l3 -3
q-68 -65 -68 -169q0 -56 28.5 -113t69.5 -104.5t81.5 -94.5t69 -101t28.5 -106zM432 23q0 58 -28.5 116t-69 106t-81.5 95t-69.5 99.5t-28.5 102.5q0 25 8 52t27 57t59.5 49t97.5 19q69 0 106 -23.5t37 -56.5q0 -29 -19.5 -50t-57.5 -21q-45 0 -72 19q18 33 18 71
q0 51 -46 51q-36 0 -65.5 -29.5t-29.5 -86.5q0 -38 24 -80t60 -77t78 -78t78 -82.5t60 -91t24 -102.5q0 -75 -47 -134t-128 -97l-3 3q68 65 68 169z" />
    <glyph glyph-name="dieresis" unicode="&#xa8;" horiz-adv-x="583" 
d="M179 543q-42 0 -64 23.5t-22 61.5q0 37 22 61.5t64 24.5t64.5 -24.5t22.5 -61.5q0 -38 -22.5 -61.5t-64.5 -23.5zM402 543q-41 0 -63 24t-22 61t22.5 61.5t62.5 24.5q43 0 65.5 -24.5t22.5 -61.5q0 -38 -22.5 -61.5t-65.5 -23.5z" />
    <glyph glyph-name="copyright" unicode="&#xa9;" horiz-adv-x="833" 
d="M479 562v7q9 -1 31.5 -5.5t42 -6.5t43.5 -2v-122h-5q-11 51 -42 84.5t-70 44.5zM190 343q0 100 67 165.5t173 65.5v-6q-23 -2 -39 -16.5t-27.5 -63t-11.5 -130.5q0 -106 19.5 -163t50.5 -61v-8q-106 0 -169 55.5t-63 161.5zM604 288l-17 -135q-23 0 -42 -3.5t-40 -9.5
t-34 -9v7q41 11 76 50t51 100h6zM391 -3v-15q-143 10 -238.5 115.5t-95.5 252.5t95.5 252.5t238.5 115.5v-15q-135 -10 -225.5 -110.5t-90.5 -242.5q0 -141 90.5 -242t225.5 -111zM440 718q144 -9 239.5 -114.5t95.5 -253.5q0 -147 -96 -253t-239 -115v15q134 9 225.5 110
t91.5 243t-91.5 243t-225.5 110v15z" />
    <glyph glyph-name="ordfeminine" unicode="&#xaa;" horiz-adv-x="472" 
d="M23 313h425v-10h-425v10zM230 406l3 -8q-4 -2 -25.5 -12.5t-39 -15.5t-38.5 -5q-40 0 -66 18.5t-26 54.5q0 48 45.5 77.5t129.5 33.5v-6q-26 -15 -26 -78q0 -27 9 -44t24 -17q6 0 10 2zM121 578q-27 0 -44 14.5t-17 37.5q0 34 39.5 57t96.5 29v-6q-23 -8 -23 -47
q0 -34 20 -61q-33 -24 -72 -24zM430 407l4 -4q-21 -36 -89 -36q-50 0 -77 31.5t-27 89.5q0 24 3 76.5t3 83.5q0 32 -3.5 46.5t-17.5 17.5v7q85 0 125 -28t40 -108q0 -35 -3 -78t-3 -65q0 -44 25 -44q11 0 20 11z" />
    <glyph glyph-name="guillemotleft" unicode="&#xab;" horiz-adv-x="440" 
d="M28 277l245 230l6 -6l-108 -234l108 -234l-6 -6l-245 230v20zM209 277l197 186l6 -6l-77 -190l77 -193l-6 -6l-197 189v20z" />
    <glyph glyph-name="logicalnot" unicode="&#xac;" horiz-adv-x="441" 
d="M0 357h441v-222h-11v212h-430v10z" />
    <glyph glyph-name="registered" unicode="&#xae;" horiz-adv-x="284" 
d="M204 636q0 -34 -45 -34v-2q36 0 43 -29l4 -18q3 -12 14 -12l1 -3q-12 -6 -30 -6q-32 0 -36 31l-3 22q-1 12 -8 13v4q14 4 14 34t-14 30v4q60 0 60 -34zM72 540q14 0 14 24v84q0 17 -14 17v5q17 -1 37 -1q16 0 22 1v-113q0 -17 15 -17v-5q-17 1 -37 1l-37 -1v5zM126 493
v-7q-45 5 -73 37.5t-28 78.5t28 78.5t73 37.5v-7q-41 -5 -67 -35.5t-26 -73.5t26 -73.5t67 -35.5zM158 718q44 -5 72.5 -37.5t28.5 -78.5t-28.5 -78.5t-72.5 -37.5v7q41 5 67 35.5t26 73.5t-26 73.5t-67 35.5v7z" />
    <glyph glyph-name="macron" unicode="&#xaf;" horiz-adv-x="375" 
d="M32 615h311v-10h-311v10z" />
    <glyph glyph-name="degree" unicode="&#xb0;" horiz-adv-x="314" 
d="M142 491v-11q-47 5 -79 38.5t-32 79.5q0 47 31.5 81t79.5 39v-11q-42 -5 -70.5 -36t-28.5 -73q0 -41 28.5 -71.5t70.5 -35.5zM174 718q48 -5 79.5 -39t31.5 -81q0 -46 -32 -79.5t-79 -38.5v11q42 5 70.5 35.5t28.5 71.5q0 42 -28.5 73t-70.5 36v11z" />
    <glyph glyph-name="plusminus" unicode="&#xb1;" horiz-adv-x="441" 
d="M215 487h11v-211h215v-10h-215v-208h-11v208h-215v10h215v211zM0 42h441v-10h-441v10z" />
    <glyph glyph-name="twosuperior" unicode="&#xb2;" horiz-adv-x="372" 
d="M18 428q0 53 38 83t89 30q27 0 81.5 -7.5t83.5 -7.5q32 0 37 29h7q0 -78 -29.5 -114.5t-94.5 -36.5q-39 0 -90.5 18t-71.5 18q-21 0 -31.5 -10.5t-10.5 -25.5h-5q-3 15 -3 24zM140 702q0 -21 -14.5 -36t-40.5 -15q-30 0 -45 18t-15 45q0 30 23.5 54.5t69.5 34.5v-5
q-23 -12 -23 -40q0 -39 43 -43q2 -8 2 -13zM178 809q72 0 118.5 -29t46.5 -77q0 -41 -21 -66.5t-56 -36.5t-71.5 -18.5t-76 -22t-61.5 -37.5l-4 3q9 12 36.5 34t50 41.5t41 54.5t18.5 76q0 62 -40 72v5q8 1 19 1z" />
    <glyph glyph-name="threesuperior" unicode="&#xb3;" horiz-adv-x="363" 
d="M136 405l1 6q37 4 60 39t23 86q0 35 -18.5 57.5t-50.5 22.5q-16 0 -28 -4l-2 6q36 13 59 45.5t23 73.5q0 60 -40 66v5q7 1 15 1q74 0 114 -24t40 -63q0 -71 -116 -90l1 -5q15 4 35 4q43 0 69.5 -23.5t26.5 -60.5q0 -60 -48 -101.5t-136 -41.5q-19 0 -28 1zM144 702
q0 -21 -14.5 -36t-40.5 -15q-30 0 -45 18t-15 45q0 30 23.5 54.5t69.5 34.5v-5q-23 -12 -23 -40q0 -39 43 -43q2 -8 2 -13zM101 417l-3 -4q-39 8 -61 32.5t-22 54.5q0 23 16 42.5t45 19.5q24 0 38 -15.5t14 -35.5q0 -6 -2 -12q-17 -2 -30 -14t-13 -31q0 -23 18 -37z" />
    <glyph glyph-name="acute" unicode="&#xb4;" horiz-adv-x="271" 
d="M237 688q0 -49 -59.5 -89t-141.5 -58l-2 3l132 206q33 0 52 -18t19 -44z" />
    <glyph glyph-name="paragraph" unicode="&#xb6;" horiz-adv-x="549" 
d="M186 -185q-75 0 -121 22.5t-46 69.5q0 34 23 51t55 17q37 0 54 -15q-15 -30 -15 -65q0 -30 13 -50t37 -20q66 0 97.5 73t31.5 173v213h-54q-237 0 -237 207q0 209 248 209q33 0 52 -1v-628q0 -66 -12 -121t-44.5 -95t-81.5 -40zM303 -164l-3 7q40 27 60 86t20 181v587h23
l126 3v-7q-75 0 -75 -125v-407q0 -71 -10.5 -126.5t-24.5 -87t-38 -56.5t-39 -34.5t-39 -20.5z" />
    <glyph glyph-name="periodcentered" unicode="&#xb7;" horiz-adv-x="289" 
d="M144 201q-52 0 -79.5 29t-27.5 76q0 46 28 76t79 30t79.5 -30t28.5 -76q0 -47 -28 -76t-80 -29z" />
    <glyph glyph-name="cedilla" unicode="&#xb8;" horiz-adv-x="333" 
d="M184 -34l6 -3q-20 -13 -20 -29q0 -9 17.5 -17.5t38 -15.5t38 -24t17.5 -41q0 -37 -38.5 -61.5t-95.5 -24.5q-41 0 -68.5 13.5t-27.5 38.5q0 19 14.5 31t36.5 12q20 0 37 -10q-12 -17 -12 -42q0 -35 30 -35q15 0 24.5 11.5t9.5 30.5q0 17 -11.5 31t-25.5 22.5t-25.5 21.5
t-11.5 28q0 20 16.5 35.5t33.5 21.5z" />
    <glyph glyph-name="onesuperior" unicode="&#xb9;" horiz-adv-x="242" 
d="M16 414v6q41 0 41 68v229q0 38 -9 50.5t-32 12.5v6q106 0 169 23v-341q0 -28 9.5 -38t31.5 -10v-6q-48 2 -105 2z" />
    <glyph glyph-name="ordmasculine" unicode="&#xba;" horiz-adv-x="472" 
d="M23 313h425v-10h-425v10zM226 374v-9q-82 0 -137.5 46.5t-55.5 121.5q0 69 49.5 122t133.5 62v-7q-27 -23 -27 -163q0 -152 37 -173zM246 719q81 0 136.5 -47t55.5 -122q0 -68 -49 -121t-133 -62v7q26 20 26 162q0 155 -36 174v9z" />
    <glyph glyph-name="guillemotright" unicode="&#xbb;" horiz-adv-x="441" 
d="M167 507l245 -230v-20l-245 -230l-6 6l108 234l-108 234zM34 463l197 -186v-20l-197 -189l-6 6l77 193l-77 190z" />
    <glyph glyph-name="onequarter" unicode="&#xbc;" horiz-adv-x="655" 
d="M457 710h11l-272 -720h-12zM16 324v6q41 0 41 68v229q0 38 -9 50.5t-32 12.5v6q106 0 169 23v-341q0 -28 9.5 -38t31.5 -10v-6q-48 2 -105 2zM311 89l-3 4l84 112q39 51 39 100q0 39 -21 64q24 26 61 26q32 0 52 -20t20 -46q0 -52 -70 -109zM461 185l128 67v-156h47v-7
h-47v-35q0 -28 9.5 -38t31.5 -10v-6q-48 2 -105 2l-105 -2v6q41 0 41 68v111z" />
    <glyph glyph-name="onehalf" unicode="&#xbd;" horiz-adv-x="736" 
d="M457 710h11l-272 -720h-12zM16 324v6q41 0 41 68v229q0 38 -9 50.5t-32 12.5v6q106 0 169 23v-341q0 -28 9.5 -38t31.5 -10v-6q-48 2 -105 2zM382 5q0 53 38 83t89 30q27 0 81.5 -7.5t83.5 -7.5q32 0 37 29h7q0 -78 -29.5 -114.5t-94.5 -36.5q-39 0 -90.5 18t-71.5 18
q-21 0 -31.5 -10.5t-10.5 -25.5h-5q-3 15 -3 24zM504 279q0 -21 -14.5 -36t-40.5 -15q-30 0 -45 18t-15 45q0 30 23.5 54.5t69.5 34.5v-5q-23 -12 -23 -40q0 -39 43 -43q2 -8 2 -13zM542 386q72 0 118.5 -29t46.5 -77q0 -41 -21 -66.5t-56 -36.5t-71.5 -18.5t-76 -22
t-61.5 -37.5l-4 3q9 12 36.5 34t50 41.5t41 54.5t18.5 76q0 62 -40 72v5q8 1 19 1z" />
    <glyph glyph-name="threequarters" unicode="&#xbe;" horiz-adv-x="720" 
d="M525 710h11l-272 -720h-12zM377 89l-3 4l84 112q39 51 39 100q0 39 -21 64q24 26 61 26q32 0 52 -20t20 -46q0 -52 -70 -109zM527 185l128 67v-156h47v-7h-47v-35q0 -28 9.5 -38t31.5 -10v-6q-48 2 -105 2l-105 -2v6q41 0 41 68v111zM136 315l1 6q37 4 60 39t23 86
q0 35 -18.5 57.5t-50.5 22.5q-16 0 -28 -4l-2 6q36 13 59 45.5t23 73.5q0 60 -40 66v5q7 1 15 1q74 0 114 -24t40 -63q0 -71 -116 -90l1 -5q15 4 35 4q43 0 69.5 -23.5t26.5 -60.5q0 -60 -48 -101.5t-136 -41.5q-19 0 -28 1zM144 612q0 -21 -14.5 -36t-40.5 -15
q-30 0 -45 18t-15 45q0 30 23.5 54.5t69.5 34.5v-5q-23 -12 -23 -40q0 -39 43 -43q2 -8 2 -13zM101 327l-3 -4q-39 8 -61 32.5t-22 54.5q0 23 16 42.5t45 19.5q24 0 38 -15.5t14 -35.5q0 -6 -2 -12q-17 -2 -30 -14t-13 -31q0 -23 18 -37z" />
    <glyph glyph-name="questiondown" unicode="&#xbf;" horiz-adv-x="509" 
d="M316 -101q0 27 20 47t53 20q42 0 66.5 -24.5t24.5 -55.5q0 -50 -42 -81.5t-122 -31.5v5q19 3 29 18t10 32q0 37 -37 56q-2 10 -2 15zM267 -224q-104 12 -170.5 68t-66.5 124q0 56 27 95.5t65.5 59.5t77.5 34t66 30t27 37q0 16 -11 34l3 3q27 -17 49 -50.5t22 -70.5
q0 -36 -16.5 -65t-40 -48.5t-46.5 -39t-39.5 -48t-16.5 -64.5q0 -38 20.5 -63t50.5 -31zM280 300q-51 0 -79.5 30t-28.5 76q0 47 28 76t80 29t79.5 -29t27.5 -76q0 -46 -28 -76t-79 -30z" />
    <glyph glyph-name="Agrave" unicode="&#xc0;" horiz-adv-x="789" 
d="M192 286l3 10h196l-96 324l17 49l172 52l217 -645q23 -69 79 -69v-7q-55 3 -193 3l-187 -3v7q55 0 55 49q0 22 -16 78l-45 152h-202zM146 181l8 -1l-10 -33q-9 -28 -12.5 -46.5t-2.5 -38t10.5 -30.5t30 -18t52.5 -7v-7q-54 3 -121 3l-92 -3v7q78 0 126 142zM276 897
q0 26 19 44t52 18l132 -206l-2 -3q-82 18 -141.5 58t-59.5 89z" />
    <glyph glyph-name="Aacute" unicode="&#xc1;" horiz-adv-x="789" 
d="M192 286l3 10h196l-96 324l17 49l172 52l217 -645q23 -69 79 -69v-7q-55 3 -193 3l-187 -3v7q55 0 55 49q0 22 -16 78l-45 152h-202zM146 181l8 -1l-10 -33q-9 -28 -12.5 -46.5t-2.5 -38t10.5 -30.5t30 -18t52.5 -7v-7q-54 3 -121 3l-92 -3v7q78 0 126 142zM518 897
q0 -49 -59.5 -89t-141.5 -58l-2 3l132 206q33 0 52 -18t19 -44z" />
    <glyph glyph-name="Acircumflex" unicode="&#xc2;" horiz-adv-x="789" 
d="M192 286l3 10h196l-96 324l17 49l172 52l217 -645q23 -69 79 -69v-7q-55 3 -193 3l-187 -3v7q55 0 55 49q0 22 -16 78l-45 152h-202zM146 181l8 -1l-10 -33q-9 -28 -12.5 -46.5t-2.5 -38t10.5 -30.5t30 -18t52.5 -7v-7q-54 3 -121 3l-92 -3v7q78 0 126 142zM580 745
l-3 -5l-173 52l-173 -52l-3 5l145 147h62z" />
    <glyph glyph-name="Atilde" unicode="&#xc3;" horiz-adv-x="789" 
d="M192 286l3 10h196l-96 324l17 49l172 52l217 -645q23 -69 79 -69v-7q-55 3 -193 3l-187 -3v7q55 0 55 49q0 22 -16 78l-45 152h-202zM146 181l8 -1l-10 -33q-9 -28 -12.5 -46.5t-2.5 -38t10.5 -30.5t30 -18t52.5 -7v-7q-54 3 -121 3l-92 -3v7q78 0 126 142zM526 848
q51 0 60 55l6 -5q-7 -148 -119 -148q-46 0 -101.5 26t-86.5 26q-21 0 -38 -13.5t-22 -41.5l-6 5q7 148 119 148q46 0 102 -26t86 -26z" />
    <glyph glyph-name="Adieresis" unicode="&#xc4;" horiz-adv-x="789" 
d="M192 286l3 10h196l-96 324l17 49l172 52l217 -645q23 -69 79 -69v-7q-55 3 -193 3l-187 -3v7q55 0 55 49q0 22 -16 78l-45 152h-202zM146 181l8 -1l-10 -33q-9 -28 -12.5 -46.5t-2.5 -38t10.5 -30.5t30 -18t52.5 -7v-7q-54 3 -121 3l-92 -3v7q78 0 126 142zM282 750
q-42 0 -64 23.5t-22 61.5q0 37 22 61.5t64 24.5t64.5 -24.5t22.5 -61.5q0 -38 -22.5 -61.5t-64.5 -23.5zM505 750q-41 0 -63 24t-22 61t22.5 61.5t62.5 24.5q43 0 65.5 -24.5t22.5 -61.5q0 -38 -22.5 -61.5t-65.5 -23.5z" />
    <glyph glyph-name="Aring" unicode="&#xc5;" horiz-adv-x="789" 
d="M192 286l3 10h196l-96 324l17 49l172 52l217 -645q23 -69 79 -69v-7q-55 3 -193 3l-187 -3v7q55 0 55 49q0 22 -16 78l-45 152h-202zM146 181l8 -1l-10 -33q-9 -28 -12.5 -46.5t-2.5 -38t10.5 -30.5t30 -18t52.5 -7v-7q-54 3 -121 3l-92 -3v7q78 0 126 142zM404 941
q41 -2 68.5 -26t27.5 -66q0 -36 -22.5 -62.5t-63.5 -34.5v8q21 14 21 82q0 79 -31 91v8zM382 757v-7q-41 1 -69.5 25.5t-28.5 66.5q0 36 23 63t65 34v-7q-23 -13 -23 -83q0 -81 33 -92z" />
    <glyph glyph-name="AE" unicode="&#xc6;" horiz-adv-x="1061" 
d="M273 287l6 11h199v306q0 51 -17.5 70t-57.5 19v7q88 -3 192 -3q29 0 117 2v-603q0 -82 29 -88v-7q-15 0 -70.5 1t-75.5 1l-192 -3v7q75 0 75 125v155h-205zM803 1v8q84 0 147 71t85 194h8l-46 -274q-133 0 -194 1zM770 692v6q44 0 232 2v-214h-7q-11 97 -72 151.5
t-153 54.5zM770 367v7q58 0 91 36.5t33 106.5h7v-320h-7q0 170 -124 170zM194 180l10 -5l-6 -9q-40 -63 -40 -98q0 -61 77 -61v-7q-75 3 -141 3l-92 -3v7q80 0 172 142z" />
    <glyph glyph-name="Ccedilla" unicode="&#xc7;" horiz-adv-x="742" 
d="M409 -10v-9q-187 0 -286 96.5t-99 256.5q0 165 106.5 275t278.5 110v-9q-26 -3 -46 -20t-37 -55t-26 -107t-9 -167q0 -344 118 -371zM690 486q-20 95 -81 151.5t-136 69.5v8q16 -2 89.5 -15t134.5 -13v-201h-7zM705 265h7l-31 -243q-55 0 -124.5 -17t-83.5 -19v7
q71 16 137.5 89.5t94.5 182.5zM407 -34l6 -3q-20 -13 -20 -29q0 -9 17.5 -17.5t38 -15.5t38 -24t17.5 -41q0 -37 -38.5 -61.5t-95.5 -24.5q-41 0 -68.5 13.5t-27.5 38.5q0 19 14.5 31t36.5 12q20 0 37 -10q-12 -17 -12 -42q0 -35 30 -35q15 0 24.5 11.5t9.5 30.5
q0 17 -11.5 31t-25.5 22.5t-25.5 21.5t-11.5 28q0 20 17 35.5t33 21.5z" />
    <glyph glyph-name="Egrave" unicode="&#xc8;" horiz-adv-x="678" 
d="M387 692v6q44 0 232 2v-214h-7q-11 97 -72 151.5t-153 54.5zM420 1v8q84 0 147 71t85 194h8l-46 -274q-133 0 -194 1zM387 367v7q58 0 91 36.5t33 106.5h7v-320h-7q0 170 -124 170zM358 8v-7q-15 0 -70.5 1t-75.5 1l-192 -3v7q75 0 75 125v472q0 51 -17.5 70t-57.5 19v7
q88 -3 192 -3q29 0 117 2v-603q0 -82 29 -88zM237 897q0 26 19 44t52 18l132 -206l-2 -3q-82 18 -141.5 58t-59.5 89z" />
    <glyph glyph-name="Eacute" unicode="&#xc9;" horiz-adv-x="678" 
d="M387 692v6q44 0 232 2v-214h-7q-11 97 -72 151.5t-153 54.5zM420 1v8q84 0 147 71t85 194h8l-46 -274q-133 0 -194 1zM387 367v7q58 0 91 36.5t33 106.5h7v-320h-7q0 170 -124 170zM358 8v-7q-15 0 -70.5 1t-75.5 1l-192 -3v7q75 0 75 125v472q0 51 -17.5 70t-57.5 19v7
q88 -3 192 -3q29 0 117 2v-603q0 -82 29 -88zM478 897q0 -49 -59.5 -89t-141.5 -58l-2 3l132 206q33 0 52 -18t19 -44z" />
    <glyph glyph-name="Ecircumflex" unicode="&#xca;" horiz-adv-x="678" 
d="M387 692v6q44 0 232 2v-214h-7q-11 97 -72 151.5t-153 54.5zM420 1v8q84 0 147 71t85 194h8l-46 -274q-133 0 -194 1zM387 367v7q58 0 91 36.5t33 106.5h7v-320h-7q0 170 -124 170zM358 8v-7q-15 0 -70.5 1t-75.5 1l-192 -3v7q75 0 75 125v472q0 51 -17.5 70t-57.5 19v7
q88 -3 192 -3q29 0 117 2v-603q0 -82 29 -88zM519 745l-3 -5l-173 52l-173 -52l-3 5l145 147h62z" />
    <glyph glyph-name="Edieresis" unicode="&#xcb;" horiz-adv-x="678" 
d="M387 692v6q44 0 232 2v-214h-7q-11 97 -72 151.5t-153 54.5zM420 1v8q84 0 147 71t85 194h8l-46 -274q-133 0 -194 1zM387 367v7q58 0 91 36.5t33 106.5h7v-320h-7q0 170 -124 170zM358 8v-7q-15 0 -70.5 1t-75.5 1l-192 -3v7q75 0 75 125v472q0 51 -17.5 70t-57.5 19v7
q88 -3 192 -3q29 0 117 2v-603q0 -82 29 -88zM226 750q-42 0 -64 23.5t-22 61.5q0 37 22 61.5t64 24.5t64.5 -24.5t22.5 -61.5q0 -38 -22.5 -61.5t-64.5 -23.5zM449 750q-41 0 -63 24t-22 61t22.5 61.5t62.5 24.5q43 0 65.5 -24.5t22.5 -61.5q0 -38 -22.5 -61.5t-65.5 -23.5
z" />
    <glyph glyph-name="Igrave" unicode="&#xcc;" 
d="M404 700v-7q-75 0 -75 -125v-472q0 -51 17.5 -70t57.5 -19v-7q-88 3 -192 3l-192 -3v7q75 0 75 125v472q0 51 -17.5 70t-57.5 19v7q88 -3 192 -3zM110 897q0 26 19 44t52 18l132 -206l-2 -3q-82 18 -141.5 58t-59.5 89z" />
    <glyph glyph-name="Iacute" unicode="&#xcd;" 
d="M404 700v-7q-75 0 -75 -125v-472q0 -51 17.5 -70t57.5 -19v-7q-88 3 -192 3l-192 -3v7q75 0 75 125v472q0 51 -17.5 70t-57.5 19v7q88 -3 192 -3zM325 897q0 -49 -59.5 -89t-141.5 -58l-2 3l132 206q33 0 52 -18t19 -44z" />
    <glyph glyph-name="Icircumflex" unicode="&#xce;" 
d="M404 700v-7q-75 0 -75 -125v-472q0 -51 17.5 -70t57.5 -19v-7q-88 3 -192 3l-192 -3v7q75 0 75 125v472q0 51 -17.5 70t-57.5 19v7q88 -3 192 -3zM392 745l-3 -5l-173 52l-173 -52l-3 5l145 147h62z" />
    <glyph glyph-name="Idieresis" unicode="&#xcf;" 
d="M404 700v-7q-75 0 -75 -125v-472q0 -51 17.5 -70t57.5 -19v-7q-88 3 -192 3l-192 -3v7q75 0 75 125v472q0 51 -17.5 70t-57.5 19v7q88 -3 192 -3zM100 750q-42 0 -64 23.5t-22 61.5q0 37 22 61.5t64 24.5t64.5 -24.5t22.5 -61.5q0 -38 -22.5 -61.5t-64.5 -23.5zM323 750
q-41 0 -63 24t-22 61t22.5 61.5t62.5 24.5q43 0 65.5 -24.5t22.5 -61.5q0 -38 -22.5 -61.5t-65.5 -23.5z" />
    <glyph glyph-name="Eth" unicode="&#xd0;" horiz-adv-x="818" 
d="M358 7v-7q-15 0 -70.5 1t-75.5 1l-192 -3v7q75 0 75 125v221h-71v10h71v241q0 51 -17.5 70t-57.5 19v7q88 -3 192 -3q29 0 117 2v-336h123v-10h-123v-257q0 -82 29 -88zM420 0v7q54 4 88 83.5t34 248.5q0 161 -39.5 255t-115.5 99v7q187 0 297 -89t110 -244
q0 -171 -101.5 -268t-272.5 -99z" />
    <glyph glyph-name="Ntilde" unicode="&#xd1;" horiz-adv-x="759" 
d="M90 184h9v-32q0 -145 144 -145v-7q-108 3 -143 3l-85 -3v7q75 0 75 145v32zM664 205v-205l-154 -18l-418 649q-24 36 -38.5 49t-38.5 13v7q153 -3 339 -3q4 -34 46 -97zM664 514h-9v34q0 75 -36.5 110t-96.5 35v7q104 -3 139 -3l90 3v-7q-37 0 -62 -35.5t-25 -109.5v-34z
M518 848q51 0 60 55l6 -5q-7 -148 -119 -148q-46 0 -101.5 26t-86.5 26q-21 0 -38 -13.5t-22 -41.5l-6 5q7 148 119 148q46 0 102 -26t86 -26z" />
    <glyph glyph-name="Ograve" unicode="&#xd2;" horiz-adv-x="795" 
d="M416 719q168 -4 261.5 -99t93.5 -253q0 -152 -88 -259t-239 -124v6q35 17 48.5 100t13.5 249q0 164 -24 266t-66 108v6zM380 -12v-7q-168 4 -262 99.5t-94 253.5q0 152 88.5 258.5t239.5 124.5v-7q-35 -17 -48.5 -101.5t-13.5 -247.5q0 -166 23 -263.5t67 -109.5z
M296 897q0 26 19 44t52 18l132 -206l-2 -3q-82 18 -141.5 58t-59.5 89z" />
    <glyph glyph-name="Oacute" unicode="&#xd3;" horiz-adv-x="795" 
d="M416 719q168 -4 261.5 -99t93.5 -253q0 -152 -88 -259t-239 -124v6q35 17 48.5 100t13.5 249q0 164 -24 266t-66 108v6zM380 -12v-7q-168 4 -262 99.5t-94 253.5q0 152 88.5 258.5t239.5 124.5v-7q-35 -17 -48.5 -101.5t-13.5 -247.5q0 -166 23 -263.5t67 -109.5z
M491 897q0 -49 -59.5 -89t-141.5 -58l-2 3l132 206q33 0 52 -18t19 -44z" />
    <glyph glyph-name="Ocircumflex" unicode="&#xd4;" horiz-adv-x="795" 
d="M416 719q168 -4 261.5 -99t93.5 -253q0 -152 -88 -259t-239 -124v6q35 17 48.5 100t13.5 249q0 164 -24 266t-66 108v6zM380 -12v-7q-168 4 -262 99.5t-94 253.5q0 152 88.5 258.5t239.5 124.5v-7q-35 -17 -48.5 -101.5t-13.5 -247.5q0 -166 23 -263.5t67 -109.5z
M572 745l-3 -5l-173 52l-173 -52l-3 5l145 147h62z" />
    <glyph glyph-name="Otilde" unicode="&#xd5;" horiz-adv-x="795" 
d="M416 719q168 -4 261.5 -99t93.5 -253q0 -152 -88 -259t-239 -124v6q35 17 48.5 100t13.5 249q0 164 -24 266t-66 108v6zM380 -12v-7q-168 4 -262 99.5t-94 253.5q0 152 88.5 258.5t239.5 124.5v-7q-35 -17 -48.5 -101.5t-13.5 -247.5q0 -166 23 -263.5t67 -109.5z
M518 848q51 0 60 55l6 -5q-7 -148 -119 -148q-46 0 -101.5 26t-86.5 26q-21 0 -38 -13.5t-22 -41.5l-6 5q7 148 119 148q46 0 102 -26t86 -26z" />
    <glyph glyph-name="Odieresis" unicode="&#xd6;" horiz-adv-x="795" 
d="M416 719q168 -4 261.5 -99t93.5 -253q0 -152 -88 -259t-239 -124v6q35 17 48.5 100t13.5 249q0 164 -24 266t-66 108v6zM380 -12v-7q-168 4 -262 99.5t-94 253.5q0 152 88.5 258.5t239.5 124.5v-7q-35 -17 -48.5 -101.5t-13.5 -247.5q0 -166 23 -263.5t67 -109.5z
M285 750q-42 0 -64 23.5t-22 61.5q0 37 22 61.5t64 24.5t64.5 -24.5t22.5 -61.5q0 -38 -22.5 -61.5t-64.5 -23.5zM508 750q-41 0 -63 24t-22 61t22.5 61.5t62.5 24.5q43 0 65.5 -24.5t22.5 -61.5q0 -38 -22.5 -61.5t-65.5 -23.5z" />
    <glyph glyph-name="multiply" unicode="&#xd7;" horiz-adv-x="318" 
d="M311 113l-152 152l-152 -152l-7 7l152 152l-152 152l7 7l152 -152l152 152l7 -7l-152 -152l152 -152z" />
    <glyph glyph-name="Oslash" unicode="&#xd8;" horiz-adv-x="795" 
d="M380 -11v-8q-111 3 -193 47l-39 -59h-14l43 65q-75 44 -114 121.5t-39 178.5q0 152 88.5 258.5t239.5 124.5v-7q-35 -17 -48.5 -101.5t-13.5 -247.5q0 -81 6 -146l200 306q-20 169 -80 190v8q106 -3 183 -42l48 73h14l-52 -79q79 -44 120.5 -122t41.5 -182
q0 -152 -88 -259t-239 -124v6q35 17 48.5 100t13.5 249q0 87 -8 164l-201 -306q21 -187 83 -208z" />
    <glyph glyph-name="Ugrave" unicode="&#xd9;" horiz-adv-x="755" 
d="M637 105l9 -2q-27 -71 -90 -94.5t-168 -23.5q-293 0 -293 244v375q0 51 -17.5 70t-57.5 19v7q88 -3 192 -3l192 3v-7q-75 0 -75 -125v-341q0 -114 39.5 -166t122.5 -52q51 0 89.5 24.5t56.5 71.5zM664 514h-9v34q0 75 -36.5 110t-96.5 35v7q104 -3 139 -3l90 3v-7
q-37 0 -62 -35.5t-25 -109.5v-34zM333 897q0 26 19 44t52 18l132 -206l-2 -3q-82 18 -141.5 58t-59.5 89z" />
    <glyph glyph-name="Uacute" unicode="&#xda;" horiz-adv-x="755" 
d="M637 105l9 -2q-27 -71 -90 -94.5t-168 -23.5q-293 0 -293 244v375q0 51 -17.5 70t-57.5 19v7q88 -3 192 -3l192 3v-7q-75 0 -75 -125v-341q0 -114 39.5 -166t122.5 -52q51 0 89.5 24.5t56.5 71.5zM664 514h-9v34q0 75 -36.5 110t-96.5 35v7q104 -3 139 -3l90 3v-7
q-37 0 -62 -35.5t-25 -109.5v-34zM587 896q0 -49 -59.5 -89t-141.5 -58l-2 3l132 206q33 0 52 -18t19 -44z" />
    <glyph glyph-name="Ucircumflex" unicode="&#xdb;" horiz-adv-x="755" 
d="M637 105l9 -2q-27 -71 -90 -94.5t-168 -23.5q-293 0 -293 244v375q0 51 -17.5 70t-57.5 19v7q88 -3 192 -3l192 3v-7q-75 0 -75 -125v-341q0 -114 39.5 -166t122.5 -52q51 0 89.5 24.5t56.5 71.5zM664 514h-9v34q0 75 -36.5 110t-96.5 35v7q104 -3 139 -3l90 3v-7
q-37 0 -62 -35.5t-25 -109.5v-34zM623 744l-3 -5l-173 52l-173 -52l-3 5l145 147h62z" />
    <glyph glyph-name="Udieresis" unicode="&#xdc;" horiz-adv-x="755" 
d="M637 105l9 -2q-27 -71 -90 -94.5t-168 -23.5q-293 0 -293 244v375q0 51 -17.5 70t-57.5 19v7q88 -3 192 -3l192 3v-7q-75 0 -75 -125v-341q0 -114 39.5 -166t122.5 -52q51 0 89.5 24.5t56.5 71.5zM664 514h-9v34q0 75 -36.5 110t-96.5 35v7q104 -3 139 -3l90 3v-7
q-37 0 -62 -35.5t-25 -109.5v-34zM336 750q-42 0 -64 23.5t-22 61.5q0 37 22 61.5t64 24.5t64.5 -24.5t22.5 -61.5q0 -38 -22.5 -61.5t-64.5 -23.5zM559 750q-41 0 -63 24t-22 61t22.5 61.5t62.5 24.5q43 0 65.5 -24.5t22.5 -61.5q0 -38 -22.5 -61.5t-65.5 -23.5z" />
    <glyph glyph-name="Yacute" unicode="&#xdd;" horiz-adv-x="752" 
d="M497 379v-283q0 -51 17.5 -70t57.5 -19v-7q-88 3 -192 3l-192 -3v7q75 0 75 125v235l-169 273q-33 53 -78 53v7q82 -3 200 -3l197 3v-7q-24 0 -38.5 -12.5t-14.5 -31.5q0 -25 24 -67zM566 513l-7 3q41 77 41 117q0 60 -88 60v7q46 -3 127 -3l97 3v-7q-31 0 -70 -33.5
t-73 -96.5zM588 897q0 -49 -59.5 -89t-141.5 -58l-2 3l132 206q33 0 52 -18t19 -44z" />
    <glyph glyph-name="Thorn" unicode="&#xde;" horiz-adv-x="710" 
d="M387 552v6q9 1 28 1q129 0 201.5 -51.5t72.5 -147.5t-76.5 -152t-225.5 -56v6q72 11 72 199q0 193 -72 195zM404 700v-7q-75 0 -75 -125v-472q0 -51 17.5 -70t57.5 -19v-7q-88 3 -192 3l-192 -3v7q75 0 75 125v472q0 51 -17.5 70t-57.5 19v7q88 -3 192 -3z" />
    <glyph glyph-name="germandbls" unicode="&#xdf;" horiz-adv-x="818" 
d="M363 764v-8q-66 -10 -66 -149v-607q-66 3 -128 3l-152 -3v7q58 0 58 70v396h-42v7h42q0 125 79.5 201.5t208.5 82.5zM596 40q0 32 -26.5 62t-64.5 56.5t-75.5 55t-64 68t-26.5 85.5q0 39 22.5 78.5t49 66t49 64t22.5 73.5q0 39 -21 69t-59 38v7q79 -5 124.5 -47
t45.5 -105q0 -30 -21.5 -84.5t-21.5 -80.5q0 -27 27 -51.5t65.5 -47t77.5 -47.5t66 -63.5t27 -84.5q0 -79 -62.5 -125t-179.5 -47v9q46 1 46 51zM516 -10v-9q-2 0 -53 10.5t-113 10.5l-9 179h6q13 -73 60.5 -128t108.5 -63z" />
    <glyph glyph-name="agrave" unicode="&#xe0;" horiz-adv-x="607" 
d="M310 32l3 -6q-7 -3 -38 -17t-58.5 -21.5t-58.5 -7.5q-58 0 -96.5 27t-38.5 81q0 72 70 114.5t199 47.5l-1 -9q-48 -28 -48 -133q0 -35 12.5 -57t35.5 -22q1 0 19 3zM145 293q-40 0 -64.5 21t-24.5 55q0 50 60 84t145 44v-7q-18 -5 -28.5 -25.5t-10.5 -46.5q0 -54 29 -90
q-20 -15 -50.5 -25t-55.5 -10zM599 39l4 -3q-31 -53 -129 -53q-82 0 -117 42.5t-35 135.5q0 31 4 106t4 128q0 49 -7.5 71.5t-29.5 25.5v7q9 1 21 1q126 0 177 -47.5t51 -153.5q0 -51 -5 -115t-5 -96q0 -65 38 -65q17 0 29 16zM202 688q0 26 19 44t52 18l132 -206l-2 -3
q-82 18 -141.5 58t-59.5 89z" />
    <glyph glyph-name="aacute" unicode="&#xe1;" horiz-adv-x="607" 
d="M310 32l3 -6q-7 -3 -38 -17t-58.5 -21.5t-58.5 -7.5q-58 0 -96.5 27t-38.5 81q0 72 70 114.5t199 47.5l-1 -9q-48 -28 -48 -133q0 -35 12.5 -57t35.5 -22q1 0 19 3zM145 293q-40 0 -64.5 21t-24.5 55q0 50 60 84t145 44v-7q-18 -5 -28.5 -25.5t-10.5 -46.5q0 -54 29 -90
q-20 -15 -50.5 -25t-55.5 -10zM599 39l4 -3q-31 -53 -129 -53q-82 0 -117 42.5t-35 135.5q0 31 4 106t4 128q0 49 -7.5 71.5t-29.5 25.5v7q9 1 21 1q126 0 177 -47.5t51 -153.5q0 -51 -5 -115t-5 -96q0 -65 38 -65q17 0 29 16zM405 688q0 -49 -59.5 -89t-141.5 -58l-2 3
l132 206q33 0 52 -18t19 -44z" />
    <glyph glyph-name="acircumflex" unicode="&#xe2;" horiz-adv-x="607" 
d="M310 32l3 -6q-7 -3 -38 -17t-58.5 -21.5t-58.5 -7.5q-58 0 -96.5 27t-38.5 81q0 72 70 114.5t199 47.5l-1 -9q-48 -28 -48 -133q0 -35 12.5 -57t35.5 -22q1 0 19 3zM145 293q-40 0 -64.5 21t-24.5 55q0 50 60 84t145 44v-7q-18 -5 -28.5 -25.5t-10.5 -46.5q0 -54 29 -90
q-20 -15 -50.5 -25t-55.5 -10zM599 39l4 -3q-31 -53 -129 -53q-82 0 -117 42.5t-35 135.5q0 31 4 106t4 128q0 49 -7.5 71.5t-29.5 25.5v7q9 1 21 1q126 0 177 -47.5t51 -153.5q0 -51 -5 -115t-5 -96q0 -65 38 -65q17 0 29 16zM482 553l-3 -5l-173 52l-173 -52l-3 5l145 147
h62z" />
    <glyph glyph-name="atilde" unicode="&#xe3;" horiz-adv-x="607" 
d="M310 32l3 -6q-7 -3 -38 -17t-58.5 -21.5t-58.5 -7.5q-58 0 -96.5 27t-38.5 81q0 72 70 114.5t199 47.5l-1 -9q-48 -28 -48 -133q0 -35 12.5 -57t35.5 -22q1 0 19 3zM145 293q-40 0 -64.5 21t-24.5 55q0 50 60 84t145 44v-7q-18 -5 -28.5 -25.5t-10.5 -46.5q0 -54 29 -90
q-20 -15 -50.5 -25t-55.5 -10zM599 39l4 -3q-31 -53 -129 -53q-82 0 -117 42.5t-35 135.5q0 31 4 106t4 128q0 49 -7.5 71.5t-29.5 25.5v7q9 1 21 1q126 0 177 -47.5t51 -153.5q0 -51 -5 -115t-5 -96q0 -65 38 -65q17 0 29 16zM424 657q51 0 60 55l6 -5q-7 -148 -119 -148
q-46 0 -101.5 26t-86.5 26q-21 0 -38 -13.5t-22 -41.5l-6 5q7 148 119 148q46 0 102 -26t86 -26z" />
    <glyph glyph-name="adieresis" unicode="&#xe4;" horiz-adv-x="607" 
d="M310 32l3 -6q-7 -3 -38 -17t-58.5 -21.5t-58.5 -7.5q-58 0 -96.5 27t-38.5 81q0 72 70 114.5t199 47.5l-1 -9q-48 -28 -48 -133q0 -35 12.5 -57t35.5 -22q1 0 19 3zM145 293q-40 0 -64.5 21t-24.5 55q0 50 60 84t145 44v-7q-18 -5 -28.5 -25.5t-10.5 -46.5q0 -54 29 -90
q-20 -15 -50.5 -25t-55.5 -10zM599 39l4 -3q-31 -53 -129 -53q-82 0 -117 42.5t-35 135.5q0 31 4 106t4 128q0 49 -7.5 71.5t-29.5 25.5v7q9 1 21 1q126 0 177 -47.5t51 -153.5q0 -51 -5 -115t-5 -96q0 -65 38 -65q17 0 29 16zM197 543q-42 0 -64 23.5t-22 61.5
q0 37 22 61.5t64 24.5t64.5 -24.5t22.5 -61.5q0 -38 -22.5 -61.5t-64.5 -23.5zM420 543q-41 0 -63 24t-22 61t22.5 61.5t62.5 24.5q43 0 65.5 -24.5t22.5 -61.5q0 -38 -22.5 -61.5t-65.5 -23.5z" />
    <glyph glyph-name="aring" unicode="&#xe5;" horiz-adv-x="607" 
d="M310 32l3 -6q-7 -3 -38 -17t-58.5 -21.5t-58.5 -7.5q-58 0 -96.5 27t-38.5 81q0 72 70 114.5t199 47.5l-1 -9q-48 -28 -48 -133q0 -35 12.5 -57t35.5 -22q1 0 19 3zM145 293q-40 0 -64.5 21t-24.5 55q0 50 60 84t145 44v-7q-18 -5 -28.5 -25.5t-10.5 -46.5q0 -54 29 -90
q-20 -15 -50.5 -25t-55.5 -10zM599 39l4 -3q-31 -53 -129 -53q-82 0 -117 42.5t-35 135.5q0 31 4 106t4 128q0 49 -7.5 71.5t-29.5 25.5v7q9 1 21 1q126 0 177 -47.5t51 -153.5q0 -51 -5 -115t-5 -96q0 -65 38 -65q17 0 29 16zM321 724q41 -2 68.5 -26t27.5 -66
q0 -36 -22.5 -62.5t-63.5 -34.5v8q21 14 21 82q0 79 -31 91v8zM299 540v-7q-41 1 -69.5 25.5t-28.5 66.5q0 36 23 63t65 34v-7q-23 -13 -23 -83q0 -81 33 -92z" />
    <glyph glyph-name="ae" unicode="&#xe6;" horiz-adv-x="872" 
d="M310 32l3 -6q-7 -3 -38 -17t-58.5 -21.5t-58.5 -7.5q-58 0 -96.5 27t-38.5 81q0 72 70 114.5t199 47.5l-1 -9q-48 -28 -48 -133q0 -35 12.5 -57t35.5 -22q1 0 19 3zM145 293q-40 0 -64.5 21t-24.5 55q0 50 60 84t145 44v-7q-18 -5 -28.5 -25.5t-10.5 -46.5q0 -54 29 -90
q-20 -15 -50.5 -25t-55.5 -10zM619 500q103 -2 166 -52t68 -143l-10 -12h-270v7l78 8q4 27 4 62q0 47 -10 81.5t-26 38.5v10zM589 -20q-268 0 -268 228q0 29 4.5 90.5t4.5 96.5q0 49 -7.5 71.5t-29.5 25.5v7q9 1 21 1q92 0 155 -33q53 27 119 32v-10q-51 -23 -51 -227
q0 -226 143 -226q75 0 137 43l4 -4q-80 -95 -232 -95z" />
    <glyph glyph-name="ccedilla" unicode="&#xe7;" horiz-adv-x="571" 
d="M399 35q75 0 139 43l3 -3q-80 -95 -231 -95q-138 0 -215 67t-77 181q0 111 88 190.5t220 81.5v-8q-32 -13 -53 -77t-21 -165q0 -95 38 -155t109 -60zM358 491v8q90 -4 142.5 -37t52.5 -86q0 -35 -28 -59t-76 -24q-55 0 -88 30q27 41 27 95q0 60 -30 73zM303 -34l6 -3
q-20 -13 -20 -29q0 -9 17.5 -17.5t38 -15.5t38 -24t17.5 -41q0 -37 -38.5 -61.5t-95.5 -24.5q-41 0 -68.5 13.5t-27.5 38.5q0 19 14.5 31t36.5 12q20 0 37 -10q-12 -17 -12 -42q0 -35 30 -35q15 0 24.5 11.5t9.5 30.5q0 17 -11.5 31t-25.5 22.5t-25.5 21.5t-11.5 28
q0 20 17 35.5t33 21.5z" />
    <glyph glyph-name="egrave" unicode="&#xe8;" horiz-adv-x="586" 
d="M334 500q103 -2 166 -52t68 -143l-10 -12h-270v7l78 8q4 27 4 62q0 48 -10 82.5t-26 38.5v9zM395 36q75 0 137 43l4 -4q-80 -95 -232 -95q-138 0 -212 67t-74 181q0 106 81.5 184.5t203.5 86.5v-9q-51 -23 -51 -228q0 -226 143 -226zM191 688q0 26 19 44t52 18l132 -206
l-2 -3q-82 18 -141.5 58t-59.5 89z" />
    <glyph glyph-name="eacute" unicode="&#xe9;" horiz-adv-x="586" 
d="M334 500q103 -2 166 -52t68 -143l-10 -12h-270v7l78 8q4 27 4 62q0 48 -10 82.5t-26 38.5v9zM395 36q75 0 137 43l4 -4q-80 -95 -232 -95q-138 0 -212 67t-74 181q0 106 81.5 184.5t203.5 86.5v-9q-51 -23 -51 -228q0 -226 143 -226zM414 688q0 -49 -59.5 -89t-141.5 -58
l-2 3l132 206q33 0 52 -18t19 -44z" />
    <glyph glyph-name="ecircumflex" unicode="&#xea;" horiz-adv-x="586" 
d="M334 500q103 -2 166 -52t68 -143l-10 -12h-270v7l78 8q4 27 4 62q0 48 -10 82.5t-26 38.5v9zM395 36q75 0 137 43l4 -4q-80 -95 -232 -95q-138 0 -212 67t-74 181q0 106 81.5 184.5t203.5 86.5v-9q-51 -23 -51 -228q0 -226 143 -226zM490 553l-3 -5l-173 52l-173 -52
l-3 5l145 147h62z" />
    <glyph glyph-name="edieresis" unicode="&#xeb;" horiz-adv-x="586" 
d="M334 500q103 -2 166 -52t68 -143l-10 -12h-270v7l78 8q4 27 4 62q0 48 -10 82.5t-26 38.5v9zM395 36q75 0 137 43l4 -4q-80 -95 -232 -95q-138 0 -212 67t-74 181q0 106 81.5 184.5t203.5 86.5v-9q-51 -23 -51 -228q0 -226 143 -226zM192 543q-42 0 -64 23.5t-22 61.5
q0 37 22 61.5t64 24.5t64.5 -24.5t22.5 -61.5q0 -38 -22.5 -61.5t-64.5 -23.5zM415 543q-41 0 -63 24t-22 61t22.5 61.5t62.5 24.5q43 0 65.5 -24.5t22.5 -61.5q0 -38 -22.5 -61.5t-65.5 -23.5z" />
    <glyph glyph-name="igrave" unicode="&#xec;" horiz-adv-x="367" 
d="M336 7v-7q-48 3 -149 3l-169 -3v7q57 0 57 70v316q0 28 -13.5 39.5t-41.5 11.5l-2 7q68 0 137.5 12.5t105.5 24.5l36 12v-455q0 -38 39 -38zM69 688q0 26 19 44t52 18l132 -206l-2 -3q-82 18 -141.5 58t-59.5 89z" />
    <glyph glyph-name="iacute" unicode="&#xed;" horiz-adv-x="367" 
d="M336 7v-7q-48 3 -149 3l-169 -3v7q57 0 57 70v316q0 28 -13.5 39.5t-41.5 11.5l-2 7q68 0 137.5 12.5t105.5 24.5l36 12v-455q0 -38 39 -38zM291 688q0 -49 -59.5 -89t-141.5 -58l-2 3l132 206q33 0 52 -18t19 -44z" />
    <glyph glyph-name="icircumflex" unicode="&#xee;" horiz-adv-x="367" 
d="M336 7v-7q-48 3 -149 3l-169 -3v7q57 0 57 70v316q0 28 -13.5 39.5t-41.5 11.5l-2 7q68 0 137.5 12.5t105.5 24.5l36 12v-455q0 -38 39 -38zM360 553l-3 -5l-173 52l-173 -52l-3 5l145 147h62z" />
    <glyph glyph-name="idieresis" unicode="&#xef;" horiz-adv-x="367" 
d="M336 7v-7q-48 3 -149 3l-169 -3v7q57 0 57 70v316q0 28 -13.5 39.5t-41.5 11.5l-2 7q68 0 137.5 12.5t105.5 24.5l36 12v-455q0 -38 39 -38zM71 543q-42 0 -64 23.5t-22 61.5q0 37 22 61.5t64 24.5t64.5 -24.5t22.5 -61.5q0 -38 -22.5 -61.5t-64.5 -23.5zM294 543
q-41 0 -63 24t-22 61t22.5 61.5t62.5 24.5q43 0 65.5 -24.5t22.5 -61.5q0 -38 -22.5 -61.5t-65.5 -23.5z" />
    <glyph glyph-name="eth" unicode="&#xf0;" horiz-adv-x="630" 
d="M339 -18v12q38 26 38 238q0 119 -14 207.5t-60 169.5l-141 -56v12l135 53q-41 68 -119 111l3 6q111 -25 202 -82l144 57v-12l-132 -52q115 -74 168.5 -170t53.5 -200q0 -109 -71 -195.5t-207 -98.5zM311 497l2 -10q-16 1 -29 -21t-22.5 -78.5t-9.5 -141.5q0 -231 51 -255
v-11q-118 0 -201.5 73t-83.5 185q0 123 72 194t171 71q28 0 50 -6z" />
    <glyph glyph-name="ntilde" unicode="&#xf1;" horiz-adv-x="687" 
d="M297 500v-455q0 -38 39 -38v-7q-48 3 -149 3l-169 -3v7q57 0 57 70v316q0 28 -13.5 39.5t-41.5 11.5l-2 7q68 0 137.5 12.5t105.5 24.5zM333 424v7q17 7 47 26.5t57 31t55 11.5q60 0 93 -36t33 -105v-299q0 -32 12 -42.5t43 -10.5v-7q-66 3 -165 3l-149 -3v7
q20 0 28.5 10.5t8.5 36.5v331q0 21 -10 33t-26 12q-11 0 -27 -6zM486 657q51 0 60 55l6 -5q-7 -148 -119 -148q-46 0 -101.5 26t-86.5 26q-21 0 -38 -13.5t-22 -41.5l-6 5q7 148 119 148q46 0 102 -26t86 -26z" />
    <glyph glyph-name="ograve" unicode="&#xf2;" horiz-adv-x="630" 
d="M306 -10v-10q-120 0 -204 67t-84 181q0 102 74 180t199 90v-8q-39 -29 -39 -242q0 -105 14 -174.5t40 -83.5zM323 500q120 0 204.5 -66t84.5 -182q0 -102 -73.5 -180t-200.5 -90v7q40 27 40 243q0 232 -55 259v9zM196 688q0 26 19 44t52 18l132 -206l-2 -3
q-82 18 -141.5 58t-59.5 89z" />
    <glyph glyph-name="oacute" unicode="&#xf3;" horiz-adv-x="630" 
d="M306 -10v-10q-120 0 -204 67t-84 181q0 102 74 180t199 90v-8q-39 -29 -39 -242q0 -105 14 -174.5t40 -83.5zM323 500q120 0 204.5 -66t84.5 -182q0 -102 -73.5 -180t-200.5 -90v7q40 27 40 243q0 232 -55 259v9zM416 688q0 -49 -59.5 -89t-141.5 -58l-2 3l132 206
q33 0 52 -18t19 -44z" />
    <glyph glyph-name="ocircumflex" unicode="&#xf4;" horiz-adv-x="630" 
d="M306 -10v-10q-120 0 -204 67t-84 181q0 102 74 180t199 90v-8q-39 -29 -39 -242q0 -105 14 -174.5t40 -83.5zM323 500q120 0 204.5 -66t84.5 -182q0 -102 -73.5 -180t-200.5 -90v7q40 27 40 243q0 232 -55 259v9zM491 553l-3 -5l-173 52l-173 -52l-3 5l145 147h62z" />
    <glyph glyph-name="otilde" unicode="&#xf5;" horiz-adv-x="630" 
d="M306 -10v-10q-120 0 -204 67t-84 181q0 102 74 180t199 90v-8q-39 -29 -39 -242q0 -105 14 -174.5t40 -83.5zM323 500q120 0 204.5 -66t84.5 -182q0 -102 -73.5 -180t-200.5 -90v7q40 27 40 243q0 232 -55 259v9zM435 657q51 0 60 55l6 -5q-7 -148 -119 -148
q-46 0 -101.5 26t-86.5 26q-21 0 -38 -13.5t-22 -41.5l-6 5q7 148 119 148q46 0 102 -26t86 -26z" />
    <glyph glyph-name="odieresis" unicode="&#xf6;" horiz-adv-x="630" 
d="M306 -10v-10q-120 0 -204 67t-84 181q0 102 74 180t199 90v-8q-39 -29 -39 -242q0 -105 14 -174.5t40 -83.5zM323 500q120 0 204.5 -66t84.5 -182q0 -102 -73.5 -180t-200.5 -90v7q40 27 40 243q0 232 -55 259v9zM202 543q-42 0 -64 23.5t-22 61.5q0 37 22 61.5t64 24.5
t64.5 -24.5t22.5 -61.5q0 -38 -22.5 -61.5t-64.5 -23.5zM425 543q-41 0 -63 24t-22 61t22.5 61.5t62.5 24.5q43 0 65.5 -24.5t22.5 -61.5q0 -38 -22.5 -61.5t-65.5 -23.5z" />
    <glyph glyph-name="divide" unicode="&#xf7;" horiz-adv-x="441" 
d="M-2 276h441v-10h-441v10zM276 420q0 -22 -14.5 -36.5t-35.5 -14.5t-35.5 14.5t-14.5 36.5q0 20 14.5 34.5t35.5 14.5t35.5 -14.5t14.5 -34.5zM276 124q0 -22 -14.5 -36.5t-35.5 -14.5t-35.5 14.5t-14.5 36.5q0 20 14.5 34.5t35.5 14.5t35.5 -14.5t14.5 -34.5z" />
    <glyph glyph-name="oslash" unicode="&#xf8;" horiz-adv-x="630" 
d="M306 -10v-10q-73 0 -137 26l-38 -58h-16l42 64q-64 31 -101.5 86t-37.5 130q0 102 74 180t199 90v-8q-39 -29 -39 -242q0 -49 3 -91l118 194q-13 121 -50 140v9q74 0 137 -27l39 59h16l-42 -64q64 -31 101.5 -86t37.5 -130q0 -102 -73.5 -180t-200.5 -90v7q40 27 40 243
q0 59 -4 99l-117 -195q11 -126 49 -146z" />
    <glyph glyph-name="ugrave" unicode="&#xf9;" horiz-adv-x="684" 
d="M392 58v378q0 38 -38 38v6l252 9l8 -8v-394q0 -28 13.5 -39.5t41.5 -11.5l2 -7q-68 0 -135.5 -12t-101.5 -25l-33 -12zM292 481v-386q0 -21 10 -33t26 -12q11 0 27 6v-7q-8 -3 -63.5 -36t-95.5 -33q-60 0 -93 36t-33 105v299q0 33 -11.5 43.5t-42.5 10.5v6l268 9z
M216 688q0 26 19 44t52 18l132 -206l-2 -3q-82 18 -141.5 58t-59.5 89z" />
    <glyph glyph-name="uacute" unicode="&#xfa;" horiz-adv-x="684" 
d="M392 58v378q0 38 -38 38v6l252 9l8 -8v-394q0 -28 13.5 -39.5t41.5 -11.5l2 -7q-68 0 -135.5 -12t-101.5 -25l-33 -12zM292 481v-386q0 -21 10 -33t26 -12q11 0 27 6v-7q-8 -3 -63.5 -36t-95.5 -33q-60 0 -93 36t-33 105v299q0 33 -11.5 43.5t-42.5 10.5v6l268 9z
M466 688q0 -49 -59.5 -89t-141.5 -58l-2 3l132 206q33 0 52 -18t19 -44z" />
    <glyph glyph-name="ucircumflex" unicode="&#xfb;" horiz-adv-x="684" 
d="M392 58v378q0 38 -38 38v6l252 9l8 -8v-394q0 -28 13.5 -39.5t41.5 -11.5l2 -7q-68 0 -135.5 -12t-101.5 -25l-33 -12zM292 481v-386q0 -21 10 -33t26 -12q11 0 27 6v-7q-8 -3 -63.5 -36t-95.5 -33q-60 0 -93 36t-33 105v299q0 33 -11.5 43.5t-42.5 10.5v6l268 9z
M518 553l-3 -5l-173 52l-173 -52l-3 5l145 147h62z" />
    <glyph glyph-name="udieresis" unicode="&#xfc;" horiz-adv-x="684" 
d="M392 58v378q0 38 -38 38v6l252 9l8 -8v-394q0 -28 13.5 -39.5t41.5 -11.5l2 -7q-68 0 -135.5 -12t-101.5 -25l-33 -12zM292 481v-386q0 -21 10 -33t26 -12q11 0 27 6v-7q-8 -3 -63.5 -36t-95.5 -33q-60 0 -93 36t-33 105v299q0 33 -11.5 43.5t-42.5 10.5v6l268 9z
M229 543q-42 0 -64 23.5t-22 61.5q0 37 22 61.5t64 24.5t64.5 -24.5t22.5 -61.5q0 -38 -22.5 -61.5t-64.5 -23.5zM452 543q-41 0 -63 24t-22 61t22.5 61.5t62.5 24.5q43 0 65.5 -24.5t22.5 -61.5q0 -38 -22.5 -61.5t-65.5 -23.5z" />
    <glyph glyph-name="yacute" unicode="&#xfd;" horiz-adv-x="646" 
d="M433 95l-33 -95h-156l-169 422q-10 26 -23 37.5t-41 11.5v9q91 -4 193 -4l152 4v-9q-39 0 -39 -37q0 -17 12 -50zM351 -106l7 -4q-57 -126 -152 -126q-63 0 -98.5 31.5t-35.5 79.5q0 43 30 72t80 29q47 0 73.5 -28t26.5 -60q-30 -7 -47.5 -25t-17.5 -40q0 -15 8.5 -25
t23.5 -10q54 0 102 106zM504 298l-7 2q20 67 20 97q0 33 -19 54.5t-61 21.5v7q44 -4 107 -4l91 4v-7q-73 0 -114 -123zM507 688q0 -49 -59.5 -89t-141.5 -58l-2 3l132 206q33 0 52 -18t19 -44z" />
    <glyph glyph-name="thorn" unicode="&#xfe;" horiz-adv-x="662" 
d="M297 -18v-155q0 -71 57 -71v-6h-337v6q58 0 58 71v814q0 28 -13.5 40t-41.5 12l-2 7q68 0 137.5 12.5t104.5 25.5l36 12v-682q0 -73 34 -79v-9q-11 0 -33 2zM460 500q82 0 133.5 -65t51.5 -161q0 -129 -77 -211t-206 -82v8q47 25 47 243q0 207 -61 207q-10 0 -20 -5v8
q8 5 26.5 17.5t30.5 20t32.5 14t42.5 6.5z" />
    <glyph glyph-name="ydieresis" unicode="&#xff;" horiz-adv-x="646" 
d="M433 95l-33 -95h-156l-169 422q-10 26 -23 37.5t-41 11.5v9q91 -4 193 -4l152 4v-9q-39 0 -39 -37q0 -17 12 -50zM351 -106l7 -4q-57 -126 -152 -126q-63 0 -98.5 31.5t-35.5 79.5q0 43 30 72t80 29q47 0 73.5 -28t26.5 -60q-30 -7 -47.5 -25t-17.5 -40q0 -15 8.5 -25
t23.5 -10q54 0 102 106zM504 298l-7 2q20 67 20 97q0 33 -19 54.5t-61 21.5v7q44 -4 107 -4l91 4v-7q-73 0 -114 -123zM244 543q-42 0 -64 23.5t-22 61.5q0 37 22 61.5t64 24.5t64.5 -24.5t22.5 -61.5q0 -38 -22.5 -61.5t-64.5 -23.5zM467 543q-41 0 -63 24t-22 61
t22.5 61.5t62.5 24.5q43 0 65.5 -24.5t22.5 -61.5q0 -38 -22.5 -61.5t-65.5 -23.5z" />
    <glyph glyph-name="Amacron" unicode="&#x100;" horiz-adv-x="789" 
d="M192 286l3 10h196l-96 324l17 49l172 52l217 -645q23 -69 79 -69v-7q-55 3 -193 3l-187 -3v7q55 0 55 49q0 22 -16 78l-45 152h-202zM146 181l8 -1l-10 -33q-9 -28 -12.5 -46.5t-2.5 -38t10.5 -30.5t30 -18t52.5 -7v-7q-54 3 -121 3l-92 -3v7q78 0 126 142zM246 779h311
v-10h-311v10z" />
    <glyph glyph-name="amacron" unicode="&#x101;" horiz-adv-x="607" 
d="M310 32l3 -6q-7 -3 -38 -17t-58.5 -21.5t-58.5 -7.5q-58 0 -96.5 27t-38.5 81q0 72 70 114.5t199 47.5l-1 -9q-48 -28 -48 -133q0 -35 12.5 -57t35.5 -22q1 0 19 3zM145 293q-40 0 -64.5 21t-24.5 55q0 50 60 84t145 44v-7q-18 -5 -28.5 -25.5t-10.5 -46.5q0 -54 29 -90
q-20 -15 -50.5 -25t-55.5 -10zM599 39l4 -3q-31 -53 -129 -53q-82 0 -117 42.5t-35 135.5q0 31 4 106t4 128q0 49 -7.5 71.5t-29.5 25.5v7q9 1 21 1q126 0 177 -47.5t51 -153.5q0 -51 -5 -115t-5 -96q0 -65 38 -65q17 0 29 16zM157 615h311v-10h-311v10z" />
    <glyph glyph-name="Abreve" unicode="&#x102;" horiz-adv-x="789" 
d="M192 286l3 10h196l-96 324l17 49l172 52l217 -645q23 -69 79 -69v-7q-55 3 -193 3l-187 -3v7q55 0 55 49q0 22 -16 78l-45 152h-202zM146 181l8 -1l-10 -33q-9 -28 -12.5 -46.5t-2.5 -38t10.5 -30.5t30 -18t52.5 -7v-7q-54 3 -121 3l-92 -3v7q78 0 126 142zM540 895h7
q0 -64 -36 -104.5t-106 -40.5q-163 0 -163 145h116q0 -39 24.5 -63t64.5 -24q43 0 68 24t25 63z" />
    <glyph glyph-name="abreve" unicode="&#x103;" horiz-adv-x="607" 
d="M310 32l3 -6q-7 -3 -38 -17t-58.5 -21.5t-58.5 -7.5q-58 0 -96.5 27t-38.5 81q0 72 70 114.5t199 47.5l-1 -9q-48 -28 -48 -133q0 -35 12.5 -57t35.5 -22q1 0 19 3zM145 293q-40 0 -64.5 21t-24.5 55q0 50 60 84t145 44v-7q-18 -5 -28.5 -25.5t-10.5 -46.5q0 -54 29 -90
q-20 -15 -50.5 -25t-55.5 -10zM599 39l4 -3q-31 -53 -129 -53q-82 0 -117 42.5t-35 135.5q0 31 4 106t4 128q0 49 -7.5 71.5t-29.5 25.5v7q9 1 21 1q126 0 177 -47.5t51 -153.5q0 -51 -5 -115t-5 -96q0 -65 38 -65q17 0 29 16zM458 683h7q0 -64 -36 -104.5t-106 -40.5
q-163 0 -163 145h116q0 -39 24.5 -63t64.5 -24q43 0 68 24t25 63z" />
    <glyph glyph-name="Aogonek" unicode="&#x104;" horiz-adv-x="789" 
d="M192 286l3 10h196l-96 324l17 49l172 52l217 -645q23 -69 79 -69v-7q-55 3 -193 3l-187 -3v7q55 0 55 49q0 22 -16 78l-45 152h-202zM146 181l8 -1l-10 -33q-9 -28 -12.5 -46.5t-2.5 -38t10.5 -30.5t30 -18t52.5 -7v-7q-54 3 -121 3l-92 -3v7q78 0 126 142zM811 -203
l3 -7q-13 -9 -42.5 -17t-53.5 -8q-116 0 -116 83q0 44 45 79.5t111 48.5l3 -3q-42 -48 -42 -118q0 -34 14.5 -51t36.5 -17q21 0 41 10z" />
    <glyph glyph-name="aogonek" unicode="&#x105;" horiz-adv-x="607" 
d="M310 32l3 -6q-7 -3 -38 -17t-58.5 -21.5t-58.5 -7.5q-58 0 -96.5 27t-38.5 81q0 72 70 114.5t199 47.5l-1 -9q-48 -28 -48 -133q0 -35 12.5 -57t35.5 -22q1 0 19 3zM145 293q-40 0 -64.5 21t-24.5 55q0 50 60 84t145 44v-7q-18 -5 -28.5 -25.5t-10.5 -46.5q0 -54 29 -90
q-20 -15 -50.5 -25t-55.5 -10zM599 39l4 -3q-31 -53 -129 -53q-82 0 -117 42.5t-35 135.5q0 31 4 106t4 128q0 49 -7.5 71.5t-29.5 25.5v7q9 1 21 1q126 0 177 -47.5t51 -153.5q0 -51 -5 -115t-5 -96q0 -65 38 -65q17 0 29 16zM592 -203l3 -7q-13 -9 -42.5 -17t-53.5 -8
q-116 0 -116 83q0 44 45 79.5t111 48.5l3 -3q-42 -48 -42 -118q0 -34 14.5 -51t36.5 -17q21 0 41 10z" />
    <glyph glyph-name="Cacute" unicode="&#x106;" horiz-adv-x="742" 
d="M409 -10v-9q-187 0 -286 96.5t-99 256.5q0 165 106.5 275t278.5 110v-9q-26 -3 -46 -20t-37 -55t-26 -107t-9 -167q0 -344 118 -371zM690 486q-20 95 -81 151.5t-136 69.5v8q16 -2 89.5 -15t134.5 -13v-201h-7zM705 265h7l-31 -243q-55 0 -124.5 -17t-83.5 -19v7
q71 16 137.5 89.5t94.5 182.5zM524 897q0 -49 -59.5 -89t-141.5 -58l-2 3l132 206q33 0 52 -18t19 -44z" />
    <glyph glyph-name="cacute" unicode="&#x107;" horiz-adv-x="571" 
d="M399 35q75 0 139 43l3 -3q-80 -95 -231 -95q-138 0 -215 67t-77 181q0 111 88 190.5t220 81.5v-8q-32 -13 -53 -77t-21 -165q0 -95 38 -155t109 -60zM358 491v8q90 -4 142.5 -37t52.5 -86q0 -35 -28 -59t-76 -24q-55 0 -88 30q27 41 27 95q0 60 -30 73zM427 688
q0 -49 -59.5 -89t-141.5 -58l-2 3l132 206q33 0 52 -18t19 -44z" />
    <glyph glyph-name="Ccircumflex" unicode="&#x108;" horiz-adv-x="742" 
d="M409 -10v-9q-187 0 -286 96.5t-99 256.5q0 165 106.5 275t278.5 110v-9q-26 -3 -46 -20t-37 -55t-26 -107t-9 -167q0 -344 118 -371zM690 486q-20 95 -81 151.5t-136 69.5v8q16 -2 89.5 -15t134.5 -13v-201h-7zM705 265h7l-31 -243q-55 0 -124.5 -17t-83.5 -19v7
q71 16 137.5 89.5t94.5 182.5zM585 755l-3 -5l-173 52l-173 -52l-3 5l145 147h62z" />
    <glyph glyph-name="ccircumflex" unicode="&#x109;" horiz-adv-x="571" 
d="M399 35q75 0 139 43l3 -3q-80 -95 -231 -95q-138 0 -215 67t-77 181q0 111 88 190.5t220 81.5v-8q-32 -13 -53 -77t-21 -165q0 -95 38 -155t109 -60zM358 491v8q90 -4 142.5 -37t52.5 -86q0 -35 -28 -59t-76 -24q-55 0 -88 30q27 41 27 95q0 60 -30 73zM506 553l-3 -5
l-173 52l-173 -52l-3 5l145 147h62z" />
    <glyph glyph-name="Cdotaccent" unicode="&#x10a;" horiz-adv-x="742" 
d="M409 -10v-9q-187 0 -286 96.5t-99 256.5q0 165 106.5 275t278.5 110v-9q-26 -3 -46 -20t-37 -55t-26 -107t-9 -167q0 -344 118 -371zM690 486q-20 95 -81 151.5t-136 69.5v8q16 -2 89.5 -15t134.5 -13v-201h-7zM705 265h7l-31 -243q-55 0 -124.5 -17t-83.5 -19v7
q71 16 137.5 89.5t94.5 182.5zM424 750q-47 0 -72.5 27t-25.5 70t25.5 70.5t72.5 27.5q48 0 74.5 -27.5t26.5 -70.5t-26 -70t-75 -27z" />
    <glyph glyph-name="cdotaccent" unicode="&#x10b;" horiz-adv-x="571" 
d="M399 35q75 0 139 43l3 -3q-80 -95 -231 -95q-138 0 -215 67t-77 181q0 111 88 190.5t220 81.5v-8q-32 -13 -53 -77t-21 -165q0 -95 38 -155t109 -60zM358 491v8q90 -4 142.5 -37t52.5 -86q0 -35 -28 -59t-76 -24q-55 0 -88 30q27 41 27 95q0 60 -30 73zM325 531
q-47 0 -72.5 27t-25.5 70t25.5 70.5t72.5 27.5q48 0 74.5 -27.5t26.5 -70.5t-26 -70t-75 -27z" />
    <glyph glyph-name="Ccaron" unicode="&#x10c;" horiz-adv-x="742" 
d="M409 -10v-9q-187 0 -286 96.5t-99 256.5q0 165 106.5 275t278.5 110v-9q-26 -3 -46 -20t-37 -55t-26 -107t-9 -167q0 -344 118 -371zM690 486q-20 95 -81 151.5t-136 69.5v8q16 -2 89.5 -15t134.5 -13v-201h-7zM705 265h7l-31 -243q-55 0 -124.5 -17t-83.5 -19v7
q71 16 137.5 89.5t94.5 182.5zM234 896l3 5l173 -52l173 52l3 -5l-145 -147h-62z" />
    <glyph glyph-name="ccaron" unicode="&#x10d;" horiz-adv-x="571" 
d="M399 35q75 0 139 43l3 -3q-80 -95 -231 -95q-138 0 -215 67t-77 181q0 111 88 190.5t220 81.5v-8q-32 -13 -53 -77t-21 -165q0 -95 38 -155t109 -60zM358 491v8q90 -4 142.5 -37t52.5 -86q0 -35 -28 -59t-76 -24q-55 0 -88 30q27 41 27 95q0 60 -30 73zM138 695l3 5
l173 -52l173 52l3 -5l-145 -147h-62z" />
    <glyph glyph-name="Dcaron" unicode="&#x10e;" horiz-adv-x="818" 
d="M420 0v7q54 4 88 83.5t34 248.5q0 161 -39.5 255t-115.5 99v7q187 0 297 -89t110 -244q0 -171 -101.5 -268t-272.5 -99zM358 7v-7q-15 0 -70.5 1t-75.5 1l-192 -3v7q75 0 75 125v472q0 51 -17.5 70t-57.5 19v7q88 -3 192 -3q29 0 117 2v-603q0 -82 29 -88zM206 897l3 5
l173 -52l173 52l3 -5l-145 -147h-62z" />
    <glyph glyph-name="dcaron" unicode="&#x10f;" horiz-adv-x="753" 
d="M662 500l-5 5q31 26 31 64q0 54 -61 73q-4 16 -4 25q0 37 24.5 60t61.5 23q42 0 65 -25t23 -65q0 -57 -35 -94.5t-100 -65.5zM333 491v9q11 0 33 -2v144q0 28 -13.5 39.5t-41.5 11.5l-2 7q68 0 137.5 12.5t105.5 25.5l36 12v-661q0 -29 12.5 -40.5t40.5 -11.5l5 -8
q-68 0 -135.5 -12t-101.5 -25l-34 -12l-8 78v354q0 68 -34 79zM203 -20q-82 0 -133.5 65t-51.5 161q0 121 76.5 202t206.5 91v-8q-47 -29 -47 -243q0 -207 61 -207q10 0 20 5v-8q-8 -5 -26.5 -17.5t-30.5 -20t-32.5 -14t-42.5 -6.5z" />
    <glyph glyph-name="Dcroat" unicode="&#x110;" horiz-adv-x="818" 
d="M358 7v-7q-15 0 -70.5 1t-75.5 1l-192 -3v7q75 0 75 125v221h-71v10h71v241q0 51 -17.5 70t-57.5 19v7q88 -3 192 -3q29 0 117 2v-336h123v-10h-123v-257q0 -82 29 -88zM420 0v7q54 4 88 83.5t34 248.5q0 161 -39.5 255t-115.5 99v7q187 0 297 -89t110 -244
q0 -171 -101.5 -268t-272.5 -99z" />
    <glyph glyph-name="dcroat" unicode="&#x111;" horiz-adv-x="658" 
d="M333 491v9q11 0 33 -2v85h-69v10h69v49q0 28 -13.5 39.5t-41.5 11.5l-2 7q68 0 137.5 12.5t105.5 25.5l36 12v-157h42v-10h-42v-494q0 -29 12.5 -40.5t40.5 -11.5l5 -8q-68 0 -135.5 -12t-101.5 -25l-34 -12l-8 78v354q0 68 -34 79zM203 -20q-82 0 -133.5 65t-51.5 161
q0 121 76.5 202t206.5 91v-8q-47 -29 -47 -243q0 -207 61 -207q10 0 20 5v-8q-8 -5 -26.5 -17.5t-30.5 -20t-32.5 -14t-42.5 -6.5z" />
    <glyph glyph-name="Emacron" unicode="&#x112;" horiz-adv-x="678" 
d="M195 779h311v-10h-311v10zM387 692v6q44 0 232 2v-214h-7q-11 97 -72 151.5t-153 54.5zM420 1v8q84 0 147 71t85 194h8l-46 -274q-133 0 -194 1zM387 367v7q58 0 91 36.5t33 106.5h7v-320h-7q0 170 -124 170zM358 8v-7q-15 0 -70.5 1t-75.5 1l-192 -3v7q75 0 75 125v472
q0 51 -17.5 70t-57.5 19v7q88 -3 192 -3q29 0 117 2v-603q0 -82 29 -88z" />
    <glyph glyph-name="emacron" unicode="&#x113;" horiz-adv-x="586" 
d="M334 500q103 -2 166 -52t68 -143l-10 -12h-270v7l78 8q4 27 4 62q0 48 -10 82.5t-26 38.5v9zM395 36q75 0 137 43l4 -4q-80 -95 -232 -95q-138 0 -212 67t-74 181q0 106 81.5 184.5t203.5 86.5v-9q-51 -23 -51 -228q0 -226 143 -226zM174 615h311v-10h-311v10z" />
    <glyph glyph-name="Ebreve" unicode="&#x114;" horiz-adv-x="678" 
d="M387 692v6q44 0 232 2v-214h-7q-11 97 -72 151.5t-153 54.5zM420 1v8q84 0 147 71t85 194h8l-46 -274q-133 0 -194 1zM387 367v7q58 0 91 36.5t33 106.5h7v-320h-7q0 170 -124 170zM358 8v-7q-15 0 -70.5 1t-75.5 1l-192 -3v7q75 0 75 125v472q0 51 -17.5 70t-57.5 19v7
q88 -3 192 -3q29 0 117 2v-603q0 -82 29 -88zM499 895h7q0 -64 -36 -104.5t-106 -40.5q-163 0 -163 145h116q0 -39 24.5 -63t64.5 -24q43 0 68 24t25 63z" />
    <glyph glyph-name="ebreve" unicode="&#x115;" horiz-adv-x="586" 
d="M334 500q103 -2 166 -52t68 -143l-10 -12h-270v7l78 8q4 27 4 62q0 48 -10 82.5t-26 38.5v9zM395 36q75 0 137 43l4 -4q-80 -95 -232 -95q-138 0 -212 67t-74 181q0 106 81.5 184.5t203.5 86.5v-9q-51 -23 -51 -228q0 -226 143 -226zM455 683h7q0 -64 -36 -104.5
t-106 -40.5q-163 0 -163 145h116q0 -39 24.5 -63t64.5 -24q43 0 68 24t25 63z" />
    <glyph glyph-name="Edotaccent" unicode="&#x116;" horiz-adv-x="678" 
d="M387 692v6q44 0 232 2v-214h-7q-11 97 -72 151.5t-153 54.5zM420 1v8q84 0 147 71t85 194h8l-46 -274q-133 0 -194 1zM387 367v7q58 0 91 36.5t33 106.5h7v-320h-7q0 170 -124 170zM358 8v-7q-15 0 -70.5 1t-75.5 1l-192 -3v7q75 0 75 125v472q0 51 -17.5 70t-57.5 19v7
q88 -3 192 -3q29 0 117 2v-603q0 -82 29 -88zM355 750q-47 0 -72.5 27t-25.5 70t25.5 70.5t72.5 27.5q48 0 74.5 -27.5t26.5 -70.5t-26 -70t-75 -27z" />
    <glyph glyph-name="edotaccent" unicode="&#x117;" horiz-adv-x="586" 
d="M334 500q103 -2 166 -52t68 -143l-10 -12h-270v7l78 8q4 27 4 62q0 48 -10 82.5t-26 38.5v9zM395 36q75 0 137 43l4 -4q-80 -95 -232 -95q-138 0 -212 67t-74 181q0 106 81.5 184.5t203.5 86.5v-9q-51 -23 -51 -228q0 -226 143 -226zM319 531q-47 0 -72.5 27t-25.5 70
t25.5 70.5t72.5 27.5q48 0 74.5 -27.5t26.5 -70.5t-26 -70t-75 -27z" />
    <glyph glyph-name="Eogonek" unicode="&#x118;" horiz-adv-x="678" 
d="M387 692v6q44 0 232 2v-214h-7q-11 97 -72 151.5t-153 54.5zM420 1v8q84 0 147 71t85 194h8l-46 -274q-133 0 -194 1zM387 367v7q58 0 91 36.5t33 106.5h7v-320h-7q0 170 -124 170zM358 8v-7q-15 0 -70.5 1t-75.5 1l-192 -3v7q75 0 75 125v472q0 51 -17.5 70t-57.5 19v7
q88 -3 192 -3q29 0 117 2v-603q0 -82 29 -88zM645 -203l3 -7q-13 -9 -42.5 -17t-53.5 -8q-116 0 -116 83q0 44 45 79.5t111 48.5l3 -3q-42 -48 -42 -118q0 -34 14.5 -51t36.5 -17q21 0 41 10z" />
    <glyph glyph-name="eogonek" unicode="&#x119;" horiz-adv-x="586" 
d="M334 500q103 -2 166 -52t68 -143l-10 -12h-270v7l78 8q4 27 4 62q0 48 -10 82.5t-26 38.5v9zM395 36q75 0 137 43l4 -4q-80 -95 -232 -95q-138 0 -212 67t-74 181q0 106 81.5 184.5t203.5 86.5v-9q-51 -23 -51 -228q0 -226 143 -226zM461 -203l3 -7q-13 -9 -42.5 -17
t-53.5 -8q-116 0 -116 83q0 44 45 79.5t111 48.5l3 -3q-42 -48 -42 -118q0 -34 14.5 -51t36.5 -17q21 0 41 10z" />
    <glyph glyph-name="Ecaron" unicode="&#x11a;" horiz-adv-x="678" 
d="M387 692v6q44 0 232 2v-214h-7q-11 97 -72 151.5t-153 54.5zM420 1v8q84 0 147 71t85 194h8l-46 -274q-133 0 -194 1zM387 367v7q58 0 91 36.5t33 106.5h7v-320h-7q0 170 -124 170zM358 8v-7q-15 0 -70.5 1t-75.5 1l-192 -3v7q75 0 75 125v472q0 51 -17.5 70t-57.5 19v7
q88 -3 192 -3q29 0 117 2v-603q0 -82 29 -88zM172 897l3 5l173 -52l173 52l3 -5l-145 -147h-62z" />
    <glyph glyph-name="ecaron" unicode="&#x11b;" horiz-adv-x="586" 
d="M334 500q103 -2 166 -52t68 -143l-10 -12h-270v7l78 8q4 27 4 62q0 48 -10 82.5t-26 38.5v9zM395 36q75 0 137 43l4 -4q-80 -95 -232 -95q-138 0 -212 67t-74 181q0 106 81.5 184.5t203.5 86.5v-9q-51 -23 -51 -228q0 -226 143 -226zM147 695l3 5l173 -52l173 52l3 -5
l-145 -147h-62z" />
    <glyph glyph-name="Gcircumflex" unicode="&#x11c;" horiz-adv-x="837" 
d="M473 -15v7q39 9 39 79v170q0 51 -17.5 70t-57.5 19v7h380v-7q-75 0 -75 -125v-183q-80 0 -164 -17t-105 -20zM409 -10v-9q-187 0 -286 96.5t-99 256.5q0 165 106.5 275t278.5 110v-9q-26 -3 -46 -20t-37 -55t-26 -107t-9 -167q0 -344 118 -371zM690 486q-20 95 -81 151.5
t-136 69.5v8q16 -2 89.5 -15t134.5 -13v-201h-7zM603 755l-3 -5l-173 52l-173 -52l-3 5l145 147h62z" />
    <glyph glyph-name="gcircumflex" unicode="&#x11d;" horiz-adv-x="641" 
d="M278 492v8q39 0 80 -10t78.5 -29.5t61.5 -54t24 -78.5q0 -70 -65 -123.5t-172 -61.5v7q20 5 27 43t7 123q0 64 -12 118t-29 58zM254 142q-39 0 -77.5 9.5t-74.5 28.5t-58.5 53.5t-22.5 78.5q0 71 60 124.5t165 62.5v-8q-14 -8 -18 -46t-4 -119q0 -165 30 -175v-9z
M589 515q27 -4 42 -21.5t15 -39.5q0 -25 -15.5 -41.5t-42.5 -16.5q-29 0 -71.5 35.5t-56.5 42.5q88 1 129 41zM203 -262v-7q-98 5 -151 34t-53 80q0 37 25 57.5t55 20.5q40 0 63 -21q-28 -28 -28 -64q0 -81 89 -100zM387 -252l-3 8q48 24 48 81q0 38 -34.5 61.5t-91.5 23.5
h-59q-88 0 -151 27t-63 82q0 47 40 72t88 31l5 -4q-10 -6 -10 -16q0 -21 91 -21h76q126 0 194.5 -40.5t68.5 -114.5q0 -73 -55.5 -120.5t-143.5 -69.5zM454 553l-3 -5l-173 52l-173 -52l-3 5l145 147h62z" />
    <glyph glyph-name="Gbreve" unicode="&#x11e;" horiz-adv-x="837" 
d="M473 -15v7q39 9 39 79v170q0 51 -17.5 70t-57.5 19v7h380v-7q-75 0 -75 -125v-183q-80 0 -164 -17t-105 -20zM409 -10v-9q-187 0 -286 96.5t-99 256.5q0 165 106.5 275t278.5 110v-9q-26 -3 -46 -20t-37 -55t-26 -107t-9 -167q0 -344 118 -371zM690 486q-20 95 -81 151.5
t-136 69.5v8q16 -2 89.5 -15t134.5 -13v-201h-7zM572 895h7q0 -64 -36 -104.5t-106 -40.5q-163 0 -163 145h116q0 -39 24.5 -63t64.5 -24q43 0 68 24t25 63z" />
    <glyph glyph-name="gbreve" unicode="&#x11f;" horiz-adv-x="641" 
d="M278 492v8q39 0 80 -10t78.5 -29.5t61.5 -54t24 -78.5q0 -70 -65 -123.5t-172 -61.5v7q20 5 27 43t7 123q0 64 -12 118t-29 58zM254 142q-39 0 -77.5 9.5t-74.5 28.5t-58.5 53.5t-22.5 78.5q0 71 60 124.5t165 62.5v-8q-14 -8 -18 -46t-4 -119q0 -165 30 -175v-9z
M589 515q27 -4 42 -21.5t15 -39.5q0 -25 -15.5 -41.5t-42.5 -16.5q-29 0 -71.5 35.5t-56.5 42.5q88 1 129 41zM203 -262v-7q-98 5 -151 34t-53 80q0 37 25 57.5t55 20.5q40 0 63 -21q-28 -28 -28 -64q0 -81 89 -100zM387 -252l-3 8q48 24 48 81q0 38 -34.5 61.5t-91.5 23.5
h-59q-88 0 -151 27t-63 82q0 47 40 72t88 31l5 -4q-10 -6 -10 -16q0 -21 91 -21h76q126 0 194.5 -40.5t68.5 -114.5q0 -73 -55.5 -120.5t-143.5 -69.5zM437 683h7q0 -64 -36 -104.5t-106 -40.5q-163 0 -163 145h116q0 -39 24.5 -63t64.5 -24q43 0 68 24t25 63z" />
    <glyph glyph-name="Gdotaccent" unicode="&#x120;" horiz-adv-x="837" 
d="M473 -15v7q39 9 39 79v170q0 51 -17.5 70t-57.5 19v7h380v-7q-75 0 -75 -125v-183q-80 0 -164 -17t-105 -20zM409 -10v-9q-187 0 -286 96.5t-99 256.5q0 165 106.5 275t278.5 110v-9q-26 -3 -46 -20t-37 -55t-26 -107t-9 -167q0 -344 118 -371zM690 486q-20 95 -81 151.5
t-136 69.5v8q16 -2 89.5 -15t134.5 -13v-201h-7zM424 750q-47 0 -72.5 27t-25.5 70t25.5 70.5t72.5 27.5q48 0 74.5 -27.5t26.5 -70.5t-26 -70t-75 -27z" />
    <glyph glyph-name="gdotaccent" unicode="&#x121;" horiz-adv-x="641" 
d="M278 492v8q39 0 80 -10t78.5 -29.5t61.5 -54t24 -78.5q0 -70 -65 -123.5t-172 -61.5v7q20 5 27 43t7 123q0 64 -12 118t-29 58zM254 142q-39 0 -77.5 9.5t-74.5 28.5t-58.5 53.5t-22.5 78.5q0 71 60 124.5t165 62.5v-8q-14 -8 -18 -46t-4 -119q0 -165 30 -175v-9z
M589 515q27 -4 42 -21.5t15 -39.5q0 -25 -15.5 -41.5t-42.5 -16.5q-29 0 -71.5 35.5t-56.5 42.5q88 1 129 41zM203 -262v-7q-98 5 -151 34t-53 80q0 37 25 57.5t55 20.5q40 0 63 -21q-28 -28 -28 -64q0 -81 89 -100zM387 -252l-3 8q48 24 48 81q0 38 -34.5 61.5t-91.5 23.5
h-59q-88 0 -151 27t-63 82q0 47 40 72t88 31l5 -4q-10 -6 -10 -16q0 -21 91 -21h76q126 0 194.5 -40.5t68.5 -114.5q0 -73 -55.5 -120.5t-143.5 -69.5zM270 531q-47 0 -72.5 27t-25.5 70t25.5 70.5t72.5 27.5q48 0 74.5 -27.5t26.5 -70.5t-26 -70t-75 -27z" />
    <glyph glyph-name="Gcommaaccent" unicode="&#x122;" horiz-adv-x="837" 
d="M473 -15v7q39 9 39 79v170q0 51 -17.5 70t-57.5 19v7h380v-7q-75 0 -75 -125v-183q-80 0 -164 -17t-105 -20zM409 -10v-9q-187 0 -286 96.5t-99 256.5q0 165 106.5 275t278.5 110v-9q-26 -3 -46 -20t-37 -55t-26 -107t-9 -167q0 -344 118 -371zM690 486q-20 95 -81 151.5
t-136 69.5v8q16 -2 89.5 -15t134.5 -13v-201h-7zM384 -296l-5 5q31 26 31 64q0 54 -61 73q-4 16 -4 25q0 37 24.5 60t61.5 23q42 0 65 -25t23 -65q0 -57 -35 -94.5t-100 -65.5z" />
    <glyph glyph-name="gcommaaccent" unicode="&#x123;" horiz-adv-x="641" 
d="M333 780l5 -5q-31 -26 -31 -64q0 -54 61 -73q4 -16 4 -25q0 -37 -24.5 -60t-61.5 -23q-42 0 -65 25t-23 65q0 57 35 94.5t100 65.5zM278 492v8q39 0 80 -10t78.5 -29.5t61.5 -54t24 -78.5q0 -70 -65 -123.5t-172 -61.5v7q20 5 27 43t7 123q0 64 -12 118t-29 58zM254 142
q-39 0 -77.5 9.5t-74.5 28.5t-58.5 53.5t-22.5 78.5q0 71 60 124.5t165 62.5v-8q-14 -8 -18 -46t-4 -119q0 -165 30 -175v-9zM589 515q27 -4 42 -21.5t15 -39.5q0 -25 -15.5 -41.5t-42.5 -16.5q-29 0 -71.5 35.5t-56.5 42.5q88 1 129 41zM203 -262v-7q-98 5 -151 34t-53 80
q0 37 25 57.5t55 20.5q40 0 63 -21q-28 -28 -28 -64q0 -81 89 -100zM387 -252l-3 8q48 24 48 81q0 38 -34.5 61.5t-91.5 23.5h-59q-88 0 -151 27t-63 82q0 47 40 72t88 31l5 -4q-10 -6 -10 -16q0 -21 91 -21h76q126 0 194.5 -40.5t68.5 -114.5q0 -73 -55.5 -120.5
t-143.5 -69.5z" />
    <glyph glyph-name="Hcircumflex" unicode="&#x124;" horiz-adv-x="853" 
d="M393 360v10h131v234q0 51 -17.5 70t-57.5 19v7q88 -3 192 -3l192 3v-7q-75 0 -75 -125v-472q0 -51 17.5 -70t57.5 -19v-7q-88 3 -192 3l-192 -3v7q75 0 75 125v228h-131zM329 568v-472q0 -51 17.5 -70t57.5 -19v-7q-88 3 -192 3l-192 -3v7q75 0 75 125v472q0 51 -17.5 70
t-57.5 19v7q88 -3 192 -3l192 3v-7q-75 0 -75 -125zM601 755l-3 -5l-173 52l-173 -52l-3 5l145 147h62z" />
    <glyph glyph-name="hcircumflex" unicode="&#x125;" horiz-adv-x="694" 
d="M336 7v-7q-52 3 -150 3l-168 -3v7q57 0 57 70v565q0 28 -13.5 39.5t-41.5 11.5l-2 7q68 0 137.5 12.5t105.5 25.5l36 12v-705q0 -38 39 -38zM339 424v7q17 7 47 26.5t57 31t55 11.5q60 0 93 -36t33 -105v-299q0 -32 12 -42.5t43 -10.5v-7q-66 3 -165 3l-149 -3v7
q20 0 28.5 10.5t8.5 36.5v331q0 21 -10 33t-26 12q-11 0 -27 -6zM472 755l-3 -5l-173 52l-173 -52l-3 5l145 147h62z" />
    <glyph glyph-name="Hbar" unicode="&#x126;" horiz-adv-x="853" 
d="M329 568v-72h195v108q0 51 -17.5 70t-57.5 19v7q88 -3 192 -3l192 3v-7q-75 0 -75 -125v-472q0 -51 17.5 -70t57.5 -19v-7q-88 3 -192 3l-192 -3v7q75 0 75 125v228h-131v10h131v116h-195v-390q0 -51 17.5 -70t57.5 -19v-7q-88 3 -192 3l-192 -3v7q75 0 75 125v472
q0 51 -17.5 70t-57.5 19v7q88 -3 192 -3l192 3v-7q-75 0 -75 -125zM781 486v10h72v-10h-72zM0 486v10h72v-10h-72z" />
    <glyph glyph-name="hbar" unicode="&#x127;" horiz-adv-x="694" 
d="M336 7v-7q-52 3 -150 3l-168 -3v7q57 0 57 70v506h-41v10h41v49q0 28 -13.5 39.5t-41.5 11.5l-2 7q68 0 137.5 12.5t105.5 25.5l36 12v-157h105v-10h-105v-538q0 -38 39 -38zM339 424v7q17 7 47 26.5t57 31t55 11.5q60 0 93 -36t33 -105v-299q0 -32 12 -42.5t43 -10.5v-7
q-66 3 -165 3l-149 -3v7q20 0 28.5 10.5t8.5 36.5v331q0 21 -10 33t-26 12q-11 0 -27 -6z" />
    <glyph glyph-name="Itilde" unicode="&#x128;" 
d="M404 700v-7q-75 0 -75 -125v-472q0 -51 17.5 -70t57.5 -19v-7q-88 3 -192 3l-192 -3v7q75 0 75 125v472q0 51 -17.5 70t-57.5 19v7q88 -3 192 -3zM337 848q51 0 60 55l6 -5q-7 -148 -119 -148q-46 0 -101.5 26t-86.5 26q-21 0 -38 -13.5t-22 -41.5l-6 5q7 148 119 148
q46 0 102 -26t86 -26z" />
    <glyph glyph-name="itilde" unicode="&#x129;" horiz-adv-x="367" 
d="M336 7v-7q-48 3 -149 3l-169 -3v7q57 0 57 70v316q0 28 -13.5 39.5t-41.5 11.5l-2 7q68 0 137.5 12.5t105.5 24.5l36 12v-455q0 -38 39 -38zM304 657q51 0 60 55l6 -5q-7 -148 -119 -148q-46 0 -101.5 26t-86.5 26q-21 0 -38 -13.5t-22 -41.5l-6 5q7 148 119 148
q46 0 102 -26t86 -26z" />
    <glyph glyph-name="Imacron" unicode="&#x12a;" 
d="M404 700v-7q-75 0 -75 -125v-472q0 -51 17.5 -70t57.5 -19v-7q-88 3 -192 3l-192 -3v7q75 0 75 125v472q0 51 -17.5 70t-57.5 19v7q88 -3 192 -3zM61 779h311v-10h-311v10z" />
    <glyph glyph-name="imacron" unicode="&#x12b;" horiz-adv-x="367" 
d="M336 7v-7q-48 3 -149 3l-169 -3v7q57 0 57 70v316q0 28 -13.5 39.5t-41.5 11.5l-2 7q68 0 137.5 12.5t105.5 24.5l36 12v-455q0 -38 39 -38zM22 615h311v-10h-311v10z" />
    <glyph glyph-name="Ibreve" unicode="&#x12c;" 
d="M404 700v-7q-75 0 -75 -125v-472q0 -51 17.5 -70t57.5 -19v-7q-88 3 -192 3l-192 -3v7q75 0 75 125v472q0 51 -17.5 70t-57.5 19v7q88 -3 192 -3zM362 895h7q0 -64 -36 -104.5t-106 -40.5q-163 0 -163 145h116q0 -39 24.5 -63t64.5 -24q43 0 68 24t25 63z" />
    <glyph glyph-name="ibreve" unicode="&#x12d;" horiz-adv-x="367" 
d="M336 7v-7q-48 3 -149 3l-169 -3v7q57 0 57 70v316q0 28 -13.5 39.5t-41.5 11.5l-2 7q68 0 137.5 12.5t105.5 24.5l36 12v-455q0 -38 39 -38zM329 683h7q0 -64 -36 -104.5t-106 -40.5q-163 0 -163 145h116q0 -39 24.5 -63t64.5 -24q43 0 68 24t25 63z" />
    <glyph glyph-name="Iogonek" unicode="&#x12e;" 
d="M404 700v-7q-75 0 -75 -125v-472q0 -51 17.5 -70t57.5 -19v-7q-88 3 -192 3l-192 -3v7q75 0 75 125v472q0 51 -17.5 70t-57.5 19v7q88 -3 192 -3zM435 -203l3 -7q-13 -9 -42.5 -17t-53.5 -8q-116 0 -116 83q0 44 45 79.5t111 48.5l3 -3q-42 -48 -42 -118q0 -34 14.5 -51
t36.5 -17q21 0 41 10z" />
    <glyph glyph-name="iogonek" unicode="&#x12f;" horiz-adv-x="367" 
d="M336 7v-7q-48 3 -149 3l-169 -3v7q57 0 57 70v316q0 28 -13.5 39.5t-41.5 11.5l-2 7q68 0 137.5 12.5t105.5 24.5l36 12v-455q0 -38 39 -38zM184 533q-56 0 -85 26.5t-29 69.5q0 44 29 71.5t85 27.5t85.5 -27.5t29.5 -71.5q0 -43 -29.5 -69.5t-85.5 -26.5zM367 -203l3 -7
q-13 -9 -42.5 -17t-53.5 -8q-116 0 -116 83q0 44 45 79.5t111 48.5l3 -3q-42 -48 -42 -118q0 -34 14.5 -51t36.5 -17q21 0 41 10z" />
    <glyph glyph-name="Idotaccent" unicode="&#x130;" 
d="M404 700v-7q-75 0 -75 -125v-472q0 -51 17.5 -70t57.5 -19v-7q-88 3 -192 3l-192 -3v7q75 0 75 125v472q0 51 -17.5 70t-57.5 19v7q88 -3 192 -3zM214 751q-47 0 -72.5 27t-25.5 70t25.5 70.5t72.5 27.5q48 0 74.5 -27.5t26.5 -70.5t-26 -70t-75 -27z" />
    <glyph glyph-name="dotlessi" unicode="&#x131;" horiz-adv-x="367" 
d="M336 7v-7q-48 3 -149 3l-169 -3v7q57 0 57 70v316q0 28 -13.5 39.5t-41.5 11.5l-2 7q68 0 137.5 12.5t105.5 24.5l36 12v-455q0 -38 39 -38z" />
    <glyph glyph-name="IJ" unicode="&#x132;" horiz-adv-x="848" 
d="M404 700v-7q-75 0 -75 -125v-472q0 -51 17.5 -70t57.5 -19v-7q-88 3 -192 3l-192 -3v7q75 0 75 125v472q0 51 -17.5 70t-57.5 19v7q88 -3 192 -3zM424 -219q9 15 31 39t34 42q30 44 30 147v595q0 51 -17.5 70t-57.5 19v7q88 -3 192 -3l192 3v-7q-75 0 -75 -125v-491
q0 -122 -71 -182q-36 -31 -127.5 -57t-126.5 -62z" />
    <glyph glyph-name="ij" unicode="&#x133;" horiz-adv-x="731" 
d="M336 7v-7q-48 3 -149 3l-169 -3v7q57 0 57 70v316q0 28 -13.5 39.5t-41.5 11.5l-2 7q68 0 137.5 12.5t105.5 24.5l36 12v-455q0 -38 39 -38zM184 533q-56 0 -85 26.5t-29 69.5q0 44 29 71.5t85 27.5t85.5 -27.5t29.5 -71.5q0 -43 -29.5 -69.5t-85.5 -26.5zM661 500v-441
q0 -151 -100 -214q-37 -23 -127.5 -44.5t-121.5 -45.5l-5 5q7 7 47.5 38t56.5 58q18 32 23 68.5t5 102.5v366q0 28 -13.5 39.5t-41.5 11.5l-2 7q68 0 137.5 12.5t105.5 24.5zM548 533q-56 0 -85 26.5t-29 69.5q0 44 29 71.5t85 27.5t85.5 -27.5t29.5 -71.5
q0 -43 -29.5 -69.5t-85.5 -26.5z" />
    <glyph glyph-name="Jcircumflex" unicode="&#x134;" 
d="M0 -219q9 15 31 39t34 42q30 44 30 147v595q0 51 -17.5 70t-57.5 19v7q88 -3 192 -3l192 3v-7q-75 0 -75 -125v-491q0 -122 -71 -182q-36 -31 -127.5 -57t-126.5 -62zM389 755l-3 -5l-173 52l-173 -52l-3 5l145 147h62z" />
    <glyph glyph-name="jcircumflex" unicode="&#x135;" horiz-adv-x="372" 
d="M302 500v-441q0 -151 -100 -214q-37 -23 -127.5 -44.5t-121.5 -45.5l-5 5q7 7 47.5 38t56.5 58q18 32 23 68.5t5 102.5v366q0 28 -13.5 39.5t-41.5 11.5l-2 7q68 0 137.5 12.5t105.5 24.5zM362 553l-3 -5l-173 52l-173 -52l-3 5l145 147h62z" />
    <glyph glyph-name="Kcommaaccent" unicode="&#x136;" horiz-adv-x="846" 
d="M581 584l-5 5q20 26 20 47q0 57 -86 57v7q50 -3 156 -3l142 3v-7q-71 0 -126 -24t-101 -85zM329 568v-472q0 -51 17.5 -70t57.5 -19v-7q-88 3 -192 3l-192 -3v7q75 0 75 125v472q0 51 -17.5 70t-57.5 19v7q88 -3 192 -3l192 3v-7q-75 0 -75 -125zM376 327l150 190
l252 -435q36 -60 80 -60v-8q-48 -33 -142 -33q-83 0 -139 30.5t-91 99.5zM399 -296l-5 5q31 26 31 64q0 54 -61 73q-4 16 -4 25q0 37 24.5 60t61.5 23q42 0 65 -25t23 -65q0 -57 -35 -94.5t-100 -65.5z" />
    <glyph glyph-name="kcommaaccent" unicode="&#x137;" horiz-adv-x="710" 
d="M477 386l-4 5q15 19 15 39q0 43 -84 43v7h264v-7q-67 0 -106.5 -19.5t-84.5 -67.5zM453 366l190 -289q20 -31 35.5 -44t36.5 -13v-5q-55 -35 -140 -35q-68 0 -110.5 27t-76.5 87l-66 117zM336 7v-7q-48 3 -149 3l-169 -3v7q57 0 57 70v565q0 28 -13.5 39.5t-41.5 11.5
l-2 7q68 0 137.5 12.5t105.5 25.5l36 12v-705q0 -38 39 -38zM315 -296l-5 5q31 26 31 64q0 54 -61 73q-4 16 -4 25q0 37 24.5 60t61.5 23q42 0 65 -25t23 -65q0 -57 -35 -94.5t-100 -65.5z" />
    <glyph glyph-name="kgreenlandic" unicode="&#x138;" horiz-adv-x="710" 
d="M477 386l-4 5q15 19 15 39q0 43 -84 43v7h264v-7q-67 0 -106.5 -19.5t-84.5 -67.5zM453 366l190 -289q20 -31 35.5 -44t36.5 -13v-5q-55 -35 -140 -35q-68 0 -110.5 27t-76.5 87l-66 117zM336 7v-7q-48 3 -149 3l-169 -3v7q57 0 57 70v316q0 28 -13.5 39.5t-41.5 11.5
l-2 7q68 0 137.5 12.5t105.5 24.5l36 12v-455q0 -38 39 -38z" />
    <glyph glyph-name="Lacute" unicode="&#x139;" horiz-adv-x="674" 
d="M420 1v8q82 0 146.5 83.5t89.5 203.5h8l-42 -296q-141 0 -202 1zM95 132v472q0 51 -17.5 70t-57.5 19v7q88 -3 192 -3l192 3v-7q-75 0 -75 -125v-472q0 -82 29 -88v-7q-15 0 -70.5 1t-75.5 1l-192 -3v7q75 0 75 125zM335 897q0 -49 -59.5 -89t-141.5 -58l-2 3l132 206
q33 0 52 -18t19 -44z" />
    <glyph glyph-name="lacute" unicode="&#x13a;" horiz-adv-x="367" 
d="M336 7v-7q-48 3 -149 3l-169 -3v7q57 0 57 70v565q0 28 -13.5 39.5t-41.5 11.5l-2 7q68 0 137.5 12.5t105.5 25.5l36 12v-705q0 -38 39 -38zM285 897q0 -49 -59.5 -89t-141.5 -58l-2 3l132 206q33 0 52 -18t19 -44z" />
    <glyph glyph-name="Lcommaaccent" unicode="&#x13b;" horiz-adv-x="674" 
d="M420 1v8q82 0 146.5 83.5t89.5 203.5h8l-42 -296q-141 0 -202 1zM95 132v472q0 51 -17.5 70t-57.5 19v7q88 -3 192 -3l192 3v-7q-75 0 -75 -125v-472q0 -82 29 -88v-7q-15 0 -70.5 1t-75.5 1l-192 -3v7q75 0 75 125zM289 -296l-5 5q31 26 31 64q0 54 -61 73q-4 16 -4 25
q0 37 24.5 60t61.5 23q42 0 65 -25t23 -65q0 -57 -35 -94.5t-100 -65.5z" />
    <glyph glyph-name="lcommaaccent" unicode="&#x13c;" horiz-adv-x="367" 
d="M336 7v-7q-48 3 -149 3l-169 -3v7q57 0 57 70v565q0 28 -13.5 39.5t-41.5 11.5l-2 7q68 0 137.5 12.5t105.5 25.5l36 12v-705q0 -38 39 -38zM135 -296l-5 5q31 26 31 64q0 54 -61 73q-4 16 -4 25q0 37 24.5 60t61.5 23q42 0 65 -25t23 -65q0 -57 -35 -94.5t-100 -65.5z
" />
    <glyph glyph-name="Lcaron" unicode="&#x13d;" horiz-adv-x="674" 
d="M503 464l-5 5q31 26 31 66q0 24 -15.5 45.5t-45.5 30.5q-4 16 -4 25q0 37 24.5 60t61.5 23q42 0 65 -25t23 -65q0 -107 -135 -165zM420 1v8q82 0 146.5 83.5t89.5 203.5h8l-42 -296q-141 0 -202 1zM95 132v472q0 51 -17.5 70t-57.5 19v7q88 -3 192 -3l192 3v-7
q-75 0 -75 -125v-472q0 -82 29 -88v-7q-15 0 -70.5 1t-75.5 1l-192 -3v7q75 0 75 125z" />
    <glyph glyph-name="lcaron" unicode="&#x13e;" horiz-adv-x="497" 
d="M392 464l-5 5q31 26 31 66q0 24 -15.5 45.5t-45.5 30.5q-4 16 -4 25q0 37 24.5 60t61.5 23q42 0 65 -25t23 -65q0 -107 -135 -165zM336 7v-7q-48 3 -149 3l-169 -3v7q57 0 57 70v565q0 28 -13.5 39.5t-41.5 11.5l-2 7q68 0 137.5 12.5t105.5 25.5l36 12v-705
q0 -38 39 -38z" />
    <glyph glyph-name="Ldot" unicode="&#x13f;" horiz-adv-x="674" 
d="M420 1v8q82 0 146.5 83.5t89.5 203.5h8l-42 -296q-141 0 -202 1zM95 132v472q0 51 -17.5 70t-57.5 19v7q88 -3 192 -3l192 3v-7q-75 0 -75 -125v-472q0 -82 29 -88v-7q-15 0 -70.5 1t-75.5 1l-192 -3v7q75 0 75 125zM502 280q-52 0 -79.5 29t-27.5 76q0 46 28 76t79 30
t79.5 -30t28.5 -76q0 -47 -28 -76t-80 -29z" />
    <glyph glyph-name="ldot" unicode="&#x140;" horiz-adv-x="565" 
d="M336 7v-7q-48 3 -149 3l-169 -3v7q57 0 57 70v565q0 28 -13.5 39.5t-41.5 11.5l-2 7q68 0 137.5 12.5t105.5 25.5l36 12v-705q0 -38 39 -38zM439 233q-52 0 -79.5 29t-27.5 76q0 46 28 76t79 30t79.5 -30t28.5 -76q0 -47 -28 -76t-80 -29z" />
    <glyph glyph-name="Lslash" unicode="&#x141;" horiz-adv-x="674" 
d="M95 132v143l-52 -21v11l52 21v318q0 51 -17.5 70t-57.5 19v7q88 -3 192 -3l192 3v-7q-75 0 -75 -125v-185l153 63v-10l-153 -64v-276q0 -82 29 -88v-7q-15 0 -70.5 1t-75.5 1l-192 -3v7q75 0 75 125zM420 1v8q82 0 146.5 83.5t89.5 203.5h8l-42 -296q-141 0 -202 1z" />
    <glyph glyph-name="lslash" unicode="&#x142;" horiz-adv-x="367" 
d="M336 7v-7q-48 3 -149 3l-169 -3v7q57 0 57 70v265l-56 -26v10l56 26v290q0 28 -13.5 39.5t-41.5 11.5l-2 7q68 0 137.5 12.5t105.5 25.5l36 12v-295l63 30v-10l-63 -31v-399q0 -38 39 -38z" />
    <glyph glyph-name="Nacute" unicode="&#x143;" horiz-adv-x="759" 
d="M90 184h9v-32q0 -145 144 -145v-7q-108 3 -143 3l-85 -3v7q75 0 75 145v32zM664 205v-205l-154 -18l-418 649q-24 36 -38.5 49t-38.5 13v7q153 -3 339 -3q4 -34 46 -97zM664 514h-9v34q0 75 -36.5 110t-96.5 35v7q104 -3 139 -3l90 3v-7q-37 0 -62 -35.5t-25 -109.5v-34z
M515 896q0 -49 -59.5 -89t-141.5 -58l-2 3l132 206q33 0 52 -18t19 -44z" />
    <glyph glyph-name="nacute" unicode="&#x144;" horiz-adv-x="687" 
d="M297 500v-455q0 -38 39 -38v-7q-48 3 -149 3l-169 -3v7q57 0 57 70v316q0 28 -13.5 39.5t-41.5 11.5l-2 7q68 0 137.5 12.5t105.5 24.5zM333 424v7q17 7 47 26.5t57 31t55 11.5q60 0 93 -36t33 -105v-299q0 -32 12 -42.5t43 -10.5v-7q-66 3 -165 3l-149 -3v7
q20 0 28.5 10.5t8.5 36.5v331q0 21 -10 33t-26 12q-11 0 -27 -6zM463 688q0 -49 -59.5 -89t-141.5 -58l-2 3l132 206q33 0 52 -18t19 -44z" />
    <glyph glyph-name="Ncommaaccent" unicode="&#x145;" horiz-adv-x="759" 
d="M90 184h9v-32q0 -145 144 -145v-7q-108 3 -143 3l-85 -3v7q75 0 75 145v32zM664 205v-205l-154 -18l-418 649q-24 36 -38.5 49t-38.5 13v7q153 -3 339 -3q4 -34 46 -97zM664 514h-9v34q0 75 -36.5 110t-96.5 35v7q104 -3 139 -3l90 3v-7q-37 0 -62 -35.5t-25 -109.5v-34z
M331 -296l-5 5q31 26 31 64q0 54 -61 73q-4 16 -4 25q0 37 24.5 60t61.5 23q42 0 65 -25t23 -65q0 -57 -35 -94.5t-100 -65.5z" />
    <glyph glyph-name="ncommaaccent" unicode="&#x146;" horiz-adv-x="687" 
d="M297 500v-455q0 -38 39 -38v-7q-48 3 -149 3l-169 -3v7q57 0 57 70v316q0 28 -13.5 39.5t-41.5 11.5l-2 7q68 0 137.5 12.5t105.5 24.5zM333 424v7q17 7 47 26.5t57 31t55 11.5q60 0 93 -36t33 -105v-299q0 -32 12 -42.5t43 -10.5v-7q-66 3 -165 3l-149 -3v7
q20 0 28.5 10.5t8.5 36.5v331q0 21 -10 33t-26 12q-11 0 -27 -6zM295 -296l-5 5q31 26 31 64q0 54 -61 73q-4 16 -4 25q0 37 24.5 60t61.5 23q42 0 65 -25t23 -65q0 -57 -35 -94.5t-100 -65.5z" />
    <glyph glyph-name="Ncaron" unicode="&#x147;" horiz-adv-x="759" 
d="M90 184h9v-32q0 -145 144 -145v-7q-108 3 -143 3l-85 -3v7q75 0 75 145v32zM664 205v-205l-154 -18l-418 649q-24 36 -38.5 49t-38.5 13v7q153 -3 339 -3q4 -34 46 -97zM664 514h-9v34q0 75 -36.5 110t-96.5 35v7q104 -3 139 -3l90 3v-7q-37 0 -62 -35.5t-25 -109.5v-34z
M223 897l3 5l173 -52l173 52l3 -5l-145 -147h-62z" />
    <glyph glyph-name="ncaron" unicode="&#x148;" horiz-adv-x="687" 
d="M297 500v-455q0 -38 39 -38v-7q-48 3 -149 3l-169 -3v7q57 0 57 70v316q0 28 -13.5 39.5t-41.5 11.5l-2 7q68 0 137.5 12.5t105.5 24.5zM333 424v7q17 7 47 26.5t57 31t55 11.5q60 0 93 -36t33 -105v-299q0 -32 12 -42.5t43 -10.5v-7q-66 3 -165 3l-149 -3v7
q20 0 28.5 10.5t8.5 36.5v331q0 21 -10 33t-26 12q-11 0 -27 -6zM167 695l3 5l173 -52l173 52l3 -5l-145 -147h-62z" />
    <glyph glyph-name="napostrophe" unicode="&#x149;" horiz-adv-x="687" 
d="M297 500v-455q0 -38 39 -38v-7q-48 3 -149 3l-169 -3v7q57 0 57 70v316q0 28 -13.5 39.5t-41.5 11.5l-2 7q68 0 137.5 12.5t105.5 24.5zM333 424v7q17 7 47 26.5t57 31t55 11.5q60 0 93 -36t33 -105v-299q0 -32 12 -42.5t43 -10.5v-7q-66 3 -165 3l-149 -3v7
q20 0 28.5 10.5t8.5 36.5v331q0 21 -10 33t-26 12q-11 0 -27 -6zM-30 469l-5 5q31 26 31 64q0 54 -61 73q-4 16 -4 25q0 37 24.5 60t61.5 23q42 0 65 -25t23 -65q0 -57 -35 -94.5t-100 -65.5z" />
    <glyph glyph-name="Eng" unicode="&#x14a;" horiz-adv-x="759" 
d="M629 -156l8 -5q-42 -89 -159 -89q-58 0 -92.5 23.5t-34.5 63.5q0 32 24 54.5t61 22.5q53 0 78 -44q-24 -21 -24 -47q0 -20 15 -34t37 -14q26 0 51 21t36 48zM90 184h9v-32q0 -145 144 -145v-7q-108 3 -143 3l-85 -3v7q75 0 75 145v32zM664 205v-205l-154 -18l-418 649
q-24 36 -38.5 49t-38.5 13v7q153 -3 339 -3q4 -34 46 -97zM664 514h-9v34q0 75 -36.5 110t-96.5 35v7q104 -3 139 -3l90 3v-7q-37 0 -62 -35.5t-25 -109.5v-34z" />
    <glyph glyph-name="eng" unicode="&#x14b;" horiz-adv-x="687" 
d="M333 424v7q17 7 47 26.5t57 31t55 11.5q60 0 93 -36t33 -105v-300q0 -151 -100 -214q-37 -23 -127.5 -44.5t-121.5 -45.5l-5 5q7 7 47.5 38t56.5 58q18 32 23 68.5t5 102.5v358q0 21 -10 33t-26 12q-11 0 -27 -6zM297 500v-455q0 -38 39 -38v-7q-48 3 -149 3l-169 -3v7
q57 0 57 70v316q0 28 -13.5 39.5t-41.5 11.5l-2 7q68 0 137.5 12.5t105.5 24.5z" />
    <glyph glyph-name="Omacron" unicode="&#x14c;" horiz-adv-x="795" 
d="M416 719q168 -4 261.5 -99t93.5 -253q0 -152 -88 -259t-239 -124v6q35 17 48.5 100t13.5 249q0 164 -24 266t-66 108v6zM380 -12v-7q-168 4 -262 99.5t-94 253.5q0 152 88.5 258.5t239.5 124.5v-7q-35 -17 -48.5 -101.5t-13.5 -247.5q0 -166 23 -263.5t67 -109.5z
M243 779h311v-10h-311v10z" />
    <glyph glyph-name="omacron" unicode="&#x14d;" horiz-adv-x="630" 
d="M306 -10v-10q-120 0 -204 67t-84 181q0 102 74 180t199 90v-8q-39 -29 -39 -242q0 -105 14 -174.5t40 -83.5zM323 500q120 0 204.5 -66t84.5 -182q0 -102 -73.5 -180t-200.5 -90v7q40 27 40 243q0 232 -55 259v9zM159 615h311v-10h-311v10z" />
    <glyph glyph-name="Obreve" unicode="&#x14e;" horiz-adv-x="795" 
d="M416 719q168 -4 261.5 -99t93.5 -253q0 -152 -88 -259t-239 -124v6q35 17 48.5 100t13.5 249q0 164 -24 266t-66 108v6zM380 -12v-7q-168 4 -262 99.5t-94 253.5q0 152 88.5 258.5t239.5 124.5v-7q-35 -17 -48.5 -101.5t-13.5 -247.5q0 -166 23 -263.5t67 -109.5z
M543 895h7q0 -64 -36 -104.5t-106 -40.5q-163 0 -163 145h116q0 -39 24.5 -63t64.5 -24q43 0 68 24t25 63z" />
    <glyph glyph-name="obreve" unicode="&#x14f;" horiz-adv-x="630" 
d="M306 -10v-10q-120 0 -204 67t-84 181q0 102 74 180t199 90v-8q-39 -29 -39 -242q0 -105 14 -174.5t40 -83.5zM323 500q120 0 204.5 -66t84.5 -182q0 -102 -73.5 -180t-200.5 -90v7q40 27 40 243q0 232 -55 259v9zM467 683h7q0 -64 -36 -104.5t-106 -40.5q-163 0 -163 145
h116q0 -39 24.5 -63t64.5 -24q43 0 68 24t25 63z" />
    <glyph glyph-name="Ohungarumlaut" unicode="&#x150;" horiz-adv-x="795" 
d="M416 719q168 -4 261.5 -99t93.5 -253q0 -152 -88 -259t-239 -124v6q35 17 48.5 100t13.5 249q0 164 -24 266t-66 108v6zM380 -12v-7q-168 4 -262 99.5t-94 253.5q0 152 88.5 258.5t239.5 124.5v-7q-35 -17 -48.5 -101.5t-13.5 -247.5q0 -166 23 -263.5t67 -109.5z
M608 897q0 -49 -59.5 -89t-141.5 -58l-2 3l132 206q33 0 52 -18t19 -44zM453 897q0 -49 -59.5 -89t-141.5 -58l-2 3l132 206q33 0 52 -18t19 -44z" />
    <glyph glyph-name="ohungarumlaut" unicode="&#x151;" horiz-adv-x="630" 
d="M306 -10v-10q-120 0 -204 67t-84 181q0 102 74 180t199 90v-8q-39 -29 -39 -242q0 -105 14 -174.5t40 -83.5zM323 500q120 0 204.5 -66t84.5 -182q0 -102 -73.5 -180t-200.5 -90v7q40 27 40 243q0 232 -55 259v9zM511 688q0 -49 -59.5 -89t-141.5 -58l-2 3l132 206
q33 0 52 -18t19 -44zM356 688q0 -49 -59.5 -89t-141.5 -58l-2 3l132 206q33 0 52 -18t19 -44z" />
    <glyph glyph-name="OE" unicode="&#x152;" horiz-adv-x="1096" 
d="M776 8v-7q-15 0 -70.5 1t-75.5 1q-84 0 -108 -1q-41 -14 -78 -18v6q35 17 48.5 100t13.5 249q0 341 -90 372v7q66 0 127 -22q147 0 204 3v-603q0 -82 29 -88zM380 -11v-8q-168 4 -262 99.5t-94 253.5q0 152 88.5 258.5t239.5 124.5v-7q-35 -17 -48.5 -101.5t-13.5 -247.5
q0 -161 23 -259t67 -113zM838 1v8q84 0 147 71t85 194h8l-46 -274q-133 0 -194 1zM805 692v6q44 0 232 2v-214h-7q-11 97 -72 151.5t-153 54.5zM805 367v7q58 0 91 36.5t33 106.5h7v-320h-7q0 170 -124 170z" />
    <glyph glyph-name="oe" unicode="&#x153;" horiz-adv-x="943" 
d="M752 36q75 0 137 43l4 -4q-80 -95 -232 -95q-111 0 -182 46q-63 -37 -141 -44v7q40 27 40 243q0 232 -55 259v9q105 0 181 -52q71 45 156 51v-10q-51 -23 -51 -227q0 -226 143 -226zM306 -10v-10q-120 0 -204 67t-84 181q0 102 74 180t199 90v-8q-39 -29 -39 -242
q0 -105 14 -174.5t40 -83.5zM691 500q103 -2 166 -52t68 -143l-10 -12h-270v7l78 8q4 27 4 62q0 47 -10 81.5t-26 38.5v10z" />
    <glyph glyph-name="Racute" unicode="&#x154;" horiz-adv-x="787" 
d="M329 698v-602q0 -51 17.5 -70t57.5 -19v-7q-88 3 -192 3l-192 -3v7q75 0 75 125v472q0 51 -17.5 70t-57.5 19v7q88 -3 192 -3q79 0 117 1zM387 331v7q37 3 56 41.5t19 133.5q0 79 -19 127t-56 52v7q1 0 12 0.5t16 0.5q79 0 140.5 -16t104 -57t42.5 -104q0 -76 -60.5 -123
t-208.5 -62v-4q117 0 177.5 -35t82.5 -116l31 -111q17 -59 53 -59q9 0 19 3l1 -5q-20 -12 -63.5 -21t-88.5 -9q-189 0 -206 162l-13 123q-4 35 -12 49t-27 16zM509 897q0 -49 -59.5 -89t-141.5 -58l-2 3l132 206q33 0 52 -18t19 -44z" />
    <glyph glyph-name="racute" unicode="&#x155;" horiz-adv-x="563" 
d="M337 410l-1 8q11 7 30.5 29t41.5 37.5t48 15.5q42 0 69.5 -28t27.5 -68q0 -43 -28 -74.5t-76 -31.5q-41 0 -65 20q12 24 12 46q0 21 -10.5 35t-31.5 14q-10 0 -17 -3zM297 500v-448q0 -45 53 -45v-7q-62 3 -163 3l-169 -3v7q57 0 57 70v316q0 28 -13.5 39.5t-41.5 11.5
l-2 7q68 0 137.5 12.5t105.5 24.5zM429 688q0 -49 -59.5 -89t-141.5 -58l-2 3l132 206q33 0 52 -18t19 -44z" />
    <glyph glyph-name="Rcommaaccent" unicode="&#x156;" horiz-adv-x="787" 
d="M329 698v-602q0 -51 17.5 -70t57.5 -19v-7q-88 3 -192 3l-192 -3v7q75 0 75 125v472q0 51 -17.5 70t-57.5 19v7q88 -3 192 -3q79 0 117 1zM387 331v7q37 3 56 41.5t19 133.5q0 79 -19 127t-56 52v7q1 0 12 0.5t16 0.5q79 0 140.5 -16t104 -57t42.5 -104q0 -76 -60.5 -123
t-208.5 -62v-4q117 0 177.5 -35t82.5 -116l31 -111q17 -59 53 -59q9 0 19 3l1 -5q-20 -12 -63.5 -21t-88.5 -9q-189 0 -206 162l-13 123q-4 35 -12 49t-27 16zM357 -296l-5 5q31 26 31 64q0 54 -61 73q-4 16 -4 25q0 37 24.5 60t61.5 23q42 0 65 -25t23 -65q0 -57 -35 -94.5
t-100 -65.5z" />
    <glyph glyph-name="rcommaaccent" unicode="&#x157;" horiz-adv-x="563" 
d="M337 410l-1 8q11 7 30.5 29t41.5 37.5t48 15.5q42 0 69.5 -28t27.5 -68q0 -43 -28 -74.5t-76 -31.5q-41 0 -65 20q12 24 12 46q0 21 -10.5 35t-31.5 14q-10 0 -17 -3zM297 500v-448q0 -45 53 -45v-7q-62 3 -163 3l-169 -3v7q57 0 57 70v316q0 28 -13.5 39.5t-41.5 11.5
l-2 7q68 0 137.5 12.5t105.5 24.5zM136 -296l-5 5q31 26 31 64q0 54 -61 73q-4 16 -4 25q0 37 24.5 60t61.5 23q42 0 65 -25t23 -65q0 -57 -35 -94.5t-100 -65.5z" />
    <glyph glyph-name="Rcaron" unicode="&#x158;" horiz-adv-x="787" 
d="M329 698v-602q0 -51 17.5 -70t57.5 -19v-7q-88 3 -192 3l-192 -3v7q75 0 75 125v472q0 51 -17.5 70t-57.5 19v7q88 -3 192 -3q79 0 117 1zM387 331v7q37 3 56 41.5t19 133.5q0 79 -19 127t-56 52v7q1 0 12 0.5t16 0.5q79 0 140.5 -16t104 -57t42.5 -104q0 -76 -60.5 -123
t-208.5 -62v-4q117 0 177.5 -35t82.5 -116l31 -111q17 -59 53 -59q9 0 19 3l1 -5q-20 -12 -63.5 -21t-88.5 -9q-189 0 -206 162l-13 123q-4 35 -12 49t-27 16zM186 897l3 5l173 -52l173 52l3 -5l-145 -147h-62z" />
    <glyph glyph-name="rcaron" unicode="&#x159;" horiz-adv-x="563" 
d="M337 410l-1 8q11 7 30.5 29t41.5 37.5t48 15.5q42 0 69.5 -28t27.5 -68q0 -43 -28 -74.5t-76 -31.5q-41 0 -65 20q12 24 12 46q0 21 -10.5 35t-31.5 14q-10 0 -17 -3zM297 500v-448q0 -45 53 -45v-7q-62 3 -163 3l-169 -3v7q57 0 57 70v316q0 28 -13.5 39.5t-41.5 11.5
l-2 7q68 0 137.5 12.5t105.5 24.5zM132 695l3 5l173 -52l173 52l3 -5l-145 -147h-62z" />
    <glyph glyph-name="Sacute" unicode="&#x15a;" horiz-adv-x="610" 
d="M517 491q-12 83 -59 146.5t-117 73.5v7q15 -1 83 -10.5t109 -9.5l-9 -207h-7zM247 -9v-7q-13 1 -76 14t-127 13l-10 251h7q24 -111 76 -183t130 -88zM215 623q0 -33 20.5 -61.5t53 -49t71.5 -41t78 -44t71.5 -51t53 -68t20.5 -90.5q0 -105 -79.5 -169t-192.5 -68v7
q47 6 71.5 35t24.5 68q0 43 -38.5 80t-93.5 67t-110 63.5t-93.5 85t-38.5 116.5q0 93 63.5 150.5t180.5 64.5v-7q-27 -7 -44.5 -31t-17.5 -57zM427 897q0 -49 -59.5 -89t-141.5 -58l-2 3l132 206q33 0 52 -18t19 -44z" />
    <glyph glyph-name="sacute" unicode="&#x15b;" horiz-adv-x="518" 
d="M440 325q-9 62 -49 110.5t-98 56.5v7q19 -2 70 -12t90 -10l-6 -152h-7zM224 447q0 -30 27.5 -56t67 -47.5t79 -45t67 -61.5t27.5 -85q0 -79 -62.5 -125t-179.5 -47v9q46 1 46 51q0 31 -27 58.5t-65.5 49.5t-77 46.5t-65.5 61.5t-27 83q0 75 60.5 117t164.5 44v-7
q-35 -7 -35 -46zM216 -10v-9q-1 0 -55 10.5t-116 10.5l-9 179h6q13 -72 63 -127.5t111 -63.5zM385 688q0 -49 -59.5 -89t-141.5 -58l-2 3l132 206q33 0 52 -18t19 -44z" />
    <glyph glyph-name="Scircumflex" unicode="&#x15c;" horiz-adv-x="610" 
d="M517 491q-12 83 -59 146.5t-117 73.5v7q15 -1 83 -10.5t109 -9.5l-9 -207h-7zM247 -9v-7q-13 1 -76 14t-127 13l-10 251h7q24 -111 76 -183t130 -88zM215 623q0 -33 20.5 -61.5t53 -49t71.5 -41t78 -44t71.5 -51t53 -68t20.5 -90.5q0 -105 -79.5 -169t-192.5 -68v7
q47 6 71.5 35t24.5 68q0 43 -38.5 80t-93.5 67t-110 63.5t-93.5 85t-38.5 116.5q0 93 63.5 150.5t180.5 64.5v-7q-27 -7 -44.5 -31t-17.5 -57zM486 755l-3 -5l-173 52l-173 -52l-3 5l145 147h62z" />
    <glyph glyph-name="scircumflex" unicode="&#x15d;" horiz-adv-x="518" 
d="M440 325q-9 62 -49 110.5t-98 56.5v7q19 -2 70 -12t90 -10l-6 -152h-7zM224 447q0 -30 27.5 -56t67 -47.5t79 -45t67 -61.5t27.5 -85q0 -79 -62.5 -125t-179.5 -47v9q46 1 46 51q0 31 -27 58.5t-65.5 49.5t-77 46.5t-65.5 61.5t-27 83q0 75 60.5 117t164.5 44v-7
q-35 -7 -35 -46zM216 -10v-9q-1 0 -55 10.5t-116 10.5l-9 179h6q13 -72 63 -127.5t111 -63.5zM442 553l-3 -5l-173 52l-173 -52l-3 5l145 147h62z" />
    <glyph glyph-name="Scedilla" unicode="&#x15e;" horiz-adv-x="610" 
d="M517 491q-12 83 -59 146.5t-117 73.5v7q15 -1 83 -10.5t109 -9.5l-9 -207h-7zM247 -9v-7q-13 1 -76 14t-127 13l-10 251h7q24 -111 76 -183t130 -88zM215 623q0 -33 20.5 -61.5t53 -49t71.5 -41t78 -44t71.5 -51t53 -68t20.5 -90.5q0 -105 -79.5 -169t-192.5 -68v7
q47 6 71.5 35t24.5 68q0 43 -38.5 80t-93.5 67t-110 63.5t-93.5 85t-38.5 116.5q0 93 63.5 150.5t180.5 64.5v-7q-27 -7 -44.5 -31t-17.5 -57zM323 -34l6 -3q-20 -13 -20 -29q0 -9 17.5 -17.5t38 -15.5t38 -24t17.5 -41q0 -37 -38.5 -61.5t-95.5 -24.5q-41 0 -68.5 13.5
t-27.5 38.5q0 19 14.5 31t36.5 12q20 0 37 -10q-12 -17 -12 -42q0 -35 30 -35q15 0 24.5 11.5t9.5 30.5q0 17 -11.5 31t-25.5 22.5t-25.5 21.5t-11.5 28q0 20 17 35.5t33 21.5z" />
    <glyph glyph-name="scedilla" unicode="&#x15f;" horiz-adv-x="518" 
d="M440 325q-9 62 -49 110.5t-98 56.5v7q19 -2 70 -12t90 -10l-6 -152h-7zM224 447q0 -30 27.5 -56t67 -47.5t79 -45t67 -61.5t27.5 -85q0 -79 -62.5 -125t-179.5 -47v9q46 1 46 51q0 31 -27 58.5t-65.5 49.5t-77 46.5t-65.5 61.5t-27 83q0 75 60.5 117t164.5 44v-7
q-35 -7 -35 -46zM216 -10v-9q-1 0 -55 10.5t-116 10.5l-9 179h6q13 -72 63 -127.5t111 -63.5zM267 -34l6 -3q-20 -13 -20 -29q0 -9 17.5 -17.5t38 -15.5t38 -24t17.5 -41q0 -37 -38.5 -61.5t-95.5 -24.5q-41 0 -68.5 13.5t-27.5 38.5q0 19 14.5 31t36.5 12q20 0 37 -10
q-12 -17 -12 -42q0 -35 30 -35q15 0 24.5 11.5t9.5 30.5q0 17 -11.5 31t-25.5 22.5t-25.5 21.5t-11.5 28q0 20 17 35.5t33 21.5z" />
    <glyph glyph-name="Scaron" unicode="&#x160;" horiz-adv-x="610" 
d="M517 491q-12 83 -59 146.5t-117 73.5v7q15 -1 83 -10.5t109 -9.5l-9 -207h-7zM247 -9v-7q-13 1 -76 14t-127 13l-10 251h7q24 -111 76 -183t130 -88zM215 623q0 -33 20.5 -61.5t53 -49t71.5 -41t78 -44t71.5 -51t53 -68t20.5 -90.5q0 -105 -79.5 -169t-192.5 -68v7
q47 6 71.5 35t24.5 68q0 43 -38.5 80t-93.5 67t-110 63.5t-93.5 85t-38.5 116.5q0 93 63.5 150.5t180.5 64.5v-7q-27 -7 -44.5 -31t-17.5 -57zM128 897l3 5l173 -52l173 52l3 -5l-145 -147h-62z" />
    <glyph glyph-name="scaron" unicode="&#x161;" horiz-adv-x="518" 
d="M440 325q-9 62 -49 110.5t-98 56.5v7q19 -2 70 -12t90 -10l-6 -152h-7zM224 447q0 -30 27.5 -56t67 -47.5t79 -45t67 -61.5t27.5 -85q0 -79 -62.5 -125t-179.5 -47v9q46 1 46 51q0 31 -27 58.5t-65.5 49.5t-77 46.5t-65.5 61.5t-27 83q0 75 60.5 117t164.5 44v-7
q-35 -7 -35 -46zM216 -10v-9q-1 0 -55 10.5t-116 10.5l-9 179h6q13 -72 63 -127.5t111 -63.5zM83 695l3 5l173 -52l173 52l3 -5l-145 -147h-62z" />
    <glyph glyph-name="Tcommaaccent" unicode="&#x162;" horiz-adv-x="759" 
d="M496 96q0 -51 17.5 -70t57.5 -19v-7q-88 3 -192 3l-192 -3v7q75 0 75 125v565h104q85 0 130 1v-602zM204 698v-6q-65 -10 -112 -70t-62 -143l-7 3l18 218q64 -1 163 -2zM553 698l182 2l-18 -221l-7 3q0 91 -40 145.5t-117 64.5v6zM331 -296l-5 5q31 26 31 64q0 54 -61 73
q-4 16 -4 25q0 37 24.5 60t61.5 23q42 0 65 -25t23 -65q0 -57 -35 -94.5t-100 -65.5z" />
    <glyph glyph-name="Tcommaaccent" unicode="&#x21a;" horiz-adv-x="759" 
d="M496 96q0 -51 17.5 -70t57.5 -19v-7q-88 3 -192 3l-192 -3v7q75 0 75 125v565h104q85 0 130 1v-602zM204 698v-6q-65 -10 -112 -70t-62 -143l-7 3l18 218q64 -1 163 -2zM553 698l182 2l-18 -221l-7 3q0 91 -40 145.5t-117 64.5v6zM331 -296l-5 5q31 26 31 64q0 54 -61 73
q-4 16 -4 25q0 37 24.5 60t61.5 23q42 0 65 -25t23 -65q0 -57 -35 -94.5t-100 -65.5z" />
    <glyph glyph-name="tcommaaccent" unicode="&#x163;" horiz-adv-x="386" 
d="M372 60l4 -4q-25 -36 -71 -56t-100 -20q-69 0 -107 32t-38 108v353h-38v7q71 0 141.5 40.5t111.5 99.5l6 -2v-138h61v-7h-61v-385q0 -23 11.5 -34.5t28.5 -11.5q29 0 51 18zM157 -296l-5 5q31 26 31 64q0 54 -61 73q-4 16 -4 25q0 37 24.5 60t61.5 23q42 0 65 -25t23 -65
q0 -57 -35 -94.5t-100 -65.5z" />
    <glyph glyph-name="tcommaaccent" unicode="&#x21b;" horiz-adv-x="386" 
d="M372 60l4 -4q-25 -36 -71 -56t-100 -20q-69 0 -107 32t-38 108v353h-38v7q71 0 141.5 40.5t111.5 99.5l6 -2v-138h61v-7h-61v-385q0 -23 11.5 -34.5t28.5 -11.5q29 0 51 18zM157 -296l-5 5q31 26 31 64q0 54 -61 73q-4 16 -4 25q0 37 24.5 60t61.5 23q42 0 65 -25t23 -65
q0 -57 -35 -94.5t-100 -65.5z" />
    <glyph glyph-name="Tcaron" unicode="&#x164;" horiz-adv-x="759" 
d="M496 96q0 -51 17.5 -70t57.5 -19v-7q-88 3 -192 3l-192 -3v7q75 0 75 125v565h104q85 0 130 1v-602zM204 698v-6q-65 -10 -112 -70t-62 -143l-7 3l18 218q64 -1 163 -2zM553 698l182 2l-18 -221l-7 3q0 91 -40 145.5t-117 64.5v6zM205 897l3 5l173 -52l173 52l3 -5
l-145 -147h-62z" />
    <glyph glyph-name="tcaron" unicode="&#x165;" horiz-adv-x="461" 
d="M389 464l-5 5q31 26 31 66q0 24 -15.5 45.5t-45.5 30.5q-4 16 -4 25q0 37 24.5 60t61.5 23q42 0 65 -25t23 -65q0 -107 -135 -165zM372 60l4 -4q-25 -36 -71 -56t-100 -20q-69 0 -107 32t-38 108v353h-38v7q71 0 141.5 40.5t111.5 99.5l6 -2v-138h61v-7h-61v-385
q0 -23 11.5 -34.5t28.5 -11.5q29 0 51 18z" />
    <glyph glyph-name="Tbar" unicode="&#x166;" horiz-adv-x="759" 
d="M185 424h77v273h104q85 0 130 1v-274h77v-10h-77v-318q0 -51 17.5 -70t57.5 -19v-7q-88 3 -192 3l-192 -3v7q75 0 75 125v282h-77v10zM553 698l182 2l-18 -221l-7 3q0 91 -40 145.5t-117 64.5v6zM204 698v-6q-65 -10 -112 -70t-62 -143l-7 3l18 218q64 -1 163 -2z" />
    <glyph glyph-name="tbar" unicode="&#x167;" horiz-adv-x="386" 
d="M22 343h38v130h-38v7q71 0 141.5 40.5t111.5 99.5l6 -2v-138h61v-7h-61v-130h61v-8h-61v-247q0 -23 11.5 -34.5t28.5 -11.5q29 0 51 18l4 -4q-25 -36 -71 -56t-100 -20q-69 0 -107 32t-38 108v215h-38v8z" />
    <glyph glyph-name="Utilde" unicode="&#x168;" horiz-adv-x="755" 
d="M637 105l9 -2q-27 -71 -90 -94.5t-168 -23.5q-293 0 -293 244v375q0 51 -17.5 70t-57.5 19v7q88 -3 192 -3l192 3v-7q-75 0 -75 -125v-341q0 -114 39.5 -166t122.5 -52q51 0 89.5 24.5t56.5 71.5zM664 514h-9v34q0 75 -36.5 110t-96.5 35v7q104 -3 139 -3l90 3v-7
q-37 0 -62 -35.5t-25 -109.5v-34zM554 848q51 0 60 55l6 -5q-7 -148 -119 -148q-46 0 -101.5 26t-86.5 26q-21 0 -38 -13.5t-22 -41.5l-6 5q7 148 119 148q46 0 102 -26t86 -26z" />
    <glyph glyph-name="utilde" unicode="&#x169;" horiz-adv-x="684" 
d="M392 58v378q0 38 -38 38v6l252 9l8 -8v-394q0 -28 13.5 -39.5t41.5 -11.5l2 -7q-68 0 -135.5 -12t-101.5 -25l-33 -12zM292 481v-386q0 -21 10 -33t26 -12q11 0 27 6v-7q-8 -3 -63.5 -36t-95.5 -33q-60 0 -93 36t-33 105v299q0 33 -11.5 43.5t-42.5 10.5v6l268 9z
M478 657q51 0 60 55l6 -5q-7 -148 -119 -148q-46 0 -101.5 26t-86.5 26q-21 0 -38 -13.5t-22 -41.5l-6 5q7 148 119 148q46 0 102 -26t86 -26z" />
    <glyph glyph-name="Umacron" unicode="&#x16a;" horiz-adv-x="755" 
d="M637 105l9 -2q-27 -71 -90 -94.5t-168 -23.5q-293 0 -293 244v375q0 51 -17.5 70t-57.5 19v7q88 -3 192 -3l192 3v-7q-75 0 -75 -125v-341q0 -114 39.5 -166t122.5 -52q51 0 89.5 24.5t56.5 71.5zM664 514h-9v34q0 75 -36.5 110t-96.5 35v7q104 -3 139 -3l90 3v-7
q-37 0 -62 -35.5t-25 -109.5v-34zM295 779h311v-10h-311v10z" />
    <glyph glyph-name="umacron" unicode="&#x16b;" horiz-adv-x="684" 
d="M392 58v378q0 38 -38 38v6l252 9l8 -8v-394q0 -28 13.5 -39.5t41.5 -11.5l2 -7q-68 0 -135.5 -12t-101.5 -25l-33 -12zM292 481v-386q0 -21 10 -33t26 -12q11 0 27 6v-7q-8 -3 -63.5 -36t-95.5 -33q-60 0 -93 36t-33 105v299q0 33 -11.5 43.5t-42.5 10.5v6l268 9z
M191 615h311v-10h-311v10z" />
    <glyph glyph-name="Ubreve" unicode="&#x16c;" horiz-adv-x="755" 
d="M637 105l9 -2q-27 -71 -90 -94.5t-168 -23.5q-293 0 -293 244v375q0 51 -17.5 70t-57.5 19v7q88 -3 192 -3l192 3v-7q-75 0 -75 -125v-341q0 -114 39.5 -166t122.5 -52q51 0 89.5 24.5t56.5 71.5zM664 514h-9v34q0 75 -36.5 110t-96.5 35v7q104 -3 139 -3l90 3v-7
q-37 0 -62 -35.5t-25 -109.5v-34zM579 895h7q0 -64 -36 -104.5t-106 -40.5q-163 0 -163 145h116q0 -39 24.5 -63t64.5 -24q43 0 68 24t25 63z" />
    <glyph glyph-name="ubreve" unicode="&#x16d;" horiz-adv-x="684" 
d="M392 58v378q0 38 -38 38v6l252 9l8 -8v-394q0 -28 13.5 -39.5t41.5 -11.5l2 -7q-68 0 -135.5 -12t-101.5 -25l-33 -12zM292 481v-386q0 -21 10 -33t26 -12q11 0 27 6v-7q-8 -3 -63.5 -36t-95.5 -33q-60 0 -93 36t-33 105v299q0 33 -11.5 43.5t-42.5 10.5v6l268 9z
M487 683h7q0 -64 -36 -104.5t-106 -40.5q-163 0 -163 145h116q0 -39 24.5 -63t64.5 -24q43 0 68 24t25 63z" />
    <glyph glyph-name="Uring" unicode="&#x16e;" horiz-adv-x="755" 
d="M637 105l9 -2q-27 -71 -90 -94.5t-168 -23.5q-293 0 -293 244v375q0 51 -17.5 70t-57.5 19v7q88 -3 192 -3l192 3v-7q-75 0 -75 -125v-341q0 -114 39.5 -166t122.5 -52q51 0 89.5 24.5t56.5 71.5zM664 514h-9v34q0 75 -36.5 110t-96.5 35v7q104 -3 139 -3l90 3v-7
q-37 0 -62 -35.5t-25 -109.5v-34zM446 941q41 -2 68.5 -26t27.5 -66q0 -36 -22.5 -62.5t-63.5 -34.5v8q21 14 21 82q0 79 -31 91v8zM424 757v-7q-41 1 -69.5 25.5t-28.5 66.5q0 36 23 63t65 34v-7q-23 -13 -23 -83q0 -81 33 -92z" />
    <glyph glyph-name="uring" unicode="&#x16f;" horiz-adv-x="684" 
d="M392 58v378q0 38 -38 38v6l252 9l8 -8v-394q0 -28 13.5 -39.5t41.5 -11.5l2 -7q-68 0 -135.5 -12t-101.5 -25l-33 -12zM292 481v-386q0 -21 10 -33t26 -12q11 0 27 6v-7q-8 -3 -63.5 -36t-95.5 -33q-60 0 -93 36t-33 105v299q0 33 -11.5 43.5t-42.5 10.5v6l268 9z
M354 724q41 -2 68.5 -26t27.5 -66q0 -36 -22.5 -62.5t-63.5 -34.5v8q21 14 21 82q0 79 -31 91v8zM332 540v-7q-41 1 -69.5 25.5t-28.5 66.5q0 36 23 63t65 34v-7q-23 -13 -23 -83q0 -81 33 -92z" />
    <glyph glyph-name="Uhungarumlaut" unicode="&#x170;" horiz-adv-x="755" 
d="M637 105l9 -2q-27 -71 -90 -94.5t-168 -23.5q-293 0 -293 244v375q0 51 -17.5 70t-57.5 19v7q88 -3 192 -3l192 3v-7q-75 0 -75 -125v-341q0 -114 39.5 -166t122.5 -52q51 0 89.5 24.5t56.5 71.5zM664 514h-9v34q0 75 -36.5 110t-96.5 35v7q104 -3 139 -3l90 3v-7
q-37 0 -62 -35.5t-25 -109.5v-34zM650 896q0 -49 -59.5 -89t-141.5 -58l-2 3l132 206q33 0 52 -18t19 -44zM495 896q0 -49 -59.5 -89t-141.5 -58l-2 3l132 206q33 0 52 -18t19 -44z" />
    <glyph glyph-name="uhungarumlaut" unicode="&#x171;" horiz-adv-x="684" 
d="M392 58v378q0 38 -38 38v6l252 9l8 -8v-394q0 -28 13.5 -39.5t41.5 -11.5l2 -7q-68 0 -135.5 -12t-101.5 -25l-33 -12zM292 481v-386q0 -21 10 -33t26 -12q11 0 27 6v-7q-8 -3 -63.5 -36t-95.5 -33q-60 0 -93 36t-33 105v299q0 33 -11.5 43.5t-42.5 10.5v6l268 9z
M546 688q0 -49 -59.5 -89t-141.5 -58l-2 3l132 206q33 0 52 -18t19 -44zM391 688q0 -49 -59.5 -89t-141.5 -58l-2 3l132 206q33 0 52 -18t19 -44z" />
    <glyph glyph-name="Uogonek" unicode="&#x172;" horiz-adv-x="755" 
d="M637 105l9 -2q-27 -71 -90 -94.5t-168 -23.5q-293 0 -293 244v375q0 51 -17.5 70t-57.5 19v7q88 -3 192 -3l192 3v-7q-75 0 -75 -125v-341q0 -114 39.5 -166t122.5 -52q51 0 89.5 24.5t56.5 71.5zM664 514h-9v34q0 75 -36.5 110t-96.5 35v7q104 -3 139 -3l90 3v-7
q-37 0 -62 -35.5t-25 -109.5v-34zM562 -203l3 -7q-13 -9 -42.5 -17t-53.5 -8q-116 0 -116 83q0 44 45 79.5t111 48.5l3 -3q-42 -48 -42 -118q0 -34 14.5 -51t36.5 -17q21 0 41 10z" />
    <glyph glyph-name="uogonek" unicode="&#x173;" horiz-adv-x="684" 
d="M392 58v378q0 38 -38 38v6l252 9l8 -8v-394q0 -28 13.5 -39.5t41.5 -11.5l2 -7q-68 0 -135.5 -12t-101.5 -25l-33 -12zM292 481v-386q0 -21 10 -33t26 -12q11 0 27 6v-7q-8 -3 -63.5 -36t-95.5 -33q-60 0 -93 36t-33 105v299q0 33 -11.5 43.5t-42.5 10.5v6l268 9z
M499 -203l3 -7q-13 -9 -42.5 -17t-53.5 -8q-116 0 -116 83q0 44 45 79.5t111 48.5l3 -3q-42 -48 -42 -118q0 -34 14.5 -51t36.5 -17q21 0 41 10z" />
    <glyph glyph-name="Wcircumflex" unicode="&#x174;" horiz-adv-x="1083" 
d="M464 192l-54 -192l-117 -18l-204 651q-18 60 -78 60v7q109 -3 194 -3l178 3v-7q-41 0 -41 -42q0 -18 8 -46zM834 187l-56 -186l-130 -19l-177 650q-9 33 -22.5 47t-42.5 14v7q105 -3 174 -3l132 3q0 -34 15 -95zM932 525l-7 3q17 57 17 94q0 71 -92 71v7q73 -3 123 -3
l94 3v-7q-42 0 -74.5 -35.5t-60.5 -132.5zM746 755l-3 -5l-173 52l-173 -52l-3 5l145 147h62z" />
    <glyph glyph-name="wcircumflex" unicode="&#x175;" horiz-adv-x="986" 
d="M405 90l-32 -90h-150l-148 424q-10 27 -22.5 38t-41.5 11v7q86 -2 188 -2l152 2v-7q-37 0 -37 -35q0 -21 8 -52zM786 91l-27 -91h-163l-128 397q-24 76 -77 76v7q59 -4 138 -4l169 4q-1 -34 12 -87zM845 298l-7 2q18 65 18 97q0 72 -80 76v7q44 -4 107 -4l91 4v-7
q-38 0 -68 -33.5t-46 -89.5zM721 553l-3 -5l-173 52l-173 -52l-3 5l145 147h62z" />
    <glyph glyph-name="Ycircumflex" unicode="&#x176;" horiz-adv-x="752" 
d="M497 379v-283q0 -51 17.5 -70t57.5 -19v-7q-88 3 -192 3l-192 -3v7q75 0 75 125v235l-169 273q-33 53 -78 53v7q82 -3 200 -3l197 3v-7q-24 0 -38.5 -12.5t-14.5 -31.5q0 -25 24 -67zM566 513l-7 3q41 77 41 117q0 60 -88 60v7q46 -3 127 -3l97 3v-7q-31 0 -70 -33.5
t-73 -96.5zM602 755l-3 -5l-173 52l-173 -52l-3 5l145 147h62z" />
    <glyph glyph-name="ycircumflex" unicode="&#x177;" horiz-adv-x="646" 
d="M433 95l-33 -95h-156l-169 422q-10 26 -23 37.5t-41 11.5v9q91 -4 193 -4l152 4v-9q-39 0 -39 -37q0 -17 12 -50zM351 -106l7 -4q-57 -126 -152 -126q-63 0 -98.5 31.5t-35.5 79.5q0 43 30 72t80 29q47 0 73.5 -28t26.5 -60q-30 -7 -47.5 -25t-17.5 -40q0 -15 8.5 -25
t23.5 -10q54 0 102 106zM504 298l-7 2q20 67 20 97q0 33 -19 54.5t-61 21.5v7q44 -4 107 -4l91 4v-7q-73 0 -114 -123zM538 553l-3 -5l-173 52l-173 -52l-3 5l145 147h62z" />
    <glyph glyph-name="Ydieresis" unicode="&#x178;" horiz-adv-x="752" 
d="M497 379v-283q0 -51 17.5 -70t57.5 -19v-7q-88 3 -192 3l-192 -3v7q75 0 75 125v235l-169 273q-33 53 -78 53v7q82 -3 200 -3l197 3v-7q-24 0 -38.5 -12.5t-14.5 -31.5q0 -25 24 -67zM566 513l-7 3q41 77 41 117q0 60 -88 60v7q46 -3 127 -3l97 3v-7q-31 0 -70 -33.5
t-73 -96.5zM315 750q-42 0 -64 23.5t-22 61.5q0 37 22 61.5t64 24.5t64.5 -24.5t22.5 -61.5q0 -38 -22.5 -61.5t-64.5 -23.5zM538 750q-41 0 -63 24t-22 61t22.5 61.5t62.5 24.5q43 0 65.5 -24.5t22.5 -61.5q0 -38 -22.5 -61.5t-65.5 -23.5z" />
    <glyph glyph-name="Zacute" unicode="&#x179;" horiz-adv-x="718" 
d="M356 692q-128 -4 -199.5 -55t-100.5 -179h-7l31 242h276v-8zM684 282h7l-39 -282h-293v9q262 15 325 273zM681 690l-391 -690h-259l-4 10l396 690h254zM491 897q0 -49 -59.5 -89t-141.5 -58l-2 3l132 206q33 0 52 -18t19 -44z" />
    <glyph glyph-name="zacute" unicode="&#x17a;" horiz-adv-x="552" 
d="M259 0h-232l-6 9l262 471h236l4 -9zM318 0v6q70 4 124.5 65t81.5 163h6l-36 -234h-176zM232 480v-6q-65 -7 -112 -56t-72 -134h-6l31 196h159zM408 688q0 -49 -59.5 -89t-141.5 -58l-2 3l132 206q33 0 52 -18t19 -44z" />
    <glyph glyph-name="Zdotaccent" unicode="&#x17b;" horiz-adv-x="718" 
d="M356 692q-128 -4 -199.5 -55t-100.5 -179h-7l31 242h276v-8zM684 282h7l-39 -282h-293v9q262 15 325 273zM681 690l-391 -690h-259l-4 10l396 690h254zM380 750q-47 0 -72.5 27t-25.5 70t25.5 70.5t72.5 27.5q48 0 74.5 -27.5t26.5 -70.5t-26 -70t-75 -27z" />
    <glyph glyph-name="zdotaccent" unicode="&#x17c;" horiz-adv-x="552" 
d="M259 0h-232l-6 9l262 471h236l4 -9zM318 0v6q70 4 124.5 65t81.5 163h6l-36 -234h-176zM232 480v-6q-65 -7 -112 -56t-72 -134h-6l31 196h159zM301 531q-47 0 -72.5 27t-25.5 70t25.5 70.5t72.5 27.5q48 0 74.5 -27.5t26.5 -70.5t-26 -70t-75 -27z" />
    <glyph glyph-name="Zcaron" unicode="&#x17d;" horiz-adv-x="718" 
d="M356 692q-128 -4 -199.5 -55t-100.5 -179h-7l31 242h276v-8zM684 282h7l-39 -282h-293v9q262 15 325 273zM681 690l-391 -690h-259l-4 10l396 690h254zM199 897l3 5l173 -52l173 52l3 -5l-145 -147h-62z" />
    <glyph glyph-name="zcaron" unicode="&#x17e;" horiz-adv-x="552" 
d="M259 0h-232l-6 9l262 471h236l4 -9zM318 0v6q70 4 124.5 65t81.5 163h6l-36 -234h-176zM232 480v-6q-65 -7 -112 -56t-72 -134h-6l31 196h159zM124 695l3 5l173 -52l173 52l3 -5l-145 -147h-62z" />
    <glyph glyph-name="florin" unicode="&#x192;" horiz-adv-x="676" 
d="M474 735v8q75 0 122 -30.5t47 -74.5t-30 -71.5t-84 -27.5q-52 0 -94 36q24 24 39.5 59t15.5 65t-16 36zM22 -186v6q28 15 42 55.5t23 127.5l44 424h-42l1 8h42q12 120 99 206t209 100v-8q-22 -8 -34.5 -45.5t-27.5 -125.5l-21 -127h131l-1 -8h-131l-32 -207
q-55 -356 -302 -406zM-19 -184v-8q-69 0 -108 27t-39 71q0 38 28.5 63t73.5 25q50 0 83 -27q-20 -22 -35 -54t-15 -59q0 -28 12 -38z" />
    <glyph glyph-name="AEmacron" unicode="&#x1e2;" horiz-adv-x="1061" 
d="M476 779h311v-10h-311v10zM273 287l6 11h199v306q0 51 -17.5 70t-57.5 19v7q88 -3 192 -3q29 0 117 2v-603q0 -82 29 -88v-7q-15 0 -70.5 1t-75.5 1l-192 -3v7q75 0 75 125v155h-205zM803 1v8q84 0 147 71t85 194h8l-46 -274q-133 0 -194 1zM770 692v6q44 0 232 2v-214
h-7q-11 97 -72 151.5t-153 54.5zM770 367v7q58 0 91 36.5t33 106.5h7v-320h-7q0 170 -124 170zM194 180l10 -5l-6 -9q-40 -63 -40 -98q0 -61 77 -61v-7q-75 3 -141 3l-92 -3v7q80 0 172 142z" />
    <glyph glyph-name="aemacron" unicode="&#x1e3;" horiz-adv-x="872" 
d="M312 615h311v-10h-311v10zM310 32l3 -6q-7 -3 -38 -17t-58.5 -21.5t-58.5 -7.5q-58 0 -96.5 27t-38.5 81q0 72 70 114.5t199 47.5l-1 -9q-48 -28 -48 -133q0 -35 12.5 -57t35.5 -22q1 0 19 3zM145 293q-40 0 -64.5 21t-24.5 55q0 50 60 84t145 44v-7q-18 -5 -28.5 -25.5
t-10.5 -46.5q0 -54 29 -90q-20 -15 -50.5 -25t-55.5 -10zM619 500q103 -2 166 -52t68 -143l-10 -12h-270v7l78 8q4 27 4 62q0 47 -10 81.5t-26 38.5v10zM589 -20q-268 0 -268 228q0 29 4.5 90.5t4.5 96.5q0 49 -7.5 71.5t-29.5 25.5v7q9 1 21 1q92 0 155 -33q53 27 119 32
v-10q-51 -23 -51 -227q0 -226 143 -226q75 0 137 43l4 -4q-80 -95 -232 -95z" />
    <glyph glyph-name="Aringacute" unicode="&#x1fa;" horiz-adv-x="789" 
d="M278 856l171 155q41 -15 41 -53q0 -30 -22.5 -52t-58 -33t-68 -16t-62.5 -5l-1 2v2zM146 181l8 -1l-10 -33q-9 -28 -12.5 -46.5t-2.5 -38t10.5 -30.5t30 -18t52.5 -7v-7q-54 3 -121 3l-92 -3v7q78 0 126 142zM429 744q0 79 -31 91v8q41 -2 68.5 -26t27.5 -66
q0 -20 -8 -38l215 -637q23 -69 79 -69v-7q-55 3 -193 3l-187 -3v7q55 0 55 49q0 22 -16 78l-45 152h-202l3 10h196l-96 324l18 51q-35 28 -35 73q0 36 23 63t65 34v-7q-23 -13 -23 -83q0 -40 13 -65t34 -25q39 0 39 83z" />
    <glyph glyph-name="aringacute" unicode="&#x1fb;" horiz-adv-x="607" 
d="M411 832q0 -37 -35 -62t-80.5 -34.5t-95.5 -9.5l-1 4l171 155q41 -15 41 -53zM315 713q41 -2 68.5 -26t27.5 -66q0 -36 -22.5 -62.5t-63.5 -34.5v8q21 14 21 82q0 79 -31 91v8zM293 529v-7q-41 1 -69.5 25.5t-28.5 66.5q0 36 23 63t65 34v-7q-23 -13 -23 -83
q0 -81 33 -92zM310 32l3 -6q-7 -3 -38 -17t-58.5 -21.5t-58.5 -7.5q-58 0 -96.5 27t-38.5 81q0 72 70 114.5t199 47.5l-1 -9q-48 -28 -48 -133q0 -35 12.5 -57t35.5 -22q1 0 19 3zM145 293q-40 0 -64.5 21t-24.5 55q0 50 60 84t145 44v-7q-18 -5 -28.5 -25.5t-10.5 -46.5
q0 -54 29 -90q-20 -15 -50.5 -25t-55.5 -10zM599 39l4 -3q-31 -53 -129 -53q-82 0 -117 42.5t-35 135.5q0 31 4 106t4 128q0 49 -7.5 71.5t-29.5 25.5v7q9 1 21 1q126 0 177 -47.5t51 -153.5q0 -51 -5 -115t-5 -96q0 -65 38 -65q17 0 29 16z" />
    <glyph glyph-name="AEacute" unicode="&#x1fc;" horiz-adv-x="1061" 
d="M777 897q0 -49 -59.5 -89t-141.5 -58l-2 3l132 206q33 0 52 -18t19 -44zM273 287l6 11h199v306q0 51 -17.5 70t-57.5 19v7q88 -3 192 -3q29 0 117 2v-603q0 -82 29 -88v-7q-15 0 -70.5 1t-75.5 1l-192 -3v7q75 0 75 125v155h-205zM803 1v8q84 0 147 71t85 194h8l-46 -274
q-133 0 -194 1zM770 692v6q44 0 232 2v-214h-7q-11 97 -72 151.5t-153 54.5zM770 367v7q58 0 91 36.5t33 106.5h7v-320h-7q0 170 -124 170zM194 180l10 -5l-6 -9q-40 -63 -40 -98q0 -61 77 -61v-7q-75 3 -141 3l-92 -3v7q80 0 172 142z" />
    <glyph glyph-name="aeacute" unicode="&#x1fd;" horiz-adv-x="872" 
d="M577 688q0 -49 -59.5 -89t-141.5 -58l-2 3l132 206q33 0 52 -18t19 -44zM310 32l3 -6q-7 -3 -38 -17t-58.5 -21.5t-58.5 -7.5q-58 0 -96.5 27t-38.5 81q0 72 70 114.5t199 47.5l-1 -9q-48 -28 -48 -133q0 -35 12.5 -57t35.5 -22q1 0 19 3zM145 293q-40 0 -64.5 21
t-24.5 55q0 50 60 84t145 44v-7q-18 -5 -28.5 -25.5t-10.5 -46.5q0 -54 29 -90q-20 -15 -50.5 -25t-55.5 -10zM619 500q103 -2 166 -52t68 -143l-10 -12h-270v7l78 8q4 27 4 62q0 47 -10 81.5t-26 38.5v10zM589 -20q-268 0 -268 228q0 29 4.5 90.5t4.5 96.5q0 49 -7.5 71.5
t-29.5 25.5v7q9 1 21 1q92 0 155 -33q53 27 119 32v-10q-51 -23 -51 -227q0 -226 143 -226q75 0 137 43l4 -4q-80 -95 -232 -95z" />
    <glyph glyph-name="Oslashacute" unicode="&#x1fe;" horiz-adv-x="795" 
d="M524 897q0 -49 -59.5 -89t-141.5 -58l-2 3l132 206q33 0 52 -18t19 -44zM380 -11v-8q-111 3 -193 47l-39 -59h-14l43 65q-75 44 -114 121.5t-39 178.5q0 152 88.5 258.5t239.5 124.5v-7q-35 -17 -48.5 -101.5t-13.5 -247.5q0 -81 6 -146l200 306q-20 169 -80 190v8
q106 -3 183 -42l48 73h14l-52 -79q79 -44 120.5 -122t41.5 -182q0 -152 -88 -259t-239 -124v6q35 17 48.5 100t13.5 249q0 87 -8 164l-201 -306q21 -187 83 -208z" />
    <glyph glyph-name="oslashacute" unicode="&#x1ff;" horiz-adv-x="630" 
d="M427 688q0 -49 -59.5 -89t-141.5 -58l-2 3l132 206q33 0 52 -18t19 -44zM306 -10v-10q-73 0 -137 26l-38 -58h-16l42 64q-64 31 -101.5 86t-37.5 130q0 102 74 180t199 90v-8q-39 -29 -39 -242q0 -49 3 -91l118 194q-13 121 -50 140v9q74 0 137 -27l39 59h16l-42 -64
q64 -31 101.5 -86t37.5 -130q0 -102 -73.5 -180t-200.5 -90v7q40 27 40 243q0 59 -4 99l-117 -195q11 -126 49 -146z" />
    <glyph glyph-name="Scommaaccent" unicode="&#x218;" horiz-adv-x="610" 
d="M517 491q-12 83 -59 146.5t-117 73.5v7q15 -1 83 -10.5t109 -9.5l-9 -207h-7zM247 -9v-7q-13 1 -76 14t-127 13l-10 251h7q24 -111 76 -183t130 -88zM215 623q0 -33 20.5 -61.5t53 -49t71.5 -41t78 -44t71.5 -51t53 -68t20.5 -90.5q0 -105 -79.5 -169t-192.5 -68v7
q47 6 71.5 35t24.5 68q0 43 -38.5 80t-93.5 67t-110 63.5t-93.5 85t-38.5 116.5q0 93 63.5 150.5t180.5 64.5v-7q-27 -7 -44.5 -31t-17.5 -57zM256 -296l-5 5q31 26 31 64q0 54 -61 73q-4 16 -4 25q0 37 24.5 60t61.5 23q42 0 65 -25t23 -65q0 -57 -35 -94.5t-100 -65.5z
" />
    <glyph glyph-name="scommaaccent" unicode="&#x219;" horiz-adv-x="518" 
d="M440 325q-9 62 -49 110.5t-98 56.5v7q19 -2 70 -12t90 -10l-6 -152h-7zM224 447q0 -30 27.5 -56t67 -47.5t79 -45t67 -61.5t27.5 -85q0 -79 -62.5 -125t-179.5 -47v9q46 1 46 51q0 31 -27 58.5t-65.5 49.5t-77 46.5t-65.5 61.5t-27 83q0 75 60.5 117t164.5 44v-7
q-35 -7 -35 -46zM216 -10v-9q-1 0 -55 10.5t-116 10.5l-9 179h6q13 -72 63 -127.5t111 -63.5zM201 -296l-5 5q31 26 31 64q0 54 -61 73q-4 16 -4 25q0 37 24.5 60t61.5 23q42 0 65 -25t23 -65q0 -57 -35 -94.5t-100 -65.5z" />
    <glyph glyph-name="dotlessj" unicode="&#x237;" horiz-adv-x="372" 
d="M302 500v-441q0 -151 -100 -214q-37 -23 -127.5 -44.5t-121.5 -45.5l-5 5q7 7 47.5 38t56.5 58q18 32 23 68.5t5 102.5v366q0 28 -13.5 39.5t-41.5 11.5l-2 7q68 0 137.5 12.5t105.5 24.5z" />
    <glyph glyph-name="hsuperior" unicode="&#x2b0;" horiz-adv-x="483" 
d="M208 894v-492q0 -27 28 -27v-6q-34 2 -105 2l-118 -2v6q40 0 40 49v393q0 37 -37 37l-3 6q47 0 96 8.5t74 17.5zM245 670v7q2 1 39 21.5t61 20.5q42 0 65.5 -25.5t23.5 -73.5v-208q0 -22 8.5 -29.5t29.5 -7.5v-6q-46 2 -115 2l-105 -2v6q26 0 26 33v233q0 31 -25 31
q-4 0 -8 -2z" />
    <glyph glyph-name="jsuperior" unicode="&#x2b2;" horiz-adv-x="261" 
d="M211 719v-309q0 -105 -70 -149q-26 -16 -89 -31.5t-85 -32.5l-4 5q7 7 23.5 18.5t29 23t20.5 25.5q20 33 20 120v253q0 37 -38 37l-2 6q47 0 96 8.5t74 16.5zM132 742q-39 0 -59.5 18.5t-20.5 48.5q0 31 20.5 50.5t59.5 19.5t60 -19.5t21 -50.5q0 -30 -21 -48.5
t-60 -18.5z" />
    <glyph glyph-name="wsuperior" unicode="&#x2b7;" horiz-adv-x="690" 
d="M284 434l-23 -65h-104l-104 295q-6 19 -15.5 27t-29.5 8v6q60 -3 132 -3l106 3v-6q-26 0 -26 -28q0 -9 7 -37zM551 433l-19 -64h-114l-90 279q-17 51 -54 51v6q41 -3 97 -3l118 3q-2 -23 8 -60zM593 577l-6 4q12 41 12 66q0 52 -55 52v6q30 -3 74 -3l64 3v-6
q-60 0 -89 -122z" />
    <glyph glyph-name="ysuperior" unicode="&#x2b8;" horiz-adv-x="453" 
d="M237 279l6 -3q-38 -72 -97 -72q-44 0 -69.5 22t-25.5 56q0 29 21.5 49.5t56.5 20.5q32 0 50.5 -19.5t18.5 -41.5q-22 -3 -33.5 -15.5t-11.5 -26.5q0 -12 7 -20t18 -8q15 0 31.5 17.5t27.5 40.5zM304 436l-24 -67h-109l-118 295q-8 19 -17 27t-28 8v6q64 -3 135 -3l107 3
v-6q-28 0 -28 -26q0 -12 9 -35zM354 577l-6 3q13 36 13 66q0 53 -55 53v6q31 -3 74 -3l65 3v-6q-48 0 -82 -95z" />
    <glyph glyph-name="circumflex" unicode="&#x2c6;" horiz-adv-x="461" 
d="M406 553l-3 -5l-173 52l-173 -52l-3 5l145 147h62z" />
    <glyph glyph-name="caron" unicode="&#x2c7;" horiz-adv-x="461" 
d="M54 695l3 5l173 -52l173 52l3 -5l-145 -147h-62z" />
    <glyph glyph-name="breve" unicode="&#x2d8;" horiz-adv-x="413" 
d="M352 683h7q0 -64 -36 -104.5t-106 -40.5q-163 0 -163 145h116q0 -39 24.5 -63t64.5 -24q43 0 68 24t25 63z" />
    <glyph glyph-name="dotaccent" unicode="&#x2d9;" horiz-adv-x="361" 
d="M179 531q-47 0 -72.5 27t-25.5 70t25.5 70.5t72.5 27.5q48 0 74.5 -27.5t26.5 -70.5t-26 -70t-75 -27z" />
    <glyph glyph-name="ring" unicode="&#x2da;" horiz-adv-x="342" 
d="M183 724q41 -2 68.5 -26t27.5 -66q0 -36 -22.5 -62.5t-63.5 -34.5v8q21 14 21 82q0 79 -31 91v8zM161 540v-7q-41 1 -69.5 25.5t-28.5 66.5q0 36 23 63t65 34v-7q-23 -13 -23 -83q0 -81 33 -92z" />
    <glyph glyph-name="ogonek" unicode="&#x2db;" horiz-adv-x="350" 
d="M277 -203l3 -7q-13 -9 -42.5 -17t-53.5 -8q-116 0 -116 83q0 44 45 79.5t111 48.5l3 -3q-42 -48 -42 -118q0 -34 14.5 -51t36.5 -17q21 0 41 10z" />
    <glyph glyph-name="tilde" unicode="&#x2dc;" horiz-adv-x="524" 
d="M383 657q51 0 60 55l6 -5q-7 -148 -119 -148q-46 0 -101.5 26t-86.5 26q-21 0 -38 -13.5t-22 -41.5l-6 5q7 148 119 148q46 0 102 -26t86 -26z" />
    <glyph glyph-name="hungarumlaut" unicode="&#x2dd;" horiz-adv-x="410" 
d="M384 688q0 -49 -59.5 -89t-141.5 -58l-2 3l132 206q33 0 52 -18t19 -44zM229 688q0 -49 -59.5 -89t-141.5 -58l-2 3l132 206q33 0 52 -18t19 -44z" />
    <glyph glyph-name="xsuperior" unicode="&#x2e3;" horiz-adv-x="439" 
d="M318 623l-4 6q15 20 15 41q0 29 -35 29v6q44 -3 71 -3l49 3v-6q-48 0 -96 -76zM136 480l5 -5q-26 -43 -26 -65q0 -35 55 -35v-6q-51 3 -93 3l-83 -3v6q68 0 142 105zM215 421l-145 244q-13 21 -22.5 27.5t-31.5 6.5v6q61 -3 126 -3l124 3v-6q-23 0 -23 -22q0 -13 8 -26
l140 -237q23 -39 56 -39v-6q-61 3 -121 3l-127 -3v6q25 0 25 19q0 12 -9 27z" />
    <glyph glyph-name="Wgrave" unicode="&#x1e80;" horiz-adv-x="1083" 
d="M464 192l-54 -192l-117 -18l-204 651q-18 60 -78 60v7q109 -3 194 -3l178 3v-7q-41 0 -41 -42q0 -18 8 -46zM834 187l-56 -186l-130 -19l-177 650q-9 33 -22.5 47t-42.5 14v7q105 -3 174 -3l132 3q0 -34 15 -95zM932 525l-7 3q17 57 17 94q0 71 -92 71v7q73 -3 123 -3
l94 3v-7q-42 0 -74.5 -35.5t-60.5 -132.5zM440 897q0 26 19 44t52 18l132 -206l-2 -3q-82 18 -141.5 58t-59.5 89z" />
    <glyph glyph-name="wgrave" unicode="&#x1e81;" horiz-adv-x="986" 
d="M405 90l-32 -90h-150l-148 424q-10 27 -22.5 38t-41.5 11v7q86 -2 188 -2l152 2v-7q-37 0 -37 -35q0 -21 8 -52zM786 91l-27 -91h-163l-128 397q-24 76 -77 76v7q59 -4 138 -4l169 4q-1 -34 12 -87zM845 298l-7 2q18 65 18 97q0 72 -80 76v7q44 -4 107 -4l91 4v-7
q-38 0 -68 -33.5t-46 -89.5zM412 688q0 26 19 44t52 18l132 -206l-2 -3q-82 18 -141.5 58t-59.5 89z" />
    <glyph glyph-name="Wacute" unicode="&#x1e82;" horiz-adv-x="1083" 
d="M464 192l-54 -192l-117 -18l-204 651q-18 60 -78 60v7q109 -3 194 -3l178 3v-7q-41 0 -41 -42q0 -18 8 -46zM834 187l-56 -186l-130 -19l-177 650q-9 33 -22.5 47t-42.5 14v7q105 -3 174 -3l132 3q0 -34 15 -95zM932 525l-7 3q17 57 17 94q0 71 -92 71v7q73 -3 123 -3
l94 3v-7q-42 0 -74.5 -35.5t-60.5 -132.5zM677 897q0 -49 -59.5 -89t-141.5 -58l-2 3l132 206q33 0 52 -18t19 -44z" />
    <glyph glyph-name="wacute" unicode="&#x1e83;" horiz-adv-x="986" 
d="M405 90l-32 -90h-150l-148 424q-10 27 -22.5 38t-41.5 11v7q86 -2 188 -2l152 2v-7q-37 0 -37 -35q0 -21 8 -52zM786 91l-27 -91h-163l-128 397q-24 76 -77 76v7q59 -4 138 -4l169 4q-1 -34 12 -87zM845 298l-7 2q18 65 18 97q0 72 -80 76v7q44 -4 107 -4l91 4v-7
q-38 0 -68 -33.5t-46 -89.5zM663 688q0 -49 -59.5 -89t-141.5 -58l-2 3l132 206q33 0 52 -18t19 -44z" />
    <glyph glyph-name="Wdieresis" unicode="&#x1e84;" horiz-adv-x="1083" 
d="M464 192l-54 -192l-117 -18l-204 651q-18 60 -78 60v7q109 -3 194 -3l178 3v-7q-41 0 -41 -42q0 -18 8 -46zM834 187l-56 -186l-130 -19l-177 650q-9 33 -22.5 47t-42.5 14v7q105 -3 174 -3l132 3q0 -34 15 -95zM932 525l-7 3q17 57 17 94q0 71 -92 71v7q73 -3 123 -3
l94 3v-7q-42 0 -74.5 -35.5t-60.5 -132.5zM458 750q-42 0 -64 23.5t-22 61.5q0 37 22 61.5t64 24.5t64.5 -24.5t22.5 -61.5q0 -38 -22.5 -61.5t-64.5 -23.5zM681 750q-41 0 -63 24t-22 61t22.5 61.5t62.5 24.5q43 0 65.5 -24.5t22.5 -61.5q0 -38 -22.5 -61.5t-65.5 -23.5z
" />
    <glyph glyph-name="wdieresis" unicode="&#x1e85;" horiz-adv-x="986" 
d="M405 90l-32 -90h-150l-148 424q-10 27 -22.5 38t-41.5 11v7q86 -2 188 -2l152 2v-7q-37 0 -37 -35q0 -21 8 -52zM786 91l-27 -91h-163l-128 397q-24 76 -77 76v7q59 -4 138 -4l169 4q-1 -34 12 -87zM845 298l-7 2q18 65 18 97q0 72 -80 76v7q44 -4 107 -4l91 4v-7
q-38 0 -68 -33.5t-46 -89.5zM424 543q-42 0 -64 23.5t-22 61.5q0 37 22 61.5t64 24.5t64.5 -24.5t22.5 -61.5q0 -38 -22.5 -61.5t-64.5 -23.5zM647 543q-41 0 -63 24t-22 61t22.5 61.5t62.5 24.5q43 0 65.5 -24.5t22.5 -61.5q0 -38 -22.5 -61.5t-65.5 -23.5z" />
    <glyph glyph-name="Ygrave" unicode="&#x1ef2;" horiz-adv-x="752" 
d="M497 379v-283q0 -51 17.5 -70t57.5 -19v-7q-88 3 -192 3l-192 -3v7q75 0 75 125v235l-169 273q-33 53 -78 53v7q82 -3 200 -3l197 3v-7q-24 0 -38.5 -12.5t-14.5 -31.5q0 -25 24 -67zM566 513l-7 3q41 77 41 117q0 60 -88 60v7q46 -3 127 -3l97 3v-7q-31 0 -70 -33.5
t-73 -96.5zM303 897q0 26 19 44t52 18l132 -206l-2 -3q-82 18 -141.5 58t-59.5 89z" />
    <glyph glyph-name="ygrave" unicode="&#x1ef3;" horiz-adv-x="646" 
d="M433 95l-33 -95h-156l-169 422q-10 26 -23 37.5t-41 11.5v9q91 -4 193 -4l152 4v-9q-39 0 -39 -37q0 -17 12 -50zM351 -106l7 -4q-57 -126 -152 -126q-63 0 -98.5 31.5t-35.5 79.5q0 43 30 72t80 29q47 0 73.5 -28t26.5 -60q-30 -7 -47.5 -25t-17.5 -40q0 -15 8.5 -25
t23.5 -10q54 0 102 106zM504 298l-7 2q20 67 20 97q0 33 -19 54.5t-61 21.5v7q44 -4 107 -4l91 4v-7q-73 0 -114 -123zM247 688q0 26 19 44t52 18l132 -206l-2 -3q-82 18 -141.5 58t-59.5 89z" />
    <glyph glyph-name="endash" unicode="&#x2013;" horiz-adv-x="572" 
d="M44 285h483v-10h-483v10z" />
    <glyph glyph-name="emdash" unicode="&#x2014;" horiz-adv-x="690" 
d="M44 285h602v-10h-602v10z" />
    <glyph glyph-name="quoteleft" unicode="&#x2018;" horiz-adv-x="290" 
d="M204 750l6 -6q-50 -50 -50 -106q0 -37 22.5 -67.5t65.5 -47.5q4 -20 4 -32q0 -46 -30.5 -74.5t-76.5 -28.5q-51 0 -79.5 30t-28.5 76q0 71 47.5 138.5t119.5 117.5z" />
    <glyph glyph-name="quoteright" unicode="&#x2019;" horiz-adv-x="290" 
d="M86 388l-6 6q50 50 50 106q0 37 -22.5 67.5t-65.5 47.5q-4 20 -4 32q0 46 30.5 74.5t76.5 28.5q51 0 79.5 -30t28.5 -76q0 -71 -47.5 -138.5t-119.5 -117.5z" />
    <glyph glyph-name="quotesinglbase" unicode="&#x201a;" horiz-adv-x="313" 
d="M85 -170l-6 6q50 50 50 106q0 37 -22.5 67.5t-65.5 47.5q-4 20 -4 32q0 46 30.5 74.5t76.5 28.5q51 0 79.5 -30t28.5 -76q0 -71 -47.5 -138.5t-119.5 -117.5z" />
    <glyph glyph-name="quotedblleft" unicode="&#x201c;" horiz-adv-x="549" 
d="M463 750l6 -6q-50 -50 -50 -106q0 -37 22.5 -67.5t65.5 -47.5q4 -20 4 -32q0 -46 -30.5 -74.5t-76.5 -28.5q-51 0 -79.5 30t-28.5 76q0 71 47.5 138.5t119.5 117.5zM204 750l6 -6q-50 -50 -50 -106q0 -37 22.5 -67.5t65.5 -47.5q4 -20 4 -32q0 -46 -30.5 -74.5
t-76.5 -28.5q-51 0 -79.5 30t-28.5 76q0 71 47.5 138.5t119.5 117.5z" />
    <glyph glyph-name="quotedblright" unicode="&#x201d;" horiz-adv-x="549" 
d="M86 388l-6 6q50 50 50 106q0 37 -22.5 67.5t-65.5 47.5q-4 20 -4 32q0 46 30.5 74.5t76.5 28.5q51 0 79.5 -30t28.5 -76q0 -71 -47.5 -138.5t-119.5 -117.5zM345 388l-6 6q50 50 50 106q0 37 -22.5 67.5t-65.5 47.5q-4 20 -4 32q0 46 30.5 74.5t76.5 28.5q51 0 79.5 -30
t28.5 -76q0 -71 -47.5 -138.5t-119.5 -117.5z" />
    <glyph glyph-name="quotedblbase" unicode="&#x201e;" horiz-adv-x="572" 
d="M85 -170l-6 6q50 50 50 106q0 37 -22.5 67.5t-65.5 47.5q-4 20 -4 32q0 46 30.5 74.5t76.5 28.5q51 0 79.5 -30t28.5 -76q0 -71 -47.5 -138.5t-119.5 -117.5zM344 -170l-6 6q50 50 50 106q0 37 -22.5 67.5t-65.5 47.5q-4 20 -4 32q0 46 30.5 74.5t76.5 28.5
q51 0 79.5 -30t28.5 -76q0 -71 -47.5 -138.5t-119.5 -117.5z" />
    <glyph glyph-name="dagger" unicode="&#x2020;" horiz-adv-x="647" 
d="M324 375q-41 0 -74.5 -18.5t-64.5 -37.5t-65 -19q-33 0 -55.5 22t-22.5 56t22.5 56t55.5 22q39 0 97.5 -37t98.5 -37q-7 23 -36 61t-52 79t-23 82q0 57 35 86t84 29t84 -29t35 -86q0 -41 -23 -82t-52 -79t-36 -61q40 0 98.5 37t97.5 37q33 0 55.5 -22t22.5 -56t-22.5 -56
t-55.5 -22t-64 19t-65 37.5t-75 18.5zM332 -169h-16q0 58 -17.5 116.5t-38 98.5t-38 90.5t-17.5 93.5q0 49 34 84t85 35t85 -35t34 -84q0 -43 -17.5 -93.5t-38 -90.5t-38 -98.5t-17.5 -116.5z" />
    <glyph glyph-name="daggerdbl" unicode="&#x2021;" horiz-adv-x="648" 
d="M324 372q-50 0 -107.5 -36t-96.5 -36q-33 0 -55.5 22t-22.5 56t22.5 56t55.5 22q39 0 97.5 -37.5t98.5 -37.5q-7 23 -36 61.5t-52 79.5t-23 82q0 57 35 86t84 29t84 -29t35 -86q0 -41 -23 -82t-52 -79.5t-36 -61.5q40 0 98.5 37.5t97.5 37.5q33 0 55.5 -22t22.5 -56
t-22.5 -56t-55.5 -22q-38 0 -95.5 36t-108.5 36zM324 178q50 0 107.5 36t96.5 36q33 0 55.5 -22t22.5 -56t-22.5 -56t-55.5 -22q-39 0 -97.5 37.5t-98.5 37.5q7 -23 36 -61.5t52 -79.5t23 -82q0 -57 -35 -86t-84 -29t-84 29t-35 86q0 41 23 82t52 79.5t36 61.5
q-40 0 -98.5 -37.5t-97.5 -37.5q-33 0 -55.5 22t-22.5 56t22.5 56t55.5 22q38 0 95.5 -36t108.5 -36zM324 191q-41 0 -63 23t-22 60t22 60.5t63 23.5t63 -23.5t22 -60.5t-22 -60t-63 -23z" />
    <glyph glyph-name="bullet" unicode="&#x2022;" horiz-adv-x="400" 
d="M60 292q0 58 41 99t99 41t99 -41t41 -99t-41 -99t-99 -41t-99 41t-41 99z" />
    <glyph glyph-name="perthousand" unicode="&#x2030;" horiz-adv-x="1061" 
d="M566 725h12l-456 -750h-12zM369 559q0 -66 -40.5 -116t-112.5 -59v8q25 20 25 154q0 151 -32 164v9q75 0 117.5 -45.5t42.5 -114.5zM31 543q0 66 40.5 116t112.5 59v-8q-25 -20 -25 -154q0 -151 32 -164v-9q-75 0 -117.5 45.5t-42.5 114.5zM659 157q0 -66 -40.5 -116
t-112.5 -59v8q25 20 25 154q0 151 -32 164v9q75 0 117.5 -45.5t42.5 -114.5zM321 141q0 66 40.5 116t112.5 59v-8q-25 -20 -25 -154q0 -151 32 -164v-9q-75 0 -117.5 45.5t-42.5 114.5zM1030 157q0 -66 -40.5 -116t-112.5 -59v8q25 20 25 154q0 151 -32 164v9
q75 0 117.5 -45.5t42.5 -114.5zM692 141q0 66 40.5 116t112.5 59v-8q-25 -20 -25 -154q0 -151 32 -164v-9q-75 0 -117.5 45.5t-42.5 114.5z" />
    <glyph glyph-name="guilsinglleft" unicode="&#x2039;" horiz-adv-x="307" 
d="M28 277l245 230l6 -6l-108 -234l108 -234l-6 -6l-245 230v20z" />
    <glyph glyph-name="guilsinglright" unicode="&#x203a;" horiz-adv-x="307" 
d="M34 507l245 -230v-20l-245 -230l-6 6l108 234l-108 234z" />
    <glyph glyph-name="fraction" unicode="&#x2044;" horiz-adv-x="386" 
d="M324 710h11l-272 -720h-12z" />
    <glyph glyph-name="zerosuperior" unicode="&#x2070;" horiz-adv-x="418" 
d="M202 410v-6q-81 1 -131.5 55t-50.5 139q0 81 47.5 141t120.5 69v-7q-26 -19 -26 -188q0 -180 40 -203zM216 809q81 -2 131.5 -55.5t50.5 -137.5q0 -80 -47.5 -140t-120.5 -70v6q26 16 26 188q0 181 -40 202v7z" />
    <glyph glyph-name="foursuperior" unicode="&#x2074;" horiz-adv-x="366" 
d="M22 503l-3 4l84 112q39 51 39 100q0 39 -21 64q24 26 61 26q32 0 52 -20t20 -46q0 -52 -70 -109zM172 599l128 67v-156h47v-7h-47v-35q0 -28 9.5 -38t31.5 -10v-6q-48 2 -105 2l-105 -2v6q41 0 41 68v111z" />
    <glyph glyph-name="fivesuperior" unicode="&#x2075;" horiz-adv-x="365" 
d="M99 418l-2 -4q-39 11 -58.5 34t-19.5 51q0 24 15 42.5t44 18.5q25 0 39.5 -15t14.5 -35q0 -8 -1 -12q-20 -1 -32.5 -14t-12.5 -32q0 -20 13 -34zM135 406l1 5q26 0 47 17.5t21 56.5q0 48 -43.5 78.5t-107.5 30.5q20 33 57.5 53t79.5 20q75 0 116 -37.5t41 -88.5
q0 -57 -41.5 -97t-135.5 -40q-23 0 -35 2zM67 716l9 83q159 -9 176 -9q37 0 49.5 7t12.5 23h6q7 -20 7 -45q0 -45 -27 -69.5t-73 -24.5q-29 0 -84 16.5t-76 18.5z" />
    <glyph glyph-name="sixsuperior" unicode="&#x2076;" horiz-adv-x="379" 
d="M186 410v-6q-77 3 -121.5 49.5t-44.5 125.5q0 85 76.5 156t212.5 82l2 -5q-75 -20 -111.5 -92.5t-36.5 -166.5q0 -133 23 -143zM258 647q43 0 72 -29t29 -73q0 -67 -42 -103t-110 -38v6q15 6 15 113q0 89 -26 89q-3 0 -7 -2v7q4 2 16 10.5t25 14t28 5.5z" />
    <glyph glyph-name="sevensuperior" unicode="&#x2077;" horiz-adv-x="362" 
d="M348 784q0 -31 -13 -53t-29.5 -33t-40.5 -17.5t-38.5 -7.5t-30.5 -1q-23 0 -71 7.5t-69 7.5q-32 0 -37 -30h-6q0 78 25 115t90 37q39 0 93.5 -18t74.5 -18q22 0 33.5 10.5t11.5 24.5l4 1q3 -11 3 -25zM277 667l3 -5q-68 -59 -68 -132q0 -48 21 -86q-19 -40 -71 -40
q-36 0 -57.5 20.5t-21.5 53.5q0 24 11 46t37 44t43 34.5t55.5 35.5t47.5 29z" />
    <glyph glyph-name="eightsuperior" unicode="&#x2078;" horiz-adv-x="377" 
d="M250 655q23 -13 33.5 -19t28.5 -20t26.5 -25.5t15.5 -29.5t7 -39q0 -112 -186 -118v5q17 2 29 18t12 39q0 29 -23 52.5t-82 61.5q-1 -7 -9.5 -34t-8.5 -47q0 -80 50 -89v-6q-67 2 -97.5 28t-30.5 58q0 26 14.5 42.5t41 29.5t35.5 21q-80 53 -80 114q0 47 42.5 78
t116.5 34v-5q-30 -9 -30 -44q0 -50 90 -102q1 5 6.5 28t5.5 46q0 63 -40 72v5q43 -2 79.5 -24t36.5 -54q0 -25 -15 -39.5t-39 -23.5t-29 -13z" />
    <glyph glyph-name="ninesuperior" unicode="&#x2079;" horiz-adv-x="379" 
d="M193 803v6q77 -3 121.5 -49.5t44.5 -125.5q0 -85 -76.5 -156t-212.5 -82l-2 5q75 20 111.5 92.5t36.5 166.5q0 133 -23 143zM121 566q-43 0 -72 29t-29 73q0 66 44.5 103t107.5 38v-6q-15 -6 -15 -113q0 -89 26 -89q3 0 7 2v-7q-4 -2 -16 -10.5t-25 -14t-28 -5.5z" />
    <glyph glyph-name="plussuperior" unicode="&#x207a;" horiz-adv-x="243" 
d="M117 702h8v-115h118v-8h-118v-115h-8v115h-117v8h117v115z" />
    <glyph glyph-name="minussuperior" unicode="&#x207b;" horiz-adv-x="243" 
d="M0 587h243v-8h-243v8z" />
    <glyph glyph-name="parenleftsuperior" unicode="&#x207d;" horiz-adv-x="213" 
d="M11 607q0 88 52.5 154.5t127.5 102.5l4 -4q-68 -95 -68 -253t68 -253l-4 -4q-75 37 -127.5 103.5t-52.5 153.5z" />
    <glyph glyph-name="parenrightsuperior" unicode="&#x207e;" horiz-adv-x="213" 
d="M195 607q0 -87 -52.5 -153.5t-127.5 -103.5l-4 4q68 95 68 253t-68 253l4 4q75 -36 127.5 -102.5t52.5 -154.5z" />
    <glyph glyph-name="nsuperior" unicode="&#x207f;" horiz-adv-x="479" 
d="M208 719v-317q0 -27 28 -27v-6q-34 2 -105 2l-118 -2v6q40 0 40 49v218q0 37 -37 37l-3 6q47 0 96 8.5t74 16.5zM241 670v7q2 1 39 21.5t61 20.5q42 0 65.5 -25.5t23.5 -73.5v-208q0 -22 8.5 -29.5t29.5 -7.5v-6q-46 2 -115 2l-105 -2v6q26 0 26 33v233q0 31 -25 31
q-4 0 -8 -2z" />
    <glyph glyph-name="zeroinferior" unicode="&#x2080;" horiz-adv-x="418" 
d="M202 -103v-6q-81 1 -131.5 55t-50.5 139q0 81 47.5 141t120.5 69v-7q-26 -19 -26 -188q0 -180 40 -203zM216 296q81 -2 131.5 -55.5t50.5 -137.5q0 -80 -47.5 -140t-120.5 -70v6q26 16 26 188q0 181 -40 202v7z" />
    <glyph glyph-name="oneinferior" unicode="&#x2081;" horiz-adv-x="242" 
d="M16 -90v6q41 0 41 68v229q0 38 -9 50.5t-32 12.5v6q106 0 169 23v-341q0 -28 9.5 -38t31.5 -10v-6q-48 2 -105 2z" />
    <glyph glyph-name="twoinferior" unicode="&#x2082;" horiz-adv-x="372" 
d="M18 -85q0 53 38 83t89 30q27 0 81.5 -7.5t83.5 -7.5q32 0 37 29h7q0 -78 -29.5 -114.5t-94.5 -36.5q-39 0 -90.5 18t-71.5 18q-21 0 -31.5 -10.5t-10.5 -25.5h-5q-3 15 -3 24zM140 189q0 -21 -14.5 -36t-40.5 -15q-30 0 -45 18t-15 45q0 30 23.5 54.5t69.5 34.5v-5
q-23 -12 -23 -40q0 -39 43 -43q2 -8 2 -13zM178 296q72 0 118.5 -29t46.5 -77q0 -41 -21 -66.5t-56 -36.5t-71.5 -18.5t-76 -22t-61.5 -37.5l-4 3q9 12 36.5 34t50 41.5t41 54.5t18.5 76q0 62 -40 72v5q8 1 19 1z" />
    <glyph glyph-name="threeinferior" unicode="&#x2083;" horiz-adv-x="363" 
d="M136 -108l1 6q37 4 60 39t23 86q0 35 -18.5 57.5t-50.5 22.5q-16 0 -28 -4l-2 6q36 13 59 45.5t23 73.5q0 60 -40 66v5q7 1 15 1q74 0 114 -24t40 -63q0 -71 -116 -90l1 -5q15 4 35 4q43 0 69.5 -23.5t26.5 -60.5q0 -60 -48 -101.5t-136 -41.5q-19 0 -28 1zM144 189
q0 -21 -14.5 -36t-40.5 -15q-30 0 -45 18t-15 45q0 30 23.5 54.5t69.5 34.5v-5q-23 -12 -23 -40q0 -39 43 -43q2 -8 2 -13zM101 -96l-3 -4q-39 8 -61 32.5t-22 54.5q0 23 16 42.5t45 19.5q24 0 38 -15.5t14 -35.5q0 -6 -2 -12q-17 -2 -30 -14t-13 -31q0 -23 18 -37z" />
    <glyph glyph-name="fourinferior" unicode="&#x2084;" horiz-adv-x="366" 
d="M22 -1l-3 4l84 112q39 51 39 100q0 39 -21 64q24 26 61 26q32 0 52 -20t20 -46q0 -52 -70 -109zM172 95l128 67v-156h47v-7h-47v-35q0 -28 9.5 -38t31.5 -10v-6q-48 2 -105 2l-105 -2v6q41 0 41 68v111z" />
    <glyph glyph-name="fiveinferior" unicode="&#x2085;" horiz-adv-x="365" 
d="M99 -95l-2 -4q-39 11 -58.5 34t-19.5 51q0 24 15 42.5t44 18.5q25 0 39.5 -15t14.5 -35q0 -8 -1 -12q-20 -1 -32.5 -14t-12.5 -32q0 -20 13 -34zM135 -107l1 5q26 0 47 17.5t21 56.5q0 48 -43.5 78.5t-107.5 30.5q20 33 57.5 53t79.5 20q75 0 116 -37.5t41 -88.5
q0 -57 -41.5 -97t-135.5 -40q-23 0 -35 2zM67 203l9 83q159 -9 176 -9q37 0 49.5 7t12.5 23h6q7 -20 7 -45q0 -46 -27 -70t-73 -24q-29 0 -84 16.5t-76 18.5z" />
    <glyph glyph-name="sixinferior" unicode="&#x2086;" horiz-adv-x="379" 
d="M186 -103v-6q-77 3 -121.5 49.5t-44.5 125.5q0 85 76.5 156t212.5 82l2 -5q-75 -20 -111.5 -92.5t-36.5 -166.5q0 -133 23 -143zM258 134q43 0 72 -29t29 -73q0 -67 -42 -103t-110 -38v6q15 6 15 113q0 89 -26 89q-3 0 -7 -2v7q4 2 16 10.5t25 14t28 5.5z" />
    <glyph glyph-name="seveninferior" unicode="&#x2087;" horiz-adv-x="362" 
d="M348 271q0 -31 -13 -53t-29.5 -33t-40.5 -17.5t-38.5 -7.5t-30.5 -1q-23 0 -71 7.5t-69 7.5q-32 0 -37 -30h-6q0 78 25 115t90 37q39 0 93.5 -18t74.5 -18q22 0 33.5 10.5t11.5 24.5l4 1q3 -10 3 -25zM277 154l3 -5q-68 -59 -68 -132q0 -47 21 -86q-19 -40 -71 -40
q-36 0 -57.5 20.5t-21.5 53.5q0 24 11 46t37 44t43 34.5t55.5 35.5t47.5 29z" />
    <glyph glyph-name="eightinferior" unicode="&#x2088;" horiz-adv-x="377" 
d="M250 142q23 -13 33.5 -19t28.5 -20t26.5 -25.5t15.5 -29.5t7 -39q0 -112 -186 -118v5q17 2 29 18t12 39q0 29 -23 52.5t-82 61.5q-1 -7 -9.5 -34t-8.5 -47q0 -80 50 -89v-6q-67 2 -97.5 28t-30.5 58q0 26 14.5 42.5t41 29.5t35.5 21q-80 53 -80 114q0 47 42.5 78
t116.5 34v-5q-30 -9 -30 -44q0 -50 90 -102q1 5 6.5 28t5.5 46q0 63 -40 72v5q43 -2 79.5 -24t36.5 -54q0 -25 -15 -39.5t-39 -23.5t-29 -13z" />
    <glyph glyph-name="nineinferior" unicode="&#x2089;" horiz-adv-x="379" 
d="M193 290v6q77 -3 121.5 -49.5t44.5 -125.5q0 -85 -76.5 -156t-212.5 -82l-2 5q75 20 111.5 92.5t36.5 166.5q0 133 -23 143zM121 53q-43 0 -72 29t-29 73q0 66 44.5 103t107.5 38v-6q-15 -6 -15 -113q0 -89 26 -89q3 0 7 2v-7q-4 -2 -16 -10.5t-25 -14t-28 -5.5z" />
    <glyph glyph-name="parenleftinferior" unicode="&#x208d;" horiz-adv-x="213" 
d="M11 94q0 88 52.5 154.5t127.5 102.5l4 -4q-68 -95 -68 -253t68 -253l-4 -4q-75 37 -127.5 103.5t-52.5 153.5z" />
    <glyph glyph-name="parenrightinferior" unicode="&#x208e;" horiz-adv-x="213" 
d="M202 94q0 -87 -52.5 -153.5t-127.5 -103.5l-4 4q68 95 68 253t-68 253l4 4q75 -36 127.5 -102.5t52.5 -154.5z" />
    <glyph glyph-name="Euro" unicode="&#x20ac;" horiz-adv-x="747" 
d="M-10 308h502v-9h-200q10 -285 117 -309v-9q-176 0 -274.5 86t-109.5 232h-35v9zM492 390h-502v9h39q21 141 123.5 230.5t256.5 89.5v-9q-34 -4 -57.5 -30t-41 -96.5t-19.5 -184.5h201v-9zM705 265h7l-31 -243q-55 0 -124.5 -17t-83.5 -19v7q71 16 137.5 89.5t94.5 182.5z
M690 486q-20 95 -81 151.5t-136 69.5v8q16 -2 89.5 -15t134.5 -13v-201h-7z" />
    <glyph glyph-name="trademark" unicode="&#x2122;" horiz-adv-x="436" 
d="M75 572v127h56v-135q0 -12 4 -16t14 -4v-5q-22 1 -45 1l-47 -1v5q18 0 18 28zM143 694v5l43 1l-4 -51l-3 1q0 41 -36 44zM63 699v-6q-34 -8 -41 -44l-3 1l4 50q16 -1 40 -1zM346 564l-9 107l-4 28l72 1v-5q-19 0 -17 -22l8 -109q1 -20 20 -20v-5q-17 1 -42 1l-46 -1v5
q19 0 18 20zM272 535l-48 141q-7 19 -23 19v5q34 -1 77 -1q0 -14 5 -29l28 -96l-10 -35zM211 585h5q-4 -41 26 -41v-5q-16 1 -29 1l-27 -1v5q20 0 24 31z" />
    <glyph glyph-name="onethird" unicode="&#x2153;" horiz-adv-x="723" 
d="M457 710h11l-272 -720h-12zM16 324v6q41 0 41 68v229q0 38 -9 50.5t-32 12.5v6q106 0 169 23v-341q0 -28 9.5 -38t31.5 -10v-6q-48 2 -105 2zM496 -18l1 6q37 4 60 39t23 86q0 35 -18.5 57.5t-50.5 22.5q-16 0 -28 -4l-2 6q36 13 59 45.5t23 73.5q0 60 -40 66v5q7 1 15 1
q74 0 114 -24t40 -63q0 -71 -116 -90l1 -5q15 4 35 4q43 0 69.5 -23.5t26.5 -60.5q0 -60 -48 -101.5t-136 -41.5q-19 0 -28 1zM504 279q0 -21 -14.5 -36t-40.5 -15q-30 0 -45 18t-15 45q0 30 23.5 54.5t69.5 34.5v-5q-23 -12 -23 -40q0 -39 43 -43q2 -8 2 -13zM461 -6l-3 -4
q-39 8 -61 32.5t-22 54.5q0 23 16 42.5t45 19.5q24 0 38 -15.5t14 -35.5q0 -6 -2 -12q-17 -2 -30 -14t-13 -31q0 -23 18 -37z" />
    <glyph glyph-name="twothirds" unicode="&#x2154;" horiz-adv-x="789" 
d="M524 710h11l-272 -720h-12zM563 -18l1 6q37 4 60 39t23 86q0 35 -18.5 57.5t-50.5 22.5q-16 0 -28 -4l-2 6q36 13 59 45.5t23 73.5q0 60 -40 66v5q7 1 15 1q74 0 114 -24t40 -63q0 -71 -116 -90l1 -5q15 4 35 4q43 0 69.5 -23.5t26.5 -60.5q0 -60 -48 -101.5t-136 -41.5
q-19 0 -28 1zM571 279q0 -21 -14.5 -36t-40.5 -15q-30 0 -45 18t-15 45q0 30 23.5 54.5t69.5 34.5v-5q-23 -12 -23 -40q0 -39 43 -43q2 -8 2 -13zM528 -6l-3 -4q-39 8 -61 32.5t-22 54.5q0 23 16 42.5t45 19.5q24 0 38 -15.5t14 -35.5q0 -6 -2 -12q-17 -2 -30 -14t-13 -31
q0 -23 18 -37zM18 338q0 53 38 83t89 30q27 0 81.5 -7.5t83.5 -7.5q32 0 37 29h7q0 -78 -29.5 -114.5t-94.5 -36.5q-39 0 -90.5 18t-71.5 18q-21 0 -31.5 -10.5t-10.5 -25.5h-5q-3 15 -3 24zM140 612q0 -21 -14.5 -36t-40.5 -15q-30 0 -45 18t-15 45q0 30 23.5 54.5
t69.5 34.5v-5q-23 -12 -23 -40q0 -39 43 -43q2 -8 2 -13zM178 719q72 0 118.5 -29t46.5 -77q0 -41 -21 -66.5t-56 -36.5t-71.5 -18.5t-76 -22t-61.5 -37.5l-4 3q9 12 36.5 34t50 41.5t41 54.5t18.5 76q0 62 -40 72v5q8 1 19 1z" />
    <glyph glyph-name="oneeighth" unicode="&#x215b;" horiz-adv-x="731" 
d="M457 710h11l-272 -720h-12zM16 324v6q41 0 41 68v229q0 38 -9 50.5t-32 12.5v6q106 0 169 23v-341q0 -28 9.5 -38t31.5 -10v-6q-48 2 -105 2zM604 232q23 -13 33.5 -19t28.5 -20t26.5 -25.5t15.5 -29.5t7 -39q0 -112 -186 -118v5q17 2 29 18t12 39q0 29 -23 52.5
t-82 61.5q-1 -7 -9.5 -34t-8.5 -47q0 -80 50 -89v-6q-67 2 -97.5 28t-30.5 58q0 26 14.5 42.5t41 29.5t35.5 21q-80 53 -80 114q0 47 42.5 78t116.5 34v-5q-30 -9 -30 -44q0 -50 90 -102q1 5 6.5 28t5.5 46q0 63 -40 72v5q43 -2 79.5 -24t36.5 -54q0 -25 -15 -39.5
t-39 -23.5t-29 -13z" />
    <glyph glyph-name="threeeighths" unicode="&#x215c;" horiz-adv-x="797" 
d="M523 710h11l-272 -720h-12zM670 232q23 -13 33.5 -19t28.5 -20t26.5 -25.5t15.5 -29.5t7 -39q0 -112 -186 -118v5q17 2 29 18t12 39q0 29 -23 52.5t-82 61.5q-1 -7 -9.5 -34t-8.5 -47q0 -80 50 -89v-6q-67 2 -97.5 28t-30.5 58q0 26 14.5 42.5t41 29.5t35.5 21
q-80 53 -80 114q0 47 42.5 78t116.5 34v-5q-30 -9 -30 -44q0 -50 90 -102q1 5 6.5 28t5.5 46q0 63 -40 72v5q43 -2 79.5 -24t36.5 -54q0 -25 -15 -39.5t-39 -23.5t-29 -13zM136 315l1 6q37 4 60 39t23 86q0 35 -18.5 57.5t-50.5 22.5q-16 0 -28 -4l-2 6q36 13 59 45.5
t23 73.5q0 60 -40 66v5q7 1 15 1q74 0 114 -24t40 -63q0 -71 -116 -90l1 -5q15 4 35 4q43 0 69.5 -23.5t26.5 -60.5q0 -60 -48 -101.5t-136 -41.5q-19 0 -28 1zM144 612q0 -21 -14.5 -36t-40.5 -15q-30 0 -45 18t-15 45q0 30 23.5 54.5t69.5 34.5v-5q-23 -12 -23 -40
q0 -39 43 -43q2 -8 2 -13zM101 327l-3 -4q-39 8 -61 32.5t-22 54.5q0 23 16 42.5t45 19.5q24 0 38 -15.5t14 -35.5q0 -6 -2 -12q-17 -2 -30 -14t-13 -31q0 -23 18 -37z" />
    <glyph glyph-name="fiveeighths" unicode="&#x215d;" horiz-adv-x="797" 
d="M523 710h11l-272 -720h-12zM670 232q23 -13 33.5 -19t28.5 -20t26.5 -25.5t15.5 -29.5t7 -39q0 -112 -186 -118v5q17 2 29 18t12 39q0 29 -23 52.5t-82 61.5q-1 -7 -9.5 -34t-8.5 -47q0 -80 50 -89v-6q-67 2 -97.5 28t-30.5 58q0 26 14.5 42.5t41 29.5t35.5 21
q-80 53 -80 114q0 47 42.5 78t116.5 34v-5q-30 -9 -30 -44q0 -50 90 -102q1 5 6.5 28t5.5 46q0 63 -40 72v5q43 -2 79.5 -24t36.5 -54q0 -25 -15 -39.5t-39 -23.5t-29 -13zM99 328l-2 -4q-39 11 -58.5 34t-19.5 51q0 24 15 42.5t44 18.5q25 0 39.5 -15t14.5 -35q0 -8 -1 -12
q-20 -1 -32.5 -14t-12.5 -32q0 -20 13 -34zM135 316l1 5q26 0 47 17.5t21 56.5q0 48 -43.5 78.5t-107.5 30.5q20 33 57.5 53t79.5 20q75 0 116 -37.5t41 -88.5q0 -57 -41.5 -97t-135.5 -40q-23 0 -35 2zM67 626l9 83q159 -9 176 -9q37 0 49.5 7t12.5 23h6q7 -20 7 -45
q0 -45 -27 -69.5t-73 -24.5q-29 0 -84 16.5t-76 18.5z" />
    <glyph glyph-name="seveneighths" unicode="&#x215e;" horiz-adv-x="797" 
d="M523 710h11l-272 -720h-12zM670 232q23 -13 33.5 -19t28.5 -20t26.5 -25.5t15.5 -29.5t7 -39q0 -112 -186 -118v5q17 2 29 18t12 39q0 29 -23 52.5t-82 61.5q-1 -7 -9.5 -34t-8.5 -47q0 -80 50 -89v-6q-67 2 -97.5 28t-30.5 58q0 26 14.5 42.5t41 29.5t35.5 21
q-80 53 -80 114q0 47 42.5 78t116.5 34v-5q-30 -9 -30 -44q0 -50 90 -102q1 5 6.5 28t5.5 46q0 63 -40 72v5q43 -2 79.5 -24t36.5 -54q0 -25 -15 -39.5t-39 -23.5t-29 -13zM379 694q0 -31 -13 -53t-29.5 -33t-40.5 -17.5t-38.5 -7.5t-30.5 -1q-23 0 -71 7.5t-69 7.5
q-33 0 -37 -30h-6q0 78 25 115t90 37q39 0 93.5 -18t74.5 -18q22 0 33.5 10.5t11.5 24.5l4 1q3 -11 3 -25zM308 577l3 -5q-68 -59 -68 -132q0 -48 21 -86q-19 -40 -71 -40q-36 0 -57.5 20.5t-21.5 53.5q0 24 11 46t37 44t43 34.5t55.5 35.5t47.5 29z" />
    <glyph glyph-name="minus" unicode="&#x2212;" horiz-adv-x="441" 
d="M0 276h441v-10h-441v10z" />
    <glyph glyph-name="radical" unicode="&#x221a;" horiz-adv-x="541" 
d="M43 497l10 4l218 -490l256 787h338v-10h-330l-256 -788h-15z" />
    <glyph glyph-name="infinity" unicode="&#x221e;" horiz-adv-x="618" 
d="M352 213l7 8q59 -63 112 -63q49 0 78 32t29 80t-29 80t-78 32q-16 0 -32 -6t-27.5 -12t-28 -21t-23 -22t-24 -27t-20.5 -24q-2 -2 -21 -24.5t-25.5 -29.5t-25 -24t-31 -24t-30.5 -13.5t-36 -6.5q-52 0 -85.5 33t-33.5 89t33.5 89t85.5 33q60 0 119 -65l-8 -8
q-59 63 -111 63q-49 0 -78 -32t-29 -80t29 -80t78 -32q16 0 33 6.5t28.5 13t29.5 23.5t24 23.5t25.5 28.5t21.5 24q3 4 20.5 24.5t24.5 27.5t23.5 22.5t28.5 22t29.5 12.5t35.5 6q52 0 85.5 -33t33.5 -89t-33.5 -89t-85.5 -33q-60 0 -119 65z" />
    <glyph glyph-name="approxequal" unicode="&#x2248;" horiz-adv-x="455" 
d="M336 159q63 0 85 75l9 -3q-22 -82 -94 -82q-42 0 -109.5 43.5t-105.5 43.5q-63 0 -85 -75l-9 3q22 82 94 82q42 0 109.5 -43.5t105.5 -43.5zM335 300q63 0 85 75l9 -3q-22 -82 -94 -82q-42 0 -109.5 43.5t-105.5 43.5q-63 0 -85 -75l-9 3q22 82 94 82q42 0 109.5 -43.5
t105.5 -43.5z" />
    <glyph glyph-name="notequal" unicode="&#x2260;" horiz-adv-x="441" 
d="M138 186l260 294h13l-101 -114h131v-10h-140l-259 -295h-14l101 115h-129v10h138zM216 366l-7 -10h-209v10h216zM225 176l7 10h209v-10h-216z" />
    <glyph glyph-name="lessequal" unicode="&#x2264;" horiz-adv-x="441" 
d="M0 42h441v-10h-441v10zM441 65l-441 202v8l441 202v-11l-427 -195l427 -195v-11z" />
    <glyph glyph-name="greaterequal" unicode="&#x2265;" horiz-adv-x="441" 
d="M0 42h441v-10h-441v10zM441 267l-441 -202v11l427 195l-427 195v11l441 -202v-8z" />
    <glyph glyph-name="lozenge" unicode="&#x25ca;" horiz-adv-x="450" 
d="M198 43l-6 -10l-166 335l195 393h10l-195 -393zM258 703l166 -335l-195 -393h-9l194 393l-162 325z" />
    <glyph glyph-name="commaaccent" unicode="&#xf6c3;" horiz-adv-x="263" 
d="M83 -296l-5 5q31 26 31 64q0 54 -61 73q-4 16 -4 25q0 37 24.5 60t61.5 23q42 0 65 -25t23 -65q0 -57 -35 -94.5t-100 -65.5z" />
    <glyph glyph-name="commainferior" unicode="&#xf6e1;" horiz-adv-x="166" 
d="M46 -192l-3 3q28 28 28 58q0 45 -49 63q-2 10 -2 18q0 26 17 41.5t42 15.5q27 0 43 -17.5t16 -44.5q0 -74 -92 -137z" />
    <glyph glyph-name="commasuperior" unicode="&#xf6e2;" horiz-adv-x="166" 
d="M46 321l-3 3q28 28 28 58q0 45 -49 63q-2 10 -2 18q0 26 17 41.5t42 15.5q27 0 43 -17.5t16 -44.5q0 -74 -92 -137z" />
    <glyph glyph-name="dollarinferior" unicode="&#xf6e3;" horiz-adv-x="336" 
d="M224 -49q0 34 -53 68l-20 -121h7q32 0 49 14.5t17 38.5zM118 244q0 -37 48 -66l19 109q-8 2 -17 2q-23 0 -36.5 -11.5t-13.5 -33.5zM135 -163l86 512h5l-10 -59q29 -5 77 -5l-5 -114h-5q-5 36 -24 65t-45 42l-19 -116q24 -13 35.5 -19.5t32.5 -21t31 -27t18.5 -32
t8.5 -41.5q0 -60 -46.5 -95t-110.5 -35h-15l-8 -54h-6zM200 349l-85 -512h-6l10 58q-62 12 -95 12l-5 138h5q7 -51 33.5 -88t62.5 -52l22 131q-31 17 -45 26.5t-36.5 28t-32.5 40t-10 47.5q0 55 39.5 86.5t112.5 31.5l16 -1l9 54h5z" />
    <glyph glyph-name="dollarsuperior" unicode="&#xf6e4;" horiz-adv-x="336" 
d="M224 464q0 34 -53 68l-20 -121h7q32 0 49 14.5t17 38.5zM118 757q0 -37 48 -66l19 109q-8 2 -17 2q-23 0 -36.5 -11.5t-13.5 -33.5zM135 350l86 512h5l-10 -59q29 -5 77 -5l-5 -114h-5q-5 36 -24 65t-45 42l-19 -116q24 -13 35.5 -19.5t32.5 -21t31 -27t18.5 -32
t8.5 -41.5q0 -60 -46.5 -95t-110.5 -35h-15l-8 -54h-6zM200 862l-85 -512h-6l10 58q-62 12 -95 12l-5 138h5q7 -51 33.5 -88t62.5 -52l22 131q-31 17 -45 26.5t-36.5 28t-32.5 40t-10 47.5q0 55 39.5 86.5t112.5 31.5l16 -1l9 54h5z" />
    <glyph glyph-name="periodinferior" unicode="&#xf6e7;" horiz-adv-x="158" 
d="M79 -109q-28 0 -43.5 15.5t-15.5 41.5t15.5 42.5t43.5 16.5t43.5 -16.5t15.5 -42.5t-15.5 -41.5t-43.5 -15.5z" />
    <glyph glyph-name="periodsuperior" unicode="&#xf6e8;" horiz-adv-x="158" 
d="M79 404q-28 0 -43.5 15.5t-15.5 41.5t15.5 42.5t43.5 16.5t43.5 -16.5t15.5 -42.5t-15.5 -41.5t-43.5 -15.5z" />
    <glyph glyph-name="asuperior" unicode="&#xf6e9;" horiz-adv-x="425" 
d="M217 394l3 -7q-7 -2 -28.5 -12t-40.5 -15t-40 -5q-41 0 -68 18.5t-27 56.5q0 51 49 81t139 34l-1 -8q-34 -19 -34 -93q0 -53 34 -53q3 0 8 1.5t6 1.5zM102 575q-28 0 -45.5 14.5t-17.5 37.5q0 35 41.5 59t101.5 31v-6q-27 -8 -27 -50q0 -37 20 -62q-33 -24 -73 -24z
M419 399l3 -5q-21 -37 -90 -37q-57 0 -81.5 30t-24.5 94q0 22 2.5 75t2.5 89q0 65 -26 67v6q6 1 15 1q88 0 123.5 -33.5t35.5 -106.5q0 -36 -3.5 -80t-3.5 -66q0 -43 27 -43q13 0 20 9z" />
    <glyph glyph-name="bsuperior" unicode="&#xf6ea;" horiz-adv-x="466" 
d="M233 360v-5q-68 0 -121 34l-76 -26l-3 8q20 20 20 79v365q0 36 -37 36l-3 8q47 0 96 8.5t74 17.5l25 9v-392q0 -79 4.5 -107t20.5 -35zM233 669l-1 9q8 4 24.5 16t31.5 18.5t34 6.5q58 0 94 -45t36 -113q0 -83 -51 -138.5t-139 -65.5v7q26 20 26 167q0 141 -43 141
q-7 0 -12 -3z" />
    <glyph glyph-name="dsuperior" unicode="&#xf6eb;" horiz-adv-x="461" 
d="M232 714v5q9 0 25 -2v103q0 33 -38 33l-2 6q48 0 96.5 8.5t73.5 17.5l25 9v-463q0 -36 38 -36l3 -6q-48 0 -95.5 -8.5t-71.5 -16.5l-23 -9l-6 55v161q0 82 -4 109t-21 34zM232 405l1 -9q-8 -4 -24.5 -16t-31.5 -18.5t-34 -6.5q-58 0 -94 45t-36 113q0 83 51 138.5
t139 65.5v-7q-26 -20 -26 -167q0 -141 43 -141q8 0 12 3z" />
    <glyph glyph-name="esuperior" unicode="&#xf6ec;" horiz-adv-x="411" 
d="M209 718v-8q-34 -20 -34 -166q0 -67 25.5 -107.5t76.5 -40.5q52 0 96 31l3 -5q-57 -67 -163 -67q-96 0 -148 47t-52 127q0 73 56 127.5t140 61.5zM236 710v9q71 -2 114.5 -36t47.5 -100l-7 -9h-190l1 6l55 7q2 14 2 41q0 66 -23 82z" />
    <glyph glyph-name="isuperior" unicode="&#xf6ed;" horiz-adv-x="258" 
d="M236 375v-6q-34 2 -105 2l-118 -2v6q40 0 40 49v218q0 37 -37 37l-3 6q47 0 96 8.5t74 16.5l25 9v-317q0 -27 28 -27zM129 742q-39 0 -59.5 18.5t-20.5 48.5q0 31 20.5 50.5t59.5 19.5t60 -19.5t21 -50.5q0 -30 -21 -48.5t-60 -18.5z" />
    <glyph glyph-name="lsuperior" unicode="&#xf6ee;" horiz-adv-x="258" 
d="M236 375v-6q-34 2 -105 2l-118 -2v6q40 0 40 49v393q0 36 -37 36l-3 6q47 0 96 8.5t74 17.5l25 9v-492q0 -27 28 -27z" />
    <glyph glyph-name="msuperior" unicode="&#xf6ef;" horiz-adv-x="708" 
d="M209 401q0 -26 27 -26v-6q-34 2 -105 2l-118 -2v6q40 0 40 49v218q0 37 -37 37l-3 6q47 0 96 8.5t75 16.5l25 9v-318zM454 666v5q12 5 34 18.5t42 21.5t40 8q42 0 65 -25t23 -73v-209q0 -23 8 -30t30 -7v-6q-46 2 -115 2l-105 -2v6q26 0 26 33v231q0 31 -25 31
q-3 0 -7.5 -0.5t-9 -2t-6.5 -1.5zM232 666v5q11 5 32.5 18.5t40.5 21.5t39 8q42 0 65 -25t23 -73v-209q0 -23 5.5 -30t21.5 -7v-6q-35 2 -104 2l-104 -2v6q26 0 26 33v231q0 31 -25 31z" />
    <glyph glyph-name="osuperior" unicode="&#xf6f0;" horiz-adv-x="442" 
d="M212 363v-8q-80 0 -139.5 47t-59.5 127q0 70 51 124.5t138 63.5v-7q-25 -17 -25 -167q0 -72 9.5 -123t25.5 -57zM230 719q78 0 138.5 -47t60.5 -127q0 -70 -51 -125t-138 -64v7q25 12 25 168q0 161 -35 179v9z" />
    <glyph glyph-name="rsuperior" unicode="&#xf6f1;" horiz-adv-x="397" 
d="M235 655l-1 7q2 1 31 29t54 28q29 0 48.5 -19.5t19.5 -47.5q0 -31 -19.5 -53.5t-53.5 -22.5q-29 0 -45 14q7 19 7 33q0 34 -29 34q-4 0 -12 -2zM208 719v-313q0 -31 36 -31v-6q-43 3 -114 3l-118 -3v6q40 0 40 49v219q0 20 -9.5 28t-29.5 8l-1 6q47 0 96 8.5t74 16.5z
" />
    <glyph glyph-name="ssuperior" unicode="&#xf6f2;" horiz-adv-x="363" 
d="M308 597q-6 43 -33 76t-68 40v5q13 -1 48.5 -7.5t62.5 -6.5l-4 -107h-6zM156 682q0 -21 19.5 -39t47 -33t55.5 -32t47.5 -43.5t19.5 -60.5q0 -54 -44 -86t-127 -33v6q35 1 35 36q0 26 -29 50t-63.5 41t-63.5 48.5t-29 70.5q0 52 42.5 81.5t113.5 30.5v-5q-24 -3 -24 -32z
M150 363v-7q-2 0 -38.5 7t-80.5 7l-6 124h5q9 -49 43.5 -87.5t76.5 -43.5z" />
    <glyph glyph-name="tsuperior" unicode="&#xf6f3;" horiz-adv-x="270" 
d="M260 413l3 -5q-39 -53 -120 -53q-101 0 -101 98v247h-27v5q50 0 101 29.5t74 68.5l6 -2v-96h43v-6h-43v-268q0 -32 28 -32q18 0 36 14z" />
    <glyph glyph-name="s_t" unicode="&#xfb06;" horiz-adv-x="904" 
d="M224 447q0 -30 27.5 -56t67 -47.5t79 -45t67 -61.5t27.5 -85q0 -79 -62.5 -125t-179.5 -47v9q46 1 46 51q0 31 -27 58.5t-65.5 49.5t-77 46.5t-65.5 61.5t-27 83q0 75 60.5 117t164.5 44v-7q-35 -7 -35 -46zM799 480h61v-7h-61v-385q0 -23 11.5 -34.5t28.5 -11.5
q29 0 51 18l4 -4q-25 -36 -71 -56t-100 -20q-69 0 -107 32t-38 108v353h-38v7q94 4 169 51t75 104q0 88 -153 96v8q168 -7 168 -120v-139zM440 325q-9 62 -49 110.5t-98 56.5v7q19 -2 65.5 -11.5t78.5 -10.5q-106 57 -106 117q0 52 55.5 88t138.5 50v-8q-78 -13 -132 -47.5
t-54 -82.5q0 -57 114 -117l-6 -152h-7zM216 -10v-9q-1 0 -55 10.5t-116 10.5l-9 179h6q13 -72 63 -127.5t111 -63.5z" />
    <glyph glyph-name=".notdef.001" horiz-adv-x="500" 
d="M0 700h500v-700h-500v700zM256 350l233 -334v667zM242 350l-231 332v-664zM249 340l-229 -329h459zM21 688l228 -328l229 328h-457z" />
    <glyph glyph-name="A.sc" horiz-adv-x="699" 
d="M133 155l8 -4l-12 -34q-12 -35 -12 -59q0 -51 76 -51v-7q-46 3 -103 3l-78 -3v7q68 0 108 111zM169 231l4 9h164l-83 252l15 43l174 42l176 -516q18 -54 67 -54v-7q-66 3 -162 3l-186 -3v7q50 0 50 44q0 23 -11 58l-37 122h-171z" />
    <glyph glyph-name="B.sc" horiz-adv-x="686" 
d="M355 6v-5q-104 2 -143 2l-174 -3v7q32 0 47 21.5t15 67.5v399q0 59 -60 59v6q83 -3 172 -3q28 0 112 2v-484q0 -60 31 -69zM449 300q104 -3 161 -46.5t57 -101.5q0 -152 -238 -152h-33v6q47 11 47 144q0 63 -19.5 104t-58.5 45v7q29 5 44.5 38.5t15.5 85.5q0 118 -60 122
v8h36q60 0 110.5 -11t88.5 -41.5t38 -77.5q0 -58 -51.5 -90.5t-137.5 -34.5v-5z" />
    <glyph glyph-name="C.sc" horiz-adv-x="655" 
d="M424 -8v6q57 9 111 67.5t78 146.5h10l-27 -194q-32 0 -59.5 -4t-61.5 -11.5t-51 -10.5zM377 -7v-7q-12 -1 -40 -1q-147 0 -230.5 78t-83.5 204q0 129 88.5 218.5t233.5 89.5q23 0 33 -1v-7q-24 -2 -40.5 -13.5t-32 -40.5t-23 -85t-7.5 -139q0 -291 102 -296zM423 564v7
q16 -2 51 -8t67 -9.5t69 -3.5v-161h-9q-17 76 -69 121.5t-109 53.5z" />
    <glyph glyph-name="D.sc" horiz-adv-x="751" 
d="M352 6v-6q-20 0 -69 1.5t-71 1.5l-174 -3v6q32 0 47 21.5t15 67.5v400q0 59 -60 59v6q83 -3 172 -3q26 0 112 2v-486q0 -58 28 -67zM394 0v7q40 7 61.5 77t21.5 187q0 132 -28.5 206.5t-84.5 75.5v7h47q135 0 226 -72.5t91 -193.5q0 -136 -91.5 -215t-228.5 -79h-14z" />
    <glyph glyph-name="E.sc" horiz-adv-x="625" 
d="M395 1v7q67 5 124 61.5t79 149.5h7l-39 -219h-89t-82 1zM324 558v-482q0 -32 5.5 -47t22.5 -21v-6q-55 1 -140 1l-174 -3v6q32 0 47 21.5t15 67.5v400q0 59 -60 59v6q83 -3 172 -3q72 0 112 1zM364 552v6l206 2v-171h-6q-9 77 -64.5 120t-135.5 43zM362 293v8q52 0 84 29
t32 84h7v-256h-7q0 55 -28.5 95t-87.5 40z" />
    <glyph glyph-name="F.sc" horiz-adv-x="600" 
d="M324 558v-491q0 -61 62 -61v-6q-85 3 -174 3l-174 -3v6q32 0 47 21.5t15 67.5v400q0 59 -60 59v6q83 -3 172 -3q72 0 112 1zM364 552v6l206 2v-171h-6q-9 77 -64.5 120t-135.5 43zM362 280v8q52 0 84 29t32 84h7v-256h-7q0 55 -28.5 95t-87.5 40z" />
    <glyph glyph-name="G.sc" horiz-adv-x="725" 
d="M411 -13v5q36 6 36 69v135q0 41 -15 56.5t-49 15.5v7h339v-7q-64 0 -64 -100v-150q-67 0 -138.5 -14t-108.5 -17zM433 564v6q12 -2 43 -7t46.5 -7t43.5 -4t56 -2v-161h-7q-17 74 -69.5 119.5t-112.5 55.5zM383 574v-7q-23 -3 -41 -16t-34 -42.5t-24.5 -85t-8.5 -134.5
q0 -141 19.5 -213t63.5 -84v-7h-6q-152 0 -240.5 73.5t-88.5 208.5q0 129 89.5 218.5t234.5 89.5q25 0 36 -1z" />
    <glyph glyph-name="H.sc" horiz-adv-x="806" 
d="M324 465v-400q0 -59 60 -59v-6q-83 3 -172 3l-174 -3v6q32 0 47 21.5t15 67.5v400q0 59 -60 59v6q83 -3 172 -3l174 3v-6q-32 0 -47 -21.5t-15 -67.5zM369 289v9h113v197q0 59 -60 59v6q83 -3 172 -3l174 3v-6q-32 0 -47 -21.5t-15 -67.5v-400q0 -59 60 -59v-6
q-83 3 -172 3l-174 -3v6q32 0 47 21.5t15 67.5v194h-113z" />
    <glyph glyph-name="I.sc" 
d="M386 553q-32 0 -47 -21.5t-15 -67.5v-398q0 -59 60 -59v-7q-83 3 -172 3l-174 -3v7q32 0 47 21.5t15 67.5v398q0 59 -60 59v7q83 -3 172 -3l174 3v-7z" />
    <glyph glyph-name="J.sc" 
d="M100 7v488q0 59 -60 59v6q83 -3 172 -3l174 3v-6q-32 0 -47 -21.5t-15 -67.5v-408q0 -98 -60 -146q-31 -24 -122.5 -45t-118.5 -50l-4 3q8 12 27 31.5t29 34.5q25 35 25 122z" />
    <glyph glyph-name="K.sc" horiz-adv-x="783" 
d="M493 436l221 -369q28 -48 75 -48v-7q-57 -31 -144 -31q-136 0 -196 115l-100 188zM519 456l-4 4q14 19 14 45q0 23 -18 36t-48 13v6q43 -3 133 -3l138 3v-6q-122 0 -215 -98zM386 554q-32 0 -47 -21.5t-15 -67.5v-400q0 -59 60 -59v-6q-83 3 -172 3l-174 -3v6
q32 0 47 21.5t15 67.5v400q0 59 -60 59v6q83 -3 172 -3l174 3v-6z" />
    <glyph glyph-name="L.sc" horiz-adv-x="624" 
d="M359 7v-5q-59 1 -147 1l-174 -3v7q32 0 47 21.5t15 67.5v399q0 59 -60 59v6q83 -3 172 -3l174 3v-6q-32 0 -47 -21.5t-15 -67.5v-390q0 -59 35 -68zM410 1v5q71 6 124 77.5t68 153.5h6l-35 -237q-111 0 -163 1z" />
    <glyph glyph-name="M.sc" horiz-adv-x="891" 
d="M96 143l7 -1q-15 -136 94 -136v-6q-52 3 -100 3l-78 -3v6q31 0 49 23t25 86zM588 77l-32 396q-2 24 -5.5 45t-6.5 30l-3 9l292 3v-6q-34 0 -51 -15.5t-13 -55.5l38 -406q4 -42 17.5 -56.5t46.5 -14.5v-6q-75 3 -168 3l-178 -3v6q33 0 49.5 15.5t13.5 55.5zM469 156
l-40 -156l-119 -14l-176 505q-11 32 -26.5 47.5t-45.5 15.5v6q121 -3 295 -3q0 -41 16 -95z" />
    <glyph glyph-name="N.sc" horiz-adv-x="685" 
d="M95 144h8v-22q0 -62 30.5 -89t93.5 -27v-6q-64 3 -114 3l-82 -3v6q64 0 64 116v22zM590 159v-159l-146 -14l-333 508q-14 22 -22.5 32t-23.5 19t-34 9v6q111 -3 304 -3q2 -26 46 -92zM590 413h-8v25q0 59 -35 87.5t-88 28.5v6q68 -3 124 -3l81 3v-6q-32 0 -53 -28
t-21 -88v-25z" />
    <glyph glyph-name="O.sc" horiz-adv-x="685" 
d="M337 -6v-9q-148 1 -231 78t-83 204q0 123 79 210t213 97v-7q-23 -14 -32 -79t-9 -199q0 -264 63 -295zM349 575q148 -1 230.5 -77.5t82.5 -203.5q0 -122 -79 -209.5t-212 -97.5v7q23 12 32 76.5t9 200.5q0 268 -63 297v7z" />
    <glyph glyph-name="P.sc" horiz-adv-x="668" 
d="M365 234v6q59 15 59 158q0 142 -59 154v7q2 0 21 0.5t31 0.5q110 0 169 -42t59 -117q0 -167 -265 -167h-15zM324 558v-491q0 -61 62 -61v-6q-85 3 -174 3l-174 -3v6q32 0 47 21.5t15 67.5v400q0 59 -60 59v6q83 -3 172 -3q72 0 112 1z" />
    <glyph glyph-name="Q.sc" horiz-adv-x="685" 
d="M366 -32l5 9q55 -5 150 -26t200.5 -37.5t215.5 -16.5q78 0 168 14.5t142 40.5l4 -5q-59 -91 -137.5 -144t-193.5 -53q-71 0 -135.5 20t-114.5 50t-96 60.5t-100.5 55.5t-107.5 32zM337 -6v-9q-148 1 -231 78t-83 204q0 123 79 210t213 97v-7q-23 -14 -32 -79t-9 -199
q0 -264 63 -295zM349 575q148 -1 230.5 -77.5t82.5 -203.5q0 -122 -79 -209.5t-212 -97.5v7q23 12 32 76.5t9 200.5q0 268 -63 297v7z" />
    <glyph glyph-name="R.sc" horiz-adv-x="729" 
d="M365 551v8q20 1 49 1q110 0 174 -34.5t64 -107.5q0 -134 -208 -146v-5q85 0 136 -25t70 -93l25 -88q13 -48 47 -48q4 0 12 2l2 -5q-19 -10 -63 -17.5t-85 -7.5q-153 0 -177 132l-15 87q-10 61 -39 62v7q65 7 65 145q0 125 -57 133zM324 558v-491q0 -61 62 -61v-6
q-85 3 -174 3l-174 -3v6q32 0 47 21.5t15 67.5v400q0 59 -60 59v6q83 -3 172 -3q72 0 112 1z" />
    <glyph glyph-name="S.sc" horiz-adv-x="546" 
d="M465 393q-11 71 -55.5 120t-102.5 54v7q9 -1 70 -8.5t102 -7.5l-8 -165h-6zM209 503q0 -26 23 -49.5t58 -41t75.5 -41t75.5 -48t58 -64t23 -87.5q0 -87 -73.5 -137t-181.5 -50h-11v6q48 1 72 19.5t24 49.5q0 33 -33 63.5t-79.5 56.5t-93 55t-79.5 72t-33 95q0 77 60 123
t172 50v-7q-25 -2 -41 -19.5t-16 -45.5zM215 -6v-7q-18 2 -68 12t-104 10l-8 201h6q16 -89 62.5 -146t111.5 -70z" />
    <glyph glyph-name="T.sc" horiz-adv-x="684" 
d="M454 66q0 -59 60 -59v-7q-83 3 -172 3l-174 -3v7q32 0 47 21.5t15 67.5v461h224v-491zM189 557v-7q-60 -7 -100 -53t-55 -116l-7 2l15 177q60 -2 147 -3zM494 558l163 2l-15 -179l-7 2q0 68 -37 115t-104 53v7z" />
    <glyph glyph-name="U.sc" horiz-adv-x="699" 
d="M587 104l6 -3q-20 -67 -79 -90t-163 -23q-251 0 -251 206v301q0 59 -60 59v6q83 -3 172 -3l174 3v-6q-32 0 -47 -21.5t-15 -67.5v-284q0 -90 31.5 -130.5t94.5 -40.5q107 0 137 94zM604 414h-7v24q0 60 -31 88t-82 28v6q51 -3 118 -3l76 3v-6q-32 0 -53 -28.5t-21 -87.5
v-24z" />
    <glyph glyph-name="V.sc" horiz-adv-x="679" 
d="M440 82l-28 -82l-161 -14l-169 506q-20 62 -70 62v6q80 -3 176 -3l177 3v-6q-25 0 -38.5 -12t-13.5 -33q0 -15 9 -46zM551 412l-5 3l6 18q10 32 10 53q0 68 -78 68v6q38 -3 102 -3l81 3v-6q-62 0 -108 -121z" />
    <glyph glyph-name="W.sc" horiz-adv-x="970" 
d="M419 152l-46 -152l-122 -14l-173 520q-15 48 -66 48v6q93 -3 165 -3l173 3v-6q-35 0 -35 -33q0 -14 7 -37zM758 147l-46 -146l-121 -15l-166 519q-8 26 -19 37.5t-33 11.5v6q94 -3 165 -3l118 1q0 -30 12 -74zM842 412l-6 3l3 10q12 38 12 63q0 66 -79 66v6q63 -3 106 -3
l80 3v-6q-61 0 -111 -129z" />
    <glyph glyph-name="X.sc" horiz-adv-x="711" 
d="M209 173l6 -5q-35 -56 -35 -88q0 -33 26 -53t74 -20v-7q-117 3 -156 3l-117 -3v7q49 0 97 38.5t87 99.5zM369 90l-271 412q-34 52 -75 52v6q81 -3 185 -3l174 3v-6q-37 0 -37 -35q0 -20 21 -51l271 -402q14 -20 23 -30.5t27 -19.5t42 -9v-7q-95 3 -179 3l-216 -3v7
q53 0 53 36q0 19 -18 47zM499 426l-4 5q23 34 23 64q0 59 -83 59v6q71 -3 134 -3l119 3v-6q-96 0 -166 -96z" />
    <glyph glyph-name="Y.sc" horiz-adv-x="675" 
d="M453 301v-235q0 -59 60 -59v-7q-83 3 -172 3l-174 -3v7q32 0 47 21.5t15 67.5v198l-144 218q-28 42 -66 42v6q82 -3 182 -3l180 3v-6q-43 0 -43 -34q0 -22 19 -55zM513 416l-5 3q31 53 31 85q0 50 -74 50v6q40 -3 109 -3l82 3v-6q-58 0 -121 -102z" />
    <glyph glyph-name="Z.sc" horiz-adv-x="642" 
d="M297 553q-203 -8 -239 -187h-7l26 194h220v-7zM600 226h7l-33 -226h-236v7q212 12 262 219zM598 553l-319 -553h-244l-2 7l324 553h238z" />
    <glyph glyph-name="ampersand.sc" horiz-adv-x="655" 
d="M359 570v5q73 -2 111 -27.5t38 -62.5q0 -35 -23.5 -55.5t-60.5 -20.5t-65 19q27 34 27 79q0 51 -27 63zM514 233l-5 6q17 31 17 50q0 46 -78 46v7q68 -3 106 -3l102 3v-7q-71 0 -142 -102zM304 44l4 -5q-60 -54 -145 -54q-69 0 -107.5 33.5t-38.5 83.5q0 64 49 101.5
t126 46.5q-44 49 -66.5 87.5t-22.5 78.5q0 68 57 108.5t148 48.5v-6q-33 -15 -33 -62q0 -56 57 -125l229 -279q42 -53 82 -53q13 0 23 7l3 -7q-2 -3 -6 -7.5t-19 -15.5t-32 -20t-45.5 -16t-59.5 -7q-102 0 -168 83l-142 178q-17 -25 -17 -70q0 -48 32 -90.5t72 -42.5
q12 0 20 4z" />
    <glyph glyph-name="exclam.sc" horiz-adv-x="255" 
d="M126 -15q-44 0 -67.5 23t-23.5 61q0 37 23.5 61t67.5 24q43 0 67.5 -24t24.5 -61t-24 -60.5t-68 -23.5zM136 191h-15q2 15 2 42q0 32 -16.5 63t-36.5 52.5t-36.5 54t-16.5 67.5q0 44 31.5 74.5t79.5 30.5q49 0 80.5 -30.5t31.5 -74.5q0 -35 -16.5 -67.5t-37 -54
t-37 -52.5t-16.5 -63z" />
    <glyph glyph-name="exclamdown.sc" horiz-adv-x="255" 
d="M126 575q44 0 68 -23.5t24 -60.5t-24.5 -61t-67.5 -24q-44 0 -67.5 24t-23.5 61q0 38 23.5 61t67.5 23zM121 369h15q-3 -15 -3 -42q0 -32 16.5 -63t37 -52.5t37 -54t16.5 -67.5q0 -44 -31.5 -74.5t-80.5 -30.5q-48 0 -79.5 30.5t-31.5 74.5q0 35 16.5 67.5t36.5 54
t36.5 52.5t16.5 63z" />
    <glyph glyph-name="questiondown.sc" horiz-adv-x="434" 
d="M238 406q-43 0 -67.5 24t-24.5 61t24 60.5t68 23.5t67.5 -23.5t23.5 -60.5t-24 -61t-67 -24zM224 -7v-5q-88 10 -143.5 54t-55.5 99q0 45 23 76.5t56 47.5t66 27t56 24t23 30q0 13 -10 25l4 4q23 -14 41.5 -40.5t18.5 -56.5q0 -35 -21.5 -62.5t-46.5 -43.5t-46.5 -43.5
t-21.5 -62.5q0 -27 16.5 -47.5t40.5 -25.5zM335 142q35 0 54 -20t19 -46q0 -34 -24.5 -55t-54 -28t-64.5 -8v5q36 4 36 41q0 15 -9 27.5t-22 16.5q-1 4 -1 12q0 21 18.5 38t47.5 17z" />
    </font>
</defs>
</svg>
