<?xml version="1.0" standalone="no"?>
<!DOCTYPE svg PUBLIC "-//W3C//DTD SVG 1.1//EN" "http://www.w3.org/Graphics/SVG/1.1/DTD/svg11.dtd" >
<svg>
<metadata>
Created by FontForge 20120731 at Tue Jul  9 10:04:29 2019
 By www
Copyright (c) 2013 by atipo. All rights reserved.
</metadata>
<defs>
<font id="Salome-Italic_0_wt" horiz-adv-x="424" >
  <font-face 
    font-family="Salome"
    font-weight="400"
    font-style="italic"
    font-stretch="normal"
    units-per-em="1000"
    panose-1="2 0 5 3 4 0 0 9 0 3"
    ascent="750"
    descent="-250"
    x-height="500"
    cap-height="700"
    bbox="-203 -296 1696 1011"
    underline-thickness="50"
    underline-position="-100"
    unicode-range="U+000D-FB06"
  />
<missing-glyph horiz-adv-x="230" 
 />
    <glyph glyph-name="ellipsis" unicode="&#x2e;&#x2e;&#x2e;" horiz-adv-x="907" 
d="M141 -19q-46 0 -69.5 24.5t-23.5 64.5q0 52 32.5 87t90.5 35q46 0 70 -25.5t24 -65.5q0 -52 -33 -86t-91 -34zM450 -19q-45 0 -69 24.5t-24 64.5q0 52 33 87t90 35q46 0 70 -25.5t24 -65.5q0 -52 -33 -86t-91 -34zM759 -19q-46 0 -69.5 24.5t-23.5 64.5q0 52 32.5 87
t90.5 35q46 0 70 -25.5t24 -65.5q0 -52 -33 -86t-91 -34z" />
    <glyph glyph-name="f_f" unicode="ff" horiz-adv-x="736" 
d="M793 480l-1 -8h-96l-42 -286q-29 -192 -121.5 -302t-227.5 -110q-44 0 -80 16t-54 41q-99 -101 -227 -101q-67 0 -107 30.5t-40 74.5q0 38 30 62t76 24q53 0 90 -30q-20 -22 -35.5 -55t-15.5 -60q0 -36 25 -36q28 0 53 53t37 145l71 533h-43l1 9h42q18 124 110 182
t232 58q34 0 70.5 -9.5t50.5 -20.5q96 74 229 74q71 0 117 -30.5t46 -74.5q0 -43 -33 -69.5t-83 -26.5q-56 0 -94 40q19 22 33.5 54.5t14.5 60.5q0 36 -25 36q-60 0 -84 -171l-15 -103h96zM471 472h-120l-47 -330q-16 -106 -48 -177q48 0 85 -30q-20 -22 -35.5 -55
t-15.5 -60q0 -36 25 -36q28 0 53 53t37 145zM471 480q3 25 9 45q-36 13 -54 34q19 22 33.5 54.5t14.5 60.5q0 36 -25 36q-28 0 -51.5 -41t-36.5 -129l-9 -60h119z" />
    <glyph glyph-name="fi" unicode="fi" horiz-adv-x="724" 
d="M57 -62l71 533h-43l1 9h42q18 129 117 206.5t236 77.5q91 0 139 -36t48 -84q0 -49 -38 -80t-100 -31q-34 0 -66 15.5t-45 36.5q21 19 38.5 57t17.5 72q0 40 -24 40q-60 0 -84 -171l-15 -103h104q64 0 129 5t99 10l33 5l-61 -429q-3 -19 -3 -27q0 -23 20 -23q13 0 28 9
l4 -7q-6 -5 -18 -12t-51 -19t-82 -12q-112 0 -116 96q0 21 2 34l42 303q2 14 2 20q0 39 -40 39h-93l-47 -330q-27 -190 -125.5 -301t-235.5 -111q-67 0 -106.5 30.5t-39.5 74.5q0 38 30 62t76 24q53 0 90 -30q-20 -22 -35.5 -55t-15.5 -60q0 -36 25 -36q28 0 53 53t37 145z
" />
    <glyph glyph-name="fl" unicode="fl" horiz-adv-x="713" 
d="M475 764q92 0 140 -50q36 7 70 16t51 14l16 6l-97 -679q-3 -19 -3 -27q0 -23 20 -23q13 0 28 9l4 -7q-6 -5 -18 -12t-51 -19t-82 -12q-112 0 -116 96q0 21 2 34l64 455q-48 10 -75 38q19 22 33.5 54.5t14.5 60.5q0 36 -25 36q-60 0 -84 -171l-15 -103h96l-1 -8h-96
l-47 -330q-27 -190 -125.5 -301t-235.5 -111q-67 0 -106.5 30.5t-39.5 74.5q0 38 30 62t76 24q53 0 90 -30q-20 -22 -35.5 -55t-15.5 -60q0 -36 25 -36q28 0 53 53t37 145l71 533h-43l1 9h42q19 130 114.5 207t232.5 77z" />
    <glyph glyph-name="f_f_i" unicode="ffi" horiz-adv-x="1069" 
d="M826 764q91 0 139 -36t48 -84q0 -49 -38 -80t-100 -31q-34 0 -66 15.5t-45 36.5q21 19 38.5 57t17.5 72q0 40 -24 40q-60 0 -84 -171l-15 -103h104q64 0 129 5t98 10l34 5l-61 -429q-3 -19 -3 -27q0 -23 20 -23q13 0 28 9l4 -7q-6 -5 -18 -12t-51 -19t-82 -12
q-112 0 -116 96q0 21 2 34l42 303q2 14 2 20q0 39 -40 39h-93l-42 -286q-29 -192 -121.5 -302t-227.5 -110q-44 0 -80 16t-54 41q-99 -101 -227 -101q-67 0 -107 30.5t-40 74.5q0 38 30 62t76 24q53 0 90 -30q-20 -22 -35.5 -55t-15.5 -60q0 -36 25 -36q28 0 53 53t37 145
l71 533h-43l1 9h42q18 124 110 182t232 58q34 0 70.5 -9.5t50.5 -20.5q96 74 235 74zM471 472h-120l-47 -330q-16 -106 -48 -177q48 0 85 -30q-20 -22 -35.5 -55t-15.5 -60q0 -36 25 -36q28 0 53 53t37 145zM471 480q3 25 9 45q-36 13 -54 34q19 22 33.5 54.5t14.5 60.5
q0 36 -25 36q-28 0 -51.5 -41t-36.5 -129l-9 -60h119z" />
    <glyph glyph-name="f_f_l" unicode="ffl" horiz-adv-x="1058" 
d="M696 472l-42 -286q-29 -192 -121.5 -302t-227.5 -110q-44 0 -80 16t-54 41q-99 -101 -227 -101q-67 0 -107 30.5t-40 74.5q0 38 30 62t76 24q53 0 90 -30q-20 -22 -35.5 -55t-15.5 -60q0 -36 25 -36q28 0 53 53t37 145l71 533h-43l1 9h42q18 124 110 182t232 58
q34 0 70.5 -9.5t50.5 -20.5q96 74 229 74q92 0 140 -50q36 7 70 16t50 14l17 6l-97 -679q-3 -19 -3 -27q0 -23 20 -23q13 0 28 9l4 -7q-6 -5 -18 -12t-51 -19t-82 -12q-112 0 -116 96q0 21 2 34l64 455q-48 10 -75 38q19 22 33.5 54.5t14.5 60.5q0 36 -25 36q-60 0 -84 -171
l-15 -103h96l-1 -8h-96zM471 472h-120l-47 -330q-16 -106 -48 -177q48 0 85 -30q-20 -22 -35.5 -55t-15.5 -60q0 -36 25 -36q28 0 53 53t37 145zM471 480q3 25 9 45q-36 13 -54 34q19 22 33.5 54.5t14.5 60.5q0 36 -25 36q-28 0 -51.5 -41t-36.5 -129l-9 -60h119z" />
    <glyph glyph-name="T_h" unicode="Th" horiz-adv-x="1300" 
d="M1017 750l-93 -510h6q72 260 252 260q43 0 73.5 -25t30.5 -67q0 -40 -12 -114q-34 -211 -34 -249q0 -24 20 -24q14 0 28 9l4 -7q-6 -5 -18 -12t-51 -19t-82 -12q-114 0 -118 96q0 22 2 34l34 235q5 33 5 59q0 20 -14 20q-25 0 -56.5 -53.5t-55.5 -140.5t-24 -170
q0 -44 11 -64q-39 -16 -106 -16q-113 0 -117 96q0 22 2 35l64 451q12 81 -23 104t-152 23l-83 -590q-7 -51 7.5 -70t54.5 -19l-1 -10q-88 3 -192 3l-192 -3l1 10q74 0 92 125l78 554q-91 0 -157 -55t-100 -155l-11 3l49 218q137 -3 324 -3q44 0 125 1t120 1q78 0 155.5 12.5
t115.5 25.5z" />
    <glyph glyph-name="f_j" unicode="fj" horiz-adv-x="717" 
d="M433 29l49 382q2 14 2 22q0 39 -40 39h-93l-47 -330q-27 -190 -125.5 -301t-235.5 -111q-67 0 -106.5 30.5t-39.5 74.5q0 38 30 62t76 24q53 0 90 -30q-20 -22 -35.5 -55t-15.5 -60q0 -36 25 -36q28 0 53 53t37 145l71 533h-43l1 9h42q18 129 117 206.5t236 77.5
q91 0 139 -36t48 -84q0 -49 -38 -80t-100 -31q-34 0 -66 15.5t-45 36.5q21 19 38.5 57t17.5 72q0 40 -24 40q-60 0 -84 -171l-15 -103h104q64 0 129 5t99 10l33 5l-58 -449q-20 -158 -129 -212q-37 -18 -132.5 -38.5t-130.5 -45.5l-5 7q7 6 54 37.5t66 58.5q16 22 26.5 50.5
t14.5 51.5t10 69z" />
    <glyph glyph-name="f_f_j" unicode="ffj" horiz-adv-x="1075" 
d="M471 472h-120l-47 -330q-16 -106 -48 -177q48 0 85 -30q-20 -22 -35.5 -55t-15.5 -60q0 -36 25 -36q28 0 53 53t37 145zM471 480q3 25 9 45q-36 13 -54 34q19 22 33.5 54.5t14.5 60.5q0 36 -25 36q-28 0 -51.5 -41t-36.5 -129l-9 -60h119zM789 472h-93l-42 -286
q-29 -192 -121.5 -302t-227.5 -110q-44 0 -80 16t-54 41q-99 -101 -227 -101q-67 0 -107 30.5t-40 74.5q0 38 30 62t76 24q53 0 90 -30q-20 -22 -35.5 -55t-15.5 -60q0 -36 25 -36q28 0 53 53t37 145l71 533h-43l1 9h42q18 124 110 182t232 58q34 0 70.5 -9.5t50.5 -20.5
q96 74 235 74q91 0 139 -36t48 -84q0 -49 -38 -80t-100 -31q-34 0 -66 15.5t-45 36.5q21 19 38.5 57t17.5 72q0 40 -24 40q-60 0 -84 -171l-15 -103h104q64 0 129 5t98 10l34 5l-58 -449q-20 -158 -129 -212q-37 -18 -132.5 -38.5t-130.5 -45.5l-5 7q7 6 54 37.5t66 58.5
q16 22 26.5 50.5t14.5 51.5t10 69l49 384q2 14 2 20q0 39 -40 39z" />
    <glyph glyph-name="f_b" unicode="fb" horiz-adv-x="1027" 
d="M615 714q36 7 70 16t51 14l16 6l-64 -424h5q26 83 74.5 128.5t112.5 45.5q74 0 115.5 -47t41.5 -129q0 -141 -101.5 -242.5t-257.5 -101.5q-128 0 -177.5 50t-49.5 131q0 37 6 79l46 325q-48 10 -75 38q19 22 33.5 54.5t14.5 60.5q0 36 -25 36q-60 0 -84 -171l-15 -103
h96l-1 -8h-96l-47 -330q-27 -190 -125.5 -301t-235.5 -111q-67 0 -106.5 30.5t-39.5 74.5q0 38 30 62t76 24q53 0 90 -30q-20 -22 -35.5 -55t-15.5 -60q0 -36 25 -36q28 0 53 53t37 145l71 533h-43l1 9h42q19 130 114.5 207t232.5 77q92 0 140 -50zM775 434
q-39 0 -79 -122.5t-40 -259.5q0 -64 25 -64q27 0 56 72t46.5 164t17.5 157q0 53 -26 53z" />
    <glyph glyph-name="f_f_b" unicode="ffb" horiz-adv-x="1372" 
d="M471 472h-120l-47 -330q-16 -106 -48 -177q48 0 85 -30q-20 -22 -35.5 -55t-15.5 -60q0 -36 25 -36q28 0 53 53t37 145zM471 480q3 25 9 45q-36 13 -54 34q19 22 33.5 54.5t14.5 60.5q0 36 -25 36q-28 0 -51.5 -41t-36.5 -129l-9 -60h119zM697 480h96l-1 -8h-96l-42 -286
q-29 -192 -121.5 -302t-227.5 -110q-44 0 -80 16t-54 41q-99 -101 -227 -101q-67 0 -107 30.5t-40 74.5q0 38 30 62t76 24q53 0 90 -30q-20 -22 -35.5 -55t-15.5 -60q0 -36 25 -36q28 0 53 53t37 145l71 533h-43l1 9h42q18 124 110 182t232 58q34 0 70.5 -9.5t50.5 -20.5
q90 74 229 74q92 0 140 -50q36 7 70 16t50 14l17 6l-64 -424h5q26 83 74.5 128.5t112.5 45.5q74 0 115.5 -47t41.5 -129q0 -141 -101.5 -242.5t-257.5 -101.5q-128 0 -177.5 50t-49.5 131q0 37 6 79l46 325q-48 10 -75 38q19 22 33.5 54.5t14.5 60.5q0 36 -25 36
q-60 0 -84 -171zM1120 437q-39 0 -79 -122.5t-40 -259.5q0 -64 25 -64q27 0 56 72t46.5 164t17.5 157q0 53 -26 53z" />
    <glyph glyph-name="f_h" unicode="fh" horiz-adv-x="1035" 
d="M752 750l-93 -510h6q72 260 252 260q43 0 73.5 -25t30.5 -67q0 -40 -12 -114q-34 -211 -34 -249q0 -24 20 -24q15 0 28 9l4 -7q-6 -5 -18 -12t-51 -19t-82 -12q-114 0 -118 96q0 22 2 34l34 235q5 33 5 59q0 20 -14 20q-25 0 -56.5 -53.5t-55.5 -140.5t-24 -170
q0 -44 11 -64q-39 -16 -106 -16q-113 0 -117 96q0 22 2 35l64 454q-48 10 -75 38q19 22 33.5 54.5t14.5 60.5q0 36 -25 36q-60 0 -84 -171l-15 -103h96l-1 -8h-96l-47 -330q-27 -190 -125.5 -301t-235.5 -111q-67 0 -106.5 30.5t-39.5 74.5q0 38 30 62t76 24q53 0 90 -30
q-20 -22 -35.5 -55t-15.5 -60q0 -36 25 -36q28 0 53 53t37 145l71 533h-43l1 9h42q19 130 114.5 207t232.5 77q92 0 140 -50q36 7 70 16t51 14z" />
    <glyph glyph-name="f_f_h" unicode="ffh" horiz-adv-x="1380" 
d="M471 472h-120l-47 -330q-16 -106 -48 -177q48 0 85 -30q-20 -22 -35.5 -55t-15.5 -60q0 -36 25 -36q28 0 53 53t37 145zM471 480q3 25 9 45q-36 13 -54 34q19 22 33.5 54.5t14.5 60.5q0 36 -25 36q-28 0 -51.5 -41t-36.5 -129l-9 -60h119zM773 603q19 22 33.5 54.5
t14.5 60.5q0 36 -25 36q-60 0 -84 -171l-15 -103h96l-1 -8h-96l-42 -286q-29 -192 -121.5 -302t-227.5 -110q-44 0 -80 16t-54 41q-99 -101 -227 -101q-67 0 -107 30.5t-40 74.5q0 38 30 62t76 24q53 0 90 -30q-20 -22 -35.5 -55t-15.5 -60q0 -36 25 -36q28 0 53 53t37 145
l71 533h-43l1 9h42q18 124 110 182t232 58q34 0 70.5 -9.5t50.5 -20.5q90 74 229 74q92 0 140 -50q36 7 70 16t50 14l17 6l-93 -510h6q72 260 252 260q43 0 73.5 -25t30.5 -67q0 -40 -12 -114q-34 -211 -34 -249q0 -24 20 -24q14 0 28 9l4 -7q-6 -5 -18 -12t-51 -19t-82 -12
q-114 0 -118 96q0 22 2 34l34 235q5 33 5 59q0 20 -14 20q-25 0 -56.5 -53.5t-55.5 -140.5t-24 -170q0 -44 11 -64q-39 -16 -106 -16q-113 0 -117 96q0 22 2 35l64 454q-48 10 -75 38z" />
    <glyph glyph-name="f_k" unicode="fk" horiz-adv-x="1034" 
d="M785 424q-25 0 -56.5 -53.5t-55.5 -140.5t-24 -170q0 -44 11 -64q-5 -2 -13 -4q-41 -12 -93 -12q-113 0 -117 96q0 22 2 35l64 454q-48 10 -75 38q19 22 33.5 54.5t14.5 60.5q0 36 -25 36q-36 0 -56 -58t-43 -216h96l-1 -8h-96l-47 -330q-11 -75 -37.5 -144t-69 -131
t-108.5 -99.5t-146 -37.5q-67 0 -106.5 30.5t-39.5 74.5q0 38 30 62t76 24q53 0 90 -30q-20 -22 -35.5 -55t-15.5 -60q0 -36 25 -36q28 0 53 53t37 145q11 81 32 242t32 242l7 49h-43l1 9h42q18 130 115 208q95 76 232 76q63 0 106 -24q19 -10 34 -26q35 7 68.5 15.5t50 14
t18.5 6.5l-93 -510h6q76 260 252 260q46 0 77.5 -24t31.5 -68q0 -108 -117 -176l66 -155q14 -36 48 -36q13 0 23 5l3 -5q-6 -6 -17.5 -15t-50.5 -24.5t-82 -15.5q-47 0 -77.5 11.5t-52 43t-35 73.5t-29.5 116q46 35 70 86.5t24 85.5q0 22 -14 22z" />
    <glyph glyph-name="f_f_k" unicode="ffk" horiz-adv-x="1379" 
d="M471 472h-120l-47 -330q-16 -106 -48 -177q48 0 85 -30q-20 -22 -35.5 -55t-15.5 -60q0 -36 25 -36q28 0 53 53t37 145zM471 480q3 25 9 45q-36 13 -54 34q19 22 33.5 54.5t14.5 60.5q0 36 -25 36q-28 0 -51.5 -41t-36.5 -129l-9 -60h119zM848 565q-48 10 -75 38
q19 22 33.5 54.5t14.5 60.5q0 36 -25 36q-60 0 -84 -171l-15 -103h96l-1 -8h-96l-42 -286q-29 -192 -121.5 -302t-227.5 -110q-44 0 -80 16t-54 41q-99 -101 -227 -101q-67 0 -107 30.5t-40 74.5q0 38 30 62t76 24q53 0 90 -30q-20 -22 -35.5 -55t-15.5 -60q0 -36 25 -36
q28 0 53 53t37 145l71 533h-43l1 9h42q18 124 110 182t232 58q34 0 70.5 -9.5t50.5 -20.5q90 74 229 74q92 0 140 -50q36 7 70 16t50 14l17 6l-93 -510h6q76 260 252 260q46 0 77.5 -24t31.5 -68q0 -108 -117 -176l66 -155q14 -36 48 -36q13 0 23 5l3 -5q-6 -6 -17.5 -15
t-50.5 -24.5t-82 -15.5q-47 0 -77.5 11.5t-52 43t-35 73.5t-29.5 116q46 35 70 86.5t24 85.5q0 22 -14 22q-25 0 -56.5 -53.5t-55.5 -140.5t-24 -170q0 -44 11 -64q-5 -2 -13 -4q-41 -12 -93 -12q-113 0 -117 96q0 22 2 35z" />
    <glyph glyph-name="f_r" unicode="fr" horiz-adv-x="915" 
d="M451 754q-60 0 -84 -171l-15 -103h104q64 0 129 5t99 10l33 5l-55 -260h6q31 135 83.5 197.5t112.5 62.5q42 0 68.5 -24t26.5 -59q0 -47 -32.5 -83t-88.5 -36q-43 0 -68 20q16 27 16 47q0 29 -24 29q-39 0 -74 -110.5t-35 -223.5q0 -44 11 -64q-39 -16 -106 -16
q-113 0 -117 96q0 22 2 35l41 289q3 21 3 35q-1 37 -49 37h-87l-47 -330q-27 -190 -125.5 -301t-235.5 -111q-67 0 -106.5 30.5t-39.5 74.5q0 38 30 62t76 24q53 0 90 -30q-20 -22 -35.5 -55t-15.5 -60q0 -36 25 -36q28 0 53 53t37 145l71 533h-43l1 9h42q18 129 117 206.5
t236 77.5q70 0 113.5 -30.5t43.5 -74.5q0 -43 -33 -69.5t-83 -26.5q-56 0 -94 40q19 22 33.5 54.5t14.5 60.5q0 36 -25 36z" />
    <glyph glyph-name="f_f_r" unicode="ffr" horiz-adv-x="1260" 
d="M594 690q97 74 232 74q70 0 113.5 -30.5t43.5 -74.5q0 -43 -33 -69.5t-83 -26.5q-56 0 -94 40q19 22 33.5 54.5t14.5 60.5q0 36 -25 36q-60 0 -84 -171l-15 -103h104q64 0 129 5t98 10l34 5l-55 -260h6q31 135 83.5 197.5t112.5 62.5q42 0 68.5 -24t26.5 -59
q0 -47 -32.5 -83t-88.5 -36q-43 0 -68 20q16 27 16 47q0 29 -24 29q-39 0 -74 -110.5t-35 -223.5q0 -44 11 -64q-39 -16 -106 -16q-113 0 -117 96q0 22 2 35l41 289q3 21 3 35q-1 37 -49 37h-87l-42 -286q-29 -192 -121.5 -302t-227.5 -110q-44 0 -80 16t-54 41
q-99 -101 -227 -101q-67 0 -107 30.5t-40 74.5q0 38 30 62t76 24q53 0 90 -30q-20 -22 -35.5 -55t-15.5 -60q0 -36 25 -36q28 0 53 53t37 145l71 533h-43l1 9h42q18 124 110 182t232 58q34 0 72 -9.5t52 -20.5zM471 472h-120l-47 -330q-16 -106 -48 -177q48 0 85 -30
q-20 -22 -35.5 -55t-15.5 -60q0 -36 25 -36q28 0 53 53t37 145zM471 480q3 25 9 45q-36 13 -54 34q19 22 33.5 54.5t14.5 60.5q0 36 -25 36q-28 0 -51.5 -41t-36.5 -129l-9 -60h119z" />
    <glyph glyph-name="f_t" unicode="ft" horiz-adv-x="751" 
d="M745 60l4 -4q-65 -76 -181 -76q-129 0 -129 107q0 16 4 40l48 344h-140l-47 -329q-27 -189 -126 -300.5t-235 -111.5q-67 0 -106.5 30.5t-39.5 74.5q0 38 30 62t76 24q53 0 90 -30q-20 -22 -35.5 -55t-15.5 -60q0 -36 25 -36q28 0 53 53t37 145l71 533h-43l1 9h42
q18 129 117 206.5t236 77.5q58 0 107.5 -27t49.5 -78q0 -43 -33 -69.5t-83 -26.5q-56 0 -94 40q19 22 33.5 54.5t14.5 60.5q0 36 -25 36q-60 0 -84 -171l-15 -103h103q74 0 155.5 45.5t114.5 94.5l8 -3l-19 -137h61l-2 -9h-61l-52 -373q-2 -12 -2 -21q0 -35 38 -35
q24 0 49 18z" />
    <glyph glyph-name="f_f_t" unicode="fft" horiz-adv-x="1096" 
d="M471 472h-120l-47 -330q-16 -106 -48 -177q48 0 85 -30q-20 -22 -35.5 -55t-15.5 -60q0 -36 25 -36q28 0 53 53t37 145zM471 480q3 25 9 45q-36 13 -54 34q19 22 33.5 54.5t14.5 60.5q0 36 -25 36q-28 0 -51.5 -41t-36.5 -129l-9 -60h119zM696 471l-42 -285
q-29 -192 -121.5 -302t-227.5 -110q-44 0 -80 16t-54 41q-99 -101 -227 -101q-67 0 -107 30.5t-40 74.5q0 38 30 62t76 24q53 0 90 -30q-20 -22 -35.5 -55t-15.5 -60q0 -36 25 -36q28 0 53 53t37 145l71 533h-43l1 9h42q18 124 110 182t232 58q34 0 72 -9.5t52 -20.5
q96 74 232 74q37 0 70.5 -9t60 -34t26.5 -62q0 -43 -33 -69.5t-83 -26.5q-56 0 -94 40q19 22 33.5 54.5t14.5 60.5q0 36 -25 36q-60 0 -84 -171l-15 -103h103q74 0 155.5 45.5t114.5 94.5l8 -3l-19 -137h61l-2 -9h-61l-52 -373q-2 -12 -2 -21q0 -35 38 -35q24 0 49 18l4 -4
q-65 -76 -181 -76q-129 0 -129 107q0 16 4 40l48 344h-140z" />
    <glyph glyph-name="f_u" unicode="fu" horiz-adv-x="1036" 
d="M352 480q78 0 151 10t96 10q103 0 103 -90q0 -24 -3 -47l-31 -228q-5 -33 -5 -59q1 -20 14 -20q23 0 54 55t54.5 142.5t23.5 166.5q0 44 -11 64q39 16 106 16q113 0 117 -96q0 -22 -2 -35l-37 -261q-3 -21 -3 -35q1 -36 47 -36l4 -8q-82 0 -153 -12t-101 -25l-31 -12
l54 260h-6q-18 -68 -43.5 -117.5t-50 -76t-54.5 -42.5t-52 -20t-48 -4q-43 0 -73.5 25t-30.5 67q0 40 12 114q34 210 34 248q0 39 -44 39h-92l-47 -331q-27 -190 -125.5 -301t-235.5 -111q-67 0 -106.5 30.5t-39.5 74.5q0 38 30 62t76 24q53 0 90 -30q-20 -22 -35.5 -55
t-15.5 -60q0 -36 25 -36q28 0 53 53t37 145l71 533h-43l1 9h42q18 129 117 206.5t236 77.5q70 0 113.5 -30.5t43.5 -74.5q0 -43 -33 -69.5t-83 -26.5q-56 0 -94 40q19 22 33.5 54.5t14.5 60.5q0 36 -25 36q-60 0 -84 -171z" />
    <glyph glyph-name="f_f_u" unicode="ffu" horiz-adv-x="1381" 
d="M471 472h-120l-47 -330q-16 -106 -48 -177q48 0 85 -30q-20 -22 -35.5 -55t-15.5 -60q0 -36 25 -36q28 0 53 53t37 145zM471 480q3 25 9 45q-36 13 -54 34q19 22 33.5 54.5t14.5 60.5q0 36 -25 36q-28 0 -51.5 -41t-36.5 -129l-9 -60h119zM696 473l-42 -287
q-28 -192 -121 -302t-228 -110q-44 0 -80 16t-54 41q-99 -101 -227 -101q-67 0 -107 30.5t-40 74.5q0 38 30 62t76 24q53 0 90 -30q-20 -22 -35.5 -55t-15.5 -60q0 -36 25 -36q28 0 53 53t37 145l71 533h-43l1 9h42q18 124 110 182t232 58q34 0 72 -9.5t52 -20.5
q97 74 232 74q70 0 113.5 -30.5t43.5 -74.5q0 -43 -33 -69.5t-83 -26.5q-56 0 -94 40q19 22 33.5 54.5t14.5 60.5q0 36 -25 36q-58 0 -84 -171l-15 -103q77 0 150 10t97 10q103 0 103 -90q0 -24 -3 -47l-31 -228q-5 -33 -5 -59q1 -20 14 -20q23 0 54 55t54.5 142.5
t23.5 166.5q0 44 -11 64q39 16 106 16q113 0 117 -96q0 -22 -2 -35l-37 -261q-3 -21 -3 -35q1 -36 47 -36l4 -8q-82 0 -153 -12t-102 -25l-30 -12l54 260h-6q-18 -68 -43.5 -117.5t-50 -76t-54.5 -42.5t-52 -20t-48 -4q-43 0 -73.5 25t-30.5 67q0 40 12 114q34 210 34 248
q0 39 -44 39h-92z" />
    <glyph glyph-name="f_y" unicode="fy" horiz-adv-x="1027" 
d="M487 435q0 38 -44 38h-92l-47 -331q-27 -190 -125.5 -301t-235.5 -111q-67 0 -106.5 30.5t-39.5 74.5q0 38 30 62t76 24q53 0 90 -30q-20 -22 -35.5 -55t-15.5 -60q0 -36 25 -36q28 0 53 53t37 145l71 533h-43l1 9h42q18 129 117 206.5t236 77.5q70 0 113.5 -30.5
t43.5 -74.5q0 -43 -33 -69.5t-83 -26.5q-56 0 -94 40q19 22 33.5 54.5t14.5 60.5q0 36 -25 36q-60 0 -84 -171l-15 -103q78 0 151 10t96 10q103 0 103 -90q0 -24 -3 -47l-31 -228q-5 -33 -5 -59q1 -20 14 -20q23 0 54 55t54.5 142.5t23.5 166.5q0 44 -11 64q31 16 98 16
q121 0 125 -96q0 -22 -2 -35l-48 -338q-12 -81 -48 -141t-89.5 -94t-115 -50t-131.5 -16q-93 0 -140 29.5t-47 82.5q0 35 27.5 58t67.5 23q45 0 76 -27q-38 -50 -38 -105q0 -51 44 -51q65 0 101.5 51t55.5 143l65 306h-6q-18 -68 -43.5 -117.5t-50 -76t-54.5 -42.5t-52 -20
t-48 -4q-43 0 -73.5 25t-30.5 67q0 40 12 114q34 211 34 249z" />
    <glyph glyph-name="f_f_y" unicode="ffy" horiz-adv-x="1372" 
d="M471 472h-120l-47 -330q-16 -106 -48 -177q48 0 85 -30q-20 -22 -35.5 -55t-15.5 -60q0 -36 25 -36q28 0 53 53t37 145zM471 480q3 25 9 45q-36 13 -54 34q19 22 33.5 54.5t14.5 60.5q0 36 -25 36q-28 0 -51.5 -41t-36.5 -129l-9 -60h119zM826 764q70 0 113.5 -30.5
t43.5 -74.5q0 -43 -33 -69.5t-83 -26.5q-56 0 -94 40q19 22 33.5 54.5t14.5 60.5q0 36 -25 36q-60 0 -84 -171l-15 -103q77 0 150 10t97 10q103 0 103 -90q0 -24 -3 -47l-31 -228q-5 -33 -5 -59q1 -20 14 -20q23 0 54 55t54.5 142.5t23.5 166.5q0 44 -11 64q31 16 98 16
q121 0 125 -96q0 -22 -2 -35l-48 -338q-12 -81 -48 -141t-89.5 -94t-115 -50t-131.5 -16q-93 0 -140 29.5t-47 82.5q0 35 27.5 58t67.5 23q44 0 76 -27q-38 -50 -38 -105q0 -51 44 -51q65 0 101.5 51t55.5 143l65 306h-6q-18 -68 -43.5 -117.5t-50 -76t-54.5 -42.5t-52 -20
t-48 -4q-43 0 -73.5 25t-30.5 67q0 40 12 114q34 211 34 249t-44 38h-92l-42 -287q-28 -192 -121 -302t-228 -110q-44 0 -80 16t-54 41q-99 -101 -227 -101q-67 0 -107 30.5t-40 74.5q0 38 30 62t76 24q53 0 90 -30q-20 -22 -35.5 -55t-15.5 -60q0 -36 25 -36q28 0 53 53
t37 145l71 533h-43l1 9h42q18 124 110 182t232 58q34 0 72 -9.5t52 -20.5q97 74 232 74z" />
    <glyph glyph-name="f_adieresis" unicode="f&#xe4;" horiz-adv-x="1032" 
d="M871 543q-36 0 -55 20t-19 52q0 42 26.5 70.5t71.5 28.5q39 0 58.5 -20.5t19.5 -52.5q0 -43 -26.5 -70.5t-75.5 -27.5zM693 53q35 0 66.5 118t31.5 225q0 96 -36 96q-31 0 -54.5 -60t-34 -133.5t-10.5 -136.5q0 -109 37 -109zM1036 500l-62 -428q-3 -20 -3 -28
q0 -23 20 -23q13 0 28 9l4 -7q-6 -5 -17 -12t-49 -19t-81 -12t-78 22.5t-35 76.5q0 41 13 81h-8q-23 -92 -68 -136t-123 -44q-74 0 -115 53t-41 137q0 143 91.5 236.5t246.5 93.5q35 0 92.5 -13t91.5 -13q26 0 49 6.5t34 13.5zM129 480q15 127 127 205t278 78
q103 0 156 -36.5t53 -87.5q0 -41 -26 -68.5t-75 -27.5q-35 0 -54 20t-19 54q0 17 4.5 42t4.5 37q0 57 -68 57q-119 0 -149 -210l-9 -63h106l-1 -8h-106l-47 -330q-27 -190 -125.5 -301t-235.5 -111q-67 0 -106.5 30.5t-39.5 74.5q0 38 30 62t76 24q53 0 90 -30
q-20 -22 -35.5 -55t-15.5 -60q0 -36 25 -36q28 0 53 53t37 145l71 533h-43l1 9h43z" />
    <glyph glyph-name="f_f_adieresis" unicode="ff&#xe4;" horiz-adv-x="1374" 
d="M471 472h-120l-47 -330q-16 -106 -48 -177q48 0 85 -30q-20 -22 -35.5 -55t-15.5 -60q0 -36 25 -36q28 0 53 53t37 145zM471 480q3 25 9 45q-36 13 -54 34q19 22 33.5 54.5t14.5 60.5q0 36 -25 36q-28 0 -51.5 -41t-36.5 -129l-9 -60h119zM596 684q110 79 280 79
q103 0 156 -36.5t53 -87.5q0 -41 -26 -68.5t-75 -27.5q-35 0 -54 20t-19 54q0 17 4.5 42t4.5 37q0 57 -68 57q-55 0 -95 -50.5t-54 -159.5l-8 -63h106l-1 -8h-106l-40 -286q-26 -186 -120.5 -299t-228.5 -113q-44 0 -80 16t-54 41q-99 -101 -227 -101q-67 0 -107 30.5
t-40 74.5q0 38 30 62t76 24q53 0 90 -30q-20 -22 -35.5 -55t-15.5 -60q0 -36 25 -36q28 0 53 53t37 145l71 533h-43l1 9h42q18 124 110 182t232 58q75 0 126 -36zM1213 543q-36 0 -55 20t-19 52q0 42 26.5 70.5t71.5 28.5q39 0 58.5 -20.5t19.5 -52.5q0 -43 -26.5 -70.5
t-75.5 -27.5zM1035 53q35 0 66.5 118t31.5 225q0 96 -36 96q-31 0 -54.5 -60t-34 -133.5t-10.5 -136.5q0 -109 37 -109zM1378 500l-62 -428q-3 -20 -3 -28q0 -23 20 -23q13 0 28 9l4 -7q-6 -5 -17 -12t-49 -19t-81 -12t-78 22.5t-35 76.5q0 41 13 81h-8q-23 -92 -68 -136
t-123 -44q-74 0 -115 53t-41 137q0 143 91.5 236.5t246.5 93.5q35 0 92.5 -13t91.5 -13q26 0 49 6.5t34 13.5z" />
    <glyph glyph-name="f_edieresis" unicode="f&#xeb;" horiz-adv-x="929" 
d="M866 543q-36 0 -55 20t-19 52q0 42 26.5 70.5t71.5 28.5q39 0 58.5 -20.5t19.5 -52.5q0 -43 -26.5 -70.5t-75.5 -27.5zM129 480q15 127 127 205t278 78q103 0 156 -36.5t53 -87.5q0 -41 -26 -68.5t-75 -27.5q-35 0 -54 20t-19 54q0 17 4.5 42t4.5 37q0 57 -68 57
q-119 0 -149 -210l-9 -63h106l-1 -8h-106l-47 -330q-27 -190 -125.5 -301t-235.5 -111q-67 0 -106.5 30.5t-39.5 74.5q0 38 30 62t76 24q53 0 90 -30q-20 -22 -35.5 -55t-15.5 -60q0 -36 25 -36q28 0 53 53t37 145l71 533h-43l1 9h43zM622 200q0 -78 32.5 -121t93.5 -43
q66 0 134 44l4 -5q-86 -95 -246 -95q-124 0 -189 57t-65 156q0 127 104 217t258 90q97 0 150 -38.5t53 -91.5q0 -55 -55 -94.5t-163 -39.5q-61 0 -108 11q-3 -18 -3 -47zM626 255q54 5 101.5 65.5t47.5 122.5q0 49 -27 49q-30 0 -68 -64.5t-54 -172.5z" />
    <glyph glyph-name="f_f_edieresis" unicode="ff&#xeb;" horiz-adv-x="1271" 
d="M471 472h-120l-47 -330q-16 -106 -48 -177q48 0 85 -30q-20 -22 -35.5 -55t-15.5 -60q0 -36 25 -36q28 0 53 53t37 145zM471 480q3 25 9 45q-36 13 -54 34q19 22 33.5 54.5t14.5 60.5q0 36 -25 36q-28 0 -51.5 -41t-36.5 -129l-9 -60h119zM596 684q110 79 280 79
q103 0 156 -36.5t53 -87.5q0 -41 -26 -68.5t-75 -27.5q-35 0 -54 20t-19 54q0 17 4.5 42t4.5 37q0 57 -68 57q-55 0 -95 -50.5t-54 -159.5l-8 -63h106l-1 -8h-106l-40 -286q-26 -186 -120.5 -299t-228.5 -113q-44 0 -80 16t-54 41q-99 -101 -227 -101q-67 0 -107 30.5
t-40 74.5q0 38 30 62t76 24q53 0 90 -30q-20 -22 -35.5 -55t-15.5 -60q0 -36 25 -36q28 0 53 53t37 145l71 533h-43l1 9h42q18 124 110 182t232 58q75 0 126 -36zM1208 543q-36 0 -55 20t-19 52q0 42 26.5 70.5t71.5 28.5q39 0 58.5 -20.5t19.5 -52.5q0 -43 -26.5 -70.5
t-75.5 -27.5zM964 200q0 -78 32.5 -121t93.5 -43q66 0 134 44l4 -5q-86 -95 -246 -95q-124 0 -189 57t-65 156q0 127 104 217t258 90q97 0 150 -38.5t53 -91.5q0 -55 -55 -94.5t-163 -39.5q-61 0 -108 11q-3 -18 -3 -47zM968 255q54 5 101.5 65.5t47.5 122.5q0 49 -27 49
q-30 0 -68 -64.5t-54 -172.5z" />
    <glyph glyph-name="f_idieresis" unicode="f&#xef;" horiz-adv-x="737" 
d="M759 543q-36 0 -55 20t-19 52q0 42 26.5 70.5t71.5 28.5q39 0 58.5 -20.5t19.5 -52.5q0 -43 -26.5 -70.5t-75.5 -27.5zM457 472h-106l-47 -330q-27 -190 -125.5 -301t-235.5 -111q-67 0 -106.5 30.5t-39.5 74.5q0 38 30 62t76 24q53 0 90 -30q-20 -22 -35.5 -55
t-15.5 -60q0 -36 25 -36q28 0 53 53t37 145l71 533h-43l1 9h43q19 132 110 208t235 76q80 0 121 -35t41 -86q0 -44 -26.5 -72t-75.5 -28q-36 0 -55 20t-19 52q0 29 16 67t16 49q0 24 -26 24q-31 0 -59.5 -42.5t-40.5 -129.5l-14 -103h117q64 0 129 5t98 10l34 5l-61 -429
q-3 -19 -3 -27q0 -23 20 -23q13 0 28 9l4 -7q-6 -5 -18 -12t-51 -19t-82 -12q-112 0 -116 96q0 21 2 34l42 303q2 14 2 20q0 39 -40 39z" />
    <glyph glyph-name="f_f_idieresis" unicode="ff&#xef;" horiz-adv-x="1080" 
d="M471 472h-120l-47 -330q-16 -106 -48 -177q48 0 85 -30q-20 -22 -35.5 -55t-15.5 -60q0 -36 25 -36q28 0 53 53t37 145zM471 480q3 25 9 45q-36 13 -54 34q19 22 33.5 54.5t14.5 60.5q0 36 -25 36q-28 0 -51.5 -41t-36.5 -129l-9 -60h119zM590 688q86 76 227 76
q80 0 121 -35t41 -86q0 -44 -26.5 -72t-75.5 -28q-36 0 -55 20t-19 52q0 29 16 67t16 49q0 24 -26 24q-31 0 -59.5 -42.5t-40.5 -129.5l-14 -103h117q64 0 129 5t99 10l33 5l-61 -429q-3 -19 -3 -27q0 -23 20 -23q13 0 28 9l4 -7q-6 -5 -18 -12t-51 -19t-82 -12
q-112 0 -116 96q0 21 2 34l42 303q2 14 2 20q0 39 -40 39h-106l-40 -286q-26 -186 -120.5 -299t-228.5 -113q-44 0 -80 16t-54 41q-99 -101 -227 -101q-67 0 -107 30.5t-40 74.5q0 38 30 62t76 24q53 0 90 -30q-20 -22 -35.5 -55t-15.5 -60q0 -36 25 -36q28 0 53 53t37 145
l71 533h-43l1 9h42q18 124 110 182t232 58q65 0 120 -32zM1102 543q-36 0 -55 20t-19 52q0 42 26.5 70.5t71.5 28.5q39 0 58.5 -20.5t19.5 -52.5q0 -43 -26.5 -70.5t-75.5 -27.5z" />
    <glyph glyph-name="f_odieresis" unicode="f&#xf6;" horiz-adv-x="998" 
d="M866 543q-36 0 -55 20t-19 52q0 42 26.5 70.5t71.5 28.5q39 0 58.5 -20.5t19.5 -52.5q0 -43 -26.5 -70.5t-75.5 -27.5zM129 480q15 127 127 205t278 78q103 0 156 -36.5t53 -87.5q0 -41 -26 -68.5t-75 -27.5q-35 0 -54 20t-19 54q0 17 4.5 42t4.5 37q0 57 -68 57
q-119 0 -149 -210l-9 -63h106l-1 -8h-106l-47 -330q-27 -190 -125.5 -301t-235.5 -111q-67 0 -106.5 30.5t-39.5 74.5q0 38 30 62t76 24q53 0 90 -30q-20 -22 -35.5 -55t-15.5 -60q0 -36 25 -36q28 0 53 53t37 145l71 533h-43l1 9h43zM759 500q108 0 178.5 -59.5
t70.5 -158.5q0 -119 -98.5 -210.5t-254.5 -91.5q-109 0 -179.5 59.5t-70.5 158.5q0 119 99.5 210.5t254.5 91.5zM678 -12q36 0 67.5 133t31.5 241q0 130 -43 130q-36 0 -68 -132t-32 -240q0 -62 12 -97t32 -35z" />
    <glyph glyph-name="f_f_odieresis" unicode="ff&#xf6;" horiz-adv-x="1340" 
d="M471 472h-120l-47 -330q-16 -106 -48 -177q48 0 85 -30q-20 -22 -35.5 -55t-15.5 -60q0 -36 25 -36q28 0 53 53t37 145zM471 480q3 25 9 45q-36 13 -54 34q19 22 33.5 54.5t14.5 60.5q0 36 -25 36q-28 0 -51.5 -41t-36.5 -129l-9 -60h119zM596 684q110 79 280 79
q103 0 156 -36.5t53 -87.5q0 -41 -26 -68.5t-75 -27.5q-35 0 -54 20t-19 54q0 17 4.5 42t4.5 37q0 57 -68 57q-55 0 -95 -50.5t-54 -159.5l-8 -63h106l-1 -8h-106l-40 -286q-26 -186 -120.5 -299t-228.5 -113q-44 0 -80 16t-54 41q-99 -101 -227 -101q-67 0 -107 30.5
t-40 74.5q0 38 30 62t76 24q53 0 90 -30q-20 -22 -35.5 -55t-15.5 -60q0 -36 25 -36q28 0 53 53t37 145l71 533h-43l1 9h42q18 124 110 182t232 58q75 0 126 -36zM1208 543q-36 0 -55 20t-19 52q0 42 26.5 70.5t71.5 28.5q39 0 58.5 -20.5t19.5 -52.5q0 -43 -26.5 -70.5
t-75.5 -27.5zM1101 500q108 0 178.5 -59.5t70.5 -158.5q0 -119 -98.5 -210.5t-254.5 -91.5q-109 0 -179.5 59.5t-70.5 158.5q0 119 99.5 210.5t254.5 91.5zM1020 -12q36 0 67.5 133t31.5 241q0 130 -43 130q-36 0 -68 -132t-32 -240q0 -62 12 -97t32 -35z" />
    <glyph glyph-name="f_udieresis" unicode="f&#xfc;" horiz-adv-x="1038" 
d="M352 480q73 0 148.5 10t99.5 10q103 0 103 -90q0 -24 -3 -47l-31 -228q-5 -33 -5 -59q1 -20 14 -20q23 0 54 55t54.5 142.5t23.5 166.5q0 44 -11 64q39 16 106 16q113 0 117 -96q0 -22 -2 -35l-37 -261q-3 -21 -3 -35q1 -36 47 -36l4 -8q-82 0 -153 -12t-102 -25l-30 -12
l54 260h-6q-18 -68 -43.5 -117.5t-50 -76t-54.5 -42.5t-52 -20t-48 -4q-43 0 -73.5 25t-30.5 67q0 40 12 114q34 210 34 248q0 39 -44 39h-93l-47 -331q-27 -190 -125.5 -301t-235.5 -111q-67 0 -106.5 30.5t-39.5 74.5q0 38 30 62t76 24q53 0 90 -30q-20 -22 -35.5 -55
t-15.5 -60q0 -36 25 -36q28 0 53 53t37 145l71 533h-43l1 9h43q15 127 127 205t278 78q103 0 156 -36.5t53 -87.5q0 -41 -26 -68.5t-75 -27.5q-35 0 -54 20t-19 54q0 17 4.5 42t4.5 37q0 57 -68 57q-119 0 -149 -210zM878 543q-36 0 -55 20t-19 52q0 42 26.5 70.5t71.5 28.5
q38 0 57.5 -20.5t19.5 -52.5q0 -43 -26 -70.5t-75 -27.5z" />
    <glyph glyph-name="f_f_udieresis" unicode="ff&#xfc;" horiz-adv-x="1381" 
d="M694 473l-40 -287q-26 -186 -120.5 -299t-228.5 -113q-44 0 -80 16t-54 41q-99 -101 -227 -101q-67 0 -107 30.5t-40 74.5q0 38 30 62t76 24q53 0 90 -30q-20 -22 -35.5 -55t-15.5 -60q0 -36 25 -36q28 0 53 53t37 145l71 533h-43l1 9h42q18 124 110 182t232 58
q75 0 126 -36q112 79 281 79q103 0 156 -36.5t53 -87.5q0 -41 -26 -68.5t-75 -27.5q-35 0 -54 20t-19 54q0 17 4.5 42t4.5 37q0 57 -68 57q-119 0 -149 -210l-9 -63q73 0 148.5 10t99.5 10q103 0 103 -90q0 -24 -3 -47l-31 -228q-5 -33 -5 -59q1 -20 14 -20q23 0 54 55
t54.5 142.5t23.5 166.5q0 44 -11 64q39 16 106 16q113 0 117 -96q0 -22 -2 -35l-37 -261q-3 -21 -3 -35q1 -36 47 -36l4 -8q-82 0 -153 -12t-101 -25l-31 -12l54 260h-6q-18 -68 -43.5 -117.5t-50 -76t-54.5 -42.5t-52 -20t-48 -4q-43 0 -73.5 25t-30.5 67q0 40 12 114
q34 210 34 248q0 39 -44 39h-93zM471 472h-120l-47 -330q-16 -106 -48 -177q48 0 85 -30q-20 -22 -35.5 -55t-15.5 -60q0 -36 25 -36q28 0 53 53t37 145zM1221 543q-36 0 -55 20t-19 52q0 42 26.5 70.5t71.5 28.5q38 0 57.5 -20.5t19.5 -52.5q0 -43 -26 -70.5t-75 -27.5z
M471 480q3 25 9 45q-36 13 -54 34q19 22 33.5 54.5t14.5 60.5q0 36 -25 36q-28 0 -51.5 -41t-36.5 -129l-9 -60h119z" />
    <glyph glyph-name="f_atilde" unicode="f&#xe3;" horiz-adv-x="1037" 
d="M353 480h95l-1 -8h-96l-47 -330q-27 -190 -125.5 -301t-235.5 -111q-67 0 -106.5 30.5t-39.5 74.5q0 38 30 62t76 24q53 0 90 -30q-20 -22 -35.5 -55t-15.5 -60q0 -36 25 -36q28 0 53 53t37 145l71 533h-43l1 9h45q19 131 109.5 207.5t223.5 76.5q65 0 103 -31t38 -70
q0 -42 -30.5 -69t-78.5 -27q-24 0 -49.5 10.5t-36.5 25.5q15 18 31 57t16 66q0 28 -19 28q-46 0 -63 -122zM698 53q35 0 66.5 118t31.5 225q0 96 -36 96q-31 0 -54.5 -60t-34 -133.5t-10.5 -136.5q0 -109 37 -109zM1041 500l-62 -428q-3 -20 -3 -28q0 -23 20 -23q13 0 28 9
l4 -7q-6 -5 -17 -12t-49 -19t-81 -12t-78 22.5t-35 76.5q0 41 13 81h-8q-23 -92 -68 -136t-123 -44q-74 0 -115 53t-41 137q0 143 91.5 236.5t246.5 93.5q35 0 92.5 -13t91.5 -13q26 0 49 6.5t33 13.5zM944 657q48 0 65 55l7 -5q-10 -72 -47 -110t-92 -38q-41 0 -97.5 26
t-83.5 26q-49 0 -66 -55l-7 5q11 74 47.5 111t91.5 37q43 0 100 -26t82 -26z" />
    <glyph glyph-name="f_otilde" unicode="f&#xf5;" horiz-adv-x="1038" 
d="M353 480h95l-1 -8h-96l-47 -330q-27 -190 -125.5 -301t-235.5 -111q-67 0 -106.5 30.5t-39.5 74.5q0 38 30 62t76 24q53 0 90 -30q-20 -22 -35.5 -55t-15.5 -60q0 -36 25 -36q28 0 53 53t37 145l71 533h-43l1 9h45q19 131 109.5 207.5t223.5 76.5q65 0 103 -31t38 -70
q0 -42 -30.5 -69t-78.5 -27q-24 0 -49.5 10.5t-36.5 25.5q15 18 31 57t16 66q0 28 -19 28q-46 0 -63 -122zM799 500q108 0 178.5 -59.5t70.5 -158.5q0 -119 -98.5 -210.5t-254.5 -91.5q-109 0 -179.5 59.5t-70.5 158.5q0 119 99.5 210.5t254.5 91.5zM718 -12q36 0 67.5 133
t31.5 241q0 130 -43 130q-36 0 -68 -132t-32 -240q0 -62 12 -97t32 -35zM938 657q48 0 65 55l7 -5q-10 -72 -47 -110t-92 -38q-41 0 -97.5 26t-83.5 26q-49 0 -66 -55l-7 5q11 74 47.5 111t91.5 37q43 0 100 -26t82 -26z" />
    <glyph glyph-name="g_f" unicode="gf" horiz-adv-x="1051" 
d="M1107 480l-1 -8h-96l-42 -286q-28 -189 -126.5 -300.5t-234.5 -111.5q-78 0 -120 42q-102 -86 -271 -86q-93 0 -140 29.5t-47 82.5q0 35 27.5 58t67.5 23q44 0 76 -27q-38 -50 -38 -105q0 -51 44 -51q125 0 157 194l38 226h-8q-15 -57 -36.5 -94.5t-47 -55t-49 -24
t-54.5 -6.5q-72 0 -114 53.5t-42 136.5q0 138 101.5 234t246.5 96q40 0 99.5 -15.5t83.5 -15.5q28 0 50 7.5t31 15.5l8 8l-70 -469q-20 -127 -20 -162q0 -85 39 -85q29 0 59.5 54.5t42.5 143.5l66 489h-43l1 9h42q19 130 114.5 207t232.5 77q71 0 117 -30.5t46 -74.5
q0 -43 -33 -69.5t-83 -26.5q-56 0 -94 40q19 22 33.5 54.5t14.5 60.5q0 36 -25 36q-60 0 -84 -171l-15 -103h96zM431 416q0 76 -38 76q-49 0 -78.5 -101.5t-29.5 -228.5q0 -108 37 -108q34 0 71.5 131.5t37.5 230.5z" />
    <glyph glyph-name="g_f_i" unicode="gfi" horiz-adv-x="1383" 
d="M787 471h-43l1 9h42q18 129 117 206.5t236 77.5q91 0 139 -36t48 -84q0 -49 -38 -80t-100 -31q-34 0 -66 15.5t-45 36.5q21 19 38.5 57t17.5 72q0 40 -24 40q-60 0 -84 -171l-15 -103h104q64 0 129 5t98 10l34 5l-61 -429q-3 -19 -3 -27q0 -23 20 -23q13 0 28 9l4 -7
q-6 -5 -18 -12t-51 -19t-82 -12q-112 0 -116 96q0 21 2 34l42 303q2 14 2 20q0 39 -40 39h-93l-42 -286q-28 -189 -126.5 -300.5t-234.5 -111.5q-78 0 -120 42q-102 -86 -271 -86q-93 0 -140 29.5t-47 82.5q0 35 27.5 58t67.5 23q44 0 76 -27q-38 -50 -38 -105q0 -51 44 -51
q125 0 157 194l38 226h-8q-15 -57 -36.5 -94.5t-47 -55t-49 -24t-54.5 -6.5q-72 0 -114 53.5t-42 136.5q0 138 101.5 234t246.5 96q40 0 99.5 -15.5t83.5 -15.5q28 0 50 7.5t31 15.5l8 8l-70 -469q-20 -129 -20 -162q0 -85 39 -85q29 0 59.5 54.5t42.5 143.5zM431 416
q0 76 -38 76q-49 0 -78.5 -101.5t-29.5 -228.5q0 -108 37 -108q34 0 71.5 131.5t37.5 230.5z" />
    <glyph glyph-name="g_f_l" unicode="gfl" horiz-adv-x="1372" 
d="M787 471h-43l1 9h42q19 130 114.5 207t232.5 77q92 0 140 -50q36 7 70 16t50 14l17 6l-97 -679q-3 -19 -3 -27q0 -23 20 -23q13 0 28 9l4 -7q-6 -5 -18 -12t-51 -19t-82 -12q-112 0 -116 96q0 21 2 34l64 455q-48 10 -75 38q19 22 33.5 54.5t14.5 60.5q0 36 -25 36
q-60 0 -84 -171l-15 -103h96l-1 -8h-96l-42 -286q-28 -189 -126.5 -300.5t-234.5 -111.5q-78 0 -120 42q-102 -86 -271 -86q-93 0 -140 29.5t-47 82.5q0 35 27.5 58t67.5 23q44 0 76 -27q-38 -50 -38 -105q0 -51 44 -51q125 0 157 194l38 226h-8q-15 -57 -36.5 -94.5
t-47 -55t-49 -24t-54.5 -6.5q-72 0 -114 53.5t-42 136.5q0 138 101.5 234t246.5 96q40 0 99.5 -15.5t83.5 -15.5q28 0 50 7.5t31 15.5l8 8l-70 -469q-20 -138 -20 -162q0 -85 39 -85q29 0 59.5 54.5t42.5 143.5zM431 416q0 76 -38 76q-49 0 -78.5 -101.5t-29.5 -228.5
q0 -108 37 -108q34 0 71.5 131.5t37.5 230.5z" />
    <glyph glyph-name="y_f" unicode="yf" horiz-adv-x="1056" 
d="M438 240h-6q-18 -68 -43.5 -117.5t-50 -76t-54.5 -42.5t-52 -20t-48 -4q-43 0 -73.5 25t-30.5 67q0 40 12 114q34 211 34 249q0 24 -20 24q-14 0 -28 -9l-4 7q6 5 18 12t51 19t82 12q112 0 116 -96q0 -22 -2 -34l-32 -235q-5 -33 -5 -59q1 -20 14 -20q23 0 54 55
t54.5 142.5t23.5 166.5q0 44 -11 64q31 16 98 16q121 0 125 -96q0 -22 -2 -35l-52 -357q-17 -113 -17 -149q0 -79 36 -79q29 0 59.5 54.5t42.5 143.5l67 489h-48l1 9h47q19 130 114.5 207t232.5 77q71 0 117 -30.5t46 -74.5q0 -43 -33 -69.5t-83 -26.5q-56 0 -94 40
q19 22 33.5 54.5t14.5 60.5q0 36 -25 36q-60 0 -84 -171l-15 -103h96l-1 -8h-96l-43 -286q-28 -189 -126 -300.5t-234 -111.5q-76 0 -118 40q-102 -84 -270 -84q-93 0 -140 29.5t-47 82.5q0 35 27.5 58t67.5 23q44 0 76 -27q-38 -50 -38 -105q0 -51 44 -51q65 0 101.5 51
t55.5 143z" />
    <glyph glyph-name="y_f_i" unicode="yfi" horiz-adv-x="1390" 
d="M794 480q18 129 117 206.5t236 77.5q91 0 139 -36t48 -84q0 -49 -38 -80t-100 -31q-34 0 -66 15.5t-45 36.5q21 19 38.5 57t17.5 72q0 40 -24 40q-60 0 -84 -171l-15 -103h104q64 0 129 5t99 10l33 5l-61 -429q-3 -19 -3 -27q0 -23 20 -23q13 0 28 9l4 -7q-6 -5 -18 -12
t-51 -19t-82 -12q-112 0 -116 96q0 21 2 34l42 303q2 14 2 20q0 39 -40 39h-93l-43 -286q-28 -189 -126 -300.5t-234 -111.5q-76 0 -118 40q-102 -84 -270 -84q-93 0 -140 29.5t-47 82.5q0 35 27.5 58t67.5 23q44 0 76 -27q-38 -50 -38 -105q0 -51 44 -51q65 0 101.5 51
t55.5 143l65 306h-6q-18 -68 -43.5 -117.5t-50 -76t-54.5 -42.5t-52 -20t-48 -4q-43 0 -73.5 25t-30.5 67q0 40 12 114q34 211 34 249q0 24 -20 24q-14 0 -28 -9l-4 7q6 5 18 12t51 19t82 12q112 0 116 -96q0 -22 -2 -34l-32 -235q-5 -33 -5 -59q1 -20 14 -20q23 0 54 55
t54.5 142.5t23.5 166.5q0 44 -11 64q31 16 98 16q121 0 125 -96q0 -22 -2 -35l-52 -357q-17 -113 -17 -149q0 -79 36 -79q29 0 59.5 54.5t42.5 143.5l67 489h-48l1 9h47z" />
    <glyph glyph-name="y_f_l" unicode="yfl" horiz-adv-x="1379" 
d="M1017 472l-43 -286q-28 -189 -126 -300.5t-234 -111.5q-76 0 -118 40q-102 -84 -270 -84q-93 0 -140 29.5t-47 82.5q0 35 27.5 58t67.5 23q44 0 76 -27q-38 -50 -38 -105q0 -51 44 -51q65 0 101.5 51t55.5 143l65 306h-6q-18 -68 -43.5 -117.5t-50 -76t-54.5 -42.5
t-52 -20t-48 -4q-43 0 -73.5 25t-30.5 67q0 40 12 114q34 211 34 249q0 24 -20 24q-14 0 -28 -9l-4 7q6 5 18 12t51 19t82 12q112 0 116 -96q0 -22 -2 -34l-32 -235q-5 -33 -5 -59q1 -20 14 -20q23 0 54 55t54.5 142.5t23.5 166.5q0 44 -11 64q31 16 98 16q121 0 125 -96
q0 -22 -2 -35l-52 -357q-17 -113 -17 -149q0 -79 36 -79q29 0 59.5 54.5t42.5 143.5l67 489h-48l1 9h47q19 130 114.5 207t232.5 77q92 0 140 -50q36 7 70 16t51 14l16 6l-97 -679q-3 -19 -3 -27q0 -23 20 -23q13 0 28 9l4 -7q-6 -5 -18 -12t-51 -19t-82 -12q-112 0 -116 96
q0 21 2 34l64 455q-48 10 -75 38q19 22 33.5 54.5t14.5 60.5q0 36 -25 36q-60 0 -84 -171l-15 -103h96l-1 -8h-96z" />
    <glyph glyph-name="y_f_r" unicode="yfr" horiz-adv-x="1581" 
d="M1017 472l-43 -286q-28 -189 -126 -300.5t-234 -111.5q-76 0 -118 40q-102 -84 -270 -84q-93 0 -140 29.5t-47 82.5q0 35 27.5 58t67.5 23q44 0 76 -27q-38 -50 -38 -105q0 -51 44 -51q65 0 101.5 51t55.5 143l65 306h-6q-18 -68 -43.5 -117.5t-50 -76t-54.5 -42.5
t-52 -20t-48 -4q-43 0 -73.5 25t-30.5 67q0 40 12 114q34 211 34 249q0 24 -20 24q-14 0 -28 -9l-4 7q6 5 18 12t51 19t82 12q112 0 116 -96q0 -22 -2 -34l-32 -235q-5 -33 -5 -59q1 -20 14 -20q23 0 54 55t54.5 142.5t23.5 166.5q0 44 -11 64q31 16 98 16q121 0 125 -96
q0 -22 -2 -35l-52 -357q-17 -113 -17 -149q0 -79 36 -79q29 0 59.5 54.5t42.5 143.5l67 489h-48l1 9h47q19 130 114.5 207t232.5 77q71 0 117 -30.5t46 -74.5q0 -43 -33 -69.5t-83 -26.5q-56 0 -94 40q19 22 33.5 54.5t14.5 60.5q0 36 -25 36q-60 0 -84 -171l-15 -103h104
q64 0 129 5t99 10l33 5l-55 -260h6q31 135 83.5 197.5t112.5 62.5q42 0 68.5 -24t26.5 -59q0 -47 -32.5 -83t-88.5 -36q-43 0 -68 20q16 27 16 47q0 29 -24 29q-39 0 -74 -110.5t-35 -223.5q0 -44 11 -64q-39 -16 -106 -16q-113 0 -117 96q0 22 2 35l41 289q3 21 3 35
q-1 37 -49 37h-87z" />
    <glyph glyph-name="y_f_u" unicode="yfu" horiz-adv-x="1702" 
d="M1017 473l-43 -287q-28 -189 -126 -300.5t-234 -111.5q-76 0 -118 40q-102 -84 -270 -84q-93 0 -140 29.5t-47 82.5q0 35 27.5 58t67.5 23q44 0 76 -27q-38 -50 -38 -105q0 -51 44 -51q65 0 101.5 51t55.5 143l65 306h-6q-18 -68 -43.5 -117.5t-50 -76t-54.5 -42.5
t-52 -20t-48 -4q-43 0 -73.5 25t-30.5 67q0 40 12 114q34 211 34 249q0 24 -20 24q-14 0 -28 -9l-4 7q6 5 18 12t51 19t82 12q112 0 116 -96q0 -22 -2 -34l-32 -235q-5 -33 -5 -59q1 -20 14 -20q23 0 54 55t54.5 142.5t23.5 166.5q0 44 -11 64q31 16 98 16q121 0 125 -96
q0 -22 -2 -35l-52 -357q-17 -113 -17 -149q0 -79 36 -79q29 0 59.5 54.5t42.5 143.5l67 489h-43l1 9h42q18 129 117 206.5t236 77.5q70 0 113.5 -30.5t43.5 -74.5q0 -43 -33 -69.5t-83 -26.5q-56 0 -94 40q19 22 33.5 54.5t14.5 60.5q0 36 -25 36q-60 0 -84 -171l-15 -103
q78 0 151 10t96 10q103 0 103 -90q0 -24 -3 -47l-31 -228q-5 -33 -5 -59q1 -20 14 -20q23 0 54 55t54.5 142.5t23.5 166.5q0 44 -11 64q39 16 106 16q113 0 117 -96q0 -22 -2 -35l-37 -261q-3 -21 -3 -35q1 -36 47 -36l4 -8q-82 0 -153 -12t-101 -25l-31 -12l54 260h-6
q-18 -68 -43.5 -117.5t-50 -76t-54.5 -42.5t-52 -20t-48 -4q-43 0 -73.5 25t-30.5 67q0 40 12 114q34 210 34 248q0 39 -44 39h-92z" />
    <glyph glyph-name="T_h.caron" unicode="&#x164;h" horiz-adv-x="1300" 
d="M1017 750l-93 -510h6q72 260 252 260q43 0 73.5 -25t30.5 -67q0 -40 -12 -114q-34 -211 -34 -249q0 -24 20 -24q14 0 28 9l4 -7q-6 -5 -18 -12t-51 -19t-82 -12q-114 0 -118 96q0 22 2 34l34 235q5 33 5 59q0 20 -14 20q-25 0 -56.5 -53.5t-55.5 -140.5t-24 -170
q0 -44 11 -64q-39 -16 -106 -16q-113 0 -117 96q0 22 2 35l64 451q12 81 -23 104t-152 23l-83 -590q-7 -51 7.5 -70t54.5 -19l-1 -10q-88 3 -192 3l-192 -3l1 10q74 0 92 125l78 554q-91 0 -157 -55t-100 -155l-11 3l49 218q137 -3 324 -3q44 0 125 1t120 1q78 0 155.5 12.5
t115.5 25.5zM326 897l4 5l167 -52l179 52l2 -5l-165 -147h-62z" />
    <glyph glyph-name="T_h.commaaccent" unicode="&#x162;h" horiz-adv-x="1300" 
d="M1017 750l-93 -510h6q72 260 252 260q43 0 73.5 -25t30.5 -67q0 -40 -12 -114q-34 -211 -34 -249q0 -24 20 -24q14 0 28 9l4 -7q-6 -5 -18 -12t-51 -19t-82 -12q-114 0 -118 96q0 22 2 34l34 235q5 33 5 59q0 20 -14 20q-25 0 -56.5 -53.5t-55.5 -140.5t-24 -170
q0 -44 11 -64q-39 -16 -106 -16q-113 0 -117 96q0 22 2 35l64 451q12 81 -23 104t-152 23l-83 -590q-7 -51 7.5 -70t54.5 -19l-1 -10q-88 3 -192 3l-192 -3l1 10q74 0 92 125l78 554q-91 0 -157 -55t-100 -155l-11 3l49 218q137 -3 324 -3q44 0 125 1t120 1q78 0 155.5 12.5
t115.5 25.5zM273 -296l-3 6q20 13 32.5 33.5t12.5 39.5q0 46 -51 63q-1 8 -1 18q0 39 29 64.5t69 25.5q38 0 57.5 -21t19.5 -55q0 -61 -43.5 -101.5t-121.5 -72.5z" />
    <glyph glyph-name=".notdef" horiz-adv-x="230" 
 />
    <glyph glyph-name=".null" horiz-adv-x="0" 
 />
    <glyph glyph-name=".null" horiz-adv-x="0" 
 />
    <glyph glyph-name="nonmarkingreturn" horiz-adv-x="333" 
 />
    <glyph glyph-name="CR" unicode="&#xd;" horiz-adv-x="263" 
 />
    <glyph glyph-name="space" unicode=" " horiz-adv-x="263" 
 />
    <glyph glyph-name="exclam" unicode="!" horiz-adv-x="300" 
d="M145 -19q-46 0 -69.5 24.5t-23.5 64.5q0 52 32.5 87t90.5 35q46 0 70 -25.5t24 -65.5q0 -52 -33 -86t-91 -34zM193 239h-19q13 43 13 71q0 48 -43 125t-43 131q0 64 44.5 108.5t107.5 44.5q51 0 82.5 -33t31.5 -82q0 -42 -18 -78.5t-43.5 -64.5t-51 -57t-43.5 -68.5
t-18 -85.5v-11z" />
    <glyph glyph-name="quotedbl" unicode="&#x22;" horiz-adv-x="444" 
d="M176 370h-17q8 35 8 52q0 35 -30.5 91t-30.5 95q0 46 32 78.5t78 32.5q37 0 59.5 -24t22.5 -59q0 -30 -12.5 -56.5t-30.5 -47t-36 -41.5t-30.5 -48.5t-12.5 -59.5v-13zM392 370h-17q8 35 8 52q0 35 -30.5 91t-30.5 95q0 46 32 78.5t78 32.5q37 0 59.5 -24t22.5 -59
q0 -30 -12.5 -56.5t-30.5 -47t-36 -41.5t-30.5 -48.5t-12.5 -59.5v-13z" />
    <glyph glyph-name="numbersign" unicode="#" horiz-adv-x="589" 
d="M311 85l76 185h-163l-76 -185h-11l76 185h-144l4 10h143l71 170h-143l4 10h143l75 185h11l-75 -185h163l75 185h11l-75 -185h146l-4 -10h-146l-71 -170h146l-4 -10h-145l-76 -185h-11zM298 450l-71 -170h163l71 170h-163z" />
    <glyph glyph-name="dollar" unicode="$" horiz-adv-x="610" 
d="M229 -116l30 98q-13 1 -35 5l-32 -103h-10l32 105q-9 2 -32 7t-36.5 7.5t-41 5t-59.5 2.5l25 251h10q0 -92 38.5 -162t100.5 -96l74 242q-46 28 -69.5 44.5t-57.5 47t-49.5 65.5t-15.5 77q0 108 82.5 173.5t226.5 65.5l28 -1l30 96h10l-30 -97l35 -4l32 101h10l-32 -102
q98 -14 137 -14l-38 -207h-10q0 60 -25.5 112.5t-71.5 81.5l-65 -211q28 -15 39.5 -22t37.5 -23t38 -27t30.5 -30t27 -36.5t15.5 -41.5t7 -50q0 -118 -96.5 -190.5t-223.5 -72.5q-18 0 -26 1l-30 -98h-10zM420 102q0 57 -79 113l-69 -223q8 -1 13 -1q65 0 100 32t35 79z
M301 610q0 -57 71 -107l62 203q-14 3 -29 3q-45 0 -74.5 -26.5t-29.5 -72.5zM333 221l-32 20l-73 -241q15 -5 35 -7zM380 498q15 -10 32 -19l64 211q-14 8 -33 13z" />
    <glyph glyph-name="percent" unicode="%" horiz-adv-x="690" 
d="M295 709q-22 0 -42.5 -70.5t-20.5 -140.5q0 -46 7 -75.5t19 -29.5q22 0 43 67.5t21 142.5q0 106 -27 106zM106 521q0 78 56 138t148 60q67 0 103 -38.5t36 -99.5q0 -74 -53.5 -136t-155.5 -62q-60 0 -97 37t-37 101zM529 307q-23 0 -43 -70.5t-20 -140.5q0 -46 7 -75.5
t19 -29.5q22 0 43 67.5t21 143.5q0 105 -27 105zM339 119q0 78 56.5 138t148.5 60q67 0 103 -38.5t36 -99.5q0 -74 -53.5 -136t-155.5 -62q-60 0 -97.5 37t-37.5 101zM667 725h13l-560 -750h-13z" />
    <glyph glyph-name="ampersand" unicode="&#x26;" horiz-adv-x="791" 
d="M406 710q-31 0 -50.5 -42.5t-19.5 -105.5q0 -69 17 -107q12 3 24 3q36 0 36 -15q0 -9 -15 -9q-18 0 -41 9q-36 -9 -59 -56.5t-23 -122.5q0 -43 10.5 -81t32.5 -72t62 -54t93 -20q51 0 92 16t66 39.5t41.5 52.5t23 54t6.5 46q0 66 -48 113t-120 52q-25 -9 -47 -26.5
t-22 -38.5q0 -41 55 -41q41 0 71 19q40 -29 40 -84q0 -46 -32 -80.5t-92 -34.5q-57 0 -92 36t-35 85q0 24 8 46t18 38t31.5 32.5t35 25.5t43 23t40.5 18.5t43 16.5q113 44 113 113q0 28 -22.5 55t-58.5 43q7 34 32 55t63 21q49 0 77.5 -30.5t28.5 -72.5q0 -65 -55 -106.5
t-151 -74.5v-4q93 -64 93 -179q0 -47 -21 -94.5t-63 -91t-117.5 -71t-172.5 -27.5q-140 0 -218 59t-78 168q0 75 47.5 132t110 83t126.5 29q-148 27 -148 120q0 63 60 105t172 42q91 0 139 -37.5t48 -84.5q0 -45 -30 -70.5t-73 -25.5q-32 0 -58 13.5t-35 29.5q47 47 47 107
q0 59 -49 59z" />
    <glyph glyph-name="quotesingle" unicode="'" horiz-adv-x="230" 
d="M176 370h-17q8 35 8 52q0 35 -30.5 91t-30.5 95q0 46 32 78.5t78 32.5q37 0 59.5 -24t22.5 -59q0 -30 -12.5 -56.5t-30.5 -47t-36 -41.5t-30.5 -48.5t-12.5 -59.5v-13z" />
    <glyph glyph-name="parenleft" unicode="(" horiz-adv-x="386" 
d="M57 248q0 92 35 177t94.5 149t126.5 112t142 82l3 -4q-198 -232 -198 -596q0 -213 67 -332l-3 -4q-113 59 -190 167.5t-77 248.5z" />
    <glyph glyph-name="parenright" unicode=")" horiz-adv-x="386" 
d="M412 352q0 -92 -35 -177t-94 -149t-126 -112t-142 -82l-2 4q197 235 197 595q0 214 -67 333l4 4q112 -59 188.5 -167.5t76.5 -248.5z" />
    <glyph glyph-name="asterisk" unicode="*" horiz-adv-x="295" 
d="M141 512q-13 0 -21 8.5t-8 22.5q0 21 18 32.5t45 11.5q3 0 11.5 -0.5t12.5 -0.5q15 0 24 5q-11 5 -25 5q-4 0 -10 -0.5t-10 -0.5q-21 0 -37.5 9t-16.5 27q0 16 12 27.5t27 11.5q10 0 18 -5q17 -10 27.5 -36t18.5 -33v4q0 12 -10 34t-10 38q0 19 11.5 30.5t28.5 11.5
q14 0 22.5 -8.5t8.5 -22.5q0 -22 -20.5 -48t-24.5 -39q13 8 31 33.5t36 35.5q10 5 19 5q13 0 21.5 -9t8.5 -22q0 -22 -20.5 -33t-46.5 -11q-4 0 -10 0.5t-10 0.5q-14 0 -26 -5q10 -5 25 -5q3 0 13 0.5t13 0.5q22 0 35.5 -10t13.5 -26t-11.5 -27.5t-27.5 -11.5
q-18 0 -28.5 14t-19 33.5t-17.5 26.5q0 -14 11 -37t11 -39q0 -18 -12 -30t-29 -12q-14 0 -22 8.5t-8 22.5q0 21 20 47t23 40q-8 -5 -34.5 -39.5t-50.5 -34.5z" />
    <glyph glyph-name="plus" unicode="+" horiz-adv-x="441" 
d="M283 487h11l-30 -211h215l-1 -10h-215l-30 -212h-11l30 212h-215l1 10h215z" />
    <glyph glyph-name="comma" unicode="," horiz-adv-x="303" 
d="M49 -170l-4 7q78 55 78 118q0 32 -19.5 59.5t-54.5 42.5q-1 6 -1 16q0 55 33 87t89 32q44 0 69.5 -27t25.5 -69q0 -75 -62.5 -147.5t-153.5 -118.5z" />
    <glyph glyph-name="hyphen" unicode="-" horiz-adv-x="359" 
d="M64 293h311l-1 -11h-311z" />
    <glyph glyph-name="period" unicode="." horiz-adv-x="289" 
d="M141 -19q-46 0 -69.5 24.5t-23.5 64.5q0 52 32.5 87t90.5 35q46 0 70 -25.5t24 -65.5q0 -52 -33 -86t-91 -34z" />
    <glyph glyph-name="slash" unicode="/" horiz-adv-x="416" 
d="M28 -192l423 942h14l-423 -942h-14z" />
    <glyph glyph-name="zero" unicode="0" horiz-adv-x="743" 
d="M475 719q134 0 214.5 -83.5t80.5 -218.5q0 -114 -55.5 -214.5t-150 -161t-202.5 -60.5q-133 0 -212.5 83.5t-79.5 218.5q0 114 55 215t149 161t201 60zM380 -9q50 0 92.5 188t42.5 359t-57 171q-51 0 -93 -186.5t-42 -356.5q0 -175 57 -175z" />
    <glyph glyph-name="one" unicode="1" horiz-adv-x="422" 
d="M20 0l1 10q75 0 93 125l59 416q9 69 -3.5 92t-55.5 23l1 11q197 0 315 42l-89 -620q-7 -51 7.5 -70t54.5 -19l-1 -10q-87 3 -191 3z" />
    <glyph glyph-name="two" unicode="2" horiz-adv-x="657" 
d="M345 705q-40 0 -67.5 -26t-27.5 -66q0 -30 19.5 -47t48.5 -19q2 -6 2 -17q0 -43 -28.5 -72.5t-76.5 -29.5q-50 0 -77 30t-27 70q0 51 28.5 89.5t75 59.5t97.5 31.5t103 10.5q119 0 196.5 -50.5t77.5 -129.5q0 -57 -25 -98.5t-67.5 -66t-95 -41.5t-111.5 -32t-113 -32
t-103.5 -45.5t-78.5 -68.5l3 -4q80 80 235 80q43 0 128.5 -14t123.5 -14q59 0 74 54h10q-20 -143 -81.5 -209.5t-180.5 -66.5q-71 0 -159 33t-125 33q-39 0 -62.5 -19.5t-26.5 -45.5l-6 -1q-2 10 -2 21q0 53 22.5 100.5t58.5 85t79.5 73.5t87 73t79.5 75.5t59 88.5t23 106
q0 50 -25 75.5t-65 25.5z" />
    <glyph glyph-name="three" unicode="3" horiz-adv-x="643" 
d="M416 719q120 0 186.5 -42.5t66.5 -103.5q0 -136 -230 -179l1 -7q32 8 59 8q70 0 114.5 -41t44.5 -101q0 -48 -25 -95.5t-70.5 -87t-118 -64.5t-158.5 -25q-125 0 -186.5 48.5t-61.5 116.5q0 48 31 86t92 38q41 0 64.5 -24.5t23.5 -57.5q0 -16 -7 -35q-38 -2 -64 -24.5
t-26 -62.5q0 -29 20.5 -50t57.5 -21q69 0 131.5 71t62.5 178q0 54 -28.5 87.5t-79.5 33.5q-25 0 -51 -7l-3 9q76 27 129 94.5t53 145.5q0 45 -24 71.5t-64 26.5q-41 0 -69.5 -28t-28.5 -65q0 -59 69 -65q0 -50 -28.5 -84t-80.5 -34q-49 0 -74.5 29t-25.5 68q0 77 76.5 135
t221.5 58z" />
    <glyph glyph-name="four" unicode="4" horiz-adv-x="649" 
d="M350 337l250 121l-40 -283h87l-2 -12h-87l-9 -64q-7 -51 8 -70t55 -19l-1 -10q-87 3 -191 3l-191 -3l1 10q74 0 92 125l4 28h-272l-5 7l180 202q100 112 100 208q0 55 -25 90q47 49 119 49q54 0 86 -31t32 -75q0 -101 -150 -207l-325 -231h262z" />
    <glyph glyph-name="five" unicode="5" horiz-adv-x="645" 
d="M237 -5q23 0 46.5 8t46 24.5t36.5 48t14 72.5q0 79 -70.5 129t-176.5 50l95 373q253 -16 318 -16q67 0 92 13t28 41h10q4 -17 4 -47q0 -99 -57 -152.5t-152 -53.5q-50 0 -138 29.5t-133 33.5l-49 -189q38 41 108.5 71t140.5 30q125 0 190 -59.5t65 -145.5
q0 -39 -10.5 -75.5t-36.5 -73t-66 -64t-103 -44.5t-143 -17q-127 0 -189 46.5t-62 114.5q0 47 32.5 85t91.5 38q41 0 65 -23t24 -55q0 -20 -9 -34q-37 -2 -63.5 -25t-26.5 -62q0 -29 20.5 -50t57.5 -21z" />
    <glyph glyph-name="six" unicode="6" horiz-adv-x="672" 
d="M66 251q0 64 24.5 128t76 124t123 108t173 80.5t219.5 40.5l3 -6q-57 -16 -107 -44t-97.5 -71.5t-84 -109.5t-55.5 -148q17 7 49 27.5t63 32.5t68 12q70 0 114 -47t44 -117q0 -132 -95 -206t-238 -74q-131 0 -205.5 72t-74.5 198zM347 -9q14 0 32 40.5t31.5 112
t13.5 144.5t-33 73q-9 0 -27.5 -9.5t-24.5 -11.5q-26 -103 -26 -240q0 -109 34 -109z" />
    <glyph glyph-name="seven" unicode="7" horiz-adv-x="640" 
d="M403 168q0 -55 21 -114q-18 -33 -55 -53t-86 -20q-58 0 -91.5 34t-33.5 87q0 59 37.5 110t98 90.5t124.5 75t129.5 79.5t100.5 88l-4 4q-35 -34 -80 -53t-77.5 -23t-75.5 -4t-127.5 14t-122.5 14q-59 0 -74 -54h-10q14 138 67.5 207t170.5 69q72 0 172.5 -33t131.5 -33
q39 0 62 20t26 46h7q2 -12 2 -25q0 -48 -17.5 -89t-45 -71.5t-60.5 -59t-66.5 -58.5t-61 -63.5t-45 -81t-17.5 -103.5z" />
    <glyph glyph-name="eight" unicode="8" horiz-adv-x="667" 
d="M108 493q0 98 95.5 162t254.5 64q90 0 155.5 -36.5t65.5 -95.5q0 -38 -20.5 -64t-46 -36.5t-57.5 -24t-46 -26.5q35 -22 51 -32.5t43.5 -33t40.5 -41t23.5 -46.5t10.5 -60q0 -56 -23 -99t-61 -69.5t-92 -43.5t-109.5 -23.5t-119.5 -6.5q-126 0 -181.5 42.5t-55.5 100.5
q0 41 22 71.5t49 45t64 34t54 34.5q-117 86 -117 184zM179 124q0 -64 29.5 -98.5t74.5 -34.5q49 0 81.5 32.5t32.5 83.5q0 46 -37 88t-126 107q-6 -18 -21.5 -49t-24.5 -61t-9 -68zM541 609q0 48 -25.5 74t-64.5 26q-43 0 -67.5 -25.5t-24.5 -70.5q0 -85 141 -172
q5 19 17.5 54t18 60t5.5 54z" />
    <glyph glyph-name="nine" unicode="9" horiz-adv-x="672" 
d="M704 449q0 -64 -24.5 -128t-76 -124t-123 -108t-173 -80.5t-219.5 -40.5l-3 6q57 16 107 44t97.5 71.5t84 109.5t55.5 148q-17 -7 -49 -27.5t-63 -32.5t-68 -12q-70 0 -114 47t-44 117q0 132 95 206t238 74q131 0 205.5 -72t74.5 -198zM423 709q-14 0 -32 -40.5
t-31.5 -112t-13.5 -144.5t33 -73q9 0 27.5 9.5t24.5 11.5q26 103 26 240q0 109 -34 109z" />
    <glyph glyph-name="colon" unicode=":" horiz-adv-x="289" 
d="M141 -19q-46 0 -69.5 24.5t-23.5 64.5q0 52 32.5 87t90.5 35q46 0 70 -25.5t24 -65.5q0 -52 -33 -86t-91 -34zM185 289q-46 0 -69.5 24.5t-23.5 64.5q0 52 32.5 87t90.5 35q46 0 70 -25.5t24 -65.5q0 -51 -33.5 -85.5t-90.5 -34.5z" />
    <glyph glyph-name="semicolon" unicode=";" horiz-adv-x="289" 
d="M185 289q-46 0 -69.5 24.5t-23.5 64.5q0 52 32.5 87t90.5 35q46 0 70 -25.5t24 -65.5q0 -51 -33.5 -85.5t-90.5 -34.5zM49 -170l-4 7q78 55 78 118q0 32 -19.5 59.5t-54.5 42.5q-1 6 -1 16q0 55 33 87t89 32q44 0 69.5 -27t25.5 -69q0 -75 -62.5 -147.5t-153.5 -118.5z
" />
    <glyph glyph-name="less" unicode="&#x3c;" horiz-adv-x="441" 
d="M449 65l-412 202l1 8l470 202l-2 -12l-454 -195l399 -194z" />
    <glyph glyph-name="equal" unicode="=" horiz-adv-x="441" 
d="M52 366h441l-1 -10h-441zM26 186h441l-1 -10h-441z" />
    <glyph glyph-name="greater" unicode="&#x3e;" horiz-adv-x="441" 
d="M480 267l-470 -202l1 11l455 196l-400 195l2 10l413 -202z" />
    <glyph glyph-name="question" unicode="?" horiz-adv-x="509" 
d="M308 709q-32 0 -46 -16t-14 -39q0 -31 28 -46q0 -34 -23 -58t-60 -24q-38 0 -59 22t-21 50q0 52 46.5 86.5t133.5 34.5q114 0 187 -54t73 -126q0 -63 -30.5 -105.5t-74.5 -63t-88 -34.5t-74.5 -31t-30.5 -42q0 -12 8 -26l-5 -6q-57 43 -57 108q0 42 20.5 74t49.5 52
l58 40t49.5 51t20.5 72q0 38 -27 59.5t-64 21.5zM226 -19q-46 0 -70 24.5t-24 64.5q0 52 32.5 87t90.5 35q46 0 70.5 -25.5t24.5 -65.5q0 -52 -33 -86t-91 -34z" />
    <glyph glyph-name="at" unicode="@" horiz-adv-x="833" 
d="M562 67q-28 0 -50 14.5t-22 48.5q0 26 8 51h-5q-15 -58 -43 -86t-78 -28q-47 0 -73 33.5t-26 86.5q0 91 58 150.5t156 59.5q22 0 59 -8.5t58 -8.5q16 0 31 4t21 8l7 5l-40 -272q-1 -8 -1 -17q0 -15 12 -15q35 0 77 72.5t42 163.5q0 98 -61 169.5t-175 71.5
q-60 0 -111.5 -24.5t-86.5 -64.5t-59.5 -90.5t-35.5 -101.5t-11 -99q0 -60 14.5 -112t44 -94.5t80.5 -67t118 -24.5t131.5 29.5t91.5 58.5l5 -4q-40 -45 -114 -77t-157 -32q-173 0 -271 86.5t-98 235.5q0 52 15 104t50 104.5t86.5 92.5t132.5 65t179 25q131 0 212.5 -73.5
t81.5 -173.5q0 -103 -75 -184.5t-178 -81.5zM444 120q22 0 42.5 72t20.5 139q0 58 -22 58q-28 0 -45.5 -70t-17.5 -137q0 -62 22 -62z" />
    <glyph glyph-name="A" unicode="A" horiz-adv-x="789" 
d="M405 669l180 52l127 -642q14 -69 69 -69l-1 -10q-55 3 -193 3l-187 -3l1 10q64 0 64 61q0 16 -8 66l-23 149h-203l-64 -139q-25 -54 -25 -84t19.5 -41.5t61.5 -11.5l-1 -10q-54 3 -121 3l-93 -3l1 10q79 0 145 139zM238 298h195l-49 304z" />
    <glyph glyph-name="B" unicode="B" horiz-adv-x="750" 
d="M754 206q0 -72 -48.5 -120t-119.5 -67t-160 -19q-41 0 -114 1.5t-100 1.5l-192 -3l1 10q75 0 93 125l65 466q7 51 -7.5 70t-54.5 19l1 10q88 -3 192 -3q24 0 102 1.5t110 1.5q100 0 173.5 -37.5t73.5 -107.5q0 -81 -67.5 -126t-183.5 -52l-1 -4q109 -4 173 -51.5
t64 -115.5zM502 215q0 61 -29 108t-92 47l-38 -271q-3 -19 -3 -33q0 -56 44 -56q53 0 85.5 65t32.5 140zM425 684l-43 -304q71 0 110 54.5t39 138.5q0 54 -20.5 84.5t-59.5 30.5q-15 0 -26 -4z" />
    <glyph glyph-name="C" unicode="C" horiz-adv-x="742" 
d="M390 -19q-155 0 -239.5 79.5t-84.5 213.5q0 114 54 215t156 165.5t227 64.5q62 0 142.5 -16t147.5 -16l-28 -201h-10q-8 107 -74.5 165t-148.5 58q-66 0 -113.5 -74.5t-69.5 -189t-22 -252.5q0 -202 111 -202q74 0 161 75t140 199h10l-66 -243q-58 0 -140 -20.5
t-153 -20.5z" />
    <glyph glyph-name="D" unicode="D" horiz-adv-x="818" 
d="M416 0q-50 0 -114.5 1.5t-89.5 1.5l-192 -3l1 10q75 0 93 125l65 466q7 51 -7.5 70t-54.5 19l1 10q88 -3 192 -3q24 0 88 1.5t96 1.5q162 0 259 -78t97 -213q0 -186 -121 -297.5t-313 -111.5zM397 10q54 0 100.5 62.5t74.5 168.5t28 228q0 219 -145 219q-14 0 -30 -4
l-82 -585q-7 -50 7 -69.5t47 -19.5z" />
    <glyph glyph-name="E" unicode="E" horiz-adv-x="678" 
d="M717 700l-30 -214h-10q0 98 -53 150t-145 52q-33 0 -54 -6l-43 -305h52q55 0 96.5 36t50.5 104h10l-45 -320h-10q9 68 -21 118t-101 50h-34l-37 -266q-7 -51 7.5 -70t54.5 -19q82 0 162 72t120 192h11l-84 -274q-85 0 -219 1.5t-183 1.5l-192 -3l1 10q75 0 93 125l65 466
q7 51 -7.5 70t-54.5 19l1 10q88 -3 192 -3q48 0 190.5 1.5t216.5 1.5z" />
    <glyph glyph-name="F" unicode="F" horiz-adv-x="648" 
d="M425 682l-45 -319h52q55 0 96 36t50 104h10l-44 -320h-10q9 68 -21 118t-101 50h-34l-35 -252q-7 -51 9.5 -70t58.5 -19l-1 -10q-94 3 -198 3l-192 -3l1 10q75 0 93 125l65 466q7 51 -7.5 70t-54.5 19l1 10q88 -3 192 -3q48 0 190.5 1.5t216.5 1.5l-30 -214h-10
q0 97 -53 149.5t-145 52.5q-33 0 -54 -6z" />
    <glyph glyph-name="G" unicode="G" horiz-adv-x="837" 
d="M864 337l-2 -10q-74 0 -92 -125l-26 -180q-82 0 -173 -20.5t-181 -20.5q-155 0 -239.5 79.5t-84.5 213.5q0 114 54 215t156 165.5t227 64.5q62 0 142.5 -16t147.5 -16l-28 -201h-10q-8 107 -74.5 165t-148.5 58q-66 0 -113.5 -74.5t-69.5 -189t-22 -252.5
q0 -202 111 -202q38 0 58 20t26 64l23 163q7 51 -8 70t-55 19l2 10h380z" />
    <glyph glyph-name="H" unicode="H" horiz-adv-x="853" 
d="M931 700l-1 -10q-75 0 -93 -125l-65 -466q-7 -51 7.5 -70t54.5 -19l-1 -10q-88 3 -192 3l-192 -3l1 10q75 0 93 125l31 224h-195l-36 -260q-7 -51 7.5 -70t54.5 -19l-1 -10q-88 3 -192 3l-192 -3l1 10q75 0 93 125l65 466q7 51 -7.5 70t-54.5 19l1 10q88 -3 192 -3l192 3
l-1 -10q-75 0 -93 -125l-27 -194h195l32 230q7 51 -7.5 70t-54.5 19l1 10q88 -3 192 -3z" />
    <glyph glyph-name="I" unicode="I" 
d="M502 700l-1 -10q-75 0 -93 -125l-65 -466q-7 -51 7.5 -70t54.5 -19l-1 -10q-88 3 -192 3l-192 -3l1 10q75 0 93 125l65 466q7 51 -7.5 70t-54.5 19l1 10q88 -3 192 -3z" />
    <glyph glyph-name="J" unicode="J" 
d="M-33 -217q12 16 38.5 40t40.5 42q35 44 50 147l83 589q7 51 -8 70t-55 19l2 10q87 -3 191 -3l193 3l-2 -10q-74 0 -92 -125l-68 -488q-10 -68 -31 -109.5t-60 -71.5q-34 -27 -89 -42.5t-106.5 -31.5t-81.5 -46z" />
    <glyph glyph-name="K" unicode="K" horiz-adv-x="841" 
d="M377 344l-34 -245q-7 -51 7.5 -70t54.5 -19l-1 -10q-88 3 -192 3l-192 -3l1 10q75 0 93 125l65 466q7 51 -7.5 70t-54.5 19l1 10q88 -3 192 -3l192 3l-1 -10q-75 0 -93 -125l-30 -211h32l156 152q52 50 68.5 78t16.5 52q0 25 -19 39.5t-48 14.5l1 10q58 -3 164 -3l142 3
l-1 -10q-122 0 -259 -134l-42 -41l196 -433q14 -31 30 -45.5t41 -14.5l2 -6q-51 -35 -155 -35q-79 0 -130.5 30.5t-76.5 99.5l-72 198q-13 35 -47 35z" />
    <glyph glyph-name="L" unicode="L" horiz-adv-x="691" 
d="M502 700l-1 -10q-75 0 -93 -125l-65 -465q-2 -14 -2 -31q0 -59 64 -59q63 0 122.5 45t100 106.5t68.5 134.5h10l-84 -296q-92 0 -233.5 1.5t-176.5 1.5l-192 -3l1 10q75 0 93 125l65 466q7 51 -7.5 70t-54.5 19l1 10q88 -3 192 -3z" />
    <glyph glyph-name="M" unicode="M" horiz-adv-x="991" 
d="M1032 700l-1 -10q-41 0 -63 -19.5t-25 -69.5l-25 -502q-3 -53 10 -71t52 -18l-1 -10q-78 3 -187 3l-201 -3l1 10q81 0 89 129l26 444l-231 -583l-122 -18l-121 622l-94 -424q-19 -85 1 -127.5t73 -42.5l-1 -10q-56 3 -113 3l-89 -3l1 10q37 0 62.5 29.5t43.5 107.5
l103 454q11 49 -5 69t-57 20l1 10q133 -3 319 -3q-8 -61 1 -119l66 -372l149 378q13 33 19 61t6 40v12z" />
    <glyph glyph-name="N" unicode="N" horiz-adv-x="759" 
d="M684 218l46 327q11 75 -20 110t-91 35l1 10q104 -3 139 -3l90 3l-1 -10q-37 0 -66.5 -35.5t-40.5 -109.5l-77 -545l-156 -18l-322 633l-65 -460q-11 -78 19 -111.5t104 -33.5l-1 -10q-108 3 -143 3l-85 -3l1 10q74 0 95 145l63 446q7 51 -7.5 70t-54.5 19l1 10
q153 -3 339 -3q-1 -34 32 -97z" />
    <glyph glyph-name="O" unicode="O" horiz-adv-x="795" 
d="M407 -9q39 0 76 83.5t58.5 200.5t21.5 220q0 101 -21 157.5t-58 56.5q-39 0 -76 -83.5t-58.5 -200.5t-21.5 -220q0 -101 21 -157.5t58 -56.5zM389 -19q-155 0 -238.5 77.5t-83.5 212.5q0 115 54 217t155.5 166.5t225.5 64.5q155 0 238.5 -77.5t83.5 -212.5
q0 -115 -54 -217t-155.5 -166.5t-225.5 -64.5z" />
    <glyph glyph-name="P" unicode="P" horiz-adv-x="707" 
d="M370 293l-27 -194q-7 -51 9.5 -70t57.5 -19l-1 -10q-93 3 -197 3l-192 -3l1 10q75 0 93 125l65 466q7 51 -7.5 70t-54.5 19l1 10q88 -3 192 -3q39 0 100.5 1.5t102.5 1.5q118 0 183.5 -45t65.5 -129q0 -105 -85.5 -169t-248.5 -64h-58zM425 684l-53 -380q45 0 78.5 25
t51 65.5t25 82t7.5 83.5q0 59 -20.5 93.5t-61.5 34.5q-13 0 -27 -4z" />
    <glyph glyph-name="Q" unicode="Q" horiz-adv-x="795" 
d="M407 -9q39 0 76 83.5t58.5 200.5t21.5 220q0 101 -21 157.5t-58 56.5q-39 0 -76 -83.5t-58.5 -200.5t-21.5 -220q0 -101 21 -157.5t58 -56.5zM389 -19q-155 0 -238.5 77.5t-83.5 212.5q0 115 54 217t155.5 166.5t225.5 64.5q155 0 238.5 -77.5t83.5 -212.5
q0 -167 -106.5 -296.5t-275.5 -147.5q58 -5 138.5 -26t150 -43t171 -39.5t201.5 -17.5q88 0 185.5 17.5t164.5 50.5l5 -6q-58 -65 -110.5 -107.5t-132.5 -73.5t-173 -31q-79 0 -154 28t-134 68t-115.5 80t-121 68t-128.5 28z" />
    <glyph glyph-name="R" unicode="R" horiz-adv-x="782" 
d="M762 540q0 -82 -67.5 -137.5t-204.5 -64.5v-4q190 0 217 -157l18 -102q5 -27 17.5 -43t31.5 -16q11 0 17 2l2 -7q-21 -12 -66 -21t-90 -9q-186 0 -186 153v115q0 38 -16.5 58.5t-59.5 20.5l-32 -229q-7 -51 7.5 -70t54.5 -19l-1 -10q-88 3 -192 3l-192 -3l1 10
q75 0 93 125l65 466q7 51 -7.5 70t-54.5 19l1 10q88 -3 192 -3q34 0 106.5 1.5t107.5 1.5q110 0 174 -42t64 -118zM425 684l-48 -343q71 0 109 70t38 156q0 121 -73 121q-15 0 -26 -4z" />
    <glyph glyph-name="S" unicode="S" horiz-adv-x="610" 
d="M630 698l-38 -207h-10q0 89 -49.5 153.5t-133.5 64.5q-42 0 -70 -25t-28 -68q0 -40 32.5 -74t78.5 -60.5t92 -56.5t78.5 -76t32.5 -105q0 -119 -92.5 -191t-218.5 -72q-51 0 -120 15t-139 15l25 251h10q0 -117 61 -194t151 -77q65 0 96.5 31.5t31.5 79.5q0 39 -33 73.5
t-80 63t-93.5 60t-79.5 78t-33 103.5q0 108 82.5 173.5t226.5 65.5q32 0 100.5 -10.5t119.5 -10.5z" />
    <glyph glyph-name="T" unicode="T" horiz-adv-x="759" 
d="M139 700q138 -3 325 -3l369 3l-49 -221l-11 3q14 96 -30.5 151.5t-149.5 55.5l-83 -590q-7 -51 8.5 -70t55.5 -19l-1 -10q-90 3 -194 3l-194 -3l1 10q38 0 62.5 33t32.5 92l78 554q-92 0 -158 -55t-100 -155l-11 3z" />
    <glyph glyph-name="U" unicode="U" horiz-adv-x="755" 
d="M848 690q-37 0 -66.5 -35.5t-40.5 -109.5l-44 -316q-9 -64 -29.5 -109.5t-46 -71.5t-65 -40.5t-75.5 -18.5t-88 -4q-134 0 -202 50t-68 146q0 20 4 48l53 372q7 51 -8.5 70t-55.5 19l2 10q87 -3 191 -3l193 3l-2 -10q-74 0 -92 -125l-48 -338q-4 -29 -4 -79
q0 -67 36.5 -100t100.5 -33q161 0 191 212l45 318q11 75 -19.5 110t-90.5 35l2 10q103 -3 138 -3l91 3z" />
    <glyph glyph-name="V" unicode="V" horiz-adv-x="780" 
d="M511 125l194 420q24 54 24 87q0 58 -81 58l1 10q43 -3 118 -3l95 3l-1 -10q-78 0 -144 -145l-251 -545l-171 -18l-111 630q-8 48 -22.5 63t-48.5 15l1 10q74 -3 187 -3l202 3l-1 -10q-67 0 -67 -56q0 -14 5 -49z" />
    <glyph glyph-name="W" unicode="W" horiz-adv-x="1083" 
d="M858 206l148 339q23 52 23 86q0 59 -82 59l1 10q73 -3 123 -3l94 3l-1 -10q-39 0 -74.5 -33t-70.5 -112l-240 -544l-133 -19l-56 441l-180 -423l-120 -18l-112 648q-11 60 -70 60l1 10q109 -3 194 -3l178 3l-1 -10q-47 0 -47 -55q0 -24 1 -33l55 -388l98 234l-28 181
q-5 33 -16 47t-40 14l1 10q105 -3 174 -3l132 3q-6 -38 1 -98z" />
    <glyph glyph-name="X" unicode="X" horiz-adv-x="809" 
d="M139 690l1 10q72 -3 194 -3l208 3l-1 -10q-55 0 -55 -55q0 -30 17 -64l64 -134l79 102q39 51 39 88q0 29 -23.5 46t-68.5 17l1 10q118 -3 157 -3l133 3l-1 -10q-44 0 -96.5 -30t-101.5 -91l-113 -141l172 -344q18 -36 40 -55t62 -19l-1 -10q-157 3 -210 3l-221 -3l1 10
q70 0 70 50q0 24 -14 54l-96 205l-66 -89q-35 -47 -50.5 -77t-15.5 -62q0 -37 25 -59t77 -22l-1 -10q-137 3 -183 3l-138 -3l1 10q59 0 116.5 48.5t122.5 132.5l106 138l-152 296q-19 38 -33 51.5t-45 13.5z" />
    <glyph glyph-name="Y" unicode="Y" horiz-adv-x="752" 
d="M573 10l-1 -10q-87 3 -191 3l-193 -3l1 10q75 0 93 125l33 232l-132 270q-25 53 -70 53l1 10q82 -3 200 -3l197 3l-1 -10q-26 0 -42.5 -14.5t-16.5 -38.5q0 -23 14 -58l76 -187l87 124q22 32 32.5 48t20 37.5t9.5 38.5q0 50 -81 50l1 10q46 -3 127 -3l97 3l-1 -10
q-67 0 -160 -130l-122 -171l-40 -290q-7 -51 7.5 -70t54.5 -19z" />
    <glyph glyph-name="Z" unicode="Z" horiz-adv-x="718" 
d="M178 700h597l3 -10l-481 -680l67 4q259 16 355 268h11l-78 -282h-621l-3 10l488 680l-75 -3q-119 -5 -196 -54.5t-122 -174.5h-10z" />
    <glyph glyph-name="bracketleft" unicode="[" horiz-adv-x="360" 
d="M278 -159l-1 -9h-260l131 936h260l-1 -10h-60l-129 -917h60z" />
    <glyph glyph-name="backslash" unicode="\" horiz-adv-x="416" 
d="M176 750l159 -942h-13l-159 942h13z" />
    <glyph glyph-name="bracketright" unicode="]" horiz-adv-x="360" 
d="M37 -168l1 9h60l129 917h-60l1 10h260l-131 -936h-260z" />
    <glyph glyph-name="asciicircum" unicode="^" horiz-adv-x="364" 
d="M292 750l131 -336h-11l-125 324l-217 -324h-12l226 336h8z" />
    <glyph glyph-name="underscore" unicode="_" horiz-adv-x="564" 
d="M553 -76h-564l1 10h564z" />
    <glyph glyph-name="grave" unicode="`" horiz-adv-x="271" 
d="M130 683q0 30 19.5 48.5t55.5 18.5l109 -206l-3 -3q-69 15 -125 56t-56 86z" />
    <glyph glyph-name="a" unicode="a" horiz-adv-x="661" 
d="M322 53q35 0 66.5 118t31.5 225q0 96 -36 96q-31 0 -54.5 -60t-34 -133.5t-10.5 -136.5q0 -109 37 -109zM665 500l-62 -428q-3 -20 -3 -28q0 -23 20 -23q13 0 28 9l4 -7q-6 -5 -17 -12t-49 -19t-81 -12t-78 22.5t-35 76.5q0 41 13 81h-8q-23 -92 -68 -136t-123 -44
q-74 0 -115 53t-41 137q0 143 91.5 236.5t246.5 93.5q35 0 92.5 -13t91.5 -13q26 0 49 6.5t33 13.5z" />
    <glyph glyph-name="b" unicode="b" horiz-adv-x="661" 
d="M102 691l-3 9q68 0 139.5 12.5t109.5 25.5l38 12l-64 -424h5q26 83 74.5 128.5t112.5 45.5q74 0 115.5 -47t41.5 -129q0 -141 -101.5 -242.5t-257.5 -101.5q-128 0 -177.5 50t-49.5 131q0 37 6 79l57 400q4 28 -7 39.5t-39 11.5zM409 434q-39 0 -79 -122.5t-40 -259.5
q0 -64 25 -64q27 0 56 72t46.5 164t17.5 157q0 53 -26 53z" />
    <glyph glyph-name="c" unicode="c" horiz-adv-x="574" 
d="M412 492q-46 0 -86 -86t-40 -202q0 -75 30.5 -121.5t90.5 -46.5q74 0 144 43l3 -4q-94 -95 -244 -95q-125 0 -192.5 58t-67.5 157q0 125 104.5 215t251.5 90q93 0 146 -33t53 -85q0 -39 -29 -64t-79 -25q-58 0 -88 30q17 22 29.5 54t12.5 59q0 56 -39 56z" />
    <glyph glyph-name="d" unicode="d" horiz-adv-x="665" 
d="M322 53q35 0 66.5 118t31.5 225q0 96 -36 96q-31 0 -54.5 -60t-34 -133.5t-10.5 -136.5q0 -109 37 -109zM397 160q-23 -92 -68 -136t-123 -44q-74 0 -115 53t-41 137q0 141 100.5 235.5t257.5 94.5q20 0 35 -3l21 147q4 26 -8 36.5t-39 10.5l-3 9q68 0 139 12.5t109 25.5
l37 12l-96 -678q-3 -20 -3 -28q0 -23 20 -23q13 0 28 9l4 -7q-6 -5 -17 -12t-49 -19t-81 -12t-78 22.5t-35 76.5q0 41 13 81h-8z" />
    <glyph glyph-name="e" unicode="e" horiz-adv-x="593" 
d="M286 200q0 -78 32.5 -121t93.5 -43q66 0 134 44l4 -5q-86 -95 -246 -95q-124 0 -189 57t-65 156q0 127 104 217t258 90q97 0 150 -38.5t53 -91.5q0 -55 -55 -94.5t-163 -39.5q-61 0 -108 11q-3 -18 -3 -47zM290 255q54 5 101.5 65.5t47.5 122.5q0 49 -27 49
q-30 0 -68 -64.5t-54 -172.5z" />
    <glyph glyph-name="f" unicode="f" horiz-adv-x="392" 
d="M448 480l-1 -8h-96l-47 -330q-27 -190 -125.5 -301t-235.5 -111q-67 0 -106.5 30.5t-39.5 74.5q0 38 30 62t76 24q53 0 90 -30q-20 -22 -35.5 -55t-15.5 -60q0 -36 25 -36q28 0 53 53t37 145l71 533h-43l1 9h42q19 130 114.5 207t232.5 77q71 0 117 -30.5t46 -74.5
q0 -43 -33 -69.5t-83 -26.5q-56 0 -94 40q19 22 33.5 54.5t14.5 60.5q0 36 -25 36q-60 0 -84 -171l-15 -103h96z" />
    <glyph glyph-name="g" unicode="g" horiz-adv-x="665" 
d="M431 416q0 76 -38 76q-49 0 -78.5 -101.5t-29.5 -228.5q0 -108 37 -108q34 0 71.5 131.5t37.5 230.5zM363 -66l38 226h-8q-15 -57 -36.5 -94.5t-47 -55t-49 -24t-54.5 -6.5q-72 0 -114 53.5t-42 136.5q0 138 101.5 234t246.5 96q40 0 99.5 -15.5t83.5 -15.5q28 0 50 7.5
t31 15.5l8 8l-70 -469q-10 -65 -35.5 -116.5t-62 -86t-83.5 -57t-97 -32t-106 -9.5q-93 0 -140 29.5t-47 82.5q0 35 27.5 58t67.5 23q44 0 76 -27q-38 -50 -38 -105q0 -51 44 -51q125 0 157 194z" />
    <glyph glyph-name="h" unicode="h" horiz-adv-x="669" 
d="M99 700q68 0 139.5 12.5t109.5 25.5l38 12l-93 -510h6q72 260 252 260q43 0 73.5 -25t30.5 -67q0 -40 -12 -114q-34 -211 -34 -249q0 -24 20 -24q15 0 28 9l4 -7q-6 -5 -18 -12t-51 -19t-82 -12q-114 0 -118 96q0 22 2 34l34 235q5 33 5 59q0 20 -14 20
q-25 0 -56.5 -53.5t-55.5 -140.5t-24 -170q0 -44 11 -64q-39 -16 -106 -16q-113 0 -117 96q0 22 2 35l75 529q4 28 -7 39.5t-39 11.5z" />
    <glyph glyph-name="i" unicode="i" horiz-adv-x="368" 
d="M253 533q-50 0 -76 23t-26 60q0 49 34 80.5t95 31.5q51 0 77 -23.5t26 -62.5q0 -48 -34 -78.5t-96 -30.5zM361 500l-61 -429q-3 -19 -3 -27q0 -23 20 -23q13 0 28 9l4 -7q-6 -5 -18 -12t-51 -19t-82 -12q-112 0 -116 96q0 21 2 34l38 273q2 14 2 20q0 38 -47 38l-3 9
q68 0 139.5 12.5t109.5 25.5z" />
    <glyph glyph-name="j" unicode="j" horiz-adv-x="372" 
d="M88 441l-3 9q68 0 139.5 12.5t109.5 25.5l38 12l-58 -449q-20 -158 -129 -212q-37 -18 -132.5 -38.5t-130.5 -45.5l-5 7q7 6 54 37.5t66 58.5q16 22 26.5 50.5t14.5 51.5t10 69l46 353q2 14 2 21q0 38 -48 38zM265 533q-50 0 -76.5 23t-26.5 60q0 49 34 80.5t95 31.5
q51 0 77 -23.5t26 -62.5q0 -48 -34 -78.5t-95 -30.5z" />
    <glyph glyph-name="k" unicode="k" horiz-adv-x="667" 
d="M660 408q0 -107 -117 -176l66 -155q14 -36 48 -36q13 0 23 5l3 -5q-6 -6 -17.5 -15t-50.5 -24.5t-82 -15.5q-73 0 -115 36.5t-61 123.5l-18 84q46 35 70 87t24 85q0 22 -14 22q-25 0 -56.5 -53.5t-55.5 -140.5t-24 -170q0 -44 11 -64q-39 -16 -106 -16q-113 0 -117 96
q0 22 2 35l75 529q4 28 -7 39.5t-39 11.5l-3 9q68 0 139.5 12.5t109.5 25.5l38 12l-93 -510h6q72 260 252 260q46 0 77.5 -24t31.5 -68z" />
    <glyph glyph-name="l" unicode="l" horiz-adv-x="347" 
d="M386 750l-97 -679q-3 -19 -3 -27q0 -23 20 -23q13 0 28 9l4 -7q-6 -5 -18 -12t-51 -19t-82 -12q-112 0 -116 96q0 21 2 34l74 523q2 14 2 20q0 38 -47 38l-3 9q68 0 139.5 12.5t109.5 25.5z" />
    <glyph glyph-name="m" unicode="m" horiz-adv-x="990" 
d="M304 -4q-39 -16 -106 -16q-113 0 -117 96q0 22 2 35l37 261q3 21 3 35q-1 36 -47 36l-4 8q82 0 153 12.5t101 24.5l31 12l-54 -260h6q23 84 54 139.5t66.5 80t63.5 32.5t61 8q43 0 73.5 -25t30.5 -67q0 -25 -5 -52.5t-14.5 -63t-12.5 -52.5h6q16 66 39 114.5t46.5 76
t52 43.5t51.5 21t51 5q43 0 73.5 -25t30.5 -67q0 -40 -12 -114q-34 -211 -34 -249q0 -24 20 -24q14 0 28 9l4 -7q-6 -5 -18 -12t-51 -19t-82 -12q-112 0 -116 96q0 22 2 34l32 235q5 33 5 59q-1 20 -14 20q-22 0 -52.5 -58.5t-53 -146t-22.5 -159.5q0 -44 11 -64
q-42 -16 -109 -16q-113 0 -117 96q0 22 2 35l32 234q5 33 5 59q-1 20 -14 20q-23 0 -53.5 -55t-53 -142.5t-22.5 -166.5q0 -44 11 -64z" />
    <glyph glyph-name="n" unicode="n" horiz-adv-x="672" 
d="M304 -4q-39 -16 -106 -16q-113 0 -117 96q0 22 2 35l37 261q3 21 3 35q-1 36 -47 36l-4 8q82 0 153 12.5t101 24.5l31 12l-54 -260h6q23 84 54 139.5t66.5 80t63.5 32.5t61 8q43 0 73.5 -25t30.5 -67q0 -40 -12 -114q-34 -211 -34 -249q0 -24 20 -24q14 0 28 9l4 -7
q-6 -5 -18 -12t-51 -19t-82 -12q-112 0 -116 96q0 22 2 34l32 235q5 33 5 59q-1 20 -14 20q-23 0 -53.5 -55t-53 -142.5t-22.5 -166.5q0 -44 11 -64z" />
    <glyph glyph-name="o" unicode="o" horiz-adv-x="643" 
d="M404 500q108 0 178.5 -59.5t70.5 -158.5q0 -119 -98.5 -210.5t-254.5 -91.5q-109 0 -179.5 59.5t-70.5 158.5q0 119 99.5 210.5t254.5 91.5zM323 -12q36 0 67.5 133t31.5 241q0 130 -43 130q-36 0 -68 -132t-32 -240q0 -62 12 -97t32 -35z" />
    <glyph glyph-name="p" unicode="p" horiz-adv-x="673" 
d="M324 320h8q50 180 191 180q74 0 117 -53.5t43 -136.5q0 -141 -100.5 -235.5t-257.5 -94.5q-20 0 -35 3l-22 -153q-5 -35 6.5 -53t46.5 -18l-1 -9h-343l1 9q58 0 68 71l82 560q4 29 -7.5 41t-39.5 12l-3 8q68 0 137.5 12.5t105.5 24.5l36 12zM407 427q-36 0 -67 -114.5
t-31 -228.5q0 -96 36 -96q31 0 54.5 60t34 133.5t10.5 136.5q0 109 -37 109z" />
    <glyph glyph-name="q" unicode="q" horiz-adv-x="669" 
d="M401 160h-8q-43 -180 -187 -180q-72 0 -114 53.5t-42 136.5q0 138 101.5 234t246.5 96q40 0 99.5 -15.5t83.5 -15.5q25 0 47 7.5t32 15.5l10 8l-104 -703q-5 -38 33 -38l-1 -9h-328l1 9q31 0 52 19t26 52zM431 427q0 65 -38 65q-49 0 -78.5 -101.5t-29.5 -228.5
q0 -108 37 -108q34 0 71.5 137t37.5 236z" />
    <glyph glyph-name="r" unicode="r" horiz-adv-x="555" 
d="M410 318q16 27 16 47q0 29 -24 29q-39 0 -74 -110.5t-35 -223.5q0 -44 11 -64q-39 -16 -106 -16q-113 0 -117 96q0 22 2 35l37 261q3 21 3 35q-1 36 -47 36l-4 8q82 0 153 12.5t101 24.5l31 12l-55 -260h6q31 135 83.5 197.5t112.5 62.5q42 0 68.5 -24t26.5 -59
q0 -47 -32.5 -83t-88.5 -36q-43 0 -68 20z" />
    <glyph glyph-name="s" unicode="s" horiz-adv-x="518" 
d="M367 376q36 33 36 70q0 46 -60 46q-24 0 -43 -15.5t-19 -41.5q0 -30 24 -56t58 -46.5t68.5 -43t58.5 -55.5t24 -74q0 -85 -70.5 -132.5t-200.5 -47.5q-115 0 -165.5 34.5t-50.5 84.5q0 33 23.5 55t59.5 22q39 0 66 -25q-26 -32 -26 -71q0 -38 21.5 -64t60.5 -26
q33 0 54 18.5t21 46.5q0 29 -23.5 55t-56.5 46.5t-66.5 43t-57 55.5t-23.5 73q0 79 69.5 125.5t180.5 46.5q93 0 141.5 -28.5t48.5 -73.5q0 -29 -21 -47.5t-55 -18.5q-53 0 -77 44z" />
    <glyph glyph-name="t" unicode="t" horiz-adv-x="386" 
d="M380 60l4 -4q-65 -76 -181 -76q-129 0 -129 107q0 16 4 40l48 344h-38l2 9q76 6 153 48t117 92l8 -3l-19 -137h61l-2 -9h-61l-52 -373q-2 -12 -2 -21q0 -35 38 -35q24 0 49 18z" />
    <glyph glyph-name="u" unicode="u" horiz-adv-x="679" 
d="M441 484q39 16 106 16q113 0 117 -96q0 -22 -2 -35l-37 -261q-3 -21 -3 -35q1 -36 47 -36l4 -8q-82 0 -153 -12t-102 -25l-30 -12l54 260h-6q-18 -68 -43.5 -117.5t-50 -76t-54.5 -42.5t-52 -20t-48 -4q-43 0 -73.5 25t-30.5 67q0 40 12 114q34 211 34 249q0 24 -20 24
q-14 0 -28 -9l-4 7q6 5 18 12t51 19t82 12q112 0 116 -96q0 -22 -2 -34l-32 -235q-5 -33 -5 -59q1 -20 14 -20q23 0 54 55t54.5 142.5t23.5 166.5q0 44 -11 64z" />
    <glyph glyph-name="v" unicode="v" horiz-adv-x="618" 
d="M419 324q-25 32 -25 71q0 44 31 74.5t79 30.5q57 0 91 -38t34 -95q0 -163 -122 -275t-304 -112q-55 0 -89 24.5t-34 67.5q0 40 12 114q34 211 34 249q0 24 -20 24q-14 0 -28 -9l-4 7q6 5 18 12t51 19t82 12q112 0 116 -96q0 -22 -2 -34l-36 -263q-4 -26 -4 -42
q0 -46 33 -46q81 0 168 81.5t87 151.5q0 42 -29.5 65t-74.5 23q-36 0 -64 -16z" />
    <glyph glyph-name="w" unicode="w" horiz-adv-x="950" 
d="M751 324q-25 32 -25 71q0 44 31 74.5t79 30.5q57 0 91 -38t34 -95q0 -163 -122 -275t-304 -112q-58 0 -90.5 26.5t-32.5 73.5q0 64 26 159h-6q-18 -67 -43.5 -116.5t-50 -76t-54.5 -42.5t-52 -20t-48 -4q-43 0 -73.5 25t-30.5 67q0 40 12 114q34 211 34 249q0 24 -20 24
q-14 0 -28 -9l-4 7q6 5 18 12t51 19t82 12q112 0 116 -96q0 -22 -2 -34l-32 -235q-5 -33 -5 -59q0 -20 14 -20q29 0 63 71.5t56.5 161t22.5 146.5q0 24 -20 24q-14 0 -28 -9l-4 7q6 5 18 12t51 19t82 12q112 0 116 -96q0 -22 -2 -34l-36 -263q-4 -26 -4 -42q0 -46 33 -46
q81 0 168 81.5t87 151.5q0 42 -29.5 65t-74.5 23q-36 0 -64 -16z" />
    <glyph glyph-name="x" unicode="x" horiz-adv-x="619" 
d="M469 237q56 12 87 32.5t31 43.5q0 19 -16.5 31t-46.5 12q-26 0 -56 -10q-28 26 -28 64q0 36 26 62.5t73 26.5t74.5 -29.5t27.5 -73.5q0 -56 -37.5 -102t-129.5 -65l82 -179q13 -28 32 -28q12 0 23 7l4 -7q-6 -5 -18 -12t-51 -19t-82 -12q-119 0 -169 107l-72 155
q-54 -11 -85.5 -36t-31.5 -48q0 -35 51 -35q31 0 62 14q28 -26 28 -67q0 -36 -26 -62.5t-73 -26.5t-74.5 29.5t-27.5 73.5q0 52 41 98.5t131 68.5l-80 174q-15 34 -33 34q-12 0 -23 -8l-4 7q6 5 18 12t51 19t82 12q121 0 166 -100z" />
    <glyph glyph-name="y" unicode="y" horiz-adv-x="666" 
d="M438 240h-6q-18 -68 -43.5 -117.5t-50 -76t-54.5 -42.5t-52 -20t-48 -4q-43 0 -73.5 25t-30.5 67q0 40 12 114q34 211 34 249q0 24 -20 24q-14 0 -28 -9l-4 7q6 5 18 12t51 19t82 12q112 0 116 -96q0 -22 -2 -34l-32 -235q-5 -33 -5 -59q1 -20 14 -20q23 0 54 55
t54.5 142.5t23.5 166.5q0 44 -11 64q31 16 98 16q121 0 125 -96q0 -22 -2 -35l-48 -338q-12 -81 -48 -141t-89.5 -94t-115 -50t-131.5 -16q-93 0 -140 29.5t-47 82.5q0 35 27.5 58t67.5 23q44 0 76 -27q-38 -50 -38 -105q0 -51 44 -51q65 0 101.5 51t55.5 143z" />
    <glyph glyph-name="z" unicode="z" horiz-adv-x="567" 
d="M460 330l-3 3q-56 -43 -144 -43q-51 0 -113 20.5t-81 20.5q-14 0 -22.5 -6.5t-10.5 -12.5l-1 -7l-9 2q7 85 46 145.5t115 60.5q60 0 162.5 -45.5t139.5 -45.5q23 0 36 13.5t13 30.5q0 20 -18 28q0 14 14 14q8 0 14 -7t6 -18q0 -42 -52 -93.5t-110.5 -88t-139 -82
t-100.5 -58.5l3 -5q49 29 116 29q41 0 109 -18.5t93 -18.5q10 0 17 6t8 12l2 6l9 -2q-7 -85 -50.5 -151.5t-119.5 -66.5q-43 0 -90 15t-80.5 33.5t-69.5 33.5t-59 15q-19 0 -31.5 -12.5t-12.5 -28.5q0 -20 18 -27q0 -14 -15 -14q-19 0 -19 25q0 45 58.5 98t130 92.5
t146 82.5t95.5 65z" />
    <glyph glyph-name="braceleft" unicode="{" horiz-adv-x="427" 
d="M115 302l-1 -4q103 -2 154.5 -35.5t51.5 -110.5q0 -48 -23.5 -128t-23.5 -119q0 -34 14.5 -48.5t46.5 -14.5l-1 -10q-47 0 -80 2.5t-69.5 11t-58.5 24.5t-36.5 45t-14.5 69q0 51 27.5 133.5t27.5 111.5q0 66 -67 66l1 10q55 0 73.5 31t18.5 87q0 15 -1 54t-1 56
q0 63 17.5 108t43.5 69t70.5 37.5t83 17t96.5 3.5l-1 -10q-38 0 -57.5 -19t-26.5 -65q-4 -33 -5.5 -97t-6.5 -99q-14 -95 -76 -134.5t-176 -41.5z" />
    <glyph glyph-name="bar" unicode="|" horiz-adv-x="160" 
d="M38 -268l155 1102h10l-155 -1102h-10z" />
    <glyph glyph-name="braceright" unicode="}" horiz-adv-x="427" 
d="M397 298l1 4q-102 2 -153.5 35t-51.5 111q0 48 24 128t24 119q0 34 -15.5 48.5t-47.5 14.5l1 10q39 0 67.5 -1.5t60.5 -6.5t54 -15.5t40.5 -27t28 -42t9.5 -59.5q0 -50 -28 -133t-28 -113q0 -65 67 -65l-1 -10q-51 0 -71.5 -31t-20.5 -87q0 -15 1 -54t1 -56
q0 -63 -17.5 -108t-43.5 -69t-70.5 -37.5t-83 -17t-96.5 -3.5l1 10q38 0 57.5 19t26.5 65q4 33 6 97t7 99q14 95 75.5 134.5t175.5 41.5z" />
    <glyph glyph-name="asciitilde" unicode="~" horiz-adv-x="455" 
d="M374 276q63 0 96 75l9 -3q-34 -82 -106 -82q-35 0 -69.5 22t-68 43.5t-65.5 21.5q-61 0 -95 -75l-9 3q33 82 106 82q41 0 102 -43.5t100 -43.5z" />
    <glyph glyph-name="exclamdown" unicode="&#xa1;" horiz-adv-x="300" 
d="M226 511q46 0 69.5 -24.5t23.5 -64.5q0 -52 -32.5 -87t-90.5 -35q-46 0 -70 25.5t-24 65.5q0 52 33 86t91 34zM178 253h19q-13 -43 -13 -71q0 -48 43 -125t43 -131q0 -64 -44.5 -108.5t-107.5 -44.5q-51 0 -82.5 33t-31.5 82q0 42 18 78.5t43.5 64.5t51 57t43.5 68.5
t18 85.5v11z" />
    <glyph glyph-name="cent" unicode="&#xa2;" horiz-adv-x="574" 
d="M234 -116l30 99q-104 10 -159 66t-55 146q0 125 104.5 215t251.5 90l16 -1l30 97h10l-30 -97q82 -5 127.5 -37t45.5 -80q0 -39 -29 -64t-79 -25q-58 0 -88 30q17 22 29.5 54t12.5 59q0 41 -22 52l-120 -393q31 -59 98 -59q74 0 144 43l3 -4q-94 -95 -244 -95q-14 0 -36 2
l-30 -98h-10zM412 492q-46 0 -86 -86t-40 -202q0 -57 16 -96l118 383q-2 1 -8 1z" />
    <glyph glyph-name="sterling" unicode="&#xa3;" horiz-adv-x="643" 
d="M465 710q-38 0 -66 -25t-46 -77t-28.5 -106t-20.5 -137h164l-1 -10h-165q-13 -85 -41 -143t-100 -116l5 -6q97 86 194 86q34 0 92.5 -16t86.5 -16q41 0 68.5 22.5t37.5 62.5h8q-17 -121 -83.5 -184.5t-167.5 -63.5q-40 0 -76.5 11.5t-59 25t-49 25t-48.5 11.5
q-48 0 -121 -64l-9 10q57 46 85.5 90t28.5 109q0 67 -25 156h-55l1 10h51q-10 34 -10 82q0 116 101.5 193.5t238.5 77.5q105 0 162.5 -37.5t57.5 -90.5q0 -45 -32 -73.5t-84 -28.5q-28 0 -55.5 12.5t-42.5 30.5q24 26 39.5 60t15.5 63q0 56 -51 56z" />
    <glyph glyph-name="currency" unicode="&#xa4;" horiz-adv-x="567" 
d="M292 67q-93 0 -150 66l-77 -68l-7 9l77 67q-45 51 -45 131q0 53 18.5 97.5t66.5 91.5l-53 67l8 7l53 -67q76 64 174 64q92 0 151 -65l77 70l7 -9l-77 -70q45 -56 45 -130q0 -110 -86 -189l54 -67l-8 -7l-54 67q-77 -65 -174 -65zM355 521q-101 0 -177.5 -73t-76.5 -174
q0 -81 55 -138.5t138 -57.5q101 0 178 75t77 172q0 83 -56 139.5t-138 56.5z" />
    <glyph glyph-name="yen" unicode="&#xa5;" horiz-adv-x="752" 
d="M197 335h113l5 32l-132 270q-25 53 -70 53l1 10q82 -3 200 -3l197 3l-1 -10q-26 0 -42.5 -14.5t-16.5 -38.5q0 -23 14 -58l77 -188l87 125q61 87 61 124q0 50 -81 50l1 10q46 -3 127 -3l97 3l-1 -10q-67 0 -160 -130l-122 -171l-7 -54h113l-1 -11h-113l-13 -89h113
l-1 -11h-114l-17 -125q-7 -51 7.5 -70t54.5 -19l-1 -10q-87 3 -191 3l-193 -3l1 10q75 0 93 125l13 89h-113l1 11h113l13 89h-113z" />
    <glyph glyph-name="section" unicode="&#xa7;" horiz-adv-x="565" 
d="M411 20q0 -89 -82 -153q45 26 77 78.5t32 117.5q0 50 -21.5 101t-52 93.5t-61.5 84t-52.5 88.5t-21.5 91q0 88 82 152q-45 -26 -77 -77.5t-32 -112.5q0 -46 21.5 -95t52 -92t61.5 -86.5t52.5 -93t21.5 -96.5zM341 -38q0 40 -26.5 83t-64 83.5t-75 83.5t-64 99.5
t-26.5 115.5q0 86 52.5 154t134.5 103t175 35q64 0 98 -23t34 -55q0 -30 -22 -51.5t-64 -21.5q-46 0 -70 19q28 46 28 80q0 17 -10.5 29t-31.5 12q-40 0 -74.5 -33t-34.5 -97q0 -41 26.5 -86.5t64 -88t74.5 -87.5t63.5 -99.5t26.5 -108.5q0 -125 -109.5 -206t-253.5 -81
q-63 0 -97 25t-34 58q0 28 24.5 48t62.5 20q45 0 69 -19q-29 -43 -29 -83q0 -38 40 -38q41 0 77 33t36 97z" />
    <glyph glyph-name="dieresis" unicode="&#xa8;" horiz-adv-x="583" 
d="M255 543q-37 0 -56 20t-19 52q0 42 26.5 70.5t72.5 28.5q37 0 56.5 -20.5t19.5 -52.5q0 -42 -26.5 -70t-73.5 -28zM478 543q-36 0 -55 20t-19 52q0 42 26.5 70.5t71.5 28.5q38 0 57.5 -20.5t19.5 -52.5q0 -43 -26 -70.5t-75 -27.5z" />
    <glyph glyph-name="copyright" unicode="&#xa9;" horiz-adv-x="833" 
d="M121 306q0 -133 83 -221.5t212 -88.5q156 0 274.5 117.5t118.5 280.5q0 132 -82.5 221t-210.5 89q-104 0 -195 -53t-145.5 -145t-54.5 -200zM103 305q0 168 123.5 291t291.5 123q137 0 223.5 -93t86.5 -231q0 -167 -124 -290.5t-290 -123.5q-137 0 -224 93.5t-87 230.5z
M431 126q-93 0 -144 48.5t-51 129.5q0 111 76 190.5t190 79.5q36 0 84 -9.5t88 -9.5l-17 -122h-8q-4 65 -41.5 98.5t-87.5 33.5q-60 0 -92.5 -91t-32.5 -218q0 -119 66 -119q47 0 96.5 39t78.5 112h9l-36 -135q-35 0 -85 -13.5t-93 -13.5z" />
    <glyph glyph-name="ordfeminine" unicode="&#xaa;" horiz-adv-x="472" 
d="M67 313h425l-1 -10h-425zM467 396q9 0 19 6l3 -8q-33 -29 -99 -29q-29 0 -51.5 15.5t-22.5 51.5q0 29 9 56h-5q-35 -123 -125 -123q-41 0 -68.5 29t-27.5 86q0 108 61 173.5t147 65.5q27 0 63.5 -10.5t57.5 -10.5q19 0 36 5t25 11l8 5l-39 -274q-4 -24 -4 -34
q0 -15 13 -15zM273 425q23 0 47 87.5t24 146.5q0 52 -18 52q-24 0 -46 -84.5t-22 -162.5q0 -39 15 -39z" />
    <glyph glyph-name="guillemotleft" unicode="&#xab;" horiz-adv-x="440" 
d="M67 277l277 230l5 -6l-141 -234l76 -234l-7 -6l-213 230zM248 277l223 186l5 -6l-104 -190l50 -193l-7 -6l-170 189z" />
    <glyph glyph-name="logicalnot" unicode="&#xac;" horiz-adv-x="441" 
d="M50 357h441l-31 -222h-11l30 212h-430z" />
    <glyph glyph-name="registered" unicode="&#xae;" horiz-adv-x="284" 
d="M108 587q0 56 39 94t96 38q46 0 73.5 -29t27.5 -73q0 -56 -39 -94t-95 -38q-46 0 -74 29t-28 73zM292 642q0 -39 -54 -40v-2q36 0 41 -29l3 -18q2 -12 12 -12l1 -3q-10 -6 -31 -6q-32 0 -32 31v20q0 15 -15 15l-6 -41q-3 -17 13 -17l-1 -5q-16 1 -36 1l-38 -1l1 5
q13 0 17 24l12 84q3 17 -11 17v5q17 -1 37 -1q7 0 19 0.5t19 0.5q49 0 49 -28zM227 665l-9 -62q28 0 28 41q0 22 -14 22q-3 0 -5 -1zM336 617q0 41 -25.5 68t-68.5 27q-53 0 -89.5 -36t-36.5 -89q0 -41 26 -68t69 -27q53 0 89 36t36 89z" />
    <glyph glyph-name="macron" unicode="&#xaf;" horiz-adv-x="375" 
d="M118 615h311l-1 -10h-311z" />
    <glyph glyph-name="degree" unicode="&#xb0;" horiz-adv-x="314" 
d="M114 585q0 55 43.5 94.5t101.5 39.5q48 0 79.5 -31t31.5 -76q0 -55 -43.5 -94t-101.5 -39q-48 0 -79.5 30.5t-31.5 75.5zM126 586q0 -40 29 -68t72 -28q53 0 92 35.5t39 85.5q0 42 -28.5 69.5t-72.5 27.5q-52 0 -91.5 -36t-39.5 -86z" />
    <glyph glyph-name="plusminus" unicode="&#xb1;" horiz-adv-x="441" 
d="M283 487h11l-30 -211h215l-1 -10h-215l-30 -208h-11l30 208h-215l1 10h215zM5 42h441l-1 -10h-441z" />
    <glyph glyph-name="twosuperior" unicode="&#xb2;" horiz-adv-x="372" 
d="M254 800q-23 0 -38 -14.5t-15 -34.5q0 -32 38 -36q5 -30 -13.5 -47t-46.5 -17q-25 0 -39.5 15.5t-14.5 37.5q0 44 43 74.5t125 30.5q66 0 108.5 -26t42.5 -70q0 -45 -25 -72.5t-65 -40.5t-82.5 -22t-86 -28t-67.5 -49l4 -3q43 43 124 43q24 0 70.5 -7.5t67.5 -7.5
q32 0 40 29h8q-5 -71 -40 -111t-99 -40q-37 0 -90 18t-72 18q-41 0 -47 -36h-6q0 41 16.5 74t41.5 53.5t54.5 43t54.5 42.5t41.5 52.5t16.5 73.5q0 29 -13.5 43t-35.5 14z" />
    <glyph glyph-name="threesuperior" unicode="&#xb3;" horiz-adv-x="363" 
d="M220 404q-69 0 -102.5 26t-33.5 62q0 27 18 49t53 22q23 0 34.5 -13t11.5 -31q0 -5 -4 -21q-21 -1 -35 -13.5t-14 -33.5q0 -17 10.5 -27.5t30.5 -10.5q41 0 74.5 39t33.5 97q0 29 -16 47.5t-44 18.5q-15 0 -29 -4l-1 7q43 15 71.5 50.5t28.5 79.5q0 24 -13.5 38t-35.5 14
q-24 0 -39.5 -14.5t-15.5 -34.5q0 -32 38 -36q1 -4 1 -9q0 -22 -15 -38.5t-44 -16.5q-28 0 -41.5 16t-13.5 38q0 43 41.5 73.5t122.5 30.5q67 0 104.5 -21t37.5 -56q0 -77 -130 -100l1 -5q15 4 35 4q39 0 62.5 -22.5t23.5 -55.5q0 -60 -55.5 -104.5t-150.5 -44.5z" />
    <glyph glyph-name="acute" unicode="&#xb4;" horiz-adv-x="271" 
d="M334 697q0 -52 -64 -94.5t-157 -61.5l-2 3l160 206q28 0 45.5 -15.5t17.5 -37.5z" />
    <glyph glyph-name="paragraph" unicode="&#xb6;" horiz-adv-x="549" 
d="M477 688h-56l-84 -599q-27 -194 -114 -254q64 22 110 90.5t62 184.5zM626 690q-75 0 -93 -125l-57 -404q-49 -346 -316 -346q-68 0 -111.5 22.5t-43.5 64.5q0 36 27 54.5t62 18.5t52 -15q-26 -38 -26 -79q0 -24 10.5 -39.5t30.5 -15.5q65 0 106.5 72.5t55.5 172.5l30 213
h-42q-96 0 -158.5 43t-62.5 129q0 244 280 244q16 0 67.5 -1.5t83.5 -1.5l106 3z" />
    <glyph glyph-name="periodcentered" unicode="&#xb7;" horiz-adv-x="289" 
d="M172 201q-46 0 -69.5 24.5t-23.5 64.5q0 52 32.5 87t90.5 35q46 0 70 -25.5t24 -65.5q0 -52 -33 -86t-91 -34z" />
    <glyph glyph-name="cedilla" unicode="&#xb8;" horiz-adv-x="333" 
d="M199 0h11q-1 0 -12 -7.5t-23 -20.5t-12 -25q0 -13 15 -24t32.5 -19t32.5 -24t15 -37q0 -39 -45 -66t-101 -27q-37 0 -63 14t-26 37q0 20 15.5 32t39.5 12q25 0 38 -10q-18 -22 -18 -47q0 -30 26 -30q17 0 28.5 13.5t11.5 33.5q0 21 -29.5 48t-29.5 54q0 28 23.5 51
t47.5 32z" />
    <glyph glyph-name="onesuperior" unicode="&#xb9;" horiz-adv-x="242" 
d="M75 414l1 8q42 0 51 68l32 225q5 38 -2.5 50.5t-30.5 12.5l1 8q105 0 173 23l-48 -339q-4 -28 4 -38t30 -10l-1 -8q-48 2 -105 2z" />
    <glyph glyph-name="ordmasculine" unicode="&#xba;" horiz-adv-x="472" 
d="M348 719q73 0 121 -41t48 -108q0 -81 -67 -143t-172 -62q-74 0 -122.5 41t-48.5 108q0 81 67.5 143t173.5 62zM67 313h425l-1 -10h-425zM293 373q23 0 45.5 88.5t22.5 160.5q0 89 -30 89q-25 0 -46 -87t-21 -161q0 -90 29 -90z" />
    <glyph glyph-name="guillemotright" unicode="&#xbb;" horiz-adv-x="441" 
d="M239 507l213 -230l-3 -20l-277 -230l-5 6l140 234l-75 234zM99 463l172 -186l-3 -20l-224 -189l-5 6l104 193l-51 190z" />
    <glyph glyph-name="onequarter" unicode="&#xbc;" horiz-adv-x="655" 
d="M553 710h14l-373 -720h-15zM62 324l1 8q42 0 51 68l32 225q5 38 -2.5 50.5t-30.5 12.5l1 8q105 0 173 23l-48 -339q-4 -28 4 -38t30 -10l-1 -8q-48 2 -105 2zM488 185l137 67l-21 -155h47l-2 -8h-47l-4 -33q-4 -28 4 -38t30 -10l-1 -8q-48 2 -105 2l-105 -2l1 8
q40 0 51 68l2 13h-151l-2 4l100 112q54 60 54 114q0 30 -14 50q26 26 63 26q31 0 48.5 -17.5t17.5 -41.5q0 -30 -19 -56t-67 -60l-170 -123h141z" />
    <glyph glyph-name="onehalf" unicode="&#xbd;" horiz-adv-x="736" 
d="M557 710h14l-373 -720h-15zM62 324l1 8q42 0 51 68l32 225q5 38 -2.5 50.5t-30.5 12.5l1 8q105 0 173 23l-48 -339q-4 -28 4 -38t30 -10l-1 -8q-48 2 -105 2zM558 377q-23 0 -38 -14.5t-15 -34.5q0 -32 38 -36q5 -30 -13.5 -47t-46.5 -17q-25 0 -39.5 15.5t-14.5 37.5
q0 44 43 74.5t125 30.5q66 0 108.5 -26t42.5 -70q0 -45 -25 -72.5t-65 -40.5t-82.5 -22t-86 -28t-67.5 -49l4 -3q43 43 124 43q24 0 70.5 -7.5t67.5 -7.5q32 0 40 29h8q-5 -71 -40 -111t-99 -40q-37 0 -90 18t-72 18q-41 0 -47 -36h-6q0 41 16.5 74t41.5 53.5t54.5 43
t54.5 42.5t41.5 52.5t16.5 73.5q0 29 -13.5 43t-35.5 14z" />
    <glyph glyph-name="threequarters" unicode="&#xbe;" horiz-adv-x="720" 
d="M622 710h14l-373 -720h-15zM552 185l137 67l-21 -155h47l-2 -8h-47l-4 -33q-4 -28 4 -38t30 -10l-1 -8q-48 2 -105 2l-105 -2l1 8q40 0 51 68l2 13h-151l-2 4l100 112q54 60 54 114q0 30 -14 50q26 26 63 26q31 0 48.5 -17.5t17.5 -41.5q0 -30 -19 -56t-67 -60l-170 -123
h141zM207 314q-69 0 -102.5 26t-33.5 62q0 27 18 49t53 22q22 0 34 -13t12 -31q0 -5 -4 -21q-21 -1 -35 -13.5t-14 -33.5q0 -17 10.5 -27.5t30.5 -10.5q41 0 74.5 39t33.5 97q0 29 -16 47.5t-44 18.5q-15 0 -29 -4l-1 7q43 15 71.5 50.5t28.5 79.5q0 24 -13.5 38t-35.5 14
q-24 0 -39.5 -14.5t-15.5 -34.5q0 -32 38 -36q1 -4 1 -9q0 -22 -15 -38.5t-44 -16.5q-28 0 -41.5 16t-13.5 38q0 43 41.5 73.5t122.5 30.5q67 0 104.5 -21t37.5 -56q0 -77 -130 -100l1 -5q15 4 35 4q39 0 62.5 -22.5t23.5 -55.5q0 -60 -55.5 -104.5t-150.5 -44.5z" />
    <glyph glyph-name="questiondown" unicode="&#xbf;" horiz-adv-x="509" 
d="M270 -217q32 0 46 16t14 39q0 31 -28 46q0 34 23 58t60 24q38 0 59 -22t21 -50q0 -52 -46.5 -86.5t-133.5 -34.5q-114 0 -187 54t-73 126q0 63 30.5 105.5t74.5 63t88 34.5t74.5 31t30.5 42q0 12 -8 26l5 6q57 -43 57 -108q0 -42 -20.5 -74t-49.5 -52l-58 -40t-49.5 -51
t-20.5 -72q0 -38 27 -59.5t64 -21.5zM352 511q46 0 70 -24.5t24 -64.5q0 -52 -32.5 -87t-90.5 -35q-46 0 -70.5 25.5t-24.5 65.5q0 52 33 86t91 34z" />
    <glyph glyph-name="Agrave" unicode="&#xc0;" horiz-adv-x="789" 
d="M405 669l180 52l127 -642q14 -69 69 -69l-1 -10q-55 3 -193 3l-187 -3l1 10q64 0 64 61q0 16 -8 66l-23 149h-203l-64 -139q-25 -54 -25 -84t19.5 -41.5t61.5 -11.5l-1 -10q-54 3 -121 3l-93 -3l1 10q79 0 145 139zM238 298h195l-49 304zM385 892q0 30 19.5 48.5
t55.5 18.5l109 -206l-3 -3q-69 15 -125 56t-56 86z" />
    <glyph glyph-name="Aacute" unicode="&#xc1;" horiz-adv-x="789" 
d="M405 669l180 52l127 -642q14 -69 69 -69l-1 -10q-55 3 -193 3l-187 -3l1 10q64 0 64 61q0 16 -8 66l-23 149h-203l-64 -139q-25 -54 -25 -84t19.5 -41.5t61.5 -11.5l-1 -10q-54 3 -121 3l-93 -3l1 10q79 0 145 139zM238 298h195l-49 304zM643 906q0 -52 -64 -94.5
t-157 -61.5l-2 3l160 206q28 0 45.5 -15.5t17.5 -37.5z" />
    <glyph glyph-name="Acircumflex" unicode="&#xc2;" horiz-adv-x="789" 
d="M405 669l180 52l127 -642q14 -69 69 -69l-1 -10q-55 3 -193 3l-187 -3l1 10q64 0 64 61q0 16 -8 66l-23 149h-203l-64 -139q-25 -54 -25 -84t19.5 -41.5t61.5 -11.5l-1 -10q-54 3 -121 3l-93 -3l1 10q79 0 145 139zM238 298h195l-49 304zM686 745l-4 -5l-167 52l-178 -52
l-3 5l165 147h62z" />
    <glyph glyph-name="Atilde" unicode="&#xc3;" horiz-adv-x="789" 
d="M405 669l180 52l127 -642q14 -69 69 -69l-1 -10q-55 3 -193 3l-187 -3l1 10q64 0 64 61q0 16 -8 66l-23 149h-203l-64 -139q-25 -54 -25 -84t19.5 -41.5t61.5 -11.5l-1 -10q-54 3 -121 3l-93 -3l1 10q79 0 145 139zM238 298h195l-49 304zM646 848q48 0 65 55l7 -5
q-10 -72 -47 -110t-92 -38q-41 0 -97.5 26t-83.5 26q-49 0 -66 -55l-7 5q11 74 47.5 111t91.5 37q43 0 100 -26t82 -26z" />
    <glyph glyph-name="Adieresis" unicode="&#xc4;" horiz-adv-x="789" 
d="M405 669l180 52l127 -642q14 -69 69 -69l-1 -10q-55 3 -193 3l-187 -3l1 10q64 0 64 61q0 16 -8 66l-23 149h-203l-64 -139q-25 -54 -25 -84t19.5 -41.5t61.5 -11.5l-1 -10q-54 3 -121 3l-93 -3l1 10q79 0 145 139zM238 298h195l-49 304zM400 750q-37 0 -56 20t-19 52
q0 42 26.5 70.5t72.5 28.5q37 0 56.5 -20.5t19.5 -52.5q0 -42 -26.5 -70t-73.5 -28zM623 750q-36 0 -55 20t-19 52q0 42 26.5 70.5t71.5 28.5q38 0 57.5 -20.5t19.5 -52.5q0 -43 -26 -70.5t-75 -27.5z" />
    <glyph glyph-name="Aring" unicode="&#xc5;" horiz-adv-x="789" 
d="M405 669l180 52l127 -642q14 -69 69 -69l-1 -10q-55 3 -193 3l-187 -3l1 10q64 0 64 61q0 16 -8 66l-23 149h-203l-64 -139q-25 -54 -25 -84t19.5 -41.5t61.5 -11.5l-1 -10q-54 3 -121 3l-93 -3l1 10q79 0 145 139zM238 298h195l-49 304zM502 759q27 0 40 33t13 72
q0 68 -36 68q-27 0 -40 -33t-13 -72q0 -68 36 -68zM531 941q39 0 64.5 -21t25.5 -59q0 -47 -35.5 -79t-95.5 -32q-39 0 -64.5 21t-25.5 59q0 47 35.5 79t95.5 32z" />
    <glyph glyph-name="AE" unicode="&#xc6;" horiz-adv-x="1061" 
d="M1100 700l-30 -214h-10q2 96 -51.5 149t-146.5 53q-33 0 -54 -6l-43 -305h52q55 0 96.5 36t50.5 104h10l-45 -320h-10q9 68 -21 118t-101 50h-34l-37 -266q-7 -51 7.5 -70t54.5 -19q82 0 163 72t119 192h11l-84 -274q-81 0 -219 1.5t-194 1.5l-198 -3l1 10q92 0 110 125
l21 151h-205l-93 -120q-30 -38 -41.5 -59.5t-11.5 -43.5q0 -53 74 -53l-1 -10q-80 3 -146 3l-92 -3l1 10q78 0 188 139l373 473q2 38 -13.5 53t-50.5 15l1 10q88 -3 192 -3q48 0 190.5 1.5t216.5 1.5zM322 298h198l42 303z" />
    <glyph glyph-name="Ccedilla" unicode="&#xc7;" horiz-adv-x="742" 
d="M438 -9q51 1 98 25.5t84.5 67.5t64.5 85.5t54 95.5h10l-66 -243q-38 0 -69 -5t-67.5 -15t-59.5 -14q-9 -2 -26 -4t-28.5 -3.5t-24 -5t-18.5 -10.5t-6 -18q0 -13 15 -24t32.5 -19t32.5 -24t15 -37q0 -39 -45 -66t-101 -27q-37 0 -63 14t-26 37q0 20 15.5 32t39.5 12
q25 0 38 -10q-18 -22 -18 -47q0 -30 26 -30q17 0 28.5 13.5t11.5 33.5q0 21 -29.5 48t-29.5 54q0 54 75 74q-162 0 -248.5 77.5t-86.5 215.5q0 161 106.5 290t272.5 151q38 4 58 4q62 0 142.5 -16t147.5 -16l-28 -201h-10q-8 107 -74.5 165t-148.5 58q-66 0 -113.5 -74.5
t-69.5 -189t-22 -252.5q0 -202 111 -202z" />
    <glyph glyph-name="Egrave" unicode="&#xc8;" horiz-adv-x="678" 
d="M717 700l-30 -214h-10q0 98 -53 150t-145 52q-33 0 -54 -6l-43 -305h52q55 0 96.5 36t50.5 104h10l-45 -320h-10q9 68 -21 118t-101 50h-34l-37 -266q-7 -51 7.5 -70t54.5 -19q82 0 162 72t120 192h11l-84 -274q-85 0 -219 1.5t-183 1.5l-192 -3l1 10q75 0 93 125l65 466
q7 51 -7.5 70t-54.5 19l1 10q88 -3 192 -3q48 0 190.5 1.5t216.5 1.5zM362 892q0 30 19.5 48.5t55.5 18.5l109 -206l-3 -3q-69 15 -125 56t-56 86z" />
    <glyph glyph-name="Eacute" unicode="&#xc9;" horiz-adv-x="678" 
d="M717 700l-30 -214h-10q0 98 -53 150t-145 52q-33 0 -54 -6l-43 -305h52q55 0 96.5 36t50.5 104h10l-45 -320h-10q9 68 -21 118t-101 50h-34l-37 -266q-7 -51 7.5 -70t54.5 -19q82 0 162 72t120 192h11l-84 -274q-85 0 -219 1.5t-183 1.5l-192 -3l1 10q75 0 93 125l65 466
q7 51 -7.5 70t-54.5 19l1 10q88 -3 192 -3q48 0 190.5 1.5t216.5 1.5zM618 906q0 -52 -64 -94.5t-157 -61.5l-2 3l160 206q28 0 45.5 -15.5t17.5 -37.5z" />
    <glyph glyph-name="Ecircumflex" unicode="&#xca;" horiz-adv-x="678" 
d="M717 700l-30 -214h-10q0 98 -53 150t-145 52q-33 0 -54 -6l-43 -305h52q55 0 96.5 36t50.5 104h10l-45 -320h-10q9 68 -21 118t-101 50h-34l-37 -266q-7 -51 7.5 -70t54.5 -19q82 0 162 72t120 192h11l-84 -274q-85 0 -219 1.5t-183 1.5l-192 -3l1 10q75 0 93 125l65 466
q7 51 -7.5 70t-54.5 19l1 10q88 -3 192 -3q48 0 190.5 1.5t216.5 1.5zM624 745l-4 -5l-167 52l-178 -52l-3 5l165 147h62z" />
    <glyph glyph-name="Edieresis" unicode="&#xcb;" horiz-adv-x="678" 
d="M717 700l-30 -214h-10q0 98 -53 150t-145 52q-33 0 -54 -6l-43 -305h52q55 0 96.5 36t50.5 104h10l-45 -320h-10q9 68 -21 118t-101 50h-34l-37 -266q-7 -51 7.5 -70t54.5 -19q82 0 162 72t120 192h11l-84 -274q-85 0 -219 1.5t-183 1.5l-192 -3l1 10q75 0 93 125l65 466
q7 51 -7.5 70t-54.5 19l1 10q88 -3 192 -3q48 0 190.5 1.5t216.5 1.5zM340 750q-37 0 -56 20t-19 52q0 42 26.5 70.5t72.5 28.5q37 0 56.5 -20.5t19.5 -52.5q0 -42 -26.5 -70t-73.5 -28zM563 750q-36 0 -55 20t-19 52q0 42 26.5 70.5t71.5 28.5q38 0 57.5 -20.5t19.5 -52.5
q0 -43 -26 -70.5t-75 -27.5z" />
    <glyph glyph-name="Igrave" unicode="&#xcc;" 
d="M502 700l-1 -10q-75 0 -93 -125l-65 -466q-7 -51 7.5 -70t54.5 -19l-1 -10q-88 3 -192 3l-192 -3l1 10q75 0 93 125l65 466q7 51 -7.5 70t-54.5 19l1 10q88 -3 192 -3zM216 892q0 30 19.5 48.5t55.5 18.5l109 -206l-3 -3q-69 15 -125 56t-56 86z" />
    <glyph glyph-name="Iacute" unicode="&#xcd;" 
d="M502 700l-1 -10q-75 0 -93 -125l-65 -466q-7 -51 7.5 -70t54.5 -19l-1 -10q-88 3 -192 3l-192 -3l1 10q75 0 93 125l65 466q7 51 -7.5 70t-54.5 19l1 10q88 -3 192 -3zM479 906q0 -52 -64 -94.5t-157 -61.5l-2 3l160 206q28 0 45.5 -15.5t17.5 -37.5z" />
    <glyph glyph-name="Icircumflex" unicode="&#xce;" 
d="M502 700l-1 -10q-75 0 -93 -125l-65 -466q-7 -51 7.5 -70t54.5 -19l-1 -10q-88 3 -192 3l-192 -3l1 10q75 0 93 125l65 466q7 51 -7.5 70t-54.5 19l1 10q88 -3 192 -3zM499 745l-4 -5l-167 52l-178 -52l-3 5l165 147h62z" />
    <glyph glyph-name="Idieresis" unicode="&#xcf;" 
d="M502 700l-1 -10q-75 0 -93 -125l-65 -466q-7 -51 7.5 -70t54.5 -19l-1 -10q-88 3 -192 3l-192 -3l1 10q75 0 93 125l65 466q7 51 -7.5 70t-54.5 19l1 10q88 -3 192 -3zM212 750q-37 0 -56 20t-19 52q0 42 26.5 70.5t72.5 28.5q37 0 56.5 -20.5t19.5 -52.5
q0 -42 -26.5 -70t-73.5 -28zM435 750q-36 0 -55 20t-19 52q0 42 26.5 70.5t71.5 28.5q38 0 57.5 -20.5t19.5 -52.5q0 -43 -26 -70.5t-75 -27.5z" />
    <glyph glyph-name="Eth" unicode="&#xd0;" horiz-adv-x="818" 
d="M75 362h71l33 239q7 51 -7.5 70t-54.5 19l1 10q88 -3 192 -3q24 0 88 1.5t96 1.5q162 0 259 -78t97 -213q0 -186 -121 -297.5t-313 -111.5q-50 0 -114.5 1.5t-89.5 1.5l-192 -3l1 10q75 0 93 125l30 215h-71zM397 10q54 0 100.5 62.5t74.5 168.5t28 228q0 219 -145 219
q-14 0 -30 -4l-46 -322h124l-2 -12h-123l-35 -251q-7 -50 7 -69.5t47 -19.5z" />
    <glyph glyph-name="Ntilde" unicode="&#xd1;" horiz-adv-x="759" 
d="M684 218l46 327q11 75 -20 110t-91 35l1 10q104 -3 139 -3l90 3l-1 -10q-37 0 -66.5 -35.5t-40.5 -109.5l-77 -545l-156 -18l-322 633l-65 -460q-11 -78 19 -111.5t104 -33.5l-1 -10q-108 3 -143 3l-85 -3l1 10q74 0 95 145l63 446q7 51 -7.5 70t-54.5 19l1 10
q153 -3 339 -3q-1 -34 32 -97zM649 848q48 0 65 55l7 -5q-10 -72 -47 -110t-92 -38q-41 0 -97.5 26t-83.5 26q-49 0 -66 -55l-7 5q11 74 47.5 111t91.5 37q43 0 100 -26t82 -26z" />
    <glyph glyph-name="Ograve" unicode="&#xd2;" horiz-adv-x="795" 
d="M407 -9q39 0 76 83.5t58.5 200.5t21.5 220q0 101 -21 157.5t-58 56.5q-39 0 -76 -83.5t-58.5 -200.5t-21.5 -220q0 -101 21 -157.5t58 -56.5zM389 -19q-155 0 -238.5 77.5t-83.5 212.5q0 115 54 217t155.5 166.5t225.5 64.5q155 0 238.5 -77.5t83.5 -212.5
q0 -115 -54 -217t-155.5 -166.5t-225.5 -64.5zM409 892q0 30 19.5 48.5t55.5 18.5l109 -206l-3 -3q-69 15 -125 56t-56 86z" />
    <glyph glyph-name="Oacute" unicode="&#xd3;" horiz-adv-x="795" 
d="M407 -9q39 0 76 83.5t58.5 200.5t21.5 220q0 101 -21 157.5t-58 56.5q-39 0 -76 -83.5t-58.5 -200.5t-21.5 -220q0 -101 21 -157.5t58 -56.5zM389 -19q-155 0 -238.5 77.5t-83.5 212.5q0 115 54 217t155.5 166.5t225.5 64.5q155 0 238.5 -77.5t83.5 -212.5
q0 -115 -54 -217t-155.5 -166.5t-225.5 -64.5zM644 906q0 -52 -64 -94.5t-157 -61.5l-2 3l160 206q28 0 45.5 -15.5t17.5 -37.5z" />
    <glyph glyph-name="Ocircumflex" unicode="&#xd4;" horiz-adv-x="795" 
d="M407 -9q39 0 76 83.5t58.5 200.5t21.5 220q0 101 -21 157.5t-58 56.5q-39 0 -76 -83.5t-58.5 -200.5t-21.5 -220q0 -101 21 -157.5t58 -56.5zM389 -19q-155 0 -238.5 77.5t-83.5 212.5q0 115 54 217t155.5 166.5t225.5 64.5q155 0 238.5 -77.5t83.5 -212.5
q0 -115 -54 -217t-155.5 -166.5t-225.5 -64.5zM685 745l-4 -5l-167 52l-178 -52l-3 5l165 147h62z" />
    <glyph glyph-name="Otilde" unicode="&#xd5;" horiz-adv-x="795" 
d="M407 -9q39 0 76 83.5t58.5 200.5t21.5 220q0 101 -21 157.5t-58 56.5q-39 0 -76 -83.5t-58.5 -200.5t-21.5 -220q0 -101 21 -157.5t58 -56.5zM389 -19q-155 0 -238.5 77.5t-83.5 212.5q0 115 54 217t155.5 166.5t225.5 64.5q155 0 238.5 -77.5t83.5 -212.5
q0 -115 -54 -217t-155.5 -166.5t-225.5 -64.5zM645 848q48 0 65 55l7 -5q-10 -72 -47 -110t-92 -38q-41 0 -97.5 26t-83.5 26q-49 0 -66 -55l-7 5q11 74 47.5 111t91.5 37q43 0 100 -26t82 -26z" />
    <glyph glyph-name="Odieresis" unicode="&#xd6;" horiz-adv-x="795" 
d="M407 -9q39 0 76 83.5t58.5 200.5t21.5 220q0 101 -21 157.5t-58 56.5q-39 0 -76 -83.5t-58.5 -200.5t-21.5 -220q0 -101 21 -157.5t58 -56.5zM389 -19q-155 0 -238.5 77.5t-83.5 212.5q0 115 54 217t155.5 166.5t225.5 64.5q155 0 238.5 -77.5t83.5 -212.5
q0 -115 -54 -217t-155.5 -166.5t-225.5 -64.5zM388 750q-37 0 -56 20t-19 52q0 42 26.5 70.5t72.5 28.5q37 0 56.5 -20.5t19.5 -52.5q0 -42 -26.5 -70t-73.5 -28zM611 750q-36 0 -55 20t-19 52q0 42 26.5 70.5t71.5 28.5q38 0 57.5 -20.5t19.5 -52.5q0 -43 -26 -70.5
t-75 -27.5z" />
    <glyph glyph-name="multiply" unicode="&#xd7;" horiz-adv-x="318" 
d="M327 113l-131 151l-173 -152l-7 8l173 152l-129 152l8 7l129 -152l174 152l7 -8l-174 -152l131 -151z" />
    <glyph glyph-name="Oslash" unicode="&#xd8;" horiz-adv-x="795" 
d="M703 670q121 -76 121 -241q0 -115 -54 -217t-155.5 -166.5t-225.5 -64.5q-118 0 -198 47l-47 -59h-16l53 66q-114 76 -114 236q0 115 54 217t155.5 166.5t225.5 64.5q113 0 190 -43l59 74h16zM484 709q-38 0 -74 -79t-57.5 -194t-24.5 -226l235 315q0 84 -21.5 134
t-57.5 50zM407 -9q57 0 104 169.5t52 344.5l-235 -315q0 -93 21.5 -146t57.5 -53z" />
    <glyph glyph-name="Ugrave" unicode="&#xd9;" horiz-adv-x="755" 
d="M848 690q-37 0 -66.5 -35.5t-40.5 -109.5l-44 -316q-9 -64 -29.5 -109.5t-46 -71.5t-65 -40.5t-75.5 -18.5t-88 -4q-134 0 -202 50t-68 146q0 20 4 48l53 372q7 51 -8.5 70t-55.5 19l2 10q87 -3 191 -3l193 3l-2 -10q-74 0 -92 -125l-48 -338q-4 -29 -4 -79
q0 -67 36.5 -100t100.5 -33q161 0 191 212l45 318q11 75 -19.5 110t-90.5 35l2 10q103 -3 138 -3l91 3zM423 892q0 30 19.5 48.5t55.5 18.5l109 -206l-3 -3q-69 15 -125 56t-56 86z" />
    <glyph glyph-name="Uacute" unicode="&#xda;" horiz-adv-x="755" 
d="M848 690q-37 0 -66.5 -35.5t-40.5 -109.5l-44 -316q-9 -64 -29.5 -109.5t-46 -71.5t-65 -40.5t-75.5 -18.5t-88 -4q-134 0 -202 50t-68 146q0 20 4 48l53 372q7 51 -8.5 70t-55.5 19l2 10q87 -3 191 -3l193 3l-2 -10q-74 0 -92 -125l-48 -338q-4 -29 -4 -79
q0 -67 36.5 -100t100.5 -33q161 0 191 212l45 318q11 75 -19.5 110t-90.5 35l2 10q103 -3 138 -3l91 3zM742 905q0 -52 -64 -94.5t-157 -61.5l-2 3l160 206q28 0 45.5 -15.5t17.5 -37.5z" />
    <glyph glyph-name="Ucircumflex" unicode="&#xdb;" horiz-adv-x="755" 
d="M848 690q-37 0 -66.5 -35.5t-40.5 -109.5l-44 -316q-9 -64 -29.5 -109.5t-46 -71.5t-65 -40.5t-75.5 -18.5t-88 -4q-134 0 -202 50t-68 146q0 20 4 48l53 372q7 51 -8.5 70t-55.5 19l2 10q87 -3 191 -3l193 3l-2 -10q-74 0 -92 -125l-48 -338q-4 -29 -4 -79
q0 -67 36.5 -100t100.5 -33q161 0 191 212l45 318q11 75 -19.5 110t-90.5 35l2 10q103 -3 138 -3l91 3zM727 744l-4 -5l-167 52l-178 -52l-3 5l165 147h62z" />
    <glyph glyph-name="Udieresis" unicode="&#xdc;" horiz-adv-x="755" 
d="M848 690q-37 0 -66.5 -35.5t-40.5 -109.5l-44 -316q-9 -64 -29.5 -109.5t-46 -71.5t-65 -40.5t-75.5 -18.5t-88 -4q-134 0 -202 50t-68 146q0 20 4 48l53 372q7 51 -8.5 70t-55.5 19l2 10q87 -3 191 -3l193 3l-2 -10q-74 0 -92 -125l-48 -338q-4 -29 -4 -79
q0 -67 36.5 -100t100.5 -33q161 0 191 212l45 318q11 75 -19.5 110t-90.5 35l2 10q103 -3 138 -3l91 3zM433 750q-37 0 -56 20t-19 52q0 42 26.5 70.5t72.5 28.5q37 0 56.5 -20.5t19.5 -52.5q0 -42 -26.5 -70t-73.5 -28zM656 750q-36 0 -55 20t-19 52q0 42 26.5 70.5
t71.5 28.5q38 0 57.5 -20.5t19.5 -52.5q0 -43 -26 -70.5t-75 -27.5z" />
    <glyph glyph-name="Yacute" unicode="&#xdd;" horiz-adv-x="752" 
d="M573 10l-1 -10q-87 3 -191 3l-193 -3l1 10q75 0 93 125l33 232l-132 270q-25 53 -70 53l1 10q82 -3 200 -3l197 3l-1 -10q-26 0 -42.5 -14.5t-16.5 -38.5q0 -23 14 -58l76 -187l87 124q22 32 32.5 48t20 37.5t9.5 38.5q0 50 -81 50l1 10q46 -3 127 -3l97 3l-1 -10
q-67 0 -160 -130l-122 -171l-40 -290q-7 -51 7.5 -70t54.5 -19zM736 906q0 -52 -64 -94.5t-157 -61.5l-2 3l160 206q28 0 45.5 -15.5t17.5 -37.5z" />
    <glyph glyph-name="Thorn" unicode="&#xde;" horiz-adv-x="710" 
d="M350 152l-7 -53q-7 -51 7.5 -70t54.5 -19l-1 -10q-88 3 -192 3l-192 -3l1 10q75 0 93 125l65 466q7 51 -7.5 70t-54.5 19l1 10q88 -3 192 -3l192 3l-1 -10q-75 0 -93 -125l-1 -7q11 0 40 0.5t47 0.5q118 0 182.5 -44.5t64.5 -128.5q0 -106 -85.5 -170t-248.5 -64h-57z
M406 547l-55 -384q48 0 82 25.5t51 67.5t24 82.5t7 82.5q0 64 -26 95t-83 31z" />
    <glyph glyph-name="germandbls" unicode="&#xdf;" horiz-adv-x="805" 
d="M801 160q0 -85 -70.5 -132.5t-200.5 -47.5q-110 0 -157.5 34.5t-47.5 84.5q0 33 23.5 55t59.5 22q39 0 66 -25q-26 -32 -26 -71q0 -38 18.5 -64t52.5 -26q33 0 54 18.5t21 46.5t-22.5 55.5t-54.5 51.5t-64 50t-54.5 62t-22.5 76q0 38 18.5 73t45.5 62t54 53t45.5 58.5
t18.5 67.5q0 42 -19.5 66t-59.5 24q-89 0 -110 -147l-65 -465q-27 -190 -125.5 -301t-235.5 -111q-67 0 -106.5 30.5t-39.5 74.5q0 38 30 62t76 24q53 0 90 -30q-20 -22 -35.5 -55t-15.5 -60q0 -36 25 -36q28 0 53 53t37 145l72 533h-43l1 9h42q18 129 118.5 206.5
t238.5 77.5q78 0 119 -37.5t41 -97.5q0 -40 -34 -101t-34 -88q0 -24 23 -48.5t56 -46.5t65.5 -47.5t55.5 -61t23 -76.5z" />
    <glyph glyph-name="agrave" unicode="&#xe0;" horiz-adv-x="661" 
d="M322 53q35 0 66.5 118t31.5 225q0 96 -36 96q-31 0 -54.5 -60t-34 -133.5t-10.5 -136.5q0 -109 37 -109zM665 500l-62 -428q-3 -20 -3 -28q0 -23 20 -23q13 0 28 9l4 -7q-6 -5 -17 -12t-49 -19t-81 -12t-78 22.5t-35 76.5q0 41 13 81h-8q-23 -92 -68 -136t-123 -44
q-74 0 -115 53t-41 137q0 143 91.5 236.5t246.5 93.5q35 0 92.5 -13t91.5 -13q26 0 49 6.5t33 13.5zM271 683q0 30 19.5 48.5t55.5 18.5l109 -206l-3 -3q-69 15 -125 56t-56 86z" />
    <glyph glyph-name="aacute" unicode="&#xe1;" horiz-adv-x="661" 
d="M322 53q35 0 66.5 118t31.5 225q0 96 -36 96q-31 0 -54.5 -60t-34 -133.5t-10.5 -136.5q0 -109 37 -109zM665 500l-62 -428q-3 -20 -3 -28q0 -23 20 -23q13 0 28 9l4 -7q-6 -5 -17 -12t-49 -19t-81 -12t-78 22.5t-35 76.5q0 41 13 81h-8q-23 -92 -68 -136t-123 -44
q-74 0 -115 53t-41 137q0 143 91.5 236.5t246.5 93.5q35 0 92.5 -13t91.5 -13q26 0 49 6.5t33 13.5zM558 697q0 -52 -64 -94.5t-157 -61.5l-2 3l160 206q28 0 45.5 -15.5t17.5 -37.5z" />
    <glyph glyph-name="acircumflex" unicode="&#xe2;" horiz-adv-x="661" 
d="M322 53q35 0 66.5 118t31.5 225q0 96 -36 96q-31 0 -54.5 -60t-34 -133.5t-10.5 -136.5q0 -109 37 -109zM665 500l-62 -428q-3 -20 -3 -28q0 -23 20 -23q13 0 28 9l4 -7q-6 -5 -17 -12t-49 -19t-81 -12t-78 22.5t-35 76.5q0 41 13 81h-8q-23 -92 -68 -136t-123 -44
q-74 0 -115 53t-41 137q0 143 91.5 236.5t246.5 93.5q35 0 92.5 -13t91.5 -13q26 0 49 6.5t33 13.5zM570 553l-4 -5l-167 52l-178 -52l-3 5l165 147h62z" />
    <glyph glyph-name="atilde" unicode="&#xe3;" horiz-adv-x="661" 
d="M322 53q35 0 66.5 118t31.5 225q0 96 -36 96q-31 0 -54.5 -60t-34 -133.5t-10.5 -136.5q0 -109 37 -109zM665 500l-62 -428q-3 -20 -3 -28q0 -23 20 -23q13 0 28 9l4 -7q-6 -5 -17 -12t-49 -19t-81 -12t-78 22.5t-35 76.5q0 41 13 81h-8q-23 -92 -68 -136t-123 -44
q-74 0 -115 53t-41 137q0 143 91.5 236.5t246.5 93.5q35 0 92.5 -13t91.5 -13q26 0 49 6.5t33 13.5zM533 657q48 0 65 55l7 -5q-10 -72 -47 -110t-92 -38q-41 0 -97.5 26t-83.5 26q-49 0 -66 -55l-7 5q11 74 47.5 111t91.5 37q43 0 100 -26t82 -26z" />
    <glyph glyph-name="adieresis" unicode="&#xe4;" horiz-adv-x="661" 
d="M322 53q35 0 66.5 118t31.5 225q0 96 -36 96q-31 0 -54.5 -60t-34 -133.5t-10.5 -136.5q0 -109 37 -109zM665 500l-62 -428q-3 -20 -3 -28q0 -23 20 -23q13 0 28 9l4 -7q-6 -5 -17 -12t-49 -19t-81 -12t-78 22.5t-35 76.5q0 41 13 81h-8q-23 -92 -68 -136t-123 -44
q-74 0 -115 53t-41 137q0 143 91.5 236.5t246.5 93.5q35 0 92.5 -13t91.5 -13q26 0 49 6.5t33 13.5zM278 543q-37 0 -56 20t-19 52q0 42 26.5 70.5t72.5 28.5q37 0 56.5 -20.5t19.5 -52.5q0 -42 -26.5 -70t-73.5 -28zM501 543q-36 0 -55 20t-19 52q0 42 26.5 70.5t71.5 28.5
q38 0 57.5 -20.5t19.5 -52.5q0 -43 -26 -70.5t-75 -27.5z" />
    <glyph glyph-name="aring" unicode="&#xe5;" horiz-adv-x="661" 
d="M322 53q35 0 66.5 118t31.5 225q0 96 -36 96q-31 0 -54.5 -60t-34 -133.5t-10.5 -136.5q0 -109 37 -109zM665 500l-62 -428q-3 -20 -3 -28q0 -23 20 -23q13 0 28 9l4 -7q-6 -5 -17 -12t-49 -19t-81 -12t-78 22.5t-35 76.5q0 41 13 81h-8q-23 -92 -68 -136t-123 -44
q-74 0 -115 53t-41 137q0 143 91.5 236.5t246.5 93.5q35 0 92.5 -13t91.5 -13q26 0 49 6.5t33 13.5zM408 542q27 0 40 33t13 72q0 68 -36 68q-27 0 -40 -33t-13 -72q0 -68 36 -68zM437 724q39 0 64.5 -21t25.5 -59q0 -47 -35.5 -79t-95.5 -32q-39 0 -64.5 21t-25.5 59
q0 47 35.5 79t95.5 32z" />
    <glyph glyph-name="ae" unicode="&#xe6;" horiz-adv-x="933" 
d="M626 200q0 -78 32.5 -121t93.5 -43q66 0 134 44l4 -5q-86 -95 -246 -95q-112 0 -172.5 47.5t-70.5 132.5h-4q-23 -92 -68 -136t-123 -44q-74 0 -115 53t-41 137q0 143 91.5 236.5t246.5 93.5q55 0 124 -13.5t87 -13.5q70 27 153 27q97 0 150 -38.5t53 -91.5
q0 -55 -55 -94.5t-163 -39.5q-61 0 -108 11q-3 -18 -3 -47zM322 53q35 0 66.5 118t31.5 225q0 96 -36 96q-31 0 -54.5 -60t-34 -133.5t-10.5 -136.5q0 -109 37 -109zM630 255q54 5 101.5 65.5t47.5 122.5q0 49 -27 49q-30 0 -68 -64.5t-54 -172.5z" />
    <glyph glyph-name="ccedilla" unicode="&#xe7;" horiz-adv-x="574" 
d="M412 492q-46 0 -86 -86t-40 -202q0 -75 30.5 -121.5t90.5 -46.5q21 0 40 3q51 8 104 40l3 -4q-39 -38 -77 -58t-100 -32q-8 -2 -25 -4.5t-28 -4.5t-23.5 -6t-19 -10t-6.5 -15q0 -13 15 -23.5t32.5 -18t32.5 -23.5t15 -37q0 -39 -45 -66t-101 -27q-37 0 -63 14t-26 37
q0 20 15.5 32t39.5 12q25 0 38 -10q-18 -22 -18 -47q0 -30 26 -30q17 0 28.5 13.5t11.5 33.5q0 21 -30.5 50.5t-30.5 56.5q0 31 27.5 47.5t60.5 20.5q-121 4 -187 61.5t-66 153.5q0 125 104.5 215t251.5 90q93 0 146 -33t53 -85q0 -39 -29 -64t-79 -25q-58 0 -88 30
q17 22 29.5 54t12.5 59q0 56 -39 56z" />
    <glyph glyph-name="egrave" unicode="&#xe8;" horiz-adv-x="593" 
d="M286 200q0 -78 32.5 -121t93.5 -43q66 0 134 44l4 -5q-86 -95 -246 -95q-124 0 -189 57t-65 156q0 127 104 217t258 90q97 0 150 -38.5t53 -91.5q0 -55 -55 -94.5t-163 -39.5q-61 0 -108 11q-3 -18 -3 -47zM290 255q54 5 101.5 65.5t47.5 122.5q0 49 -27 49
q-30 0 -68 -64.5t-54 -172.5zM299 683q0 30 19.5 48.5t55.5 18.5l109 -206l-3 -3q-69 15 -125 56t-56 86z" />
    <glyph glyph-name="eacute" unicode="&#xe9;" horiz-adv-x="593" 
d="M286 200q0 -78 32.5 -121t93.5 -43q66 0 134 44l4 -5q-86 -95 -246 -95q-124 0 -189 57t-65 156q0 127 104 217t258 90q97 0 150 -38.5t53 -91.5q0 -55 -55 -94.5t-163 -39.5q-61 0 -108 11q-3 -18 -3 -47zM290 255q54 5 101.5 65.5t47.5 122.5q0 49 -27 49
q-30 0 -68 -64.5t-54 -172.5zM554 697q0 -52 -64 -94.5t-157 -61.5l-2 3l160 206q28 0 45.5 -15.5t17.5 -37.5z" />
    <glyph glyph-name="ecircumflex" unicode="&#xea;" horiz-adv-x="593" 
d="M286 200q0 -78 32.5 -121t93.5 -43q66 0 134 44l4 -5q-86 -95 -246 -95q-124 0 -189 57t-65 156q0 127 104 217t258 90q97 0 150 -38.5t53 -91.5q0 -55 -55 -94.5t-163 -39.5q-61 0 -108 11q-3 -18 -3 -47zM290 255q54 5 101.5 65.5t47.5 122.5q0 49 -27 49
q-30 0 -68 -64.5t-54 -172.5zM581 553l-4 -5l-167 52l-178 -52l-3 5l165 147h62z" />
    <glyph glyph-name="edieresis" unicode="&#xeb;" horiz-adv-x="593" 
d="M286 200q0 -78 32.5 -121t93.5 -43q66 0 134 44l4 -5q-86 -95 -246 -95q-124 0 -189 57t-65 156q0 127 104 217t258 90q97 0 150 -38.5t53 -91.5q0 -55 -55 -94.5t-163 -39.5q-61 0 -108 11q-3 -18 -3 -47zM290 255q54 5 101.5 65.5t47.5 122.5q0 49 -27 49
q-30 0 -68 -64.5t-54 -172.5zM308 543q-37 0 -56 20t-19 52q0 42 26.5 70.5t72.5 28.5q37 0 56.5 -20.5t19.5 -52.5q0 -42 -26.5 -70t-73.5 -28zM531 543q-36 0 -55 20t-19 52q0 42 26.5 70.5t71.5 28.5q38 0 57.5 -20.5t19.5 -52.5q0 -43 -26 -70.5t-75 -27.5z" />
    <glyph glyph-name="igrave" unicode="&#xec;" horiz-adv-x="368" 
d="M361 500l-61 -429q-3 -19 -3 -27q0 -23 20 -23q13 0 28 9l4 -7q-6 -5 -18 -12t-51 -19t-82 -12q-112 0 -116 96q0 21 2 34l38 273q2 14 2 20q0 38 -47 38l-3 9q68 0 139.5 12.5t109.5 25.5zM149 683q0 30 19.5 48.5t55.5 18.5l109 -206l-3 -3q-69 15 -125 56t-56 86z" />
    <glyph glyph-name="iacute" unicode="&#xed;" horiz-adv-x="368" 
d="M361 500l-61 -429q-3 -19 -3 -27q0 -23 20 -23q13 0 28 9l4 -7q-6 -5 -18 -12t-51 -19t-82 -12q-112 0 -116 96q0 21 2 34l38 273q2 14 2 20q0 38 -47 38l-3 9q68 0 139.5 12.5t109.5 25.5zM395 697q0 -52 -64 -94.5t-157 -61.5l-2 3l160 206q28 0 45.5 -15.5t17.5 -37.5
z" />
    <glyph glyph-name="icircumflex" unicode="&#xee;" horiz-adv-x="368" 
d="M361 500l-61 -429q-3 -19 -3 -27q0 -23 20 -23q13 0 28 9l4 -7q-6 -5 -18 -12t-51 -19t-82 -12q-112 0 -116 96q0 21 2 34l38 273q2 14 2 20q0 38 -47 38l-3 9q68 0 139.5 12.5t109.5 25.5zM439 553l-4 -5l-167 52l-178 -52l-3 5l165 147h62z" />
    <glyph glyph-name="idieresis" unicode="&#xef;" horiz-adv-x="368" 
d="M361 500l-61 -429q-3 -19 -3 -27q0 -23 20 -23q13 0 28 9l4 -7q-6 -5 -18 -12t-51 -19t-82 -12q-112 0 -116 96q0 21 2 34l38 273q2 14 2 20q0 38 -47 38l-3 9q68 0 139.5 12.5t109.5 25.5zM147 543q-37 0 -56 20t-19 52q0 42 26.5 70.5t72.5 28.5q37 0 56.5 -20.5
t19.5 -52.5q0 -42 -26.5 -70t-73.5 -28zM370 543q-36 0 -55 20t-19 52q0 42 26.5 70.5t71.5 28.5q38 0 57.5 -20.5t19.5 -52.5q0 -43 -26 -70.5t-75 -27.5z" />
    <glyph glyph-name="eth" unicode="&#xf0;" horiz-adv-x="630" 
d="M625 698l-139 -49q89 -54 132 -137.5t43 -181.5q0 -64 -23 -125.5t-66.5 -112t-115 -81.5t-159.5 -31q-107 0 -177.5 64t-70.5 164q0 132 86.5 213.5t196.5 81.5q54 0 89 -20q-6 70 -33 126l-148 -56l1 12l143 53q-46 71 -127 111l4 6q53 -8 114.5 -30.5t99.5 -48.5
l151 54zM322 -12q34 0 65 136.5t31 242.5q0 119 -41 119q-36 0 -68 -129t-32 -237q0 -62 12 -97t33 -35z" />
    <glyph glyph-name="ntilde" unicode="&#xf1;" horiz-adv-x="672" 
d="M304 -4q-39 -16 -106 -16q-113 0 -117 96q0 22 2 35l37 261q3 21 3 35q-1 36 -47 36l-4 8q82 0 153 12.5t101 24.5l31 12l-54 -260h6q23 84 54 139.5t66.5 80t63.5 32.5t61 8q43 0 73.5 -25t30.5 -67q0 -40 -12 -114q-34 -211 -34 -249q0 -24 20 -24q14 0 28 9l4 -7
q-6 -5 -18 -12t-51 -19t-82 -12q-112 0 -116 96q0 22 2 34l32 235q5 33 5 59q-1 20 -14 20q-23 0 -53.5 -55t-53 -142.5t-22.5 -166.5q0 -44 11 -64zM587 657q48 0 65 55l7 -5q-10 -72 -47 -110t-92 -38q-41 0 -97.5 26t-83.5 26q-49 0 -66 -55l-7 5q11 74 47.5 111t91.5 37
q43 0 100 -26t82 -26z" />
    <glyph glyph-name="ograve" unicode="&#xf2;" horiz-adv-x="643" 
d="M404 500q108 0 178.5 -59.5t70.5 -158.5q0 -119 -98.5 -210.5t-254.5 -91.5q-109 0 -179.5 59.5t-70.5 158.5q0 119 99.5 210.5t254.5 91.5zM323 -12q36 0 67.5 133t31.5 241q0 130 -43 130q-36 0 -68 -132t-32 -240q0 -62 12 -97t32 -35zM281 683q0 30 19.5 48.5
t55.5 18.5l109 -206l-3 -3q-69 15 -125 56t-56 86z" />
    <glyph glyph-name="oacute" unicode="&#xf3;" horiz-adv-x="643" 
d="M404 500q108 0 178.5 -59.5t70.5 -158.5q0 -119 -98.5 -210.5t-254.5 -91.5q-109 0 -179.5 59.5t-70.5 158.5q0 119 99.5 210.5t254.5 91.5zM323 -12q36 0 67.5 133t31.5 241q0 130 -43 130q-36 0 -68 -132t-32 -240q0 -62 12 -97t32 -35zM536 697q0 -52 -64 -94.5
t-157 -61.5l-2 3l160 206q28 0 45.5 -15.5t17.5 -37.5z" />
    <glyph glyph-name="ocircumflex" unicode="&#xf4;" horiz-adv-x="643" 
d="M404 500q108 0 178.5 -59.5t70.5 -158.5q0 -119 -98.5 -210.5t-254.5 -91.5q-109 0 -179.5 59.5t-70.5 158.5q0 119 99.5 210.5t254.5 91.5zM323 -12q36 0 67.5 133t31.5 241q0 130 -43 130q-36 0 -68 -132t-32 -240q0 -62 12 -97t32 -35zM580 553l-4 -5l-167 52
l-178 -52l-3 5l165 147h62z" />
    <glyph glyph-name="otilde" unicode="&#xf5;" horiz-adv-x="643" 
d="M404 500q108 0 178.5 -59.5t70.5 -158.5q0 -119 -98.5 -210.5t-254.5 -91.5q-109 0 -179.5 59.5t-70.5 158.5q0 119 99.5 210.5t254.5 91.5zM323 -12q36 0 67.5 133t31.5 241q0 130 -43 130q-36 0 -68 -132t-32 -240q0 -62 12 -97t32 -35zM543 657q48 0 65 55l7 -5
q-10 -72 -47 -110t-92 -38q-41 0 -97.5 26t-83.5 26q-49 0 -66 -55l-7 5q11 74 47.5 111t91.5 37q43 0 100 -26t82 -26z" />
    <glyph glyph-name="odieresis" unicode="&#xf6;" horiz-adv-x="643" 
d="M404 500q108 0 178.5 -59.5t70.5 -158.5q0 -119 -98.5 -210.5t-254.5 -91.5q-109 0 -179.5 59.5t-70.5 158.5q0 119 99.5 210.5t254.5 91.5zM323 -12q36 0 67.5 133t31.5 241q0 130 -43 130q-36 0 -68 -132t-32 -240q0 -62 12 -97t32 -35zM289 543q-37 0 -56 20t-19 52
q0 42 26.5 70.5t72.5 28.5q37 0 56.5 -20.5t19.5 -52.5q0 -42 -26.5 -70t-73.5 -28zM512 543q-36 0 -55 20t-19 52q0 42 26.5 70.5t71.5 28.5q38 0 57.5 -20.5t19.5 -52.5q0 -43 -26 -70.5t-75 -27.5z" />
    <glyph glyph-name="divide" unicode="&#xf7;" horiz-adv-x="441" 
d="M36 276h441l-1 -10h-441zM335 425q0 -23 -17 -39.5t-40 -16.5q-19 0 -31.5 12.5t-12.5 32.5q0 22 17.5 38.5t40.5 16.5q19 0 31 -12.5t12 -31.5zM294 129q0 -23 -17.5 -39.5t-40.5 -16.5q-19 0 -31 12.5t-12 32.5q0 22 17 38.5t40 16.5q19 0 31.5 -12.5t12.5 -31.5z" />
    <glyph glyph-name="oslash" unicode="&#xf8;" horiz-adv-x="643" 
d="M404 500q69 0 124 -26l46 58h16l-51 -63q53 -28 83.5 -76t30.5 -111q0 -119 -98.5 -210.5t-254.5 -91.5q-70 0 -129 27l-47 -59h-16l52 65q-110 59 -110 185q0 119 99.5 210.5t254.5 91.5zM323 -12q32 0 61 109.5t36 221.5l-141 -176v-23q0 -62 12 -97t32 -35zM379 492
q-32 0 -62 -108t-37 -220l141 177q1 11 1 21q0 130 -43 130z" />
    <glyph glyph-name="ugrave" unicode="&#xf9;" horiz-adv-x="679" 
d="M441 484q39 16 106 16q113 0 117 -96q0 -22 -2 -35l-37 -261q-3 -21 -3 -35q1 -36 47 -36l4 -8q-82 0 -153 -12t-102 -25l-30 -12l54 260h-6q-18 -68 -43.5 -117.5t-50 -76t-54.5 -42.5t-52 -20t-48 -4q-43 0 -73.5 25t-30.5 67q0 40 12 114q34 211 34 249q0 24 -20 24
q-14 0 -28 -9l-4 7q6 5 18 12t51 19t82 12q112 0 116 -96q0 -22 -2 -34l-32 -235q-5 -33 -5 -59q1 -20 14 -20q23 0 54 55t54.5 142.5t23.5 166.5q0 44 -11 64zM247 683q0 30 19.5 48.5t55.5 18.5l109 -206l-3 -3q-69 15 -125 56t-56 86z" />
    <glyph glyph-name="uacute" unicode="&#xfa;" horiz-adv-x="679" 
d="M441 484q39 16 106 16q113 0 117 -96q0 -22 -2 -35l-37 -261q-3 -21 -3 -35q1 -36 47 -36l4 -8q-82 0 -153 -12t-102 -25l-30 -12l54 260h-6q-18 -68 -43.5 -117.5t-50 -76t-54.5 -42.5t-52 -20t-48 -4q-43 0 -73.5 25t-30.5 67q0 40 12 114q34 211 34 249q0 24 -20 24
q-14 0 -28 -9l-4 7q6 5 18 12t51 19t82 12q112 0 116 -96q0 -22 -2 -34l-32 -235q-5 -33 -5 -59q1 -20 14 -20q23 0 54 55t54.5 142.5t23.5 166.5q0 44 -11 64zM578 697q0 -52 -64 -94.5t-157 -61.5l-2 3l160 206q28 0 45.5 -15.5t17.5 -37.5z" />
    <glyph glyph-name="ucircumflex" unicode="&#xfb;" horiz-adv-x="679" 
d="M441 484q39 16 106 16q113 0 117 -96q0 -22 -2 -35l-37 -261q-3 -21 -3 -35q1 -36 47 -36l4 -8q-82 0 -153 -12t-102 -25l-30 -12l54 260h-6q-18 -68 -43.5 -117.5t-50 -76t-54.5 -42.5t-52 -20t-48 -4q-43 0 -73.5 25t-30.5 67q0 40 12 114q34 211 34 249q0 24 -20 24
q-14 0 -28 -9l-4 7q6 5 18 12t51 19t82 12q112 0 116 -96q0 -22 -2 -34l-32 -235q-5 -33 -5 -59q1 -20 14 -20q23 0 54 55t54.5 142.5t23.5 166.5q0 44 -11 64zM587 553l-4 -5l-167 52l-178 -52l-3 5l165 147h62z" />
    <glyph glyph-name="udieresis" unicode="&#xfc;" horiz-adv-x="679" 
d="M441 484q39 16 106 16q113 0 117 -96q0 -22 -2 -35l-37 -261q-3 -21 -3 -35q1 -36 47 -36l4 -8q-82 0 -153 -12t-102 -25l-30 -12l54 260h-6q-18 -68 -43.5 -117.5t-50 -76t-54.5 -42.5t-52 -20t-48 -4q-43 0 -73.5 25t-30.5 67q0 40 12 114q34 211 34 249q0 24 -20 24
q-14 0 -28 -9l-4 7q6 5 18 12t51 19t82 12q112 0 116 -96q0 -22 -2 -34l-32 -235q-5 -33 -5 -59q1 -20 14 -20q23 0 54 55t54.5 142.5t23.5 166.5q0 44 -11 64zM298 543q-37 0 -56 20t-19 52q0 42 26.5 70.5t72.5 28.5q37 0 56.5 -20.5t19.5 -52.5q0 -42 -26.5 -70
t-73.5 -28zM521 543q-36 0 -55 20t-19 52q0 42 26.5 70.5t71.5 28.5q38 0 57.5 -20.5t19.5 -52.5q0 -43 -26 -70.5t-75 -27.5z" />
    <glyph glyph-name="yacute" unicode="&#xfd;" horiz-adv-x="666" 
d="M438 240h-6q-18 -68 -43.5 -117.5t-50 -76t-54.5 -42.5t-52 -20t-48 -4q-43 0 -73.5 25t-30.5 67q0 40 12 114q34 211 34 249q0 24 -20 24q-14 0 -28 -9l-4 7q6 5 18 12t51 19t82 12q112 0 116 -96q0 -22 -2 -34l-32 -235q-5 -33 -5 -59q1 -20 14 -20q23 0 54 55
t54.5 142.5t23.5 166.5q0 44 -11 64q31 16 98 16q121 0 125 -96q0 -22 -2 -35l-48 -338q-12 -81 -48 -141t-89.5 -94t-115 -50t-131.5 -16q-93 0 -140 29.5t-47 82.5q0 35 27.5 58t67.5 23q44 0 76 -27q-38 -50 -38 -105q0 -51 44 -51q65 0 101.5 51t55.5 143zM578 697
q0 -52 -64 -94.5t-157 -61.5l-2 3l160 206q28 0 45.5 -15.5t17.5 -37.5z" />
    <glyph glyph-name="thorn" unicode="&#xfe;" horiz-adv-x="673" 
d="M402 750l-78 -430h8q21 86 70 133t121 47q74 0 117 -53.5t43 -136.5q0 -141 -100.5 -235.5t-257.5 -94.5q-20 0 -35 3l-22 -153q-5 -35 6.5 -53t46.5 -18l-1 -9h-343l1 9q58 0 68 71l117 803q2 14 2 20q0 38 -47 38l-3 9q68 0 139.5 12.5t109.5 25.5zM407 427
q-36 0 -67 -114.5t-31 -228.5q0 -96 36 -96q31 0 54.5 60t34 133.5t10.5 136.5q0 109 -37 109z" />
    <glyph glyph-name="ydieresis" unicode="&#xff;" horiz-adv-x="666" 
d="M438 240h-6q-18 -68 -43.5 -117.5t-50 -76t-54.5 -42.5t-52 -20t-48 -4q-43 0 -73.5 25t-30.5 67q0 40 12 114q34 211 34 249q0 24 -20 24q-14 0 -28 -9l-4 7q6 5 18 12t51 19t82 12q112 0 116 -96q0 -22 -2 -34l-32 -235q-5 -33 -5 -59q1 -20 14 -20q23 0 54 55
t54.5 142.5t23.5 166.5q0 44 -11 64q31 16 98 16q121 0 125 -96q0 -22 -2 -35l-48 -338q-12 -81 -48 -141t-89.5 -94t-115 -50t-131.5 -16q-93 0 -140 29.5t-47 82.5q0 35 27.5 58t67.5 23q44 0 76 -27q-38 -50 -38 -105q0 -51 44 -51q65 0 101.5 51t55.5 143zM293 543
q-37 0 -56 20t-19 52q0 42 26.5 70.5t72.5 28.5q37 0 56.5 -20.5t19.5 -52.5q0 -42 -26.5 -70t-73.5 -28zM516 543q-36 0 -55 20t-19 52q0 42 26.5 70.5t71.5 28.5q38 0 57.5 -20.5t19.5 -52.5q0 -43 -26 -70.5t-75 -27.5z" />
    <glyph glyph-name="Amacron" unicode="&#x100;" horiz-adv-x="789" 
d="M405 669l180 52l127 -642q14 -69 69 -69l-1 -10q-55 3 -193 3l-187 -3l1 10q64 0 64 61q0 16 -8 66l-23 149h-203l-64 -139q-25 -54 -25 -84t19.5 -41.5t61.5 -11.5l-1 -10q-54 3 -121 3l-93 -3l1 10q79 0 145 139zM238 298h195l-49 304zM360 779h311l-1 -10h-311z" />
    <glyph glyph-name="amacron" unicode="&#x101;" horiz-adv-x="661" 
d="M322 53q35 0 66.5 118t31.5 225q0 96 -36 96q-31 0 -54.5 -60t-34 -133.5t-10.5 -136.5q0 -109 37 -109zM665 500l-62 -428q-3 -20 -3 -28q0 -23 20 -23q13 0 28 9l4 -7q-6 -5 -17 -12t-49 -19t-81 -12t-78 22.5t-35 76.5q0 41 13 81h-8q-23 -92 -68 -136t-123 -44
q-74 0 -115 53t-41 137q0 143 91.5 236.5t246.5 93.5q35 0 92.5 -13t91.5 -13q26 0 49 6.5t33 13.5zM258 615h311l-1 -10h-311z" />
    <glyph glyph-name="Abreve" unicode="&#x102;" horiz-adv-x="789" 
d="M405 669l180 52l127 -642q14 -69 69 -69l-1 -10q-55 3 -193 3l-187 -3l1 10q64 0 64 61q0 16 -8 66l-23 149h-203l-64 -139q-25 -54 -25 -84t19.5 -41.5t61.5 -11.5l-1 -10q-54 3 -121 3l-93 -3l1 10q79 0 145 139zM238 298h195l-49 304zM662 895h10q-3 -60 -47 -102.5
t-115 -42.5q-145 0 -145 116q0 9 2 29h116q-1 -5 -1 -14q0 -33 21 -53t57 -20q41 0 69 24t33 63z" />
    <glyph glyph-name="abreve" unicode="&#x103;" horiz-adv-x="661" 
d="M322 53q35 0 66.5 118t31.5 225q0 96 -36 96q-31 0 -54.5 -60t-34 -133.5t-10.5 -136.5q0 -109 37 -109zM665 500l-62 -428q-3 -20 -3 -28q0 -23 20 -23q13 0 28 9l4 -7q-6 -5 -17 -12t-49 -19t-81 -12t-78 22.5t-35 76.5q0 41 13 81h-8q-23 -92 -68 -136t-123 -44
q-74 0 -115 53t-41 137q0 143 91.5 236.5t246.5 93.5q35 0 92.5 -13t91.5 -13q26 0 49 6.5t33 13.5zM558 683h10q-3 -60 -47 -102.5t-115 -42.5q-145 0 -145 116q0 9 2 29h116q-1 -5 -1 -14q0 -33 21 -53t57 -20q41 0 69 24t33 63z" />
    <glyph glyph-name="Aogonek" unicode="&#x104;" horiz-adv-x="789" 
d="M784 -202l3 -8q-36 -25 -98 -25q-56 0 -82 21t-26 55q0 50 47 92.5t135 67.5q-48 2 -176 2l-187 -3q0 2 0.5 5t0.5 5q64 0 64 61q0 16 -8 66l-23 149h-203l-64 -139q-25 -54 -25 -84t19.5 -41.5t61.5 -11.5q0 -2 -0.5 -5t-0.5 -5q-54 3 -121 3l-93 -3q0 2 0.5 5t0.5 5
q79 0 145 139l251 520l180 52l127 -642q14 -69 69 -69v-10q-37 -40 -60.5 -85.5t-23.5 -80.5q0 -46 38 -46q26 0 49 10zM238 298h195l-49 304z" />
    <glyph glyph-name="aogonek" unicode="&#x105;" horiz-adv-x="661" 
d="M614 -202l3 -8q-36 -25 -98 -25q-56 0 -82 21t-26 55q0 40 34.5 76.5t96.5 64.5q-24 -2 -37 -2q-43 0 -78 22.5t-35 76.5q0 41 13 81h-8q-23 -92 -68 -136t-123 -44q-74 0 -115 53t-41 137q0 143 91.5 236.5t246.5 93.5q35 0 92.5 -13t91.5 -13q26 0 49 6.5t33 13.5l11 6
l-62 -428q-3 -20 -3 -28q0 -23 20 -23q13 0 28 9l4 -7q-58 -40 -91.5 -93t-33.5 -96q0 -46 38 -46q26 0 49 10zM322 53q35 0 66.5 118t31.5 225q0 96 -36 96q-31 0 -54.5 -60t-34 -133.5t-10.5 -136.5q0 -109 37 -109z" />
    <glyph glyph-name="Cacute" unicode="&#x106;" horiz-adv-x="742" 
d="M390 -19q-155 0 -239.5 79.5t-84.5 213.5q0 114 54 215t156 165.5t227 64.5q62 0 142.5 -16t147.5 -16l-28 -201h-10q-8 107 -74.5 165t-148.5 58q-66 0 -113.5 -74.5t-69.5 -189t-22 -252.5q0 -202 111 -202q74 0 161 75t140 199h10l-66 -243q-58 0 -140 -20.5
t-153 -20.5zM687 906q0 -52 -64 -94.5t-157 -61.5l-2 3l160 206q28 0 45.5 -15.5t17.5 -37.5z" />
    <glyph glyph-name="cacute" unicode="&#x107;" horiz-adv-x="574" 
d="M412 492q-46 0 -86 -86t-40 -202q0 -75 30.5 -121.5t90.5 -46.5q74 0 144 43l3 -4q-94 -95 -244 -95q-125 0 -192.5 58t-67.5 157q0 125 104.5 215t251.5 90q93 0 146 -33t53 -85q0 -39 -29 -64t-79 -25q-58 0 -88 30q17 22 29.5 54t12.5 59q0 56 -39 56zM546 697
q0 -52 -64 -94.5t-157 -61.5l-2 3l160 206q28 0 45.5 -15.5t17.5 -37.5z" />
    <glyph glyph-name="Ccircumflex" unicode="&#x108;" horiz-adv-x="742" 
d="M390 -19q-155 0 -239.5 79.5t-84.5 213.5q0 114 54 215t156 165.5t227 64.5q62 0 142.5 -16t147.5 -16l-28 -201h-10q-8 107 -74.5 165t-148.5 58q-66 0 -113.5 -74.5t-69.5 -189t-22 -252.5q0 -202 111 -202q74 0 161 75t140 199h10l-66 -243q-58 0 -140 -20.5
t-153 -20.5zM699 755l-4 -5l-167 52l-178 -52l-3 5l165 147h62z" />
    <glyph glyph-name="ccircumflex" unicode="&#x109;" horiz-adv-x="574" 
d="M412 492q-46 0 -86 -86t-40 -202q0 -75 30.5 -121.5t90.5 -46.5q74 0 144 43l3 -4q-94 -95 -244 -95q-125 0 -192.5 58t-67.5 157q0 125 104.5 215t251.5 90q93 0 146 -33t53 -85q0 -39 -29 -64t-79 -25q-58 0 -88 30q17 22 29.5 54t12.5 59q0 56 -39 56zM594 553l-4 -5
l-167 52l-178 -52l-3 5l165 147h62z" />
    <glyph glyph-name="Cdotaccent" unicode="&#x10a;" horiz-adv-x="742" 
d="M390 -19q-155 0 -239.5 79.5t-84.5 213.5q0 114 54 215t156 165.5t227 64.5q62 0 142.5 -16t147.5 -16l-28 -201h-10q-8 107 -74.5 165t-148.5 58q-66 0 -113.5 -74.5t-69.5 -189t-22 -252.5q0 -202 111 -202q74 0 161 75t140 199h10l-66 -243q-58 0 -140 -20.5
t-153 -20.5zM541 750q-42 0 -63.5 23t-21.5 59q0 47 30.5 80t82.5 33q43 0 65.5 -23.5t22.5 -60.5q0 -48 -30.5 -79.5t-85.5 -31.5z" />
    <glyph glyph-name="cdotaccent" unicode="&#x10b;" horiz-adv-x="574" 
d="M412 492q-46 0 -86 -86t-40 -202q0 -75 30.5 -121.5t90.5 -46.5q74 0 144 43l3 -4q-94 -95 -244 -95q-125 0 -192.5 58t-67.5 157q0 125 104.5 215t251.5 90q93 0 146 -33t53 -85q0 -39 -29 -64t-79 -25q-58 0 -88 30q17 22 29.5 54t12.5 59q0 56 -39 56zM402 531
q-42 0 -63.5 23t-21.5 59q0 47 30.5 80t82.5 33q43 0 65.5 -23.5t22.5 -60.5q0 -48 -30.5 -79.5t-85.5 -31.5z" />
    <glyph glyph-name="Ccaron" unicode="&#x10c;" horiz-adv-x="742" 
d="M390 -19q-155 0 -239.5 79.5t-84.5 213.5q0 114 54 215t156 165.5t227 64.5q62 0 142.5 -16t147.5 -16l-28 -201h-10q-8 107 -74.5 165t-148.5 58q-66 0 -113.5 -74.5t-69.5 -189t-22 -252.5q0 -202 111 -202q74 0 161 75t140 199h10l-66 -243q-58 0 -140 -20.5
t-153 -20.5zM370 896l4 5l167 -52l179 52l2 -5l-165 -147h-62z" />
    <glyph glyph-name="ccaron" unicode="&#x10d;" horiz-adv-x="574" 
d="M412 492q-46 0 -86 -86t-40 -202q0 -75 30.5 -121.5t90.5 -46.5q74 0 144 43l3 -4q-94 -95 -244 -95q-125 0 -192.5 58t-67.5 157q0 125 104.5 215t251.5 90q93 0 146 -33t53 -85q0 -39 -29 -64t-79 -25q-58 0 -88 30q17 22 29.5 54t12.5 59q0 56 -39 56zM252 695l4 5
l167 -52l179 52l2 -5l-165 -147h-62z" />
    <glyph glyph-name="Dcaron" unicode="&#x10e;" horiz-adv-x="818" 
d="M416 0q-50 0 -114.5 1.5t-89.5 1.5l-192 -3l1 10q75 0 93 125l65 466q7 51 -7.5 70t-54.5 19l1 10q88 -3 192 -3q24 0 88 1.5t96 1.5q162 0 259 -78t97 -213q0 -186 -121 -297.5t-313 -111.5zM397 10q54 0 100.5 62.5t74.5 168.5t28 228q0 219 -145 219q-14 0 -30 -4
l-82 -585q-7 -50 7 -69.5t47 -19.5zM351 897l4 5l167 -52l179 52l2 -5l-165 -147h-62z" />
    <glyph glyph-name="dcaron" unicode="&#x10f;" horiz-adv-x="765" 
d="M322 53q35 0 66.5 118t31.5 225q0 96 -36 96q-31 0 -54.5 -60t-34 -133.5t-10.5 -136.5q0 -109 37 -109zM397 160q-23 -92 -68 -136t-123 -44q-74 0 -115 53t-41 137q0 141 100.5 235.5t257.5 94.5q20 0 35 -3l21 147q4 26 -8 36.5t-39 10.5l-3 9q68 0 139 12.5t109 25.5
l37 12l-96 -678q-3 -20 -3 -28q0 -23 20 -23q13 0 28 9l4 -7q-6 -5 -17 -12t-49 -19t-81 -12t-78 22.5t-35 76.5q0 41 13 81h-8zM738 500l-3 6q20 13 32.5 33.5t12.5 39.5q0 46 -51 63q-1 8 -1 18q0 39 29 64.5t69 25.5q38 0 57.5 -21t19.5 -55q0 -61 -43.5 -101.5
t-121.5 -72.5z" />
    <glyph glyph-name="Dcroat" unicode="&#x110;" horiz-adv-x="818" 
d="M75 362h71l33 239q7 51 -7.5 70t-54.5 19l1 10q88 -3 192 -3q24 0 88 1.5t96 1.5q162 0 259 -78t97 -213q0 -186 -121 -297.5t-313 -111.5q-50 0 -114.5 1.5t-89.5 1.5l-192 -3l1 10q75 0 93 125l30 215h-71zM397 10q54 0 100.5 62.5t74.5 168.5t28 228q0 219 -145 219
q-14 0 -30 -4l-46 -322h124l-2 -12h-123l-35 -251q-7 -50 7 -69.5t47 -19.5z" />
    <glyph glyph-name="dcroat" unicode="&#x111;" horiz-adv-x="665" 
d="M397 160q-23 -93 -67 -135q-46 -45 -124 -45q-74 0 -115 53t-41 137q0 141 99 234q103 96 259 96q20 0 35 -3l12 86h-70l2 10h70l7 51q4 26 -8 36.5t-39 10.5l-3 9q68 0 139 12.5t109 25.5l37 12l-22 -157h43l-2 -10h-43l-72 -511q-3 -20 -3 -28q0 -23 20 -23q13 0 28 9
l4 -7q-6 -5 -17 -12t-49 -19t-81 -12t-78 23t-35 76q0 41 13 81h-8zM322 53q35 0 66.5 118t31.5 225q0 96 -36 96q-38 0 -63 -82t-33 -184q-3 -34 -3 -64q0 -109 37 -109z" />
    <glyph glyph-name="Emacron" unicode="&#x112;" horiz-adv-x="678" 
d="M717 700l-30 -214h-10q0 98 -53 150t-145 52q-33 0 -54 -6l-43 -305h52q55 0 96.5 36t50.5 104h10l-45 -320h-10q9 68 -21 118t-101 50h-34l-37 -266q-7 -51 7.5 -70t54.5 -19q82 0 162 72t120 192h11l-84 -274q-85 0 -219 1.5t-183 1.5l-192 -3l1 10q75 0 93 125l65 466
q7 51 -7.5 70t-54.5 19l1 10q88 -3 192 -3q48 0 190.5 1.5t216.5 1.5zM304 779h311l-1 -10h-311z" />
    <glyph glyph-name="emacron" unicode="&#x113;" horiz-adv-x="593" 
d="M286 200q0 -78 32.5 -121t93.5 -43q66 0 134 44l4 -5q-86 -95 -246 -95q-124 0 -189 57t-65 156q0 127 104 217t258 90q97 0 150 -38.5t53 -91.5q0 -55 -55 -94.5t-163 -39.5q-61 0 -108 11q-3 -18 -3 -47zM290 255q54 5 101.5 65.5t47.5 122.5q0 49 -27 49
q-30 0 -68 -64.5t-54 -172.5zM268 615h311l-1 -10h-311z" />
    <glyph glyph-name="Ebreve" unicode="&#x114;" horiz-adv-x="678" 
d="M717 700l-30 -214h-10q0 98 -53 150t-145 52q-33 0 -54 -6l-43 -305h52q55 0 96.5 36t50.5 104h10l-45 -320h-10q9 68 -21 118t-101 50h-34l-37 -266q-7 -51 7.5 -70t54.5 -19q82 0 162 72t120 192h11l-84 -274q-85 0 -219 1.5t-183 1.5l-192 -3l1 10q75 0 93 125l65 466
q7 51 -7.5 70t-54.5 19l1 10q88 -3 192 -3q48 0 190.5 1.5t216.5 1.5zM621 895h10q-3 -60 -47 -102.5t-115 -42.5q-145 0 -145 116q0 9 2 29h116q-1 -5 -1 -14q0 -33 21 -53t57 -20q41 0 69 24t33 63z" />
    <glyph glyph-name="ebreve" unicode="&#x115;" horiz-adv-x="593" 
d="M286 200q0 -78 32.5 -121t93.5 -43q66 0 134 44l4 -5q-86 -95 -246 -95q-124 0 -189 57t-65 156q0 127 104 217t258 90q97 0 150 -38.5t53 -91.5q0 -55 -55 -94.5t-163 -39.5q-61 0 -108 11q-3 -18 -3 -47zM290 255q54 5 101.5 65.5t47.5 122.5q0 49 -27 49
q-30 0 -68 -64.5t-54 -172.5zM575 683h10q-3 -60 -47 -102.5t-115 -42.5q-145 0 -145 116q0 9 2 29h116q-1 -5 -1 -14q0 -33 21 -53t57 -20q41 0 69 24t33 63z" />
    <glyph glyph-name="Edotaccent" unicode="&#x116;" horiz-adv-x="678" 
d="M717 700l-30 -214h-10q0 98 -53 150t-145 52q-33 0 -54 -6l-43 -305h52q55 0 96.5 36t50.5 104h10l-45 -320h-10q9 68 -21 118t-101 50h-34l-37 -266q-7 -51 7.5 -70t54.5 -19q82 0 162 72t120 192h11l-84 -274q-85 0 -219 1.5t-183 1.5l-192 -3l1 10q75 0 93 125l65 466
q7 51 -7.5 70t-54.5 19l1 10q88 -3 192 -3q48 0 190.5 1.5t216.5 1.5zM459 750q-42 0 -63.5 23t-21.5 59q0 47 30.5 80t82.5 33q43 0 65.5 -23.5t22.5 -60.5q0 -48 -30.5 -79.5t-85.5 -31.5z" />
    <glyph glyph-name="edotaccent" unicode="&#x117;" horiz-adv-x="593" 
d="M286 200q0 -78 32.5 -121t93.5 -43q66 0 134 44l4 -5q-86 -95 -246 -95q-124 0 -189 57t-65 156q0 127 104 217t258 90q97 0 150 -38.5t53 -91.5q0 -55 -55 -94.5t-163 -39.5q-61 0 -108 11q-3 -18 -3 -47zM290 255q54 5 101.5 65.5t47.5 122.5q0 49 -27 49
q-30 0 -68 -64.5t-54 -172.5zM414 531q-42 0 -63.5 23t-21.5 59q0 47 30.5 80t82.5 33q43 0 65.5 -23.5t22.5 -60.5q0 -48 -30.5 -79.5t-85.5 -31.5z" />
    <glyph glyph-name="Eogonek" unicode="&#x118;" horiz-adv-x="678" 
d="M618 -202l3 -8q-13 -10 -38 -17q-27 -8 -60 -8q-56 0 -82 21t-26 55q0 50 48.5 92t135.5 67q-79 0 -209.5 1.5t-177.5 1.5l-192 -3q0 2 0.5 5t0.5 5q75 0 93 125l65 466q7 51 -7.5 70t-54.5 19q0 2 0.5 5t0.5 5q49 -2 118 -3h74q48 0 190.5 1.5t216.5 1.5l-30 -214h-10
q0 98 -53 150t-145 52q-33 0 -54 -6l-43 -305h52q55 0 96.5 36t50.5 104h10l-45 -320h-10q9 68 -21 118t-101 50h-34l-37 -266q-7 -51 7.5 -70t54.5 -19q81 0 161.5 72t120.5 192h11l-84 -274q-37 -40 -60 -85.5t-23 -80.5q0 -46 38 -46q26 0 49 10z" />
    <glyph glyph-name="eogonek" unicode="&#x119;" horiz-adv-x="593" 
d="M438 -202l3 -8q-36 -25 -98 -25q-56 0 -82 21t-26 55q0 43 34 80.5t100 63.5q-35 -5 -65 -5q-124 0 -189 57t-65 156q0 127 104 217t258 90q97 0 150 -38.5t53 -91.5q0 -55 -55 -94.5t-163 -39.5q-61 0 -108 11q-3 -18 -3 -47q0 -78 32.5 -121t93.5 -43q66 0 134 44l4 -6
q-5 -4 -33 -25.5t-44 -35t-42.5 -38.5t-41.5 -45t-26.5 -46t-11.5 -50q0 -46 38 -46q26 0 49 10zM290 255q54 5 101.5 65.5t47.5 122.5q0 49 -27 49q-30 0 -68 -64.5t-54 -172.5z" />
    <glyph glyph-name="Ecaron" unicode="&#x11a;" horiz-adv-x="678" 
d="M717 700l-30 -214h-10q0 98 -53 150t-145 52q-33 0 -54 -6l-43 -305h52q55 0 96.5 36t50.5 104h10l-45 -320h-10q9 68 -21 118t-101 50h-34l-37 -266q-7 -51 7.5 -70t54.5 -19q82 0 162 72t120 192h11l-84 -274q-85 0 -219 1.5t-183 1.5l-192 -3l1 10q75 0 93 125l65 466
q7 51 -7.5 70t-54.5 19l1 10q88 -3 192 -3q48 0 190.5 1.5t216.5 1.5zM298 897l4 5l167 -52l179 52l2 -5l-165 -147h-62z" />
    <glyph glyph-name="ecaron" unicode="&#x11b;" horiz-adv-x="593" 
d="M286 200q0 -78 32.5 -121t93.5 -43q66 0 134 44l4 -5q-86 -95 -246 -95q-124 0 -189 57t-65 156q0 127 104 217t258 90q97 0 150 -38.5t53 -91.5q0 -55 -55 -94.5t-163 -39.5q-61 0 -108 11q-3 -18 -3 -47zM290 255q54 5 101.5 65.5t47.5 122.5q0 49 -27 49
q-30 0 -68 -64.5t-54 -172.5zM254 695l4 5l167 -52l179 52l2 -5l-165 -147h-62z" />
    <glyph glyph-name="Gcircumflex" unicode="&#x11c;" horiz-adv-x="837" 
d="M864 337l-2 -10q-74 0 -92 -125l-26 -180q-82 0 -173 -20.5t-181 -20.5q-155 0 -239.5 79.5t-84.5 213.5q0 114 54 215t156 165.5t227 64.5q62 0 142.5 -16t147.5 -16l-28 -201h-10q-8 107 -74.5 165t-148.5 58q-66 0 -113.5 -74.5t-69.5 -189t-22 -252.5
q0 -202 111 -202q38 0 58 20t26 64l23 163q7 51 -8 70t-55 19l2 10h380zM709 755l-4 -5l-167 52l-178 -52l-3 5l165 147h62z" />
    <glyph glyph-name="gcircumflex" unicode="&#x11d;" horiz-adv-x="658" 
d="M424 416q0 76 -38 76q-49 0 -78.5 -101.5t-29.5 -228.5q0 -108 37 -108q34 0 71.5 131.5t37.5 230.5zM356 -66l38 226h-8q-15 -57 -36.5 -94.5t-47 -55t-49 -24t-54.5 -6.5q-72 0 -114 53.5t-42 136.5q0 138 101.5 234t246.5 96q40 0 99.5 -15.5t83.5 -15.5q28 0 50 7.5
t30 15.5l9 8l-70 -469q-10 -65 -35.5 -116.5t-62 -86t-83.5 -57t-97 -32t-106 -9.5q-93 0 -140 29.5t-47 82.5q0 35 27.5 58t67.5 23q45 0 76 -27q-38 -50 -38 -105q0 -51 44 -51q125 0 157 194zM572 553l-4 -5l-167 52l-178 -52l-3 5l165 147h62z" />
    <glyph glyph-name="Gbreve" unicode="&#x11e;" horiz-adv-x="837" 
d="M864 337l-2 -10q-74 0 -92 -125l-26 -180q-82 0 -173 -20.5t-181 -20.5q-155 0 -239.5 79.5t-84.5 213.5q0 114 54 215t156 165.5t227 64.5q62 0 142.5 -16t147.5 -16l-28 -201h-10q-8 107 -74.5 165t-148.5 58q-66 0 -113.5 -74.5t-69.5 -189t-22 -252.5
q0 -202 111 -202q38 0 58 20t26 64l23 163q7 51 -8 70t-55 19l2 10h380zM702 895h10q-3 -60 -47 -102.5t-115 -42.5q-145 0 -145 116q0 9 2 29h116q-1 -5 -1 -14q0 -33 21 -53t57 -20q41 0 69 24t33 63z" />
    <glyph glyph-name="gbreve" unicode="&#x11f;" horiz-adv-x="658" 
d="M424 416q0 76 -38 76q-49 0 -78.5 -101.5t-29.5 -228.5q0 -108 37 -108q34 0 71.5 131.5t37.5 230.5zM356 -66l38 226h-8q-15 -57 -36.5 -94.5t-47 -55t-49 -24t-54.5 -6.5q-72 0 -114 53.5t-42 136.5q0 138 101.5 234t246.5 96q40 0 99.5 -15.5t83.5 -15.5q28 0 50 7.5
t30 15.5l9 8l-70 -469q-10 -65 -35.5 -116.5t-62 -86t-83.5 -57t-97 -32t-106 -9.5q-93 0 -140 29.5t-47 82.5q0 35 27.5 58t67.5 23q45 0 76 -27q-38 -50 -38 -105q0 -51 44 -51q125 0 157 194zM568 683h10q-3 -60 -47 -102.5t-115 -42.5q-145 0 -145 116q0 9 2 29h116
q-1 -5 -1 -14q0 -33 21 -53t57 -20q41 0 69 24t33 63z" />
    <glyph glyph-name="Gdotaccent" unicode="&#x120;" horiz-adv-x="837" 
d="M864 337l-2 -10q-74 0 -92 -125l-26 -180q-82 0 -173 -20.5t-181 -20.5q-155 0 -239.5 79.5t-84.5 213.5q0 114 54 215t156 165.5t227 64.5q62 0 142.5 -16t147.5 -16l-28 -201h-10q-8 107 -74.5 165t-148.5 58q-66 0 -113.5 -74.5t-69.5 -189t-22 -252.5
q0 -202 111 -202q38 0 58 20t26 64l23 163q7 51 -8 70t-55 19l2 10h380zM542 750q-42 0 -63.5 23t-21.5 59q0 47 30.5 80t82.5 33q43 0 65.5 -23.5t22.5 -60.5q0 -48 -30.5 -79.5t-85.5 -31.5z" />
    <glyph glyph-name="gdotaccent" unicode="&#x121;" horiz-adv-x="658" 
d="M424 416q0 76 -38 76q-49 0 -78.5 -101.5t-29.5 -228.5q0 -108 37 -108q34 0 71.5 131.5t37.5 230.5zM356 -66l38 226h-8q-15 -57 -36.5 -94.5t-47 -55t-49 -24t-54.5 -6.5q-72 0 -114 53.5t-42 136.5q0 138 101.5 234t246.5 96q40 0 99.5 -15.5t83.5 -15.5q28 0 50 7.5
t30 15.5l9 8l-70 -469q-10 -65 -35.5 -116.5t-62 -86t-83.5 -57t-97 -32t-106 -9.5q-93 0 -140 29.5t-47 82.5q0 35 27.5 58t67.5 23q45 0 76 -27q-38 -50 -38 -105q0 -51 44 -51q125 0 157 194zM398 531q-42 0 -63.5 23t-21.5 59q0 47 30.5 80t82.5 33q43 0 65.5 -23.5
t22.5 -60.5q0 -48 -30.5 -79.5t-85.5 -31.5z" />
    <glyph glyph-name="Gcommaaccent" unicode="&#x122;" horiz-adv-x="837" 
d="M864 337l-2 -10q-74 0 -92 -125l-26 -180q-82 0 -173 -20.5t-181 -20.5q-155 0 -239.5 79.5t-84.5 213.5q0 114 54 215t156 165.5t227 64.5q62 0 142.5 -16t147.5 -16l-28 -201h-10q-8 107 -74.5 165t-148.5 58q-66 0 -113.5 -74.5t-69.5 -189t-22 -252.5
q0 -202 111 -202q38 0 58 20t26 64l23 163q7 51 -8 70t-55 19l2 10h380zM328 -296l-3 6q20 13 32.5 33.5t12.5 39.5q0 46 -51 63q-1 8 -1 18q0 39 29 64.5t69 25.5q38 0 57.5 -21t19.5 -55q0 -61 -43.5 -101.5t-121.5 -72.5z" />
    <glyph glyph-name="gcommaaccent" unicode="&#x123;" horiz-adv-x="658" 
d="M424 416q0 76 -38 76q-49 0 -78.5 -101.5t-29.5 -228.5q0 -108 37 -108q34 0 71.5 131.5t37.5 230.5zM356 -66l38 226h-8q-15 -57 -36.5 -94.5t-47 -55t-49 -24t-54.5 -6.5q-72 0 -114 53.5t-42 136.5q0 138 101.5 234t246.5 96q40 0 99.5 -15.5t83.5 -15.5q28 0 50 7.5
t30 15.5l9 8l-70 -469q-10 -65 -35.5 -116.5t-62 -86t-83.5 -57t-97 -32t-106 -9.5q-93 0 -140 29.5t-47 82.5q0 35 27.5 58t67.5 23q45 0 76 -27q-38 -50 -38 -105q0 -51 44 -51q125 0 157 194zM496 780l3 -6q-20 -13 -32.5 -33.5t-12.5 -39.5q0 -46 51 -63q1 -8 1 -18
q0 -39 -29 -64.5t-69 -25.5q-38 0 -57.5 21t-19.5 55q0 61 43.5 101.5t121.5 72.5z" />
    <glyph glyph-name="Hcircumflex" unicode="&#x124;" horiz-adv-x="853" 
d="M931 700l-1 -10q-75 0 -93 -125l-65 -466q-7 -51 7.5 -70t54.5 -19l-1 -10q-88 3 -192 3l-192 -3l1 10q75 0 93 125l31 224h-195l-36 -260q-7 -51 7.5 -70t54.5 -19l-1 -10q-88 3 -192 3l-192 -3l1 10q75 0 93 125l65 466q7 51 -7.5 70t-54.5 19l1 10q88 -3 192 -3l192 3
l-1 -10q-75 0 -93 -125l-27 -194h195l32 230q7 51 -7.5 70t-54.5 19l1 10q88 -3 192 -3zM714 755l-4 -5l-167 52l-178 -52l-3 5l165 147h62z" />
    <glyph glyph-name="hcircumflex" unicode="&#x125;" horiz-adv-x="669" 
d="M99 700q68 0 139.5 12.5t109.5 25.5l38 12l-93 -510h6q72 260 252 260q43 0 73.5 -25t30.5 -67q0 -40 -12 -114q-34 -211 -34 -249q0 -24 20 -24q15 0 28 9l4 -7q-6 -5 -18 -12t-51 -19t-82 -12q-114 0 -118 96q0 22 2 34l34 235q5 33 5 59q0 20 -14 20
q-25 0 -56.5 -53.5t-55.5 -140.5t-24 -170q0 -44 11 -64q-39 -16 -106 -16q-113 0 -117 96q0 22 2 35l75 529q4 28 -7 39.5t-39 11.5zM566 755l-4 -5l-167 52l-178 -52l-3 5l165 147h62z" />
    <glyph glyph-name="Hbar" unicode="&#x126;" horiz-adv-x="853" 
d="M931 700l-1 -10q-75 0 -93 -125l-10 -69h75l-1 -10h-75l-54 -387q-7 -51 7.5 -70t54.5 -19l-1 -10q-88 3 -192 3l-192 -3l1 10q75 0 93 125l31 224h-195l-36 -260q-7 -51 7.5 -70t54.5 -19l-1 -10q-88 3 -192 3l-192 -3l1 10q75 0 93 125l49 351h-74l1 10h74l15 105
q7 51 -7.5 70t-54.5 19l1 10q88 -3 192 -3l192 3l-1 -10q-75 0 -93 -125l-10 -69h195l15 105q7 51 -7.5 70t-54.5 19l1 10q88 -3 192 -3zM592 486h-195l-16 -115h195z" />
    <glyph glyph-name="hbar" unicode="&#x127;" horiz-adv-x="669" 
d="M657 30l4 -7q-6 -5 -18 -12t-51 -19t-82 -12q-114 0 -118 96q0 22 2 34l34 235q5 33 5 59q0 20 -14 20q-25 0 -56.5 -53.5t-55.5 -140.5t-24 -170q0 -44 11 -64q-39 -16 -106 -16q-113 0 -117 96q0 22 2 35l67 472h-43l1 10h43l7 47q4 28 -7 39.5t-39 11.5l-3 9
q68 0 139.5 12.5t109.5 25.5l38 12l-29 -157h110l-1 -10h-111l-62 -343h6q72 260 252 260q43 0 73.5 -25t30.5 -67q0 -40 -12 -114q-34 -211 -34 -249q0 -24 20 -24q15 0 28 9z" />
    <glyph glyph-name="Itilde" unicode="&#x128;" 
d="M502 700l-1 -10q-75 0 -93 -125l-65 -466q-7 -51 7.5 -70t54.5 -19l-1 -10q-88 3 -192 3l-192 -3l1 10q75 0 93 125l65 466q7 51 -7.5 70t-54.5 19l1 10q88 -3 192 -3zM462 848q48 0 65 55l7 -5q-10 -72 -47 -110t-92 -38q-41 0 -97.5 26t-83.5 26q-49 0 -66 -55l-7 5
q11 74 47.5 111t91.5 37q43 0 100 -26t82 -26z" />
    <glyph glyph-name="itilde" unicode="&#x129;" horiz-adv-x="368" 
d="M361 500l-61 -429q-3 -19 -3 -27q0 -23 20 -23q13 0 28 9l4 -7q-6 -5 -18 -12t-51 -19t-82 -12q-112 0 -116 96q0 21 2 34l38 273q2 14 2 20q0 38 -47 38l-3 9q68 0 139.5 12.5t109.5 25.5zM387 657q48 0 65 55l7 -5q-10 -72 -47 -110t-92 -38q-41 0 -97.5 26t-83.5 26
q-49 0 -66 -55l-7 5q11 74 47.5 111t91.5 37q43 0 100 -26t82 -26z" />
    <glyph glyph-name="Imacron" unicode="&#x12a;" 
d="M502 700l-1 -10q-75 0 -93 -125l-65 -466q-7 -51 7.5 -70t54.5 -19l-1 -10q-88 3 -192 3l-192 -3l1 10q75 0 93 125l65 466q7 51 -7.5 70t-54.5 19l1 10q88 -3 192 -3zM174 779h311l-1 -10h-311z" />
    <glyph glyph-name="imacron" unicode="&#x12b;" horiz-adv-x="368" 
d="M361 500l-61 -429q-3 -19 -3 -27q0 -23 20 -23q13 0 28 9l4 -7q-6 -5 -18 -12t-51 -19t-82 -12q-112 0 -116 96q0 21 2 34l38 273q2 14 2 20q0 38 -47 38l-3 9q68 0 139.5 12.5t109.5 25.5zM108 615h311l-1 -10h-311z" />
    <glyph glyph-name="Ibreve" unicode="&#x12c;" 
d="M502 700l-1 -10q-75 0 -93 -125l-65 -466q-7 -51 7.5 -70t54.5 -19l-1 -10q-88 3 -192 3l-192 -3l1 10q75 0 93 125l65 466q7 51 -7.5 70t-54.5 19l1 10q88 -3 192 -3zM488 895h10q-3 -60 -47 -102.5t-115 -42.5q-145 0 -145 116q0 9 2 29h116q-1 -5 -1 -14q0 -33 21 -53
t57 -20q41 0 69 24t33 63z" />
    <glyph glyph-name="ibreve" unicode="&#x12d;" horiz-adv-x="368" 
d="M361 500l-61 -429q-3 -19 -3 -27q0 -23 20 -23q13 0 28 9l4 -7q-6 -5 -18 -12t-51 -19t-82 -12q-112 0 -116 96q0 21 2 34l38 273q2 14 2 20q0 38 -47 38l-3 9q68 0 139.5 12.5t109.5 25.5zM423 683h10q-3 -60 -47 -102.5t-115 -42.5q-145 0 -145 116q0 9 2 29h116
q-1 -5 -1 -14q0 -33 21 -53t57 -20q41 0 69 24t33 63z" />
    <glyph glyph-name="Iogonek" unicode="&#x12e;" 
d="M408 -202l3 -8q-36 -25 -98 -25q-30 0 -51 6q-57 16 -57 70q0 50 46 92t133 67l-172 3q-55 1 -97.5 0t-68.5 -2l-26 -1q0 2 0.5 5t0.5 5q75 0 93 125l65 466q7 51 -7.5 70t-54.5 19q0 2 0.5 5t0.5 5q88 -3 192 -3l192 3q0 -2 -0.5 -5t-0.5 -5q-75 0 -93 -125l-65 -466
q-7 -51 7.5 -70t54.5 -19l-1 -10q-35 -38 -59 -84.5t-24 -81.5q0 -46 38 -46v0q26 0 49 10z" />
    <glyph glyph-name="iogonek" unicode="&#x12f;" horiz-adv-x="368" 
d="M308 -202l3 -8q-36 -25 -98 -25q-56 0 -82 21t-26 55q0 41 34.5 78.5t97.5 63.5q-18 -3 -39 -3q-112 0 -116 96q0 21 2 34l38 273q2 14 2 20q0 38 -47 38l-3 9q68 0 139.5 12.5t109.5 25.5l38 12l-61 -429q-3 -19 -3 -27q0 -23 20 -23q13 0 28 9l4 -7
q-63 -39 -95.5 -91.5t-32.5 -97.5q0 -46 38 -46q26 0 49 10zM253 533q-50 0 -76 23t-26 60q0 49 34 80.5t95 31.5q51 0 77 -23.5t26 -62.5q0 -48 -34 -78.5t-96 -30.5z" />
    <glyph glyph-name="Idotaccent" unicode="&#x130;" 
d="M502 700l-1 -10q-75 0 -93 -125l-65 -466q-7 -51 7.5 -70t54.5 -19l-1 -10q-88 3 -192 3l-192 -3l1 10q75 0 93 125l65 466q7 51 -7.5 70t-54.5 19l1 10q88 -3 192 -3zM326 750q-42 0 -63.5 23t-21.5 59q0 47 30.5 80t82.5 33q43 0 65.5 -23.5t22.5 -60.5
q0 -48 -30.5 -79.5t-85.5 -31.5z" />
    <glyph glyph-name="dotlessi" unicode="&#x131;" horiz-adv-x="368" 
d="M361 500l-61 -429q-3 -19 -3 -27q0 -23 20 -23q13 0 28 9l4 -7q-6 -5 -18 -12t-51 -19t-82 -12q-112 0 -116 96q0 21 2 34l38 273q2 14 2 20q0 38 -47 38l-3 9q68 0 139.5 12.5t109.5 25.5z" />
    <glyph glyph-name="IJ" unicode="&#x132;" horiz-adv-x="848" 
d="M502 700l-1 -10q-75 0 -93 -125l-65 -466q-7 -51 7.5 -70t54.5 -19l-1 -10q-88 3 -192 3l-192 -3l1 10q75 0 93 125l65 466q7 51 -7.5 70t-54.5 19l1 10q88 -3 192 -3zM391 -217q12 16 38.5 40t40.5 42q35 44 50 147l83 589q7 51 -8 70t-55 19l2 10q87 -3 191 -3l193 3
l-2 -10q-74 0 -92 -125l-68 -488q-10 -68 -31 -109.5t-60 -71.5q-34 -27 -89 -42.5t-106.5 -31.5t-81.5 -46z" />
    <glyph glyph-name="ij" unicode="&#x133;" horiz-adv-x="725" 
d="M253 533q-50 0 -76 23t-26 60q0 49 34 80.5t95 31.5q51 0 77 -23.5t26 -62.5q0 -48 -34 -78.5t-96 -30.5zM361 500l-61 -429q-3 -19 -3 -27q0 -23 20 -23q13 0 28 9l4 -7q-6 -5 -18 -12t-51 -19t-82 -12q-112 0 -116 96q0 21 2 34l38 273q2 14 2 20q0 38 -47 38l-3 9
q68 0 139.5 12.5t109.5 25.5zM441 441l-3 9q68 0 139.5 12.5t109.5 25.5l38 12l-58 -449q-20 -158 -129 -212q-37 -18 -132.5 -38.5t-130.5 -45.5l-5 7q7 6 54 37.5t66 58.5q16 22 26.5 50.5t14.5 51.5t10 69l46 353q2 14 2 21q0 38 -48 38zM618 533q-50 0 -76.5 23
t-26.5 60q0 49 34 80.5t95 31.5q51 0 77 -23.5t26 -62.5q0 -48 -34 -78.5t-95 -30.5z" />
    <glyph glyph-name="Jcircumflex" unicode="&#x134;" 
d="M-33 -217q12 16 38.5 40t40.5 42q35 44 50 147l83 589q7 51 -8 70t-55 19l2 10q87 -3 191 -3l193 3l-2 -10q-74 0 -92 -125l-68 -488q-10 -68 -31 -109.5t-60 -71.5q-34 -27 -89 -42.5t-106.5 -31.5t-81.5 -46zM498 755l-4 -5l-167 52l-178 -52l-3 5l165 147h62z" />
    <glyph glyph-name="jcircumflex" unicode="&#x135;" horiz-adv-x="372" 
d="M84 29l50 354q2 14 2 20q0 38 -48 38l-3 9q68 0 139.5 12.5t109.5 25.5l38 12l-62 -449q-22 -159 -129 -212q-37 -18 -132.5 -38.5t-130.5 -45.5l-5 7q7 6 54 37.5t66 58.5q16 22 26.5 50.5t14.5 51.5t10 69zM445 553l-4 -5l-167 52l-178 -52l-3 5l165 147h62z" />
    <glyph glyph-name="Kcommaaccent" unicode="&#x136;" horiz-adv-x="841" 
d="M377 344l-34 -245q-7 -51 7.5 -70t54.5 -19l-1 -10q-88 3 -192 3l-192 -3l1 10q75 0 93 125l65 466q7 51 -7.5 70t-54.5 19l1 10q88 -3 192 -3l192 3l-1 -10q-75 0 -93 -125l-30 -211h32l156 152q52 50 68.5 78t16.5 52q0 25 -19 39.5t-48 14.5l1 10q58 -3 164 -3l142 3
l-1 -10q-122 0 -259 -134l-42 -41l196 -433q14 -31 30 -45.5t41 -14.5l2 -6q-51 -35 -155 -35q-79 0 -130.5 30.5t-76.5 99.5l-72 198q-13 35 -47 35zM347 -296l-3 6q20 13 32.5 33.5t12.5 39.5q0 46 -51 63q-1 8 -1 18q0 39 29 64.5t69 25.5q38 0 57.5 -21t19.5 -55
q0 -61 -43.5 -101.5t-121.5 -72.5z" />
    <glyph glyph-name="kcommaaccent" unicode="&#x137;" horiz-adv-x="667" 
d="M660 408q0 -107 -117 -176l66 -155q14 -36 48 -36q13 0 23 5l3 -5q-6 -6 -17.5 -15t-50.5 -24.5t-82 -15.5q-73 0 -115 36.5t-61 123.5l-18 84q46 35 70 87t24 85q0 22 -14 22q-25 0 -56.5 -53.5t-55.5 -140.5t-24 -170q0 -44 11 -64q-39 -16 -106 -16q-113 0 -117 96
q0 22 2 35l75 529q4 28 -7 39.5t-39 11.5l-3 9q68 0 139.5 12.5t109.5 25.5l38 12l-93 -510h6q72 260 252 260q46 0 77.5 -24t31.5 -68zM250 -296l-3 6q20 13 32.5 33.5t12.5 39.5q0 46 -51 63q-1 8 -1 18q0 39 29 64.5t69 25.5q38 0 57.5 -21t19.5 -55q0 -61 -43.5 -101.5
t-121.5 -72.5z" />
    <glyph glyph-name="kgreenlandic" unicode="&#x138;" horiz-adv-x="677" 
d="M670 408q0 -107 -117 -176l66 -155q14 -36 48 -36q13 0 23 5l3 -5q-6 -6 -17.5 -15t-50.5 -24.5t-82 -15.5q-73 0 -115 36.5t-61 123.5l-18 84q46 35 70 87t24 85q0 22 -14 22q-25 0 -56.5 -53.5t-55.5 -140.5t-24 -170q0 -44 11 -64q-39 -16 -106 -16q-113 0 -117 96
q0 19 2 35l29 283q3 29 -8.5 40t-37.5 11l-3 9q82 0 153.5 12.5t102.5 25.5l31 12l-47 -264h6q72 260 252 260q46 0 77.5 -24t31.5 -68z" />
    <glyph glyph-name="Lacute" unicode="&#x139;" horiz-adv-x="691" 
d="M502 700l-1 -10q-75 0 -93 -125l-65 -465q-2 -14 -2 -31q0 -59 64 -59q63 0 122.5 45t100 106.5t68.5 134.5h10l-84 -296q-92 0 -233.5 1.5t-176.5 1.5l-192 -3l1 10q75 0 93 125l65 466q7 51 -7.5 70t-54.5 19l1 10q88 -3 192 -3zM485 906q0 -52 -64 -94.5t-157 -61.5
l-2 3l160 206q28 0 45.5 -15.5t17.5 -37.5z" />
    <glyph glyph-name="lacute" unicode="&#x13a;" horiz-adv-x="347" 
d="M386 750l-97 -679q-3 -19 -3 -27q0 -23 20 -23q13 0 28 9l4 -7q-6 -5 -18 -12t-51 -19t-82 -12q-112 0 -116 96q0 21 2 34l74 523q2 14 2 20q0 38 -47 38l-3 9q68 0 139.5 12.5t109.5 25.5zM406 906q0 -52 -64 -94.5t-157 -61.5l-2 3l160 206q28 0 45.5 -15.5t17.5 -37.5
z" />
    <glyph glyph-name="Lcommaaccent" unicode="&#x13b;" horiz-adv-x="691" 
d="M502 700l-1 -10q-75 0 -93 -125l-65 -465q-2 -14 -2 -31q0 -59 64 -59q63 0 122.5 45t100 106.5t68.5 134.5h10l-84 -296q-92 0 -233.5 1.5t-176.5 1.5l-192 -3l1 10q75 0 93 125l65 466q7 51 -7.5 70t-54.5 19l1 10q88 -3 192 -3zM249 -296l-3 6q20 13 32.5 33.5
t12.5 39.5q0 46 -51 63q-1 8 -1 18q0 39 29 64.5t69 25.5q38 0 57.5 -21t19.5 -55q0 -61 -43.5 -101.5t-121.5 -72.5z" />
    <glyph glyph-name="lcommaaccent" unicode="&#x13c;" horiz-adv-x="347" 
d="M386 750l-97 -679q-3 -19 -3 -27q0 -23 20 -23q13 0 28 9l4 -7q-6 -5 -18 -12t-51 -19t-82 -12q-112 0 -116 96q0 21 2 34l74 523q2 14 2 20q0 38 -47 38l-3 9q68 0 139.5 12.5t109.5 25.5zM74 -296l-3 6q20 13 32.5 33.5t12.5 39.5q0 46 -51 63q-1 8 -1 18q0 39 29 64.5
t69 25.5q38 0 57.5 -21t19.5 -55q0 -61 -43.5 -101.5t-121.5 -72.5z" />
    <glyph glyph-name="Lcaron" unicode="&#x13d;" horiz-adv-x="691" 
d="M568 464l-4 5q40 30 40 74q0 22 -13 40.5t-38 27.5q0 2 -0.5 8.5t-0.5 9.5q0 39 29 64.5t69 25.5q36 0 56.5 -21.5t20.5 -54.5q0 -114 -159 -179zM502 700l-1 -10q-75 0 -93 -125l-65 -465q-2 -14 -2 -31q0 -59 64 -59q63 0 122.5 45t100 106.5t68.5 134.5h10l-84 -296
q-92 0 -233.5 1.5t-176.5 1.5l-192 -3l1 10q75 0 93 125l65 466q7 51 -7.5 70t-54.5 19l1 10q88 -3 192 -3z" />
    <glyph glyph-name="lcaron" unicode="&#x13e;" horiz-adv-x="487" 
d="M440 464l-4 5q40 30 40 74q0 22 -13 40.5t-38 27.5q0 2 -0.5 8.5t-0.5 9.5q0 39 29 64.5t69 25.5q36 0 56.5 -21.5t20.5 -54.5q0 -114 -159 -179zM386 750l-97 -679q-3 -19 -3 -27q0 -23 20 -23q13 0 28 9l4 -7q-6 -5 -18 -12t-51 -19t-82 -12q-112 0 -116 96q0 21 2 34
l74 523q2 14 2 20q0 38 -47 38l-3 9q68 0 139.5 12.5t109.5 25.5z" />
    <glyph glyph-name="Ldot" unicode="&#x13f;" horiz-adv-x="691" 
d="M502 700l-1 -10q-75 0 -93 -125l-65 -465q-2 -14 -2 -31q0 -59 64 -59q63 0 122.5 45t100 106.5t68.5 134.5h10l-84 -296q-92 0 -233.5 1.5t-176.5 1.5l-192 -3l1 10q75 0 93 125l65 466q7 51 -7.5 70t-54.5 19l1 10q88 -3 192 -3zM540 280q-46 0 -69.5 24.5t-23.5 64.5
q0 52 32.5 87t90.5 35q46 0 70 -25.5t24 -65.5q0 -52 -33 -86t-91 -34z" />
    <glyph glyph-name="ldot" unicode="&#x140;" horiz-adv-x="566" 
d="M403 750l-97 -679q-3 -19 -3 -27q0 -23 20 -23q13 0 28 9l4 -7q-6 -5 -18 -12t-51 -19t-82 -12q-112 0 -116 96q0 21 2 34l74 523q2 14 2 20q0 38 -47 38l-3 9q68 0 139.5 12.5t109.5 25.5zM471 233q-46 0 -69.5 24.5t-23.5 64.5q0 52 32.5 87t90.5 35q46 0 70 -25.5
t24 -65.5q0 -52 -33 -86t-91 -34z" />
    <glyph glyph-name="Lslash" unicode="&#x141;" horiz-adv-x="691" 
d="M502 700l-1 -10q-75 0 -93 -125l-25 -182l162 63l-2 -13l-162 -64l-38 -270q-7 -51 7.5 -70t54.5 -19q63 0 122.5 45t100 106.5t68.5 134.5h10l-84 -296q-92 0 -233.5 1.5t-176.5 1.5l-192 -3l1 10q75 0 93 125l19 137l-55 -21l2 14l55 21l44 315q7 51 -7.5 70t-54.5 19
l1 10q88 -3 192 -3z" />
    <glyph glyph-name="lslash" unicode="&#x142;" horiz-adv-x="379" 
d="M403 750l-42 -295l67 30l-2 -14l-67 -30l-53 -370q-3 -19 -3 -27q0 -23 20 -23q13 0 28 9l4 -7q-6 -5 -18 -12t-51 -19t-82 -12q-112 0 -116 96q0 21 2 34l32 228l-59 -26l2 14l59 26l40 281q2 14 2 20q0 38 -47 38l-3 9q68 0 139.5 12.5t109.5 25.5z" />
    <glyph glyph-name="Nacute" unicode="&#x143;" horiz-adv-x="759" 
d="M684 218l46 327q11 75 -20 110t-91 35l1 10q104 -3 139 -3l90 3l-1 -10q-37 0 -66.5 -35.5t-40.5 -109.5l-77 -545l-156 -18l-322 633l-65 -460q-11 -78 19 -111.5t104 -33.5l-1 -10q-108 3 -143 3l-85 -3l1 10q74 0 95 145l63 446q7 51 -7.5 70t-54.5 19l1 10
q153 -3 339 -3q-1 -34 32 -97zM699 905q0 -52 -64 -94.5t-157 -61.5l-2 3l160 206q28 0 45.5 -15.5t17.5 -37.5z" />
    <glyph glyph-name="nacute" unicode="&#x144;" horiz-adv-x="672" 
d="M304 -4q-39 -16 -106 -16q-113 0 -117 96q0 22 2 35l37 261q3 21 3 35q-1 36 -47 36l-4 8q82 0 153 12.5t101 24.5l31 12l-54 -260h6q23 84 54 139.5t66.5 80t63.5 32.5t61 8q43 0 73.5 -25t30.5 -67q0 -40 -12 -114q-34 -211 -34 -249q0 -24 20 -24q14 0 28 9l4 -7
q-6 -5 -18 -12t-51 -19t-82 -12q-112 0 -116 96q0 22 2 34l32 235q5 33 5 59q-1 20 -14 20q-23 0 -53.5 -55t-53 -142.5t-22.5 -166.5q0 -44 11 -64zM604 697q0 -52 -64 -94.5t-157 -61.5l-2 3l160 206q28 0 45.5 -15.5t17.5 -37.5z" />
    <glyph glyph-name="Ncommaaccent" unicode="&#x145;" horiz-adv-x="759" 
d="M684 218l46 327q11 75 -20 110t-91 35l1 10q104 -3 139 -3l90 3l-1 -10q-37 0 -66.5 -35.5t-40.5 -109.5l-77 -545l-156 -18l-322 633l-65 -460q-11 -78 19 -111.5t104 -33.5l-1 -10q-108 3 -143 3l-85 -3l1 10q74 0 95 145l63 446q7 51 -7.5 70t-54.5 19l1 10
q153 -3 339 -3q-1 -34 32 -97zM271 -296l-3 6q20 13 32.5 33.5t12.5 39.5q0 46 -51 63q-1 8 -1 18q0 39 29 64.5t69 25.5q38 0 57.5 -21t19.5 -55q0 -61 -43.5 -101.5t-121.5 -72.5z" />
    <glyph glyph-name="ncommaaccent" unicode="&#x146;" horiz-adv-x="672" 
d="M304 -4q-39 -16 -106 -16q-113 0 -117 96q0 22 2 35l37 261q3 21 3 35q-1 36 -47 36l-4 8q82 0 153 12.5t101 24.5l31 12l-54 -260h6q23 84 54 139.5t66.5 80t63.5 32.5t61 8q43 0 73.5 -25t30.5 -67q0 -40 -12 -114q-34 -211 -34 -249q0 -24 20 -24q14 0 28 9l4 -7
q-6 -5 -18 -12t-51 -19t-82 -12q-112 0 -116 96q0 22 2 34l32 235q5 33 5 59q-1 20 -14 20q-23 0 -53.5 -55t-53 -142.5t-22.5 -166.5q0 -44 11 -64zM253 -296l-3 6q20 13 32.5 33.5t12.5 39.5q0 46 -51 63q-1 8 -1 18q0 39 29 64.5t69 25.5q38 0 57.5 -21t19.5 -55
q0 -61 -43.5 -101.5t-121.5 -72.5z" />
    <glyph glyph-name="Ncaron" unicode="&#x147;" horiz-adv-x="759" 
d="M684 218l46 327q11 75 -20 110t-91 35l1 10q104 -3 139 -3l90 3l-1 -10q-37 0 -66.5 -35.5t-40.5 -109.5l-77 -545l-156 -18l-322 633l-65 -460q-11 -78 19 -111.5t104 -33.5l-1 -10q-108 3 -143 3l-85 -3l1 10q74 0 95 145l63 446q7 51 -7.5 70t-54.5 19l1 10
q153 -3 339 -3q-1 -34 32 -97zM349 897l4 5l167 -52l179 52l2 -5l-165 -147h-62z" />
    <glyph glyph-name="ncaron" unicode="&#x148;" horiz-adv-x="672" 
d="M304 -4q-39 -16 -106 -16q-113 0 -117 96q0 22 2 35l37 261q3 21 3 35q-1 36 -47 36l-4 8q82 0 153 12.5t101 24.5l31 12l-54 -260h6q23 84 54 139.5t66.5 80t63.5 32.5t61 8q43 0 73.5 -25t30.5 -67q0 -40 -12 -114q-34 -211 -34 -249q0 -24 20 -24q14 0 28 9l4 -7
q-6 -5 -18 -12t-51 -19t-82 -12q-112 0 -116 96q0 22 2 34l32 235q5 33 5 59q-1 20 -14 20q-23 0 -53.5 -55t-53 -142.5t-22.5 -166.5q0 -44 11 -64zM279 695l4 5l167 -52l179 52l2 -5l-165 -147h-62z" />
    <glyph glyph-name="napostrophe" unicode="&#x149;" horiz-adv-x="672" 
d="M304 -4q-39 -16 -106 -16q-113 0 -117 96q0 22 2 35l37 261q3 21 3 35q-1 36 -47 36l-4 8q82 0 153 12.5t101 24.5l31 12l-54 -260h6q23 84 54 139.5t66.5 80t63.5 32.5t61 8q43 0 73.5 -25t30.5 -67q0 -40 -12 -114q-34 -211 -34 -249q0 -24 20 -24q14 0 28 9l4 -7
q-6 -5 -18 -12t-51 -19t-82 -12q-112 0 -116 96q0 22 2 34l32 235q5 33 5 59q-1 20 -14 20q-23 0 -53.5 -55t-53 -142.5t-22.5 -166.5q0 -44 11 -64zM22 470l-3 6q20 13 32.5 33.5t12.5 39.5q0 46 -51 63q-1 8 -1 18q0 39 29 64.5t69 25.5q38 0 57.5 -21t19.5 -55
q0 -61 -43.5 -101.5t-121.5 -72.5z" />
    <glyph glyph-name="Eng" unicode="&#x14a;" horiz-adv-x="759" 
d="M682 209l48 336q11 75 -20 110t-91 35l1 10q104 -3 139 -3l90 3l-1 -10q-37 0 -66.5 -35.5t-40.5 -109.5l-77 -545q-8 -57 -22 -99t-38.5 -78t-65 -54.5t-95.5 -18.5q-53 0 -84.5 23t-31.5 59t26 59t67 23q57 0 76 -44q-32 -19 -32 -52q0 -19 12 -31t34 -12q39 0 71 34
t47.5 76t21.5 84l4 30l-146 -17l-322 633l-65 -460q-11 -78 19 -111.5t104 -33.5l-1 -10q-108 3 -143 3l-85 -3l1 10q74 0 95 145l63 446q7 51 -7.5 70t-54.5 19l1 10q137 -3 323 -3q-1 -35 33 -97z" />
    <glyph glyph-name="eng" unicode="&#x14b;" horiz-adv-x="667" 
d="M304 -4q-39 -16 -106 -16q-113 0 -117 96q0 22 2 35l37 261q3 21 3 35q-1 36 -47 36l-4 8q82 0 153 12.5t101 24.5l31 12l-54 -260h6q23 84 54 139.5t66.5 80t63.5 32.5t61 8q43 0 73.5 -25t30.5 -67q0 -36 -45 -350q-22 -151 -129 -213q-38 -22 -129 -42t-133 -48l-6 7
q11 9 34.5 26t33 25.5t27 25t26 32t20 38.5t18.5 52.5t12 67.5l44 316q5 33 5 59q-1 20 -14 20q-23 0 -53.5 -55t-53 -142.5t-22.5 -166.5q0 -44 11 -64z" />
    <glyph glyph-name="Omacron" unicode="&#x14c;" horiz-adv-x="795" 
d="M407 -9q39 0 76 83.5t58.5 200.5t21.5 220q0 101 -21 157.5t-58 56.5q-39 0 -76 -83.5t-58.5 -200.5t-21.5 -220q0 -101 21 -157.5t58 -56.5zM389 -19q-155 0 -238.5 77.5t-83.5 212.5q0 115 54 217t155.5 166.5t225.5 64.5q155 0 238.5 -77.5t83.5 -212.5
q0 -115 -54 -217t-155.5 -166.5t-225.5 -64.5zM360 779h311l-1 -10h-311z" />
    <glyph glyph-name="omacron" unicode="&#x14d;" horiz-adv-x="643" 
d="M404 500q108 0 178.5 -59.5t70.5 -158.5q0 -119 -98.5 -210.5t-254.5 -91.5q-109 0 -179.5 59.5t-70.5 158.5q0 119 99.5 210.5t254.5 91.5zM323 -12q36 0 67.5 133t31.5 241q0 130 -43 130q-36 0 -68 -132t-32 -240q0 -62 12 -97t32 -35zM266 615h311l-1 -10h-311z" />
    <glyph glyph-name="Obreve" unicode="&#x14e;" horiz-adv-x="795" 
d="M407 -9q39 0 76 83.5t58.5 200.5t21.5 220q0 101 -21 157.5t-58 56.5q-39 0 -76 -83.5t-58.5 -200.5t-21.5 -220q0 -101 21 -157.5t58 -56.5zM389 -19q-155 0 -238.5 77.5t-83.5 212.5q0 115 54 217t155.5 166.5t225.5 64.5q155 0 238.5 -77.5t83.5 -212.5
q0 -115 -54 -217t-155.5 -166.5t-225.5 -64.5zM665 895h10q-3 -60 -47 -102.5t-115 -42.5q-145 0 -145 116q0 9 2 29h116q-1 -5 -1 -14q0 -33 21 -53t57 -20q41 0 69 24t33 63z" />
    <glyph glyph-name="obreve" unicode="&#x14f;" horiz-adv-x="643" 
d="M404 500q108 0 178.5 -59.5t70.5 -158.5q0 -119 -98.5 -210.5t-254.5 -91.5q-109 0 -179.5 59.5t-70.5 158.5q0 119 99.5 210.5t254.5 91.5zM323 -12q36 0 67.5 133t31.5 241q0 130 -43 130q-36 0 -68 -132t-32 -240q0 -62 12 -97t32 -35zM560 683h10q-3 -60 -47 -102.5
t-115 -42.5q-145 0 -145 116q0 9 2 29h116q-1 -5 -1 -14q0 -33 21 -53t57 -20q41 0 69 24t33 63z" />
    <glyph glyph-name="Ohungarumlaut" unicode="&#x150;" horiz-adv-x="795" 
d="M407 -9q39 0 76 83.5t58.5 200.5t21.5 220q0 101 -21 157.5t-58 56.5q-39 0 -76 -83.5t-58.5 -200.5t-21.5 -220q0 -101 21 -157.5t58 -56.5zM389 -19q-155 0 -238.5 77.5t-83.5 212.5q0 115 54 217t155.5 166.5t225.5 64.5q155 0 238.5 -77.5t83.5 -212.5
q0 -115 -54 -217t-155.5 -166.5t-225.5 -64.5zM606 906q0 -52 -64 -94.5t-157 -61.5l-2 3l160 206q28 0 45.5 -15.5t17.5 -37.5zM760 906q0 -52 -64 -94.5t-157 -61.5l-2 3l160 206q28 0 45.5 -15.5t17.5 -37.5z" />
    <glyph glyph-name="ohungarumlaut" unicode="&#x151;" horiz-adv-x="643" 
d="M404 500q108 0 178.5 -59.5t70.5 -158.5q0 -119 -98.5 -210.5t-254.5 -91.5q-109 0 -179.5 59.5t-70.5 158.5q0 119 99.5 210.5t254.5 91.5zM323 -12q36 0 67.5 133t31.5 241q0 130 -43 130q-36 0 -68 -132t-32 -240q0 -62 12 -97t32 -35zM486 697q0 -52 -64 -94.5
t-157 -61.5l-2 3l160 206q28 0 45.5 -15.5t17.5 -37.5zM640 697q0 -52 -64 -94.5t-157 -61.5l-2 3l160 206q28 0 45.5 -15.5t17.5 -37.5z" />
    <glyph glyph-name="OE" unicode="&#x152;" horiz-adv-x="1096" 
d="M1135 700l-30 -214h-10q2 96 -51.5 149t-146.5 53q-34 0 -55 -6l-42 -305h52q54 0 95.5 36t50.5 104h10l-45 -320h-10q10 67 -20 117.5t-101 50.5h-35l-37 -266q-7 -51 8 -70t55 -19q82 0 162.5 72t119.5 192h11l-84 -274q-85 0 -218.5 1.5t-182.5 1.5q-24 0 -61.5 -0.5
t-50.5 -0.5q-63 -21 -130 -21q-155 0 -238.5 77.5t-83.5 212.5q0 115 54 217t155.5 166.5t226.5 64.5q75 0 135 -20q56 -1 132 -1q55 0 176 1t189 1zM407 -9q39 0 76 83.5t58.5 200.5t21.5 220q0 101 -21 157.5t-58 56.5q-39 0 -76 -83.5t-58.5 -200.5t-21.5 -220
q0 -101 21 -157.5t58 -56.5z" />
    <glyph glyph-name="oe" unicode="&#x153;" horiz-adv-x="955" 
d="M648 200q0 -78 32.5 -121t93.5 -43q66 0 134 44l4 -5q-86 -95 -246 -95q-110 0 -176 47q-86 -47 -190 -47q-109 0 -179.5 59.5t-70.5 158.5q0 119 99.5 210.5t254.5 91.5q101 0 167 -51q91 51 203 51q97 0 150 -38.5t53 -91.5q0 -55 -55 -94.5t-163 -39.5q-61 0 -108 11
q-3 -18 -3 -47zM323 -12q36 0 67.5 133t31.5 241q0 130 -43 130q-36 0 -68 -132t-32 -240q0 -62 12 -97t32 -35zM652 255q54 5 101.5 65.5t47.5 122.5q0 49 -27 49q-30 0 -68 -64.5t-54 -172.5z" />
    <glyph glyph-name="Racute" unicode="&#x154;" horiz-adv-x="782" 
d="M762 540q0 -82 -67.5 -137.5t-204.5 -64.5v-4q190 0 217 -157l18 -102q5 -27 17.5 -43t31.5 -16q11 0 17 2l2 -7q-21 -12 -66 -21t-90 -9q-186 0 -186 153v115q0 38 -16.5 58.5t-59.5 20.5l-32 -229q-7 -51 7.5 -70t54.5 -19l-1 -10q-88 3 -192 3l-192 -3l1 10
q75 0 93 125l65 466q7 51 -7.5 70t-54.5 19l1 10q88 -3 192 -3q34 0 106.5 1.5t107.5 1.5q110 0 174 -42t64 -118zM425 684l-48 -343q71 0 109 70t38 156q0 121 -73 121q-15 0 -26 -4zM647 906q0 -52 -64 -94.5t-157 -61.5l-2 3l160 206q28 0 45.5 -15.5t17.5 -37.5z" />
    <glyph glyph-name="racute" unicode="&#x155;" horiz-adv-x="555" 
d="M410 318q16 27 16 47q0 29 -24 29q-39 0 -74 -110.5t-35 -223.5q0 -44 11 -64q-39 -16 -106 -16q-113 0 -117 96q0 22 2 35l37 261q3 21 3 35q-1 36 -47 36l-4 8q82 0 153 12.5t101 24.5l31 12l-55 -260h6q31 135 83.5 197.5t112.5 62.5q42 0 68.5 -24t26.5 -59
q0 -47 -32.5 -83t-88.5 -36q-43 0 -68 20zM557 697q0 -52 -64 -94.5t-157 -61.5l-2 3l160 206q28 0 45.5 -15.5t17.5 -37.5z" />
    <glyph glyph-name="Rcommaaccent" unicode="&#x156;" horiz-adv-x="782" 
d="M762 540q0 -82 -67.5 -137.5t-204.5 -64.5v-4q190 0 217 -157l18 -102q5 -27 17.5 -43t31.5 -16q11 0 17 2l2 -7q-21 -12 -66 -21t-90 -9q-186 0 -186 153v115q0 38 -16.5 58.5t-59.5 20.5l-32 -229q-7 -51 7.5 -70t54.5 -19l-1 -10q-88 3 -192 3l-192 -3l1 10
q75 0 93 125l65 466q7 51 -7.5 70t-54.5 19l1 10q88 -3 192 -3q34 0 106.5 1.5t107.5 1.5q110 0 174 -42t64 -118zM425 684l-48 -343q71 0 109 70t38 156q0 121 -73 121q-15 0 -26 -4zM320 -296l-3 6q20 13 32.5 33.5t12.5 39.5q0 46 -51 63q-1 8 -1 18q0 39 29 64.5
t69 25.5q38 0 57.5 -21t19.5 -55q0 -61 -43.5 -101.5t-121.5 -72.5z" />
    <glyph glyph-name="rcommaaccent" unicode="&#x157;" horiz-adv-x="555" 
d="M410 318q16 27 16 47q0 29 -24 29q-39 0 -74 -110.5t-35 -223.5q0 -44 11 -64q-39 -16 -106 -16q-113 0 -117 96q0 22 2 35l37 261q3 21 3 35q-1 36 -47 36l-4 8q82 0 153 12.5t101 24.5l31 12l-55 -260h6q31 135 83.5 197.5t112.5 62.5q42 0 68.5 -24t26.5 -59
q0 -47 -32.5 -83t-88.5 -36q-43 0 -68 20zM81 -296l-3 6q20 13 32.5 33.5t12.5 39.5q0 46 -51 63q-1 8 -1 18q0 39 29 64.5t69 25.5q38 0 57.5 -21t19.5 -55q0 -61 -43.5 -101.5t-121.5 -72.5z" />
    <glyph glyph-name="Rcaron" unicode="&#x158;" horiz-adv-x="782" 
d="M762 540q0 -82 -67.5 -137.5t-204.5 -64.5v-4q190 0 217 -157l18 -102q5 -27 17.5 -43t31.5 -16q11 0 17 2l2 -7q-21 -12 -66 -21t-90 -9q-186 0 -186 153v115q0 38 -16.5 58.5t-59.5 20.5l-32 -229q-7 -51 7.5 -70t54.5 -19l-1 -10q-88 3 -192 3l-192 -3l1 10
q75 0 93 125l65 466q7 51 -7.5 70t-54.5 19l1 10q88 -3 192 -3q34 0 106.5 1.5t107.5 1.5q110 0 174 -42t64 -118zM425 684l-48 -343q71 0 109 70t38 156q0 121 -73 121q-15 0 -26 -4zM312 897l4 5l167 -52l179 52l2 -5l-165 -147h-62z" />
    <glyph glyph-name="rcaron" unicode="&#x159;" horiz-adv-x="555" 
d="M410 318q16 27 16 47q0 29 -24 29q-39 0 -74 -110.5t-35 -223.5q0 -44 11 -64q-39 -16 -106 -16q-113 0 -117 96q0 22 2 35l37 261q3 21 3 35q-1 36 -47 36l-4 8q82 0 153 12.5t101 24.5l31 12l-55 -260h6q31 135 83.5 197.5t112.5 62.5q42 0 68.5 -24t26.5 -59
q0 -47 -32.5 -83t-88.5 -36q-43 0 -68 20zM234 695l4 5l167 -52l179 52l2 -5l-165 -147h-62z" />
    <glyph glyph-name="Sacute" unicode="&#x15a;" horiz-adv-x="610" 
d="M630 698l-38 -207h-10q0 89 -49.5 153.5t-133.5 64.5q-42 0 -70 -25t-28 -68q0 -40 32.5 -74t78.5 -60.5t92 -56.5t78.5 -76t32.5 -105q0 -119 -92.5 -191t-218.5 -72q-51 0 -120 15t-139 15l25 251h10q0 -117 61 -194t151 -77q65 0 96.5 31.5t31.5 79.5q0 39 -33 73.5
t-80 63t-93.5 60t-79.5 78t-33 103.5q0 108 82.5 173.5t226.5 65.5q32 0 100.5 -10.5t119.5 -10.5zM575 906q0 -52 -64 -94.5t-157 -61.5l-2 3l160 206q28 0 45.5 -15.5t17.5 -37.5z" />
    <glyph glyph-name="sacute" unicode="&#x15b;" horiz-adv-x="518" 
d="M367 376q36 33 36 70q0 46 -60 46q-24 0 -43 -15.5t-19 -41.5q0 -30 24 -56t58 -46.5t68.5 -43t58.5 -55.5t24 -74q0 -85 -70.5 -132.5t-200.5 -47.5q-115 0 -165.5 34.5t-50.5 84.5q0 33 23.5 55t59.5 22q39 0 66 -25q-26 -32 -26 -71q0 -38 21.5 -64t60.5 -26
q33 0 54 18.5t21 46.5q0 29 -23.5 55t-56.5 46.5t-66.5 43t-57 55.5t-23.5 73q0 79 69.5 125.5t180.5 46.5q93 0 141.5 -28.5t48.5 -73.5q0 -29 -21 -47.5t-55 -18.5q-53 0 -77 44zM501 697q0 -52 -64 -94.5t-157 -61.5l-2 3l160 206q28 0 45.5 -15.5t17.5 -37.5z" />
    <glyph glyph-name="Scircumflex" unicode="&#x15c;" horiz-adv-x="610" 
d="M630 698l-38 -207h-10q0 89 -49.5 153.5t-133.5 64.5q-42 0 -70 -25t-28 -68q0 -40 32.5 -74t78.5 -60.5t92 -56.5t78.5 -76t32.5 -105q0 -119 -92.5 -191t-218.5 -72q-51 0 -120 15t-139 15l25 251h10q0 -117 61 -194t151 -77q65 0 96.5 31.5t31.5 79.5q0 39 -33 73.5
t-80 63t-93.5 60t-79.5 78t-33 103.5q0 108 82.5 173.5t226.5 65.5q32 0 100.5 -10.5t119.5 -10.5zM600 755l-4 -5l-167 52l-178 -52l-3 5l165 147h62z" />
    <glyph glyph-name="scircumflex" unicode="&#x15d;" horiz-adv-x="518" 
d="M367 376q36 33 36 70q0 46 -60 46q-24 0 -43 -15.5t-19 -41.5q0 -30 24 -56t58 -46.5t68.5 -43t58.5 -55.5t24 -74q0 -85 -70.5 -132.5t-200.5 -47.5q-115 0 -165.5 34.5t-50.5 84.5q0 33 23.5 55t59.5 22q39 0 66 -25q-26 -32 -26 -71q0 -38 21.5 -64t60.5 -26
q33 0 54 18.5t21 46.5q0 29 -23.5 55t-56.5 46.5t-66.5 43t-57 55.5t-23.5 73q0 79 69.5 125.5t180.5 46.5q93 0 141.5 -28.5t48.5 -73.5q0 -29 -21 -47.5t-55 -18.5q-53 0 -77 44zM530 553l-4 -5l-167 52l-178 -52l-3 5l165 147h62z" />
    <glyph glyph-name="Scedilla" unicode="&#x15e;" horiz-adv-x="610" 
d="M630 698l-38 -207h-10q0 89 -49.5 153.5t-133.5 64.5q-42 0 -70 -25t-28 -68q0 -40 32.5 -74t78.5 -60.5t92 -56.5t78.5 -76t32.5 -105q0 -109 -78.5 -179t-192.5 -82q-3 0 -12.5 -3t-20 -12t-10.5 -21q0 -13 15 -24t32.5 -19t32.5 -24t15 -37q0 -39 -45 -66t-101 -27
q-37 0 -63 14t-26 37q0 20 15.5 32t39.5 12q25 0 38 -10q-18 -22 -18 -47q0 -30 26 -30q17 0 28.5 13.5t11.5 33.5q0 21 -29.5 48t-29.5 54q0 55 73 74h-12q-51 0 -120 15t-139 15l25 251h10q0 -117 61 -194t151 -77q65 0 96.5 31.5t31.5 79.5q0 39 -33 73.5t-80 63
t-93.5 60t-79.5 78t-33 103.5q0 108 82.5 173.5t226.5 65.5q32 0 100.5 -10.5t119.5 -10.5z" />
    <glyph glyph-name="scedilla" unicode="&#x15f;" horiz-adv-x="518" 
d="M367 376q36 33 36 70q0 46 -60 46q-24 0 -43 -15.5t-19 -41.5q0 -30 24 -56t58 -46.5t68.5 -43t58.5 -55.5t24 -74q0 -78 -59.5 -125t-170.5 -54q-39 -6 -39 -34q0 -13 15 -24t32.5 -19t32.5 -24t15 -37q0 -39 -45 -66t-101 -27q-37 0 -63 14t-26 37q0 20 15.5 32
t39.5 12q25 0 38 -10q-18 -22 -18 -47q0 -30 26 -30q17 0 28.5 13.5t11.5 33.5q0 21 -29.5 48t-29.5 54q0 30 23.5 48.5t49.5 24.5h-17q-115 0 -165.5 34.5t-50.5 84.5q0 33 23.5 55t59.5 22q39 0 66 -25q-26 -32 -26 -71q0 -38 21.5 -64t60.5 -26q33 0 54 18.5t21 46.5
q0 29 -23.5 55t-56.5 46.5t-66.5 43t-57 55.5t-23.5 73q0 79 69.5 125.5t180.5 46.5q93 0 141.5 -28.5t48.5 -73.5q0 -29 -21 -47.5t-55 -18.5q-53 0 -77 44z" />
    <glyph glyph-name="Scaron" unicode="&#x160;" horiz-adv-x="610" 
d="M630 698l-38 -207h-10q0 89 -49.5 153.5t-133.5 64.5q-42 0 -70 -25t-28 -68q0 -40 32.5 -74t78.5 -60.5t92 -56.5t78.5 -76t32.5 -105q0 -119 -92.5 -191t-218.5 -72q-51 0 -120 15t-139 15l25 251h10q0 -117 61 -194t151 -77q65 0 96.5 31.5t31.5 79.5q0 39 -33 73.5
t-80 63t-93.5 60t-79.5 78t-33 103.5q0 108 82.5 173.5t226.5 65.5q32 0 100.5 -10.5t119.5 -10.5zM267 897l4 5l167 -52l179 52l2 -5l-165 -147h-62z" />
    <glyph glyph-name="scaron" unicode="&#x161;" horiz-adv-x="518" 
d="M367 376q36 33 36 70q0 46 -60 46q-24 0 -43 -15.5t-19 -41.5q0 -30 24 -56t58 -46.5t68.5 -43t58.5 -55.5t24 -74q0 -85 -70.5 -132.5t-200.5 -47.5q-115 0 -165.5 34.5t-50.5 84.5q0 33 23.5 55t59.5 22q39 0 66 -25q-26 -32 -26 -71q0 -38 21.5 -64t60.5 -26
q33 0 54 18.5t21 46.5q0 29 -23.5 55t-56.5 46.5t-66.5 43t-57 55.5t-23.5 73q0 79 69.5 125.5t180.5 46.5q93 0 141.5 -28.5t48.5 -73.5q0 -29 -21 -47.5t-55 -18.5q-53 0 -77 44zM186 695l4 5l167 -52l179 52l2 -5l-165 -147h-62z" />
    <glyph glyph-name="Tcommaaccent" unicode="&#x162;" horiz-adv-x="759" 
d="M139 700q138 -3 325 -3l369 3l-49 -221l-11 3q14 96 -30.5 151.5t-149.5 55.5l-83 -590q-7 -51 8.5 -70t55.5 -19l-1 -10q-90 3 -194 3l-194 -3l1 10q38 0 62.5 33t32.5 92l78 554q-92 0 -158 -55t-100 -155l-11 3zM273 -296l-3 6q20 13 32.5 33.5t12.5 39.5q0 46 -51 63
q-1 8 -1 18q0 39 29 64.5t69 25.5q38 0 57.5 -21t19.5 -55q0 -61 -43.5 -101.5t-121.5 -72.5z" />
    <glyph glyph-name="Tcommaaccent" unicode="&#x21a;" horiz-adv-x="759" 
d="M139 700q138 -3 325 -3l369 3l-49 -221l-11 3q14 96 -30.5 151.5t-149.5 55.5l-83 -590q-7 -51 8.5 -70t55.5 -19l-1 -10q-90 3 -194 3l-194 -3l1 10q38 0 62.5 33t32.5 92l78 554q-92 0 -158 -55t-100 -155l-11 3zM273 -296l-3 6q20 13 32.5 33.5t12.5 39.5q0 46 -51 63
q-1 8 -1 18q0 39 29 64.5t69 25.5q38 0 57.5 -21t19.5 -55q0 -61 -43.5 -101.5t-121.5 -72.5z" />
    <glyph glyph-name="tcommaaccent" unicode="&#x163;" horiz-adv-x="386" 
d="M380 60l4 -4q-65 -76 -181 -76q-129 0 -129 107q0 16 4 40l48 344h-38l2 9q76 6 153 48t117 92l8 -3l-19 -137h61l-2 -9h-61l-52 -373q-2 -12 -2 -21q0 -35 38 -35q24 0 49 18zM109 -296l-3 6q20 13 32.5 33.5t12.5 39.5q0 46 -51 63q-1 8 -1 18q0 39 29 64.5t69 25.5
q38 0 57.5 -21t19.5 -55q0 -61 -43.5 -101.5t-121.5 -72.5z" />
    <glyph glyph-name="tcommaaccent" unicode="&#x21b;" horiz-adv-x="386" 
d="M380 60l4 -4q-65 -76 -181 -76q-129 0 -129 107q0 16 4 40l48 344h-38l2 9q76 6 153 48t117 92l8 -3l-19 -137h61l-2 -9h-61l-52 -373q-2 -12 -2 -21q0 -35 38 -35q24 0 49 18zM109 -296l-3 6q20 13 32.5 33.5t12.5 39.5q0 46 -51 63q-1 8 -1 18q0 39 29 64.5t69 25.5
q38 0 57.5 -21t19.5 -55q0 -61 -43.5 -101.5t-121.5 -72.5z" />
    <glyph glyph-name="Tcaron" unicode="&#x164;" horiz-adv-x="759" 
d="M139 700q138 -3 325 -3l369 3l-49 -221l-11 3q14 96 -30.5 151.5t-149.5 55.5l-83 -590q-7 -51 8.5 -70t55.5 -19l-1 -10q-90 3 -194 3l-194 -3l1 10q38 0 62.5 33t32.5 92l78 554q-92 0 -158 -55t-100 -155l-11 3zM326 897l4 5l167 -52l179 52l2 -5l-165 -147h-62z" />
    <glyph glyph-name="tcaron" unicode="&#x165;" horiz-adv-x="461" 
d="M454 464l-4 5q40 30 40 74q0 22 -13 40.5t-38 27.5q0 2 -0.5 8.5t-0.5 9.5q0 39 29 64.5t69 25.5q36 0 56.5 -21.5t20.5 -54.5q0 -114 -159 -179zM380 60l4 -4q-65 -76 -181 -76q-129 0 -129 107q0 16 4 40l48 344h-38l2 9q76 6 153 48t117 92l8 -3l-19 -137h61l-2 -9
h-61l-52 -373q-2 -12 -2 -21q0 -35 38 -35q24 0 49 18z" />
    <glyph glyph-name="Tbar" unicode="&#x166;" horiz-adv-x="759" 
d="M139 700q138 -3 325 -3l369 3l-49 -221l-11 3q14 96 -30.5 151.5t-149.5 55.5l-37 -264h77l-3 -12h-76l-44 -314q-7 -51 7.5 -70t54.5 -19l-1 -10q-88 3 -192 3l-192 -3l1 10q75 0 93 125l39 278h-78l3 12h77l37 264q-92 0 -158 -55t-100 -155l-11 3z" />
    <glyph glyph-name="tbar" unicode="&#x167;" horiz-adv-x="386" 
d="M380 60l4 -4q-31 -36 -79 -56t-102 -20q-69 0 -103 32t-23 108l30 213h-38l2 10h38l17 128h-38l2 9q71 0 146 40.5t124 99.5l8 -3l-19 -137h61l-2 -9h-61l-17 -128h61l-2 -10h-61l-34 -245q-3 -23 6.5 -34.5t26.5 -11.5q29 0 53 18z" />
    <glyph glyph-name="Utilde" unicode="&#x168;" horiz-adv-x="755" 
d="M848 690q-37 0 -66.5 -35.5t-40.5 -109.5l-44 -316q-9 -64 -29.5 -109.5t-46 -71.5t-65 -40.5t-75.5 -18.5t-88 -4q-134 0 -202 50t-68 146q0 20 4 48l53 372q7 51 -8.5 70t-55.5 19l2 10q87 -3 191 -3l193 3l-2 -10q-74 0 -92 -125l-48 -338q-4 -29 -4 -79
q0 -67 36.5 -100t100.5 -33q161 0 191 212l45 318q11 75 -19.5 110t-90.5 35l2 10q103 -3 138 -3l91 3zM673 848q48 0 65 55l7 -5q-10 -72 -47 -110t-92 -38q-41 0 -97.5 26t-83.5 26q-49 0 -66 -55l-7 5q11 74 47.5 111t91.5 37q43 0 100 -26t82 -26z" />
    <glyph glyph-name="utilde" unicode="&#x169;" horiz-adv-x="679" 
d="M441 484q39 16 106 16q113 0 117 -96q0 -22 -2 -35l-37 -261q-3 -21 -3 -35q1 -36 47 -36l4 -8q-82 0 -153 -12t-102 -25l-30 -12l54 260h-6q-18 -68 -43.5 -117.5t-50 -76t-54.5 -42.5t-52 -20t-48 -4q-43 0 -73.5 25t-30.5 67q0 40 12 114q34 211 34 249q0 24 -20 24
q-14 0 -28 -9l-4 7q6 5 18 12t51 19t82 12q112 0 116 -96q0 -22 -2 -34l-32 -235q-5 -33 -5 -59q1 -20 14 -20q23 0 54 55t54.5 142.5t23.5 166.5q0 44 -11 64zM565 657q48 0 65 55l7 -5q-10 -72 -47 -110t-92 -38q-41 0 -97.5 26t-83.5 26q-49 0 -66 -55l-7 5
q11 74 47.5 111t91.5 37q43 0 100 -26t82 -26z" />
    <glyph glyph-name="Umacron" unicode="&#x16a;" horiz-adv-x="755" 
d="M848 690q-37 0 -66.5 -35.5t-40.5 -109.5l-44 -316q-9 -64 -29.5 -109.5t-46 -71.5t-65 -40.5t-75.5 -18.5t-88 -4q-134 0 -202 50t-68 146q0 20 4 48l53 372q7 51 -8.5 70t-55.5 19l2 10q87 -3 191 -3l193 3l-2 -10q-74 0 -92 -125l-48 -338q-4 -29 -4 -79
q0 -67 36.5 -100t100.5 -33q161 0 191 212l45 318q11 75 -19.5 110t-90.5 35l2 10q103 -3 138 -3l91 3zM404 779h311l-1 -10h-311z" />
    <glyph glyph-name="umacron" unicode="&#x16b;" horiz-adv-x="679" 
d="M441 484q39 16 106 16q113 0 117 -96q0 -22 -2 -35l-37 -261q-3 -21 -3 -35q1 -36 47 -36l4 -8q-82 0 -153 -12t-102 -25l-30 -12l54 260h-6q-18 -68 -43.5 -117.5t-50 -76t-54.5 -42.5t-52 -20t-48 -4q-43 0 -73.5 25t-30.5 67q0 40 12 114q34 211 34 249q0 24 -20 24
q-14 0 -28 -9l-4 7q6 5 18 12t51 19t82 12q112 0 116 -96q0 -22 -2 -34l-32 -235q-5 -33 -5 -59q1 -20 14 -20q23 0 54 55t54.5 142.5t23.5 166.5q0 44 -11 64zM285 615h311l-1 -10h-311z" />
    <glyph glyph-name="Ubreve" unicode="&#x16c;" horiz-adv-x="755" 
d="M848 690q-37 0 -66.5 -35.5t-40.5 -109.5l-44 -316q-9 -64 -29.5 -109.5t-46 -71.5t-65 -40.5t-75.5 -18.5t-88 -4q-134 0 -202 50t-68 146q0 20 4 48l53 372q7 51 -8.5 70t-55.5 19l2 10q87 -3 191 -3l193 3l-2 -10q-74 0 -92 -125l-48 -338q-4 -29 -4 -79
q0 -67 36.5 -100t100.5 -33q161 0 191 212l45 318q11 75 -19.5 110t-90.5 35l2 10q103 -3 138 -3l91 3zM724 895h10q-3 -60 -47 -102.5t-115 -42.5q-145 0 -145 116q0 9 2 29h116q-1 -5 -1 -14q0 -33 21 -53t57 -20q41 0 69 24t33 63z" />
    <glyph glyph-name="ubreve" unicode="&#x16d;" horiz-adv-x="679" 
d="M441 484q39 16 106 16q113 0 117 -96q0 -22 -2 -35l-37 -261q-3 -21 -3 -35q1 -36 47 -36l4 -8q-82 0 -153 -12t-102 -25l-30 -12l54 260h-6q-18 -68 -43.5 -117.5t-50 -76t-54.5 -42.5t-52 -20t-48 -4q-43 0 -73.5 25t-30.5 67q0 40 12 114q34 211 34 249q0 24 -20 24
q-14 0 -28 -9l-4 7q6 5 18 12t51 19t82 12q112 0 116 -96q0 -22 -2 -34l-32 -235q-5 -33 -5 -59q1 -20 14 -20q23 0 54 55t54.5 142.5t23.5 166.5q0 44 -11 64zM587 683h10q-3 -60 -47 -102.5t-115 -42.5q-145 0 -145 116q0 9 2 29h116q-1 -5 -1 -14q0 -33 21 -53t57 -20
q41 0 69 24t33 63z" />
    <glyph glyph-name="Uring" unicode="&#x16e;" horiz-adv-x="755" 
d="M848 690q-37 0 -66.5 -35.5t-40.5 -109.5l-44 -316q-9 -64 -29.5 -109.5t-46 -71.5t-65 -40.5t-75.5 -18.5t-88 -4q-134 0 -202 50t-68 146q0 20 4 48l53 372q7 51 -8.5 70t-55.5 19l2 10q87 -3 191 -3l193 3l-2 -10q-74 0 -92 -125l-48 -338q-4 -29 -4 -79
q0 -67 36.5 -100t100.5 -33q161 0 191 212l45 318q11 75 -19.5 110t-90.5 35l2 10q103 -3 138 -3l91 3zM568 759q27 0 40 33t13 72q0 68 -36 68q-27 0 -40 -33t-13 -72q0 -68 36 -68zM597 941q39 0 64.5 -21t25.5 -59q0 -47 -35.5 -79t-95.5 -32q-39 0 -64.5 21t-25.5 59
q0 47 35.5 79t95.5 32z" />
    <glyph glyph-name="uring" unicode="&#x16f;" horiz-adv-x="679" 
d="M441 484q39 16 106 16q113 0 117 -96q0 -22 -2 -35l-37 -261q-3 -21 -3 -35q1 -36 47 -36l4 -8q-82 0 -153 -12t-102 -25l-30 -12l54 260h-6q-18 -68 -43.5 -117.5t-50 -76t-54.5 -42.5t-52 -20t-48 -4q-43 0 -73.5 25t-30.5 67q0 40 12 114q34 211 34 249q0 24 -20 24
q-14 0 -28 -9l-4 7q6 5 18 12t51 19t82 12q112 0 116 -96q0 -22 -2 -34l-32 -235q-5 -33 -5 -59q1 -20 14 -20q23 0 54 55t54.5 142.5t23.5 166.5q0 44 -11 64zM418 542q27 0 40 33t13 72q0 68 -36 68q-27 0 -40 -33t-13 -72q0 -68 36 -68zM447 724q39 0 64.5 -21t25.5 -59
q0 -47 -35.5 -79t-95.5 -32q-39 0 -64.5 21t-25.5 59q0 47 35.5 79t95.5 32z" />
    <glyph glyph-name="Uhungarumlaut" unicode="&#x170;" horiz-adv-x="755" 
d="M848 690q-37 0 -66.5 -35.5t-40.5 -109.5l-44 -316q-9 -64 -29.5 -109.5t-46 -71.5t-65 -40.5t-75.5 -18.5t-88 -4q-134 0 -202 50t-68 146q0 20 4 48l53 372q7 51 -8.5 70t-55.5 19l2 10q87 -3 191 -3l193 3l-2 -10q-74 0 -92 -125l-48 -338q-4 -29 -4 -79
q0 -67 36.5 -100t100.5 -33q161 0 191 212l45 318q11 75 -19.5 110t-90.5 35l2 10q103 -3 138 -3l91 3zM635 905q0 -52 -64 -94.5t-157 -61.5l-2 3l160 206q28 0 45.5 -15.5t17.5 -37.5zM789 905q0 -52 -64 -94.5t-157 -61.5l-2 3l160 206q28 0 45.5 -15.5t17.5 -37.5z" />
    <glyph glyph-name="uhungarumlaut" unicode="&#x171;" horiz-adv-x="679" 
d="M441 484q39 16 106 16q113 0 117 -96q0 -22 -2 -35l-37 -261q-3 -21 -3 -35q1 -36 47 -36l4 -8q-82 0 -153 -12t-102 -25l-30 -12l54 260h-6q-18 -68 -43.5 -117.5t-50 -76t-54.5 -42.5t-52 -20t-48 -4q-43 0 -73.5 25t-30.5 67q0 40 12 114q34 211 34 249q0 24 -20 24
q-14 0 -28 -9l-4 7q6 5 18 12t51 19t82 12q112 0 116 -96q0 -22 -2 -34l-32 -235q-5 -33 -5 -59q1 -20 14 -20q23 0 54 55t54.5 142.5t23.5 166.5q0 44 -11 64zM497 697q0 -52 -64 -94.5t-157 -61.5l-2 3l160 206q28 0 45.5 -15.5t17.5 -37.5zM651 697q0 -52 -64 -94.5
t-157 -61.5l-2 3l160 206q28 0 45.5 -15.5t17.5 -37.5z" />
    <glyph glyph-name="Uogonek" unicode="&#x172;" horiz-adv-x="755" 
d="M539 -202l3 -8q-36 -25 -98 -25q-56 0 -82 21t-26 55q0 44 37.5 83.5t108.5 65.5q-35 -5 -89 -5q-134 0 -202 50t-68 146q0 20 4 48l53 372q7 51 -8.5 70t-55.5 19l2 10q87 -3 191 -3l193 3l-2 -10q-74 0 -92 -125l-48 -338q-4 -29 -4 -79q0 -67 36.5 -100t100.5 -33
q161 0 191 212l45 318q11 75 -19.5 110t-90.5 35l2 10q103 -3 138 -3l91 3l-2 -10q-37 0 -66.5 -35.5t-40.5 -109.5l-44 -316q-15 -104 -55.5 -157t-106.5 -72q-40 -35 -61.5 -81.5t-21.5 -84.5q0 -46 38 -46q26 0 49 10z" />
    <glyph glyph-name="uogonek" unicode="&#x173;" horiz-adv-x="679" 
d="M391 -212q26 0 49 10l3 -8q-36 -25 -98 -25q-56 0 -82 21t-26 55q0 45 39.5 85t113.5 66l52 248h-6q-18 -68 -43.5 -117.5t-50 -76t-54.5 -42.5t-52 -20t-48 -4q-43 0 -73.5 25t-30.5 67q0 40 12 114q34 211 34 249q0 24 -20 24q-14 0 -28 -9l-4 7q6 5 18 12t51 19t82 12
q112 0 116 -96q0 -22 -2 -34l-32 -235q-5 -33 -5 -59q1 -20 14 -20q23 0 54 55t54.5 142.5t23.5 166.5q0 44 -11 64q39 16 106 16q113 0 117 -96q0 -20 -2 -35l-37 -261q-3 -21 -3 -35q1 -36 47 -36l4 -8q-94 0 -163.5 -19t-113 -64t-43.5 -112q0 -46 38 -46z" />
    <glyph glyph-name="Wcircumflex" unicode="&#x174;" horiz-adv-x="1083" 
d="M858 206l148 339q23 52 23 86q0 59 -82 59l1 10q73 -3 123 -3l94 3l-1 -10q-39 0 -74.5 -33t-70.5 -112l-240 -544l-133 -19l-56 441l-180 -423l-120 -18l-112 648q-11 60 -70 60l1 10q109 -3 194 -3l178 3l-1 -10q-47 0 -47 -55q0 -24 1 -33l55 -388l98 234l-28 181
q-5 33 -16 47t-40 14l1 10q105 -3 174 -3l132 3q-6 -38 1 -98zM852 755l-4 -5l-167 52l-178 -52l-3 5l165 147h62z" />
    <glyph glyph-name="wcircumflex" unicode="&#x175;" horiz-adv-x="950" 
d="M751 324q-25 32 -25 71q0 44 31 74.5t79 30.5q57 0 91 -38t34 -95q0 -163 -122 -275t-304 -112q-58 0 -90.5 26.5t-32.5 73.5q0 64 26 159h-6q-18 -67 -43.5 -116.5t-50 -76t-54.5 -42.5t-52 -20t-48 -4q-43 0 -73.5 25t-30.5 67q0 40 12 114q34 211 34 249q0 24 -20 24
q-14 0 -28 -9l-4 7q6 5 18 12t51 19t82 12q112 0 116 -96q0 -22 -2 -34l-32 -235q-5 -33 -5 -59q0 -20 14 -20q29 0 63 71.5t56.5 161t22.5 146.5q0 24 -20 24q-14 0 -28 -9l-4 7q6 5 18 12t51 19t82 12q112 0 116 -96q0 -22 -2 -34l-36 -263q-4 -26 -4 -42q0 -46 33 -46
q81 0 168 81.5t87 151.5q0 42 -29.5 65t-74.5 23q-36 0 -64 -16zM735 553l-4 -5l-167 52l-178 -52l-3 5l165 147h62z" />
    <glyph glyph-name="Ycircumflex" unicode="&#x176;" horiz-adv-x="752" 
d="M573 10l-1 -10q-87 3 -191 3l-193 -3l1 10q75 0 93 125l33 232l-132 270q-25 53 -70 53l1 10q82 -3 200 -3l197 3l-1 -10q-26 0 -42.5 -14.5t-16.5 -38.5q0 -23 14 -58l76 -187l87 124q22 32 32.5 48t20 37.5t9.5 38.5q0 50 -81 50l1 10q46 -3 127 -3l97 3l-1 -10
q-67 0 -160 -130l-122 -171l-40 -290q-7 -51 7.5 -70t54.5 -19zM733 755l-4 -5l-167 52l-178 -52l-3 5l165 147h62z" />
    <glyph glyph-name="ycircumflex" unicode="&#x177;" horiz-adv-x="666" 
d="M438 240h-6q-18 -68 -43.5 -117.5t-50 -76t-54.5 -42.5t-52 -20t-48 -4q-43 0 -73.5 25t-30.5 67q0 40 12 114q34 211 34 249q0 24 -20 24q-14 0 -28 -9l-4 7q6 5 18 12t51 19t82 12q112 0 116 -96q0 -22 -2 -34l-32 -235q-5 -33 -5 -59q1 -20 14 -20q23 0 54 55
t54.5 142.5t23.5 166.5q0 44 -11 64q31 16 98 16q121 0 125 -96q0 -22 -2 -35l-48 -338q-12 -81 -48 -141t-89.5 -94t-115 -50t-131.5 -16q-93 0 -140 29.5t-47 82.5q0 35 27.5 58t67.5 23q44 0 76 -27q-38 -50 -38 -105q0 -51 44 -51q65 0 101.5 51t55.5 143zM589 553
l-4 -5l-167 52l-178 -52l-3 5l165 147h62z" />
    <glyph glyph-name="Ydieresis" unicode="&#x178;" horiz-adv-x="752" 
d="M573 10l-1 -10q-87 3 -191 3l-193 -3l1 10q75 0 93 125l33 232l-132 270q-25 53 -70 53l1 10q82 -3 200 -3l197 3l-1 -10q-26 0 -42.5 -14.5t-16.5 -38.5q0 -23 14 -58l76 -187l87 124q22 32 32.5 48t20 37.5t9.5 38.5q0 50 -81 50l1 10q46 -3 127 -3l97 3l-1 -10
q-67 0 -160 -130l-122 -171l-40 -290q-7 -51 7.5 -70t54.5 -19zM445 750q-37 0 -56 20t-19 52q0 42 26.5 70.5t72.5 28.5q37 0 56.5 -20.5t19.5 -52.5q0 -42 -26.5 -70t-73.5 -28zM668 750q-36 0 -55 20t-19 52q0 42 26.5 70.5t71.5 28.5q38 0 57.5 -20.5t19.5 -52.5
q0 -43 -26 -70.5t-75 -27.5z" />
    <glyph glyph-name="Zacute" unicode="&#x179;" horiz-adv-x="718" 
d="M178 700h597l3 -10l-481 -680l67 4q259 16 355 268h11l-78 -282h-621l-3 10l488 680l-75 -3q-119 -5 -196 -54.5t-122 -174.5h-10zM652 906q0 -52 -64 -94.5t-157 -61.5l-2 3l160 206q28 0 45.5 -15.5t17.5 -37.5z" />
    <glyph glyph-name="zacute" unicode="&#x17a;" horiz-adv-x="568" 
d="M461 330l-3 3q-56 -43 -144 -43q-51 0 -113 20.5t-81 20.5q-14 0 -22.5 -6.5t-9.5 -12.5l-2 -7l-9 2q7 85 46 145.5t115 60.5q60 0 162.5 -45.5t139.5 -45.5q23 0 36 13.5t13 30.5q0 20 -18 28q0 14 14 14q8 0 14 -7t6 -18q0 -42 -52 -93.5t-110.5 -88t-139 -82
t-100.5 -58.5l3 -5q49 29 116 29q41 0 109 -18.5t93 -18.5q10 0 17 6t9 12l1 6l9 -2q-7 -85 -50.5 -151.5t-119.5 -66.5q-43 0 -90 15t-80.5 33.5t-69.5 33.5t-59 15q-19 0 -31.5 -12.5t-12.5 -28.5q0 -20 18 -27q0 -14 -15 -14q-19 0 -19 25q0 45 58.5 98t130 92.5
t146 82.5t95.5 65zM577 697q0 -52 -64 -94.5t-157 -61.5l-2 3l160 206q28 0 45.5 -15.5t17.5 -37.5z" />
    <glyph glyph-name="Zdotaccent" unicode="&#x17b;" horiz-adv-x="718" 
d="M178 700h597l3 -10l-481 -680l67 4q259 16 355 268h11l-78 -282h-621l-3 10l488 680l-75 -3q-119 -5 -196 -54.5t-122 -174.5h-10zM484 750q-42 0 -63.5 23t-21.5 59q0 47 30.5 80t82.5 33q43 0 65.5 -23.5t22.5 -60.5q0 -48 -30.5 -79.5t-85.5 -31.5z" />
    <glyph glyph-name="zdotaccent" unicode="&#x17c;" horiz-adv-x="568" 
d="M461 330l-3 3q-56 -43 -144 -43q-51 0 -113 20.5t-81 20.5q-14 0 -22.5 -6.5t-9.5 -12.5l-2 -7l-9 2q7 85 46 145.5t115 60.5q60 0 162.5 -45.5t139.5 -45.5q23 0 36 13.5t13 30.5q0 20 -18 28q0 14 14 14q8 0 14 -7t6 -18q0 -42 -52 -93.5t-110.5 -88t-139 -82
t-100.5 -58.5l3 -5q49 29 116 29q41 0 109 -18.5t93 -18.5q10 0 17 6t9 12l1 6l9 -2q-7 -85 -50.5 -151.5t-119.5 -66.5q-43 0 -90 15t-80.5 33.5t-69.5 33.5t-59 15q-19 0 -31.5 -12.5t-12.5 -28.5q0 -20 18 -27q0 -14 -15 -14q-19 0 -19 25q0 45 58.5 98t130 92.5
t146 82.5t95.5 65zM396 531q-42 0 -63.5 23t-21.5 59q0 47 30.5 80t82.5 33q43 0 65.5 -23.5t22.5 -60.5q0 -48 -30.5 -79.5t-85.5 -31.5z" />
    <glyph glyph-name="Zcaron" unicode="&#x17d;" horiz-adv-x="718" 
d="M178 700h597l3 -10l-481 -680l67 4q259 16 355 268h11l-78 -282h-621l-3 10l488 680l-75 -3q-119 -5 -196 -54.5t-122 -174.5h-10zM325 897l4 5l167 -52l179 52l2 -5l-165 -147h-62z" />
    <glyph glyph-name="zcaron" unicode="&#x17e;" horiz-adv-x="568" 
d="M461 330l-3 3q-56 -43 -144 -43q-51 0 -113 20.5t-81 20.5q-14 0 -22.5 -6.5t-9.5 -12.5l-2 -7l-9 2q7 85 46 145.5t115 60.5q60 0 162.5 -45.5t139.5 -45.5q23 0 36 13.5t13 30.5q0 20 -18 28q0 14 14 14q8 0 14 -7t6 -18q0 -42 -52 -93.5t-110.5 -88t-139 -82
t-100.5 -58.5l3 -5q49 29 116 29q41 0 109 -18.5t93 -18.5q10 0 17 6t9 12l1 6l9 -2q-7 -85 -50.5 -151.5t-119.5 -66.5q-43 0 -90 15t-80.5 33.5t-69.5 33.5t-59 15q-19 0 -31.5 -12.5t-12.5 -28.5q0 -20 18 -27q0 -14 -15 -14q-19 0 -19 25q0 45 58.5 98t130 92.5
t146 82.5t95.5 65zM222 695l4 5l167 -52l179 52l2 -5l-165 -147h-62z" />
    <glyph glyph-name="florin" unicode="&#x192;" horiz-adv-x="626" 
d="M488 435l-1 -8h-131l-32 -207q-29 -191 -124 -301.5t-230 -110.5q-60 0 -98 27.5t-38 70.5q0 38 28.5 63t73.5 25q50 0 83 -27q-20 -22 -35 -54t-15 -59q0 -36 25 -36q73 0 93 185l44 423h-42l1 9h42q13 129 114.5 218.5t236.5 89.5q70 0 115 -30.5t45 -74.5
q0 -45 -29.5 -72t-84.5 -27q-60 0 -94 36q19 21 33.5 57.5t14.5 64.5q0 36 -24 36q-52 0 -81 -171l-21 -127h131z" />
    <glyph glyph-name="AEmacron" unicode="&#x1e2;" horiz-adv-x="1061" 
d="M1100 700l-30 -214h-10q2 96 -51.5 149t-146.5 53q-33 0 -54 -6l-43 -305h52q55 0 96.5 36t50.5 104h10l-45 -320h-10q9 68 -21 118t-101 50h-34l-37 -266q-7 -51 7.5 -70t54.5 -19q82 0 163 72t119 192h11l-84 -274q-81 0 -219 1.5t-194 1.5l-198 -3l1 10q92 0 110 125
l21 151h-205l-93 -120q-30 -38 -41.5 -59.5t-11.5 -43.5q0 -53 74 -53l-1 -10q-80 3 -146 3l-92 -3l1 10q78 0 188 139l373 473q2 38 -13.5 53t-50.5 15l1 10q88 -3 192 -3q48 0 190.5 1.5t216.5 1.5zM322 298h198l42 303zM585 779h311l-1 -10h-311z" />
    <glyph glyph-name="aemacron" unicode="&#x1e3;" horiz-adv-x="933" 
d="M626 200q0 -78 32.5 -121t93.5 -43q66 0 134 44l4 -5q-86 -95 -246 -95q-112 0 -172.5 47.5t-70.5 132.5h-4q-23 -92 -68 -136t-123 -44q-74 0 -115 53t-41 137q0 143 91.5 236.5t246.5 93.5q55 0 124 -13.5t87 -13.5q70 27 153 27q97 0 150 -38.5t53 -91.5
q0 -55 -55 -94.5t-163 -39.5q-61 0 -108 11q-3 -18 -3 -47zM322 53q35 0 66.5 118t31.5 225q0 96 -36 96q-31 0 -54.5 -60t-34 -133.5t-10.5 -136.5q0 -109 37 -109zM630 255q54 5 101.5 65.5t47.5 122.5q0 49 -27 49q-30 0 -68 -64.5t-54 -172.5zM412 615h311l-1 -10h-311z
" />
    <glyph glyph-name="Aringacute" unicode="&#x1fa;" horiz-adv-x="789" 
d="M601 763q0 -27 -15 -50l126 -634q14 -69 69 -69l-1 -10q-55 3 -193 3l-187 -3l1 10q64 0 64 61q0 16 -8 66l-23 149h-203l-64 -139q-25 -54 -25 -84t19.5 -41.5t61.5 -11.5l-1 -10q-54 3 -121 3l-92 -3l1 10q79 0 145 139l252 523q-26 21 -26 59q0 48 35 80t95 32
q38 0 64 -22t26 -58zM397 856l194 155q34 -13 34 -46q0 -32 -24.5 -55.5t-62.5 -35.5t-73 -17t-67 -5zM238 298h195l-49 304zM483 661q26 0 39.5 33.5t13.5 71.5q0 32 -10 50t-27 18q-26 0 -39.5 -33.5t-13.5 -71.5q0 -32 10 -50t27 -18z" />
    <glyph glyph-name="aringacute" unicode="&#x1fb;" horiz-adv-x="661" 
d="M577 839q0 -39 -38 -66t-87 -37t-102 -10v4l192 155q35 -14 35 -46zM322 53q35 0 66.5 118t31.5 225q0 96 -36 96q-31 0 -54.5 -60t-34 -133.5t-10.5 -136.5q0 -109 37 -109zM665 500l-62 -428q-3 -20 -3 -28q0 -23 20 -23q13 0 28 9l4 -7q-6 -5 -17 -12t-49 -19t-81 -12
t-78 22.5t-35 76.5q0 41 13 81h-8q-23 -92 -68 -136t-123 -44q-74 0 -115 53t-41 137q0 143 91.5 236.5t246.5 93.5q35 0 92.5 -13t91.5 -13q26 0 49 6.5t33 13.5zM408 531q27 0 40 33t13 72q0 68 -36 68q-27 0 -40 -33t-13 -72q0 -68 36 -68zM437 713q39 0 64.5 -21
t25.5 -59q0 -47 -35.5 -79t-95.5 -32q-39 0 -64.5 21t-25.5 59q0 47 35.5 79t95.5 32z" />
    <glyph glyph-name="AEacute" unicode="&#x1fc;" horiz-adv-x="1061" 
d="M1100 700l-30 -214h-10q2 96 -51.5 149t-146.5 53q-33 0 -54 -6l-43 -305h52q55 0 96.5 36t50.5 104h10l-45 -320h-10q9 68 -21 118t-101 50h-34l-37 -266q-7 -51 7.5 -70t54.5 -19q82 0 163 72t119 192h11l-84 -274q-81 0 -219 1.5t-194 1.5l-198 -3l1 10q92 0 110 125
l21 151h-205l-93 -120q-30 -38 -41.5 -59.5t-11.5 -43.5q0 -53 74 -53l-1 -10q-80 3 -146 3l-92 -3l1 10q78 0 188 139l373 473q2 38 -13.5 53t-50.5 15l1 10q88 -3 192 -3q48 0 190.5 1.5t216.5 1.5zM322 298h198l42 303zM903 906q0 -52 -64 -94.5t-157 -61.5l-2 3l160 206
q28 0 45.5 -15.5t17.5 -37.5z" />
    <glyph glyph-name="aeacute" unicode="&#x1fd;" horiz-adv-x="933" 
d="M626 200q0 -78 32.5 -121t93.5 -43q66 0 134 44l4 -5q-86 -95 -246 -95q-112 0 -172.5 47.5t-70.5 132.5h-4q-23 -92 -68 -136t-123 -44q-74 0 -115 53t-41 137q0 143 91.5 236.5t246.5 93.5q55 0 124 -13.5t87 -13.5q70 27 153 27q97 0 150 -38.5t53 -91.5
q0 -55 -55 -94.5t-163 -39.5q-61 0 -108 11q-3 -18 -3 -47zM322 53q35 0 66.5 118t31.5 225q0 96 -36 96q-31 0 -54.5 -60t-34 -133.5t-10.5 -136.5q0 -109 37 -109zM630 255q54 5 101.5 65.5t47.5 122.5q0 49 -27 49q-30 0 -68 -64.5t-54 -172.5zM748 697q0 -52 -64 -94.5
t-157 -61.5l-2 3l160 206q28 0 45.5 -15.5t17.5 -37.5z" />
    <glyph glyph-name="Oslashacute" unicode="&#x1fe;" horiz-adv-x="795" 
d="M703 670q121 -76 121 -241q0 -115 -54 -217t-155.5 -166.5t-225.5 -64.5q-118 0 -198 47l-47 -59h-16l53 66q-114 76 -114 236q0 115 54 217t155.5 166.5t225.5 64.5q113 0 190 -43l59 74h16zM484 709q-38 0 -74 -79t-57.5 -194t-24.5 -226l235 315q0 84 -21.5 134
t-57.5 50zM407 -9q57 0 104 169.5t52 344.5l-235 -315q0 -93 21.5 -146t57.5 -53zM650 906q0 -52 -64 -94.5t-157 -61.5l-2 3l160 206q28 0 45.5 -15.5t17.5 -37.5z" />
    <glyph glyph-name="oslashacute" unicode="&#x1ff;" horiz-adv-x="643" 
d="M404 500q69 0 124 -26l46 58h16l-51 -63q53 -28 83.5 -76t30.5 -111q0 -119 -98.5 -210.5t-254.5 -91.5q-70 0 -129 27l-47 -59h-16l52 65q-110 59 -110 185q0 119 99.5 210.5t254.5 91.5zM323 -12q32 0 61 109.5t36 221.5l-141 -176v-23q0 -62 12 -97t32 -35zM379 492
q-32 0 -62 -108t-37 -220l141 177q1 11 1 21q0 130 -43 130zM532 697q0 -52 -64 -94.5t-157 -61.5l-2 3l160 206q28 0 45.5 -15.5t17.5 -37.5z" />
    <glyph glyph-name="Scommaaccent" unicode="&#x218;" horiz-adv-x="610" 
d="M630 698l-38 -207h-10q0 89 -49.5 153.5t-133.5 64.5q-42 0 -70 -25t-28 -68q0 -40 32.5 -74t78.5 -60.5t92 -56.5t78.5 -76t32.5 -105q0 -119 -92.5 -191t-218.5 -72q-51 0 -120 15t-139 15l25 251h10q0 -117 61 -194t151 -77q65 0 96.5 31.5t31.5 79.5q0 39 -33 73.5
t-80 63t-93.5 60t-79.5 78t-33 103.5q0 108 82.5 173.5t226.5 65.5q32 0 100.5 -10.5t119.5 -10.5zM208 -296l-3 6q20 13 32.5 33.5t12.5 39.5q0 46 -51 63q-1 8 -1 18q0 39 29 64.5t69 25.5q38 0 57.5 -21t19.5 -55q0 -61 -43.5 -101.5t-121.5 -72.5z" />
    <glyph glyph-name="scommaaccent" unicode="&#x219;" horiz-adv-x="518" 
d="M367 376q36 33 36 70q0 46 -60 46q-24 0 -43 -15.5t-19 -41.5q0 -30 24 -56t58 -46.5t68.5 -43t58.5 -55.5t24 -74q0 -85 -70.5 -132.5t-200.5 -47.5q-115 0 -165.5 34.5t-50.5 84.5q0 33 23.5 55t59.5 22q39 0 66 -25q-26 -32 -26 -71q0 -38 21.5 -64t60.5 -26
q33 0 54 18.5t21 46.5q0 29 -23.5 55t-56.5 46.5t-66.5 43t-57 55.5t-23.5 73q0 79 69.5 125.5t180.5 46.5q93 0 141.5 -28.5t48.5 -73.5q0 -29 -21 -47.5t-55 -18.5q-53 0 -77 44zM141 -296l-3 6q20 13 32.5 33.5t12.5 39.5q0 46 -51 63q-1 8 -1 18q0 39 29 64.5t69 25.5
q38 0 57.5 -21t19.5 -55q0 -61 -43.5 -101.5t-121.5 -72.5z" />
    <glyph glyph-name="dotlessj" unicode="&#x237;" horiz-adv-x="372" 
d="M84 29l50 354q2 14 2 20q0 38 -48 38l-3 9q68 0 139.5 12.5t109.5 25.5l38 12l-62 -449q-22 -159 -129 -212q-37 -18 -132.5 -38.5t-130.5 -45.5l-5 7q7 6 54 37.5t66 58.5q16 22 26.5 50.5t14.5 51.5t10 69z" />
    <glyph glyph-name="hsuperior" unicode="&#x2b0;" horiz-adv-x="483" 
d="M133 859q47 0 97.5 8.5t77.5 17.5l26 9l-65 -357h4q50 182 176 182q31 0 52 -17t21 -47q0 -32 -8 -80q-24 -145 -24 -172q0 -16 14 -16q10 0 20 6l2 -7q-38 -31 -105 -31q-83 0 -83 68q0 9 2 23l23 163q4 18 4 41q0 14 -10 14q-27 0 -60.5 -83t-33.5 -170q0 -30 8 -44
q-29 -12 -76 -12q-35 0 -58.5 16t-23.5 52q0 12 2 24l52 368q3 20 -4.5 28t-27.5 8z" />
    <glyph glyph-name="jsuperior" unicode="&#x2b2;" horiz-adv-x="261" 
d="M312 719l-43 -309q-15 -105 -91 -149q-28 -16 -93.5 -31.5t-89.5 -32.5l-5 7q1 1 36 24.5t49 42.5q24 33 36 118l35 251q5 37 -32 37l-2 8q49 0 99 8.5t75 16.5zM237 742q-35 0 -53.5 16t-18.5 42q0 35 24 57t67 22q35 0 53 -16.5t18 -43.5q0 -34 -23.5 -55.5
t-66.5 -21.5z" />
    <glyph glyph-name="wsuperior" unicode="&#x2b7;" horiz-adv-x="678" 
d="M579 596q-18 22 -18 49q0 31 21.5 52.5t55.5 21.5q40 0 64 -26.5t24 -66.5q0 -114 -85.5 -192.5t-212.5 -78.5q-41 0 -63.5 18.5t-22.5 51.5q0 49 18 111h-4q-16 -58 -38 -97t-47.5 -55.5t-45.5 -22.5t-43 -6q-30 0 -51.5 17t-21.5 47q0 26 9 80q23 146 23 172
q0 17 -14 17q-10 0 -19 -6l-3 7q39 30 106 30q31 0 56 -15t25 -52q0 -17 -3 -38l-21 -151q-3 -27 -3 -41t9 -14q30 0 65 99t35 164q0 17 -14 17q-10 0 -20 -6l-3 7q39 30 106 30q81 0 81 -67q0 -16 -2 -32l-22 -161q-5 -37 -5 -44q0 -33 23 -33q57 0 117.5 56.5t60.5 106.5
q0 30 -19.5 46t-50.5 16q-27 0 -47 -11z" />
    <glyph glyph-name="ysuperior" unicode="&#x2b8;" horiz-adv-x="465" 
d="M360 537h-5q-16 -58 -38 -97t-47 -56t-45 -23t-43 -6q-31 0 -52 17.5t-21 47.5q0 32 8 80q24 145 24 172q0 17 -14 17q-10 0 -20 -7l-2 7q38 30 105 30q79 0 82 -67q0 -15 -2 -24l-22 -163q-4 -18 -4 -41q1 -14 10 -14q26 0 58.5 85t32.5 168q0 32 -7 45q22 11 69 11
q85 0 88 -67q0 -15 -2 -24l-33 -237q-15 -109 -90 -160t-179 -51q-65 0 -98 21t-33 58q0 24 19.5 40.5t47.5 16.5q29 0 53 -19q-27 -35 -27 -72q0 -36 32 -36q46 0 71 35t38 99z" />
    <glyph glyph-name="circumflex" unicode="&#x2c6;" horiz-adv-x="461" 
d="M484 553l-4 -5l-167 52l-178 -52l-3 5l165 147h62z" />
    <glyph glyph-name="caron" unicode="&#x2c7;" horiz-adv-x="461" 
d="M151 695l4 5l167 -52l179 52l2 -5l-165 -147h-62z" />
    <glyph glyph-name="breve" unicode="&#x2d8;" horiz-adv-x="413" 
d="M445 683h10q-3 -60 -47 -102.5t-115 -42.5q-145 0 -145 116q0 9 2 29h116q-1 -5 -1 -14q0 -33 21 -53t57 -20q41 0 69 24t33 63z" />
    <glyph glyph-name="dotaccent" unicode="&#x2d9;" horiz-adv-x="361" 
d="M253 531q-42 0 -63.5 23t-21.5 59q0 47 30.5 80t82.5 33q43 0 65.5 -23.5t22.5 -60.5q0 -48 -30.5 -79.5t-85.5 -31.5z" />
    <glyph glyph-name="ring" unicode="&#x2da;" horiz-adv-x="342" 
d="M250 542q27 0 40 33t13 72q0 68 -36 68q-27 0 -40 -33t-13 -72q0 -68 36 -68zM279 724q39 0 64.5 -21t25.5 -59q0 -47 -35.5 -79t-95.5 -32q-39 0 -64.5 21t-25.5 59q0 47 35.5 79t95.5 32z" />
    <glyph glyph-name="ogonek" unicode="&#x2db;" horiz-adv-x="350" 
d="M250 -202l3 -8q-36 -25 -98 -25q-56 0 -82 21t-26 55q0 52 50 95.5t144 67.5l5 -4q-37 -40 -60 -85.5t-23 -80.5q0 -46 38 -46q26 0 49 10z" />
    <glyph glyph-name="tilde" unicode="&#x2dc;" horiz-adv-x="524" 
d="M476 657q48 0 65 55l7 -5q-10 -72 -47 -110t-92 -38q-41 0 -97.5 26t-83.5 26q-49 0 -66 -55l-7 5q11 74 47.5 111t91.5 37q43 0 100 -26t82 -26z" />
    <glyph glyph-name="hungarumlaut" unicode="&#x2dd;" horiz-adv-x="410" 
d="M327 697q0 -52 -64 -94.5t-157 -61.5l-2 3l160 206q28 0 45.5 -15.5t17.5 -37.5zM481 697q0 -52 -64 -94.5t-157 -61.5l-2 3l160 206q28 0 45.5 -15.5t17.5 -37.5z" />
    <glyph glyph-name="xsuperior" unicode="&#x2e3;" horiz-adv-x="439" 
d="M378 535q39 8 61 22.5t22 30.5q0 30 -44 30q-19 0 -39 -7q-20 18 -20 45q0 25 18 43.5t51 18.5t52.5 -20.5t19.5 -51.5q0 -39 -26.5 -71.5t-90.5 -46.5l57 -122q11 -20 23 -20q6 0 16 5l3 -7q-39 -30 -106 -30q-83 0 -118 75l-51 109q-39 -9 -60.5 -25t-21.5 -34
q0 -25 36 -25q23 0 43 10q20 -17 20 -47q0 -25 -20.5 -43.5t-53.5 -18.5q-30 0 -48.5 20.5t-18.5 51.5q0 37 29 69.5t92 48.5l-56 119q-10 23 -23 23q-9 0 -17 -5l-2 7q38 30 105 30q85 0 117 -70z" />
    <glyph glyph-name="Wgrave" unicode="&#x1e80;" horiz-adv-x="1083" 
d="M858 206l148 339q23 52 23 86q0 59 -82 59l1 10q73 -3 123 -3l94 3l-1 -10q-39 0 -74.5 -33t-70.5 -112l-240 -544l-133 -19l-56 441l-180 -423l-120 -18l-112 648q-11 60 -70 60l1 10q109 -3 194 -3l178 3l-1 -10q-47 0 -47 -55q0 -24 1 -33l55 -388l98 234l-28 181
q-5 33 -16 47t-40 14l1 10q105 -3 174 -3l132 3q-6 -38 1 -98zM565 892q0 30 19.5 48.5t55.5 18.5l109 -206l-3 -3q-69 15 -125 56t-56 86z" />
    <glyph glyph-name="wgrave" unicode="&#x1e81;" horiz-adv-x="950" 
d="M751 324q-25 32 -25 71q0 44 31 74.5t79 30.5q57 0 91 -38t34 -95q0 -163 -122 -275t-304 -112q-58 0 -90.5 26.5t-32.5 73.5q0 64 26 159h-6q-18 -67 -43.5 -116.5t-50 -76t-54.5 -42.5t-52 -20t-48 -4q-43 0 -73.5 25t-30.5 67q0 40 12 114q34 211 34 249q0 24 -20 24
q-14 0 -28 -9l-4 7q6 5 18 12t51 19t82 12q112 0 116 -96q0 -22 -2 -34l-32 -235q-5 -33 -5 -59q0 -20 14 -20q29 0 63 71.5t56.5 161t22.5 146.5q0 24 -20 24q-14 0 -28 -9l-4 7q6 5 18 12t51 19t82 12q112 0 116 -96q0 -22 -2 -34l-36 -263q-4 -26 -4 -42q0 -46 33 -46
q81 0 168 81.5t87 151.5q0 42 -29.5 65t-74.5 23q-36 0 -64 -16zM448 683q0 30 19.5 48.5t55.5 18.5l109 -206l-3 -3q-69 15 -125 56t-56 86z" />
    <glyph glyph-name="Wacute" unicode="&#x1e82;" horiz-adv-x="1083" 
d="M858 206l148 339q23 52 23 86q0 59 -82 59l1 10q73 -3 123 -3l94 3l-1 -10q-39 0 -74.5 -33t-70.5 -112l-240 -544l-133 -19l-56 441l-180 -423l-120 -18l-112 648q-11 60 -70 60l1 10q109 -3 194 -3l178 3l-1 -10q-47 0 -47 -55q0 -24 1 -33l55 -388l98 234l-28 181
q-5 33 -16 47t-40 14l1 10q105 -3 174 -3l132 3q-6 -38 1 -98zM852 906q0 -52 -64 -94.5t-157 -61.5l-2 3l160 206q28 0 45.5 -15.5t17.5 -37.5z" />
    <glyph glyph-name="wacute" unicode="&#x1e83;" horiz-adv-x="950" 
d="M751 324q-25 32 -25 71q0 44 31 74.5t79 30.5q57 0 91 -38t34 -95q0 -163 -122 -275t-304 -112q-58 0 -90.5 26.5t-32.5 73.5q0 64 26 159h-6q-18 -67 -43.5 -116.5t-50 -76t-54.5 -42.5t-52 -20t-48 -4q-43 0 -73.5 25t-30.5 67q0 40 12 114q34 211 34 249q0 24 -20 24
q-14 0 -28 -9l-4 7q6 5 18 12t51 19t82 12q112 0 116 -96q0 -22 -2 -34l-32 -235q-5 -33 -5 -59q0 -20 14 -20q29 0 63 71.5t56.5 161t22.5 146.5q0 24 -20 24q-14 0 -28 -9l-4 7q6 5 18 12t51 19t82 12q112 0 116 -96q0 -22 -2 -34l-36 -263q-4 -26 -4 -42q0 -46 33 -46
q81 0 168 81.5t87 151.5q0 42 -29.5 65t-74.5 23q-36 0 -64 -16zM708 697q0 -52 -64 -94.5t-157 -61.5l-2 3l160 206q28 0 45.5 -15.5t17.5 -37.5z" />
    <glyph glyph-name="Wdieresis" unicode="&#x1e84;" horiz-adv-x="1083" 
d="M858 206l148 339q23 52 23 86q0 59 -82 59l1 10q73 -3 123 -3l94 3l-1 -10q-39 0 -74.5 -33t-70.5 -112l-240 -544l-133 -19l-56 441l-180 -423l-120 -18l-112 648q-11 60 -70 60l1 10q109 -3 194 -3l178 3l-1 -10q-47 0 -47 -55q0 -24 1 -33l55 -388l98 234l-28 181
q-5 33 -16 47t-40 14l1 10q105 -3 174 -3l132 3q-6 -38 1 -98zM568 750q-37 0 -56 20t-19 52q0 42 26.5 70.5t72.5 28.5q37 0 56.5 -20.5t19.5 -52.5q0 -42 -26.5 -70t-73.5 -28zM791 750q-36 0 -55 20t-19 52q0 42 26.5 70.5t71.5 28.5q38 0 57.5 -20.5t19.5 -52.5
q0 -43 -26 -70.5t-75 -27.5z" />
    <glyph glyph-name="wdieresis" unicode="&#x1e85;" horiz-adv-x="950" 
d="M751 324q-25 32 -25 71q0 44 31 74.5t79 30.5q57 0 91 -38t34 -95q0 -163 -122 -275t-304 -112q-58 0 -90.5 26.5t-32.5 73.5q0 64 26 159h-6q-18 -67 -43.5 -116.5t-50 -76t-54.5 -42.5t-52 -20t-48 -4q-43 0 -73.5 25t-30.5 67q0 40 12 114q34 211 34 249q0 24 -20 24
q-14 0 -28 -9l-4 7q6 5 18 12t51 19t82 12q112 0 116 -96q0 -22 -2 -34l-32 -235q-5 -33 -5 -59q0 -20 14 -20q29 0 63 71.5t56.5 161t22.5 146.5q0 24 -20 24q-14 0 -28 -9l-4 7q6 5 18 12t51 19t82 12q112 0 116 -96q0 -22 -2 -34l-36 -263q-4 -26 -4 -42q0 -46 33 -46
q81 0 168 81.5t87 151.5q0 42 -29.5 65t-74.5 23q-36 0 -64 -16zM446 543q-37 0 -56 20t-19 52q0 42 26.5 70.5t72.5 28.5q37 0 56.5 -20.5t19.5 -52.5q0 -42 -26.5 -70t-73.5 -28zM669 543q-36 0 -55 20t-19 52q0 42 26.5 70.5t71.5 28.5q38 0 57.5 -20.5t19.5 -52.5
q0 -43 -26 -70.5t-75 -27.5z" />
    <glyph glyph-name="Ygrave" unicode="&#x1ef2;" horiz-adv-x="752" 
d="M573 10l-1 -10q-87 3 -191 3l-193 -3l1 10q75 0 93 125l33 232l-132 270q-25 53 -70 53l1 10q82 -3 200 -3l197 3l-1 -10q-26 0 -42.5 -14.5t-16.5 -38.5q0 -23 14 -58l76 -187l87 124q22 32 32.5 48t20 37.5t9.5 38.5q0 50 -81 50l1 10q46 -3 127 -3l97 3l-1 -10
q-67 0 -160 -130l-122 -171l-40 -290q-7 -51 7.5 -70t54.5 -19zM406 892q0 30 19.5 48.5t55.5 18.5l109 -206l-3 -3q-69 15 -125 56t-56 86z" />
    <glyph glyph-name="ygrave" unicode="&#x1ef3;" horiz-adv-x="666" 
d="M438 240h-6q-18 -68 -43.5 -117.5t-50 -76t-54.5 -42.5t-52 -20t-48 -4q-43 0 -73.5 25t-30.5 67q0 40 12 114q34 211 34 249q0 24 -20 24q-14 0 -28 -9l-4 7q6 5 18 12t51 19t82 12q112 0 116 -96q0 -22 -2 -34l-32 -235q-5 -33 -5 -59q1 -20 14 -20q23 0 54 55
t54.5 142.5t23.5 166.5q0 44 -11 64q31 16 98 16q121 0 125 -96q0 -22 -2 -35l-48 -338q-12 -81 -48 -141t-89.5 -94t-115 -50t-131.5 -16q-93 0 -140 29.5t-47 82.5q0 35 27.5 58t67.5 23q44 0 76 -27q-38 -50 -38 -105q0 -51 44 -51q65 0 101.5 51t55.5 143zM248 683
q0 30 19.5 48.5t55.5 18.5l109 -206l-3 -3q-69 15 -125 56t-56 86z" />
    <glyph glyph-name="endash" unicode="&#x2013;" horiz-adv-x="572" 
d="M84 285h483l-2 -12h-483z" />
    <glyph glyph-name="emdash" unicode="&#x2014;" horiz-adv-x="690" 
d="M84 285h602l-2 -12h-602z" />
    <glyph glyph-name="quoteleft" unicode="&#x2018;" horiz-adv-x="290" 
d="M321 750l4 -7q-78 -55 -78 -118q0 -32 19.5 -59.5t54.5 -42.5q1 -6 1 -16q0 -55 -33 -87t-89 -32q-44 0 -69.5 27t-25.5 69q0 75 62.5 147.5t153.5 118.5z" />
    <glyph glyph-name="quoteright" unicode="&#x2019;" horiz-adv-x="290" 
d="M129 388l-4 7q78 55 78 118q0 32 -19.5 59.5t-54.5 42.5q-1 6 -1 16q0 55 33 87t89 32q44 0 69.5 -27t25.5 -69q0 -75 -62.5 -147.5t-153.5 -118.5z" />
    <glyph glyph-name="quotesinglbase" unicode="&#x201a;" horiz-adv-x="313" 
d="M49 -170l-4 7q78 55 78 118q0 32 -19.5 59.5t-54.5 42.5q-1 6 -1 16q0 55 33 87t89 32q44 0 69.5 -27t25.5 -69q0 -75 -62.5 -147.5t-153.5 -118.5z" />
    <glyph glyph-name="quotedblleft" unicode="&#x201c;" horiz-adv-x="549" 
d="M321 750l4 -7q-78 -55 -78 -118q0 -32 19.5 -59.5t54.5 -42.5q1 -6 1 -16q0 -55 -33 -87t-89 -32q-44 0 -69.5 27t-25.5 69q0 75 62.5 147.5t153.5 118.5zM580 750l4 -7q-78 -55 -78 -118q0 -32 19.5 -59.5t54.5 -42.5q1 -6 1 -16q0 -55 -33 -87t-89 -32q-44 0 -69.5 27
t-25.5 69q0 75 62.5 147.5t153.5 118.5z" />
    <glyph glyph-name="quotedblright" unicode="&#x201d;" horiz-adv-x="549" 
d="M388 388l-4 7q78 55 78 118q0 32 -19.5 59.5t-54.5 42.5q-1 6 -1 16q0 55 33 87t89 32q44 0 69.5 -27t25.5 -69q0 -75 -62.5 -147.5t-153.5 -118.5zM129 388l-4 7q78 55 78 118q0 32 -19.5 59.5t-54.5 42.5q-1 6 -1 16q0 55 33 87t89 32q44 0 69.5 -27t25.5 -69
q0 -75 -62.5 -147.5t-153.5 -118.5z" />
    <glyph glyph-name="quotedblbase" unicode="&#x201e;" horiz-adv-x="572" 
d="M310 -170l-4 7q78 55 78 118q0 32 -19.5 59.5t-54.5 42.5q-1 6 -1 16q0 55 33 87t89 32q44 0 69.5 -27t25.5 -69q0 -75 -62.5 -147.5t-153.5 -118.5zM51 -170l-4 7q78 55 78 118q0 32 -19.5 59.5t-54.5 42.5q-1 6 -1 16q0 55 33 87t89 32q44 0 69.5 -27t25.5 -69
q0 -75 -62.5 -147.5t-153.5 -118.5z" />
    <glyph glyph-name="dagger" unicode="&#x2020;" horiz-adv-x="647" 
d="M376 372q-50 0 -113 -36t-102 -36q-29 0 -48 19t-19 49q0 38 27 63t63 25q39 0 92 -36.5t93 -36.5q-3 22 -42 90t-39 115q0 64 41.5 97.5t95.5 33.5q44 0 74 -24.5t30 -73.5q0 -35 -18.5 -71.5t-42 -61.5t-49 -55t-34.5 -50q40 0 104 36.5t103 36.5q29 0 48.5 -19
t19.5 -49q0 -38 -27.5 -63t-63.5 -25q-33 0 -61 18t-59.5 36t-72.5 18zM308 -169h-16q4 27 4 58q0 65 -30.5 165t-30.5 148q0 63 40 105t98 42q46 0 74.5 -30.5t28.5 -74.5q0 -47 -23.5 -98.5t-53 -91.5t-57 -100.5t-34.5 -122.5z" />
    <glyph glyph-name="daggerdbl" unicode="&#x2021;" horiz-adv-x="648" 
d="M376 372q-50 0 -112.5 -36t-101.5 -36q-30 0 -49 19t-19 49q0 38 27 63t63 25q39 0 92.5 -36.5t93.5 -36.5q-4 21 -43 89t-39 116q0 64 41.5 97.5t95.5 33.5q44 0 74 -24.5t30 -73.5q0 -35 -18.5 -71.5t-41.5 -61.5t-48.5 -55t-34.5 -50q40 0 103.5 36.5t102.5 36.5
q29 0 48.5 -19t19.5 -49q0 -38 -27 -63t-63 -25q-33 0 -61.5 18t-60 36t-72.5 18zM349 178q50 0 112.5 36t101.5 36q29 0 48.5 -19t19.5 -49q0 -38 -27 -63t-64 -25q-39 0 -92 36.5t-93 36.5q3 -22 42 -90t39 -115q0 -64 -41 -97.5t-95 -33.5q-44 0 -74 24.5t-30 73.5
q0 35 18.5 71.5t41.5 61.5t48.5 55t34.5 50q-40 0 -104 -36.5t-103 -36.5q-29 0 -48 19t-19 49q0 38 27 63t63 25q33 0 61.5 -18t60 -36t72.5 -18zM350 191q-36 0 -55 19.5t-19 51.5q0 41 26 68.5t72 27.5q36 0 55 -20t19 -52q0 -41 -26.5 -68t-71.5 -27z" />
    <glyph glyph-name="bullet" unicode="&#x2022;" horiz-adv-x="400" 
d="M99 276q0 64 47.5 110t114.5 46q53 0 87.5 -36t34.5 -88q0 -63 -47.5 -109.5t-114.5 -46.5q-53 0 -87.5 36t-34.5 88z" />
    <glyph glyph-name="perthousand" unicode="&#x2030;" horiz-adv-x="1061" 
d="M295 709q-22 0 -42.5 -70.5t-20.5 -140.5q0 -46 7 -75.5t19 -29.5q22 0 43 67.5t21 142.5q0 106 -27 106zM106 521q0 78 56 138t148 60q67 0 103 -38.5t36 -99.5q0 -74 -53.5 -136t-155.5 -62q-60 0 -97 37t-37 101zM529 307q-23 0 -43 -70.5t-20 -140.5q0 -46 7 -75.5
t19 -29.5q22 0 43 67.5t21 143.5q0 105 -27 105zM339 119q0 78 56.5 138t148.5 60q67 0 103 -38.5t36 -99.5q0 -74 -53.5 -136t-155.5 -62q-60 0 -97.5 37t-37.5 101zM667 725h13l-560 -750h-13zM900 307q-23 0 -43 -70.5t-20 -140.5q0 -46 7 -75.5t19 -29.5q22 0 43 67.5
t21 142.5q0 43 -7 74.5t-20 31.5zM710 119q0 78 56.5 138t148.5 60q67 0 103 -38.5t36 -99.5q0 -74 -53.5 -136t-155.5 -62q-60 0 -97.5 37t-37.5 101z" />
    <glyph glyph-name="guilsinglleft" unicode="&#x2039;" horiz-adv-x="307" 
d="M67 277l277 230l5 -6l-141 -234l76 -234l-7 -6l-213 230z" />
    <glyph glyph-name="guilsinglright" unicode="&#x203a;" horiz-adv-x="307" 
d="M104 507l213 -230l-3 -20l-277 -230l-5 6l141 234l-75 234z" />
    <glyph glyph-name="fraction" unicode="&#x2044;" horiz-adv-x="386" 
d="M422 710h13l-373 -720h-14z" />
    <glyph glyph-name="zerosuperior" unicode="&#x2070;" horiz-adv-x="418" 
d="M324 809q74 0 119 -45.5t45 -119.5q0 -96 -67 -168t-157 -72q-74 0 -118 45.5t-44 120.5q0 96 66 167.5t156 71.5zM273 411q28 0 51 107t23 190q0 94 -31 94q-28 0 -51 -107.5t-23 -189.5q0 -94 31 -94z" />
    <glyph glyph-name="foursuperior" unicode="&#x2074;" horiz-adv-x="366" 
d="M256 599l137 67l-21 -155h47l-2 -8h-47l-4 -33q-4 -28 4 -38t30 -10l-1 -8q-48 2 -105 2l-105 -2l1 8q40 0 51 68l2 13h-151l-2 4l100 112q54 60 54 114q0 30 -14 50q26 26 63 26q31 0 48.5 -17.5t17.5 -41.5q0 -30 -19 -56t-67 -60l-170 -123h141z" />
    <glyph glyph-name="fivesuperior" unicode="&#x2075;" horiz-adv-x="365" 
d="M193 413q30 0 55 19.5t25 63.5q0 43 -39 70.5t-98 27.5l52 205q159 -9 175 -9q37 0 50.5 7t15.5 23h6q2 -12 2 -23q0 -57 -31 -86.5t-83 -29.5q-29 0 -79 16t-71 18l-26 -104q54 56 137 56q68 0 104 -33t36 -80q0 -59 -47.5 -104.5t-150.5 -45.5q-69 0 -103.5 25
t-34.5 61q0 27 18 48.5t51 21.5q22 0 34.5 -13.5t12.5 -31.5q0 -5 -3 -17q-21 -1 -35 -12.5t-14 -32.5q0 -17 10.5 -28.5t30.5 -11.5z" />
    <glyph glyph-name="sixsuperior" unicode="&#x2076;" horiz-adv-x="379" 
d="M297 565q0 46 -18 46q-5 0 -15 -5t-15 -6q-14 -56 -14 -110q0 -79 20 -79q14 0 28 51t14 103zM99 551q0 60 36 116.5t112 99t177 50.5l1 -6q-58 -13 -104.5 -63t-68.5 -140q8 3 24 14.5t33.5 18.5t39.5 7q39 0 63.5 -26t24.5 -64q0 -73 -52.5 -113.5t-130.5 -40.5
q-73 0 -114 39t-41 108z" />
    <glyph glyph-name="sevensuperior" unicode="&#x2077;" horiz-adv-x="362" 
d="M286 509q0 -32 11 -65q-24 -40 -78 -40q-32 0 -51 19t-19 47q0 40 34 75.5t76.5 57.5t92.5 53t72 58l-3 3q-47 -45 -130 -45q-23 0 -69.5 7.5t-67.5 7.5q-32 0 -40 -29h-8q6 76 36 113.5t95 37.5q34 0 91.5 -18t78.5 -18t32.5 10.5t13.5 25.5h6q1 -5 1 -12
q0 -39 -18 -68.5t-43.5 -50l-51 -41t-43.5 -53t-18 -75.5z" />
    <glyph glyph-name="eightsuperior" unicode="&#x2078;" horiz-adv-x="377" 
d="M123 685q0 54 52.5 89t139.5 35q50 0 85.5 -20t35.5 -52q0 -28 -15.5 -43.5t-43 -26t-32.5 -14.5q43 -24 67 -51t24 -66q0 -132 -223 -132q-69 0 -99.5 23.5t-30.5 55.5q0 29 16 46t47 32t41 23q-64 47 -64 101zM161 483q0 -34 16 -53t41 -19q28 0 46 16.5t18 45.5
q0 25 -20 48t-69 58q-1 -6 -16.5 -37t-15.5 -59zM360 745q0 57 -48 57q-24 0 -38 -14t-14 -36q0 -47 78 -95q3 12 9 26.5t9.5 28t3.5 33.5z" />
    <glyph glyph-name="ninesuperior" unicode="&#x2079;" horiz-adv-x="379" 
d="M253 648q0 -46 18 -46q5 0 15 5t15 6q14 56 14 110q0 79 -20 79q-14 0 -28 -51t-14 -103zM451 662q0 -60 -36 -116.5t-112 -99t-177 -50.5l-1 6q58 13 104.5 63t68.5 140q-8 -3 -24 -14.5t-33.5 -18.5t-39.5 -7q-39 0 -63.5 26t-24.5 64q0 73 52.5 113.5t130.5 40.5
q73 0 114 -39t41 -108z" />
    <glyph glyph-name="plussuperior" unicode="&#x207a;" horiz-adv-x="243" 
d="M215 702h8l-16 -115h118l-1 -8h-118l-16 -115h-8l16 115h-117l1 8h117z" />
    <glyph glyph-name="minussuperior" unicode="&#x207b;" horiz-adv-x="243" 
d="M82 587h243l-1 -8h-243z" />
    <glyph glyph-name="parenleftsuperior" unicode="&#x207d;" horiz-adv-x="213" 
d="M94 578q0 98 64.5 172t154.5 114l3 -4q-109 -126 -109 -321q0 -122 38 -185l-5 -4q-62 33 -104 92t-42 136z" />
    <glyph glyph-name="parenrightsuperior" unicode="&#x207e;" horiz-adv-x="213" 
d="M283 636q0 -98 -64 -171.5t-155 -114.5l-3 4q110 129 110 321q0 117 -39 185l4 4q62 -32 104.5 -91t42.5 -137z" />
    <glyph glyph-name="nsuperior" unicode="&#x207f;" horiz-adv-x="479" 
d="M272 366q-27 -11 -74 -11q-79 0 -82 67q0 16 1 25l25 174q3 23 3 31q0 25 -32 25l-3 8q57 0 107 8.5t71 16.5l21 9l-38 -182h5q16 58 37.5 97t46 56t44.5 23t43 6q31 0 52 -17t21 -47q0 -20 -8 -80q-24 -146 -24 -173q0 -16 14 -16q10 0 19 6l3 -7q-38 -30 -106 -30
q-79 0 -81 67q0 10 2 24l22 162l4 40q0 14 -10 14q-26 0 -58.5 -84t-32.5 -167q0 -31 8 -45z" />
    <glyph glyph-name="zeroinferior" unicode="&#x2080;" horiz-adv-x="418" 
d="M252 296q74 0 119 -45.5t45 -119.5q0 -96 -67 -168t-157 -72q-74 0 -118 45.5t-44 120.5q0 96 66 167.5t156 71.5zM201 -102q28 0 51 107t23 190q0 94 -31 94q-28 0 -51 -107.5t-23 -189.5q0 -94 31 -94z" />
    <glyph glyph-name="oneinferior" unicode="&#x2081;" horiz-adv-x="242" 
d="M3 -90l1 8q42 0 51 68l32 225q5 38 -2.5 50.5t-30.5 12.5l1 8q105 0 173 23l-48 -339q-4 -28 4 -38t30 -10l-1 -8q-48 2 -105 2z" />
    <glyph glyph-name="twoinferior" unicode="&#x2082;" horiz-adv-x="372" 
d="M181 287q-23 0 -38 -14.5t-15 -34.5q0 -32 38 -36q5 -30 -13.5 -47t-46.5 -17q-25 0 -39.5 15.5t-14.5 37.5q0 44 43 74.5t125 30.5q66 0 108.5 -26t42.5 -70q0 -45 -25 -72.5t-65 -40.5t-82.5 -22t-86 -28t-67.5 -49l4 -3q43 43 124 43q24 0 70.5 -7.5t67.5 -7.5
q32 0 40 29h8q-5 -71 -40 -111t-99 -40q-36 0 -90 18t-72 18q-41 0 -47 -36h-6q0 41 16.5 74t41.5 53.5t54.5 43t54.5 42.5t41.5 52.5t16.5 73.5q0 29 -13.5 43t-35.5 14z" />
    <glyph glyph-name="threeinferior" unicode="&#x2083;" horiz-adv-x="363" 
d="M148 -109q-69 0 -102.5 26t-33.5 62q0 27 18 49t53 22q23 0 34.5 -13t11.5 -31q0 -5 -4 -21q-21 -1 -35 -13.5t-14 -33.5q0 -17 10.5 -27.5t30.5 -10.5q41 0 74.5 39t33.5 97q0 29 -16 47.5t-44 18.5q-15 0 -29 -4l-1 7q43 15 71.5 50.5t28.5 79.5q0 24 -13.5 38
t-35.5 14q-24 0 -39.5 -14.5t-15.5 -34.5q0 -32 38 -36q1 -4 1 -9q0 -22 -15 -38.5t-44 -16.5q-28 0 -41.5 16t-13.5 38q0 43 41.5 73.5t122.5 30.5q67 0 104.5 -21t37.5 -56q0 -77 -130 -100l1 -5q15 4 35 4q39 0 62.5 -22.5t23.5 -55.5q0 -60 -55.5 -104.5t-150.5 -44.5z
" />
    <glyph glyph-name="fourinferior" unicode="&#x2084;" horiz-adv-x="366" 
d="M185 95l137 67l-21 -155h47l-2 -8h-47l-4 -33q-4 -28 4 -38t30 -10l-1 -8q-48 2 -105 2l-105 -2l1 8q40 0 51 68l2 13h-151l-2 4l100 112q54 60 54 114q0 30 -14 50q26 26 63 26q31 0 48.5 -17.5t17.5 -41.5q0 -30 -19 -56t-67 -60l-170 -123h141z" />
    <glyph glyph-name="fiveinferior" unicode="&#x2085;" horiz-adv-x="365" 
d="M121 -100q30 0 55 19.5t25 63.5q0 43 -39 70.5t-98 27.5l52 205q159 -9 175 -9q37 0 50.5 7t15.5 23h6q2 -12 2 -23q0 -57 -31 -86.5t-83 -29.5q-29 0 -79 16t-71 18l-26 -104q54 56 137 56q68 0 104 -33t36 -80q0 -59 -47.5 -104.5t-150.5 -45.5q-69 0 -103.5 25
t-34.5 61q0 27 18 48.5t51 21.5q22 0 34.5 -13.5t12.5 -31.5q0 -5 -3 -17q-21 -1 -35 -12.5t-14 -32.5q0 -17 10.5 -28.5t30.5 -11.5z" />
    <glyph glyph-name="sixinferior" unicode="&#x2086;" horiz-adv-x="379" 
d="M224 52q0 46 -18 46q-5 0 -15 -5t-15 -6q-14 -56 -14 -110q0 -79 20 -79q14 0 28 51t14 103zM26 38q0 60 36 116.5t112 99t177 50.5l1 -6q-58 -13 -104.5 -63t-68.5 -140q8 3 24 14.5t33.5 18.5t39.5 7q39 0 63.5 -26t24.5 -64q0 -73 -52.5 -113.5t-130.5 -40.5
q-73 0 -114 39t-41 108z" />
    </font>
</defs>
</svg>
